<?xml version="1.0" encoding="utf-8"?>
<svg xmlns="http://www.w3.org/2000/svg" xmlns:xlink="http://www.w3.org/1999/xlink" width="600" height="400" viewBox="0 0 2400 1600">
<defs>
  <clipPath id="clip370">
    <rect x="0" y="0" width="2400" height="1600"/>
  </clipPath>
</defs>
<path clip-path="url(#clip370)" d="
M0 1600 L2400 1600 L2400 0 L0 0  Z
  " fill="#ffffff" fill-rule="evenodd" fill-opacity="1"/>
<defs>
  <clipPath id="clip371">
    <rect x="480" y="0" width="1681" height="1600"/>
  </clipPath>
</defs>
<defs>
  <clipPath id="clip372">
    <rect x="219" y="123" width="2134" height="1301"/>
  </clipPath>
</defs>
<path clip-path="url(#clip370)" d="
M219.866 1423.18 L2352.76 1423.18 L2352.76 123.472 L219.866 123.472  Z
  " fill="#ffffff" fill-rule="evenodd" fill-opacity="1"/>
<polyline clip-path="url(#clip372)" style="stroke:#000000; stroke-linecap:butt; stroke-linejoin:round; stroke-width:2; stroke-opacity:0.1; fill:none" points="
  239.167,1423.18 239.167,123.472 
  "/>
<polyline clip-path="url(#clip372)" style="stroke:#000000; stroke-linecap:butt; stroke-linejoin:round; stroke-width:2; stroke-opacity:0.1; fill:none" points="
  649.811,1423.18 649.811,123.472 
  "/>
<polyline clip-path="url(#clip372)" style="stroke:#000000; stroke-linecap:butt; stroke-linejoin:round; stroke-width:2; stroke-opacity:0.1; fill:none" points="
  1060.46,1423.18 1060.46,123.472 
  "/>
<polyline clip-path="url(#clip372)" style="stroke:#000000; stroke-linecap:butt; stroke-linejoin:round; stroke-width:2; stroke-opacity:0.1; fill:none" points="
  1471.1,1423.18 1471.1,123.472 
  "/>
<polyline clip-path="url(#clip372)" style="stroke:#000000; stroke-linecap:butt; stroke-linejoin:round; stroke-width:2; stroke-opacity:0.1; fill:none" points="
  1881.75,1423.18 1881.75,123.472 
  "/>
<polyline clip-path="url(#clip372)" style="stroke:#000000; stroke-linecap:butt; stroke-linejoin:round; stroke-width:2; stroke-opacity:0.1; fill:none" points="
  2292.39,1423.18 2292.39,123.472 
  "/>
<polyline clip-path="url(#clip370)" style="stroke:#000000; stroke-linecap:butt; stroke-linejoin:round; stroke-width:4; stroke-opacity:1; fill:none" points="
  219.866,1423.18 2352.76,1423.18 
  "/>
<polyline clip-path="url(#clip370)" style="stroke:#000000; stroke-linecap:butt; stroke-linejoin:round; stroke-width:4; stroke-opacity:1; fill:none" points="
  239.167,1423.18 239.167,1404.28 
  "/>
<polyline clip-path="url(#clip370)" style="stroke:#000000; stroke-linecap:butt; stroke-linejoin:round; stroke-width:4; stroke-opacity:1; fill:none" points="
  649.811,1423.18 649.811,1404.28 
  "/>
<polyline clip-path="url(#clip370)" style="stroke:#000000; stroke-linecap:butt; stroke-linejoin:round; stroke-width:4; stroke-opacity:1; fill:none" points="
  1060.46,1423.18 1060.46,1404.28 
  "/>
<polyline clip-path="url(#clip370)" style="stroke:#000000; stroke-linecap:butt; stroke-linejoin:round; stroke-width:4; stroke-opacity:1; fill:none" points="
  1471.1,1423.18 1471.1,1404.28 
  "/>
<polyline clip-path="url(#clip370)" style="stroke:#000000; stroke-linecap:butt; stroke-linejoin:round; stroke-width:4; stroke-opacity:1; fill:none" points="
  1881.75,1423.18 1881.75,1404.28 
  "/>
<polyline clip-path="url(#clip370)" style="stroke:#000000; stroke-linecap:butt; stroke-linejoin:round; stroke-width:4; stroke-opacity:1; fill:none" points="
  2292.39,1423.18 2292.39,1404.28 
  "/>
<path clip-path="url(#clip370)" d="M239.167 1454.1 Q235.555 1454.1 233.727 1457.66 Q231.921 1461.2 231.921 1468.33 Q231.921 1475.44 233.727 1479.01 Q235.555 1482.55 239.167 1482.55 Q242.801 1482.55 244.606 1479.01 Q246.435 1475.44 246.435 1468.33 Q246.435 1461.2 244.606 1457.66 Q242.801 1454.1 239.167 1454.1 M239.167 1450.39 Q244.977 1450.39 248.032 1455 Q251.111 1459.58 251.111 1468.33 Q251.111 1477.06 248.032 1481.67 Q244.977 1486.25 239.167 1486.25 Q233.356 1486.25 230.278 1481.67 Q227.222 1477.06 227.222 1468.33 Q227.222 1459.58 230.278 1455 Q233.356 1450.39 239.167 1450.39 Z" fill="#000000" fill-rule="evenodd" fill-opacity="1" /><path clip-path="url(#clip370)" d="M609.43 1451.02 L627.786 1451.02 L627.786 1454.96 L613.712 1454.96 L613.712 1463.43 Q614.731 1463.08 615.749 1462.92 Q616.768 1462.73 617.786 1462.73 Q623.573 1462.73 626.953 1465.9 Q630.332 1469.08 630.332 1474.49 Q630.332 1480.07 626.86 1483.17 Q623.388 1486.25 617.069 1486.25 Q614.893 1486.25 612.624 1485.88 Q610.379 1485.51 607.971 1484.77 L607.971 1480.07 Q610.055 1481.2 612.277 1481.76 Q614.499 1482.32 616.976 1482.32 Q620.981 1482.32 623.319 1480.21 Q625.657 1478.1 625.657 1474.49 Q625.657 1470.88 623.319 1468.77 Q620.981 1466.67 616.976 1466.67 Q615.101 1466.67 613.226 1467.08 Q611.374 1467.5 609.43 1468.38 L609.43 1451.02 Z" fill="#000000" fill-rule="evenodd" fill-opacity="1" /><path clip-path="url(#clip370)" d="M649.545 1454.1 Q645.934 1454.1 644.105 1457.66 Q642.3 1461.2 642.3 1468.33 Q642.3 1475.44 644.105 1479.01 Q645.934 1482.55 649.545 1482.55 Q653.18 1482.55 654.985 1479.01 Q656.814 1475.44 656.814 1468.33 Q656.814 1461.2 654.985 1457.66 Q653.18 1454.1 649.545 1454.1 M649.545 1450.39 Q655.355 1450.39 658.411 1455 Q661.49 1459.58 661.49 1468.33 Q661.49 1477.06 658.411 1481.67 Q655.355 1486.25 649.545 1486.25 Q643.735 1486.25 640.656 1481.67 Q637.601 1477.06 637.601 1468.33 Q637.601 1459.58 640.656 1455 Q643.735 1450.39 649.545 1450.39 Z" fill="#000000" fill-rule="evenodd" fill-opacity="1" /><path clip-path="url(#clip370)" d="M679.707 1454.1 Q676.096 1454.1 674.267 1457.66 Q672.462 1461.2 672.462 1468.33 Q672.462 1475.44 674.267 1479.01 Q676.096 1482.55 679.707 1482.55 Q683.341 1482.55 685.147 1479.01 Q686.976 1475.44 686.976 1468.33 Q686.976 1461.2 685.147 1457.66 Q683.341 1454.1 679.707 1454.1 M679.707 1450.39 Q685.517 1450.39 688.573 1455 Q691.652 1459.58 691.652 1468.33 Q691.652 1477.06 688.573 1481.67 Q685.517 1486.25 679.707 1486.25 Q673.897 1486.25 670.818 1481.67 Q667.763 1477.06 667.763 1468.33 Q667.763 1459.58 670.818 1455 Q673.897 1450.39 679.707 1450.39 Z" fill="#000000" fill-rule="evenodd" fill-opacity="1" /><path clip-path="url(#clip370)" d="M1004.98 1481.64 L1012.62 1481.64 L1012.62 1455.28 L1004.31 1456.95 L1004.31 1452.69 L1012.57 1451.02 L1017.25 1451.02 L1017.25 1481.64 L1024.89 1481.64 L1024.89 1485.58 L1004.98 1485.58 L1004.98 1481.64 Z" fill="#000000" fill-rule="evenodd" fill-opacity="1" /><path clip-path="url(#clip370)" d="M1044.33 1454.1 Q1040.72 1454.1 1038.89 1457.66 Q1037.09 1461.2 1037.09 1468.33 Q1037.09 1475.44 1038.89 1479.01 Q1040.72 1482.55 1044.33 1482.55 Q1047.97 1482.55 1049.77 1479.01 Q1051.6 1475.44 1051.6 1468.33 Q1051.6 1461.2 1049.77 1457.66 Q1047.97 1454.1 1044.33 1454.1 M1044.33 1450.39 Q1050.14 1450.39 1053.2 1455 Q1056.28 1459.58 1056.28 1468.33 Q1056.28 1477.06 1053.2 1481.67 Q1050.14 1486.25 1044.33 1486.25 Q1038.52 1486.25 1035.44 1481.67 Q1032.39 1477.06 1032.39 1468.33 Q1032.39 1459.58 1035.44 1455 Q1038.52 1450.39 1044.33 1450.39 Z" fill="#000000" fill-rule="evenodd" fill-opacity="1" /><path clip-path="url(#clip370)" d="M1074.5 1454.1 Q1070.88 1454.1 1069.06 1457.66 Q1067.25 1461.2 1067.25 1468.33 Q1067.25 1475.44 1069.06 1479.01 Q1070.88 1482.55 1074.5 1482.55 Q1078.13 1482.55 1079.94 1479.01 Q1081.76 1475.44 1081.76 1468.33 Q1081.76 1461.2 1079.94 1457.66 Q1078.13 1454.1 1074.5 1454.1 M1074.5 1450.39 Q1080.31 1450.39 1083.36 1455 Q1086.44 1459.58 1086.44 1468.33 Q1086.44 1477.06 1083.36 1481.67 Q1080.31 1486.25 1074.5 1486.25 Q1068.69 1486.25 1065.61 1481.67 Q1062.55 1477.06 1062.55 1468.33 Q1062.55 1459.58 1065.61 1455 Q1068.69 1450.39 1074.5 1450.39 Z" fill="#000000" fill-rule="evenodd" fill-opacity="1" /><path clip-path="url(#clip370)" d="M1104.66 1454.1 Q1101.05 1454.1 1099.22 1457.66 Q1097.41 1461.2 1097.41 1468.33 Q1097.41 1475.44 1099.22 1479.01 Q1101.05 1482.55 1104.66 1482.55 Q1108.29 1482.55 1110.1 1479.01 Q1111.93 1475.44 1111.93 1468.33 Q1111.93 1461.2 1110.1 1457.66 Q1108.29 1454.1 1104.66 1454.1 M1104.66 1450.39 Q1110.47 1450.39 1113.52 1455 Q1116.6 1459.58 1116.6 1468.33 Q1116.6 1477.06 1113.52 1481.67 Q1110.47 1486.25 1104.66 1486.25 Q1098.85 1486.25 1095.77 1481.67 Q1092.71 1477.06 1092.71 1468.33 Q1092.71 1459.58 1095.77 1455 Q1098.85 1450.39 1104.66 1450.39 Z" fill="#000000" fill-rule="evenodd" fill-opacity="1" /><path clip-path="url(#clip370)" d="M1415.63 1481.64 L1423.27 1481.64 L1423.27 1455.28 L1414.96 1456.95 L1414.96 1452.69 L1423.22 1451.02 L1427.9 1451.02 L1427.9 1481.64 L1435.53 1481.64 L1435.53 1485.58 L1415.63 1485.58 L1415.63 1481.64 Z" fill="#000000" fill-rule="evenodd" fill-opacity="1" /><path clip-path="url(#clip370)" d="M1445.03 1451.02 L1463.38 1451.02 L1463.38 1454.96 L1449.31 1454.96 L1449.31 1463.43 Q1450.33 1463.08 1451.34 1462.92 Q1452.36 1462.73 1453.38 1462.73 Q1459.17 1462.73 1462.55 1465.9 Q1465.93 1469.08 1465.93 1474.49 Q1465.93 1480.07 1462.46 1483.17 Q1458.98 1486.25 1452.66 1486.25 Q1450.49 1486.25 1448.22 1485.88 Q1445.97 1485.51 1443.57 1484.77 L1443.57 1480.07 Q1445.65 1481.2 1447.87 1481.76 Q1450.09 1482.32 1452.57 1482.32 Q1456.58 1482.32 1458.91 1480.21 Q1461.25 1478.1 1461.25 1474.49 Q1461.25 1470.88 1458.91 1468.77 Q1456.58 1466.67 1452.57 1466.67 Q1450.7 1466.67 1448.82 1467.08 Q1446.97 1467.5 1445.03 1468.38 L1445.03 1451.02 Z" fill="#000000" fill-rule="evenodd" fill-opacity="1" /><path clip-path="url(#clip370)" d="M1485.14 1454.1 Q1481.53 1454.1 1479.7 1457.66 Q1477.9 1461.2 1477.9 1468.33 Q1477.9 1475.44 1479.7 1479.01 Q1481.53 1482.55 1485.14 1482.55 Q1488.77 1482.55 1490.58 1479.01 Q1492.41 1475.44 1492.41 1468.33 Q1492.41 1461.2 1490.58 1457.66 Q1488.77 1454.1 1485.14 1454.1 M1485.14 1450.39 Q1490.95 1450.39 1494.01 1455 Q1497.08 1459.58 1497.08 1468.33 Q1497.08 1477.06 1494.01 1481.67 Q1490.95 1486.25 1485.14 1486.25 Q1479.33 1486.25 1476.25 1481.67 Q1473.2 1477.06 1473.2 1468.33 Q1473.2 1459.58 1476.25 1455 Q1479.33 1450.39 1485.14 1450.39 Z" fill="#000000" fill-rule="evenodd" fill-opacity="1" /><path clip-path="url(#clip370)" d="M1515.3 1454.1 Q1511.69 1454.1 1509.86 1457.66 Q1508.06 1461.2 1508.06 1468.33 Q1508.06 1475.44 1509.86 1479.01 Q1511.69 1482.55 1515.3 1482.55 Q1518.94 1482.55 1520.74 1479.01 Q1522.57 1475.44 1522.57 1468.33 Q1522.57 1461.2 1520.74 1457.66 Q1518.94 1454.1 1515.3 1454.1 M1515.3 1450.39 Q1521.11 1450.39 1524.17 1455 Q1527.25 1459.58 1527.25 1468.33 Q1527.25 1477.06 1524.17 1481.67 Q1521.11 1486.25 1515.3 1486.25 Q1509.49 1486.25 1506.41 1481.67 Q1503.36 1477.06 1503.36 1468.33 Q1503.36 1459.58 1506.41 1455 Q1509.49 1450.39 1515.3 1450.39 Z" fill="#000000" fill-rule="evenodd" fill-opacity="1" /><path clip-path="url(#clip370)" d="M1830.36 1481.64 L1846.68 1481.64 L1846.68 1485.58 L1824.73 1485.58 L1824.73 1481.64 Q1827.39 1478.89 1831.98 1474.26 Q1836.58 1469.61 1837.76 1468.27 Q1840.01 1465.74 1840.89 1464.01 Q1841.79 1462.25 1841.79 1460.56 Q1841.79 1457.8 1839.85 1456.07 Q1837.93 1454.33 1834.83 1454.33 Q1832.63 1454.33 1830.17 1455.09 Q1827.74 1455.86 1824.96 1457.41 L1824.96 1452.69 Q1827.79 1451.55 1830.24 1450.97 Q1832.7 1450.39 1834.73 1450.39 Q1840.1 1450.39 1843.3 1453.08 Q1846.49 1455.77 1846.49 1460.26 Q1846.49 1462.39 1845.68 1464.31 Q1844.89 1466.2 1842.79 1468.8 Q1842.21 1469.47 1839.11 1472.69 Q1836.01 1475.88 1830.36 1481.64 Z" fill="#000000" fill-rule="evenodd" fill-opacity="1" /><path clip-path="url(#clip370)" d="M1866.49 1454.1 Q1862.88 1454.1 1861.05 1457.66 Q1859.25 1461.2 1859.25 1468.33 Q1859.25 1475.44 1861.05 1479.01 Q1862.88 1482.55 1866.49 1482.55 Q1870.13 1482.55 1871.93 1479.01 Q1873.76 1475.44 1873.76 1468.33 Q1873.76 1461.2 1871.93 1457.66 Q1870.13 1454.1 1866.49 1454.1 M1866.49 1450.39 Q1872.3 1450.39 1875.36 1455 Q1878.44 1459.58 1878.44 1468.33 Q1878.44 1477.06 1875.36 1481.67 Q1872.3 1486.25 1866.49 1486.25 Q1860.68 1486.25 1857.6 1481.67 Q1854.55 1477.06 1854.55 1468.33 Q1854.55 1459.58 1857.6 1455 Q1860.68 1450.39 1866.49 1450.39 Z" fill="#000000" fill-rule="evenodd" fill-opacity="1" /><path clip-path="url(#clip370)" d="M1896.65 1454.1 Q1893.04 1454.1 1891.21 1457.66 Q1889.41 1461.2 1889.41 1468.33 Q1889.41 1475.44 1891.21 1479.01 Q1893.04 1482.55 1896.65 1482.55 Q1900.29 1482.55 1902.09 1479.01 Q1903.92 1475.44 1903.92 1468.33 Q1903.92 1461.2 1902.09 1457.66 Q1900.29 1454.1 1896.65 1454.1 M1896.65 1450.39 Q1902.46 1450.39 1905.52 1455 Q1908.6 1459.58 1908.6 1468.33 Q1908.6 1477.06 1905.52 1481.67 Q1902.46 1486.25 1896.65 1486.25 Q1890.84 1486.25 1887.76 1481.67 Q1884.71 1477.06 1884.71 1468.33 Q1884.71 1459.58 1887.76 1455 Q1890.84 1450.39 1896.65 1450.39 Z" fill="#000000" fill-rule="evenodd" fill-opacity="1" /><path clip-path="url(#clip370)" d="M1926.82 1454.1 Q1923.2 1454.1 1921.38 1457.66 Q1919.57 1461.2 1919.57 1468.33 Q1919.57 1475.44 1921.38 1479.01 Q1923.2 1482.55 1926.82 1482.55 Q1930.45 1482.55 1932.26 1479.01 Q1934.08 1475.44 1934.08 1468.33 Q1934.08 1461.2 1932.26 1457.66 Q1930.45 1454.1 1926.82 1454.1 M1926.82 1450.39 Q1932.63 1450.39 1935.68 1455 Q1938.76 1459.58 1938.76 1468.33 Q1938.76 1477.06 1935.68 1481.67 Q1932.63 1486.25 1926.82 1486.25 Q1921.01 1486.25 1917.93 1481.67 Q1914.87 1477.06 1914.87 1468.33 Q1914.87 1459.58 1917.93 1455 Q1921.01 1450.39 1926.82 1450.39 Z" fill="#000000" fill-rule="evenodd" fill-opacity="1" /><path clip-path="url(#clip370)" d="M2241 1481.64 L2257.32 1481.64 L2257.32 1485.58 L2235.38 1485.58 L2235.38 1481.64 Q2238.04 1478.89 2242.62 1474.26 Q2247.23 1469.61 2248.41 1468.27 Q2250.66 1465.74 2251.53 1464.01 Q2252.44 1462.25 2252.44 1460.56 Q2252.44 1457.8 2250.49 1456.07 Q2248.57 1454.33 2245.47 1454.33 Q2243.27 1454.33 2240.82 1455.09 Q2238.39 1455.86 2235.61 1457.41 L2235.61 1452.69 Q2238.43 1451.55 2240.89 1450.97 Q2243.34 1450.39 2245.38 1450.39 Q2250.75 1450.39 2253.94 1453.08 Q2257.14 1455.77 2257.14 1460.26 Q2257.14 1462.39 2256.33 1464.31 Q2255.54 1466.2 2253.43 1468.8 Q2252.85 1469.47 2249.75 1472.69 Q2246.65 1475.88 2241 1481.64 Z" fill="#000000" fill-rule="evenodd" fill-opacity="1" /><path clip-path="url(#clip370)" d="M2267.18 1451.02 L2285.54 1451.02 L2285.54 1454.96 L2271.47 1454.96 L2271.47 1463.43 Q2272.48 1463.08 2273.5 1462.92 Q2274.52 1462.73 2275.54 1462.73 Q2281.33 1462.73 2284.71 1465.9 Q2288.09 1469.08 2288.09 1474.49 Q2288.09 1480.07 2284.61 1483.17 Q2281.14 1486.25 2274.82 1486.25 Q2272.65 1486.25 2270.38 1485.88 Q2268.13 1485.51 2265.72 1484.77 L2265.72 1480.07 Q2267.81 1481.2 2270.03 1481.76 Q2272.25 1482.32 2274.73 1482.32 Q2278.73 1482.32 2281.07 1480.21 Q2283.41 1478.1 2283.41 1474.49 Q2283.41 1470.88 2281.07 1468.77 Q2278.73 1466.67 2274.73 1466.67 Q2272.85 1466.67 2270.98 1467.08 Q2269.13 1467.5 2267.18 1468.38 L2267.18 1451.02 Z" fill="#000000" fill-rule="evenodd" fill-opacity="1" /><path clip-path="url(#clip370)" d="M2307.3 1454.1 Q2303.69 1454.1 2301.86 1457.66 Q2300.05 1461.2 2300.05 1468.33 Q2300.05 1475.44 2301.86 1479.01 Q2303.69 1482.55 2307.3 1482.55 Q2310.93 1482.55 2312.74 1479.01 Q2314.57 1475.44 2314.57 1468.33 Q2314.57 1461.2 2312.74 1457.66 Q2310.93 1454.1 2307.3 1454.1 M2307.3 1450.39 Q2313.11 1450.39 2316.16 1455 Q2319.24 1459.58 2319.24 1468.33 Q2319.24 1477.06 2316.16 1481.67 Q2313.11 1486.25 2307.3 1486.25 Q2301.49 1486.25 2298.41 1481.67 Q2295.35 1477.06 2295.35 1468.33 Q2295.35 1459.58 2298.41 1455 Q2301.49 1450.39 2307.3 1450.39 Z" fill="#000000" fill-rule="evenodd" fill-opacity="1" /><path clip-path="url(#clip370)" d="M2337.46 1454.1 Q2333.85 1454.1 2332.02 1457.66 Q2330.21 1461.2 2330.21 1468.33 Q2330.21 1475.44 2332.02 1479.01 Q2333.85 1482.55 2337.46 1482.55 Q2341.09 1482.55 2342.9 1479.01 Q2344.73 1475.44 2344.73 1468.33 Q2344.73 1461.2 2342.9 1457.66 Q2341.09 1454.1 2337.46 1454.1 M2337.46 1450.39 Q2343.27 1450.39 2346.33 1455 Q2349.4 1459.58 2349.4 1468.33 Q2349.4 1477.06 2346.33 1481.67 Q2343.27 1486.25 2337.46 1486.25 Q2331.65 1486.25 2328.57 1481.67 Q2325.52 1477.06 2325.52 1468.33 Q2325.52 1459.58 2328.57 1455 Q2331.65 1450.39 2337.46 1450.39 Z" fill="#000000" fill-rule="evenodd" fill-opacity="1" /><path clip-path="url(#clip370)" d="M1106.72 1537.27 L1098 1560.92 L1115.47 1560.92 L1106.72 1537.27 M1103.09 1530.94 L1110.38 1530.94 L1128.49 1578.46 L1121.8 1578.46 L1117.48 1566.27 L1096.06 1566.27 L1091.73 1578.46 L1084.95 1578.46 L1103.09 1530.94 Z" fill="#000000" fill-rule="evenodd" fill-opacity="1" /><path clip-path="url(#clip370)" d="M1135.17 1528.94 L1141.03 1528.94 L1141.03 1578.46 L1135.17 1578.46 L1135.17 1528.94 Z" fill="#000000" fill-rule="evenodd" fill-opacity="1" /><path clip-path="url(#clip370)" d="M1159.08 1532.69 L1159.08 1542.81 L1171.14 1542.81 L1171.14 1547.36 L1159.08 1547.36 L1159.08 1566.72 Q1159.08 1571.08 1160.25 1572.32 Q1161.46 1573.56 1165.12 1573.56 L1171.14 1573.56 L1171.14 1578.46 L1165.12 1578.46 Q1158.34 1578.46 1155.77 1575.95 Q1153.19 1573.4 1153.19 1566.72 L1153.19 1547.36 L1148.89 1547.36 L1148.89 1542.81 L1153.19 1542.81 L1153.19 1532.69 L1159.08 1532.69 Z" fill="#000000" fill-rule="evenodd" fill-opacity="1" /><path clip-path="url(#clip370)" d="M1178.84 1542.81 L1184.7 1542.81 L1184.7 1578.46 L1178.84 1578.46 L1178.84 1542.81 M1178.84 1528.94 L1184.7 1528.94 L1184.7 1536.35 L1178.84 1536.35 L1178.84 1528.94 Z" fill="#000000" fill-rule="evenodd" fill-opacity="1" /><path clip-path="url(#clip370)" d="M1202.74 1532.69 L1202.74 1542.81 L1214.81 1542.81 L1214.81 1547.36 L1202.74 1547.36 L1202.74 1566.72 Q1202.74 1571.08 1203.92 1572.32 Q1205.13 1573.56 1208.79 1573.56 L1214.81 1573.56 L1214.81 1578.46 L1208.79 1578.46 Q1202.01 1578.46 1199.43 1575.95 Q1196.86 1573.4 1196.86 1566.72 L1196.86 1547.36 L1192.56 1547.36 L1192.56 1542.81 L1196.86 1542.81 L1196.86 1532.69 L1202.74 1532.69 Z" fill="#000000" fill-rule="evenodd" fill-opacity="1" /><path clip-path="url(#clip370)" d="M1221.91 1564.39 L1221.91 1542.81 L1227.76 1542.81 L1227.76 1564.17 Q1227.76 1569.23 1229.73 1571.78 Q1231.71 1574.29 1235.65 1574.29 Q1240.4 1574.29 1243.13 1571.27 Q1245.9 1568.24 1245.9 1563.02 L1245.9 1542.81 L1251.76 1542.81 L1251.76 1578.46 L1245.9 1578.46 L1245.9 1572.99 Q1243.77 1576.23 1240.94 1577.82 Q1238.14 1579.38 1234.41 1579.38 Q1228.27 1579.38 1225.09 1575.56 Q1221.91 1571.74 1221.91 1564.39 M1236.64 1541.95 L1236.64 1541.95 Z" fill="#000000" fill-rule="evenodd" fill-opacity="1" /><path clip-path="url(#clip370)" d="M1287.28 1548.22 L1287.28 1528.94 L1293.14 1528.94 L1293.14 1578.46 L1287.28 1578.46 L1287.28 1573.11 Q1285.43 1576.3 1282.6 1577.86 Q1279.8 1579.38 1275.85 1579.38 Q1269.39 1579.38 1265.32 1574.23 Q1261.28 1569.07 1261.28 1560.67 Q1261.28 1552.27 1265.32 1547.11 Q1269.39 1541.95 1275.85 1541.95 Q1279.8 1541.95 1282.6 1543.51 Q1285.43 1545.04 1287.28 1548.22 M1267.32 1560.67 Q1267.32 1567.13 1269.97 1570.82 Q1272.64 1574.48 1277.29 1574.48 Q1281.93 1574.48 1284.61 1570.82 Q1287.28 1567.13 1287.28 1560.67 Q1287.28 1554.21 1284.61 1550.55 Q1281.93 1546.85 1277.29 1546.85 Q1272.64 1546.85 1269.97 1550.55 Q1267.32 1554.21 1267.32 1560.67 Z" fill="#000000" fill-rule="evenodd" fill-opacity="1" /><path clip-path="url(#clip370)" d="M1335.69 1559.17 L1335.69 1562.04 L1308.77 1562.04 Q1309.15 1568.08 1312.39 1571.27 Q1315.67 1574.42 1321.5 1574.42 Q1324.87 1574.42 1328.02 1573.59 Q1331.2 1572.76 1334.32 1571.11 L1334.32 1576.65 Q1331.17 1577.98 1327.86 1578.68 Q1324.55 1579.38 1321.15 1579.38 Q1312.62 1579.38 1307.62 1574.42 Q1302.65 1569.45 1302.65 1560.99 Q1302.65 1552.23 1307.36 1547.11 Q1312.11 1541.95 1320.13 1541.95 Q1327.32 1541.95 1331.49 1546.6 Q1335.69 1551.22 1335.69 1559.17 M1329.84 1557.45 Q1329.77 1552.65 1327.13 1549.78 Q1324.52 1546.92 1320.19 1546.92 Q1315.29 1546.92 1312.33 1549.69 Q1309.4 1552.46 1308.96 1557.49 L1329.84 1557.45 Z" fill="#000000" fill-rule="evenodd" fill-opacity="1" /><path clip-path="url(#clip370)" d="M1380.09 1529 Q1375.83 1536.32 1373.76 1543.48 Q1371.69 1550.64 1371.69 1557.99 Q1371.69 1565.35 1373.76 1572.57 Q1375.86 1579.77 1380.09 1587.05 L1375 1587.05 Q1370.23 1579.57 1367.84 1572.35 Q1365.48 1565.12 1365.48 1557.99 Q1365.48 1550.9 1367.84 1543.7 Q1370.19 1536.51 1375 1529 L1380.09 1529 Z" fill="#000000" fill-rule="evenodd" fill-opacity="1" /><path clip-path="url(#clip370)" d="M1409.95 1553.47 Q1409.95 1555.3 1408.82 1556.4 Q1407.73 1557.49 1406.34 1557.49 Q1405.12 1557.49 1404.47 1556.79 Q1403.83 1556.08 1403.83 1555.18 Q1403.83 1554.79 1403.99 1554.31 Q1404.15 1553.79 1404.5 1553.18 Q1404.89 1552.57 1405.7 1552.12 Q1406.5 1551.67 1407.6 1551.6 Q1407.37 1551.38 1407.31 1551.34 Q1406.82 1550.96 1405.92 1550.83 Q1405.79 1550.76 1405.34 1550.76 Q1403.12 1550.76 1400.87 1552.41 Q1398.64 1554.02 1395.91 1557.08 Q1392.46 1560.65 1390.24 1561.97 Q1400 1563.26 1400 1568.9 Q1400 1569.83 1399.74 1570.96 Q1399.22 1573.08 1399.22 1574.63 Q1399.22 1577.72 1401.32 1577.72 Q1403.35 1577.72 1404.63 1575.66 Q1405.95 1573.6 1407.05 1569.57 Q1407.21 1568.83 1407.37 1568.61 Q1407.53 1568.38 1407.98 1568.38 Q1408.79 1568.38 1408.79 1569.02 Q1408.05 1572.79 1406.41 1575.69 Q1404.31 1579.2 1401.19 1579.2 Q1398.58 1579.2 1396.84 1577.4 Q1395.13 1575.56 1395.13 1572.66 Q1395.13 1571.96 1395.39 1570.34 Q1395.58 1569.7 1395.58 1568.96 Q1395.58 1567.45 1394.75 1566.32 Q1393.91 1565.16 1392.56 1564.58 Q1391.2 1564 1390.08 1563.74 Q1388.98 1563.45 1387.92 1563.36 Q1384.7 1576.98 1384.25 1577.82 Q1383.96 1578.4 1383.31 1578.78 Q1382.67 1579.2 1381.99 1579.2 Q1381.35 1579.2 1380.7 1578.75 Q1380.09 1578.33 1380.09 1577.33 Q1380.09 1576.82 1380.35 1575.88 L1389.92 1537.88 L1390.11 1536.59 Q1390.11 1536.21 1389.95 1536.01 Q1389.82 1535.79 1389.05 1535.63 Q1388.31 1535.47 1386.82 1535.47 Q1386.21 1535.47 1385.92 1535.43 Q1385.66 1535.4 1385.44 1535.24 Q1385.21 1535.05 1385.21 1534.66 Q1385.21 1534.11 1385.44 1533.82 Q1385.7 1533.5 1385.89 1533.44 Q1386.08 1533.37 1386.47 1533.34 Q1387.02 1533.31 1388.85 1533.15 Q1390.69 1532.95 1392.27 1532.83 Q1393.84 1532.7 1394.52 1532.7 Q1394.91 1532.7 1395.1 1532.89 Q1395.33 1533.05 1395.36 1533.24 L1395.39 1533.4 L1388.53 1561.23 Q1391.36 1560.1 1395.84 1555.11 Q1401.03 1549.31 1405.47 1549.31 Q1407.56 1549.31 1408.76 1550.6 Q1409.95 1551.86 1409.95 1553.47 Z" fill="#000000" fill-rule="evenodd" fill-opacity="1" /><path clip-path="url(#clip370)" d="M1469.75 1569.02 Q1469.75 1569.28 1469.46 1570.28 Q1469.17 1571.28 1468.47 1572.82 Q1467.79 1574.37 1466.82 1575.79 Q1465.89 1577.17 1464.34 1578.2 Q1462.83 1579.2 1461.09 1579.2 Q1458.77 1579.2 1457.23 1577.66 Q1455.68 1576.11 1455.68 1573.79 Q1455.68 1572.53 1456.55 1570.15 Q1460.64 1559.27 1460.64 1555.37 Q1460.64 1550.76 1457.06 1550.76 Q1455.04 1550.76 1453.2 1551.6 Q1451.36 1552.44 1450.17 1553.6 Q1448.98 1554.76 1448.05 1556.08 Q1447.11 1557.4 1446.69 1558.27 Q1446.31 1559.14 1446.21 1559.52 L1442.25 1575.43 Q1441.93 1576.79 1441.7 1577.43 Q1441.48 1578.07 1440.87 1578.62 Q1440.25 1579.2 1439.29 1579.2 Q1438.48 1579.2 1437.9 1578.72 Q1437.35 1578.24 1437.35 1577.4 Q1437.35 1577.27 1437.52 1576.59 Q1437.68 1575.92 1437.9 1574.98 Q1438.13 1574.05 1438.22 1573.5 Q1439.38 1569.12 1439.54 1568.51 L1441.38 1560.84 Q1442.38 1557.04 1442.38 1555.37 Q1442.38 1550.76 1438.8 1550.76 Q1437.03 1550.76 1435.36 1551.44 Q1433.72 1552.08 1432.59 1552.99 Q1431.46 1553.89 1430.43 1555.14 Q1429.43 1556.37 1428.92 1557.2 Q1428.43 1558.01 1428.05 1558.82 L1427.21 1562.1 Q1427.02 1563 1426.08 1566.51 L1424.63 1572.47 Q1423.6 1576.91 1423.38 1577.33 Q1423.06 1578.24 1422.35 1578.72 Q1421.64 1579.2 1420.93 1579.2 Q1420.12 1579.2 1419.58 1578.72 Q1419.03 1578.24 1419.03 1577.4 Q1419.03 1577.27 1419.13 1576.79 Q1419.22 1576.3 1419.38 1575.63 Q1419.55 1574.95 1419.61 1574.56 L1423.44 1559.33 Q1424.15 1556.56 1424.31 1555.69 Q1424.5 1554.79 1424.5 1553.79 Q1424.5 1550.76 1422.44 1550.76 Q1420.77 1550.76 1419.67 1552.76 Q1418.58 1554.76 1417.64 1558.62 Q1417.36 1559.68 1417.16 1559.91 Q1417 1560.14 1416.52 1560.14 Q1415.71 1560.1 1415.71 1559.46 Q1415.71 1559.3 1415.97 1558.27 Q1416.23 1557.24 1416.71 1555.69 Q1417.23 1554.11 1417.77 1553.08 Q1418.1 1552.41 1418.39 1551.96 Q1418.68 1551.5 1419.26 1550.8 Q1419.83 1550.09 1420.7 1549.7 Q1421.57 1549.31 1422.64 1549.31 Q1424.99 1549.31 1426.73 1550.83 Q1428.5 1552.34 1428.72 1555.05 Q1433.01 1549.31 1439 1549.31 Q1442.38 1549.31 1444.41 1551.02 Q1446.31 1552.66 1446.53 1555.69 Q1450.98 1549.31 1457.29 1549.31 Q1460.93 1549.31 1462.89 1551.21 Q1464.86 1553.08 1464.86 1556.37 Q1464.86 1558.07 1463.99 1561.33 Q1463.12 1564.55 1462.54 1566.16 Q1461.96 1567.77 1460.83 1570.86 Q1459.64 1573.82 1459.64 1575.56 Q1459.64 1576.69 1460.03 1577.2 Q1460.41 1577.72 1461.25 1577.72 Q1462.54 1577.72 1463.67 1576.98 Q1464.79 1576.21 1465.6 1574.95 Q1466.44 1573.66 1466.98 1572.37 Q1467.53 1571.05 1467.95 1569.57 Q1468.21 1568.77 1468.34 1568.57 Q1468.5 1568.38 1468.95 1568.38 Q1469.75 1568.38 1469.75 1569.02 Z" fill="#000000" fill-rule="evenodd" fill-opacity="1" /><path clip-path="url(#clip370)" d="M1473.07 1529 L1478.16 1529 Q1482.93 1536.51 1485.29 1543.7 Q1487.68 1550.9 1487.68 1557.99 Q1487.68 1565.12 1485.29 1572.35 Q1482.93 1579.57 1478.16 1587.05 L1473.07 1587.05 Q1477.3 1579.77 1479.37 1572.57 Q1481.47 1565.35 1481.47 1557.99 Q1481.47 1550.64 1479.37 1543.48 Q1477.3 1536.32 1473.07 1529 Z" fill="#000000" fill-rule="evenodd" fill-opacity="1" /><polyline clip-path="url(#clip372)" style="stroke:#000000; stroke-linecap:butt; stroke-linejoin:round; stroke-width:2; stroke-opacity:0.1; fill:none" points="
  219.866,1374.11 2352.76,1374.11 
  "/>
<polyline clip-path="url(#clip372)" style="stroke:#000000; stroke-linecap:butt; stroke-linejoin:round; stroke-width:2; stroke-opacity:0.1; fill:none" points="
  219.866,1070.64 2352.76,1070.64 
  "/>
<polyline clip-path="url(#clip372)" style="stroke:#000000; stroke-linecap:butt; stroke-linejoin:round; stroke-width:2; stroke-opacity:0.1; fill:none" points="
  219.866,767.181 2352.76,767.181 
  "/>
<polyline clip-path="url(#clip372)" style="stroke:#000000; stroke-linecap:butt; stroke-linejoin:round; stroke-width:2; stroke-opacity:0.1; fill:none" points="
  219.866,463.719 2352.76,463.719 
  "/>
<polyline clip-path="url(#clip372)" style="stroke:#000000; stroke-linecap:butt; stroke-linejoin:round; stroke-width:2; stroke-opacity:0.1; fill:none" points="
  219.866,160.256 2352.76,160.256 
  "/>
<polyline clip-path="url(#clip370)" style="stroke:#000000; stroke-linecap:butt; stroke-linejoin:round; stroke-width:4; stroke-opacity:1; fill:none" points="
  219.866,1423.18 219.866,123.472 
  "/>
<polyline clip-path="url(#clip370)" style="stroke:#000000; stroke-linecap:butt; stroke-linejoin:round; stroke-width:4; stroke-opacity:1; fill:none" points="
  219.866,1374.11 238.764,1374.11 
  "/>
<polyline clip-path="url(#clip370)" style="stroke:#000000; stroke-linecap:butt; stroke-linejoin:round; stroke-width:4; stroke-opacity:1; fill:none" points="
  219.866,1070.64 238.764,1070.64 
  "/>
<polyline clip-path="url(#clip370)" style="stroke:#000000; stroke-linecap:butt; stroke-linejoin:round; stroke-width:4; stroke-opacity:1; fill:none" points="
  219.866,767.181 238.764,767.181 
  "/>
<polyline clip-path="url(#clip370)" style="stroke:#000000; stroke-linecap:butt; stroke-linejoin:round; stroke-width:4; stroke-opacity:1; fill:none" points="
  219.866,463.719 238.764,463.719 
  "/>
<polyline clip-path="url(#clip370)" style="stroke:#000000; stroke-linecap:butt; stroke-linejoin:round; stroke-width:4; stroke-opacity:1; fill:none" points="
  219.866,160.256 238.764,160.256 
  "/>
<path clip-path="url(#clip370)" d="M128.288 1359.9 Q124.677 1359.9 122.848 1363.47 Q121.043 1367.01 121.043 1374.14 Q121.043 1381.25 122.848 1384.81 Q124.677 1388.35 128.288 1388.35 Q131.922 1388.35 133.728 1384.81 Q135.556 1381.25 135.556 1374.14 Q135.556 1367.01 133.728 1363.47 Q131.922 1359.9 128.288 1359.9 M128.288 1356.2 Q134.098 1356.2 137.154 1360.81 Q140.232 1365.39 140.232 1374.14 Q140.232 1382.87 137.154 1387.47 Q134.098 1392.06 128.288 1392.06 Q122.478 1392.06 119.399 1387.47 Q116.343 1382.87 116.343 1374.14 Q116.343 1365.39 119.399 1360.81 Q122.478 1356.2 128.288 1356.2 Z" fill="#000000" fill-rule="evenodd" fill-opacity="1" /><path clip-path="url(#clip370)" d="M148.45 1385.51 L153.334 1385.51 L153.334 1391.39 L148.45 1391.39 L148.45 1385.51 Z" fill="#000000" fill-rule="evenodd" fill-opacity="1" /><path clip-path="url(#clip370)" d="M167.547 1387.45 L183.866 1387.45 L183.866 1391.39 L161.922 1391.39 L161.922 1387.45 Q164.584 1384.7 169.167 1380.07 Q173.774 1375.41 174.954 1374.07 Q177.2 1371.55 178.079 1369.81 Q178.982 1368.05 178.982 1366.36 Q178.982 1363.61 177.038 1361.87 Q175.116 1360.14 172.014 1360.14 Q169.815 1360.14 167.362 1360.9 Q164.931 1361.66 162.153 1363.21 L162.153 1358.49 Q164.977 1357.36 167.431 1356.78 Q169.885 1356.2 171.922 1356.2 Q177.292 1356.2 180.487 1358.89 Q183.681 1361.57 183.681 1366.06 Q183.681 1368.19 182.871 1370.11 Q182.084 1372.01 179.977 1374.6 Q179.399 1375.27 176.297 1378.49 Q173.195 1381.69 167.547 1387.45 Z" fill="#000000" fill-rule="evenodd" fill-opacity="1" /><path clip-path="url(#clip370)" d="M126.205 1056.44 Q122.593 1056.44 120.765 1060.01 Q118.959 1063.55 118.959 1070.68 Q118.959 1077.78 120.765 1081.35 Q122.593 1084.89 126.205 1084.89 Q129.839 1084.89 131.644 1081.35 Q133.473 1077.78 133.473 1070.68 Q133.473 1063.55 131.644 1060.01 Q129.839 1056.44 126.205 1056.44 M126.205 1052.74 Q132.015 1052.74 135.07 1057.34 Q138.149 1061.93 138.149 1070.68 Q138.149 1079.41 135.07 1084.01 Q132.015 1088.59 126.205 1088.59 Q120.394 1088.59 117.316 1084.01 Q114.26 1079.41 114.26 1070.68 Q114.26 1061.93 117.316 1057.34 Q120.394 1052.74 126.205 1052.74 Z" fill="#000000" fill-rule="evenodd" fill-opacity="1" /><path clip-path="url(#clip370)" d="M146.366 1082.04 L151.251 1082.04 L151.251 1087.92 L146.366 1087.92 L146.366 1082.04 Z" fill="#000000" fill-rule="evenodd" fill-opacity="1" /><path clip-path="url(#clip370)" d="M174.283 1057.44 L162.477 1075.89 L174.283 1075.89 L174.283 1057.44 M173.056 1053.36 L178.936 1053.36 L178.936 1075.89 L183.866 1075.89 L183.866 1079.78 L178.936 1079.78 L178.936 1087.92 L174.283 1087.92 L174.283 1079.78 L158.681 1079.78 L158.681 1075.26 L173.056 1053.36 Z" fill="#000000" fill-rule="evenodd" fill-opacity="1" /><path clip-path="url(#clip370)" d="M126.529 752.98 Q122.918 752.98 121.089 756.545 Q119.283 760.086 119.283 767.216 Q119.283 774.322 121.089 777.887 Q122.918 781.429 126.529 781.429 Q130.163 781.429 131.968 777.887 Q133.797 774.322 133.797 767.216 Q133.797 760.086 131.968 756.545 Q130.163 752.98 126.529 752.98 M126.529 749.276 Q132.339 749.276 135.394 753.883 Q138.473 758.466 138.473 767.216 Q138.473 775.943 135.394 780.549 Q132.339 785.132 126.529 785.132 Q120.718 785.132 117.64 780.549 Q114.584 775.943 114.584 767.216 Q114.584 758.466 117.64 753.883 Q120.718 749.276 126.529 749.276 Z" fill="#000000" fill-rule="evenodd" fill-opacity="1" /><path clip-path="url(#clip370)" d="M146.691 778.582 L151.575 778.582 L151.575 784.461 L146.691 784.461 L146.691 778.582 Z" fill="#000000" fill-rule="evenodd" fill-opacity="1" /><path clip-path="url(#clip370)" d="M172.339 765.318 Q169.19 765.318 167.339 767.47 Q165.51 769.623 165.51 773.373 Q165.51 777.1 167.339 779.276 Q169.19 781.429 172.339 781.429 Q175.487 781.429 177.315 779.276 Q179.167 777.1 179.167 773.373 Q179.167 769.623 177.315 767.47 Q175.487 765.318 172.339 765.318 M181.621 750.665 L181.621 754.924 Q179.862 754.091 178.056 753.651 Q176.274 753.211 174.514 753.211 Q169.885 753.211 167.431 756.336 Q165.001 759.461 164.653 765.781 Q166.019 763.767 168.079 762.702 Q170.139 761.614 172.616 761.614 Q177.825 761.614 180.834 764.785 Q183.866 767.933 183.866 773.373 Q183.866 778.697 180.718 781.915 Q177.57 785.132 172.339 785.132 Q166.343 785.132 163.172 780.549 Q160.001 775.943 160.001 767.216 Q160.001 759.021 163.89 754.16 Q167.778 749.276 174.329 749.276 Q176.089 749.276 177.871 749.623 Q179.676 749.971 181.621 750.665 Z" fill="#000000" fill-rule="evenodd" fill-opacity="1" /><path clip-path="url(#clip370)" d="M126.783 449.517 Q123.172 449.517 121.343 453.082 Q119.538 456.624 119.538 463.753 Q119.538 470.86 121.343 474.425 Q123.172 477.966 126.783 477.966 Q130.417 477.966 132.223 474.425 Q134.052 470.86 134.052 463.753 Q134.052 456.624 132.223 453.082 Q130.417 449.517 126.783 449.517 M126.783 445.814 Q132.593 445.814 135.649 450.42 Q138.728 455.003 138.728 463.753 Q138.728 472.48 135.649 477.087 Q132.593 481.67 126.783 481.67 Q120.973 481.67 117.894 477.087 Q114.839 472.48 114.839 463.753 Q114.839 455.003 117.894 450.42 Q120.973 445.814 126.783 445.814 Z" fill="#000000" fill-rule="evenodd" fill-opacity="1" /><path clip-path="url(#clip370)" d="M146.945 475.119 L151.829 475.119 L151.829 480.999 L146.945 480.999 L146.945 475.119 Z" fill="#000000" fill-rule="evenodd" fill-opacity="1" /><path clip-path="url(#clip370)" d="M172.014 464.587 Q168.681 464.587 166.76 466.369 Q164.862 468.152 164.862 471.277 Q164.862 474.402 166.76 476.184 Q168.681 477.966 172.014 477.966 Q175.348 477.966 177.269 476.184 Q179.19 474.378 179.19 471.277 Q179.19 468.152 177.269 466.369 Q175.371 464.587 172.014 464.587 M167.339 462.596 Q164.329 461.855 162.64 459.795 Q160.973 457.735 160.973 454.772 Q160.973 450.628 163.913 448.221 Q166.876 445.814 172.014 445.814 Q177.176 445.814 180.116 448.221 Q183.056 450.628 183.056 454.772 Q183.056 457.735 181.366 459.795 Q179.7 461.855 176.714 462.596 Q180.093 463.383 181.968 465.675 Q183.866 467.966 183.866 471.277 Q183.866 476.3 180.788 478.985 Q177.732 481.67 172.014 481.67 Q166.297 481.67 163.218 478.985 Q160.163 476.3 160.163 471.277 Q160.163 467.966 162.061 465.675 Q163.959 463.383 167.339 462.596 M165.626 455.212 Q165.626 457.897 167.292 459.402 Q168.982 460.906 172.014 460.906 Q175.024 460.906 176.714 459.402 Q178.426 457.897 178.426 455.212 Q178.426 452.527 176.714 451.022 Q175.024 449.517 172.014 449.517 Q168.982 449.517 167.292 451.022 Q165.626 452.527 165.626 455.212 Z" fill="#000000" fill-rule="evenodd" fill-opacity="1" /><path clip-path="url(#clip370)" d="M117.501 173.601 L125.14 173.601 L125.14 147.236 L116.83 148.902 L116.83 144.643 L125.093 142.976 L129.769 142.976 L129.769 173.601 L137.408 173.601 L137.408 177.536 L117.501 177.536 L117.501 173.601 Z" fill="#000000" fill-rule="evenodd" fill-opacity="1" /><path clip-path="url(#clip370)" d="M146.853 171.657 L151.737 171.657 L151.737 177.536 L146.853 177.536 L146.853 171.657 Z" fill="#000000" fill-rule="evenodd" fill-opacity="1" /><path clip-path="url(#clip370)" d="M171.922 146.055 Q168.311 146.055 166.482 149.62 Q164.677 153.161 164.677 160.291 Q164.677 167.397 166.482 170.962 Q168.311 174.504 171.922 174.504 Q175.556 174.504 177.362 170.962 Q179.19 167.397 179.19 160.291 Q179.19 153.161 177.362 149.62 Q175.556 146.055 171.922 146.055 M171.922 142.351 Q177.732 142.351 180.788 146.958 Q183.866 151.541 183.866 160.291 Q183.866 169.018 180.788 173.624 Q177.732 178.208 171.922 178.208 Q166.112 178.208 163.033 173.624 Q159.978 169.018 159.978 160.291 Q159.978 151.541 163.033 146.958 Q166.112 142.351 171.922 142.351 Z" fill="#000000" fill-rule="evenodd" fill-opacity="1" /><path clip-path="url(#clip370)" d="M21.7677 1105.54 L39.6235 1105.54 L39.6235 1097.45 Q39.6235 1092.96 37.3 1090.51 Q34.9765 1088.06 30.6797 1088.06 Q26.4147 1088.06 24.0912 1090.51 Q21.7677 1092.96 21.7677 1097.45 L21.7677 1105.54 M16.4842 1111.97 L16.4842 1097.45 Q16.4842 1089.46 20.1126 1085.39 Q23.7092 1081.28 30.6797 1081.28 Q37.7138 1081.28 41.3104 1085.39 Q44.907 1089.46 44.907 1097.45 L44.907 1105.54 L64.0042 1105.54 L64.0042 1111.97 L16.4842 1111.97 Z" fill="#000000" fill-rule="evenodd" fill-opacity="1" /><path clip-path="url(#clip370)" d="M33.8307 1053.4 Q33.2578 1054.39 33.0032 1055.57 Q32.7167 1056.71 32.7167 1058.11 Q32.7167 1063.08 35.9632 1065.75 Q39.1779 1068.39 45.2253 1068.39 L64.0042 1068.39 L64.0042 1074.28 L28.3562 1074.28 L28.3562 1068.39 L33.8944 1068.39 Q30.6479 1066.55 29.0883 1063.59 Q27.4968 1060.63 27.4968 1056.39 Q27.4968 1055.79 27.5923 1055.06 Q27.656 1054.32 27.8151 1053.43 L33.8307 1053.4 Z" fill="#000000" fill-rule="evenodd" fill-opacity="1" /><path clip-path="url(#clip370)" d="M32.4621 1034.88 Q32.4621 1039.59 36.1542 1042.32 Q39.8145 1045.06 46.212 1045.06 Q52.6095 1045.06 56.3017 1042.36 Q59.9619 1039.62 59.9619 1034.88 Q59.9619 1030.2 56.2698 1027.46 Q52.5777 1024.72 46.212 1024.72 Q39.8781 1024.72 36.186 1027.46 Q32.4621 1030.2 32.4621 1034.88 M27.4968 1034.88 Q27.4968 1027.24 32.4621 1022.88 Q37.4273 1018.52 46.212 1018.52 Q54.9649 1018.52 59.9619 1022.88 Q64.9272 1027.24 64.9272 1034.88 Q64.9272 1042.55 59.9619 1046.91 Q54.9649 1051.24 46.212 1051.24 Q37.4273 1051.24 32.4621 1046.91 Q27.4968 1042.55 27.4968 1034.88 Z" fill="#000000" fill-rule="evenodd" fill-opacity="1" /><path clip-path="url(#clip370)" d="M58.657 1003.14 L77.5631 1003.14 L77.5631 1009.03 L28.3562 1009.03 L28.3562 1003.14 L33.7671 1003.14 Q30.5842 1001.3 29.0564 998.497 Q27.4968 995.664 27.4968 991.749 Q27.4968 985.256 32.6531 981.214 Q37.8093 977.14 46.212 977.14 Q54.6147 977.14 59.771 981.214 Q64.9272 985.256 64.9272 991.749 Q64.9272 995.664 63.3994 998.497 Q61.8398 1001.3 58.657 1003.14 M46.212 983.219 Q39.7508 983.219 36.0905 985.893 Q32.3984 988.535 32.3984 993.182 Q32.3984 997.829 36.0905 1000.5 Q39.7508 1003.14 46.212 1003.14 Q52.6732 1003.14 56.3653 1000.5 Q60.0256 997.829 60.0256 993.182 Q60.0256 988.535 56.3653 985.893 Q52.6732 983.219 46.212 983.219 Z" fill="#000000" fill-rule="evenodd" fill-opacity="1" /><path clip-path="url(#clip370)" d="M32.4621 953.619 Q32.4621 958.329 36.1542 961.067 Q39.8145 963.804 46.212 963.804 Q52.6095 963.804 56.3017 961.098 Q59.9619 958.361 59.9619 953.619 Q59.9619 948.94 56.2698 946.203 Q52.5777 943.465 46.212 943.465 Q39.8781 943.465 36.186 946.203 Q32.4621 948.94 32.4621 953.619 M27.4968 953.619 Q27.4968 945.98 32.4621 941.619 Q37.4273 937.259 46.212 937.259 Q54.9649 937.259 59.9619 941.619 Q64.9272 945.98 64.9272 953.619 Q64.9272 961.289 59.9619 965.65 Q54.9649 969.979 46.212 969.979 Q37.4273 969.979 32.4621 965.65 Q27.4968 961.289 27.4968 953.619 Z" fill="#000000" fill-rule="evenodd" fill-opacity="1" /><path clip-path="url(#clip370)" d="M33.8307 906.894 Q33.2578 907.881 33.0032 909.059 Q32.7167 910.205 32.7167 911.605 Q32.7167 916.57 35.9632 919.244 Q39.1779 921.886 45.2253 921.886 L64.0042 921.886 L64.0042 927.774 L28.3562 927.774 L28.3562 921.886 L33.8944 921.886 Q30.6479 920.04 29.0883 917.08 Q27.4968 914.12 27.4968 909.886 Q27.4968 909.282 27.5923 908.55 Q27.656 907.817 27.8151 906.926 L33.8307 906.894 Z" fill="#000000" fill-rule="evenodd" fill-opacity="1" /><path clip-path="url(#clip370)" d="M18.2347 894.959 L28.3562 894.959 L28.3562 882.896 L32.9077 882.896 L32.9077 894.959 L52.2594 894.959 Q56.6199 894.959 57.8613 893.781 Q59.1026 892.572 59.1026 888.911 L59.1026 882.896 L64.0042 882.896 L64.0042 888.911 Q64.0042 895.691 61.4897 898.269 Q58.9434 900.847 52.2594 900.847 L32.9077 900.847 L32.9077 905.144 L28.3562 905.144 L28.3562 900.847 L18.2347 900.847 L18.2347 894.959 Z" fill="#000000" fill-rule="evenodd" fill-opacity="1" /><path clip-path="url(#clip370)" d="M28.3562 875.193 L28.3562 869.337 L64.0042 869.337 L64.0042 875.193 L28.3562 875.193 M14.479 875.193 L14.479 869.337 L21.895 869.337 L21.895 875.193 L14.479 875.193 Z" fill="#000000" fill-rule="evenodd" fill-opacity="1" /><path clip-path="url(#clip370)" d="M32.4621 843.269 Q32.4621 847.98 36.1542 850.717 Q39.8145 853.454 46.212 853.454 Q52.6095 853.454 56.3017 850.749 Q59.9619 848.012 59.9619 843.269 Q59.9619 838.59 56.2698 835.853 Q52.5777 833.116 46.212 833.116 Q39.8781 833.116 36.186 835.853 Q32.4621 838.59 32.4621 843.269 M27.4968 843.269 Q27.4968 835.63 32.4621 831.27 Q37.4273 826.909 46.212 826.909 Q54.9649 826.909 59.9619 831.27 Q64.9272 835.63 64.9272 843.269 Q64.9272 850.94 59.9619 855.3 Q54.9649 859.629 46.212 859.629 Q37.4273 859.629 32.4621 855.3 Q27.4968 850.94 27.4968 843.269 Z" fill="#000000" fill-rule="evenodd" fill-opacity="1" /><path clip-path="url(#clip370)" d="M42.4881 787.569 L64.0042 787.569 L64.0042 793.426 L42.679 793.426 Q37.6183 793.426 35.1038 795.399 Q32.5894 797.372 32.5894 801.319 Q32.5894 806.062 35.6131 808.799 Q38.6368 811.536 43.8567 811.536 L64.0042 811.536 L64.0042 817.424 L28.3562 817.424 L28.3562 811.536 L33.8944 811.536 Q30.6797 809.435 29.0883 806.603 Q27.4968 803.738 27.4968 800.014 Q27.4968 793.871 31.3163 790.72 Q35.1038 787.569 42.4881 787.569 Z" fill="#000000" fill-rule="evenodd" fill-opacity="1" /><path clip-path="url(#clip370)" d="M32.4621 741.354 Q32.4621 746.065 36.1542 748.802 Q39.8145 751.539 46.212 751.539 Q52.6095 751.539 56.3017 748.834 Q59.9619 746.097 59.9619 741.354 Q59.9619 736.675 56.2698 733.938 Q52.5777 731.201 46.212 731.201 Q39.8781 731.201 36.186 733.938 Q32.4621 736.675 32.4621 741.354 M27.4968 741.354 Q27.4968 733.715 32.4621 729.355 Q37.4273 724.994 46.212 724.994 Q54.9649 724.994 59.9619 729.355 Q64.9272 733.715 64.9272 741.354 Q64.9272 749.025 59.9619 753.385 Q54.9649 757.714 46.212 757.714 Q37.4273 757.714 32.4621 753.385 Q27.4968 749.025 27.4968 741.354 Z" fill="#000000" fill-rule="evenodd" fill-opacity="1" /><path clip-path="url(#clip370)" d="M14.479 697.24 L19.3487 697.24 L19.3487 702.842 Q19.3487 705.993 20.6219 707.234 Q21.895 708.444 25.2052 708.444 L28.3562 708.444 L28.3562 698.799 L32.9077 698.799 L32.9077 708.444 L64.0042 708.444 L64.0042 714.332 L32.9077 714.332 L32.9077 719.934 L28.3562 719.934 L28.3562 714.332 L25.8736 714.332 Q19.9216 714.332 17.2162 711.563 Q14.479 708.794 14.479 702.778 L14.479 697.24 Z" fill="#000000" fill-rule="evenodd" fill-opacity="1" /><path clip-path="url(#clip370)" d="M20.8447 652.075 Q20.8447 659.077 26.0645 663.215 Q31.2844 667.321 40.2919 667.321 Q49.2675 667.321 54.4874 663.215 Q59.7073 659.077 59.7073 652.075 Q59.7073 645.073 54.4874 640.999 Q49.2675 636.893 40.2919 636.893 Q31.2844 636.893 26.0645 640.999 Q20.8447 645.073 20.8447 652.075 M15.6248 652.075 Q15.6248 642.081 22.3406 636.097 Q29.0246 630.113 40.2919 630.113 Q51.5274 630.113 58.2432 636.097 Q64.9272 642.081 64.9272 652.075 Q64.9272 662.101 58.2432 668.117 Q51.5592 674.101 40.2919 674.101 Q29.0246 674.101 22.3406 668.117 Q15.6248 662.101 15.6248 652.075 Z" fill="#000000" fill-rule="evenodd" fill-opacity="1" /><path clip-path="url(#clip370)" d="M46.212 594.72 Q39.7508 594.72 36.0905 597.394 Q32.3984 600.036 32.3984 604.683 Q32.3984 609.329 36.0905 612.003 Q39.7508 614.645 46.212 614.645 Q52.6732 614.645 56.3653 612.003 Q60.0256 609.329 60.0256 604.683 Q60.0256 600.036 56.3653 597.394 Q52.6732 594.72 46.212 594.72 M33.7671 614.645 Q30.5842 612.799 29.0564 609.998 Q27.4968 607.165 27.4968 603.25 Q27.4968 596.757 32.6531 592.715 Q37.8093 588.641 46.212 588.641 Q54.6147 588.641 59.771 592.715 Q64.9272 596.757 64.9272 603.25 Q64.9272 607.165 63.3994 609.998 Q61.8398 612.799 58.657 614.645 L64.0042 614.645 L64.0042 620.533 L14.479 620.533 L14.479 614.645 L33.7671 614.645 Z" fill="#000000" fill-rule="evenodd" fill-opacity="1" /><path clip-path="url(#clip370)" d="M28.3562 578.933 L28.3562 573.077 L64.6407 573.077 Q71.452 573.077 74.5076 575.687 Q77.5631 578.265 77.5631 584.026 L77.5631 586.254 L72.5979 586.254 L72.5979 584.694 Q72.5979 581.352 71.0383 580.143 Q69.5105 578.933 64.6407 578.933 L28.3562 578.933 M14.479 578.933 L14.479 573.077 L21.895 573.077 L21.895 578.933 L14.479 578.933 Z" fill="#000000" fill-rule="evenodd" fill-opacity="1" /><path clip-path="url(#clip370)" d="M44.7161 530.331 L47.5806 530.331 L47.5806 557.258 Q53.6281 556.876 56.8109 553.63 Q59.9619 550.351 59.9619 544.527 Q59.9619 541.153 59.1344 538.002 Q58.3069 534.819 56.6518 531.7 L62.1899 531.7 Q63.5267 534.851 64.227 538.161 Q64.9272 541.471 64.9272 544.877 Q64.9272 553.407 59.9619 558.404 Q54.9967 563.369 46.5303 563.369 Q37.7774 563.369 32.6531 558.658 Q27.4968 553.916 27.4968 545.895 Q27.4968 538.702 32.1438 534.532 Q36.7589 530.331 44.7161 530.331 M42.9973 536.187 Q38.1912 536.251 35.3266 538.893 Q32.4621 541.503 32.4621 545.832 Q32.4621 550.733 35.2312 553.693 Q38.0002 556.621 43.0292 557.067 L42.9973 536.187 Z" fill="#000000" fill-rule="evenodd" fill-opacity="1" /><path clip-path="url(#clip370)" d="M29.7248 495.065 L35.1993 495.065 Q33.8307 497.548 33.1623 500.062 Q32.4621 502.545 32.4621 505.091 Q32.4621 510.788 36.0905 513.939 Q39.6872 517.09 46.212 517.09 Q52.7369 517.09 56.3653 513.939 Q59.9619 510.788 59.9619 505.091 Q59.9619 502.545 59.2935 500.062 Q58.5933 497.548 57.2247 495.065 L62.6355 495.065 Q63.7814 497.516 64.3543 500.158 Q64.9272 502.768 64.9272 505.728 Q64.9272 513.78 59.8664 518.523 Q54.8057 523.265 46.212 523.265 Q37.491 523.265 32.4939 518.491 Q27.4968 513.685 27.4968 505.346 Q27.4968 502.64 28.0697 500.062 Q28.6108 497.484 29.7248 495.065 Z" fill="#000000" fill-rule="evenodd" fill-opacity="1" /><path clip-path="url(#clip370)" d="M18.2347 479.087 L28.3562 479.087 L28.3562 467.024 L32.9077 467.024 L32.9077 479.087 L52.2594 479.087 Q56.6199 479.087 57.8613 477.909 Q59.1026 476.7 59.1026 473.04 L59.1026 467.024 L64.0042 467.024 L64.0042 473.04 Q64.0042 479.819 61.4897 482.397 Q58.9434 484.975 52.2594 484.975 L32.9077 484.975 L32.9077 489.272 L28.3562 489.272 L28.3562 484.975 L18.2347 484.975 L18.2347 479.087 Z" fill="#000000" fill-rule="evenodd" fill-opacity="1" /><path clip-path="url(#clip370)" d="M29.4065 436.596 L34.9447 436.596 Q33.6716 439.079 33.035 441.752 Q32.3984 444.426 32.3984 447.29 Q32.3984 451.651 33.7352 453.847 Q35.072 456.011 37.7456 456.011 Q39.7826 456.011 40.9603 454.452 Q42.1061 452.892 43.1565 448.182 L43.6021 446.176 Q44.9389 439.938 47.3897 437.328 Q49.8086 434.686 54.1691 434.686 Q59.1344 434.686 62.0308 438.633 Q64.9272 442.548 64.9272 449.423 Q64.9272 452.287 64.3543 455.407 Q63.8132 458.494 62.6992 461.932 L56.6518 461.932 Q58.3387 458.685 59.198 455.534 Q60.0256 452.383 60.0256 449.296 Q60.0256 445.158 58.6251 442.93 Q57.1929 440.702 54.6147 440.702 Q52.2276 440.702 50.9545 442.325 Q49.6813 443.917 48.5037 449.359 L48.0262 451.396 Q46.8804 456.839 44.5251 459.258 Q42.138 461.677 38.0002 461.677 Q32.9713 461.677 30.2341 458.112 Q27.4968 454.547 27.4968 447.991 Q27.4968 444.744 27.9743 441.88 Q28.4517 439.015 29.4065 436.596 Z" fill="#000000" fill-rule="evenodd" fill-opacity="1" /><path clip-path="url(#clip370)" d="M205.125 18.8205 L205.125 41.5461 L215.414 41.5461 Q221.126 41.5461 224.245 38.5889 Q227.364 35.6318 227.364 30.163 Q227.364 24.7348 224.245 21.7777 Q221.126 18.8205 215.414 18.8205 L205.125 18.8205 M196.942 12.096 L215.414 12.096 Q225.582 12.096 230.767 16.714 Q235.993 21.2916 235.993 30.163 Q235.993 39.1155 230.767 43.6931 Q225.582 48.2706 215.414 48.2706 L205.125 48.2706 L205.125 72.576 L196.942 72.576 L196.942 12.096 Z" fill="#000000" fill-rule="evenodd" fill-opacity="1" /><path clip-path="url(#clip370)" d="M271.479 34.1734 Q270.223 33.4443 268.724 33.1202 Q267.266 32.7556 265.483 32.7556 Q259.164 32.7556 255.761 36.8875 Q252.399 40.9789 252.399 48.6757 L252.399 72.576 L244.905 72.576 L244.905 27.2059 L252.399 27.2059 L252.399 34.2544 Q254.748 30.1225 258.516 28.1376 Q262.283 26.1121 267.671 26.1121 Q268.44 26.1121 269.372 26.2337 Q270.304 26.3147 271.438 26.5172 L271.479 34.1734 Z" fill="#000000" fill-rule="evenodd" fill-opacity="1" /><path clip-path="url(#clip370)" d="M295.055 32.4315 Q289.059 32.4315 285.576 37.1306 Q282.092 41.7891 282.092 49.9314 Q282.092 58.0738 285.535 62.7728 Q289.019 67.4314 295.055 67.4314 Q301.01 67.4314 304.493 62.7323 Q307.977 58.0333 307.977 49.9314 Q307.977 41.8701 304.493 37.1711 Q301.01 32.4315 295.055 32.4315 M295.055 26.1121 Q304.777 26.1121 310.327 32.4315 Q315.876 38.7509 315.876 49.9314 Q315.876 61.0714 310.327 67.4314 Q304.777 73.7508 295.055 73.7508 Q285.292 73.7508 279.742 67.4314 Q274.233 61.0714 274.233 49.9314 Q274.233 38.7509 279.742 32.4315 Q285.292 26.1121 295.055 26.1121 Z" fill="#000000" fill-rule="evenodd" fill-opacity="1" /><path clip-path="url(#clip370)" d="M335.442 65.7705 L335.442 89.8329 L327.948 89.8329 L327.948 27.2059 L335.442 27.2059 L335.442 34.0924 Q337.792 30.0415 341.357 28.0971 Q344.962 26.1121 349.945 26.1121 Q358.208 26.1121 363.353 32.6746 Q368.538 39.2371 368.538 49.9314 Q368.538 60.6258 363.353 67.1883 Q358.208 73.7508 349.945 73.7508 Q344.962 73.7508 341.357 71.8063 Q337.792 69.8214 335.442 65.7705 M360.801 49.9314 Q360.801 41.7081 357.398 37.0496 Q354.036 32.3505 348.122 32.3505 Q342.207 32.3505 338.805 37.0496 Q335.442 41.7081 335.442 49.9314 Q335.442 58.1548 338.805 62.8538 Q342.207 67.5124 348.122 67.5124 Q354.036 67.5124 357.398 62.8538 Q360.801 58.1548 360.801 49.9314 Z" fill="#000000" fill-rule="evenodd" fill-opacity="1" /><path clip-path="url(#clip370)" d="M398.474 32.4315 Q392.479 32.4315 388.995 37.1306 Q385.512 41.7891 385.512 49.9314 Q385.512 58.0738 388.955 62.7728 Q392.439 67.4314 398.474 67.4314 Q404.429 67.4314 407.913 62.7323 Q411.397 58.0333 411.397 49.9314 Q411.397 41.8701 407.913 37.1711 Q404.429 32.4315 398.474 32.4315 M398.474 26.1121 Q408.197 26.1121 413.746 32.4315 Q419.296 38.7509 419.296 49.9314 Q419.296 61.0714 413.746 67.4314 Q408.197 73.7508 398.474 73.7508 Q388.712 73.7508 383.162 67.4314 Q377.653 61.0714 377.653 49.9314 Q377.653 38.7509 383.162 32.4315 Q388.712 26.1121 398.474 26.1121 Z" fill="#000000" fill-rule="evenodd" fill-opacity="1" /><path clip-path="url(#clip370)" d="M457.942 34.1734 Q456.686 33.4443 455.187 33.1202 Q453.729 32.7556 451.946 32.7556 Q445.627 32.7556 442.224 36.8875 Q438.862 40.9789 438.862 48.6757 L438.862 72.576 L431.368 72.576 L431.368 27.2059 L438.862 27.2059 L438.862 34.2544 Q441.211 30.1225 444.979 28.1376 Q448.746 26.1121 454.134 26.1121 Q454.904 26.1121 455.835 26.2337 Q456.767 26.3147 457.901 26.5172 L457.942 34.1734 Z" fill="#000000" fill-rule="evenodd" fill-opacity="1" /><path clip-path="url(#clip370)" d="M473.133 14.324 L473.133 27.2059 L488.485 27.2059 L488.485 32.9987 L473.133 32.9987 L473.133 57.6282 Q473.133 63.1779 474.631 64.7578 Q476.171 66.3376 480.829 66.3376 L488.485 66.3376 L488.485 72.576 L480.829 72.576 Q472.201 72.576 468.92 69.3758 Q465.638 66.1351 465.638 57.6282 L465.638 32.9987 L460.17 32.9987 L460.17 27.2059 L465.638 27.2059 L465.638 14.324 L473.133 14.324 Z" fill="#000000" fill-rule="evenodd" fill-opacity="1" /><path clip-path="url(#clip370)" d="M498.289 27.2059 L505.742 27.2059 L505.742 72.576 L498.289 72.576 L498.289 27.2059 M498.289 9.54393 L505.742 9.54393 L505.742 18.9825 L498.289 18.9825 L498.289 9.54393 Z" fill="#000000" fill-rule="evenodd" fill-opacity="1" /><path clip-path="url(#clip370)" d="M538.919 32.4315 Q532.924 32.4315 529.44 37.1306 Q525.956 41.7891 525.956 49.9314 Q525.956 58.0738 529.4 62.7728 Q532.883 67.4314 538.919 67.4314 Q544.874 67.4314 548.358 62.7323 Q551.842 58.0333 551.842 49.9314 Q551.842 41.8701 548.358 37.1711 Q544.874 32.4315 538.919 32.4315 M538.919 26.1121 Q548.641 26.1121 554.191 32.4315 Q559.741 38.7509 559.741 49.9314 Q559.741 61.0714 554.191 67.4314 Q548.641 73.7508 538.919 73.7508 Q529.157 73.7508 523.607 67.4314 Q518.098 61.0714 518.098 49.9314 Q518.098 38.7509 523.607 32.4315 Q529.157 26.1121 538.919 26.1121 Z" fill="#000000" fill-rule="evenodd" fill-opacity="1" /><path clip-path="url(#clip370)" d="M609.81 45.1919 L609.81 72.576 L602.356 72.576 L602.356 45.4349 Q602.356 38.994 599.845 35.7938 Q597.333 32.5936 592.31 32.5936 Q586.274 32.5936 582.791 36.4419 Q579.307 40.2903 579.307 46.9338 L579.307 72.576 L571.813 72.576 L571.813 27.2059 L579.307 27.2059 L579.307 34.2544 Q581.98 30.163 585.586 28.1376 Q589.231 26.1121 593.971 26.1121 Q601.789 26.1121 605.8 30.9732 Q609.81 35.7938 609.81 45.1919 Z" fill="#000000" fill-rule="evenodd" fill-opacity="1" /><path clip-path="url(#clip370)" d="M668.629 32.4315 Q662.634 32.4315 659.15 37.1306 Q655.666 41.7891 655.666 49.9314 Q655.666 58.0738 659.11 62.7728 Q662.593 67.4314 668.629 67.4314 Q674.584 67.4314 678.068 62.7323 Q681.552 58.0333 681.552 49.9314 Q681.552 41.8701 678.068 37.1711 Q674.584 32.4315 668.629 32.4315 M668.629 26.1121 Q678.351 26.1121 683.901 32.4315 Q689.451 38.7509 689.451 49.9314 Q689.451 61.0714 683.901 67.4314 Q678.351 73.7508 668.629 73.7508 Q658.867 73.7508 653.317 67.4314 Q647.808 61.0714 647.808 49.9314 Q647.808 38.7509 653.317 32.4315 Q658.867 26.1121 668.629 26.1121 Z" fill="#000000" fill-rule="evenodd" fill-opacity="1" /><path clip-path="url(#clip370)" d="M724.775 9.54393 L724.775 15.7418 L717.645 15.7418 Q713.635 15.7418 712.055 17.3622 Q710.516 18.9825 710.516 23.1955 L710.516 27.2059 L722.79 27.2059 L722.79 32.9987 L710.516 32.9987 L710.516 72.576 L703.021 72.576 L703.021 32.9987 L695.892 32.9987 L695.892 27.2059 L703.021 27.2059 L703.021 24.0462 Q703.021 16.471 706.546 13.0277 Q710.07 9.54393 717.726 9.54393 L724.775 9.54393 Z" fill="#000000" fill-rule="evenodd" fill-opacity="1" /><path clip-path="url(#clip370)" d="M782.257 17.6457 Q773.345 17.6457 768.079 24.2892 Q762.853 30.9327 762.853 42.3968 Q762.853 53.8203 768.079 60.4638 Q773.345 67.1073 782.257 67.1073 Q791.169 67.1073 796.354 60.4638 Q801.58 53.8203 801.58 42.3968 Q801.58 30.9327 796.354 24.2892 Q791.169 17.6457 782.257 17.6457 M782.257 11.0023 Q794.977 11.0023 802.593 19.5497 Q810.208 28.0566 810.208 42.3968 Q810.208 56.6965 802.593 65.2439 Q794.977 73.7508 782.257 73.7508 Q769.497 73.7508 761.841 65.2439 Q754.225 56.737 754.225 42.3968 Q754.225 28.0566 761.841 19.5497 Q769.497 11.0023 782.257 11.0023 Z" fill="#000000" fill-rule="evenodd" fill-opacity="1" /><path clip-path="url(#clip370)" d="M855.254 49.9314 Q855.254 41.7081 851.852 37.0496 Q848.489 32.3505 842.575 32.3505 Q836.661 32.3505 833.258 37.0496 Q829.896 41.7081 829.896 49.9314 Q829.896 58.1548 833.258 62.8538 Q836.661 67.5124 842.575 67.5124 Q848.489 67.5124 851.852 62.8538 Q855.254 58.1548 855.254 49.9314 M829.896 34.0924 Q832.245 30.0415 835.81 28.0971 Q839.415 26.1121 844.398 26.1121 Q852.662 26.1121 857.806 32.6746 Q862.992 39.2371 862.992 49.9314 Q862.992 60.6258 857.806 67.1883 Q852.662 73.7508 844.398 73.7508 Q839.415 73.7508 835.81 71.8063 Q832.245 69.8214 829.896 65.7705 L829.896 72.576 L822.402 72.576 L822.402 9.54393 L829.896 9.54393 L829.896 34.0924 Z" fill="#000000" fill-rule="evenodd" fill-opacity="1" /><path clip-path="url(#clip370)" d="M875.347 27.2059 L882.801 27.2059 L882.801 73.3862 Q882.801 82.0551 879.479 85.944 Q876.198 89.8329 868.865 89.8329 L866.03 89.8329 L866.03 83.5134 L868.015 83.5134 Q872.268 83.5134 873.808 81.5285 Q875.347 79.5841 875.347 73.3862 L875.347 27.2059 M875.347 9.54393 L882.801 9.54393 L882.801 18.9825 L875.347 18.9825 L875.347 9.54393 Z" fill="#000000" fill-rule="evenodd" fill-opacity="1" /><path clip-path="url(#clip370)" d="M937.204 48.0275 L937.204 51.6733 L902.934 51.6733 Q903.42 59.3701 907.552 63.421 Q911.724 67.4314 919.137 67.4314 Q923.431 67.4314 927.441 66.3781 Q931.492 65.3249 935.462 63.2184 L935.462 70.267 Q931.452 71.9684 927.239 72.8596 Q923.026 73.7508 918.692 73.7508 Q907.835 73.7508 901.475 67.4314 Q895.156 61.1119 895.156 50.3365 Q895.156 39.1965 901.151 32.6746 Q907.187 26.1121 917.395 26.1121 Q926.55 26.1121 931.857 32.0264 Q937.204 37.9003 937.204 48.0275 M929.75 45.84 Q929.669 39.7232 926.307 36.0774 Q922.985 32.4315 917.476 32.4315 Q911.238 32.4315 907.471 35.9558 Q903.744 39.4801 903.177 45.8805 L929.75 45.84 Z" fill="#000000" fill-rule="evenodd" fill-opacity="1" /><path clip-path="url(#clip370)" d="M982.088 28.9478 L982.088 35.9153 Q978.928 34.1734 975.728 33.3227 Q972.569 32.4315 969.328 32.4315 Q962.077 32.4315 958.066 37.0496 Q954.056 41.6271 954.056 49.9314 Q954.056 58.2358 958.066 62.8538 Q962.077 67.4314 969.328 67.4314 Q972.569 67.4314 975.728 66.5807 Q978.928 65.6895 982.088 63.9476 L982.088 70.8341 Q978.969 72.2924 975.607 73.0216 Q972.285 73.7508 968.518 73.7508 Q958.269 73.7508 952.233 67.3098 Q946.197 60.8689 946.197 49.9314 Q946.197 38.832 952.274 32.472 Q958.39 26.1121 969.004 26.1121 Q972.447 26.1121 975.728 26.8413 Q979.009 27.5299 982.088 28.9478 Z" fill="#000000" fill-rule="evenodd" fill-opacity="1" /><path clip-path="url(#clip370)" d="M1002.42 14.324 L1002.42 27.2059 L1017.78 27.2059 L1017.78 32.9987 L1002.42 32.9987 L1002.42 57.6282 Q1002.42 63.1779 1003.92 64.7578 Q1005.46 66.3376 1010.12 66.3376 L1017.78 66.3376 L1017.78 72.576 L1010.12 72.576 Q1001.49 72.576 998.211 69.3758 Q994.93 66.1351 994.93 57.6282 L994.93 32.9987 L989.461 32.9987 L989.461 27.2059 L994.93 27.2059 L994.93 14.324 L1002.42 14.324 Z" fill="#000000" fill-rule="evenodd" fill-opacity="1" /><path clip-path="url(#clip370)" d="M1056.5 28.5427 L1056.5 35.5912 Q1053.34 33.9709 1049.94 33.1607 Q1046.54 32.3505 1042.89 32.3505 Q1037.34 32.3505 1034.55 34.0519 Q1031.79 35.7533 1031.79 39.156 Q1031.79 41.7486 1033.78 43.2475 Q1035.76 44.7058 1041.76 46.0426 L1044.31 46.6097 Q1052.25 48.3111 1055.57 51.4303 Q1058.93 54.509 1058.93 60.0587 Q1058.93 66.3781 1053.91 70.0644 Q1048.93 73.7508 1040.18 73.7508 Q1036.53 73.7508 1032.56 73.0216 Q1028.63 72.3329 1024.26 70.9151 L1024.26 63.2184 Q1028.39 65.3654 1032.4 66.4591 Q1036.41 67.5124 1040.34 67.5124 Q1045.61 67.5124 1048.44 65.73 Q1051.28 63.9071 1051.28 60.6258 Q1051.28 57.5877 1049.21 55.9673 Q1047.19 54.3469 1040.26 52.8481 L1037.67 52.2405 Q1030.74 50.7821 1027.66 47.7845 Q1024.58 44.7463 1024.58 39.4801 Q1024.58 33.0797 1029.12 29.5959 Q1033.66 26.1121 1042 26.1121 Q1046.13 26.1121 1049.78 26.7198 Q1053.42 27.3274 1056.5 28.5427 Z" fill="#000000" fill-rule="evenodd" fill-opacity="1" /><path clip-path="url(#clip370)" d="M1142.79 16.7545 L1142.79 25.383 Q1138.66 21.5346 1133.96 19.6307 Q1129.3 17.7268 1124.03 17.7268 Q1113.66 17.7268 1108.15 24.0867 Q1102.64 30.4061 1102.64 42.3968 Q1102.64 54.3469 1108.15 60.7069 Q1113.66 67.0263 1124.03 67.0263 Q1129.3 67.0263 1133.96 65.1223 Q1138.66 63.2184 1142.79 59.3701 L1142.79 67.9175 Q1138.49 70.8341 1133.67 72.2924 Q1128.89 73.7508 1123.55 73.7508 Q1109.81 73.7508 1101.91 65.3654 Q1094.01 56.9395 1094.01 42.3968 Q1094.01 27.8135 1101.91 19.4281 Q1109.81 11.0023 1123.55 11.0023 Q1128.97 11.0023 1133.75 12.4606 Q1138.57 13.8784 1142.79 16.7545 Z" fill="#000000" fill-rule="evenodd" fill-opacity="1" /><path clip-path="url(#clip370)" d="M1155.1 9.54393 L1162.56 9.54393 L1162.56 72.576 L1155.1 72.576 L1155.1 9.54393 Z" fill="#000000" fill-rule="evenodd" fill-opacity="1" /><path clip-path="url(#clip370)" d="M1198.77 49.7694 Q1189.74 49.7694 1186.25 51.8354 Q1182.77 53.9013 1182.77 58.8839 Q1182.77 62.8538 1185.36 65.2034 Q1188 67.5124 1192.49 67.5124 Q1198.69 67.5124 1202.42 63.1374 Q1206.18 58.7219 1206.18 51.4303 L1206.18 49.7694 L1198.77 49.7694 M1213.64 46.6907 L1213.64 72.576 L1206.18 72.576 L1206.18 65.6895 Q1203.63 69.8214 1199.82 71.8063 Q1196.02 73.7508 1190.51 73.7508 Q1183.54 73.7508 1179.41 69.8619 Q1175.32 65.9325 1175.32 59.3701 Q1175.32 51.7138 1180.42 47.825 Q1185.57 43.9361 1195.73 43.9361 L1206.18 43.9361 L1206.18 43.2069 Q1206.18 38.0623 1202.78 35.2672 Q1199.42 32.4315 1193.3 32.4315 Q1189.41 32.4315 1185.73 33.3632 Q1182.04 34.295 1178.64 36.1584 L1178.64 29.2718 Q1182.73 27.692 1186.58 26.9223 Q1190.43 26.1121 1194.07 26.1121 Q1203.92 26.1121 1208.78 31.2163 Q1213.64 36.3204 1213.64 46.6907 Z" fill="#000000" fill-rule="evenodd" fill-opacity="1" /><path clip-path="url(#clip370)" d="M1257.91 28.5427 L1257.91 35.5912 Q1254.75 33.9709 1251.35 33.1607 Q1247.95 32.3505 1244.3 32.3505 Q1238.75 32.3505 1235.96 34.0519 Q1233.2 35.7533 1233.2 39.156 Q1233.2 41.7486 1235.19 43.2475 Q1237.17 44.7058 1243.17 46.0426 L1245.72 46.6097 Q1253.66 48.3111 1256.98 51.4303 Q1260.34 54.509 1260.34 60.0587 Q1260.34 66.3781 1255.32 70.0644 Q1250.34 73.7508 1241.59 73.7508 Q1237.94 73.7508 1233.97 73.0216 Q1230.04 72.3329 1225.67 70.9151 L1225.67 63.2184 Q1229.8 65.3654 1233.81 66.4591 Q1237.82 67.5124 1241.75 67.5124 Q1247.02 67.5124 1249.85 65.73 Q1252.69 63.9071 1252.69 60.6258 Q1252.69 57.5877 1250.62 55.9673 Q1248.6 54.3469 1241.67 52.8481 L1239.08 52.2405 Q1232.15 50.7821 1229.07 47.7845 Q1225.99 44.7463 1225.99 39.4801 Q1225.99 33.0797 1230.53 29.5959 Q1235.07 26.1121 1243.41 26.1121 Q1247.54 26.1121 1251.19 26.7198 Q1254.84 27.3274 1257.91 28.5427 Z" fill="#000000" fill-rule="evenodd" fill-opacity="1" /><path clip-path="url(#clip370)" d="M1301.14 28.5427 L1301.14 35.5912 Q1297.98 33.9709 1294.57 33.1607 Q1291.17 32.3505 1287.53 32.3505 Q1281.98 32.3505 1279.18 34.0519 Q1276.43 35.7533 1276.43 39.156 Q1276.43 41.7486 1278.41 43.2475 Q1280.4 44.7058 1286.39 46.0426 L1288.94 46.6097 Q1296.88 48.3111 1300.21 51.4303 Q1303.57 54.509 1303.57 60.0587 Q1303.57 66.3781 1298.54 70.0644 Q1293.56 73.7508 1284.81 73.7508 Q1281.17 73.7508 1277.2 73.0216 Q1273.27 72.3329 1268.89 70.9151 L1268.89 63.2184 Q1273.02 65.3654 1277.03 66.4591 Q1281.04 67.5124 1284.97 67.5124 Q1290.24 67.5124 1293.08 65.73 Q1295.91 63.9071 1295.91 60.6258 Q1295.91 57.5877 1293.85 55.9673 Q1291.82 54.3469 1284.89 52.8481 L1282.3 52.2405 Q1275.37 50.7821 1272.29 47.7845 Q1269.22 44.7463 1269.22 39.4801 Q1269.22 33.0797 1273.75 29.5959 Q1278.29 26.1121 1286.64 26.1121 Q1290.77 26.1121 1294.41 26.7198 Q1298.06 27.3274 1301.14 28.5427 Z" fill="#000000" fill-rule="evenodd" fill-opacity="1" /><path clip-path="url(#clip370)" d="M1315.44 27.2059 L1322.89 27.2059 L1322.89 72.576 L1315.44 72.576 L1315.44 27.2059 M1315.44 9.54393 L1322.89 9.54393 L1322.89 18.9825 L1315.44 18.9825 L1315.44 9.54393 Z" fill="#000000" fill-rule="evenodd" fill-opacity="1" /><path clip-path="url(#clip370)" d="M1361.46 9.54393 L1361.46 15.7418 L1354.33 15.7418 Q1350.32 15.7418 1348.74 17.3622 Q1347.2 18.9825 1347.2 23.1955 L1347.2 27.2059 L1359.47 27.2059 L1359.47 32.9987 L1347.2 32.9987 L1347.2 72.576 L1339.7 72.576 L1339.7 32.9987 L1332.57 32.9987 L1332.57 27.2059 L1339.7 27.2059 L1339.7 24.0462 Q1339.7 16.471 1343.23 13.0277 Q1346.75 9.54393 1354.41 9.54393 L1361.46 9.54393 Z" fill="#000000" fill-rule="evenodd" fill-opacity="1" /><path clip-path="url(#clip370)" d="M1367.69 27.2059 L1375.15 27.2059 L1375.15 72.576 L1367.69 72.576 L1367.69 27.2059 M1367.69 9.54393 L1375.15 9.54393 L1375.15 18.9825 L1367.69 18.9825 L1367.69 9.54393 Z" fill="#000000" fill-rule="evenodd" fill-opacity="1" /><path clip-path="url(#clip370)" d="M1429.55 48.0275 L1429.55 51.6733 L1395.28 51.6733 Q1395.77 59.3701 1399.9 63.421 Q1404.07 67.4314 1411.48 67.4314 Q1415.78 67.4314 1419.79 66.3781 Q1423.84 65.3249 1427.81 63.2184 L1427.81 70.267 Q1423.8 71.9684 1419.59 72.8596 Q1415.37 73.7508 1411.04 73.7508 Q1400.18 73.7508 1393.82 67.4314 Q1387.5 61.1119 1387.5 50.3365 Q1387.5 39.1965 1393.5 32.6746 Q1399.53 26.1121 1409.74 26.1121 Q1418.9 26.1121 1424.2 32.0264 Q1429.55 37.9003 1429.55 48.0275 M1422.1 45.84 Q1422.02 39.7232 1418.65 36.0774 Q1415.33 32.4315 1409.82 32.4315 Q1403.58 32.4315 1399.82 35.9558 Q1396.09 39.4801 1395.52 45.8805 L1422.1 45.84 Z" fill="#000000" fill-rule="evenodd" fill-opacity="1" /><path clip-path="url(#clip370)" d="M1471.64 34.0924 L1471.64 9.54393 L1479.09 9.54393 L1479.09 72.576 L1471.64 72.576 L1471.64 65.7705 Q1469.29 69.8214 1465.69 71.8063 Q1462.12 73.7508 1457.1 73.7508 Q1448.87 73.7508 1443.69 67.1883 Q1438.54 60.6258 1438.54 49.9314 Q1438.54 39.2371 1443.69 32.6746 Q1448.87 26.1121 1457.1 26.1121 Q1462.12 26.1121 1465.69 28.0971 Q1469.29 30.0415 1471.64 34.0924 M1446.24 49.9314 Q1446.24 58.1548 1449.6 62.8538 Q1453.01 67.5124 1458.92 67.5124 Q1464.83 67.5124 1468.24 62.8538 Q1471.64 58.1548 1471.64 49.9314 Q1471.64 41.7081 1468.24 37.0496 Q1464.83 32.3505 1458.92 32.3505 Q1453.01 32.3505 1449.6 37.0496 Q1446.24 41.7081 1446.24 49.9314 Z" fill="#000000" fill-rule="evenodd" fill-opacity="1" /><path clip-path="url(#clip370)" d="M1541.44 49.7694 Q1532.4 49.7694 1528.92 51.8354 Q1525.44 53.9013 1525.44 58.8839 Q1525.44 62.8538 1528.03 65.2034 Q1530.66 67.5124 1535.16 67.5124 Q1541.36 67.5124 1545.08 63.1374 Q1548.85 58.7219 1548.85 51.4303 L1548.85 49.7694 L1541.44 49.7694 M1556.3 46.6907 L1556.3 72.576 L1548.85 72.576 L1548.85 65.6895 Q1546.3 69.8214 1542.49 71.8063 Q1538.68 73.7508 1533.17 73.7508 Q1526.21 73.7508 1522.07 69.8619 Q1517.98 65.9325 1517.98 59.3701 Q1517.98 51.7138 1523.09 47.825 Q1528.23 43.9361 1538.4 43.9361 L1548.85 43.9361 L1548.85 43.2069 Q1548.85 38.0623 1545.45 35.2672 Q1542.09 32.4315 1535.97 32.4315 Q1532.08 32.4315 1528.39 33.3632 Q1524.71 34.295 1521.3 36.1584 L1521.3 29.2718 Q1525.4 27.692 1529.24 26.9223 Q1533.09 26.1121 1536.74 26.1121 Q1546.58 26.1121 1551.44 31.2163 Q1556.3 36.3204 1556.3 46.6907 Z" fill="#000000" fill-rule="evenodd" fill-opacity="1" /><path clip-path="url(#clip370)" d="M1600.58 28.5427 L1600.58 35.5912 Q1597.42 33.9709 1594.02 33.1607 Q1590.62 32.3505 1586.97 32.3505 Q1581.42 32.3505 1578.62 34.0519 Q1575.87 35.7533 1575.87 39.156 Q1575.87 41.7486 1577.85 43.2475 Q1579.84 44.7058 1585.83 46.0426 L1588.39 46.6097 Q1596.33 48.3111 1599.65 51.4303 Q1603.01 54.509 1603.01 60.0587 Q1603.01 66.3781 1597.99 70.0644 Q1593.01 73.7508 1584.26 73.7508 Q1580.61 73.7508 1576.64 73.0216 Q1572.71 72.3329 1568.34 70.9151 L1568.34 63.2184 Q1572.47 65.3654 1576.48 66.4591 Q1580.49 67.5124 1584.42 67.5124 Q1589.68 67.5124 1592.52 65.73 Q1595.35 63.9071 1595.35 60.6258 Q1595.35 57.5877 1593.29 55.9673 Q1591.26 54.3469 1584.34 52.8481 L1581.74 52.2405 Q1574.82 50.7821 1571.74 47.7845 Q1568.66 44.7463 1568.66 39.4801 Q1568.66 33.0797 1573.2 29.5959 Q1577.73 26.1121 1586.08 26.1121 Q1590.21 26.1121 1593.86 26.7198 Q1597.5 27.3274 1600.58 28.5427 Z" fill="#000000" fill-rule="evenodd" fill-opacity="1" /><path clip-path="url(#clip370)" d="M1649.76 18.8205 L1649.76 65.8515 L1659.64 65.8515 Q1672.16 65.8515 1677.95 60.1802 Q1683.79 54.509 1683.79 42.2752 Q1683.79 30.1225 1677.95 24.4918 Q1672.16 18.8205 1659.64 18.8205 L1649.76 18.8205 M1641.58 12.096 L1658.39 12.096 Q1675.97 12.096 1684.19 19.4281 Q1692.41 26.7198 1692.41 42.2752 Q1692.41 57.9117 1684.15 65.2439 Q1675.89 72.576 1658.39 72.576 L1641.58 72.576 L1641.58 12.096 Z" fill="#000000" fill-rule="evenodd" fill-opacity="1" /><path clip-path="url(#clip370)" d="M1743.94 48.0275 L1743.94 51.6733 L1709.67 51.6733 Q1710.16 59.3701 1714.29 63.421 Q1718.46 67.4314 1725.87 67.4314 Q1730.17 67.4314 1734.18 66.3781 Q1738.23 65.3249 1742.2 63.2184 L1742.2 70.267 Q1738.19 71.9684 1733.98 72.8596 Q1729.76 73.7508 1725.43 73.7508 Q1714.57 73.7508 1708.21 67.4314 Q1701.89 61.1119 1701.89 50.3365 Q1701.89 39.1965 1707.89 32.6746 Q1713.92 26.1121 1724.13 26.1121 Q1733.29 26.1121 1738.59 32.0264 Q1743.94 37.9003 1743.94 48.0275 M1736.49 45.84 Q1736.41 39.7232 1733.04 36.0774 Q1729.72 32.4315 1724.21 32.4315 Q1717.98 32.4315 1714.21 35.9558 Q1710.48 39.4801 1709.91 45.8805 L1736.49 45.84 Z" fill="#000000" fill-rule="evenodd" fill-opacity="1" /><path clip-path="url(#clip370)" d="M1788.74 49.9314 Q1788.74 41.7081 1785.34 37.0496 Q1781.98 32.3505 1776.07 32.3505 Q1770.15 32.3505 1766.75 37.0496 Q1763.39 41.7081 1763.39 49.9314 Q1763.39 58.1548 1766.75 62.8538 Q1770.15 67.5124 1776.07 67.5124 Q1781.98 67.5124 1785.34 62.8538 Q1788.74 58.1548 1788.74 49.9314 M1763.39 34.0924 Q1765.74 30.0415 1769.3 28.0971 Q1772.91 26.1121 1777.89 26.1121 Q1786.15 26.1121 1791.3 32.6746 Q1796.48 39.2371 1796.48 49.9314 Q1796.48 60.6258 1791.3 67.1883 Q1786.15 73.7508 1777.89 73.7508 Q1772.91 73.7508 1769.3 71.8063 Q1765.74 69.8214 1763.39 65.7705 L1763.39 72.576 L1755.89 72.576 L1755.89 9.54393 L1763.39 9.54393 L1763.39 34.0924 Z" fill="#000000" fill-rule="evenodd" fill-opacity="1" /><path clip-path="url(#clip370)" d="M1835.13 34.1734 Q1833.87 33.4443 1832.37 33.1202 Q1830.91 32.7556 1829.13 32.7556 Q1822.81 32.7556 1819.41 36.8875 Q1816.05 40.9789 1816.05 48.6757 L1816.05 72.576 L1808.55 72.576 L1808.55 27.2059 L1816.05 27.2059 L1816.05 34.2544 Q1818.4 30.1225 1822.16 28.1376 Q1825.93 26.1121 1831.32 26.1121 Q1832.09 26.1121 1833.02 26.2337 Q1833.95 26.3147 1835.09 26.5172 L1835.13 34.1734 Z" fill="#000000" fill-rule="evenodd" fill-opacity="1" /><path clip-path="url(#clip370)" d="M1842.95 27.2059 L1850.4 27.2059 L1850.4 72.576 L1842.95 72.576 L1842.95 27.2059 M1842.95 9.54393 L1850.4 9.54393 L1850.4 18.9825 L1842.95 18.9825 L1842.95 9.54393 Z" fill="#000000" fill-rule="evenodd" fill-opacity="1" /><path clip-path="url(#clip370)" d="M1894.92 28.5427 L1894.92 35.5912 Q1891.76 33.9709 1888.36 33.1607 Q1884.95 32.3505 1881.31 32.3505 Q1875.76 32.3505 1872.96 34.0519 Q1870.21 35.7533 1870.21 39.156 Q1870.21 41.7486 1872.19 43.2475 Q1874.18 44.7058 1880.17 46.0426 L1882.73 46.6097 Q1890.67 48.3111 1893.99 51.4303 Q1897.35 54.509 1897.35 60.0587 Q1897.35 66.3781 1892.33 70.0644 Q1887.34 73.7508 1878.59 73.7508 Q1874.95 73.7508 1870.98 73.0216 Q1867.05 72.3329 1862.67 70.9151 L1862.67 63.2184 Q1866.81 65.3654 1870.82 66.4591 Q1874.83 67.5124 1878.76 67.5124 Q1884.02 67.5124 1886.86 65.73 Q1889.69 63.9071 1889.69 60.6258 Q1889.69 57.5877 1887.63 55.9673 Q1885.6 54.3469 1878.67 52.8481 L1876.08 52.2405 Q1869.16 50.7821 1866.08 47.7845 Q1863 44.7463 1863 39.4801 Q1863 33.0797 1867.53 29.5959 Q1872.07 26.1121 1880.42 26.1121 Q1884.55 26.1121 1888.19 26.7198 Q1891.84 27.3274 1894.92 28.5427 Z" fill="#000000" fill-rule="evenodd" fill-opacity="1" /><path clip-path="url(#clip370)" d="M1968.16 49.9314 Q1968.16 41.7081 1964.76 37.0496 Q1961.39 32.3505 1955.48 32.3505 Q1949.57 32.3505 1946.16 37.0496 Q1942.8 41.7081 1942.8 49.9314 Q1942.8 58.1548 1946.16 62.8538 Q1949.57 67.5124 1955.48 67.5124 Q1961.39 67.5124 1964.76 62.8538 Q1968.16 58.1548 1968.16 49.9314 M1942.8 34.0924 Q1945.15 30.0415 1948.71 28.0971 Q1952.32 26.1121 1957.3 26.1121 Q1965.57 26.1121 1970.71 32.6746 Q1975.9 39.2371 1975.9 49.9314 Q1975.9 60.6258 1970.71 67.1883 Q1965.57 73.7508 1957.3 73.7508 Q1952.32 73.7508 1948.71 71.8063 Q1945.15 69.8214 1942.8 65.7705 L1942.8 72.576 L1935.31 72.576 L1935.31 9.54393 L1942.8 9.54393 L1942.8 34.0924 Z" fill="#000000" fill-rule="evenodd" fill-opacity="1" /><path clip-path="url(#clip370)" d="M2007.13 76.7889 Q2003.97 84.8907 2000.97 87.3618 Q1997.97 89.8329 1992.95 89.8329 L1987 89.8329 L1987 83.5945 L1991.37 83.5945 Q1994.45 83.5945 1996.15 82.1361 Q1997.85 80.6778 1999.92 75.2496 L2001.26 71.8468 L1982.9 27.2059 L1990.8 27.2059 L2004.98 62.6918 L2019.16 27.2059 L2027.06 27.2059 L2007.13 76.7889 Z" fill="#000000" fill-rule="evenodd" fill-opacity="1" /><path clip-path="url(#clip370)" d="M2084.26 20.1573 L2073.16 50.2555 L2095.4 50.2555 L2084.26 20.1573 M2079.64 12.096 L2088.92 12.096 L2111.97 72.576 L2103.46 72.576 L2097.95 57.061 L2070.69 57.061 L2065.18 72.576 L2056.55 72.576 L2079.64 12.096 Z" fill="#000000" fill-rule="evenodd" fill-opacity="1" /><path clip-path="url(#clip370)" d="M2120.47 9.54393 L2127.93 9.54393 L2127.93 72.576 L2120.47 72.576 L2120.47 9.54393 Z" fill="#000000" fill-rule="evenodd" fill-opacity="1" /><path clip-path="url(#clip370)" d="M2150.9 14.324 L2150.9 27.2059 L2166.25 27.2059 L2166.25 32.9987 L2150.9 32.9987 L2150.9 57.6282 Q2150.9 63.1779 2152.39 64.7578 Q2153.93 66.3376 2158.59 66.3376 L2166.25 66.3376 L2166.25 72.576 L2158.59 72.576 Q2149.96 72.576 2146.68 69.3758 Q2143.4 66.1351 2143.4 57.6282 L2143.4 32.9987 L2137.93 32.9987 L2137.93 27.2059 L2143.4 27.2059 L2143.4 14.324 L2150.9 14.324 Z" fill="#000000" fill-rule="evenodd" fill-opacity="1" /><path clip-path="url(#clip370)" d="M2176.05 27.2059 L2183.51 27.2059 L2183.51 72.576 L2176.05 72.576 L2176.05 27.2059 M2176.05 9.54393 L2183.51 9.54393 L2183.51 18.9825 L2176.05 18.9825 L2176.05 9.54393 Z" fill="#000000" fill-rule="evenodd" fill-opacity="1" /><path clip-path="url(#clip370)" d="M2206.47 14.324 L2206.47 27.2059 L2221.83 27.2059 L2221.83 32.9987 L2206.47 32.9987 L2206.47 57.6282 Q2206.47 63.1779 2207.97 64.7578 Q2209.51 66.3376 2214.17 66.3376 L2221.83 66.3376 L2221.83 72.576 L2214.17 72.576 Q2205.54 72.576 2202.26 69.3758 Q2198.98 66.1351 2198.98 57.6282 L2198.98 32.9987 L2193.51 32.9987 L2193.51 27.2059 L2198.98 27.2059 L2198.98 14.324 L2206.47 14.324 Z" fill="#000000" fill-rule="evenodd" fill-opacity="1" /><path clip-path="url(#clip370)" d="M2230.86 54.671 L2230.86 27.2059 L2238.31 27.2059 L2238.31 54.3874 Q2238.31 60.8284 2240.83 64.0691 Q2243.34 67.2693 2248.36 67.2693 Q2254.4 67.2693 2257.88 63.421 Q2261.4 59.5726 2261.4 52.9291 L2261.4 27.2059 L2268.86 27.2059 L2268.86 72.576 L2261.4 72.576 L2261.4 65.6084 Q2258.69 69.7404 2255.08 71.7658 Q2251.52 73.7508 2246.78 73.7508 Q2238.96 73.7508 2234.91 68.8897 Q2230.86 64.0286 2230.86 54.671 M2249.62 26.1121 L2249.62 26.1121 Z" fill="#000000" fill-rule="evenodd" fill-opacity="1" /><path clip-path="url(#clip370)" d="M2314.07 34.0924 L2314.07 9.54393 L2321.52 9.54393 L2321.52 72.576 L2314.07 72.576 L2314.07 65.7705 Q2311.72 69.8214 2308.11 71.8063 Q2304.55 73.7508 2299.52 73.7508 Q2291.3 73.7508 2286.11 67.1883 Q2280.97 60.6258 2280.97 49.9314 Q2280.97 39.2371 2286.11 32.6746 Q2291.3 26.1121 2299.52 26.1121 Q2304.55 26.1121 2308.11 28.0971 Q2311.72 30.0415 2314.07 34.0924 M2288.67 49.9314 Q2288.67 58.1548 2292.03 62.8538 Q2295.43 67.5124 2301.35 67.5124 Q2307.26 67.5124 2310.66 62.8538 Q2314.07 58.1548 2314.07 49.9314 Q2314.07 41.7081 2310.66 37.0496 Q2307.26 32.3505 2301.35 32.3505 Q2295.43 32.3505 2292.03 37.0496 Q2288.67 41.7081 2288.67 49.9314 Z" fill="#000000" fill-rule="evenodd" fill-opacity="1" /><path clip-path="url(#clip370)" d="M2375.68 48.0275 L2375.68 51.6733 L2341.41 51.6733 Q2341.9 59.3701 2346.03 63.421 Q2350.2 67.4314 2357.61 67.4314 Q2361.91 67.4314 2365.92 66.3781 Q2369.97 65.3249 2373.94 63.2184 L2373.94 70.267 Q2369.93 71.9684 2365.72 72.8596 Q2361.5 73.7508 2357.17 73.7508 Q2346.31 73.7508 2339.95 67.4314 Q2333.63 61.1119 2333.63 50.3365 Q2333.63 39.1965 2339.63 32.6746 Q2345.66 26.1121 2355.87 26.1121 Q2365.03 26.1121 2370.33 32.0264 Q2375.68 37.9003 2375.68 48.0275 M2368.23 45.84 Q2368.15 39.7232 2364.78 36.0774 Q2361.46 32.4315 2355.95 32.4315 Q2349.71 32.4315 2345.95 35.9558 Q2342.22 39.4801 2341.65 45.8805 L2368.23 45.84 Z" fill="#000000" fill-rule="evenodd" fill-opacity="1" /><polyline clip-path="url(#clip372)" style="stroke:#000000; stroke-linecap:butt; stroke-linejoin:round; stroke-width:4; stroke-opacity:1; fill:none" points="
  362.36,539.584 403.425,160.256 444.489,1298.24 485.554,977.27 526.618,955.039 567.683,1270.75 608.747,813.053 649.811,998.361 690.876,1386.4 731.94,1358.98 
  773.005,795.16 814.069,532.671 855.134,398.38 896.198,552.237 937.263,375.733 978.327,311.877 1019.39,389.949 1060.46,674.006 1101.52,605.881 1142.59,418.522 
  1183.65,420.07 1224.71,463.719 1265.78,1158.22 1306.84,304.464 1347.91,340.889 1388.97,547.432 1430.04,1175.63 1471.1,1104.51 1512.17,790.658 1553.23,528.428 
  1594.29,433.372 1635.36,539.584 1676.42,502.875 1717.49,406.307 1758.55,328.847 1799.62,539.584 1840.68,444.752 1881.75,474.183 1922.81,615.45 1963.88,497.437 
  2004.94,666.027 2046,276.973 2087.07,1003.21 2128.13,810.533 2169.2,328.847 2210.26,377.015 2251.33,497.437 2292.39,615.45 
  "/>
</svg>
