<?xml version="1.0" encoding="utf-8"?>
<svg xmlns="http://www.w3.org/2000/svg" xmlns:xlink="http://www.w3.org/1999/xlink" width="600" height="400" viewBox="0 0 2400 1600">
<defs>
  <clipPath id="clip470">
    <rect x="0" y="0" width="2400" height="1600"/>
  </clipPath>
</defs>
<path clip-path="url(#clip470)" d="
M0 1600 L2400 1600 L2400 0 L0 0  Z
  " fill="#ffffff" fill-rule="evenodd" fill-opacity="1"/>
<defs>
  <clipPath id="clip471">
    <rect x="480" y="0" width="1681" height="1600"/>
  </clipPath>
</defs>
<defs>
  <clipPath id="clip472">
    <rect x="252" y="123" width="2101" height="1301"/>
  </clipPath>
</defs>
<path clip-path="url(#clip470)" d="
M252.764 1423.18 L2352.76 1423.18 L2352.76 123.472 L252.764 123.472  Z
  " fill="#ffffff" fill-rule="evenodd" fill-opacity="1"/>
<polyline clip-path="url(#clip472)" style="stroke:#000000; stroke-linecap:butt; stroke-linejoin:round; stroke-width:2; stroke-opacity:0.1; fill:none" points="
  309.817,1423.18 309.817,123.472 
  "/>
<polyline clip-path="url(#clip472)" style="stroke:#000000; stroke-linecap:butt; stroke-linejoin:round; stroke-width:2; stroke-opacity:0.1; fill:none" points="
  706.676,1423.18 706.676,123.472 
  "/>
<polyline clip-path="url(#clip472)" style="stroke:#000000; stroke-linecap:butt; stroke-linejoin:round; stroke-width:2; stroke-opacity:0.1; fill:none" points="
  1103.54,1423.18 1103.54,123.472 
  "/>
<polyline clip-path="url(#clip472)" style="stroke:#000000; stroke-linecap:butt; stroke-linejoin:round; stroke-width:2; stroke-opacity:0.1; fill:none" points="
  1500.4,1423.18 1500.4,123.472 
  "/>
<polyline clip-path="url(#clip472)" style="stroke:#000000; stroke-linecap:butt; stroke-linejoin:round; stroke-width:2; stroke-opacity:0.1; fill:none" points="
  1897.26,1423.18 1897.26,123.472 
  "/>
<polyline clip-path="url(#clip472)" style="stroke:#000000; stroke-linecap:butt; stroke-linejoin:round; stroke-width:2; stroke-opacity:0.1; fill:none" points="
  2294.12,1423.18 2294.12,123.472 
  "/>
<polyline clip-path="url(#clip470)" style="stroke:#000000; stroke-linecap:butt; stroke-linejoin:round; stroke-width:4; stroke-opacity:1; fill:none" points="
  252.764,1423.18 2352.76,1423.18 
  "/>
<polyline clip-path="url(#clip470)" style="stroke:#000000; stroke-linecap:butt; stroke-linejoin:round; stroke-width:4; stroke-opacity:1; fill:none" points="
  309.817,1423.18 309.817,1404.28 
  "/>
<polyline clip-path="url(#clip470)" style="stroke:#000000; stroke-linecap:butt; stroke-linejoin:round; stroke-width:4; stroke-opacity:1; fill:none" points="
  706.676,1423.18 706.676,1404.28 
  "/>
<polyline clip-path="url(#clip470)" style="stroke:#000000; stroke-linecap:butt; stroke-linejoin:round; stroke-width:4; stroke-opacity:1; fill:none" points="
  1103.54,1423.18 1103.54,1404.28 
  "/>
<polyline clip-path="url(#clip470)" style="stroke:#000000; stroke-linecap:butt; stroke-linejoin:round; stroke-width:4; stroke-opacity:1; fill:none" points="
  1500.4,1423.18 1500.4,1404.28 
  "/>
<polyline clip-path="url(#clip470)" style="stroke:#000000; stroke-linecap:butt; stroke-linejoin:round; stroke-width:4; stroke-opacity:1; fill:none" points="
  1897.26,1423.18 1897.26,1404.28 
  "/>
<polyline clip-path="url(#clip470)" style="stroke:#000000; stroke-linecap:butt; stroke-linejoin:round; stroke-width:4; stroke-opacity:1; fill:none" points="
  2294.12,1423.18 2294.12,1404.28 
  "/>
<path clip-path="url(#clip470)" d="M309.817 1454.1 Q306.205 1454.1 304.377 1457.66 Q302.571 1461.2 302.571 1468.33 Q302.571 1475.44 304.377 1479.01 Q306.205 1482.55 309.817 1482.55 Q313.451 1482.55 315.256 1479.01 Q317.085 1475.44 317.085 1468.33 Q317.085 1461.2 315.256 1457.66 Q313.451 1454.1 309.817 1454.1 M309.817 1450.39 Q315.627 1450.39 318.682 1455 Q321.761 1459.58 321.761 1468.33 Q321.761 1477.06 318.682 1481.67 Q315.627 1486.25 309.817 1486.25 Q304.006 1486.25 300.928 1481.67 Q297.872 1477.06 297.872 1468.33 Q297.872 1459.58 300.928 1455 Q304.006 1450.39 309.817 1450.39 Z" fill="#000000" fill-rule="evenodd" fill-opacity="1" /><path clip-path="url(#clip470)" d="M666.295 1451.02 L684.651 1451.02 L684.651 1454.96 L670.577 1454.96 L670.577 1463.43 Q671.596 1463.08 672.614 1462.92 Q673.633 1462.73 674.651 1462.73 Q680.438 1462.73 683.818 1465.9 Q687.197 1469.08 687.197 1474.49 Q687.197 1480.07 683.725 1483.17 Q680.253 1486.25 673.934 1486.25 Q671.758 1486.25 669.489 1485.88 Q667.244 1485.51 664.836 1484.77 L664.836 1480.07 Q666.92 1481.2 669.142 1481.76 Q671.364 1482.32 673.841 1482.32 Q677.846 1482.32 680.183 1480.21 Q682.521 1478.1 682.521 1474.49 Q682.521 1470.88 680.183 1468.77 Q677.846 1466.67 673.841 1466.67 Q671.966 1466.67 670.091 1467.08 Q668.239 1467.5 666.295 1468.38 L666.295 1451.02 Z" fill="#000000" fill-rule="evenodd" fill-opacity="1" /><path clip-path="url(#clip470)" d="M706.41 1454.1 Q702.799 1454.1 700.97 1457.66 Q699.165 1461.2 699.165 1468.33 Q699.165 1475.44 700.97 1479.01 Q702.799 1482.55 706.41 1482.55 Q710.044 1482.55 711.85 1479.01 Q713.679 1475.44 713.679 1468.33 Q713.679 1461.2 711.85 1457.66 Q710.044 1454.1 706.41 1454.1 M706.41 1450.39 Q712.22 1450.39 715.276 1455 Q718.355 1459.58 718.355 1468.33 Q718.355 1477.06 715.276 1481.67 Q712.22 1486.25 706.41 1486.25 Q700.6 1486.25 697.521 1481.67 Q694.466 1477.06 694.466 1468.33 Q694.466 1459.58 697.521 1455 Q700.6 1450.39 706.41 1450.39 Z" fill="#000000" fill-rule="evenodd" fill-opacity="1" /><path clip-path="url(#clip470)" d="M736.572 1454.1 Q732.961 1454.1 731.132 1457.66 Q729.327 1461.2 729.327 1468.33 Q729.327 1475.44 731.132 1479.01 Q732.961 1482.55 736.572 1482.55 Q740.206 1482.55 742.012 1479.01 Q743.841 1475.44 743.841 1468.33 Q743.841 1461.2 742.012 1457.66 Q740.206 1454.1 736.572 1454.1 M736.572 1450.39 Q742.382 1450.39 745.438 1455 Q748.516 1459.58 748.516 1468.33 Q748.516 1477.06 745.438 1481.67 Q742.382 1486.25 736.572 1486.25 Q730.762 1486.25 727.683 1481.67 Q724.628 1477.06 724.628 1468.33 Q724.628 1459.58 727.683 1455 Q730.762 1450.39 736.572 1450.39 Z" fill="#000000" fill-rule="evenodd" fill-opacity="1" /><path clip-path="url(#clip470)" d="M1048.06 1481.64 L1055.7 1481.64 L1055.7 1455.28 L1047.39 1456.95 L1047.39 1452.69 L1055.65 1451.02 L1060.33 1451.02 L1060.33 1481.64 L1067.97 1481.64 L1067.97 1485.58 L1048.06 1485.58 L1048.06 1481.64 Z" fill="#000000" fill-rule="evenodd" fill-opacity="1" /><path clip-path="url(#clip470)" d="M1087.41 1454.1 Q1083.8 1454.1 1081.97 1457.66 Q1080.17 1461.2 1080.17 1468.33 Q1080.17 1475.44 1081.97 1479.01 Q1083.8 1482.55 1087.41 1482.55 Q1091.05 1482.55 1092.85 1479.01 Q1094.68 1475.44 1094.68 1468.33 Q1094.68 1461.2 1092.85 1457.66 Q1091.05 1454.1 1087.41 1454.1 M1087.41 1450.39 Q1093.22 1450.39 1096.28 1455 Q1099.36 1459.58 1099.36 1468.33 Q1099.36 1477.06 1096.28 1481.67 Q1093.22 1486.25 1087.41 1486.25 Q1081.6 1486.25 1078.52 1481.67 Q1075.47 1477.06 1075.47 1468.33 Q1075.47 1459.58 1078.52 1455 Q1081.6 1450.39 1087.41 1450.39 Z" fill="#000000" fill-rule="evenodd" fill-opacity="1" /><path clip-path="url(#clip470)" d="M1117.58 1454.1 Q1113.96 1454.1 1112.14 1457.66 Q1110.33 1461.2 1110.33 1468.33 Q1110.33 1475.44 1112.14 1479.01 Q1113.96 1482.55 1117.58 1482.55 Q1121.21 1482.55 1123.02 1479.01 Q1124.84 1475.44 1124.84 1468.33 Q1124.84 1461.2 1123.02 1457.66 Q1121.21 1454.1 1117.58 1454.1 M1117.58 1450.39 Q1123.39 1450.39 1126.44 1455 Q1129.52 1459.58 1129.52 1468.33 Q1129.52 1477.06 1126.44 1481.67 Q1123.39 1486.25 1117.58 1486.25 Q1111.77 1486.25 1108.69 1481.67 Q1105.63 1477.06 1105.63 1468.33 Q1105.63 1459.58 1108.69 1455 Q1111.77 1450.39 1117.58 1450.39 Z" fill="#000000" fill-rule="evenodd" fill-opacity="1" /><path clip-path="url(#clip470)" d="M1147.74 1454.1 Q1144.13 1454.1 1142.3 1457.66 Q1140.49 1461.2 1140.49 1468.33 Q1140.49 1475.44 1142.3 1479.01 Q1144.13 1482.55 1147.74 1482.55 Q1151.37 1482.55 1153.18 1479.01 Q1155.01 1475.44 1155.01 1468.33 Q1155.01 1461.2 1153.18 1457.66 Q1151.37 1454.1 1147.74 1454.1 M1147.74 1450.39 Q1153.55 1450.39 1156.6 1455 Q1159.68 1459.58 1159.68 1468.33 Q1159.68 1477.06 1156.6 1481.67 Q1153.55 1486.25 1147.74 1486.25 Q1141.93 1486.25 1138.85 1481.67 Q1135.79 1477.06 1135.79 1468.33 Q1135.79 1459.58 1138.85 1455 Q1141.93 1450.39 1147.74 1450.39 Z" fill="#000000" fill-rule="evenodd" fill-opacity="1" /><path clip-path="url(#clip470)" d="M1444.92 1481.64 L1452.56 1481.64 L1452.56 1455.28 L1444.25 1456.95 L1444.25 1452.69 L1452.51 1451.02 L1457.19 1451.02 L1457.19 1481.64 L1464.83 1481.64 L1464.83 1485.58 L1444.92 1485.58 L1444.92 1481.64 Z" fill="#000000" fill-rule="evenodd" fill-opacity="1" /><path clip-path="url(#clip470)" d="M1474.32 1451.02 L1492.68 1451.02 L1492.68 1454.96 L1478.6 1454.96 L1478.6 1463.43 Q1479.62 1463.08 1480.64 1462.92 Q1481.66 1462.73 1482.68 1462.73 Q1488.46 1462.73 1491.84 1465.9 Q1495.22 1469.08 1495.22 1474.49 Q1495.22 1480.07 1491.75 1483.17 Q1488.28 1486.25 1481.96 1486.25 Q1479.78 1486.25 1477.51 1485.88 Q1475.27 1485.51 1472.86 1484.77 L1472.86 1480.07 Q1474.94 1481.2 1477.17 1481.76 Q1479.39 1482.32 1481.87 1482.32 Q1485.87 1482.32 1488.21 1480.21 Q1490.55 1478.1 1490.55 1474.49 Q1490.55 1470.88 1488.21 1468.77 Q1485.87 1466.67 1481.87 1466.67 Q1479.99 1466.67 1478.12 1467.08 Q1476.26 1467.5 1474.32 1468.38 L1474.32 1451.02 Z" fill="#000000" fill-rule="evenodd" fill-opacity="1" /><path clip-path="url(#clip470)" d="M1514.44 1454.1 Q1510.82 1454.1 1509 1457.66 Q1507.19 1461.2 1507.19 1468.33 Q1507.19 1475.44 1509 1479.01 Q1510.82 1482.55 1514.44 1482.55 Q1518.07 1482.55 1519.88 1479.01 Q1521.7 1475.44 1521.7 1468.33 Q1521.7 1461.2 1519.88 1457.66 Q1518.07 1454.1 1514.44 1454.1 M1514.44 1450.39 Q1520.25 1450.39 1523.3 1455 Q1526.38 1459.58 1526.38 1468.33 Q1526.38 1477.06 1523.3 1481.67 Q1520.25 1486.25 1514.44 1486.25 Q1508.63 1486.25 1505.55 1481.67 Q1502.49 1477.06 1502.49 1468.33 Q1502.49 1459.58 1505.55 1455 Q1508.63 1450.39 1514.44 1450.39 Z" fill="#000000" fill-rule="evenodd" fill-opacity="1" /><path clip-path="url(#clip470)" d="M1544.6 1454.1 Q1540.99 1454.1 1539.16 1457.66 Q1537.35 1461.2 1537.35 1468.33 Q1537.35 1475.44 1539.16 1479.01 Q1540.99 1482.55 1544.6 1482.55 Q1548.23 1482.55 1550.04 1479.01 Q1551.87 1475.44 1551.87 1468.33 Q1551.87 1461.2 1550.04 1457.66 Q1548.23 1454.1 1544.6 1454.1 M1544.6 1450.39 Q1550.41 1450.39 1553.46 1455 Q1556.54 1459.58 1556.54 1468.33 Q1556.54 1477.06 1553.46 1481.67 Q1550.41 1486.25 1544.6 1486.25 Q1538.79 1486.25 1535.71 1481.67 Q1532.65 1477.06 1532.65 1468.33 Q1532.65 1459.58 1535.71 1455 Q1538.79 1450.39 1544.6 1450.39 Z" fill="#000000" fill-rule="evenodd" fill-opacity="1" /><path clip-path="url(#clip470)" d="M1845.87 1481.64 L1862.19 1481.64 L1862.19 1485.58 L1840.24 1485.58 L1840.24 1481.64 Q1842.9 1478.89 1847.49 1474.26 Q1852.09 1469.61 1853.27 1468.27 Q1855.52 1465.74 1856.4 1464.01 Q1857.3 1462.25 1857.3 1460.56 Q1857.3 1457.8 1855.36 1456.07 Q1853.44 1454.33 1850.33 1454.33 Q1848.14 1454.33 1845.68 1455.09 Q1843.25 1455.86 1840.47 1457.41 L1840.47 1452.69 Q1843.3 1451.55 1845.75 1450.97 Q1848.21 1450.39 1850.24 1450.39 Q1855.61 1450.39 1858.81 1453.08 Q1862 1455.77 1862 1460.26 Q1862 1462.39 1861.19 1464.31 Q1860.4 1466.2 1858.3 1468.8 Q1857.72 1469.47 1854.62 1472.69 Q1851.52 1475.88 1845.87 1481.64 Z" fill="#000000" fill-rule="evenodd" fill-opacity="1" /><path clip-path="url(#clip470)" d="M1882 1454.1 Q1878.39 1454.1 1876.56 1457.66 Q1874.76 1461.2 1874.76 1468.33 Q1874.76 1475.44 1876.56 1479.01 Q1878.39 1482.55 1882 1482.55 Q1885.64 1482.55 1887.44 1479.01 Q1889.27 1475.44 1889.27 1468.33 Q1889.27 1461.2 1887.44 1457.66 Q1885.64 1454.1 1882 1454.1 M1882 1450.39 Q1887.81 1450.39 1890.87 1455 Q1893.95 1459.58 1893.95 1468.33 Q1893.95 1477.06 1890.87 1481.67 Q1887.81 1486.25 1882 1486.25 Q1876.19 1486.25 1873.11 1481.67 Q1870.06 1477.06 1870.06 1468.33 Q1870.06 1459.58 1873.11 1455 Q1876.19 1450.39 1882 1450.39 Z" fill="#000000" fill-rule="evenodd" fill-opacity="1" /><path clip-path="url(#clip470)" d="M1912.16 1454.1 Q1908.55 1454.1 1906.72 1457.66 Q1904.92 1461.2 1904.92 1468.33 Q1904.92 1475.44 1906.72 1479.01 Q1908.55 1482.55 1912.16 1482.55 Q1915.8 1482.55 1917.6 1479.01 Q1919.43 1475.44 1919.43 1468.33 Q1919.43 1461.2 1917.6 1457.66 Q1915.8 1454.1 1912.16 1454.1 M1912.16 1450.39 Q1917.97 1450.39 1921.03 1455 Q1924.11 1459.58 1924.11 1468.33 Q1924.11 1477.06 1921.03 1481.67 Q1917.97 1486.25 1912.16 1486.25 Q1906.35 1486.25 1903.27 1481.67 Q1900.22 1477.06 1900.22 1468.33 Q1900.22 1459.58 1903.27 1455 Q1906.35 1450.39 1912.16 1450.39 Z" fill="#000000" fill-rule="evenodd" fill-opacity="1" /><path clip-path="url(#clip470)" d="M1942.33 1454.1 Q1938.71 1454.1 1936.89 1457.66 Q1935.08 1461.2 1935.08 1468.33 Q1935.08 1475.44 1936.89 1479.01 Q1938.71 1482.55 1942.33 1482.55 Q1945.96 1482.55 1947.77 1479.01 Q1949.59 1475.44 1949.59 1468.33 Q1949.59 1461.2 1947.77 1457.66 Q1945.96 1454.1 1942.33 1454.1 M1942.33 1450.39 Q1948.14 1450.39 1951.19 1455 Q1954.27 1459.58 1954.27 1468.33 Q1954.27 1477.06 1951.19 1481.67 Q1948.14 1486.25 1942.33 1486.25 Q1936.52 1486.25 1933.44 1481.67 Q1930.38 1477.06 1930.38 1468.33 Q1930.38 1459.58 1933.44 1455 Q1936.52 1450.39 1942.33 1450.39 Z" fill="#000000" fill-rule="evenodd" fill-opacity="1" /><path clip-path="url(#clip470)" d="M2242.73 1481.64 L2259.05 1481.64 L2259.05 1485.58 L2237.1 1485.58 L2237.1 1481.64 Q2239.76 1478.89 2244.35 1474.26 Q2248.95 1469.61 2250.13 1468.27 Q2252.38 1465.74 2253.26 1464.01 Q2254.16 1462.25 2254.16 1460.56 Q2254.16 1457.8 2252.22 1456.07 Q2250.3 1454.33 2247.19 1454.33 Q2245 1454.33 2242.54 1455.09 Q2240.11 1455.86 2237.33 1457.41 L2237.33 1452.69 Q2240.16 1451.55 2242.61 1450.97 Q2245.07 1450.39 2247.1 1450.39 Q2252.47 1450.39 2255.67 1453.08 Q2258.86 1455.77 2258.86 1460.26 Q2258.86 1462.39 2258.05 1464.31 Q2257.26 1466.2 2255.16 1468.8 Q2254.58 1469.47 2251.48 1472.69 Q2248.38 1475.88 2242.73 1481.64 Z" fill="#000000" fill-rule="evenodd" fill-opacity="1" /><path clip-path="url(#clip470)" d="M2268.91 1451.02 L2287.26 1451.02 L2287.26 1454.96 L2273.19 1454.96 L2273.19 1463.43 Q2274.21 1463.08 2275.23 1462.92 Q2276.25 1462.73 2277.26 1462.73 Q2283.05 1462.73 2286.43 1465.9 Q2289.81 1469.08 2289.81 1474.49 Q2289.81 1480.07 2286.34 1483.17 Q2282.87 1486.25 2276.55 1486.25 Q2274.37 1486.25 2272.1 1485.88 Q2269.86 1485.51 2267.45 1484.77 L2267.45 1480.07 Q2269.53 1481.2 2271.75 1481.76 Q2273.98 1482.32 2276.45 1482.32 Q2280.46 1482.32 2282.8 1480.21 Q2285.13 1478.1 2285.13 1474.49 Q2285.13 1470.88 2282.8 1468.77 Q2280.46 1466.67 2276.45 1466.67 Q2274.58 1466.67 2272.7 1467.08 Q2270.85 1467.5 2268.91 1468.38 L2268.91 1451.02 Z" fill="#000000" fill-rule="evenodd" fill-opacity="1" /><path clip-path="url(#clip470)" d="M2309.02 1454.1 Q2305.41 1454.1 2303.58 1457.66 Q2301.78 1461.2 2301.78 1468.33 Q2301.78 1475.44 2303.58 1479.01 Q2305.41 1482.55 2309.02 1482.55 Q2312.66 1482.55 2314.46 1479.01 Q2316.29 1475.44 2316.29 1468.33 Q2316.29 1461.2 2314.46 1457.66 Q2312.66 1454.1 2309.02 1454.1 M2309.02 1450.39 Q2314.83 1450.39 2317.89 1455 Q2320.97 1459.58 2320.97 1468.33 Q2320.97 1477.06 2317.89 1481.67 Q2314.83 1486.25 2309.02 1486.25 Q2303.21 1486.25 2300.13 1481.67 Q2297.08 1477.06 2297.08 1468.33 Q2297.08 1459.58 2300.13 1455 Q2303.21 1450.39 2309.02 1450.39 Z" fill="#000000" fill-rule="evenodd" fill-opacity="1" /><path clip-path="url(#clip470)" d="M2339.19 1454.1 Q2335.57 1454.1 2333.75 1457.66 Q2331.94 1461.2 2331.94 1468.33 Q2331.94 1475.44 2333.75 1479.01 Q2335.57 1482.55 2339.19 1482.55 Q2342.82 1482.55 2344.62 1479.01 Q2346.45 1475.44 2346.45 1468.33 Q2346.45 1461.2 2344.62 1457.66 Q2342.82 1454.1 2339.19 1454.1 M2339.19 1450.39 Q2345 1450.39 2348.05 1455 Q2351.13 1459.58 2351.13 1468.33 Q2351.13 1477.06 2348.05 1481.67 Q2345 1486.25 2339.19 1486.25 Q2333.37 1486.25 2330.3 1481.67 Q2327.24 1477.06 2327.24 1468.33 Q2327.24 1459.58 2330.3 1455 Q2333.37 1450.39 2339.19 1450.39 Z" fill="#000000" fill-rule="evenodd" fill-opacity="1" /><path clip-path="url(#clip470)" d="M1123.17 1537.27 L1114.45 1560.92 L1131.92 1560.92 L1123.17 1537.27 M1119.54 1530.94 L1126.83 1530.94 L1144.94 1578.46 L1138.25 1578.46 L1133.92 1566.27 L1112.5 1566.27 L1108.18 1578.46 L1101.4 1578.46 L1119.54 1530.94 Z" fill="#000000" fill-rule="evenodd" fill-opacity="1" /><path clip-path="url(#clip470)" d="M1151.62 1528.94 L1157.48 1528.94 L1157.48 1578.46 L1151.62 1578.46 L1151.62 1528.94 Z" fill="#000000" fill-rule="evenodd" fill-opacity="1" /><path clip-path="url(#clip470)" d="M1175.52 1532.69 L1175.52 1542.81 L1187.59 1542.81 L1187.59 1547.36 L1175.52 1547.36 L1175.52 1566.72 Q1175.52 1571.08 1176.7 1572.32 Q1177.91 1573.56 1181.57 1573.56 L1187.59 1573.56 L1187.59 1578.46 L1181.57 1578.46 Q1174.79 1578.46 1172.21 1575.95 Q1169.64 1573.4 1169.64 1566.72 L1169.64 1547.36 L1165.34 1547.36 L1165.34 1542.81 L1169.64 1542.81 L1169.64 1532.69 L1175.52 1532.69 Z" fill="#000000" fill-rule="evenodd" fill-opacity="1" /><path clip-path="url(#clip470)" d="M1195.29 1542.81 L1201.15 1542.81 L1201.15 1578.46 L1195.29 1578.46 L1195.29 1542.81 M1195.29 1528.94 L1201.15 1528.94 L1201.15 1536.35 L1195.29 1536.35 L1195.29 1528.94 Z" fill="#000000" fill-rule="evenodd" fill-opacity="1" /><path clip-path="url(#clip470)" d="M1219.19 1532.69 L1219.19 1542.81 L1231.26 1542.81 L1231.26 1547.36 L1219.19 1547.36 L1219.19 1566.72 Q1219.19 1571.08 1220.37 1572.32 Q1221.58 1573.56 1225.24 1573.56 L1231.26 1573.56 L1231.26 1578.46 L1225.24 1578.46 Q1218.46 1578.46 1215.88 1575.95 Q1213.3 1573.4 1213.3 1566.72 L1213.3 1547.36 L1209.01 1547.36 L1209.01 1542.81 L1213.3 1542.81 L1213.3 1532.69 L1219.19 1532.69 Z" fill="#000000" fill-rule="evenodd" fill-opacity="1" /><path clip-path="url(#clip470)" d="M1238.35 1564.39 L1238.35 1542.81 L1244.21 1542.81 L1244.21 1564.17 Q1244.21 1569.23 1246.18 1571.78 Q1248.16 1574.29 1252.1 1574.29 Q1256.85 1574.29 1259.58 1571.27 Q1262.35 1568.24 1262.35 1563.02 L1262.35 1542.81 L1268.21 1542.81 L1268.21 1578.46 L1262.35 1578.46 L1262.35 1572.99 Q1260.22 1576.23 1257.39 1577.82 Q1254.59 1579.38 1250.86 1579.38 Q1244.72 1579.38 1241.54 1575.56 Q1238.35 1571.74 1238.35 1564.39 M1253.09 1541.95 L1253.09 1541.95 Z" fill="#000000" fill-rule="evenodd" fill-opacity="1" /><path clip-path="url(#clip470)" d="M1303.73 1548.22 L1303.73 1528.94 L1309.59 1528.94 L1309.59 1578.46 L1303.73 1578.46 L1303.73 1573.11 Q1301.88 1576.3 1299.05 1577.86 Q1296.25 1579.38 1292.3 1579.38 Q1285.84 1579.38 1281.77 1574.23 Q1277.73 1569.07 1277.73 1560.67 Q1277.73 1552.27 1281.77 1547.11 Q1285.84 1541.95 1292.3 1541.95 Q1296.25 1541.95 1299.05 1543.51 Q1301.88 1545.04 1303.73 1548.22 M1283.77 1560.67 Q1283.77 1567.13 1286.41 1570.82 Q1289.09 1574.48 1293.74 1574.48 Q1298.38 1574.48 1301.06 1570.82 Q1303.73 1567.13 1303.73 1560.67 Q1303.73 1554.21 1301.06 1550.55 Q1298.38 1546.85 1293.74 1546.85 Q1289.09 1546.85 1286.41 1550.55 Q1283.77 1554.21 1283.77 1560.67 Z" fill="#000000" fill-rule="evenodd" fill-opacity="1" /><path clip-path="url(#clip470)" d="M1352.14 1559.17 L1352.14 1562.04 L1325.21 1562.04 Q1325.6 1568.08 1328.84 1571.27 Q1332.12 1574.42 1337.95 1574.42 Q1341.32 1574.42 1344.47 1573.59 Q1347.65 1572.76 1350.77 1571.11 L1350.77 1576.65 Q1347.62 1577.98 1344.31 1578.68 Q1341 1579.38 1337.6 1579.38 Q1329.07 1579.38 1324.07 1574.42 Q1319.1 1569.45 1319.1 1560.99 Q1319.1 1552.23 1323.81 1547.11 Q1328.56 1541.95 1336.58 1541.95 Q1343.77 1541.95 1347.94 1546.6 Q1352.14 1551.22 1352.14 1559.17 M1346.28 1557.45 Q1346.22 1552.65 1343.58 1549.78 Q1340.97 1546.92 1336.64 1546.92 Q1331.74 1546.92 1328.78 1549.69 Q1325.85 1552.46 1325.4 1557.49 L1346.28 1557.45 Z" fill="#000000" fill-rule="evenodd" fill-opacity="1" /><path clip-path="url(#clip470)" d="M1396.54 1529 Q1392.28 1536.32 1390.21 1543.48 Q1388.14 1550.64 1388.14 1557.99 Q1388.14 1565.35 1390.21 1572.57 Q1392.31 1579.77 1396.54 1587.05 L1391.45 1587.05 Q1386.67 1579.57 1384.29 1572.35 Q1381.93 1565.12 1381.93 1557.99 Q1381.93 1550.9 1384.29 1543.7 Q1386.64 1536.51 1391.45 1529 L1396.54 1529 Z" fill="#000000" fill-rule="evenodd" fill-opacity="1" /><path clip-path="url(#clip470)" d="M1426.4 1553.47 Q1426.4 1555.3 1425.27 1556.4 Q1424.17 1557.49 1422.79 1557.49 Q1421.57 1557.49 1420.92 1556.79 Q1420.28 1556.08 1420.28 1555.18 Q1420.28 1554.79 1420.44 1554.31 Q1420.6 1553.79 1420.95 1553.18 Q1421.34 1552.57 1422.15 1552.12 Q1422.95 1551.67 1424.05 1551.6 Q1423.82 1551.38 1423.76 1551.34 Q1423.27 1550.96 1422.37 1550.83 Q1422.24 1550.76 1421.79 1550.76 Q1419.57 1550.76 1417.31 1552.41 Q1415.09 1554.02 1412.35 1557.08 Q1408.91 1560.65 1406.69 1561.97 Q1416.44 1563.26 1416.44 1568.9 Q1416.44 1569.83 1416.19 1570.96 Q1415.67 1573.08 1415.67 1574.63 Q1415.67 1577.72 1417.77 1577.72 Q1419.79 1577.72 1421.08 1575.66 Q1422.4 1573.6 1423.5 1569.57 Q1423.66 1568.83 1423.82 1568.61 Q1423.98 1568.38 1424.43 1568.38 Q1425.24 1568.38 1425.24 1569.02 Q1424.5 1572.79 1422.85 1575.69 Q1420.76 1579.2 1417.64 1579.2 Q1415.03 1579.2 1413.29 1577.4 Q1411.58 1575.56 1411.58 1572.66 Q1411.58 1571.96 1411.84 1570.34 Q1412.03 1569.7 1412.03 1568.96 Q1412.03 1567.45 1411.2 1566.32 Q1410.36 1565.16 1409.01 1564.58 Q1407.65 1564 1406.53 1563.74 Q1405.43 1563.45 1404.37 1563.36 Q1401.15 1576.98 1400.7 1577.82 Q1400.41 1578.4 1399.76 1578.78 Q1399.12 1579.2 1398.44 1579.2 Q1397.8 1579.2 1397.15 1578.75 Q1396.54 1578.33 1396.54 1577.33 Q1396.54 1576.82 1396.8 1575.88 L1406.36 1537.88 L1406.56 1536.59 Q1406.56 1536.21 1406.4 1536.01 Q1406.27 1535.79 1405.49 1535.63 Q1404.75 1535.47 1403.27 1535.47 Q1402.66 1535.47 1402.37 1535.43 Q1402.11 1535.4 1401.89 1535.24 Q1401.66 1535.05 1401.66 1534.66 Q1401.66 1534.11 1401.89 1533.82 Q1402.15 1533.5 1402.34 1533.44 Q1402.53 1533.37 1402.92 1533.34 Q1403.47 1533.31 1405.3 1533.15 Q1407.14 1532.95 1408.72 1532.83 Q1410.29 1532.7 1410.97 1532.7 Q1411.36 1532.7 1411.55 1532.89 Q1411.78 1533.05 1411.81 1533.24 L1411.84 1533.4 L1404.98 1561.23 Q1407.81 1560.1 1412.29 1555.11 Q1417.48 1549.31 1421.92 1549.31 Q1424.01 1549.31 1425.2 1550.6 Q1426.4 1551.86 1426.4 1553.47 Z" fill="#000000" fill-rule="evenodd" fill-opacity="1" /><path clip-path="url(#clip470)" d="M1486.2 1569.02 Q1486.2 1569.28 1485.91 1570.28 Q1485.62 1571.28 1484.91 1572.82 Q1484.24 1574.37 1483.27 1575.79 Q1482.34 1577.17 1480.79 1578.2 Q1479.28 1579.2 1477.54 1579.2 Q1475.22 1579.2 1473.67 1577.66 Q1472.13 1576.11 1472.13 1573.79 Q1472.13 1572.53 1473 1570.15 Q1477.09 1559.27 1477.09 1555.37 Q1477.09 1550.76 1473.51 1550.76 Q1471.48 1550.76 1469.65 1551.6 Q1467.81 1552.44 1466.62 1553.6 Q1465.43 1554.76 1464.5 1556.08 Q1463.56 1557.4 1463.14 1558.27 Q1462.76 1559.14 1462.66 1559.52 L1458.7 1575.43 Q1458.38 1576.79 1458.15 1577.43 Q1457.93 1578.07 1457.31 1578.62 Q1456.7 1579.2 1455.74 1579.2 Q1454.93 1579.2 1454.35 1578.72 Q1453.8 1578.24 1453.8 1577.4 Q1453.8 1577.27 1453.96 1576.59 Q1454.13 1575.92 1454.35 1574.98 Q1454.58 1574.05 1454.67 1573.5 Q1455.83 1569.12 1455.99 1568.51 L1457.83 1560.84 Q1458.83 1557.04 1458.83 1555.37 Q1458.83 1550.76 1455.25 1550.76 Q1453.48 1550.76 1451.81 1551.44 Q1450.16 1552.08 1449.04 1552.99 Q1447.91 1553.89 1446.88 1555.14 Q1445.88 1556.37 1445.37 1557.2 Q1444.88 1558.01 1444.5 1558.82 L1443.66 1562.1 Q1443.47 1563 1442.53 1566.51 L1441.08 1572.47 Q1440.05 1576.91 1439.83 1577.33 Q1439.5 1578.24 1438.8 1578.72 Q1438.09 1579.2 1437.38 1579.2 Q1436.57 1579.2 1436.03 1578.72 Q1435.48 1578.24 1435.48 1577.4 Q1435.48 1577.27 1435.58 1576.79 Q1435.67 1576.3 1435.83 1575.63 Q1435.99 1574.95 1436.06 1574.56 L1439.89 1559.33 Q1440.6 1556.56 1440.76 1555.69 Q1440.95 1554.79 1440.95 1553.79 Q1440.95 1550.76 1438.89 1550.76 Q1437.22 1550.76 1436.12 1552.76 Q1435.03 1554.76 1434.09 1558.62 Q1433.8 1559.68 1433.61 1559.91 Q1433.45 1560.14 1432.97 1560.14 Q1432.16 1560.1 1432.16 1559.46 Q1432.16 1559.3 1432.42 1558.27 Q1432.68 1557.24 1433.16 1555.69 Q1433.68 1554.11 1434.22 1553.08 Q1434.54 1552.41 1434.83 1551.96 Q1435.12 1551.5 1435.7 1550.8 Q1436.28 1550.09 1437.15 1549.7 Q1438.02 1549.31 1439.09 1549.31 Q1441.44 1549.31 1443.18 1550.83 Q1444.95 1552.34 1445.17 1555.05 Q1449.46 1549.31 1455.45 1549.31 Q1458.83 1549.31 1460.86 1551.02 Q1462.76 1552.66 1462.98 1555.69 Q1467.43 1549.31 1473.74 1549.31 Q1477.38 1549.31 1479.34 1551.21 Q1481.31 1553.08 1481.31 1556.37 Q1481.31 1558.07 1480.44 1561.33 Q1479.57 1564.55 1478.99 1566.16 Q1478.41 1567.77 1477.28 1570.86 Q1476.09 1573.82 1476.09 1575.56 Q1476.09 1576.69 1476.48 1577.2 Q1476.86 1577.72 1477.7 1577.72 Q1478.99 1577.72 1480.12 1576.98 Q1481.24 1576.21 1482.05 1574.95 Q1482.89 1573.66 1483.43 1572.37 Q1483.98 1571.05 1484.4 1569.57 Q1484.66 1568.77 1484.79 1568.57 Q1484.95 1568.38 1485.4 1568.38 Q1486.2 1568.38 1486.2 1569.02 Z" fill="#000000" fill-rule="evenodd" fill-opacity="1" /><path clip-path="url(#clip470)" d="M1489.51 1529 L1494.61 1529 Q1499.38 1536.51 1501.74 1543.7 Q1504.12 1550.9 1504.12 1557.99 Q1504.12 1565.12 1501.74 1572.35 Q1499.38 1579.57 1494.61 1587.05 L1489.51 1587.05 Q1493.75 1579.77 1495.82 1572.57 Q1497.92 1565.35 1497.92 1557.99 Q1497.92 1550.64 1495.82 1543.48 Q1493.75 1536.32 1489.51 1529 Z" fill="#000000" fill-rule="evenodd" fill-opacity="1" /><polyline clip-path="url(#clip472)" style="stroke:#000000; stroke-linecap:butt; stroke-linejoin:round; stroke-width:2; stroke-opacity:0.1; fill:none" points="
  252.764,1423.18 2352.76,1423.18 
  "/>
<polyline clip-path="url(#clip472)" style="stroke:#000000; stroke-linecap:butt; stroke-linejoin:round; stroke-width:2; stroke-opacity:0.1; fill:none" points="
  252.764,1098.25 2352.76,1098.25 
  "/>
<polyline clip-path="url(#clip472)" style="stroke:#000000; stroke-linecap:butt; stroke-linejoin:round; stroke-width:2; stroke-opacity:0.1; fill:none" points="
  252.764,773.326 2352.76,773.326 
  "/>
<polyline clip-path="url(#clip472)" style="stroke:#000000; stroke-linecap:butt; stroke-linejoin:round; stroke-width:2; stroke-opacity:0.1; fill:none" points="
  252.764,448.399 2352.76,448.399 
  "/>
<polyline clip-path="url(#clip472)" style="stroke:#000000; stroke-linecap:butt; stroke-linejoin:round; stroke-width:2; stroke-opacity:0.1; fill:none" points="
  252.764,123.472 2352.76,123.472 
  "/>
<polyline clip-path="url(#clip470)" style="stroke:#000000; stroke-linecap:butt; stroke-linejoin:round; stroke-width:4; stroke-opacity:1; fill:none" points="
  252.764,1423.18 252.764,123.472 
  "/>
<polyline clip-path="url(#clip470)" style="stroke:#000000; stroke-linecap:butt; stroke-linejoin:round; stroke-width:4; stroke-opacity:1; fill:none" points="
  252.764,1423.18 271.662,1423.18 
  "/>
<polyline clip-path="url(#clip470)" style="stroke:#000000; stroke-linecap:butt; stroke-linejoin:round; stroke-width:4; stroke-opacity:1; fill:none" points="
  252.764,1098.25 271.662,1098.25 
  "/>
<polyline clip-path="url(#clip470)" style="stroke:#000000; stroke-linecap:butt; stroke-linejoin:round; stroke-width:4; stroke-opacity:1; fill:none" points="
  252.764,773.326 271.662,773.326 
  "/>
<polyline clip-path="url(#clip470)" style="stroke:#000000; stroke-linecap:butt; stroke-linejoin:round; stroke-width:4; stroke-opacity:1; fill:none" points="
  252.764,448.399 271.662,448.399 
  "/>
<polyline clip-path="url(#clip470)" style="stroke:#000000; stroke-linecap:butt; stroke-linejoin:round; stroke-width:4; stroke-opacity:1; fill:none" points="
  252.764,123.472 271.662,123.472 
  "/>
<path clip-path="url(#clip470)" d="M115.402 1442.97 L123.04 1442.97 L123.04 1416.61 L114.73 1418.27 L114.73 1414.01 L122.994 1412.35 L127.67 1412.35 L127.67 1442.97 L135.309 1442.97 L135.309 1446.91 L115.402 1446.91 L115.402 1442.97 Z" fill="#000000" fill-rule="evenodd" fill-opacity="1" /><path clip-path="url(#clip470)" d="M154.753 1415.43 Q151.142 1415.43 149.313 1418.99 Q147.508 1422.53 147.508 1429.66 Q147.508 1436.77 149.313 1440.33 Q151.142 1443.88 154.753 1443.88 Q158.388 1443.88 160.193 1440.33 Q162.022 1436.77 162.022 1429.66 Q162.022 1422.53 160.193 1418.99 Q158.388 1415.43 154.753 1415.43 M154.753 1411.72 Q160.563 1411.72 163.619 1416.33 Q166.698 1420.91 166.698 1429.66 Q166.698 1438.39 163.619 1443 Q160.563 1447.58 154.753 1447.58 Q148.943 1447.58 145.864 1443 Q142.809 1438.39 142.809 1429.66 Q142.809 1420.91 145.864 1416.33 Q148.943 1411.72 154.753 1411.72 Z" fill="#000000" fill-rule="evenodd" fill-opacity="1" /><path clip-path="url(#clip470)" d="M166.698 1405.82 L190.809 1405.82 L190.809 1409.02 L166.698 1409.02 L166.698 1405.82 Z" fill="#000000" fill-rule="evenodd" fill-opacity="1" /><path clip-path="url(#clip470)" d="M207.134 1406.16 Q204.426 1406.16 202.865 1407.61 Q201.323 1409.06 201.323 1411.6 Q201.323 1414.14 202.865 1415.59 Q204.426 1417.03 207.134 1417.03 Q209.843 1417.03 211.404 1415.59 Q212.965 1414.12 212.965 1411.6 Q212.965 1409.06 211.404 1407.61 Q209.861 1406.16 207.134 1406.16 M203.335 1404.54 Q200.89 1403.94 199.517 1402.27 Q198.163 1400.6 198.163 1398.19 Q198.163 1394.82 200.552 1392.87 Q202.959 1390.91 207.134 1390.91 Q211.329 1390.91 213.717 1392.87 Q216.106 1394.82 216.106 1398.19 Q216.106 1400.6 214.733 1402.27 Q213.379 1403.94 210.952 1404.54 Q213.698 1405.18 215.222 1407.05 Q216.764 1408.91 216.764 1411.6 Q216.764 1415.68 214.263 1417.86 Q211.78 1420.04 207.134 1420.04 Q202.489 1420.04 199.987 1417.86 Q197.505 1415.68 197.505 1411.6 Q197.505 1408.91 199.047 1407.05 Q200.589 1405.18 203.335 1404.54 M201.943 1398.55 Q201.943 1400.73 203.298 1401.95 Q204.671 1403.17 207.134 1403.17 Q209.579 1403.17 210.952 1401.95 Q212.344 1400.73 212.344 1398.55 Q212.344 1396.36 210.952 1395.14 Q209.579 1393.92 207.134 1393.92 Q204.671 1393.92 203.298 1395.14 Q201.943 1396.36 201.943 1398.55 Z" fill="#000000" fill-rule="evenodd" fill-opacity="1" /><path clip-path="url(#clip470)" d="M115.195 1118.05 L122.834 1118.05 L122.834 1091.68 L114.523 1093.35 L114.523 1089.09 L122.787 1087.42 L127.463 1087.42 L127.463 1118.05 L135.102 1118.05 L135.102 1121.98 L115.195 1121.98 L115.195 1118.05 Z" fill="#000000" fill-rule="evenodd" fill-opacity="1" /><path clip-path="url(#clip470)" d="M154.546 1090.5 Q150.935 1090.5 149.107 1094.06 Q147.301 1097.61 147.301 1104.74 Q147.301 1111.84 149.107 1115.41 Q150.935 1118.95 154.546 1118.95 Q158.181 1118.95 159.986 1115.41 Q161.815 1111.84 161.815 1104.74 Q161.815 1097.61 159.986 1094.06 Q158.181 1090.5 154.546 1090.5 M154.546 1086.8 Q160.357 1086.8 163.412 1091.4 Q166.491 1095.99 166.491 1104.74 Q166.491 1113.46 163.412 1118.07 Q160.357 1122.65 154.546 1122.65 Q148.736 1122.65 145.658 1118.07 Q142.602 1113.46 142.602 1104.74 Q142.602 1095.99 145.658 1091.4 Q148.736 1086.8 154.546 1086.8 Z" fill="#000000" fill-rule="evenodd" fill-opacity="1" /><path clip-path="url(#clip470)" d="M166.491 1080.9 L190.602 1080.9 L190.602 1084.09 L166.491 1084.09 L166.491 1080.9 Z" fill="#000000" fill-rule="evenodd" fill-opacity="1" /><path clip-path="url(#clip470)" d="M207.398 1079.02 Q204.84 1079.02 203.335 1080.77 Q201.849 1082.51 201.849 1085.56 Q201.849 1088.59 203.335 1090.36 Q204.84 1092.11 207.398 1092.11 Q209.956 1092.11 211.441 1090.36 Q212.946 1088.59 212.946 1085.56 Q212.946 1082.51 211.441 1080.77 Q209.956 1079.02 207.398 1079.02 M214.94 1067.11 L214.94 1070.57 Q213.51 1069.89 212.043 1069.54 Q210.595 1069.18 209.166 1069.18 Q205.404 1069.18 203.41 1071.72 Q201.436 1074.26 201.153 1079.39 Q202.263 1077.76 203.937 1076.89 Q205.611 1076.01 207.623 1076.01 Q211.855 1076.01 214.3 1078.58 Q216.764 1081.14 216.764 1085.56 Q216.764 1089.89 214.206 1092.5 Q211.648 1095.12 207.398 1095.12 Q202.526 1095.12 199.95 1091.39 Q197.373 1087.65 197.373 1080.56 Q197.373 1073.9 200.533 1069.95 Q203.693 1065.98 209.015 1065.98 Q210.445 1065.98 211.893 1066.26 Q213.36 1066.55 214.94 1067.11 Z" fill="#000000" fill-rule="evenodd" fill-opacity="1" /><path clip-path="url(#clip470)" d="M114.931 793.118 L122.57 793.118 L122.57 766.753 L114.26 768.419 L114.26 764.16 L122.524 762.494 L127.2 762.494 L127.2 793.118 L134.839 793.118 L134.839 797.054 L114.931 797.054 L114.931 793.118 Z" fill="#000000" fill-rule="evenodd" fill-opacity="1" /><path clip-path="url(#clip470)" d="M154.283 765.572 Q150.672 765.572 148.843 769.137 Q147.038 772.679 147.038 779.808 Q147.038 786.915 148.843 790.48 Q150.672 794.021 154.283 794.021 Q157.917 794.021 159.723 790.48 Q161.552 786.915 161.552 779.808 Q161.552 772.679 159.723 769.137 Q157.917 765.572 154.283 765.572 M154.283 761.869 Q160.093 761.869 163.149 766.475 Q166.227 771.058 166.227 779.808 Q166.227 788.535 163.149 793.142 Q160.093 797.725 154.283 797.725 Q148.473 797.725 145.394 793.142 Q142.339 788.535 142.339 779.808 Q142.339 771.058 145.394 766.475 Q148.473 761.869 154.283 761.869 Z" fill="#000000" fill-rule="evenodd" fill-opacity="1" /><path clip-path="url(#clip470)" d="M166.227 755.97 L190.339 755.97 L190.339 759.167 L166.227 759.167 L166.227 755.97 Z" fill="#000000" fill-rule="evenodd" fill-opacity="1" /><path clip-path="url(#clip470)" d="M208.978 744.873 L199.386 759.863 L208.978 759.863 L208.978 744.873 M207.981 741.563 L212.758 741.563 L212.758 759.863 L216.764 759.863 L216.764 763.023 L212.758 763.023 L212.758 769.643 L208.978 769.643 L208.978 763.023 L196.301 763.023 L196.301 759.355 L207.981 741.563 Z" fill="#000000" fill-rule="evenodd" fill-opacity="1" /><path clip-path="url(#clip470)" d="M116.624 468.191 L124.263 468.191 L124.263 441.826 L115.953 443.493 L115.953 439.233 L124.217 437.567 L128.893 437.567 L128.893 468.191 L136.531 468.191 L136.531 472.127 L116.624 472.127 L116.624 468.191 Z" fill="#000000" fill-rule="evenodd" fill-opacity="1" /><path clip-path="url(#clip470)" d="M155.976 440.645 Q152.365 440.645 150.536 444.21 Q148.73 447.752 148.73 454.881 Q148.73 461.988 150.536 465.553 Q152.365 469.094 155.976 469.094 Q159.61 469.094 161.416 465.553 Q163.244 461.988 163.244 454.881 Q163.244 447.752 161.416 444.21 Q159.61 440.645 155.976 440.645 M155.976 436.942 Q161.786 436.942 164.841 441.548 Q167.92 446.131 167.92 454.881 Q167.92 463.608 164.841 468.215 Q161.786 472.798 155.976 472.798 Q150.166 472.798 147.087 468.215 Q144.031 463.608 144.031 454.881 Q144.031 446.131 147.087 441.548 Q150.166 436.942 155.976 436.942 Z" fill="#000000" fill-rule="evenodd" fill-opacity="1" /><path clip-path="url(#clip470)" d="M167.92 431.043 L192.032 431.043 L192.032 434.24 L167.92 434.24 L167.92 431.043 Z" fill="#000000" fill-rule="evenodd" fill-opacity="1" /><path clip-path="url(#clip470)" d="M203.504 441.519 L216.764 441.519 L216.764 444.716 L198.934 444.716 L198.934 441.519 Q201.097 439.281 204.821 435.519 Q208.564 431.739 209.523 430.648 Q211.347 428.598 212.062 427.187 Q212.796 425.758 212.796 424.385 Q212.796 422.147 211.216 420.736 Q209.655 419.326 207.134 419.326 Q205.348 419.326 203.354 419.946 Q201.379 420.567 199.122 421.827 L199.122 417.99 Q201.417 417.069 203.41 416.599 Q205.404 416.128 207.059 416.128 Q211.423 416.128 214.018 418.31 Q216.613 420.492 216.613 424.141 Q216.613 425.871 215.955 427.432 Q215.316 428.974 213.604 431.081 Q213.134 431.626 210.614 434.24 Q208.094 436.836 203.504 441.519 Z" fill="#000000" fill-rule="evenodd" fill-opacity="1" /><path clip-path="url(#clip470)" d="M146.058 143.265 L153.697 143.265 L153.697 116.899 L145.387 118.566 L145.387 114.306 L153.651 112.64 L158.327 112.64 L158.327 143.265 L165.966 143.265 L165.966 147.2 L146.058 147.2 L146.058 143.265 Z" fill="#000000" fill-rule="evenodd" fill-opacity="1" /><path clip-path="url(#clip470)" d="M185.41 115.718 Q181.799 115.718 179.97 119.283 Q178.165 122.825 178.165 129.954 Q178.165 137.061 179.97 140.626 Q181.799 144.167 185.41 144.167 Q189.044 144.167 190.85 140.626 Q192.678 137.061 192.678 129.954 Q192.678 122.825 190.85 119.283 Q189.044 115.718 185.41 115.718 M185.41 112.015 Q191.22 112.015 194.276 116.621 Q197.354 121.204 197.354 129.954 Q197.354 138.681 194.276 143.288 Q191.22 147.871 185.41 147.871 Q179.6 147.871 176.521 143.288 Q173.466 138.681 173.466 129.954 Q173.466 121.204 176.521 116.621 Q179.6 112.015 185.41 112.015 Z" fill="#000000" fill-rule="evenodd" fill-opacity="1" /><path clip-path="url(#clip470)" d="M207.059 94.2108 Q204.125 94.2108 202.639 97.1072 Q201.172 99.9847 201.172 105.778 Q201.172 111.552 202.639 114.448 Q204.125 117.326 207.059 117.326 Q210.012 117.326 211.479 114.448 Q212.965 111.552 212.965 105.778 Q212.965 99.9847 211.479 97.1072 Q210.012 94.2108 207.059 94.2108 M207.059 91.2015 Q211.78 91.2015 214.263 94.9443 Q216.764 98.6682 216.764 105.778 Q216.764 112.868 214.263 116.611 Q211.78 120.335 207.059 120.335 Q202.338 120.335 199.837 116.611 Q197.354 112.868 197.354 105.778 Q197.354 98.6682 199.837 94.9443 Q202.338 91.2015 207.059 91.2015 Z" fill="#000000" fill-rule="evenodd" fill-opacity="1" /><path clip-path="url(#clip470)" d="M41.7242 1026.35 Q42.4244 1024.28 44.7161 1022.34 Q47.0077 1020.36 51.0181 1018.39 L64.0042 1011.86 L64.0042 1018.77 L51.8138 1024.85 Q47.0395 1027.21 45.48 1029.43 Q43.9204 1031.63 43.9204 1035.45 L43.9204 1042.45 L64.0042 1042.45 L64.0042 1048.88 L16.4842 1048.88 L16.4842 1034.37 Q16.4842 1026.22 19.8898 1022.21 Q23.2955 1018.2 30.1704 1018.2 Q34.6582 1018.2 37.6183 1020.3 Q40.5784 1022.37 41.7242 1026.35 M21.7677 1042.45 L38.6368 1042.45 L38.6368 1034.37 Q38.6368 1029.72 36.5043 1027.37 Q34.34 1024.98 30.1704 1024.98 Q26.0009 1024.98 23.9002 1027.37 Q21.7677 1029.72 21.7677 1034.37 L21.7677 1042.45 Z" fill="#000000" fill-rule="evenodd" fill-opacity="1" /><path clip-path="url(#clip470)" d="M46.0847 989.076 Q46.0847 996.173 47.7079 998.911 Q49.3312 1001.65 53.2461 1001.65 Q56.3653 1001.65 58.2114 999.611 Q60.0256 997.542 60.0256 994.009 Q60.0256 989.139 56.5881 986.211 Q53.1188 983.251 47.3897 983.251 L46.0847 983.251 L46.0847 989.076 M43.6657 977.395 L64.0042 977.395 L64.0042 983.251 L58.5933 983.251 Q61.8398 985.256 63.3994 988.248 Q64.9272 991.24 64.9272 995.569 Q64.9272 1001.04 61.8716 1004.29 Q58.7843 1007.5 53.6281 1007.5 Q47.6125 1007.5 44.5569 1003.49 Q41.5014 999.452 41.5014 991.463 L41.5014 983.251 L40.9285 983.251 Q36.8862 983.251 34.6901 985.925 Q32.4621 988.566 32.4621 993.373 Q32.4621 996.428 33.1941 999.324 Q33.9262 1002.22 35.3903 1004.89 L29.9795 1004.89 Q28.7381 1001.68 28.1334 998.656 Q27.4968 995.632 27.4968 992.768 Q27.4968 985.033 31.5072 981.214 Q35.5176 977.395 43.6657 977.395 Z" fill="#000000" fill-rule="evenodd" fill-opacity="1" /><path clip-path="url(#clip470)" d="M18.2347 959.539 L28.3562 959.539 L28.3562 947.476 L32.9077 947.476 L32.9077 959.539 L52.2594 959.539 Q56.6199 959.539 57.8613 958.361 Q59.1026 957.152 59.1026 953.491 L59.1026 947.476 L64.0042 947.476 L64.0042 953.491 Q64.0042 960.271 61.4897 962.849 Q58.9434 965.427 52.2594 965.427 L32.9077 965.427 L32.9077 969.724 L28.3562 969.724 L28.3562 965.427 L18.2347 965.427 L18.2347 959.539 Z" fill="#000000" fill-rule="evenodd" fill-opacity="1" /><path clip-path="url(#clip470)" d="M44.7161 909.282 L47.5806 909.282 L47.5806 936.209 Q53.6281 935.827 56.8109 932.58 Q59.9619 929.302 59.9619 923.477 Q59.9619 920.103 59.1344 916.952 Q58.3069 913.769 56.6518 910.65 L62.1899 910.65 Q63.5267 913.801 64.227 917.111 Q64.9272 920.422 64.9272 923.827 Q64.9272 932.357 59.9619 937.354 Q54.9967 942.32 46.5303 942.32 Q37.7774 942.32 32.6531 937.609 Q27.4968 932.867 27.4968 924.846 Q27.4968 917.652 32.1438 913.483 Q36.7589 909.282 44.7161 909.282 M42.9973 915.138 Q38.1912 915.202 35.3266 917.843 Q32.4621 920.453 32.4621 924.782 Q32.4621 929.684 35.2312 932.644 Q38.0002 935.572 43.0292 936.018 L42.9973 915.138 Z" fill="#000000" fill-rule="evenodd" fill-opacity="1" /><path clip-path="url(#clip470)" d="M32.4621 865.135 Q32.4621 869.846 36.1542 872.583 Q39.8145 875.321 46.212 875.321 Q52.6095 875.321 56.3017 872.615 Q59.9619 869.878 59.9619 865.135 Q59.9619 860.457 56.2698 857.719 Q52.5777 854.982 46.212 854.982 Q39.8781 854.982 36.186 857.719 Q32.4621 860.457 32.4621 865.135 M27.4968 865.135 Q27.4968 857.497 32.4621 853.136 Q37.4273 848.776 46.212 848.776 Q54.9649 848.776 59.9619 853.136 Q64.9272 857.497 64.9272 865.135 Q64.9272 872.806 59.9619 877.167 Q54.9649 881.495 46.212 881.495 Q37.4273 881.495 32.4621 877.167 Q27.4968 872.806 27.4968 865.135 Z" fill="#000000" fill-rule="evenodd" fill-opacity="1" /><path clip-path="url(#clip470)" d="M14.479 821.021 L19.3487 821.021 L19.3487 826.623 Q19.3487 829.774 20.6219 831.015 Q21.895 832.225 25.2052 832.225 L28.3562 832.225 L28.3562 822.581 L32.9077 822.581 L32.9077 832.225 L64.0042 832.225 L64.0042 838.113 L32.9077 838.113 L32.9077 843.715 L28.3562 843.715 L28.3562 838.113 L25.8736 838.113 Q19.9216 838.113 17.2162 835.344 Q14.479 832.575 14.479 826.559 L14.479 821.021 Z" fill="#000000" fill-rule="evenodd" fill-opacity="1" /><path clip-path="url(#clip470)" d="M20.1444 759.56 L26.9239 759.56 Q23.9002 762.807 22.4043 766.499 Q20.9083 770.159 20.9083 774.297 Q20.9083 782.445 25.9054 786.774 Q30.8707 791.102 40.2919 791.102 Q49.6813 791.102 54.6784 786.774 Q59.6436 782.445 59.6436 774.297 Q59.6436 770.159 58.1477 766.499 Q56.6518 762.807 53.6281 759.56 L60.3439 759.56 Q62.6355 762.934 63.7814 766.722 Q64.9272 770.477 64.9272 774.679 Q64.9272 785.469 58.3387 791.675 Q51.7183 797.882 40.2919 797.882 Q28.8336 797.882 22.2451 791.675 Q15.6248 785.469 15.6248 774.679 Q15.6248 770.414 16.7706 766.658 Q17.8846 762.87 20.1444 759.56 Z" fill="#000000" fill-rule="evenodd" fill-opacity="1" /><path clip-path="url(#clip470)" d="M32.4621 736.071 Q32.4621 740.781 36.1542 743.519 Q39.8145 746.256 46.212 746.256 Q52.6095 746.256 56.3017 743.55 Q59.9619 740.813 59.9619 736.071 Q59.9619 731.392 56.2698 728.655 Q52.5777 725.917 46.212 725.917 Q39.8781 725.917 36.186 728.655 Q32.4621 731.392 32.4621 736.071 M27.4968 736.071 Q27.4968 728.432 32.4621 724.071 Q37.4273 719.711 46.212 719.711 Q54.9649 719.711 59.9619 724.071 Q64.9272 728.432 64.9272 736.071 Q64.9272 743.741 59.9619 748.102 Q54.9649 752.431 46.212 752.431 Q37.4273 752.431 32.4621 748.102 Q27.4968 743.741 27.4968 736.071 Z" fill="#000000" fill-rule="evenodd" fill-opacity="1" /><path clip-path="url(#clip470)" d="M14.479 710.003 L14.479 704.147 L64.0042 704.147 L64.0042 710.003 L14.479 710.003 Z" fill="#000000" fill-rule="evenodd" fill-opacity="1" /><path clip-path="url(#clip470)" d="M14.479 691.893 L14.479 686.036 L64.0042 686.036 L64.0042 691.893 L14.479 691.893 Z" fill="#000000" fill-rule="evenodd" fill-opacity="1" /><path clip-path="url(#clip470)" d="M28.3562 673.782 L28.3562 667.926 L64.0042 667.926 L64.0042 673.782 L28.3562 673.782 M14.479 673.782 L14.479 667.926 L21.895 667.926 L21.895 673.782 L14.479 673.782 Z" fill="#000000" fill-rule="evenodd" fill-opacity="1" /><path clip-path="url(#clip470)" d="M29.4065 632.946 L34.9447 632.946 Q33.6716 635.429 33.035 638.102 Q32.3984 640.776 32.3984 643.641 Q32.3984 648.001 33.7352 650.197 Q35.072 652.362 37.7456 652.362 Q39.7826 652.362 40.9603 650.802 Q42.1061 649.242 43.1565 644.532 L43.6021 642.527 Q44.9389 636.288 47.3897 633.678 Q49.8086 631.037 54.1691 631.037 Q59.1344 631.037 62.0308 634.983 Q64.9272 638.898 64.9272 645.773 Q64.9272 648.638 64.3543 651.757 Q63.8132 654.844 62.6992 658.282 L56.6518 658.282 Q58.3387 655.035 59.198 651.884 Q60.0256 648.733 60.0256 645.646 Q60.0256 641.508 58.6251 639.28 Q57.1929 637.052 54.6147 637.052 Q52.2276 637.052 50.9545 638.675 Q49.6813 640.267 48.5037 645.709 L48.0262 647.747 Q46.8804 653.189 44.5251 655.608 Q42.138 658.027 38.0002 658.027 Q32.9713 658.027 30.2341 654.462 Q27.4968 650.898 27.4968 644.341 Q27.4968 641.094 27.9743 638.23 Q28.4517 635.365 29.4065 632.946 Z" fill="#000000" fill-rule="evenodd" fill-opacity="1" /><path clip-path="url(#clip470)" d="M28.3562 621.711 L28.3562 615.854 L64.0042 615.854 L64.0042 621.711 L28.3562 621.711 M14.479 621.711 L14.479 615.854 L21.895 615.854 L21.895 621.711 L14.479 621.711 Z" fill="#000000" fill-rule="evenodd" fill-opacity="1" /><path clip-path="url(#clip470)" d="M32.4621 589.787 Q32.4621 594.497 36.1542 597.235 Q39.8145 599.972 46.212 599.972 Q52.6095 599.972 56.3017 597.266 Q59.9619 594.529 59.9619 589.787 Q59.9619 585.108 56.2698 582.371 Q52.5777 579.633 46.212 579.633 Q39.8781 579.633 36.186 582.371 Q32.4621 585.108 32.4621 589.787 M27.4968 589.787 Q27.4968 582.148 32.4621 577.787 Q37.4273 573.427 46.212 573.427 Q54.9649 573.427 59.9619 577.787 Q64.9272 582.148 64.9272 589.787 Q64.9272 597.457 59.9619 601.818 Q54.9649 606.147 46.212 606.147 Q37.4273 606.147 32.4621 601.818 Q27.4968 597.457 27.4968 589.787 Z" fill="#000000" fill-rule="evenodd" fill-opacity="1" /><path clip-path="url(#clip470)" d="M42.4881 534.087 L64.0042 534.087 L64.0042 539.943 L42.679 539.943 Q37.6183 539.943 35.1038 541.917 Q32.5894 543.89 32.5894 547.837 Q32.5894 552.579 35.6131 555.316 Q38.6368 558.054 43.8567 558.054 L64.0042 558.054 L64.0042 563.942 L28.3562 563.942 L28.3562 558.054 L33.8944 558.054 Q30.6797 555.953 29.0883 553.12 Q27.4968 550.256 27.4968 546.532 Q27.4968 540.389 31.3163 537.238 Q35.1038 534.087 42.4881 534.087 Z" fill="#000000" fill-rule="evenodd" fill-opacity="1" /><path clip-path="url(#clip470)" d="M29.4065 499.68 L34.9447 499.68 Q33.6716 502.163 33.035 504.836 Q32.3984 507.51 32.3984 510.375 Q32.3984 514.735 33.7352 516.931 Q35.072 519.096 37.7456 519.096 Q39.7826 519.096 40.9603 517.536 Q42.1061 515.976 43.1565 511.266 L43.6021 509.261 Q44.9389 503.022 47.3897 500.412 Q49.8086 497.77 54.1691 497.77 Q59.1344 497.77 62.0308 501.717 Q64.9272 505.632 64.9272 512.507 Q64.9272 515.372 64.3543 518.491 Q63.8132 521.578 62.6992 525.016 L56.6518 525.016 Q58.3387 521.769 59.198 518.618 Q60.0256 515.467 60.0256 512.38 Q60.0256 508.242 58.6251 506.014 Q57.1929 503.786 54.6147 503.786 Q52.2276 503.786 50.9545 505.409 Q49.6813 507.001 48.5037 512.443 L48.0262 514.48 Q46.8804 519.923 44.5251 522.342 Q42.138 524.761 38.0002 524.761 Q32.9713 524.761 30.2341 521.196 Q27.4968 517.631 27.4968 511.075 Q27.4968 507.828 27.9743 504.964 Q28.4517 502.099 29.4065 499.68 Z" fill="#000000" fill-rule="evenodd" fill-opacity="1" /><path clip-path="url(#clip470)" d="M561.262 44.2197 Q563.895 45.1109 566.366 48.0275 Q568.878 50.9442 571.389 56.0483 L579.694 72.576 L570.903 72.576 L563.166 57.061 Q560.168 50.9847 557.333 48.9997 Q554.538 47.0148 549.677 47.0148 L540.765 47.0148 L540.765 72.576 L532.582 72.576 L532.582 12.096 L551.054 12.096 Q561.424 12.096 566.528 16.4305 Q571.632 20.7649 571.632 29.5149 Q571.632 35.2267 568.959 38.994 Q566.326 42.7613 561.262 44.2197 M540.765 18.8205 L540.765 40.2903 L551.054 40.2903 Q556.968 40.2903 559.966 37.5762 Q563.004 34.8216 563.004 29.5149 Q563.004 24.2082 559.966 21.5346 Q556.968 18.8205 551.054 18.8205 L540.765 18.8205 Z" fill="#000000" fill-rule="evenodd" fill-opacity="1" /><path clip-path="url(#clip470)" d="M608.698 49.7694 Q599.665 49.7694 596.181 51.8354 Q592.697 53.9013 592.697 58.8839 Q592.697 62.8538 595.29 65.2034 Q597.923 67.5124 602.419 67.5124 Q608.617 67.5124 612.344 63.1374 Q616.111 58.7219 616.111 51.4303 L616.111 49.7694 L608.698 49.7694 M623.565 46.6907 L623.565 72.576 L616.111 72.576 L616.111 65.6895 Q613.559 69.8214 609.751 71.8063 Q605.944 73.7508 600.434 73.7508 Q593.467 73.7508 589.335 69.8619 Q585.244 65.9325 585.244 59.3701 Q585.244 51.7138 590.348 47.825 Q595.492 43.9361 605.66 43.9361 L616.111 43.9361 L616.111 43.2069 Q616.111 38.0623 612.709 35.2672 Q609.346 32.4315 603.23 32.4315 Q599.341 32.4315 595.654 33.3632 Q591.968 34.295 588.565 36.1584 L588.565 29.2718 Q592.657 27.692 596.505 26.9223 Q600.353 26.1121 603.999 26.1121 Q613.843 26.1121 618.704 31.2163 Q623.565 36.3204 623.565 46.6907 Z" fill="#000000" fill-rule="evenodd" fill-opacity="1" /><path clip-path="url(#clip470)" d="M646.291 14.324 L646.291 27.2059 L661.644 27.2059 L661.644 32.9987 L646.291 32.9987 L646.291 57.6282 Q646.291 63.1779 647.789 64.7578 Q649.329 66.3376 653.987 66.3376 L661.644 66.3376 L661.644 72.576 L653.987 72.576 Q645.359 72.576 642.078 69.3758 Q638.796 66.1351 638.796 57.6282 L638.796 32.9987 L633.328 32.9987 L633.328 27.2059 L638.796 27.2059 L638.796 14.324 L646.291 14.324 Z" fill="#000000" fill-rule="evenodd" fill-opacity="1" /><path clip-path="url(#clip470)" d="M710.254 48.0275 L710.254 51.6733 L675.984 51.6733 Q676.47 59.3701 680.602 63.421 Q684.774 67.4314 692.187 67.4314 Q696.481 67.4314 700.492 66.3781 Q704.543 65.3249 708.513 63.2184 L708.513 70.267 Q704.502 71.9684 700.289 72.8596 Q696.076 73.7508 691.742 73.7508 Q680.885 73.7508 674.525 67.4314 Q668.206 61.1119 668.206 50.3365 Q668.206 39.1965 674.201 32.6746 Q680.237 26.1121 690.445 26.1121 Q699.601 26.1121 704.907 32.0264 Q710.254 37.9003 710.254 48.0275 M702.801 45.84 Q702.72 39.7232 699.357 36.0774 Q696.036 32.4315 690.527 32.4315 Q684.288 32.4315 680.521 35.9558 Q676.794 39.4801 676.227 45.8805 L702.801 45.84 Z" fill="#000000" fill-rule="evenodd" fill-opacity="1" /><path clip-path="url(#clip470)" d="M766.44 32.4315 Q760.445 32.4315 756.961 37.1306 Q753.478 41.7891 753.478 49.9314 Q753.478 58.0738 756.921 62.7728 Q760.405 67.4314 766.44 67.4314 Q772.395 67.4314 775.879 62.7323 Q779.363 58.0333 779.363 49.9314 Q779.363 41.8701 775.879 37.1711 Q772.395 32.4315 766.44 32.4315 M766.44 26.1121 Q776.163 26.1121 781.712 32.4315 Q787.262 38.7509 787.262 49.9314 Q787.262 61.0714 781.712 67.4314 Q776.163 73.7508 766.44 73.7508 Q756.678 73.7508 751.128 67.4314 Q745.619 61.0714 745.619 49.9314 Q745.619 38.7509 751.128 32.4315 Q756.678 26.1121 766.44 26.1121 Z" fill="#000000" fill-rule="evenodd" fill-opacity="1" /><path clip-path="url(#clip470)" d="M822.586 9.54393 L822.586 15.7418 L815.456 15.7418 Q811.446 15.7418 809.866 17.3622 Q808.327 18.9825 808.327 23.1955 L808.327 27.2059 L820.601 27.2059 L820.601 32.9987 L808.327 32.9987 L808.327 72.576 L800.833 72.576 L800.833 32.9987 L793.703 32.9987 L793.703 27.2059 L800.833 27.2059 L800.833 24.0462 Q800.833 16.471 804.357 13.0277 Q807.881 9.54393 815.537 9.54393 L822.586 9.54393 Z" fill="#000000" fill-rule="evenodd" fill-opacity="1" /><path clip-path="url(#clip470)" d="M900.809 16.7545 L900.809 25.383 Q896.677 21.5346 891.978 19.6307 Q887.319 17.7268 882.053 17.7268 Q871.683 17.7268 866.174 24.0867 Q860.664 30.4061 860.664 42.3968 Q860.664 54.3469 866.174 60.7069 Q871.683 67.0263 882.053 67.0263 Q887.319 67.0263 891.978 65.1223 Q896.677 63.2184 900.809 59.3701 L900.809 67.9175 Q896.515 70.8341 891.694 72.2924 Q886.914 73.7508 881.567 73.7508 Q867.835 73.7508 859.935 65.3654 Q852.036 56.9395 852.036 42.3968 Q852.036 27.8135 859.935 19.4281 Q867.835 11.0023 881.567 11.0023 Q886.995 11.0023 891.775 12.4606 Q896.596 13.8784 900.809 16.7545 Z" fill="#000000" fill-rule="evenodd" fill-opacity="1" /><path clip-path="url(#clip470)" d="M930.705 32.4315 Q924.709 32.4315 921.226 37.1306 Q917.742 41.7891 917.742 49.9314 Q917.742 58.0738 921.185 62.7728 Q924.669 67.4314 930.705 67.4314 Q936.659 67.4314 940.143 62.7323 Q943.627 58.0333 943.627 49.9314 Q943.627 41.8701 940.143 37.1711 Q936.659 32.4315 930.705 32.4315 M930.705 26.1121 Q940.427 26.1121 945.977 32.4315 Q951.526 38.7509 951.526 49.9314 Q951.526 61.0714 945.977 67.4314 Q940.427 73.7508 930.705 73.7508 Q920.942 73.7508 915.392 67.4314 Q909.883 61.0714 909.883 49.9314 Q909.883 38.7509 915.392 32.4315 Q920.942 26.1121 930.705 26.1121 Z" fill="#000000" fill-rule="evenodd" fill-opacity="1" /><path clip-path="url(#clip470)" d="M963.882 9.54393 L971.335 9.54393 L971.335 72.576 L963.882 72.576 L963.882 9.54393 Z" fill="#000000" fill-rule="evenodd" fill-opacity="1" /><path clip-path="url(#clip470)" d="M986.931 9.54393 L994.385 9.54393 L994.385 72.576 L986.931 72.576 L986.931 9.54393 Z" fill="#000000" fill-rule="evenodd" fill-opacity="1" /><path clip-path="url(#clip470)" d="M1009.98 27.2059 L1017.43 27.2059 L1017.43 72.576 L1009.98 72.576 L1009.98 27.2059 M1009.98 9.54393 L1017.43 9.54393 L1017.43 18.9825 L1009.98 18.9825 L1009.98 9.54393 Z" fill="#000000" fill-rule="evenodd" fill-opacity="1" /><path clip-path="url(#clip470)" d="M1061.95 28.5427 L1061.95 35.5912 Q1058.79 33.9709 1055.39 33.1607 Q1051.99 32.3505 1048.34 32.3505 Q1042.79 32.3505 1040 34.0519 Q1037.24 35.7533 1037.24 39.156 Q1037.24 41.7486 1039.23 43.2475 Q1041.21 44.7058 1047.21 46.0426 L1049.76 46.6097 Q1057.7 48.3111 1061.02 51.4303 Q1064.38 54.509 1064.38 60.0587 Q1064.38 66.3781 1059.36 70.0644 Q1054.38 73.7508 1045.63 73.7508 Q1041.98 73.7508 1038.01 73.0216 Q1034.08 72.3329 1029.71 70.9151 L1029.71 63.2184 Q1033.84 65.3654 1037.85 66.4591 Q1041.86 67.5124 1045.79 67.5124 Q1051.06 67.5124 1053.89 65.73 Q1056.73 63.9071 1056.73 60.6258 Q1056.73 57.5877 1054.66 55.9673 Q1052.64 54.3469 1045.71 52.8481 L1043.12 52.2405 Q1036.19 50.7821 1033.11 47.7845 Q1030.03 44.7463 1030.03 39.4801 Q1030.03 33.0797 1034.57 29.5959 Q1039.11 26.1121 1047.45 26.1121 Q1051.58 26.1121 1055.23 26.7198 Q1058.88 27.3274 1061.95 28.5427 Z" fill="#000000" fill-rule="evenodd" fill-opacity="1" /><path clip-path="url(#clip470)" d="M1076.25 27.2059 L1083.71 27.2059 L1083.71 72.576 L1076.25 72.576 L1076.25 27.2059 M1076.25 9.54393 L1083.71 9.54393 L1083.71 18.9825 L1076.25 18.9825 L1076.25 9.54393 Z" fill="#000000" fill-rule="evenodd" fill-opacity="1" /><path clip-path="url(#clip470)" d="M1116.88 32.4315 Q1110.89 32.4315 1107.41 37.1306 Q1103.92 41.7891 1103.92 49.9314 Q1103.92 58.0738 1107.36 62.7728 Q1110.85 67.4314 1116.88 67.4314 Q1122.84 67.4314 1126.32 62.7323 Q1129.81 58.0333 1129.81 49.9314 Q1129.81 41.8701 1126.32 37.1711 Q1122.84 32.4315 1116.88 32.4315 M1116.88 26.1121 Q1126.61 26.1121 1132.16 32.4315 Q1137.71 38.7509 1137.71 49.9314 Q1137.71 61.0714 1132.16 67.4314 Q1126.61 73.7508 1116.88 73.7508 Q1107.12 73.7508 1101.57 67.4314 Q1096.06 61.0714 1096.06 49.9314 Q1096.06 38.7509 1101.57 32.4315 Q1107.12 26.1121 1116.88 26.1121 Z" fill="#000000" fill-rule="evenodd" fill-opacity="1" /><path clip-path="url(#clip470)" d="M1187.78 45.1919 L1187.78 72.576 L1180.32 72.576 L1180.32 45.4349 Q1180.32 38.994 1177.81 35.7938 Q1175.3 32.5936 1170.28 32.5936 Q1164.24 32.5936 1160.76 36.4419 Q1157.27 40.2903 1157.27 46.9338 L1157.27 72.576 L1149.78 72.576 L1149.78 27.2059 L1157.27 27.2059 L1157.27 34.2544 Q1159.95 30.163 1163.55 28.1376 Q1167.2 26.1121 1171.94 26.1121 Q1179.75 26.1121 1183.76 30.9732 Q1187.78 35.7938 1187.78 45.1919 Z" fill="#000000" fill-rule="evenodd" fill-opacity="1" /><path clip-path="url(#clip470)" d="M1231.57 28.5427 L1231.57 35.5912 Q1228.41 33.9709 1225 33.1607 Q1221.6 32.3505 1217.95 32.3505 Q1212.4 32.3505 1209.61 34.0519 Q1206.85 35.7533 1206.85 39.156 Q1206.85 41.7486 1208.84 43.2475 Q1210.82 44.7058 1216.82 46.0426 L1219.37 46.6097 Q1227.31 48.3111 1230.63 51.4303 Q1234 54.509 1234 60.0587 Q1234 66.3781 1228.97 70.0644 Q1223.99 73.7508 1215.24 73.7508 Q1211.59 73.7508 1207.62 73.0216 Q1203.7 72.3329 1199.32 70.9151 L1199.32 63.2184 Q1203.45 65.3654 1207.46 66.4591 Q1211.47 67.5124 1215.4 67.5124 Q1220.67 67.5124 1223.5 65.73 Q1226.34 63.9071 1226.34 60.6258 Q1226.34 57.5877 1224.27 55.9673 Q1222.25 54.3469 1215.32 52.8481 L1212.73 52.2405 Q1205.8 50.7821 1202.72 47.7845 Q1199.64 44.7463 1199.64 39.4801 Q1199.64 33.0797 1204.18 29.5959 Q1208.72 26.1121 1217.06 26.1121 Q1221.19 26.1121 1224.84 26.7198 Q1228.49 27.3274 1231.57 28.5427 Z" fill="#000000" fill-rule="evenodd" fill-opacity="1" /><path clip-path="url(#clip470)" d="M1280.74 18.8205 L1280.74 41.5461 L1291.03 41.5461 Q1296.74 41.5461 1299.86 38.5889 Q1302.98 35.6318 1302.98 30.163 Q1302.98 24.7348 1299.86 21.7777 Q1296.74 18.8205 1291.03 18.8205 L1280.74 18.8205 M1272.56 12.096 L1291.03 12.096 Q1301.2 12.096 1306.39 16.714 Q1311.61 21.2916 1311.61 30.163 Q1311.61 39.1155 1306.39 43.6931 Q1301.2 48.2706 1291.03 48.2706 L1280.74 48.2706 L1280.74 72.576 L1272.56 72.576 L1272.56 12.096 Z" fill="#000000" fill-rule="evenodd" fill-opacity="1" /><path clip-path="url(#clip470)" d="M1358.12 48.0275 L1358.12 51.6733 L1323.84 51.6733 Q1324.33 59.3701 1328.46 63.421 Q1332.64 67.4314 1340.05 67.4314 Q1344.34 67.4314 1348.35 66.3781 Q1352.4 65.3249 1356.37 63.2184 L1356.37 70.267 Q1352.36 71.9684 1348.15 72.8596 Q1343.94 73.7508 1339.6 73.7508 Q1328.75 73.7508 1322.39 67.4314 Q1316.07 61.1119 1316.07 50.3365 Q1316.07 39.1965 1322.06 32.6746 Q1328.1 26.1121 1338.31 26.1121 Q1347.46 26.1121 1352.77 32.0264 Q1358.12 37.9003 1358.12 48.0275 M1350.66 45.84 Q1350.58 39.7232 1347.22 36.0774 Q1343.9 32.4315 1338.39 32.4315 Q1332.15 32.4315 1328.38 35.9558 Q1324.66 39.4801 1324.09 45.8805 L1350.66 45.84 Z" fill="#000000" fill-rule="evenodd" fill-opacity="1" /><path clip-path="url(#clip470)" d="M1396.64 34.1734 Q1395.38 33.4443 1393.89 33.1202 Q1392.43 32.7556 1390.64 32.7556 Q1384.32 32.7556 1380.92 36.8875 Q1377.56 40.9789 1377.56 48.6757 L1377.56 72.576 L1370.07 72.576 L1370.07 27.2059 L1377.56 27.2059 L1377.56 34.2544 Q1379.91 30.1225 1383.68 28.1376 Q1387.44 26.1121 1392.83 26.1121 Q1393.6 26.1121 1394.53 26.2337 Q1395.46 26.3147 1396.6 26.5172 L1396.64 34.1734 Z" fill="#000000" fill-rule="evenodd" fill-opacity="1" /><path clip-path="url(#clip470)" d="M1422.85 12.096 L1431.64 12.096 L1448.41 36.9686 L1465.06 12.096 L1473.85 12.096 L1452.46 43.7741 L1452.46 72.576 L1444.24 72.576 L1444.24 43.7741 L1422.85 12.096 Z" fill="#000000" fill-rule="evenodd" fill-opacity="1" /><path clip-path="url(#clip470)" d="M1509.3 48.0275 L1509.3 51.6733 L1475.02 51.6733 Q1475.51 59.3701 1479.64 63.421 Q1483.82 67.4314 1491.23 67.4314 Q1495.52 67.4314 1499.53 66.3781 Q1503.58 65.3249 1507.55 63.2184 L1507.55 70.267 Q1503.54 71.9684 1499.33 72.8596 Q1495.12 73.7508 1490.78 73.7508 Q1479.93 73.7508 1473.57 67.4314 Q1467.25 61.1119 1467.25 50.3365 Q1467.25 39.1965 1473.24 32.6746 Q1479.28 26.1121 1489.49 26.1121 Q1498.64 26.1121 1503.95 32.0264 Q1509.3 37.9003 1509.3 48.0275 M1501.84 45.84 Q1501.76 39.7232 1498.4 36.0774 Q1495.08 32.4315 1489.57 32.4315 Q1483.33 32.4315 1479.56 35.9558 Q1475.83 39.4801 1475.27 45.8805 L1501.84 45.84 Z" fill="#000000" fill-rule="evenodd" fill-opacity="1" /><path clip-path="url(#clip470)" d="M1542.15 49.7694 Q1533.11 49.7694 1529.63 51.8354 Q1526.15 53.9013 1526.15 58.8839 Q1526.15 62.8538 1528.74 65.2034 Q1531.37 67.5124 1535.87 67.5124 Q1542.07 67.5124 1545.79 63.1374 Q1549.56 58.7219 1549.56 51.4303 L1549.56 49.7694 L1542.15 49.7694 M1557.01 46.6907 L1557.01 72.576 L1549.56 72.576 L1549.56 65.6895 Q1547.01 69.8214 1543.2 71.8063 Q1539.39 73.7508 1533.88 73.7508 Q1526.92 73.7508 1522.78 69.8619 Q1518.69 65.9325 1518.69 59.3701 Q1518.69 51.7138 1523.8 47.825 Q1528.94 43.9361 1539.11 43.9361 L1549.56 43.9361 L1549.56 43.2069 Q1549.56 38.0623 1546.16 35.2672 Q1542.8 32.4315 1536.68 32.4315 Q1532.79 32.4315 1529.1 33.3632 Q1525.42 34.295 1522.02 36.1584 L1522.02 29.2718 Q1526.11 27.692 1529.95 26.9223 Q1533.8 26.1121 1537.45 26.1121 Q1547.29 26.1121 1552.15 31.2163 Q1557.01 36.3204 1557.01 46.6907 Z" fill="#000000" fill-rule="evenodd" fill-opacity="1" /><path clip-path="url(#clip470)" d="M1598.66 34.1734 Q1597.4 33.4443 1595.9 33.1202 Q1594.45 32.7556 1592.66 32.7556 Q1586.34 32.7556 1582.94 36.8875 Q1579.58 40.9789 1579.58 48.6757 L1579.58 72.576 L1572.08 72.576 L1572.08 27.2059 L1579.58 27.2059 L1579.58 34.2544 Q1581.93 30.1225 1585.7 28.1376 Q1589.46 26.1121 1594.85 26.1121 Q1595.62 26.1121 1596.55 26.2337 Q1597.48 26.3147 1598.62 26.5172 L1598.66 34.1734 Z" fill="#000000" fill-rule="evenodd" fill-opacity="1" /><path clip-path="url(#clip470)" d="M1665.42 49.9314 Q1665.42 41.7081 1662.01 37.0496 Q1658.65 32.3505 1652.74 32.3505 Q1646.82 32.3505 1643.42 37.0496 Q1640.06 41.7081 1640.06 49.9314 Q1640.06 58.1548 1643.42 62.8538 Q1646.82 67.5124 1652.74 67.5124 Q1658.65 67.5124 1662.01 62.8538 Q1665.42 58.1548 1665.42 49.9314 M1640.06 34.0924 Q1642.41 30.0415 1645.97 28.0971 Q1649.58 26.1121 1654.56 26.1121 Q1662.82 26.1121 1667.97 32.6746 Q1673.15 39.2371 1673.15 49.9314 Q1673.15 60.6258 1667.97 67.1883 Q1662.82 73.7508 1654.56 73.7508 Q1649.58 73.7508 1645.97 71.8063 Q1642.41 69.8214 1640.06 65.7705 L1640.06 72.576 L1632.56 72.576 L1632.56 9.54393 L1640.06 9.54393 L1640.06 34.0924 Z" fill="#000000" fill-rule="evenodd" fill-opacity="1" /><path clip-path="url(#clip470)" d="M1704.39 76.7889 Q1701.23 84.8907 1698.23 87.3618 Q1695.23 89.8329 1690.21 89.8329 L1684.25 89.8329 L1684.25 83.5945 L1688.63 83.5945 Q1691.71 83.5945 1693.41 82.1361 Q1695.11 80.6778 1697.18 75.2496 L1698.51 71.8468 L1680.16 27.2059 L1688.06 27.2059 L1702.24 62.6918 L1716.42 27.2059 L1724.32 27.2059 L1704.39 76.7889 Z" fill="#000000" fill-rule="evenodd" fill-opacity="1" /><path clip-path="url(#clip470)" d="M1781.52 20.1573 L1770.42 50.2555 L1792.66 50.2555 L1781.52 20.1573 M1776.9 12.096 L1786.17 12.096 L1809.22 72.576 L1800.72 72.576 L1795.21 57.061 L1767.95 57.061 L1762.44 72.576 L1753.81 72.576 L1776.9 12.096 Z" fill="#000000" fill-rule="evenodd" fill-opacity="1" /><path clip-path="url(#clip470)" d="M1817.73 9.54393 L1825.18 9.54393 L1825.18 72.576 L1817.73 72.576 L1817.73 9.54393 Z" fill="#000000" fill-rule="evenodd" fill-opacity="1" /><path clip-path="url(#clip470)" d="M1848.15 14.324 L1848.15 27.2059 L1863.51 27.2059 L1863.51 32.9987 L1848.15 32.9987 L1848.15 57.6282 Q1848.15 63.1779 1849.65 64.7578 Q1851.19 66.3376 1855.85 66.3376 L1863.51 66.3376 L1863.51 72.576 L1855.85 72.576 Q1847.22 72.576 1843.94 69.3758 Q1840.66 66.1351 1840.66 57.6282 L1840.66 32.9987 L1835.19 32.9987 L1835.19 27.2059 L1840.66 27.2059 L1840.66 14.324 L1848.15 14.324 Z" fill="#000000" fill-rule="evenodd" fill-opacity="1" /><path clip-path="url(#clip470)" d="M1873.31 27.2059 L1880.76 27.2059 L1880.76 72.576 L1873.31 72.576 L1873.31 27.2059 M1873.31 9.54393 L1880.76 9.54393 L1880.76 18.9825 L1873.31 18.9825 L1873.31 9.54393 Z" fill="#000000" fill-rule="evenodd" fill-opacity="1" /><path clip-path="url(#clip470)" d="M1903.73 14.324 L1903.73 27.2059 L1919.08 27.2059 L1919.08 32.9987 L1903.73 32.9987 L1903.73 57.6282 Q1903.73 63.1779 1905.23 64.7578 Q1906.77 66.3376 1911.43 66.3376 L1919.08 66.3376 L1919.08 72.576 L1911.43 72.576 Q1902.8 72.576 1899.52 69.3758 Q1896.24 66.1351 1896.24 57.6282 L1896.24 32.9987 L1890.77 32.9987 L1890.77 27.2059 L1896.24 27.2059 L1896.24 14.324 L1903.73 14.324 Z" fill="#000000" fill-rule="evenodd" fill-opacity="1" /><path clip-path="url(#clip470)" d="M1928.12 54.671 L1928.12 27.2059 L1935.57 27.2059 L1935.57 54.3874 Q1935.57 60.8284 1938.08 64.0691 Q1940.6 67.2693 1945.62 67.2693 Q1951.65 67.2693 1955.14 63.421 Q1958.66 59.5726 1958.66 52.9291 L1958.66 27.2059 L1966.12 27.2059 L1966.12 72.576 L1958.66 72.576 L1958.66 65.6084 Q1955.95 69.7404 1952.34 71.7658 Q1948.78 73.7508 1944.04 73.7508 Q1936.22 73.7508 1932.17 68.8897 Q1928.12 64.0286 1928.12 54.671 M1946.87 26.1121 L1946.87 26.1121 Z" fill="#000000" fill-rule="evenodd" fill-opacity="1" /><path clip-path="url(#clip470)" d="M2011.32 34.0924 L2011.32 9.54393 L2018.78 9.54393 L2018.78 72.576 L2011.32 72.576 L2011.32 65.7705 Q2008.97 69.8214 2005.37 71.8063 Q2001.8 73.7508 1996.78 73.7508 Q1988.56 73.7508 1983.37 67.1883 Q1978.23 60.6258 1978.23 49.9314 Q1978.23 39.2371 1983.37 32.6746 Q1988.56 26.1121 1996.78 26.1121 Q2001.8 26.1121 2005.37 28.0971 Q2008.97 30.0415 2011.32 34.0924 M1985.92 49.9314 Q1985.92 58.1548 1989.29 62.8538 Q1992.69 67.5124 1998.6 67.5124 Q2004.52 67.5124 2007.92 62.8538 Q2011.32 58.1548 2011.32 49.9314 Q2011.32 41.7081 2007.92 37.0496 Q2004.52 32.3505 1998.6 32.3505 Q1992.69 32.3505 1989.29 37.0496 Q1985.92 41.7081 1985.92 49.9314 Z" fill="#000000" fill-rule="evenodd" fill-opacity="1" /><path clip-path="url(#clip470)" d="M2072.94 48.0275 L2072.94 51.6733 L2038.67 51.6733 Q2039.15 59.3701 2043.29 63.421 Q2047.46 67.4314 2054.87 67.4314 Q2059.17 67.4314 2063.18 66.3781 Q2067.23 65.3249 2071.2 63.2184 L2071.2 70.267 Q2067.19 71.9684 2062.97 72.8596 Q2058.76 73.7508 2054.43 73.7508 Q2043.57 73.7508 2037.21 67.4314 Q2030.89 61.1119 2030.89 50.3365 Q2030.89 39.1965 2036.89 32.6746 Q2042.92 26.1121 2053.13 26.1121 Q2062.28 26.1121 2067.59 32.0264 Q2072.94 37.9003 2072.94 48.0275 M2065.48 45.84 Q2065.4 39.7232 2062.04 36.0774 Q2058.72 32.4315 2053.21 32.4315 Q2046.97 32.4315 2043.2 35.9558 Q2039.48 39.4801 2038.91 45.8805 L2065.48 45.84 Z" fill="#000000" fill-rule="evenodd" fill-opacity="1" /><polyline clip-path="url(#clip472)" style="stroke:#8b0000; stroke-linecap:butt; stroke-linejoin:round; stroke-width:4; stroke-opacity:1; fill:none" points="
  402.682,-35.5116 405.063,-31.9844 
  "/>
<polyline clip-path="url(#clip472)" style="stroke:#8b0000; stroke-linecap:butt; stroke-linejoin:round; stroke-width:4; stroke-opacity:1; fill:none" points="
  507.453,70.1069 509.834,-26.026 
  "/>
<polyline clip-path="url(#clip472)" style="stroke:#8b0000; stroke-linecap:butt; stroke-linejoin:round; stroke-width:4; stroke-opacity:1; fill:none" points="
  516.977,76.7097 519.359,78.3132 
  "/>
<polyline clip-path="url(#clip472)" style="stroke:#8b0000; stroke-linecap:butt; stroke-linejoin:round; stroke-width:4; stroke-opacity:1; fill:none" points="
  533.645,87.5696 536.027,-8.75776 538.408,-64.5046 540.789,-5.8331 543.17,-4.39319 545.551,-100.781 547.932,-58.7735 550.314,-57.3763 552.695,-153.806 555.076,-209.652 
  557.457,3.95075 559.838,103.107 562.219,-91.1868 564.601,-49.2721 566.982,-186.374 569.363,10.5459 571.744,-117.473 574.125,-163.682 576.506,-226.204 578.888,113.422 
  581.269,-138.183 583.65,-136.956 586.031,-135.739 588.412,-220.068 590.793,-190.554 593.174,-217.686 595.556,-171.572 597.937,-170.405 600.318,-248.218 602.699,-429.499 
  605.08,-327.754 607.461,-280.268 609.843,-181.335 612.224,-232.115 614.605,-219.718 616.986,-259.22 619.367,-191.81 621.748,-281.308 624.13,-264.543 626.511,-271.548 
  628.892,-253.874 631.273,-223.528 633.654,-260.346 636.035,-275.012 638.416,-240.631 640.798,-299.935 643.179,-292.654 645.56,-278.203 647.941,-269.971 650.322,-289.672 
  652.703,-243.754 655.085,-281.155 657.466,-273.303 659.847,-292.066 662.228,-308.413 664.609,-290.165 666.99,-367.315 669.372,-423.597 671.753,-333.963 674.134,-349.662 
  676.515,-392.251 678.896,-388.431 681.277,-419.015 683.659,-386.627 686.04,-446.817 688.421,-413.964 690.802,-445.048 693.183,-442.252 695.564,-411.334 697.945,-392.647 
  700.327,-429.642 702.708,-432.877 705.089,-417.159 707.47,-431.182 709.851,-434.318 712.232,-410.087 714.614,-422.496 716.995,-393.821 719.376,-400.495 721.757,-417.913 
  724.138,-372.163 726.519,-377.118 728.901,-444.393 731.282,-458.463 733.663,-446.245 736.044,-425.394 738.425,-394.098 740.806,-404.987 743.188,-421.081 745.569,-682.756 
  747.95,-667.67 750.331,-604.634 752.712,-496.707 755.093,-514.082 757.474,-519.212 759.856,-580.403 762.237,-384.034 764.618,-322.316 766.999,-374.931 769.38,-381.829 
  771.761,-368.147 774.143,-323.162 776.524,-363.963 778.905,-332.448 781.286,-353.979 783.667,-337.747 786.048,-337.042 788.43,-368.483 790.811,-362.459 793.192,-403.71 
  795.573,-352.686 797.954,-360.384 800.335,-411.381 802.716,-390.505 805.098,-408.126 807.479,-384.742 809.86,-392.756 812.241,-350.788 814.622,-371.066 817.003,-362.909 
  819.385,-357.023 821.766,-364.136 824.147,-358.351 826.528,-357.701 828.909,-331.325 831.29,-324.265 833.672,-355.767 836.053,-267.4 838.434,-351.856 840.815,-361.49 
  843.196,-314.366 845.577,-365.099 847.959,-323.08 850.34,-319.214 852.721,-350.738 855.102,-362.618 857.483,-377.826 859.864,-338.037 862.245,-312.826 864.627,-321.956 
  867.008,-357.165 869.389,-341.155 871.77,-363.083 874.151,-328.666 876.532,-344.694 878.914,-365.856 881.295,-358.383 883.676,-371.248 886.057,-382.943 888.438,-386.229 
  890.819,-369.505 893.201,-357.812 895.582,-376.659 897.963,-385.824 900.344,-362.873 902.725,-348.415 905.106,-370.297 907.487,-356.7 909.869,-390.333 912.25,-386.157 
  914.631,-399.55 917.012,-413.199 919.393,-351.627 921.774,-391.094 924.156,-414.523 926.537,-379.142 928.918,-405.887 931.299,-445.554 933.68,-448.471 936.061,-433.572 
  938.443,-447.4 940.824,-407.781 943.205,-399.538 945.586,-395.802 947.967,-424.475 950.348,-405.671 952.73,-409.582 955.111,-409.061 957.492,-396.396 959.873,-397.456 
  962.254,-411.808 964.635,-404.057 967.016,-413.578 969.398,-426.267 971.779,-421.928 974.16,-394.393 976.541,-420.918 978.922,-421.705 981.303,-399.023 983.685,-447.499 
  986.066,-431.306 988.447,-438.877 990.828,-405.771 993.209,-380.675 995.59,-414.336 997.972,-384.649 1000.35,-380.88 1002.73,-371.84 1005.12,-346.333 1007.5,-347.942 
  1009.88,-351.552 1012.26,-371.67 1014.64,-354.573 1017.02,-367.19 1019.4,-337.003 1021.78,-320.186 1024.16,-336.061 1026.55,-316.749 1028.93,-326.017 1031.31,-323.18 
  1033.69,-336.383 1036.07,-333.732 1038.45,-306.658 1040.83,-321.332 1043.21,-323.246 1045.59,-254.571 1047.98,-304.828 1050.36,-290.392 1052.74,-260.638 1055.12,-336.549 
  1057.5,-303.022 1059.88,-288.591 1062.26,-279.037 1064.64,-314.404 1067.03,-311.506 1069.41,-306.023 1071.79,-237.71 1074.17,-310.183 1076.55,-309.745 1078.93,-306.81 
  1081.31,-290.382 1083.69,-284.188 1086.07,-280.784 1088.46,-280.352 1090.84,-270.615 1093.22,-276.458 1095.6,-290.592 1097.98,-292.905 1100.36,-292.48 1102.74,-244.032 
  1105.12,-280.339 1107.5,-264.395 1109.89,-226.623 1112.27,-253.351 1114.65,-263.139 1117.03,-269.138 1119.41,-211.506 1121.79,-190.899 1124.17,-251.276 1126.55,-219.376 
  1128.94,-209.858 1131.32,-189.255 1133.7,-177.552 1136.08,-188.441 1138.46,-157.897 1140.84,-198.089 1143.22,-229.174 1145.6,-202.235 1147.98,-162.851 1150.37,-117.513 
  1152.75,-214.927 1155.13,-116.717 1157.51,-184.833 1159.89,-154.299 1162.27,-184.043 1164.65,-172.355 1167.03,-146.235 1169.42,-114.355 1171.8,-182.477 1174.18,-164.788 
  1176.56,-144.678 1178.94,-219.17 1181.32,-103.31 1183.7,-136.283 1186.08,-190.619 1188.46,-127.887 1190.85,-110.885 1193.23,-167.722 1195.61,-173.103 1197.99,-133.998 
  1200.37,-125.991 1202.75,-125.614 1205.13,-99.5109 1207.51,-67.648 1209.89,-67.2746 1212.28,-107.498 1214.66,-88.2838 1217.04,-40.4325 1219.42,-97.2798 1221.8,-114.574 
  1224.18,-96.5439 1226.56,-121.905 1228.94,-86.0759 1231.33,-75.2536 1233.71,-37.8667 1236.09,-50.9535 1238.47,-120.087 1240.85,-103.105 1243.23,-141.119 1245.61,-36.0621 
  1247.99,-92.9207 1250.37,-35.3467 1252.76,-101.314 1255.14,-71.6582 1257.52,-100.604 1259.9,-124.501 1262.28,-138.272 1264.66,-183.468 1267.04,-217.495 1269.42,-192.177 
  1271.8,-182.417 1274.19,-200.302 1276.57,-223.528 1278.95,-233.639 1281.33,-215.407 1283.71,-165.274 1286.09,-175.387 1288.47,-189.407 1290.85,-86.6246 1293.24,-95.3903 
  1295.62,-76.2063 1298,-65.4085 1300.38,-94.3701 1302.76,-94.0317 1305.14,-40.8197 1307.52,-74.5142 1309.9,-63.7206 1312.28,-73.843 1314.67,-26.0277 1317.05,-92.0182 
  1319.43,-51.0894 1321.81,-82.2461 1324.19,-72.1789 1326.57,-107.312 1328.95,-106.983 1331.33,-49.437 1333.71,-98.2598 1336.1,-105.998 1338.48,-48.4548 1340.86,-105.346 
  1343.24,-96.9547 1345.62,28.5806 1348,-34.8771 1350.38,-6.23678 1352.76,-95.6615 1355.15,-20.461 1357.53,-5.27245 1359.91,30.5115 1362.29,-110.076 1364.67,-19.1825 
  1367.05,12.624 1369.43,-3.67972 1371.81,79.5816 1374.19,-17.9155 1376.58,-2.73264 1378.96,-43.0143 1381.34,112.329 1383.72,14.829 1386.1,81.4652 1388.48,56.0486 
  1390.86,-0.85734 1393.24,-15.415 1395.63,114.196 1398.01,155.101 1400.39,-40.2168 1402.77,17.3074 1405.15,36.4573 1407.53,84.2444 1409.91,58.8217 1412.29,37.3737 
  1414.67,-95.5989 1417.06,-69.5673 1419.44,-94.9926 1421.82,117.556 1424.2,-86.3231 1426.58,-108.956 1428.96,-77.167 1431.34,-150.705 1433.72,-160.49 1436.1,-205.571 
  1438.49,-154.942 1440.87,-132.892 1443.25,-99.6293 1445.63,-143.595 1448.01,-119.726 1450.39,-143.005 1452.77,-105.688 1455.15,-98.1563 1457.54,-166.946 1459.92,-147.158 
  1462.3,-89.6501 1464.68,-111.112 1467.06,-110.822 1469.44,-72.1582 1471.82,-165.202 1474.2,-145.418 1476.58,-200.594 1478.97,-139.517 1481.35,-164.051 1483.73,-180.89 
  1486.11,-154.068 1488.49,-199.163 1490.87,-158.282 1493.25,-162.625 1495.63,-120.221 1498.01,-131.704 1500.4,-142.282 1502.78,-178.621 1505.16,-161.214 1507.54,-160.934 
  1509.92,-91.5717 1512.3,-150.963 1514.68,-129.74 1517.06,-140.322 1519.45,-117.418 1521.83,-110.868 1524.21,-65.6528 1526.59,-96.8653 1528.97,-73.656 1531.35,-24.23 
  1533.73,-55.4441 1536.11,-55.1701 1538.49,17.188 1540.88,131.895 1543.26,74.9501 1545.64,34.6261 1548.02,18.2766 1550.4,3.67963 1552.78,101.763 1555.16,35.7084 
  1557.54,-21.239 1559.93,-8.69173 1562.31,77.1108 1564.69,36.7826 1567.07,37.0498 1569.45,20.6958 1571.83,78.1788 1574.21,21.2278 1576.59,78.7098 1578.97,21.7578 
  1581.36,7.1542 1583.74,177.315 1586.12,22.5491 1588.5,105.757 1590.88,23.0742 1593.26,39.9568 1595.64,106.542 1598.02,138.292 1600.4,59.5825 1602.79,24.3784 
  1605.17,60.1017 1607.55,41.5175 1609.93,335.214 1612.31,139.847 1614.69,237.917 1617.07,11.0598 1619.45,140.618 1621.84,140.874 1624.22,181.726 1626.6,181.981 
  1628.98,43.8267 1631.36,62.9241 1633.74,142.148 1636.12,27.9673 1638.5,28.2202 1640.88,142.906 1643.27,111.67 1645.65,184.006 1648.03,64.6912 1650.41,112.423 
  
  "/>
<polyline clip-path="url(#clip472)" style="stroke:#8b0000; stroke-linecap:butt; stroke-linejoin:round; stroke-width:4; stroke-opacity:1; fill:none" points="
  1655.17,242.224 1657.55,30.2272 1659.93,87.6929 1662.31,113.669 1664.7,30.9725 1667.08,145.654 1669.46,114.412 1671.84,186.743 1674.22,244.207 1676.6,187.236 
  1678.98,146.885 1681.36,342.756 1683.75,147.375 1686.13,147.619 1688.51,68.8928 1690.89,343.731 1693.27,188.945 
  "/>
<polyline clip-path="url(#clip472)" style="stroke:#8b0000; stroke-linecap:butt; stroke-linejoin:round; stroke-width:4; stroke-opacity:1; fill:none" points="
  1698.03,189.429 1700.41,344.7 1702.79,149.316 1705.18,247.37 1707.56,345.423 1709.94,150.037 
  "/>
<polyline clip-path="url(#clip472)" style="stroke:#8b0000; stroke-linecap:butt; stroke-linejoin:round; stroke-width:4; stroke-opacity:1; fill:none" points="
  1714.7,248.329 1717.08,346.38 1719.46,346.619 1721.84,151.231 1724.23,249.281 1726.61,249.519 1728.99,347.568 1731.37,152.179 1733.75,193.011 1736.13,152.65 
  1738.51,348.511 
  "/>
<polyline clip-path="url(#clip472)" style="stroke:#8b0000; stroke-linecap:butt; stroke-linejoin:round; stroke-width:4; stroke-opacity:1; fill:none" points="
  1743.27,251.168 1745.66,251.402 1748.04,194.419 1750.42,349.681 1752.8,194.885 1755.18,252.334 1757.56,350.379 1759.94,252.798 1762.32,253.029 1764.7,253.26 
  1767.09,351.303 1769.47,253.721 1771.85,351.763 1774.23,351.993 
  "/>
<polyline clip-path="url(#clip472)" style="stroke:#8b0000; stroke-linecap:butt; stroke-linejoin:round; stroke-width:4; stroke-opacity:1; fill:none" points="
  1778.99,197.421 1781.37,125.565 1783.75,352.907 1786.14,255.322 1788.52,255.549 1790.9,255.776 1793.28,158.19 1795.66,256.229 1798.04,127.153 1800.42,199.463 
  1802.8,354.718 
  "/>
<polyline clip-path="url(#clip472)" style="stroke:#8b0000; stroke-linecap:butt; stroke-linejoin:round; stroke-width:4; stroke-opacity:1; fill:none" points="
  1807.57,355.167 1809.95,257.578 1812.33,355.614 1814.71,355.837 1817.09,201.031 1819.47,356.283 1821.85,258.692 1824.23,161.102 
  "/>
<polyline clip-path="url(#clip472)" style="stroke:#8b0000; stroke-linecap:butt; stroke-linejoin:round; stroke-width:4; stroke-opacity:1; fill:none" points="
  1831.38,259.578 1833.76,202.582 1836.14,357.831 1838.52,260.238 1840.9,358.271 1843.28,260.677 1845.66,358.708 1848.05,261.114 1850.43,359.145 1852.81,132.249 
  1855.19,261.767 1857.57,204.768 1859.95,204.985 1862.33,262.418 1864.71,360.447 1867.09,205.633 1869.48,263.065 1871.86,361.093 1874.24,165.682 1876.62,361.522 
  1879,361.736 1881.38,264.137 
  "/>
<polyline clip-path="url(#clip472)" style="stroke:#8b0000; stroke-linecap:butt; stroke-linejoin:round; stroke-width:4; stroke-opacity:1; fill:none" points="
  1886.14,264.564 1888.53,362.59 1890.91,167.177 1893.29,363.014 1895.67,363.226 
  "/>
<polyline clip-path="url(#clip472)" style="stroke:#8b0000; stroke-linecap:butt; stroke-linejoin:round; stroke-width:4; stroke-opacity:1; fill:none" points="
  1900.43,168.024 1902.81,266.047 1905.19,266.258 1907.57,266.468 1909.96,266.678 1912.34,209.671 
  "/>
<polyline clip-path="url(#clip472)" style="stroke:#8b0000; stroke-linecap:butt; stroke-linejoin:round; stroke-width:4; stroke-opacity:1; fill:none" points="
  1917.1,267.306 1919.48,267.515 
  "/>
<polyline clip-path="url(#clip472)" style="stroke:#8b0000; stroke-linecap:butt; stroke-linejoin:round; stroke-width:4; stroke-opacity:1; fill:none" points="
  1924.24,365.744 1926.62,210.923 1929,366.16 1931.39,268.554 1933.77,268.761 1936.15,268.968 
  "/>
<polyline clip-path="url(#clip472)" style="stroke:#8b0000; stroke-linecap:butt; stroke-linejoin:round; stroke-width:4; stroke-opacity:1; fill:none" points="
  1940.91,367.193 1943.29,171.773 1945.67,212.574 1948.05,212.779 1950.44,270.201 1952.82,270.406 1955.2,270.61 
  "/>
<polyline clip-path="url(#clip472)" style="stroke:#8b0000; stroke-linecap:butt; stroke-linejoin:round; stroke-width:4; stroke-opacity:1; fill:none" points="
  1962.34,214.004 1964.72,369.236 1967.1,369.439 1969.48,271.829 1971.87,369.844 
  "/>
<polyline clip-path="url(#clip472)" style="stroke:#8b0000; stroke-linecap:butt; stroke-linejoin:round; stroke-width:4; stroke-opacity:1; fill:none" points="
  1983.77,273.038 1986.15,273.238 1988.53,144.137 
  "/>
<polyline clip-path="url(#clip472)" style="stroke:#8b0000; stroke-linecap:butt; stroke-linejoin:round; stroke-width:4; stroke-opacity:1; fill:none" points="
  1993.3,273.838 1995.68,274.037 1998.06,274.236 2000.44,372.247 2002.82,217.416 2005.2,217.615 2007.58,372.842 
  "/>
<polyline clip-path="url(#clip472)" style="stroke:#8b0000; stroke-linecap:butt; stroke-linejoin:round; stroke-width:4; stroke-opacity:1; fill:none" points="
  2036.16,375.196 2038.54,220.36 2040.92,375.584 2043.3,180.152 
  "/>
<polyline clip-path="url(#clip472)" style="stroke:#8b0000; stroke-linecap:butt; stroke-linejoin:round; stroke-width:4; stroke-opacity:1; fill:none" points="
  2055.21,376.743 2057.59,376.935 2059.97,377.127 
  "/>
<polyline clip-path="url(#clip472)" style="stroke:#8b0000; stroke-linecap:butt; stroke-linejoin:round; stroke-width:4; stroke-opacity:1; fill:none" points="
  2079.02,378.654 2081.4,378.844 
  "/>
<polyline clip-path="url(#clip472)" style="stroke:#8b0000; stroke-linecap:butt; stroke-linejoin:round; stroke-width:4; stroke-opacity:1; fill:none" points="
  2088.54,379.411 2090.92,379.6 
  "/>
<polyline clip-path="url(#clip472)" style="stroke:#8b0000; stroke-linecap:butt; stroke-linejoin:round; stroke-width:4; stroke-opacity:1; fill:none" points="
  2133.78,382.953 2136.17,383.137 
  "/>
<polyline clip-path="url(#clip472)" style="stroke:#8b0000; stroke-linecap:butt; stroke-linejoin:round; stroke-width:4; stroke-opacity:1; fill:none" points="
  2148.07,286.241 2150.45,384.236 
  "/>
<polyline clip-path="url(#clip472)" style="stroke:#8b0000; stroke-linecap:butt; stroke-linejoin:round; stroke-width:4; stroke-opacity:1; fill:none" points="
  2155.21,286.788 2157.6,384.782 
  "/>
<polyline clip-path="url(#clip472)" style="stroke:#8b0000; stroke-linecap:butt; stroke-linejoin:round; stroke-width:4; stroke-opacity:1; fill:none" points="
  2179.03,386.409 2181.41,386.588 
  "/>
<polyline clip-path="url(#clip472)" style="stroke:#8b0000; stroke-linecap:butt; stroke-linejoin:round; stroke-width:4; stroke-opacity:1; fill:none" points="
  2236.17,390.656 2238.56,235.8 2240.94,391.004 
  "/>
<polyline clip-path="url(#clip472)" style="stroke:#8b0000; stroke-linecap:butt; stroke-linejoin:round; stroke-width:4; stroke-opacity:1; fill:none" points="
  2259.99,294.575 2262.37,392.56 2264.75,392.732 2267.13,237.874 2269.51,393.075 
  "/>
<polyline clip-path="url(#clip472)" style="stroke:#8b0000; stroke-linecap:butt; stroke-linejoin:round; stroke-width:4; stroke-opacity:1; fill:none" points="
  2274.27,393.417 2276.65,393.588 
  "/>
<path clip-path="url(#clip470)" d="
M1990.33 270.476 L2282.76 270.476 L2282.76 166.796 L1990.33 166.796  Z
  " fill="#ffffff" fill-rule="evenodd" fill-opacity="1"/>
<polyline clip-path="url(#clip470)" style="stroke:#000000; stroke-linecap:butt; stroke-linejoin:round; stroke-width:4; stroke-opacity:1; fill:none" points="
  1990.33,270.476 2282.76,270.476 2282.76,166.796 1990.33,166.796 1990.33,270.476 
  "/>
<polyline clip-path="url(#clip470)" style="stroke:#8b0000; stroke-linecap:butt; stroke-linejoin:round; stroke-width:4; stroke-opacity:1; fill:none" points="
  2014.33,218.636 2158.33,218.636 
  "/>
<path clip-path="url(#clip470)" d="M2196.17 238.323 Q2194.36 242.953 2192.65 244.365 Q2190.94 245.777 2188.07 245.777 L2184.66 245.777 L2184.66 242.212 L2187.16 242.212 Q2188.92 242.212 2189.9 241.379 Q2190.87 240.545 2192.05 237.443 L2192.81 235.499 L2182.33 209.99 L2186.84 209.99 L2194.94 230.268 L2203.04 209.99 L2207.56 209.99 L2196.17 238.323 Z" fill="#000000" fill-rule="evenodd" fill-opacity="1" /><path clip-path="url(#clip470)" d="M2214.85 231.981 L2222.49 231.981 L2222.49 205.615 L2214.18 207.282 L2214.18 203.022 L2222.44 201.356 L2227.12 201.356 L2227.12 231.981 L2234.76 231.981 L2234.76 235.916 L2214.85 235.916 L2214.85 231.981 Z" fill="#000000" fill-rule="evenodd" fill-opacity="1" /></svg>
