<?xml version="1.0" encoding="utf-8"?>
<svg xmlns="http://www.w3.org/2000/svg" xmlns:xlink="http://www.w3.org/1999/xlink" width="600" height="400" viewBox="0 0 2400 1600">
<defs>
  <clipPath id="clip670">
    <rect x="0" y="0" width="2400" height="1600"/>
  </clipPath>
</defs>
<path clip-path="url(#clip670)" d="
M0 1600 L2400 1600 L2400 0 L0 0  Z
  " fill="#ffffff" fill-rule="evenodd" fill-opacity="1"/>
<defs>
  <clipPath id="clip671">
    <rect x="480" y="0" width="1681" height="1600"/>
  </clipPath>
</defs>
<defs>
  <clipPath id="clip672">
    <rect x="367" y="183" width="1986" height="1240"/>
  </clipPath>
</defs>
<path clip-path="url(#clip670)" d="
M367.967 1423.18 L2352.76 1423.18 L2352.76 183.952 L367.967 183.952  Z
  " fill="#ffffff" fill-rule="evenodd" fill-opacity="1"/>
<polyline clip-path="url(#clip672)" style="stroke:#000000; stroke-linecap:butt; stroke-linejoin:round; stroke-width:2; stroke-opacity:0.1; fill:none" points="
  698.765,1423.18 698.765,183.952 
  "/>
<polyline clip-path="url(#clip672)" style="stroke:#000000; stroke-linecap:butt; stroke-linejoin:round; stroke-width:2; stroke-opacity:0.1; fill:none" points="
  1112.26,1423.18 1112.26,183.952 
  "/>
<polyline clip-path="url(#clip672)" style="stroke:#000000; stroke-linecap:butt; stroke-linejoin:round; stroke-width:2; stroke-opacity:0.1; fill:none" points="
  1525.76,1423.18 1525.76,183.952 
  "/>
<polyline clip-path="url(#clip672)" style="stroke:#000000; stroke-linecap:butt; stroke-linejoin:round; stroke-width:2; stroke-opacity:0.1; fill:none" points="
  1939.26,1423.18 1939.26,183.952 
  "/>
<polyline clip-path="url(#clip672)" style="stroke:#000000; stroke-linecap:butt; stroke-linejoin:round; stroke-width:2; stroke-opacity:0.1; fill:none" points="
  2352.76,1423.18 2352.76,183.952 
  "/>
<polyline clip-path="url(#clip670)" style="stroke:#000000; stroke-linecap:butt; stroke-linejoin:round; stroke-width:4; stroke-opacity:1; fill:none" points="
  367.967,1423.18 2352.76,1423.18 
  "/>
<polyline clip-path="url(#clip670)" style="stroke:#000000; stroke-linecap:butt; stroke-linejoin:round; stroke-width:4; stroke-opacity:1; fill:none" points="
  698.765,1423.18 698.765,1404.28 
  "/>
<polyline clip-path="url(#clip670)" style="stroke:#000000; stroke-linecap:butt; stroke-linejoin:round; stroke-width:4; stroke-opacity:1; fill:none" points="
  1112.26,1423.18 1112.26,1404.28 
  "/>
<polyline clip-path="url(#clip670)" style="stroke:#000000; stroke-linecap:butt; stroke-linejoin:round; stroke-width:4; stroke-opacity:1; fill:none" points="
  1525.76,1423.18 1525.76,1404.28 
  "/>
<polyline clip-path="url(#clip670)" style="stroke:#000000; stroke-linecap:butt; stroke-linejoin:round; stroke-width:4; stroke-opacity:1; fill:none" points="
  1939.26,1423.18 1939.26,1404.28 
  "/>
<polyline clip-path="url(#clip670)" style="stroke:#000000; stroke-linecap:butt; stroke-linejoin:round; stroke-width:4; stroke-opacity:1; fill:none" points="
  2352.76,1423.18 2352.76,1404.28 
  "/>
<path clip-path="url(#clip670)" d="M658.384 1451.02 L676.74 1451.02 L676.74 1454.96 L662.666 1454.96 L662.666 1463.43 Q663.685 1463.08 664.703 1462.92 Q665.722 1462.73 666.74 1462.73 Q672.527 1462.73 675.907 1465.9 Q679.286 1469.08 679.286 1474.49 Q679.286 1480.07 675.814 1483.17 Q672.342 1486.25 666.023 1486.25 Q663.847 1486.25 661.578 1485.88 Q659.333 1485.51 656.925 1484.77 L656.925 1480.07 Q659.009 1481.2 661.231 1481.76 Q663.453 1482.32 665.93 1482.32 Q669.935 1482.32 672.273 1480.21 Q674.61 1478.1 674.61 1474.49 Q674.61 1470.88 672.273 1468.77 Q669.935 1466.67 665.93 1466.67 Q664.055 1466.67 662.18 1467.08 Q660.328 1467.5 658.384 1468.38 L658.384 1451.02 Z" fill="#000000" fill-rule="evenodd" fill-opacity="1" /><path clip-path="url(#clip670)" d="M698.499 1454.1 Q694.888 1454.1 693.059 1457.66 Q691.254 1461.2 691.254 1468.33 Q691.254 1475.44 693.059 1479.01 Q694.888 1482.55 698.499 1482.55 Q702.133 1482.55 703.939 1479.01 Q705.768 1475.44 705.768 1468.33 Q705.768 1461.2 703.939 1457.66 Q702.133 1454.1 698.499 1454.1 M698.499 1450.39 Q704.309 1450.39 707.365 1455 Q710.444 1459.58 710.444 1468.33 Q710.444 1477.06 707.365 1481.67 Q704.309 1486.25 698.499 1486.25 Q692.689 1486.25 689.61 1481.67 Q686.555 1477.06 686.555 1468.33 Q686.555 1459.58 689.61 1455 Q692.689 1450.39 698.499 1450.39 Z" fill="#000000" fill-rule="evenodd" fill-opacity="1" /><path clip-path="url(#clip670)" d="M728.661 1454.1 Q725.05 1454.1 723.221 1457.66 Q721.416 1461.2 721.416 1468.33 Q721.416 1475.44 723.221 1479.01 Q725.05 1482.55 728.661 1482.55 Q732.295 1482.55 734.101 1479.01 Q735.93 1475.44 735.93 1468.33 Q735.93 1461.2 734.101 1457.66 Q732.295 1454.1 728.661 1454.1 M728.661 1450.39 Q734.471 1450.39 737.527 1455 Q740.605 1459.58 740.605 1468.33 Q740.605 1477.06 737.527 1481.67 Q734.471 1486.25 728.661 1486.25 Q722.851 1486.25 719.772 1481.67 Q716.717 1477.06 716.717 1468.33 Q716.717 1459.58 719.772 1455 Q722.851 1450.39 728.661 1450.39 Z" fill="#000000" fill-rule="evenodd" fill-opacity="1" /><path clip-path="url(#clip670)" d="M1056.79 1481.64 L1064.43 1481.64 L1064.43 1455.28 L1056.12 1456.95 L1056.12 1452.69 L1064.38 1451.02 L1069.06 1451.02 L1069.06 1481.64 L1076.7 1481.64 L1076.7 1485.58 L1056.79 1485.58 L1056.79 1481.64 Z" fill="#000000" fill-rule="evenodd" fill-opacity="1" /><path clip-path="url(#clip670)" d="M1096.14 1454.1 Q1092.53 1454.1 1090.7 1457.66 Q1088.9 1461.2 1088.9 1468.33 Q1088.9 1475.44 1090.7 1479.01 Q1092.53 1482.55 1096.14 1482.55 Q1099.77 1482.55 1101.58 1479.01 Q1103.41 1475.44 1103.41 1468.33 Q1103.41 1461.2 1101.58 1457.66 Q1099.77 1454.1 1096.14 1454.1 M1096.14 1450.39 Q1101.95 1450.39 1105.01 1455 Q1108.08 1459.58 1108.08 1468.33 Q1108.08 1477.06 1105.01 1481.67 Q1101.95 1486.25 1096.14 1486.25 Q1090.33 1486.25 1087.25 1481.67 Q1084.2 1477.06 1084.2 1468.33 Q1084.2 1459.58 1087.25 1455 Q1090.33 1450.39 1096.14 1450.39 Z" fill="#000000" fill-rule="evenodd" fill-opacity="1" /><path clip-path="url(#clip670)" d="M1126.3 1454.1 Q1122.69 1454.1 1120.86 1457.66 Q1119.06 1461.2 1119.06 1468.33 Q1119.06 1475.44 1120.86 1479.01 Q1122.69 1482.55 1126.3 1482.55 Q1129.94 1482.55 1131.74 1479.01 Q1133.57 1475.44 1133.57 1468.33 Q1133.57 1461.2 1131.74 1457.66 Q1129.94 1454.1 1126.3 1454.1 M1126.3 1450.39 Q1132.11 1450.39 1135.17 1455 Q1138.25 1459.58 1138.25 1468.33 Q1138.25 1477.06 1135.17 1481.67 Q1132.11 1486.25 1126.3 1486.25 Q1120.49 1486.25 1117.41 1481.67 Q1114.36 1477.06 1114.36 1468.33 Q1114.36 1459.58 1117.41 1455 Q1120.49 1450.39 1126.3 1450.39 Z" fill="#000000" fill-rule="evenodd" fill-opacity="1" /><path clip-path="url(#clip670)" d="M1156.46 1454.1 Q1152.85 1454.1 1151.02 1457.66 Q1149.22 1461.2 1149.22 1468.33 Q1149.22 1475.44 1151.02 1479.01 Q1152.85 1482.55 1156.46 1482.55 Q1160.1 1482.55 1161.9 1479.01 Q1163.73 1475.44 1163.73 1468.33 Q1163.73 1461.2 1161.9 1457.66 Q1160.1 1454.1 1156.46 1454.1 M1156.46 1450.39 Q1162.27 1450.39 1165.33 1455 Q1168.41 1459.58 1168.41 1468.33 Q1168.41 1477.06 1165.33 1481.67 Q1162.27 1486.25 1156.46 1486.25 Q1150.65 1486.25 1147.58 1481.67 Q1144.52 1477.06 1144.52 1468.33 Q1144.52 1459.58 1147.58 1455 Q1150.65 1450.39 1156.46 1450.39 Z" fill="#000000" fill-rule="evenodd" fill-opacity="1" /><path clip-path="url(#clip670)" d="M1470.29 1481.64 L1477.93 1481.64 L1477.93 1455.28 L1469.62 1456.95 L1469.62 1452.69 L1477.88 1451.02 L1482.55 1451.02 L1482.55 1481.64 L1490.19 1481.64 L1490.19 1485.58 L1470.29 1485.58 L1470.29 1481.64 Z" fill="#000000" fill-rule="evenodd" fill-opacity="1" /><path clip-path="url(#clip670)" d="M1499.68 1451.02 L1518.04 1451.02 L1518.04 1454.96 L1503.97 1454.96 L1503.97 1463.43 Q1504.99 1463.08 1506 1462.92 Q1507.02 1462.73 1508.04 1462.73 Q1513.83 1462.73 1517.21 1465.9 Q1520.59 1469.08 1520.59 1474.49 Q1520.59 1480.07 1517.11 1483.17 Q1513.64 1486.25 1507.32 1486.25 Q1505.15 1486.25 1502.88 1485.88 Q1500.63 1485.51 1498.23 1484.77 L1498.23 1480.07 Q1500.31 1481.2 1502.53 1481.76 Q1504.75 1482.32 1507.23 1482.32 Q1511.24 1482.32 1513.57 1480.21 Q1515.91 1478.1 1515.91 1474.49 Q1515.91 1470.88 1513.57 1468.77 Q1511.24 1466.67 1507.23 1466.67 Q1505.36 1466.67 1503.48 1467.08 Q1501.63 1467.5 1499.68 1468.38 L1499.68 1451.02 Z" fill="#000000" fill-rule="evenodd" fill-opacity="1" /><path clip-path="url(#clip670)" d="M1539.8 1454.1 Q1536.19 1454.1 1534.36 1457.66 Q1532.55 1461.2 1532.55 1468.33 Q1532.55 1475.44 1534.36 1479.01 Q1536.19 1482.55 1539.8 1482.55 Q1543.43 1482.55 1545.24 1479.01 Q1547.07 1475.44 1547.07 1468.33 Q1547.07 1461.2 1545.24 1457.66 Q1543.43 1454.1 1539.8 1454.1 M1539.8 1450.39 Q1545.61 1450.39 1548.67 1455 Q1551.74 1459.58 1551.74 1468.33 Q1551.74 1477.06 1548.67 1481.67 Q1545.61 1486.25 1539.8 1486.25 Q1533.99 1486.25 1530.91 1481.67 Q1527.86 1477.06 1527.86 1468.33 Q1527.86 1459.58 1530.91 1455 Q1533.99 1450.39 1539.8 1450.39 Z" fill="#000000" fill-rule="evenodd" fill-opacity="1" /><path clip-path="url(#clip670)" d="M1569.96 1454.1 Q1566.35 1454.1 1564.52 1457.66 Q1562.72 1461.2 1562.72 1468.33 Q1562.72 1475.44 1564.52 1479.01 Q1566.35 1482.55 1569.96 1482.55 Q1573.6 1482.55 1575.4 1479.01 Q1577.23 1475.44 1577.23 1468.33 Q1577.23 1461.2 1575.4 1457.66 Q1573.6 1454.1 1569.96 1454.1 M1569.96 1450.39 Q1575.77 1450.39 1578.83 1455 Q1581.91 1459.58 1581.91 1468.33 Q1581.91 1477.06 1578.83 1481.67 Q1575.77 1486.25 1569.96 1486.25 Q1564.15 1486.25 1561.07 1481.67 Q1558.02 1477.06 1558.02 1468.33 Q1558.02 1459.58 1561.07 1455 Q1564.15 1450.39 1569.96 1450.39 Z" fill="#000000" fill-rule="evenodd" fill-opacity="1" /><path clip-path="url(#clip670)" d="M1887.87 1481.64 L1904.19 1481.64 L1904.19 1485.58 L1882.24 1485.58 L1882.24 1481.64 Q1884.91 1478.89 1889.49 1474.26 Q1894.1 1469.61 1895.28 1468.27 Q1897.52 1465.74 1898.4 1464.01 Q1899.3 1462.25 1899.3 1460.56 Q1899.3 1457.8 1897.36 1456.07 Q1895.44 1454.33 1892.34 1454.33 Q1890.14 1454.33 1887.68 1455.09 Q1885.25 1455.86 1882.48 1457.41 L1882.48 1452.69 Q1885.3 1451.55 1887.75 1450.97 Q1890.21 1450.39 1892.24 1450.39 Q1897.61 1450.39 1900.81 1453.08 Q1904 1455.77 1904 1460.26 Q1904 1462.39 1903.19 1464.31 Q1902.41 1466.2 1900.3 1468.8 Q1899.72 1469.47 1896.62 1472.69 Q1893.52 1475.88 1887.87 1481.64 Z" fill="#000000" fill-rule="evenodd" fill-opacity="1" /><path clip-path="url(#clip670)" d="M1924 1454.1 Q1920.39 1454.1 1918.56 1457.66 Q1916.76 1461.2 1916.76 1468.33 Q1916.76 1475.44 1918.56 1479.01 Q1920.39 1482.55 1924 1482.55 Q1927.64 1482.55 1929.44 1479.01 Q1931.27 1475.44 1931.27 1468.33 Q1931.27 1461.2 1929.44 1457.66 Q1927.64 1454.1 1924 1454.1 M1924 1450.39 Q1929.81 1450.39 1932.87 1455 Q1935.95 1459.58 1935.95 1468.33 Q1935.95 1477.06 1932.87 1481.67 Q1929.81 1486.25 1924 1486.25 Q1918.19 1486.25 1915.11 1481.67 Q1912.06 1477.06 1912.06 1468.33 Q1912.06 1459.58 1915.11 1455 Q1918.19 1450.39 1924 1450.39 Z" fill="#000000" fill-rule="evenodd" fill-opacity="1" /><path clip-path="url(#clip670)" d="M1954.17 1454.1 Q1950.55 1454.1 1948.73 1457.66 Q1946.92 1461.2 1946.92 1468.33 Q1946.92 1475.44 1948.73 1479.01 Q1950.55 1482.55 1954.17 1482.55 Q1957.8 1482.55 1959.61 1479.01 Q1961.43 1475.44 1961.43 1468.33 Q1961.43 1461.2 1959.61 1457.66 Q1957.8 1454.1 1954.17 1454.1 M1954.17 1450.39 Q1959.98 1450.39 1963.03 1455 Q1966.11 1459.58 1966.11 1468.33 Q1966.11 1477.06 1963.03 1481.67 Q1959.98 1486.25 1954.17 1486.25 Q1948.36 1486.25 1945.28 1481.67 Q1942.22 1477.06 1942.22 1468.33 Q1942.22 1459.58 1945.28 1455 Q1948.36 1450.39 1954.17 1450.39 Z" fill="#000000" fill-rule="evenodd" fill-opacity="1" /><path clip-path="url(#clip670)" d="M1984.33 1454.1 Q1980.72 1454.1 1978.89 1457.66 Q1977.08 1461.2 1977.08 1468.33 Q1977.08 1475.44 1978.89 1479.01 Q1980.72 1482.55 1984.33 1482.55 Q1987.96 1482.55 1989.77 1479.01 Q1991.6 1475.44 1991.6 1468.33 Q1991.6 1461.2 1989.77 1457.66 Q1987.96 1454.1 1984.33 1454.1 M1984.33 1450.39 Q1990.14 1450.39 1993.19 1455 Q1996.27 1459.58 1996.27 1468.33 Q1996.27 1477.06 1993.19 1481.67 Q1990.14 1486.25 1984.33 1486.25 Q1978.52 1486.25 1975.44 1481.67 Q1972.38 1477.06 1972.38 1468.33 Q1972.38 1459.58 1975.44 1455 Q1978.52 1450.39 1984.33 1450.39 Z" fill="#000000" fill-rule="evenodd" fill-opacity="1" /><path clip-path="url(#clip670)" d="M2301.37 1481.64 L2317.69 1481.64 L2317.69 1485.58 L2295.74 1485.58 L2295.74 1481.64 Q2298.4 1478.89 2302.99 1474.26 Q2307.59 1469.61 2308.77 1468.27 Q2311.02 1465.74 2311.9 1464.01 Q2312.8 1462.25 2312.8 1460.56 Q2312.8 1457.8 2310.86 1456.07 Q2308.94 1454.33 2305.83 1454.33 Q2303.64 1454.33 2301.18 1455.09 Q2298.75 1455.86 2295.97 1457.41 L2295.97 1452.69 Q2298.8 1451.55 2301.25 1450.97 Q2303.71 1450.39 2305.74 1450.39 Q2311.11 1450.39 2314.31 1453.08 Q2317.5 1455.77 2317.5 1460.26 Q2317.5 1462.39 2316.69 1464.31 Q2315.9 1466.2 2313.8 1468.8 Q2313.22 1469.47 2310.12 1472.69 Q2307.02 1475.88 2301.37 1481.64 Z" fill="#000000" fill-rule="evenodd" fill-opacity="1" /><path clip-path="url(#clip670)" d="M2327.55 1451.02 L2345.9 1451.02 L2345.9 1454.96 L2331.83 1454.96 L2331.83 1463.43 Q2332.85 1463.08 2333.87 1462.92 Q2334.89 1462.73 2335.9 1462.73 Q2341.69 1462.73 2345.07 1465.9 Q2348.45 1469.08 2348.45 1474.49 Q2348.45 1480.07 2344.98 1483.17 Q2341.51 1486.25 2335.19 1486.25 Q2333.01 1486.25 2330.74 1485.88 Q2328.5 1485.51 2326.09 1484.77 L2326.09 1480.07 Q2328.17 1481.2 2330.39 1481.76 Q2332.62 1482.32 2335.09 1482.32 Q2339.1 1482.32 2341.44 1480.21 Q2343.77 1478.1 2343.77 1474.49 Q2343.77 1470.88 2341.44 1468.77 Q2339.1 1466.67 2335.09 1466.67 Q2333.22 1466.67 2331.34 1467.08 Q2329.49 1467.5 2327.55 1468.38 L2327.55 1451.02 Z" fill="#000000" fill-rule="evenodd" fill-opacity="1" /><path clip-path="url(#clip670)" d="M2367.66 1454.1 Q2364.05 1454.1 2362.22 1457.66 Q2360.42 1461.2 2360.42 1468.33 Q2360.42 1475.44 2362.22 1479.01 Q2364.05 1482.55 2367.66 1482.55 Q2371.3 1482.55 2373.1 1479.01 Q2374.93 1475.44 2374.93 1468.33 Q2374.93 1461.2 2373.1 1457.66 Q2371.3 1454.1 2367.66 1454.1 M2367.66 1450.39 Q2373.47 1450.39 2376.53 1455 Q2379.61 1459.58 2379.61 1468.33 Q2379.61 1477.06 2376.53 1481.67 Q2373.47 1486.25 2367.66 1486.25 Q2361.85 1486.25 2358.77 1481.67 Q2355.72 1477.06 2355.72 1468.33 Q2355.72 1459.58 2358.77 1455 Q2361.85 1450.39 2367.66 1450.39 Z" fill="#000000" fill-rule="evenodd" fill-opacity="1" /><path clip-path="url(#clip670)" d="M2397.83 1454.1 Q2394.21 1454.1 2392.39 1457.66 Q2390.58 1461.2 2390.58 1468.33 Q2390.58 1475.44 2392.39 1479.01 Q2394.21 1482.55 2397.83 1482.55 Q2401.46 1482.55 2403.26 1479.01 Q2405.09 1475.44 2405.09 1468.33 Q2405.09 1461.2 2403.26 1457.66 Q2401.46 1454.1 2397.83 1454.1 M2397.83 1450.39 Q2403.64 1450.39 2406.69 1455 Q2409.77 1459.58 2409.77 1468.33 Q2409.77 1477.06 2406.69 1481.67 Q2403.64 1486.25 2397.83 1486.25 Q2392.01 1486.25 2388.94 1481.67 Q2385.88 1477.06 2385.88 1468.33 Q2385.88 1459.58 2388.94 1455 Q2392.01 1450.39 2397.83 1450.39 Z" fill="#000000" fill-rule="evenodd" fill-opacity="1" /><path clip-path="url(#clip670)" d="M1180.77 1537.27 L1172.05 1560.92 L1189.52 1560.92 L1180.77 1537.27 M1177.14 1530.94 L1184.43 1530.94 L1202.54 1578.46 L1195.85 1578.46 L1191.53 1566.27 L1170.11 1566.27 L1165.78 1578.46 L1159 1578.46 L1177.14 1530.94 Z" fill="#000000" fill-rule="evenodd" fill-opacity="1" /><path clip-path="url(#clip670)" d="M1209.22 1528.94 L1215.08 1528.94 L1215.08 1578.46 L1209.22 1578.46 L1209.22 1528.94 Z" fill="#000000" fill-rule="evenodd" fill-opacity="1" /><path clip-path="url(#clip670)" d="M1233.13 1532.69 L1233.13 1542.81 L1245.19 1542.81 L1245.19 1547.36 L1233.13 1547.36 L1233.13 1566.72 Q1233.13 1571.08 1234.3 1572.32 Q1235.51 1573.56 1239.17 1573.56 L1245.19 1573.56 L1245.19 1578.46 L1239.17 1578.46 Q1232.39 1578.46 1229.82 1575.95 Q1227.24 1573.4 1227.24 1566.72 L1227.24 1547.36 L1222.94 1547.36 L1222.94 1542.81 L1227.24 1542.81 L1227.24 1532.69 L1233.13 1532.69 Z" fill="#000000" fill-rule="evenodd" fill-opacity="1" /><path clip-path="url(#clip670)" d="M1252.89 1542.81 L1258.75 1542.81 L1258.75 1578.46 L1252.89 1578.46 L1252.89 1542.81 M1252.89 1528.94 L1258.75 1528.94 L1258.75 1536.35 L1252.89 1536.35 L1252.89 1528.94 Z" fill="#000000" fill-rule="evenodd" fill-opacity="1" /><path clip-path="url(#clip670)" d="M1276.79 1532.69 L1276.79 1542.81 L1288.86 1542.81 L1288.86 1547.36 L1276.79 1547.36 L1276.79 1566.72 Q1276.79 1571.08 1277.97 1572.32 Q1279.18 1573.56 1282.84 1573.56 L1288.86 1573.56 L1288.86 1578.46 L1282.84 1578.46 Q1276.06 1578.46 1273.48 1575.95 Q1270.91 1573.4 1270.91 1566.72 L1270.91 1547.36 L1266.61 1547.36 L1266.61 1542.81 L1270.91 1542.81 L1270.91 1532.69 L1276.79 1532.69 Z" fill="#000000" fill-rule="evenodd" fill-opacity="1" /><path clip-path="url(#clip670)" d="M1295.96 1564.39 L1295.96 1542.81 L1301.81 1542.81 L1301.81 1564.17 Q1301.81 1569.23 1303.79 1571.78 Q1305.76 1574.29 1309.71 1574.29 Q1314.45 1574.29 1317.19 1571.27 Q1319.95 1568.24 1319.95 1563.02 L1319.95 1542.81 L1325.81 1542.81 L1325.81 1578.46 L1319.95 1578.46 L1319.95 1572.99 Q1317.82 1576.23 1314.99 1577.82 Q1312.19 1579.38 1308.46 1579.38 Q1302.32 1579.38 1299.14 1575.56 Q1295.96 1571.74 1295.96 1564.39 M1310.69 1541.95 L1310.69 1541.95 Z" fill="#000000" fill-rule="evenodd" fill-opacity="1" /><path clip-path="url(#clip670)" d="M1361.33 1548.22 L1361.33 1528.94 L1367.19 1528.94 L1367.19 1578.46 L1361.33 1578.46 L1361.33 1573.11 Q1359.49 1576.3 1356.65 1577.86 Q1353.85 1579.38 1349.9 1579.38 Q1343.44 1579.38 1339.37 1574.23 Q1335.33 1569.07 1335.33 1560.67 Q1335.33 1552.27 1339.37 1547.11 Q1343.44 1541.95 1349.9 1541.95 Q1353.85 1541.95 1356.65 1543.51 Q1359.49 1545.04 1361.33 1548.22 M1341.37 1560.67 Q1341.37 1567.13 1344.02 1570.82 Q1346.69 1574.48 1351.34 1574.48 Q1355.98 1574.48 1358.66 1570.82 Q1361.33 1567.13 1361.33 1560.67 Q1361.33 1554.21 1358.66 1550.55 Q1355.98 1546.85 1351.34 1546.85 Q1346.69 1546.85 1344.02 1550.55 Q1341.37 1554.21 1341.37 1560.67 Z" fill="#000000" fill-rule="evenodd" fill-opacity="1" /><path clip-path="url(#clip670)" d="M1409.74 1559.17 L1409.74 1562.04 L1382.82 1562.04 Q1383.2 1568.08 1386.44 1571.27 Q1389.72 1574.42 1395.55 1574.42 Q1398.92 1574.42 1402.07 1573.59 Q1405.25 1572.76 1408.37 1571.11 L1408.37 1576.65 Q1405.22 1577.98 1401.91 1578.68 Q1398.6 1579.38 1395.2 1579.38 Q1386.67 1579.38 1381.67 1574.42 Q1376.7 1569.45 1376.7 1560.99 Q1376.7 1552.23 1381.42 1547.11 Q1386.16 1541.95 1394.18 1541.95 Q1401.37 1541.95 1405.54 1546.6 Q1409.74 1551.22 1409.74 1559.17 M1403.89 1557.45 Q1403.82 1552.65 1401.18 1549.78 Q1398.57 1546.92 1394.24 1546.92 Q1389.34 1546.92 1386.38 1549.69 Q1383.45 1552.46 1383.01 1557.49 L1403.89 1557.45 Z" fill="#000000" fill-rule="evenodd" fill-opacity="1" /><path clip-path="url(#clip670)" d="M1454.14 1529 Q1449.88 1536.32 1447.81 1543.48 Q1445.74 1550.64 1445.74 1557.99 Q1445.74 1565.35 1447.81 1572.57 Q1449.91 1579.77 1454.14 1587.05 L1449.05 1587.05 Q1444.28 1579.57 1441.89 1572.35 Q1439.53 1565.12 1439.53 1557.99 Q1439.53 1550.9 1441.89 1543.7 Q1444.24 1536.51 1449.05 1529 L1454.14 1529 Z" fill="#000000" fill-rule="evenodd" fill-opacity="1" /><path clip-path="url(#clip670)" d="M1484 1553.47 Q1484 1555.3 1482.87 1556.4 Q1481.78 1557.49 1480.39 1557.49 Q1479.17 1557.49 1478.52 1556.79 Q1477.88 1556.08 1477.88 1555.18 Q1477.88 1554.79 1478.04 1554.31 Q1478.2 1553.79 1478.56 1553.18 Q1478.94 1552.57 1479.75 1552.12 Q1480.55 1551.67 1481.65 1551.6 Q1481.42 1551.38 1481.36 1551.34 Q1480.87 1550.96 1479.97 1550.83 Q1479.84 1550.76 1479.39 1550.76 Q1477.17 1550.76 1474.92 1552.41 Q1472.69 1554.02 1469.96 1557.08 Q1466.51 1560.65 1464.29 1561.97 Q1474.05 1563.26 1474.05 1568.9 Q1474.05 1569.83 1473.79 1570.96 Q1473.27 1573.08 1473.27 1574.63 Q1473.27 1577.72 1475.37 1577.72 Q1477.4 1577.72 1478.68 1575.66 Q1480 1573.6 1481.1 1569.57 Q1481.26 1568.83 1481.42 1568.61 Q1481.58 1568.38 1482.03 1568.38 Q1482.84 1568.38 1482.84 1569.02 Q1482.1 1572.79 1480.46 1575.69 Q1478.36 1579.2 1475.24 1579.2 Q1472.63 1579.2 1470.89 1577.4 Q1469.18 1575.56 1469.18 1572.66 Q1469.18 1571.96 1469.44 1570.34 Q1469.63 1569.7 1469.63 1568.96 Q1469.63 1567.45 1468.8 1566.32 Q1467.96 1565.16 1466.61 1564.58 Q1465.25 1564 1464.13 1563.74 Q1463.03 1563.45 1461.97 1563.36 Q1458.75 1576.98 1458.3 1577.82 Q1458.01 1578.4 1457.36 1578.78 Q1456.72 1579.2 1456.04 1579.2 Q1455.4 1579.2 1454.76 1578.75 Q1454.14 1578.33 1454.14 1577.33 Q1454.14 1576.82 1454.4 1575.88 L1463.97 1537.88 L1464.16 1536.59 Q1464.16 1536.21 1464 1536.01 Q1463.87 1535.79 1463.1 1535.63 Q1462.36 1535.47 1460.87 1535.47 Q1460.26 1535.47 1459.97 1535.43 Q1459.71 1535.4 1459.49 1535.24 Q1459.26 1535.05 1459.26 1534.66 Q1459.26 1534.11 1459.49 1533.82 Q1459.75 1533.5 1459.94 1533.44 Q1460.13 1533.37 1460.52 1533.34 Q1461.07 1533.31 1462.9 1533.15 Q1464.74 1532.95 1466.32 1532.83 Q1467.9 1532.7 1468.57 1532.7 Q1468.96 1532.7 1469.15 1532.89 Q1469.38 1533.05 1469.41 1533.24 L1469.44 1533.4 L1462.58 1561.23 Q1465.42 1560.1 1469.89 1555.11 Q1475.08 1549.31 1479.52 1549.31 Q1481.61 1549.31 1482.81 1550.6 Q1484 1551.86 1484 1553.47 Z" fill="#000000" fill-rule="evenodd" fill-opacity="1" /><path clip-path="url(#clip670)" d="M1543.8 1569.02 Q1543.8 1569.28 1543.51 1570.28 Q1543.22 1571.28 1542.52 1572.82 Q1541.84 1574.37 1540.87 1575.79 Q1539.94 1577.17 1538.39 1578.2 Q1536.88 1579.2 1535.14 1579.2 Q1532.82 1579.2 1531.28 1577.66 Q1529.73 1576.11 1529.73 1573.79 Q1529.73 1572.53 1530.6 1570.15 Q1534.69 1559.27 1534.69 1555.37 Q1534.69 1550.76 1531.12 1550.76 Q1529.09 1550.76 1527.25 1551.6 Q1525.41 1552.44 1524.22 1553.6 Q1523.03 1554.76 1522.1 1556.08 Q1521.16 1557.4 1520.75 1558.27 Q1520.36 1559.14 1520.26 1559.52 L1516.3 1575.43 Q1515.98 1576.79 1515.75 1577.43 Q1515.53 1578.07 1514.92 1578.62 Q1514.3 1579.2 1513.34 1579.2 Q1512.53 1579.2 1511.95 1578.72 Q1511.41 1578.24 1511.41 1577.4 Q1511.41 1577.27 1511.57 1576.59 Q1511.73 1575.92 1511.95 1574.98 Q1512.18 1574.05 1512.27 1573.5 Q1513.43 1569.12 1513.6 1568.51 L1515.43 1560.84 Q1516.43 1557.04 1516.43 1555.37 Q1516.43 1550.76 1512.85 1550.76 Q1511.08 1550.76 1509.41 1551.44 Q1507.77 1552.08 1506.64 1552.99 Q1505.51 1553.89 1504.48 1555.14 Q1503.48 1556.37 1502.97 1557.2 Q1502.48 1558.01 1502.1 1558.82 L1501.26 1562.1 Q1501.07 1563 1500.13 1566.51 L1498.68 1572.47 Q1497.65 1576.91 1497.43 1577.33 Q1497.11 1578.24 1496.4 1578.72 Q1495.69 1579.2 1494.98 1579.2 Q1494.18 1579.2 1493.63 1578.72 Q1493.08 1578.24 1493.08 1577.4 Q1493.08 1577.27 1493.18 1576.79 Q1493.27 1576.3 1493.43 1575.63 Q1493.6 1574.95 1493.66 1574.56 L1497.49 1559.33 Q1498.2 1556.56 1498.36 1555.69 Q1498.56 1554.79 1498.56 1553.79 Q1498.56 1550.76 1496.49 1550.76 Q1494.82 1550.76 1493.72 1552.76 Q1492.63 1554.76 1491.7 1558.62 Q1491.41 1559.68 1491.21 1559.91 Q1491.05 1560.14 1490.57 1560.14 Q1489.76 1560.1 1489.76 1559.46 Q1489.76 1559.3 1490.02 1558.27 Q1490.28 1557.24 1490.76 1555.69 Q1491.28 1554.11 1491.82 1553.08 Q1492.15 1552.41 1492.44 1551.96 Q1492.73 1551.5 1493.31 1550.8 Q1493.89 1550.09 1494.75 1549.7 Q1495.62 1549.31 1496.69 1549.31 Q1499.04 1549.31 1500.78 1550.83 Q1502.55 1552.34 1502.77 1555.05 Q1507.06 1549.31 1513.05 1549.31 Q1516.43 1549.31 1518.46 1551.02 Q1520.36 1552.66 1520.58 1555.69 Q1525.03 1549.31 1531.34 1549.31 Q1534.98 1549.31 1536.94 1551.21 Q1538.91 1553.08 1538.91 1556.37 Q1538.91 1558.07 1538.04 1561.33 Q1537.17 1564.55 1536.59 1566.16 Q1536.01 1567.77 1534.88 1570.86 Q1533.69 1573.82 1533.69 1575.56 Q1533.69 1576.69 1534.08 1577.2 Q1534.46 1577.72 1535.3 1577.72 Q1536.59 1577.72 1537.72 1576.98 Q1538.84 1576.21 1539.65 1574.95 Q1540.49 1573.66 1541.03 1572.37 Q1541.58 1571.05 1542 1569.57 Q1542.26 1568.77 1542.39 1568.57 Q1542.55 1568.38 1543 1568.38 Q1543.8 1568.38 1543.8 1569.02 Z" fill="#000000" fill-rule="evenodd" fill-opacity="1" /><path clip-path="url(#clip670)" d="M1547.12 1529 L1552.21 1529 Q1556.98 1536.51 1559.34 1543.7 Q1561.73 1550.9 1561.73 1557.99 Q1561.73 1565.12 1559.34 1572.35 Q1556.98 1579.57 1552.21 1587.05 L1547.12 1587.05 Q1551.35 1579.77 1553.42 1572.57 Q1555.52 1565.35 1555.52 1557.99 Q1555.52 1550.64 1553.42 1543.48 Q1551.35 1536.32 1547.12 1529 Z" fill="#000000" fill-rule="evenodd" fill-opacity="1" /><polyline clip-path="url(#clip672)" style="stroke:#000000; stroke-linecap:butt; stroke-linejoin:round; stroke-width:2; stroke-opacity:0.1; fill:none" points="
  367.967,1388.11 2352.76,1388.11 
  "/>
<polyline clip-path="url(#clip672)" style="stroke:#000000; stroke-linecap:butt; stroke-linejoin:round; stroke-width:2; stroke-opacity:0.1; fill:none" points="
  367.967,1023.87 2352.76,1023.87 
  "/>
<polyline clip-path="url(#clip672)" style="stroke:#000000; stroke-linecap:butt; stroke-linejoin:round; stroke-width:2; stroke-opacity:0.1; fill:none" points="
  367.967,659.634 2352.76,659.634 
  "/>
<polyline clip-path="url(#clip672)" style="stroke:#000000; stroke-linecap:butt; stroke-linejoin:round; stroke-width:2; stroke-opacity:0.1; fill:none" points="
  367.967,295.398 2352.76,295.398 
  "/>
<polyline clip-path="url(#clip670)" style="stroke:#000000; stroke-linecap:butt; stroke-linejoin:round; stroke-width:4; stroke-opacity:1; fill:none" points="
  367.967,1423.18 367.967,183.952 
  "/>
<polyline clip-path="url(#clip670)" style="stroke:#000000; stroke-linecap:butt; stroke-linejoin:round; stroke-width:4; stroke-opacity:1; fill:none" points="
  367.967,1388.11 386.865,1388.11 
  "/>
<polyline clip-path="url(#clip670)" style="stroke:#000000; stroke-linecap:butt; stroke-linejoin:round; stroke-width:4; stroke-opacity:1; fill:none" points="
  367.967,1023.87 386.865,1023.87 
  "/>
<polyline clip-path="url(#clip670)" style="stroke:#000000; stroke-linecap:butt; stroke-linejoin:round; stroke-width:4; stroke-opacity:1; fill:none" points="
  367.967,659.634 386.865,659.634 
  "/>
<polyline clip-path="url(#clip670)" style="stroke:#000000; stroke-linecap:butt; stroke-linejoin:round; stroke-width:4; stroke-opacity:1; fill:none" points="
  367.967,295.398 386.865,295.398 
  "/>
<path clip-path="url(#clip670)" d="M320.023 1373.91 Q316.412 1373.91 314.583 1377.47 Q312.778 1381.01 312.778 1388.14 Q312.778 1395.25 314.583 1398.81 Q316.412 1402.35 320.023 1402.35 Q323.657 1402.35 325.463 1398.81 Q327.291 1395.25 327.291 1388.14 Q327.291 1381.01 325.463 1377.47 Q323.657 1373.91 320.023 1373.91 M320.023 1370.2 Q325.833 1370.2 328.889 1374.81 Q331.967 1379.39 331.967 1388.14 Q331.967 1396.87 328.889 1401.48 Q325.833 1406.06 320.023 1406.06 Q314.213 1406.06 311.134 1401.48 Q308.079 1396.87 308.079 1388.14 Q308.079 1379.39 311.134 1374.81 Q314.213 1370.2 320.023 1370.2 Z" fill="#000000" fill-rule="evenodd" fill-opacity="1" /><path clip-path="url(#clip670)" d="M116.142 1013.04 L134.499 1013.04 L134.499 1016.97 L120.425 1016.97 L120.425 1025.45 Q121.443 1025.1 122.462 1024.94 Q123.48 1024.75 124.499 1024.75 Q130.286 1024.75 133.665 1027.92 Q137.045 1031.09 137.045 1036.51 Q137.045 1042.09 133.573 1045.19 Q130.101 1048.27 123.781 1048.27 Q121.605 1048.27 119.337 1047.9 Q117.091 1047.53 114.684 1046.79 L114.684 1042.09 Q116.767 1043.22 118.99 1043.78 Q121.212 1044.33 123.689 1044.33 Q127.693 1044.33 130.031 1042.23 Q132.369 1040.12 132.369 1036.51 Q132.369 1032.9 130.031 1030.79 Q127.693 1028.69 123.689 1028.69 Q121.814 1028.69 119.939 1029.1 Q118.087 1029.52 116.142 1030.4 L116.142 1013.04 Z" fill="#000000" fill-rule="evenodd" fill-opacity="1" /><path clip-path="url(#clip670)" d="M146.258 1041.72 L151.142 1041.72 L151.142 1047.6 L146.258 1047.6 L146.258 1041.72 Z" fill="#000000" fill-rule="evenodd" fill-opacity="1" /><path clip-path="url(#clip670)" d="M171.327 1016.12 Q167.716 1016.12 165.887 1019.68 Q164.082 1023.22 164.082 1030.35 Q164.082 1037.46 165.887 1041.02 Q167.716 1044.57 171.327 1044.57 Q174.962 1044.57 176.767 1041.02 Q178.596 1037.46 178.596 1030.35 Q178.596 1023.22 176.767 1019.68 Q174.962 1016.12 171.327 1016.12 M171.327 1012.41 Q177.137 1012.41 180.193 1017.02 Q183.272 1021.6 183.272 1030.35 Q183.272 1039.08 180.193 1043.69 Q177.137 1048.27 171.327 1048.27 Q165.517 1048.27 162.438 1043.69 Q159.383 1039.08 159.383 1030.35 Q159.383 1021.6 162.438 1017.02 Q165.517 1012.41 171.327 1012.41 Z" fill="#000000" fill-rule="evenodd" fill-opacity="1" /><path clip-path="url(#clip670)" d="M201.489 1016.12 Q197.878 1016.12 196.049 1019.68 Q194.244 1023.22 194.244 1030.35 Q194.244 1037.46 196.049 1041.02 Q197.878 1044.57 201.489 1044.57 Q205.123 1044.57 206.929 1041.02 Q208.758 1037.46 208.758 1030.35 Q208.758 1023.22 206.929 1019.68 Q205.123 1016.12 201.489 1016.12 M201.489 1012.41 Q207.299 1012.41 210.355 1017.02 Q213.434 1021.6 213.434 1030.35 Q213.434 1039.08 210.355 1043.69 Q207.299 1048.27 201.489 1048.27 Q195.679 1048.27 192.6 1043.69 Q189.545 1039.08 189.545 1030.35 Q189.545 1021.6 192.6 1017.02 Q195.679 1012.41 201.489 1012.41 Z" fill="#000000" fill-rule="evenodd" fill-opacity="1" /><path clip-path="url(#clip670)" d="M249.822 1022.14 L239.244 1032.76 L249.822 1043.34 L247.068 1046.14 L236.443 1035.52 L225.818 1046.14 L223.086 1043.34 L233.642 1032.76 L223.086 1022.14 L225.818 1019.33 L236.443 1029.96 L247.068 1019.33 L249.822 1022.14 Z" fill="#000000" fill-rule="evenodd" fill-opacity="1" /><path clip-path="url(#clip670)" d="M262.183 1043.66 L269.822 1043.66 L269.822 1017.3 L261.512 1018.96 L261.512 1014.71 L269.776 1013.04 L274.452 1013.04 L274.452 1043.66 L282.091 1043.66 L282.091 1047.6 L262.183 1047.6 L262.183 1043.66 Z" fill="#000000" fill-rule="evenodd" fill-opacity="1" /><path clip-path="url(#clip670)" d="M301.535 1016.12 Q297.924 1016.12 296.095 1019.68 Q294.29 1023.22 294.29 1030.35 Q294.29 1037.46 296.095 1041.02 Q297.924 1044.57 301.535 1044.57 Q305.169 1044.57 306.975 1041.02 Q308.803 1037.46 308.803 1030.35 Q308.803 1023.22 306.975 1019.68 Q305.169 1016.12 301.535 1016.12 M301.535 1012.41 Q307.345 1012.41 310.401 1017.02 Q313.479 1021.6 313.479 1030.35 Q313.479 1039.08 310.401 1043.69 Q307.345 1048.27 301.535 1048.27 Q295.725 1048.27 292.646 1043.69 Q289.591 1039.08 289.591 1030.35 Q289.591 1021.6 292.646 1017.02 Q295.725 1012.41 301.535 1012.41 Z" fill="#000000" fill-rule="evenodd" fill-opacity="1" /><path clip-path="url(#clip670)" d="M326.175 1005.05 Q328.902 1005.63 330.425 1007.47 Q331.967 1009.32 331.967 1012.03 Q331.967 1016.18 329.109 1018.46 Q326.25 1020.73 320.984 1020.73 Q319.216 1020.73 317.335 1020.38 Q315.473 1020.04 313.479 1019.34 L313.479 1015.67 Q315.059 1016.6 316.94 1017.07 Q318.821 1017.54 320.871 1017.54 Q324.444 1017.54 326.306 1016.13 Q328.187 1014.72 328.187 1012.03 Q328.187 1009.54 326.438 1008.15 Q324.708 1006.74 321.604 1006.74 L318.332 1006.74 L318.332 1003.62 L321.755 1003.62 Q324.557 1003.62 326.043 1002.51 Q327.529 1001.38 327.529 999.274 Q327.529 997.111 325.986 995.964 Q324.463 994.798 321.604 994.798 Q320.043 994.798 318.256 995.136 Q316.47 995.475 314.326 996.189 L314.326 992.804 Q316.489 992.202 318.369 991.901 Q320.269 991.6 321.943 991.6 Q326.269 991.6 328.789 993.575 Q331.309 995.531 331.309 998.879 Q331.309 1001.21 329.974 1002.83 Q328.638 1004.43 326.175 1005.05 Z" fill="#000000" fill-rule="evenodd" fill-opacity="1" /><path clip-path="url(#clip670)" d="M114.931 679.427 L122.57 679.427 L122.57 653.061 L114.26 654.728 L114.26 650.469 L122.524 648.802 L127.2 648.802 L127.2 679.427 L134.839 679.427 L134.839 683.362 L114.931 683.362 L114.931 679.427 Z" fill="#000000" fill-rule="evenodd" fill-opacity="1" /><path clip-path="url(#clip670)" d="M144.283 677.482 L149.167 677.482 L149.167 683.362 L144.283 683.362 L144.283 677.482 Z" fill="#000000" fill-rule="evenodd" fill-opacity="1" /><path clip-path="url(#clip670)" d="M169.352 651.881 Q165.741 651.881 163.913 655.446 Q162.107 658.987 162.107 666.117 Q162.107 673.223 163.913 676.788 Q165.741 680.33 169.352 680.33 Q172.987 680.33 174.792 676.788 Q176.621 673.223 176.621 666.117 Q176.621 658.987 174.792 655.446 Q172.987 651.881 169.352 651.881 M169.352 648.177 Q175.163 648.177 178.218 652.784 Q181.297 657.367 181.297 666.117 Q181.297 674.844 178.218 679.45 Q175.163 684.033 169.352 684.033 Q163.542 684.033 160.464 679.45 Q157.408 674.844 157.408 666.117 Q157.408 657.367 160.464 652.784 Q163.542 648.177 169.352 648.177 Z" fill="#000000" fill-rule="evenodd" fill-opacity="1" /><path clip-path="url(#clip670)" d="M199.514 651.881 Q195.903 651.881 194.075 655.446 Q192.269 658.987 192.269 666.117 Q192.269 673.223 194.075 676.788 Q195.903 680.33 199.514 680.33 Q203.149 680.33 204.954 676.788 Q206.783 673.223 206.783 666.117 Q206.783 658.987 204.954 655.446 Q203.149 651.881 199.514 651.881 M199.514 648.177 Q205.324 648.177 208.38 652.784 Q211.459 657.367 211.459 666.117 Q211.459 674.844 208.38 679.45 Q205.324 684.033 199.514 684.033 Q193.704 684.033 190.625 679.45 Q187.57 674.844 187.57 666.117 Q187.57 657.367 190.625 652.784 Q193.704 648.177 199.514 648.177 Z" fill="#000000" fill-rule="evenodd" fill-opacity="1" /><path clip-path="url(#clip670)" d="M247.847 657.899 L237.269 668.524 L247.847 679.103 L245.093 681.904 L234.468 671.279 L223.843 681.904 L221.111 679.103 L231.667 668.524 L221.111 657.899 L223.843 655.098 L234.468 665.723 L245.093 655.098 L247.847 657.899 Z" fill="#000000" fill-rule="evenodd" fill-opacity="1" /><path clip-path="url(#clip670)" d="M260.208 679.427 L267.847 679.427 L267.847 653.061 L259.537 654.728 L259.537 650.469 L267.801 648.802 L272.477 648.802 L272.477 679.427 L280.116 679.427 L280.116 683.362 L260.208 683.362 L260.208 679.427 Z" fill="#000000" fill-rule="evenodd" fill-opacity="1" /><path clip-path="url(#clip670)" d="M299.56 651.881 Q295.949 651.881 294.12 655.446 Q292.315 658.987 292.315 666.117 Q292.315 673.223 294.12 676.788 Q295.949 680.33 299.56 680.33 Q303.194 680.33 305 676.788 Q306.829 673.223 306.829 666.117 Q306.829 658.987 305 655.446 Q303.194 651.881 299.56 651.881 M299.56 648.177 Q305.37 648.177 308.426 652.784 Q311.504 657.367 311.504 666.117 Q311.504 674.844 308.426 679.45 Q305.37 684.033 299.56 684.033 Q293.75 684.033 290.671 679.45 Q287.616 674.844 287.616 666.117 Q287.616 657.367 290.671 652.784 Q293.75 648.177 299.56 648.177 Z" fill="#000000" fill-rule="evenodd" fill-opacity="1" /><path clip-path="url(#clip670)" d="M324.181 631.182 L314.589 646.172 L324.181 646.172 L324.181 631.182 M323.184 627.872 L327.961 627.872 L327.961 646.172 L331.967 646.172 L331.967 649.331 L327.961 649.331 L327.961 655.952 L324.181 655.952 L324.181 649.331 L311.504 649.331 L311.504 645.664 L323.184 627.872 Z" fill="#000000" fill-rule="evenodd" fill-opacity="1" /><path clip-path="url(#clip670)" d="M114.931 315.19 L122.57 315.19 L122.57 288.825 L114.26 290.492 L114.26 286.232 L122.524 284.566 L127.2 284.566 L127.2 315.19 L134.839 315.19 L134.839 319.126 L114.931 319.126 L114.931 315.19 Z" fill="#000000" fill-rule="evenodd" fill-opacity="1" /><path clip-path="url(#clip670)" d="M144.283 313.246 L149.167 313.246 L149.167 319.126 L144.283 319.126 L144.283 313.246 Z" fill="#000000" fill-rule="evenodd" fill-opacity="1" /><path clip-path="url(#clip670)" d="M159.399 284.566 L177.755 284.566 L177.755 288.501 L163.681 288.501 L163.681 296.973 Q164.7 296.626 165.718 296.464 Q166.737 296.279 167.755 296.279 Q173.542 296.279 176.922 299.45 Q180.301 302.621 180.301 308.038 Q180.301 313.616 176.829 316.718 Q173.357 319.797 167.038 319.797 Q164.862 319.797 162.593 319.427 Q160.348 319.056 157.94 318.315 L157.94 313.616 Q160.024 314.751 162.246 315.306 Q164.468 315.862 166.945 315.862 Q170.95 315.862 173.288 313.755 Q175.626 311.649 175.626 308.038 Q175.626 304.427 173.288 302.32 Q170.95 300.214 166.945 300.214 Q165.07 300.214 163.195 300.63 Q161.343 301.047 159.399 301.927 L159.399 284.566 Z" fill="#000000" fill-rule="evenodd" fill-opacity="1" /><path clip-path="url(#clip670)" d="M199.514 287.644 Q195.903 287.644 194.075 291.209 Q192.269 294.751 192.269 301.88 Q192.269 308.987 194.075 312.552 Q195.903 316.093 199.514 316.093 Q203.149 316.093 204.954 312.552 Q206.783 308.987 206.783 301.88 Q206.783 294.751 204.954 291.209 Q203.149 287.644 199.514 287.644 M199.514 283.941 Q205.324 283.941 208.38 288.547 Q211.459 293.13 211.459 301.88 Q211.459 310.607 208.38 315.214 Q205.324 319.797 199.514 319.797 Q193.704 319.797 190.625 315.214 Q187.57 310.607 187.57 301.88 Q187.57 293.13 190.625 288.547 Q193.704 283.941 199.514 283.941 Z" fill="#000000" fill-rule="evenodd" fill-opacity="1" /><path clip-path="url(#clip670)" d="M247.847 293.663 L237.269 304.288 L247.847 314.866 L245.093 317.667 L234.468 307.042 L223.843 317.667 L221.111 314.866 L231.667 304.288 L221.111 293.663 L223.843 290.862 L234.468 301.487 L245.093 290.862 L247.847 293.663 Z" fill="#000000" fill-rule="evenodd" fill-opacity="1" /><path clip-path="url(#clip670)" d="M260.208 315.19 L267.847 315.19 L267.847 288.825 L259.537 290.492 L259.537 286.232 L267.801 284.566 L272.477 284.566 L272.477 315.19 L280.116 315.19 L280.116 319.126 L260.208 319.126 L260.208 315.19 Z" fill="#000000" fill-rule="evenodd" fill-opacity="1" /><path clip-path="url(#clip670)" d="M299.56 287.644 Q295.949 287.644 294.12 291.209 Q292.315 294.751 292.315 301.88 Q292.315 308.987 294.12 312.552 Q295.949 316.093 299.56 316.093 Q303.194 316.093 305 312.552 Q306.829 308.987 306.829 301.88 Q306.829 294.751 305 291.209 Q303.194 287.644 299.56 287.644 M299.56 283.941 Q305.37 283.941 308.426 288.547 Q311.504 293.13 311.504 301.88 Q311.504 310.607 308.426 315.214 Q305.37 319.797 299.56 319.797 Q293.75 319.797 290.671 315.214 Q287.616 310.607 287.616 301.88 Q287.616 293.13 290.671 288.547 Q293.75 283.941 299.56 283.941 Z" fill="#000000" fill-rule="evenodd" fill-opacity="1" /><path clip-path="url(#clip670)" d="M324.181 266.945 L314.589 281.935 L324.181 281.935 L324.181 266.945 M323.184 263.635 L327.961 263.635 L327.961 281.935 L331.967 281.935 L331.967 285.095 L327.961 285.095 L327.961 291.715 L324.181 291.715 L324.181 285.095 L311.504 285.095 L311.504 281.427 L323.184 263.635 Z" fill="#000000" fill-rule="evenodd" fill-opacity="1" /><path clip-path="url(#clip670)" d="M16.4842 1220.6 L16.4842 1211.94 L56.238 1190.87 L16.4842 1190.87 L16.4842 1184.63 L64.0042 1184.63 L64.0042 1193.29 L24.2503 1214.36 L64.0042 1214.36 L64.0042 1220.6 L16.4842 1220.6 Z" fill="#000000" fill-rule="evenodd" fill-opacity="1" /><path clip-path="url(#clip670)" d="M49.9359 1172.7 L28.3562 1172.7 L28.3562 1166.84 L49.7131 1166.84 Q54.7739 1166.84 57.3202 1164.87 Q59.8346 1162.89 59.8346 1158.95 Q59.8346 1154.21 56.8109 1151.47 Q53.7872 1148.7 48.5673 1148.7 L28.3562 1148.7 L28.3562 1142.84 L64.0042 1142.84 L64.0042 1148.7 L58.5296 1148.7 Q61.7762 1150.83 63.3676 1153.66 Q64.9272 1156.46 64.9272 1160.19 Q64.9272 1166.33 61.1078 1169.51 Q57.2883 1172.7 49.9359 1172.7 M27.4968 1157.96 L27.4968 1157.96 Z" fill="#000000" fill-rule="evenodd" fill-opacity="1" /><path clip-path="url(#clip670)" d="M35.1993 1103.02 Q31.2526 1100.83 29.3747 1097.77 Q27.4968 1094.72 27.4968 1090.58 Q27.4968 1085.01 31.4117 1081.99 Q35.2948 1078.96 42.4881 1078.96 L64.0042 1078.96 L64.0042 1084.85 L42.679 1084.85 Q37.5546 1084.85 35.072 1086.66 Q32.5894 1088.48 32.5894 1092.2 Q32.5894 1096.75 35.6131 1099.4 Q38.6368 1102.04 43.8567 1102.04 L64.0042 1102.04 L64.0042 1107.93 L42.679 1107.93 Q37.5228 1107.93 35.072 1109.74 Q32.5894 1111.55 32.5894 1115.34 Q32.5894 1119.83 35.6449 1122.47 Q38.6686 1125.11 43.8567 1125.11 L64.0042 1125.11 L64.0042 1131 L28.3562 1131 L28.3562 1125.11 L33.8944 1125.11 Q30.616 1123.11 29.0564 1120.31 Q27.4968 1117.51 27.4968 1113.66 Q27.4968 1109.77 29.4702 1107.07 Q31.4436 1104.33 35.1993 1103.02 Z" fill="#000000" fill-rule="evenodd" fill-opacity="1" /><path clip-path="url(#clip670)" d="M46.212 1041.69 Q39.7508 1041.69 36.0905 1044.36 Q32.3984 1047.01 32.3984 1051.65 Q32.3984 1056.3 36.0905 1058.97 Q39.7508 1061.62 46.212 1061.62 Q52.6732 1061.62 56.3653 1058.97 Q60.0256 1056.3 60.0256 1051.65 Q60.0256 1047.01 56.3653 1044.36 Q52.6732 1041.69 46.212 1041.69 M33.7671 1061.62 Q30.5842 1059.77 29.0564 1056.97 Q27.4968 1054.14 27.4968 1050.22 Q27.4968 1043.73 32.6531 1039.69 Q37.8093 1035.61 46.212 1035.61 Q54.6147 1035.61 59.771 1039.69 Q64.9272 1043.73 64.9272 1050.22 Q64.9272 1054.14 63.3994 1056.97 Q61.8398 1059.77 58.657 1061.62 L64.0042 1061.62 L64.0042 1067.5 L14.479 1067.5 L14.479 1061.62 L33.7671 1061.62 Z" fill="#000000" fill-rule="evenodd" fill-opacity="1" /><path clip-path="url(#clip670)" d="M44.7161 995.412 L47.5806 995.412 L47.5806 1022.34 Q53.6281 1021.96 56.8109 1018.71 Q59.9619 1015.43 59.9619 1009.61 Q59.9619 1006.23 59.1344 1003.08 Q58.3069 999.9 56.6518 996.781 L62.1899 996.781 Q63.5267 999.932 64.227 1003.24 Q64.9272 1006.55 64.9272 1009.96 Q64.9272 1018.49 59.9619 1023.49 Q54.9967 1028.45 46.5303 1028.45 Q37.7774 1028.45 32.6531 1023.74 Q27.4968 1019 27.4968 1010.98 Q27.4968 1003.78 32.1438 999.614 Q36.7589 995.412 44.7161 995.412 M42.9973 1001.27 Q38.1912 1001.33 35.3266 1003.97 Q32.4621 1006.58 32.4621 1010.91 Q32.4621 1015.81 35.2312 1018.77 Q38.0002 1021.7 43.0292 1022.15 L42.9973 1001.27 Z" fill="#000000" fill-rule="evenodd" fill-opacity="1" /><path clip-path="url(#clip670)" d="M33.8307 965.144 Q33.2578 966.13 33.0032 967.308 Q32.7167 968.454 32.7167 969.854 Q32.7167 974.819 35.9632 977.493 Q39.1779 980.135 45.2253 980.135 L64.0042 980.135 L64.0042 986.023 L28.3562 986.023 L28.3562 980.135 L33.8944 980.135 Q30.6479 978.289 29.0883 975.329 Q27.4968 972.369 27.4968 968.135 Q27.4968 967.531 27.5923 966.799 Q27.656 966.067 27.8151 965.175 L33.8307 965.144 Z" fill="#000000" fill-rule="evenodd" fill-opacity="1" /><path clip-path="url(#clip670)" d="M32.4621 924.467 Q32.4621 929.177 36.1542 931.915 Q39.8145 934.652 46.212 934.652 Q52.6095 934.652 56.3017 931.946 Q59.9619 929.209 59.9619 924.467 Q59.9619 919.788 56.2698 917.051 Q52.5777 914.313 46.212 914.313 Q39.8781 914.313 36.186 917.051 Q32.4621 919.788 32.4621 924.467 M27.4968 924.467 Q27.4968 916.828 32.4621 912.467 Q37.4273 908.107 46.212 908.107 Q54.9649 908.107 59.9619 912.467 Q64.9272 916.828 64.9272 924.467 Q64.9272 932.137 59.9619 936.498 Q54.9649 940.827 46.212 940.827 Q37.4273 940.827 32.4621 936.498 Q27.4968 932.137 27.4968 924.467 Z" fill="#000000" fill-rule="evenodd" fill-opacity="1" /><path clip-path="url(#clip670)" d="M14.479 880.352 L19.3487 880.352 L19.3487 885.954 Q19.3487 889.105 20.6219 890.346 Q21.895 891.556 25.2052 891.556 L28.3562 891.556 L28.3562 881.912 L32.9077 881.912 L32.9077 891.556 L64.0042 891.556 L64.0042 897.444 L32.9077 897.444 L32.9077 903.046 L28.3562 903.046 L28.3562 897.444 L25.8736 897.444 Q19.9216 897.444 17.2162 894.675 Q14.479 891.906 14.479 885.89 L14.479 880.352 Z" fill="#000000" fill-rule="evenodd" fill-opacity="1" /><path clip-path="url(#clip670)" d="M21.7677 848.046 L58.7206 848.046 L58.7206 840.28 Q58.7206 830.445 54.2646 825.894 Q49.8086 821.31 40.1964 821.31 Q30.6479 821.31 26.2237 825.894 Q21.7677 830.445 21.7677 840.28 L21.7677 848.046 M16.4842 854.476 L16.4842 841.267 Q16.4842 827.453 22.2451 820.992 Q27.9743 814.531 40.1964 814.531 Q52.4822 814.531 58.2432 821.024 Q64.0042 827.517 64.0042 841.267 L64.0042 854.476 L16.4842 854.476 Z" fill="#000000" fill-rule="evenodd" fill-opacity="1" /><path clip-path="url(#clip670)" d="M44.7161 774.045 L47.5806 774.045 L47.5806 800.972 Q53.6281 800.59 56.8109 797.344 Q59.9619 794.065 59.9619 788.241 Q59.9619 784.867 59.1344 781.716 Q58.3069 778.533 56.6518 775.414 L62.1899 775.414 Q63.5267 778.565 64.227 781.875 Q64.9272 785.185 64.9272 788.591 Q64.9272 797.121 59.9619 802.118 Q54.9967 807.083 46.5303 807.083 Q37.7774 807.083 32.6531 802.372 Q27.4968 797.63 27.4968 789.609 Q27.4968 782.416 32.1438 778.246 Q36.7589 774.045 44.7161 774.045 M42.9973 779.901 Q38.1912 779.965 35.3266 782.607 Q32.4621 785.217 32.4621 789.546 Q32.4621 794.447 35.2312 797.407 Q38.0002 800.335 43.0292 800.781 L42.9973 779.901 Z" fill="#000000" fill-rule="evenodd" fill-opacity="1" /><path clip-path="url(#clip670)" d="M46.212 738.843 Q39.7508 738.843 36.0905 741.516 Q32.3984 744.158 32.3984 748.805 Q32.3984 753.452 36.0905 756.126 Q39.7508 758.767 46.212 758.767 Q52.6732 758.767 56.3653 756.126 Q60.0256 753.452 60.0256 748.805 Q60.0256 744.158 56.3653 741.516 Q52.6732 738.843 46.212 738.843 M33.7671 758.767 Q30.5842 756.921 29.0564 754.12 Q27.4968 751.288 27.4968 747.373 Q27.4968 740.88 32.6531 736.837 Q37.8093 732.763 46.212 732.763 Q54.6147 732.763 59.771 736.837 Q64.9272 740.88 64.9272 747.373 Q64.9272 751.288 63.3994 754.12 Q61.8398 756.921 58.657 758.767 L64.0042 758.767 L64.0042 764.656 L14.479 764.656 L14.479 758.767 L33.7671 758.767 Z" fill="#000000" fill-rule="evenodd" fill-opacity="1" /><path clip-path="url(#clip670)" d="M33.8307 702.399 Q33.2578 703.386 33.0032 704.563 Q32.7167 705.709 32.7167 707.11 Q32.7167 712.075 35.9632 714.748 Q39.1779 717.39 45.2253 717.39 L64.0042 717.39 L64.0042 723.279 L28.3562 723.279 L28.3562 717.39 L33.8944 717.39 Q30.6479 715.544 29.0883 712.584 Q27.4968 709.624 27.4968 705.391 Q27.4968 704.786 27.5923 704.054 Q27.656 703.322 27.8151 702.431 L33.8307 702.399 Z" fill="#000000" fill-rule="evenodd" fill-opacity="1" /><path clip-path="url(#clip670)" d="M28.3562 696.256 L28.3562 690.4 L64.0042 690.4 L64.0042 696.256 L28.3562 696.256 M14.479 696.256 L14.479 690.4 L21.895 690.4 L21.895 696.256 L14.479 696.256 Z" fill="#000000" fill-rule="evenodd" fill-opacity="1" /><path clip-path="url(#clip670)" d="M29.4065 655.42 L34.9447 655.42 Q33.6716 657.903 33.035 660.576 Q32.3984 663.25 32.3984 666.114 Q32.3984 670.475 33.7352 672.671 Q35.072 674.835 37.7456 674.835 Q39.7826 674.835 40.9603 673.276 Q42.1061 671.716 43.1565 667.006 L43.6021 665 Q44.9389 658.762 47.3897 656.152 Q49.8086 653.51 54.1691 653.51 Q59.1344 653.51 62.0308 657.457 Q64.9272 661.372 64.9272 668.247 Q64.9272 671.112 64.3543 674.231 Q63.8132 677.318 62.6992 680.756 L56.6518 680.756 Q58.3387 677.509 59.198 674.358 Q60.0256 671.207 60.0256 668.12 Q60.0256 663.982 58.6251 661.754 Q57.1929 659.526 54.6147 659.526 Q52.2276 659.526 50.9545 661.149 Q49.6813 662.741 48.5037 668.183 L48.0262 670.22 Q46.8804 675.663 44.5251 678.082 Q42.138 680.501 38.0002 680.501 Q32.9713 680.501 30.2341 676.936 Q27.4968 673.371 27.4968 666.815 Q27.4968 663.568 27.9743 660.704 Q28.4517 657.839 29.4065 655.42 Z" fill="#000000" fill-rule="evenodd" fill-opacity="1" /><path clip-path="url(#clip670)" d="M20.8447 603.922 Q20.8447 610.924 26.0645 615.061 Q31.2844 619.167 40.2919 619.167 Q49.2675 619.167 54.4874 615.061 Q59.7073 610.924 59.7073 603.922 Q59.7073 596.919 54.4874 592.845 Q49.2675 588.739 40.2919 588.739 Q31.2844 588.739 26.0645 592.845 Q20.8447 596.919 20.8447 603.922 M15.6248 603.922 Q15.6248 593.927 22.3406 587.944 Q29.0246 581.96 40.2919 581.96 Q51.5274 581.96 58.2432 587.944 Q64.9272 593.927 64.9272 603.922 Q64.9272 613.947 58.2432 619.963 Q51.5592 625.947 40.2919 625.947 Q29.0246 625.947 22.3406 619.963 Q15.6248 613.947 15.6248 603.922 Z" fill="#000000" fill-rule="evenodd" fill-opacity="1" /><path clip-path="url(#clip670)" d="M46.212 546.566 Q39.7508 546.566 36.0905 549.24 Q32.3984 551.882 32.3984 556.529 Q32.3984 561.176 36.0905 563.849 Q39.7508 566.491 46.212 566.491 Q52.6732 566.491 56.3653 563.849 Q60.0256 561.176 60.0256 556.529 Q60.0256 551.882 56.3653 549.24 Q52.6732 546.566 46.212 546.566 M33.7671 566.491 Q30.5842 564.645 29.0564 561.844 Q27.4968 559.011 27.4968 555.097 Q27.4968 548.604 32.6531 544.561 Q37.8093 540.487 46.212 540.487 Q54.6147 540.487 59.771 544.561 Q64.9272 548.604 64.9272 555.097 Q64.9272 559.011 63.3994 561.844 Q61.8398 564.645 58.657 566.491 L64.0042 566.491 L64.0042 572.379 L14.479 572.379 L14.479 566.491 L33.7671 566.491 Z" fill="#000000" fill-rule="evenodd" fill-opacity="1" /><path clip-path="url(#clip670)" d="M28.3562 530.78 L28.3562 524.923 L64.6407 524.923 Q71.452 524.923 74.5076 527.533 Q77.5631 530.111 77.5631 535.872 L77.5631 538.1 L72.5979 538.1 L72.5979 536.541 Q72.5979 533.199 71.0383 531.989 Q69.5105 530.78 64.6407 530.78 L28.3562 530.78 M14.479 530.78 L14.479 524.923 L21.895 524.923 L21.895 530.78 L14.479 530.78 Z" fill="#000000" fill-rule="evenodd" fill-opacity="1" /><path clip-path="url(#clip670)" d="M44.7161 482.177 L47.5806 482.177 L47.5806 509.104 Q53.6281 508.722 56.8109 505.476 Q59.9619 502.198 59.9619 496.373 Q59.9619 492.999 59.1344 489.848 Q58.3069 486.665 56.6518 483.546 L62.1899 483.546 Q63.5267 486.697 64.227 490.007 Q64.9272 493.317 64.9272 496.723 Q64.9272 505.253 59.9619 510.25 Q54.9967 515.215 46.5303 515.215 Q37.7774 515.215 32.6531 510.505 Q27.4968 505.762 27.4968 497.742 Q27.4968 490.548 32.1438 486.379 Q36.7589 482.177 44.7161 482.177 M42.9973 488.034 Q38.1912 488.097 35.3266 490.739 Q32.4621 493.349 32.4621 497.678 Q32.4621 502.579 35.2312 505.54 Q38.0002 508.468 43.0292 508.913 L42.9973 488.034 Z" fill="#000000" fill-rule="evenodd" fill-opacity="1" /><path clip-path="url(#clip670)" d="M29.7248 446.911 L35.1993 446.911 Q33.8307 449.394 33.1623 451.908 Q32.4621 454.391 32.4621 456.937 Q32.4621 462.635 36.0905 465.786 Q39.6872 468.937 46.212 468.937 Q52.7369 468.937 56.3653 465.786 Q59.9619 462.635 59.9619 456.937 Q59.9619 454.391 59.2935 451.908 Q58.5933 449.394 57.2247 446.911 L62.6355 446.911 Q63.7814 449.362 64.3543 452.004 Q64.9272 454.614 64.9272 457.574 Q64.9272 465.627 59.8664 470.369 Q54.8057 475.111 46.212 475.111 Q37.491 475.111 32.4939 470.337 Q27.4968 465.531 27.4968 457.192 Q27.4968 454.487 28.0697 451.908 Q28.6108 449.33 29.7248 446.911 Z" fill="#000000" fill-rule="evenodd" fill-opacity="1" /><path clip-path="url(#clip670)" d="M18.2347 430.933 L28.3562 430.933 L28.3562 418.87 L32.9077 418.87 L32.9077 430.933 L52.2594 430.933 Q56.6199 430.933 57.8613 429.756 Q59.1026 428.546 59.1026 424.886 L59.1026 418.87 L64.0042 418.87 L64.0042 424.886 Q64.0042 431.665 61.4897 434.244 Q58.9434 436.822 52.2594 436.822 L32.9077 436.822 L32.9077 441.119 L28.3562 441.119 L28.3562 436.822 L18.2347 436.822 L18.2347 430.933 Z" fill="#000000" fill-rule="evenodd" fill-opacity="1" /><path clip-path="url(#clip670)" d="M29.4065 388.442 L34.9447 388.442 Q33.6716 390.925 33.035 393.599 Q32.3984 396.272 32.3984 399.137 Q32.3984 403.497 33.7352 405.693 Q35.072 407.858 37.7456 407.858 Q39.7826 407.858 40.9603 406.298 Q42.1061 404.739 43.1565 400.028 L43.6021 398.023 Q44.9389 391.784 47.3897 389.174 Q49.8086 386.533 54.1691 386.533 Q59.1344 386.533 62.0308 390.479 Q64.9272 394.394 64.9272 401.269 Q64.9272 404.134 64.3543 407.253 Q63.8132 410.34 62.6992 413.778 L56.6518 413.778 Q58.3387 410.531 59.198 407.38 Q60.0256 404.229 60.0256 401.142 Q60.0256 397.004 58.6251 394.776 Q57.1929 392.548 54.6147 392.548 Q52.2276 392.548 50.9545 394.171 Q49.6813 395.763 48.5037 401.206 L48.0262 403.243 Q46.8804 408.685 44.5251 411.104 Q42.138 413.523 38.0002 413.523 Q32.9713 413.523 30.2341 409.958 Q27.4968 406.394 27.4968 399.837 Q27.4968 396.59 27.9743 393.726 Q28.4517 390.861 29.4065 388.442 Z" fill="#000000" fill-rule="evenodd" fill-opacity="1" /><path clip-path="url(#clip670)" d="M527.212 33.9405 L527.212 80.9715 L537.096 80.9715 Q549.614 80.9715 555.406 75.3002 Q561.24 69.629 561.24 57.3952 Q561.24 45.2425 555.406 39.6118 Q549.614 33.9405 537.096 33.9405 L527.212 33.9405 M519.029 27.216 L535.841 27.216 Q553.421 27.216 561.645 34.5481 Q569.868 41.8398 569.868 57.3952 Q569.868 73.0317 561.604 80.3639 Q553.34 87.696 535.841 87.696 L519.029 87.696 L519.029 27.216 Z" fill="#000000" fill-rule="evenodd" fill-opacity="1" /><path clip-path="url(#clip670)" d="M621.396 63.1475 L621.396 66.7933 L587.125 66.7933 Q587.611 74.4901 591.743 78.541 Q595.915 82.5514 603.329 82.5514 Q607.623 82.5514 611.633 81.4981 Q615.684 80.4449 619.654 78.3384 L619.654 85.387 Q615.643 87.0884 611.43 87.9796 Q607.218 88.8708 602.883 88.8708 Q592.027 88.8708 585.667 82.5514 Q579.347 76.2319 579.347 65.4565 Q579.347 54.3165 585.343 47.7946 Q591.378 41.2321 601.587 41.2321 Q610.742 41.2321 616.048 47.1464 Q621.396 53.0203 621.396 63.1475 M613.942 60.96 Q613.861 54.8432 610.499 51.1974 Q607.177 47.5515 601.668 47.5515 Q595.429 47.5515 591.662 51.0758 Q587.935 54.6001 587.368 61.0005 L613.942 60.96 Z" fill="#000000" fill-rule="evenodd" fill-opacity="1" /><path clip-path="url(#clip670)" d="M666.199 65.0514 Q666.199 56.8281 662.796 52.1696 Q659.434 47.4705 653.519 47.4705 Q647.605 47.4705 644.202 52.1696 Q640.84 56.8281 640.84 65.0514 Q640.84 73.2748 644.202 77.9738 Q647.605 82.6324 653.519 82.6324 Q659.434 82.6324 662.796 77.9738 Q666.199 73.2748 666.199 65.0514 M640.84 49.2124 Q643.19 45.1615 646.754 43.2171 Q650.36 41.2321 655.342 41.2321 Q663.606 41.2321 668.751 47.7946 Q673.936 54.3571 673.936 65.0514 Q673.936 75.7458 668.751 82.3083 Q663.606 88.8708 655.342 88.8708 Q650.36 88.8708 646.754 86.9263 Q643.19 84.9414 640.84 80.8905 L640.84 87.696 L633.346 87.696 L633.346 24.6639 L640.84 24.6639 L640.84 49.2124 Z" fill="#000000" fill-rule="evenodd" fill-opacity="1" /><path clip-path="url(#clip670)" d="M712.582 49.2934 Q711.326 48.5643 709.827 48.2402 Q708.369 47.8756 706.586 47.8756 Q700.267 47.8756 696.864 52.0075 Q693.502 56.0989 693.502 63.7957 L693.502 87.696 L686.008 87.696 L686.008 42.3259 L693.502 42.3259 L693.502 49.3744 Q695.851 45.2425 699.619 43.2576 Q703.386 41.2321 708.774 41.2321 Q709.543 41.2321 710.475 41.3537 Q711.407 41.4347 712.541 41.6372 L712.582 49.2934 Z" fill="#000000" fill-rule="evenodd" fill-opacity="1" /><path clip-path="url(#clip670)" d="M720.4 42.3259 L727.853 42.3259 L727.853 87.696 L720.4 87.696 L720.4 42.3259 M720.4 24.6639 L727.853 24.6639 L727.853 34.1025 L720.4 34.1025 L720.4 24.6639 Z" fill="#000000" fill-rule="evenodd" fill-opacity="1" /><path clip-path="url(#clip670)" d="M772.373 43.6627 L772.373 50.7112 Q769.213 49.0909 765.81 48.2807 Q762.408 47.4705 758.762 47.4705 Q753.212 47.4705 750.417 49.1719 Q747.662 50.8733 747.662 54.276 Q747.662 56.8686 749.647 58.3675 Q751.632 59.8258 757.628 61.1626 L760.18 61.7297 Q768.119 63.4311 771.441 66.5503 Q774.803 69.629 774.803 75.1787 Q774.803 81.4981 769.78 85.1844 Q764.798 88.8708 756.048 88.8708 Q752.402 88.8708 748.432 88.1416 Q744.503 87.4529 740.128 86.0351 L740.128 78.3384 Q744.26 80.4854 748.27 81.5791 Q752.28 82.6324 756.21 82.6324 Q761.476 82.6324 764.312 80.85 Q767.147 79.0271 767.147 75.7458 Q767.147 72.7077 765.081 71.0873 Q763.056 69.4669 756.129 67.9681 L753.536 67.3605 Q746.609 65.9021 743.53 62.9045 Q740.452 59.8663 740.452 54.6001 Q740.452 48.1997 744.989 44.7159 Q749.526 41.2321 757.871 41.2321 Q762.003 41.2321 765.648 41.8398 Q769.294 42.4474 772.373 43.6627 Z" fill="#000000" fill-rule="evenodd" fill-opacity="1" /><path clip-path="url(#clip670)" d="M821.551 33.9405 L821.551 56.6661 L831.84 56.6661 Q837.552 56.6661 840.671 53.7089 Q843.79 50.7518 843.79 45.283 Q843.79 39.8548 840.671 36.8977 Q837.552 33.9405 831.84 33.9405 L821.551 33.9405 M813.368 27.216 L831.84 27.216 Q842.008 27.216 847.193 31.834 Q852.419 36.4116 852.419 45.283 Q852.419 54.2355 847.193 58.8131 Q842.008 63.3906 831.84 63.3906 L821.551 63.3906 L821.551 87.696 L813.368 87.696 L813.368 27.216 Z" fill="#000000" fill-rule="evenodd" fill-opacity="1" /><path clip-path="url(#clip670)" d="M877.696 47.5515 Q871.701 47.5515 868.217 52.2506 Q864.733 56.9091 864.733 65.0514 Q864.733 73.1938 868.177 77.8928 Q871.661 82.5514 877.696 82.5514 Q883.651 82.5514 887.135 77.8523 Q890.619 73.1533 890.619 65.0514 Q890.619 56.9901 887.135 52.2911 Q883.651 47.5515 877.696 47.5515 M877.696 41.2321 Q887.419 41.2321 892.968 47.5515 Q898.518 53.8709 898.518 65.0514 Q898.518 76.1914 892.968 82.5514 Q887.419 88.8708 877.696 88.8708 Q867.934 88.8708 862.384 82.5514 Q856.875 76.1914 856.875 65.0514 Q856.875 53.8709 862.384 47.5515 Q867.934 41.2321 877.696 41.2321 Z" fill="#000000" fill-rule="evenodd" fill-opacity="1" /><path clip-path="url(#clip670)" d="M918.084 80.8905 L918.084 104.953 L910.59 104.953 L910.59 42.3259 L918.084 42.3259 L918.084 49.2124 Q920.433 45.1615 923.998 43.2171 Q927.604 41.2321 932.586 41.2321 Q940.85 41.2321 945.995 47.7946 Q951.18 54.3571 951.18 65.0514 Q951.18 75.7458 945.995 82.3083 Q940.85 88.8708 932.586 88.8708 Q927.604 88.8708 923.998 86.9263 Q920.433 84.9414 918.084 80.8905 M943.443 65.0514 Q943.443 56.8281 940.04 52.1696 Q936.678 47.4705 930.763 47.4705 Q924.849 47.4705 921.446 52.1696 Q918.084 56.8281 918.084 65.0514 Q918.084 73.2748 921.446 77.9738 Q924.849 82.6324 930.763 82.6324 Q936.678 82.6324 940.04 77.9738 Q943.443 73.2748 943.443 65.0514 Z" fill="#000000" fill-rule="evenodd" fill-opacity="1" /><path clip-path="url(#clip670)" d="M962.765 69.791 L962.765 42.3259 L970.219 42.3259 L970.219 69.5074 Q970.219 75.9484 972.731 79.1891 Q975.242 82.3893 980.265 82.3893 Q986.301 82.3893 989.785 78.541 Q993.309 74.6926 993.309 68.0491 L993.309 42.3259 L1000.76 42.3259 L1000.76 87.696 L993.309 87.696 L993.309 80.7284 Q990.595 84.8604 986.99 86.8858 Q983.425 88.8708 978.685 88.8708 Q970.867 88.8708 966.816 84.0097 Q962.765 79.1486 962.765 69.791 M981.521 41.2321 L981.521 41.2321 Z" fill="#000000" fill-rule="evenodd" fill-opacity="1" /><path clip-path="url(#clip670)" d="M1016.12 24.6639 L1023.57 24.6639 L1023.57 87.696 L1016.12 87.696 L1016.12 24.6639 Z" fill="#000000" fill-rule="evenodd" fill-opacity="1" /><path clip-path="url(#clip670)" d="M1059.78 64.8894 Q1050.75 64.8894 1047.27 66.9554 Q1043.78 69.0213 1043.78 74.0039 Q1043.78 77.9738 1046.38 80.3234 Q1049.01 82.6324 1053.51 82.6324 Q1059.7 82.6324 1063.43 78.2574 Q1067.2 73.8419 1067.2 66.5503 L1067.2 64.8894 L1059.78 64.8894 M1074.65 61.8107 L1074.65 87.696 L1067.2 87.696 L1067.2 80.8095 Q1064.65 84.9414 1060.84 86.9263 Q1057.03 88.8708 1051.52 88.8708 Q1044.55 88.8708 1040.42 84.9819 Q1036.33 81.0525 1036.33 74.4901 Q1036.33 66.8338 1041.43 62.945 Q1046.58 59.0561 1056.75 59.0561 L1067.2 59.0561 L1067.2 58.3269 Q1067.2 53.1823 1063.79 50.3872 Q1060.43 47.5515 1054.32 47.5515 Q1050.43 47.5515 1046.74 48.4832 Q1043.05 49.415 1039.65 51.2784 L1039.65 44.3918 Q1043.74 42.812 1047.59 42.0423 Q1051.44 41.2321 1055.09 41.2321 Q1064.93 41.2321 1069.79 46.3363 Q1074.65 51.4404 1074.65 61.8107 Z" fill="#000000" fill-rule="evenodd" fill-opacity="1" /><path clip-path="url(#clip670)" d="M1097.38 29.444 L1097.38 42.3259 L1112.73 42.3259 L1112.73 48.1187 L1097.38 48.1187 L1097.38 72.7482 Q1097.38 78.2979 1098.88 79.8778 Q1100.42 81.4576 1105.07 81.4576 L1112.73 81.4576 L1112.73 87.696 L1105.07 87.696 Q1096.45 87.696 1093.16 84.4958 Q1089.88 81.2551 1089.88 72.7482 L1089.88 48.1187 L1084.41 48.1187 L1084.41 42.3259 L1089.88 42.3259 L1089.88 29.444 L1097.38 29.444 Z" fill="#000000" fill-rule="evenodd" fill-opacity="1" /><path clip-path="url(#clip670)" d="M1122.53 42.3259 L1129.99 42.3259 L1129.99 87.696 L1122.53 87.696 L1122.53 42.3259 M1122.53 24.6639 L1129.99 24.6639 L1129.99 34.1025 L1122.53 34.1025 L1122.53 24.6639 Z" fill="#000000" fill-rule="evenodd" fill-opacity="1" /><path clip-path="url(#clip670)" d="M1163.16 47.5515 Q1157.17 47.5515 1153.68 52.2506 Q1150.2 56.9091 1150.2 65.0514 Q1150.2 73.1938 1153.64 77.8928 Q1157.13 82.5514 1163.16 82.5514 Q1169.12 82.5514 1172.6 77.8523 Q1176.09 73.1533 1176.09 65.0514 Q1176.09 56.9901 1172.6 52.2911 Q1169.12 47.5515 1163.16 47.5515 M1163.16 41.2321 Q1172.89 41.2321 1178.44 47.5515 Q1183.99 53.8709 1183.99 65.0514 Q1183.99 76.1914 1178.44 82.5514 Q1172.89 88.8708 1163.16 88.8708 Q1153.4 88.8708 1147.85 82.5514 Q1142.34 76.1914 1142.34 65.0514 Q1142.34 53.8709 1147.85 47.5515 Q1153.4 41.2321 1163.16 41.2321 Z" fill="#000000" fill-rule="evenodd" fill-opacity="1" /><path clip-path="url(#clip670)" d="M1234.05 60.3119 L1234.05 87.696 L1226.6 87.696 L1226.6 60.5549 Q1226.6 54.114 1224.09 50.9138 Q1221.58 47.7136 1216.55 47.7136 Q1210.52 47.7136 1207.03 51.5619 Q1203.55 55.4103 1203.55 62.0538 L1203.55 87.696 L1196.06 87.696 L1196.06 42.3259 L1203.55 42.3259 L1203.55 49.3744 Q1206.22 45.283 1209.83 43.2576 Q1213.48 41.2321 1218.22 41.2321 Q1226.03 41.2321 1230.04 46.0932 Q1234.05 50.9138 1234.05 60.3119 Z" fill="#000000" fill-rule="evenodd" fill-opacity="1" /><path clip-path="url(#clip670)" d="M1295.91 64.8894 Q1286.88 64.8894 1283.39 66.9554 Q1279.91 69.0213 1279.91 74.0039 Q1279.91 77.9738 1282.5 80.3234 Q1285.14 82.6324 1289.63 82.6324 Q1295.83 82.6324 1299.56 78.2574 Q1303.32 73.8419 1303.32 66.5503 L1303.32 64.8894 L1295.91 64.8894 M1310.78 61.8107 L1310.78 87.696 L1303.32 87.696 L1303.32 80.8095 Q1300.77 84.9414 1296.96 86.9263 Q1293.16 88.8708 1287.65 88.8708 Q1280.68 88.8708 1276.55 84.9819 Q1272.46 81.0525 1272.46 74.4901 Q1272.46 66.8338 1277.56 62.945 Q1282.71 59.0561 1292.87 59.0561 L1303.32 59.0561 L1303.32 58.3269 Q1303.32 53.1823 1299.92 50.3872 Q1296.56 47.5515 1290.44 47.5515 Q1286.55 47.5515 1282.87 48.4832 Q1279.18 49.415 1275.78 51.2784 L1275.78 44.3918 Q1279.87 42.812 1283.72 42.0423 Q1287.57 41.2321 1291.21 41.2321 Q1301.06 41.2321 1305.92 46.3363 Q1310.78 51.4404 1310.78 61.8107 Z" fill="#000000" fill-rule="evenodd" fill-opacity="1" /><path clip-path="url(#clip670)" d="M1363.85 60.3119 L1363.85 87.696 L1356.39 87.696 L1356.39 60.5549 Q1356.39 54.114 1353.88 50.9138 Q1351.37 47.7136 1346.35 47.7136 Q1340.31 47.7136 1336.83 51.5619 Q1333.34 55.4103 1333.34 62.0538 L1333.34 87.696 L1325.85 87.696 L1325.85 42.3259 L1333.34 42.3259 L1333.34 49.3744 Q1336.02 45.283 1339.62 43.2576 Q1343.27 41.2321 1348.01 41.2321 Q1355.82 41.2321 1359.83 46.0932 Q1363.85 50.9138 1363.85 60.3119 Z" fill="#000000" fill-rule="evenodd" fill-opacity="1" /><path clip-path="url(#clip670)" d="M1408.57 49.2124 L1408.57 24.6639 L1416.02 24.6639 L1416.02 87.696 L1408.57 87.696 L1408.57 80.8905 Q1406.22 84.9414 1402.61 86.9263 Q1399.05 88.8708 1394.02 88.8708 Q1385.8 88.8708 1380.62 82.3083 Q1375.47 75.7458 1375.47 65.0514 Q1375.47 54.3571 1380.62 47.7946 Q1385.8 41.2321 1394.02 41.2321 Q1399.05 41.2321 1402.61 43.2171 Q1406.22 45.1615 1408.57 49.2124 M1383.17 65.0514 Q1383.17 73.2748 1386.53 77.9738 Q1389.93 82.6324 1395.85 82.6324 Q1401.76 82.6324 1405.16 77.9738 Q1408.57 73.2748 1408.57 65.0514 Q1408.57 56.8281 1405.16 52.1696 Q1401.76 47.4705 1395.85 47.4705 Q1389.93 47.4705 1386.53 52.1696 Q1383.17 56.8281 1383.17 65.0514 Z" fill="#000000" fill-rule="evenodd" fill-opacity="1" /><path clip-path="url(#clip670)" d="M1503.36 31.8745 L1503.36 40.503 Q1499.23 36.6546 1494.53 34.7507 Q1489.87 32.8468 1484.6 32.8468 Q1474.23 32.8468 1468.72 39.2067 Q1463.21 45.5261 1463.21 57.5168 Q1463.21 69.4669 1468.72 75.8269 Q1474.23 82.1463 1484.6 82.1463 Q1489.87 82.1463 1494.53 80.2423 Q1499.23 78.3384 1503.36 74.4901 L1503.36 83.0375 Q1499.06 85.9541 1494.24 87.4124 Q1489.46 88.8708 1484.12 88.8708 Q1470.38 88.8708 1462.48 80.4854 Q1454.59 72.0595 1454.59 57.5168 Q1454.59 42.9335 1462.48 34.5481 Q1470.38 26.1223 1484.12 26.1223 Q1489.54 26.1223 1494.33 27.5806 Q1499.15 28.9984 1503.36 31.8745 Z" fill="#000000" fill-rule="evenodd" fill-opacity="1" /><path clip-path="url(#clip670)" d="M1541.96 49.2934 Q1540.71 48.5643 1539.21 48.2402 Q1537.75 47.8756 1535.97 47.8756 Q1529.65 47.8756 1526.25 52.0075 Q1522.88 56.0989 1522.88 63.7957 L1522.88 87.696 L1515.39 87.696 L1515.39 42.3259 L1522.88 42.3259 L1522.88 49.3744 Q1525.23 45.2425 1529 43.2576 Q1532.77 41.2321 1538.16 41.2321 Q1538.93 41.2321 1539.86 41.3537 Q1540.79 41.4347 1541.92 41.6372 L1541.96 49.2934 Z" fill="#000000" fill-rule="evenodd" fill-opacity="1" /><path clip-path="url(#clip670)" d="M1549.78 42.3259 L1557.24 42.3259 L1557.24 87.696 L1549.78 87.696 L1549.78 42.3259 M1549.78 24.6639 L1557.24 24.6639 L1557.24 34.1025 L1549.78 34.1025 L1549.78 24.6639 Z" fill="#000000" fill-rule="evenodd" fill-opacity="1" /><path clip-path="url(#clip670)" d="M1580.2 29.444 L1580.2 42.3259 L1595.56 42.3259 L1595.56 48.1187 L1580.2 48.1187 L1580.2 72.7482 Q1580.2 78.2979 1581.7 79.8778 Q1583.24 81.4576 1587.9 81.4576 L1595.56 81.4576 L1595.56 87.696 L1587.9 87.696 Q1579.27 87.696 1575.99 84.4958 Q1572.71 81.2551 1572.71 72.7482 L1572.71 48.1187 L1567.24 48.1187 L1567.24 42.3259 L1572.71 42.3259 L1572.71 29.444 L1580.2 29.444 Z" fill="#000000" fill-rule="evenodd" fill-opacity="1" /><path clip-path="url(#clip670)" d="M1605.36 42.3259 L1612.81 42.3259 L1612.81 87.696 L1605.36 87.696 L1605.36 42.3259 M1605.36 24.6639 L1612.81 24.6639 L1612.81 34.1025 L1605.36 34.1025 L1605.36 24.6639 Z" fill="#000000" fill-rule="evenodd" fill-opacity="1" /><path clip-path="url(#clip670)" d="M1661.06 44.0678 L1661.06 51.0353 Q1657.9 49.2934 1654.7 48.4427 Q1651.54 47.5515 1648.3 47.5515 Q1641.05 47.5515 1637.04 52.1696 Q1633.03 56.7471 1633.03 65.0514 Q1633.03 73.3558 1637.04 77.9738 Q1641.05 82.5514 1648.3 82.5514 Q1651.54 82.5514 1654.7 81.7007 Q1657.9 80.8095 1661.06 79.0676 L1661.06 85.9541 Q1657.94 87.4124 1654.58 88.1416 Q1651.26 88.8708 1647.49 88.8708 Q1637.24 88.8708 1631.21 82.4298 Q1625.17 75.9889 1625.17 65.0514 Q1625.17 53.952 1631.25 47.592 Q1637.36 41.2321 1647.98 41.2321 Q1651.42 41.2321 1654.7 41.9613 Q1657.98 42.6499 1661.06 44.0678 Z" fill="#000000" fill-rule="evenodd" fill-opacity="1" /><path clip-path="url(#clip670)" d="M1694.64 64.8894 Q1685.61 64.8894 1682.12 66.9554 Q1678.64 69.0213 1678.64 74.0039 Q1678.64 77.9738 1681.23 80.3234 Q1683.87 82.6324 1688.36 82.6324 Q1694.56 82.6324 1698.29 78.2574 Q1702.06 73.8419 1702.06 66.5503 L1702.06 64.8894 L1694.64 64.8894 M1709.51 61.8107 L1709.51 87.696 L1702.06 87.696 L1702.06 80.8095 Q1699.5 84.9414 1695.7 86.9263 Q1691.89 88.8708 1686.38 88.8708 Q1679.41 88.8708 1675.28 84.9819 Q1671.19 81.0525 1671.19 74.4901 Q1671.19 66.8338 1676.29 62.945 Q1681.44 59.0561 1691.6 59.0561 L1702.06 59.0561 L1702.06 58.3269 Q1702.06 53.1823 1698.65 50.3872 Q1695.29 47.5515 1689.17 47.5515 Q1685.28 47.5515 1681.6 48.4832 Q1677.91 49.415 1674.51 51.2784 L1674.51 44.3918 Q1678.6 42.812 1682.45 42.0423 Q1686.3 41.2321 1689.94 41.2321 Q1699.79 41.2321 1704.65 46.3363 Q1709.51 51.4404 1709.51 61.8107 Z" fill="#000000" fill-rule="evenodd" fill-opacity="1" /><path clip-path="url(#clip670)" d="M1724.86 24.6639 L1732.32 24.6639 L1732.32 87.696 L1724.86 87.696 L1724.86 24.6639 Z" fill="#000000" fill-rule="evenodd" fill-opacity="1" /><path clip-path="url(#clip670)" d="M1766.22 27.216 L1817.38 27.216 L1817.38 34.1025 L1795.91 34.1025 L1795.91 87.696 L1787.69 87.696 L1787.69 34.1025 L1766.22 34.1025 L1766.22 27.216 Z" fill="#000000" fill-rule="evenodd" fill-opacity="1" /><path clip-path="url(#clip670)" d="M1862.67 60.3119 L1862.67 87.696 L1855.22 87.696 L1855.22 60.5549 Q1855.22 54.114 1852.71 50.9138 Q1850.2 47.7136 1845.17 47.7136 Q1839.14 47.7136 1835.65 51.5619 Q1832.17 55.4103 1832.17 62.0538 L1832.17 87.696 L1824.68 87.696 L1824.68 24.6639 L1832.17 24.6639 L1832.17 49.3744 Q1834.84 45.283 1838.45 43.2576 Q1842.1 41.2321 1846.83 41.2321 Q1854.65 41.2321 1858.66 46.0932 Q1862.67 50.9138 1862.67 60.3119 Z" fill="#000000" fill-rule="evenodd" fill-opacity="1" /><path clip-path="url(#clip670)" d="M1903.83 49.2934 Q1902.58 48.5643 1901.08 48.2402 Q1899.62 47.8756 1897.84 47.8756 Q1891.52 47.8756 1888.11 52.0075 Q1884.75 56.0989 1884.75 63.7957 L1884.75 87.696 L1877.26 87.696 L1877.26 42.3259 L1884.75 42.3259 L1884.75 49.3744 Q1887.1 45.2425 1890.87 43.2576 Q1894.64 41.2321 1900.02 41.2321 Q1900.79 41.2321 1901.72 41.3537 Q1902.66 41.4347 1903.79 41.6372 L1903.83 49.2934 Z" fill="#000000" fill-rule="evenodd" fill-opacity="1" /><path clip-path="url(#clip670)" d="M1948.63 63.1475 L1948.63 66.7933 L1914.36 66.7933 Q1914.85 74.4901 1918.98 78.541 Q1923.15 82.5514 1930.57 82.5514 Q1934.86 82.5514 1938.87 81.4981 Q1942.92 80.4449 1946.89 78.3384 L1946.89 85.387 Q1942.88 87.0884 1938.67 87.9796 Q1934.46 88.8708 1930.12 88.8708 Q1919.26 88.8708 1912.9 82.5514 Q1906.59 76.2319 1906.59 65.4565 Q1906.59 54.3165 1912.58 47.7946 Q1918.62 41.2321 1928.83 41.2321 Q1937.98 41.2321 1943.29 47.1464 Q1948.63 53.0203 1948.63 63.1475 M1941.18 60.96 Q1941.1 54.8432 1937.74 51.1974 Q1934.42 47.5515 1928.91 47.5515 Q1922.67 47.5515 1918.9 51.0758 Q1915.17 54.6001 1914.61 61.0005 L1941.18 60.96 Z" fill="#000000" fill-rule="evenodd" fill-opacity="1" /><path clip-path="url(#clip670)" d="M1989.79 43.6627 L1989.79 50.7112 Q1986.63 49.0909 1983.23 48.2807 Q1979.83 47.4705 1976.18 47.4705 Q1970.63 47.4705 1967.84 49.1719 Q1965.08 50.8733 1965.08 54.276 Q1965.08 56.8686 1967.07 58.3675 Q1969.05 59.8258 1975.05 61.1626 L1977.6 61.7297 Q1985.54 63.4311 1988.86 66.5503 Q1992.22 69.629 1992.22 75.1787 Q1992.22 81.4981 1987.2 85.1844 Q1982.22 88.8708 1973.47 88.8708 Q1969.82 88.8708 1965.85 88.1416 Q1961.92 87.4529 1957.55 86.0351 L1957.55 78.3384 Q1961.68 80.4854 1965.69 81.5791 Q1969.7 82.6324 1973.63 82.6324 Q1978.89 82.6324 1981.73 80.85 Q1984.57 79.0271 1984.57 75.7458 Q1984.57 72.7077 1982.5 71.0873 Q1980.47 69.4669 1973.55 67.9681 L1970.95 67.3605 Q1964.03 65.9021 1960.95 62.9045 Q1957.87 59.8663 1957.87 54.6001 Q1957.87 48.1997 1962.41 44.7159 Q1966.94 41.2321 1975.29 41.2321 Q1979.42 41.2321 1983.07 41.8398 Q1986.71 42.4474 1989.79 43.6627 Z" fill="#000000" fill-rule="evenodd" fill-opacity="1" /><path clip-path="url(#clip670)" d="M2041.8 60.3119 L2041.8 87.696 L2034.35 87.696 L2034.35 60.5549 Q2034.35 54.114 2031.84 50.9138 Q2029.33 47.7136 2024.3 47.7136 Q2018.27 47.7136 2014.79 51.5619 Q2011.3 55.4103 2011.3 62.0538 L2011.3 87.696 L2003.81 87.696 L2003.81 24.6639 L2011.3 24.6639 L2011.3 49.3744 Q2013.98 45.283 2017.58 43.2576 Q2021.23 41.2321 2025.97 41.2321 Q2033.78 41.2321 2037.79 46.0932 Q2041.8 50.9138 2041.8 60.3119 Z" fill="#000000" fill-rule="evenodd" fill-opacity="1" /><path clip-path="url(#clip670)" d="M2074.25 47.5515 Q2068.26 47.5515 2064.77 52.2506 Q2061.29 56.9091 2061.29 65.0514 Q2061.29 73.1938 2064.73 77.8928 Q2068.22 82.5514 2074.25 82.5514 Q2080.21 82.5514 2083.69 77.8523 Q2087.17 73.1533 2087.17 65.0514 Q2087.17 56.9901 2083.69 52.2911 Q2080.21 47.5515 2074.25 47.5515 M2074.25 41.2321 Q2083.97 41.2321 2089.52 47.5515 Q2095.07 53.8709 2095.07 65.0514 Q2095.07 76.1914 2089.52 82.5514 Q2083.97 88.8708 2074.25 88.8708 Q2064.49 88.8708 2058.94 82.5514 Q2053.43 76.1914 2053.43 65.0514 Q2053.43 53.8709 2058.94 47.5515 Q2064.49 41.2321 2074.25 41.2321 Z" fill="#000000" fill-rule="evenodd" fill-opacity="1" /><path clip-path="url(#clip670)" d="M2107.43 24.6639 L2114.88 24.6639 L2114.88 87.696 L2107.43 87.696 L2107.43 24.6639 Z" fill="#000000" fill-rule="evenodd" fill-opacity="1" /><path clip-path="url(#clip670)" d="M2160.33 49.2124 L2160.33 24.6639 L2167.79 24.6639 L2167.79 87.696 L2160.33 87.696 L2160.33 80.8905 Q2157.98 84.9414 2154.38 86.9263 Q2150.81 88.8708 2145.79 88.8708 Q2137.57 88.8708 2132.38 82.3083 Q2127.24 75.7458 2127.24 65.0514 Q2127.24 54.3571 2132.38 47.7946 Q2137.57 41.2321 2145.79 41.2321 Q2150.81 41.2321 2154.38 43.2171 Q2157.98 45.1615 2160.33 49.2124 M2134.94 65.0514 Q2134.94 73.2748 2138.3 77.9738 Q2141.7 82.6324 2147.61 82.6324 Q2153.53 82.6324 2156.93 77.9738 Q2160.33 73.2748 2160.33 65.0514 Q2160.33 56.8281 2156.93 52.1696 Q2153.53 47.4705 2147.61 47.4705 Q2141.7 47.4705 2138.3 52.1696 Q2134.94 56.8281 2134.94 65.0514 Z" fill="#000000" fill-rule="evenodd" fill-opacity="1" /><path clip-path="url(#clip670)" d="M1189.98 155.771 Q1189.98 147.548 1186.58 142.89 Q1183.22 138.191 1177.3 138.191 Q1171.39 138.191 1167.98 142.89 Q1164.62 147.548 1164.62 155.771 Q1164.62 163.995 1167.98 168.694 Q1171.39 173.352 1177.3 173.352 Q1183.22 173.352 1186.58 168.694 Q1189.98 163.995 1189.98 155.771 M1164.62 139.932 Q1166.97 135.882 1170.54 133.937 Q1174.14 131.952 1179.12 131.952 Q1187.39 131.952 1192.53 138.515 Q1197.72 145.077 1197.72 155.771 Q1197.72 166.466 1192.53 173.028 Q1187.39 179.591 1179.12 179.591 Q1174.14 179.591 1170.54 177.646 Q1166.97 175.661 1164.62 171.61 L1164.62 178.416 L1157.13 178.416 L1157.13 115.384 L1164.62 115.384 L1164.62 139.932 Z" fill="#000000" fill-rule="evenodd" fill-opacity="1" /><path clip-path="url(#clip670)" d="M1228.95 182.629 Q1225.79 190.731 1222.79 193.202 Q1219.8 195.673 1214.77 195.673 L1208.82 195.673 L1208.82 189.434 L1213.19 189.434 Q1216.27 189.434 1217.97 187.976 Q1219.67 186.518 1221.74 181.09 L1223.08 177.687 L1204.73 133.046 L1212.63 133.046 L1226.8 168.532 L1240.98 133.046 L1248.88 133.046 L1228.95 182.629 Z" fill="#000000" fill-rule="evenodd" fill-opacity="1" /><path clip-path="url(#clip670)" d="M1306.08 125.997 L1294.98 156.096 L1317.22 156.096 L1306.08 125.997 M1301.46 117.936 L1310.74 117.936 L1333.79 178.416 L1325.28 178.416 L1319.77 162.901 L1292.51 162.901 L1287 178.416 L1278.37 178.416 L1301.46 117.936 Z" fill="#000000" fill-rule="evenodd" fill-opacity="1" /><path clip-path="url(#clip670)" d="M1342.29 115.384 L1349.75 115.384 L1349.75 178.416 L1342.29 178.416 L1342.29 115.384 Z" fill="#000000" fill-rule="evenodd" fill-opacity="1" /><path clip-path="url(#clip670)" d="M1372.72 120.164 L1372.72 133.046 L1388.07 133.046 L1388.07 138.839 L1372.72 138.839 L1372.72 163.468 Q1372.72 169.018 1374.22 170.598 Q1375.76 172.178 1380.41 172.178 L1388.07 172.178 L1388.07 178.416 L1380.41 178.416 Q1371.79 178.416 1368.5 175.216 Q1365.22 171.975 1365.22 163.468 L1365.22 138.839 L1359.75 138.839 L1359.75 133.046 L1365.22 133.046 L1365.22 120.164 L1372.72 120.164 Z" fill="#000000" fill-rule="evenodd" fill-opacity="1" /><path clip-path="url(#clip670)" d="M1397.87 133.046 L1405.33 133.046 L1405.33 178.416 L1397.87 178.416 L1397.87 133.046 M1397.87 115.384 L1405.33 115.384 L1405.33 124.823 L1397.87 124.823 L1397.87 115.384 Z" fill="#000000" fill-rule="evenodd" fill-opacity="1" /><path clip-path="url(#clip670)" d="M1428.3 120.164 L1428.3 133.046 L1443.65 133.046 L1443.65 138.839 L1428.3 138.839 L1428.3 163.468 Q1428.3 169.018 1429.79 170.598 Q1431.33 172.178 1435.99 172.178 L1443.65 172.178 L1443.65 178.416 L1435.99 178.416 Q1427.36 178.416 1424.08 175.216 Q1420.8 171.975 1420.8 163.468 L1420.8 138.839 L1415.33 138.839 L1415.33 133.046 L1420.8 133.046 L1420.8 120.164 L1428.3 120.164 Z" fill="#000000" fill-rule="evenodd" fill-opacity="1" /><path clip-path="url(#clip670)" d="M1452.68 160.511 L1452.68 133.046 L1460.14 133.046 L1460.14 160.227 Q1460.14 166.668 1462.65 169.909 Q1465.16 173.109 1470.18 173.109 Q1476.22 173.109 1479.7 169.261 Q1483.23 165.413 1483.23 158.769 L1483.23 133.046 L1490.68 133.046 L1490.68 178.416 L1483.23 178.416 L1483.23 171.448 Q1480.51 175.58 1476.91 177.606 Q1473.34 179.591 1468.6 179.591 Q1460.78 179.591 1456.73 174.73 Q1452.68 169.869 1452.68 160.511 M1471.44 131.952 L1471.44 131.952 Z" fill="#000000" fill-rule="evenodd" fill-opacity="1" /><path clip-path="url(#clip670)" d="M1535.89 139.932 L1535.89 115.384 L1543.34 115.384 L1543.34 178.416 L1535.89 178.416 L1535.89 171.61 Q1533.54 175.661 1529.93 177.646 Q1526.37 179.591 1521.34 179.591 Q1513.12 179.591 1507.94 173.028 Q1502.79 166.466 1502.79 155.771 Q1502.79 145.077 1507.94 138.515 Q1513.12 131.952 1521.34 131.952 Q1526.37 131.952 1529.93 133.937 Q1533.54 135.882 1535.89 139.932 M1510.49 155.771 Q1510.49 163.995 1513.85 168.694 Q1517.25 173.352 1523.17 173.352 Q1529.08 173.352 1532.48 168.694 Q1535.89 163.995 1535.89 155.771 Q1535.89 147.548 1532.48 142.89 Q1529.08 138.191 1523.17 138.191 Q1517.25 138.191 1513.85 142.89 Q1510.49 147.548 1510.49 155.771 Z" fill="#000000" fill-rule="evenodd" fill-opacity="1" /><path clip-path="url(#clip670)" d="M1597.5 153.868 L1597.5 157.513 L1563.23 157.513 Q1563.72 165.21 1567.85 169.261 Q1572.02 173.271 1579.43 173.271 Q1583.73 173.271 1587.74 172.218 Q1591.79 171.165 1595.76 169.058 L1595.76 176.107 Q1591.75 177.808 1587.54 178.7 Q1583.32 179.591 1578.99 179.591 Q1568.13 179.591 1561.77 173.271 Q1555.45 166.952 1555.45 156.177 Q1555.45 145.037 1561.45 138.515 Q1567.48 131.952 1577.69 131.952 Q1586.85 131.952 1592.15 137.866 Q1597.5 143.74 1597.5 153.868 M1590.05 151.68 Q1589.97 145.563 1586.6 141.917 Q1583.28 138.272 1577.77 138.272 Q1571.54 138.272 1567.77 141.796 Q1564.04 145.32 1563.47 151.721 L1590.05 151.68 Z" fill="#000000" fill-rule="evenodd" fill-opacity="1" /><polyline clip-path="url(#clip672)" style="stroke:#8b0000; stroke-linecap:butt; stroke-linejoin:round; stroke-width:4; stroke-opacity:1; fill:none" points="
  326.618,219.025 367.967,760.752 409.317,920.748 450.667,1034.23 492.017,1087.57 533.366,1135.91 574.716,1183.35 616.066,1241.41 657.416,1272.87 698.765,1294.54 
  740.115,1308.44 781.465,1319.41 822.815,1328.45 864.164,1333.41 905.514,1339.1 946.864,1346.57 988.214,1353.65 1029.56,1359.36 1070.91,1364.62 1112.26,1372.24 
  1153.61,1376.96 1194.96,1379.13 1236.31,1379.63 1277.66,1380.14 1319.01,1380.8 1360.36,1381.83 1401.71,1382.23 1443.06,1382.64 1484.41,1383.1 1525.76,1383.66 
  1567.11,1384.31 1608.46,1384.82 1649.81,1385.38 1691.16,1385.85 1732.51,1386.14 1773.86,1386.29 1815.21,1386.38 1856.56,1386.48 1897.91,1386.64 1939.26,1386.76 
  1980.61,1386.82 2021.96,1386.82 2063.31,1386.82 2104.66,1386.81 2146.01,1386.79 2187.36,1386.77 2228.71,1386.75 2270.06,1386.73 2311.41,1386.72 2352.76,1386.7 
  
  "/>
<polyline clip-path="url(#clip672)" style="stroke:#0000ff; stroke-linecap:butt; stroke-linejoin:round; stroke-width:4; stroke-opacity:1; fill:none" points="
  326.618,1388.11 367.967,1388.11 409.317,1387.82 450.667,1388.03 492.017,1387.82 533.366,1386.21 574.716,1381.99 616.066,1368 657.416,1363.05 698.765,1317.15 
  740.115,1271.19 781.465,1263.9 822.815,1316.21 864.164,1328.15 905.514,1311.98 946.864,1276.72 988.214,1265 1029.56,1288.23 1070.91,1322.18 1112.26,1328.08 
  1153.61,1347.68 1194.96,1360.72 1236.31,1366.84 1277.66,1369.9 1319.01,1355.54 1360.36,1370.48 1401.71,1375.87 1443.06,1377.54 1484.41,1359.26 1525.76,1354.16 
  1567.11,1362.68 1608.46,1378.2 1649.81,1380.82 1691.16,1381.99 1732.51,1383.59 1773.86,1385.41 1815.21,1386.14 1856.56,1385.48 1897.91,1385.78 1939.26,1385.99 
  1980.61,1385.92 2021.96,1386.14 2063.31,1386.14 2104.66,1387.16 2146.01,1387.45 2187.36,1387.6 2228.71,1387.45 2270.06,1387.6 2311.41,1387.45 2352.76,1387.38 
  
  "/>
<path clip-path="url(#clip670)" d="
M1639.05 380.78 L2286.6 380.78 L2286.6 225.26 L1639.05 225.26  Z
  " fill="#ffffff" fill-rule="evenodd" fill-opacity="1"/>
<polyline clip-path="url(#clip670)" style="stroke:#000000; stroke-linecap:butt; stroke-linejoin:round; stroke-width:4; stroke-opacity:1; fill:none" points="
  1639.05,380.78 2286.6,380.78 2286.6,225.26 1639.05,225.26 1639.05,380.78 
  "/>
<polyline clip-path="url(#clip670)" style="stroke:#8b0000; stroke-linecap:butt; stroke-linejoin:round; stroke-width:4; stroke-opacity:1; fill:none" points="
  1663.05,277.1 1807.05,277.1 
  "/>
<path clip-path="url(#clip670)" d="M1858.92 262.482 L1858.92 267.412 Q1856.56 265.213 1853.88 264.125 Q1851.21 263.037 1848.2 263.037 Q1842.28 263.037 1839.13 266.672 Q1835.98 270.283 1835.98 277.134 Q1835.98 283.963 1839.13 287.597 Q1842.28 291.208 1848.2 291.208 Q1851.21 291.208 1853.88 290.12 Q1856.56 289.033 1858.92 286.833 L1858.92 291.718 Q1856.47 293.384 1853.71 294.218 Q1850.98 295.051 1847.93 295.051 Q1840.08 295.051 1835.57 290.259 Q1831.05 285.445 1831.05 277.134 Q1831.05 268.801 1835.57 264.01 Q1840.08 259.195 1847.93 259.195 Q1851.03 259.195 1853.76 260.028 Q1856.52 260.838 1858.92 262.482 Z" fill="#000000" fill-rule="evenodd" fill-opacity="1" /><path clip-path="url(#clip670)" d="M1880.98 272.435 Q1880.26 272.019 1879.41 271.834 Q1878.58 271.625 1877.56 271.625 Q1873.95 271.625 1872 273.986 Q1870.08 276.324 1870.08 280.722 L1870.08 294.38 L1865.8 294.38 L1865.8 268.454 L1870.08 268.454 L1870.08 272.482 Q1871.42 270.121 1873.58 268.986 Q1875.73 267.829 1878.81 267.829 Q1879.25 267.829 1879.78 267.898 Q1880.31 267.945 1880.96 268.06 L1880.98 272.435 Z" fill="#000000" fill-rule="evenodd" fill-opacity="1" /><path clip-path="url(#clip670)" d="M1885.45 268.454 L1889.71 268.454 L1889.71 294.38 L1885.45 294.38 L1885.45 268.454 M1885.45 258.361 L1889.71 258.361 L1889.71 263.755 L1885.45 263.755 L1885.45 258.361 Z" fill="#000000" fill-rule="evenodd" fill-opacity="1" /><path clip-path="url(#clip670)" d="M1902.83 261.093 L1902.83 268.454 L1911.61 268.454 L1911.61 271.764 L1902.83 271.764 L1902.83 285.838 Q1902.83 289.009 1903.69 289.912 Q1904.57 290.815 1907.23 290.815 L1911.61 290.815 L1911.61 294.38 L1907.23 294.38 Q1902.3 294.38 1900.43 292.551 Q1898.55 290.699 1898.55 285.838 L1898.55 271.764 L1895.43 271.764 L1895.43 268.454 L1898.55 268.454 L1898.55 261.093 L1902.83 261.093 Z" fill="#000000" fill-rule="evenodd" fill-opacity="1" /><path clip-path="url(#clip670)" d="M1917.21 268.454 L1921.47 268.454 L1921.47 294.38 L1917.21 294.38 L1917.21 268.454 M1917.21 258.361 L1921.47 258.361 L1921.47 263.755 L1917.21 263.755 L1917.21 258.361 Z" fill="#000000" fill-rule="evenodd" fill-opacity="1" /><path clip-path="url(#clip670)" d="M1949.04 269.449 L1949.04 273.431 Q1947.23 272.435 1945.4 271.949 Q1943.6 271.44 1941.75 271.44 Q1937.6 271.44 1935.31 274.079 Q1933.02 276.695 1933.02 281.44 Q1933.02 286.185 1935.31 288.824 Q1937.6 291.44 1941.75 291.44 Q1943.6 291.44 1945.4 290.954 Q1947.23 290.445 1949.04 289.449 L1949.04 293.384 Q1947.26 294.218 1945.33 294.634 Q1943.44 295.051 1941.28 295.051 Q1935.43 295.051 1931.98 291.37 Q1928.53 287.69 1928.53 281.44 Q1928.53 275.097 1932 271.463 Q1935.5 267.829 1941.56 267.829 Q1943.53 267.829 1945.4 268.246 Q1947.28 268.639 1949.04 269.449 Z" fill="#000000" fill-rule="evenodd" fill-opacity="1" /><path clip-path="url(#clip670)" d="M1968.23 281.347 Q1963.07 281.347 1961.07 282.528 Q1959.08 283.708 1959.08 286.556 Q1959.08 288.824 1960.57 290.167 Q1962.07 291.486 1964.64 291.486 Q1968.18 291.486 1970.31 288.986 Q1972.46 286.463 1972.46 282.296 L1972.46 281.347 L1968.23 281.347 M1976.72 279.588 L1976.72 294.38 L1972.46 294.38 L1972.46 290.445 Q1971.01 292.806 1968.83 293.94 Q1966.65 295.051 1963.51 295.051 Q1959.52 295.051 1957.16 292.829 Q1954.82 290.583 1954.82 286.833 Q1954.82 282.458 1957.74 280.236 Q1960.68 278.014 1966.49 278.014 L1972.46 278.014 L1972.46 277.597 Q1972.46 274.658 1970.52 273.06 Q1968.6 271.44 1965.1 271.44 Q1962.88 271.44 1960.77 271.972 Q1958.67 272.505 1956.72 273.57 L1956.72 269.634 Q1959.06 268.732 1961.26 268.292 Q1963.46 267.829 1965.54 267.829 Q1971.17 267.829 1973.94 270.746 Q1976.72 273.662 1976.72 279.588 Z" fill="#000000" fill-rule="evenodd" fill-opacity="1" /><path clip-path="url(#clip670)" d="M1985.5 258.361 L1989.76 258.361 L1989.76 294.38 L1985.5 294.38 L1985.5 258.361 Z" fill="#000000" fill-rule="evenodd" fill-opacity="1" /><path clip-path="url(#clip670)" d="M2009.13 259.82 L2038.37 259.82 L2038.37 263.755 L2026.1 263.755 L2026.1 294.38 L2021.4 294.38 L2021.4 263.755 L2009.13 263.755 L2009.13 259.82 Z" fill="#000000" fill-rule="evenodd" fill-opacity="1" /><path clip-path="url(#clip670)" d="M2064.25 278.732 L2064.25 294.38 L2059.99 294.38 L2059.99 278.871 Q2059.99 275.19 2058.55 273.361 Q2057.12 271.533 2054.25 271.533 Q2050.8 271.533 2048.81 273.732 Q2046.81 275.931 2046.81 279.727 L2046.81 294.38 L2042.53 294.38 L2042.53 258.361 L2046.81 258.361 L2046.81 272.482 Q2048.34 270.144 2050.4 268.986 Q2052.49 267.829 2055.19 267.829 Q2059.66 267.829 2061.95 270.607 Q2064.25 273.361 2064.25 278.732 Z" fill="#000000" fill-rule="evenodd" fill-opacity="1" /><path clip-path="url(#clip670)" d="M2087.76 272.435 Q2087.05 272.019 2086.19 271.834 Q2085.36 271.625 2084.34 271.625 Q2080.73 271.625 2078.78 273.986 Q2076.86 276.324 2076.86 280.722 L2076.86 294.38 L2072.58 294.38 L2072.58 268.454 L2076.86 268.454 L2076.86 272.482 Q2078.2 270.121 2080.36 268.986 Q2082.51 267.829 2085.59 267.829 Q2086.03 267.829 2086.56 267.898 Q2087.09 267.945 2087.74 268.06 L2087.76 272.435 Z" fill="#000000" fill-rule="evenodd" fill-opacity="1" /><path clip-path="url(#clip670)" d="M2113.37 280.352 L2113.37 282.435 L2093.78 282.435 Q2094.06 286.833 2096.42 289.148 Q2098.81 291.44 2103.04 291.44 Q2105.5 291.44 2107.79 290.838 Q2110.1 290.236 2112.37 289.033 L2112.37 293.06 Q2110.08 294.032 2107.67 294.542 Q2105.26 295.051 2102.79 295.051 Q2096.58 295.051 2092.95 291.44 Q2089.34 287.829 2089.34 281.671 Q2089.34 275.306 2092.76 271.579 Q2096.21 267.829 2102.05 267.829 Q2107.28 267.829 2110.31 271.209 Q2113.37 274.565 2113.37 280.352 M2109.11 279.102 Q2109.06 275.607 2107.14 273.523 Q2105.24 271.44 2102.09 271.44 Q2098.53 271.44 2096.37 273.454 Q2094.25 275.468 2093.92 279.125 L2109.11 279.102 Z" fill="#000000" fill-rule="evenodd" fill-opacity="1" /><path clip-path="url(#clip670)" d="M2136.88 269.218 L2136.88 273.246 Q2135.08 272.32 2133.13 271.857 Q2131.19 271.394 2129.11 271.394 Q2125.93 271.394 2124.34 272.366 Q2122.76 273.338 2122.76 275.283 Q2122.76 276.764 2123.9 277.621 Q2125.03 278.454 2128.46 279.218 L2129.92 279.542 Q2134.45 280.514 2136.35 282.296 Q2138.27 284.056 2138.27 287.227 Q2138.27 290.838 2135.4 292.945 Q2132.56 295.051 2127.56 295.051 Q2125.47 295.051 2123.2 294.634 Q2120.96 294.241 2118.46 293.431 L2118.46 289.033 Q2120.82 290.259 2123.11 290.884 Q2125.4 291.486 2127.65 291.486 Q2130.66 291.486 2132.28 290.468 Q2133.9 289.426 2133.9 287.551 Q2133.9 285.815 2132.72 284.889 Q2131.56 283.963 2127.6 283.107 L2126.12 282.759 Q2122.16 281.926 2120.4 280.213 Q2118.64 278.477 2118.64 275.468 Q2118.64 271.81 2121.24 269.82 Q2123.83 267.829 2128.6 267.829 Q2130.96 267.829 2133.04 268.176 Q2135.12 268.523 2136.88 269.218 Z" fill="#000000" fill-rule="evenodd" fill-opacity="1" /><path clip-path="url(#clip670)" d="M2166.61 278.732 L2166.61 294.38 L2162.35 294.38 L2162.35 278.871 Q2162.35 275.19 2160.91 273.361 Q2159.48 271.533 2156.61 271.533 Q2153.16 271.533 2151.17 273.732 Q2149.18 275.931 2149.18 279.727 L2149.18 294.38 L2144.89 294.38 L2144.89 258.361 L2149.18 258.361 L2149.18 272.482 Q2150.7 270.144 2152.76 268.986 Q2154.85 267.829 2157.56 267.829 Q2162.02 267.829 2164.31 270.607 Q2166.61 273.361 2166.61 278.732 Z" fill="#000000" fill-rule="evenodd" fill-opacity="1" /><path clip-path="url(#clip670)" d="M2185.15 271.44 Q2181.72 271.44 2179.73 274.125 Q2177.74 276.787 2177.74 281.44 Q2177.74 286.093 2179.71 288.778 Q2181.7 291.44 2185.15 291.44 Q2188.55 291.44 2190.54 288.755 Q2192.53 286.07 2192.53 281.44 Q2192.53 276.834 2190.54 274.148 Q2188.55 271.44 2185.15 271.44 M2185.15 267.829 Q2190.7 267.829 2193.87 271.44 Q2197.05 275.051 2197.05 281.44 Q2197.05 287.806 2193.87 291.44 Q2190.7 295.051 2185.15 295.051 Q2179.57 295.051 2176.4 291.44 Q2173.25 287.806 2173.25 281.44 Q2173.25 275.051 2176.4 271.44 Q2179.57 267.829 2185.15 267.829 Z" fill="#000000" fill-rule="evenodd" fill-opacity="1" /><path clip-path="url(#clip670)" d="M2204.11 258.361 L2208.36 258.361 L2208.36 294.38 L2204.11 294.38 L2204.11 258.361 Z" fill="#000000" fill-rule="evenodd" fill-opacity="1" /><path clip-path="url(#clip670)" d="M2234.34 272.389 L2234.34 258.361 L2238.6 258.361 L2238.6 294.38 L2234.34 294.38 L2234.34 290.491 Q2232.99 292.806 2230.93 293.94 Q2228.9 295.051 2226.03 295.051 Q2221.33 295.051 2218.36 291.301 Q2215.43 287.551 2215.43 281.44 Q2215.43 275.329 2218.36 271.579 Q2221.33 267.829 2226.03 267.829 Q2228.9 267.829 2230.93 268.963 Q2232.99 270.074 2234.34 272.389 M2219.82 281.44 Q2219.82 286.139 2221.74 288.824 Q2223.69 291.486 2227.07 291.486 Q2230.45 291.486 2232.39 288.824 Q2234.34 286.139 2234.34 281.44 Q2234.34 276.741 2232.39 274.079 Q2230.45 271.394 2227.07 271.394 Q2223.69 271.394 2221.74 274.079 Q2219.82 276.741 2219.82 281.44 Z" fill="#000000" fill-rule="evenodd" fill-opacity="1" /><polyline clip-path="url(#clip670)" style="stroke:#0000ff; stroke-linecap:butt; stroke-linejoin:round; stroke-width:4; stroke-opacity:1; fill:none" points="
  1663.05,328.94 1807.05,328.94 
  "/>
<path clip-path="url(#clip670)" d="M1858.92 314.322 L1858.92 319.252 Q1856.56 317.053 1853.88 315.965 Q1851.21 314.877 1848.2 314.877 Q1842.28 314.877 1839.13 318.512 Q1835.98 322.123 1835.98 328.974 Q1835.98 335.803 1839.13 339.437 Q1842.28 343.048 1848.2 343.048 Q1851.21 343.048 1853.88 341.96 Q1856.56 340.873 1858.92 338.673 L1858.92 343.558 Q1856.47 345.224 1853.71 346.058 Q1850.98 346.891 1847.93 346.891 Q1840.08 346.891 1835.57 342.099 Q1831.05 337.285 1831.05 328.974 Q1831.05 320.641 1835.57 315.85 Q1840.08 311.035 1847.93 311.035 Q1851.03 311.035 1853.76 311.868 Q1856.52 312.678 1858.92 314.322 Z" fill="#000000" fill-rule="evenodd" fill-opacity="1" /><path clip-path="url(#clip670)" d="M1876.01 323.28 Q1872.58 323.28 1870.59 325.965 Q1868.6 328.627 1868.6 333.28 Q1868.6 337.933 1870.57 340.618 Q1872.56 343.28 1876.01 343.28 Q1879.41 343.28 1881.4 340.595 Q1883.39 337.91 1883.39 333.28 Q1883.39 328.674 1881.4 325.988 Q1879.41 323.28 1876.01 323.28 M1876.01 319.669 Q1881.56 319.669 1884.73 323.28 Q1887.9 326.891 1887.9 333.28 Q1887.9 339.646 1884.73 343.28 Q1881.56 346.891 1876.01 346.891 Q1870.43 346.891 1867.26 343.28 Q1864.11 339.646 1864.11 333.28 Q1864.11 326.891 1867.26 323.28 Q1870.43 319.669 1876.01 319.669 Z" fill="#000000" fill-rule="evenodd" fill-opacity="1" /><path clip-path="url(#clip670)" d="M1894.52 335.988 L1894.52 320.294 L1898.78 320.294 L1898.78 335.826 Q1898.78 339.507 1900.22 341.359 Q1901.65 343.187 1904.52 343.187 Q1907.97 343.187 1909.96 340.988 Q1911.98 338.789 1911.98 334.993 L1911.98 320.294 L1916.24 320.294 L1916.24 346.22 L1911.98 346.22 L1911.98 342.238 Q1910.43 344.599 1908.37 345.757 Q1906.33 346.891 1903.62 346.891 Q1899.15 346.891 1896.84 344.113 Q1894.52 341.335 1894.52 335.988 M1905.24 319.669 L1905.24 319.669 Z" fill="#000000" fill-rule="evenodd" fill-opacity="1" /><path clip-path="url(#clip670)" d="M1946.56 330.572 L1946.56 346.22 L1942.3 346.22 L1942.3 330.711 Q1942.3 327.03 1940.87 325.201 Q1939.43 323.373 1936.56 323.373 Q1933.11 323.373 1931.12 325.572 Q1929.13 327.771 1929.13 331.567 L1929.13 346.22 L1924.85 346.22 L1924.85 320.294 L1929.13 320.294 L1929.13 324.322 Q1930.66 321.984 1932.72 320.826 Q1934.8 319.669 1937.51 319.669 Q1941.98 319.669 1944.27 322.447 Q1946.56 325.201 1946.56 330.572 Z" fill="#000000" fill-rule="evenodd" fill-opacity="1" /><path clip-path="url(#clip670)" d="M1959.27 312.933 L1959.27 320.294 L1968.04 320.294 L1968.04 323.604 L1959.27 323.604 L1959.27 337.678 Q1959.27 340.849 1960.13 341.752 Q1961.01 342.655 1963.67 342.655 L1968.04 342.655 L1968.04 346.22 L1963.67 346.22 Q1958.74 346.22 1956.86 344.391 Q1954.99 342.539 1954.99 337.678 L1954.99 323.604 L1951.86 323.604 L1951.86 320.294 L1954.99 320.294 L1954.99 312.933 L1959.27 312.933 Z" fill="#000000" fill-rule="evenodd" fill-opacity="1" /><path clip-path="url(#clip670)" d="M1998.76 323.28 Q1995.33 323.28 1993.34 325.965 Q1991.35 328.627 1991.35 333.28 Q1991.35 337.933 1993.32 340.618 Q1995.31 343.28 1998.76 343.28 Q2002.16 343.28 2004.15 340.595 Q2006.14 337.91 2006.14 333.28 Q2006.14 328.674 2004.15 325.988 Q2002.16 323.28 1998.76 323.28 M1998.76 319.669 Q2004.32 319.669 2007.49 323.28 Q2010.66 326.891 2010.66 333.28 Q2010.66 339.646 2007.49 343.28 Q2004.32 346.891 1998.76 346.891 Q1993.18 346.891 1990.01 343.28 Q1986.86 339.646 1986.86 333.28 Q1986.86 326.891 1990.01 323.28 Q1993.18 319.669 1998.76 319.669 Z" fill="#000000" fill-rule="evenodd" fill-opacity="1" /><path clip-path="url(#clip670)" d="M2030.84 310.201 L2030.84 313.743 L2026.77 313.743 Q2024.48 313.743 2023.57 314.669 Q2022.69 315.595 2022.69 318.002 L2022.69 320.294 L2029.71 320.294 L2029.71 323.604 L2022.69 323.604 L2022.69 346.22 L2018.41 346.22 L2018.41 323.604 L2014.34 323.604 L2014.34 320.294 L2018.41 320.294 L2018.41 318.488 Q2018.41 314.16 2020.43 312.192 Q2022.44 310.201 2026.82 310.201 L2030.84 310.201 Z" fill="#000000" fill-rule="evenodd" fill-opacity="1" /><path clip-path="url(#clip670)" d="M2063.69 314.831 Q2058.6 314.831 2055.59 318.627 Q2052.6 322.424 2052.6 328.974 Q2052.6 335.502 2055.59 339.298 Q2058.6 343.095 2063.69 343.095 Q2068.78 343.095 2071.75 339.298 Q2074.73 335.502 2074.73 328.974 Q2074.73 322.424 2071.75 318.627 Q2068.78 314.831 2063.69 314.831 M2063.69 311.035 Q2070.96 311.035 2075.31 315.919 Q2079.66 320.78 2079.66 328.974 Q2079.66 337.146 2075.31 342.03 Q2070.96 346.891 2063.69 346.891 Q2056.4 346.891 2052.02 342.03 Q2047.67 337.169 2047.67 328.974 Q2047.67 320.78 2052.02 315.919 Q2056.4 311.035 2063.69 311.035 Z" fill="#000000" fill-rule="evenodd" fill-opacity="1" /><path clip-path="url(#clip670)" d="M2105.4 333.28 Q2105.4 328.581 2103.46 325.919 Q2101.54 323.234 2098.16 323.234 Q2094.78 323.234 2092.83 325.919 Q2090.91 328.581 2090.91 333.28 Q2090.91 337.979 2092.83 340.664 Q2094.78 343.326 2098.16 343.326 Q2101.54 343.326 2103.46 340.664 Q2105.4 337.979 2105.4 333.28 M2090.91 324.229 Q2092.25 321.914 2094.29 320.803 Q2096.35 319.669 2099.2 319.669 Q2103.92 319.669 2106.86 323.419 Q2109.82 327.169 2109.82 333.28 Q2109.82 339.391 2106.86 343.141 Q2103.92 346.891 2099.2 346.891 Q2096.35 346.891 2094.29 345.78 Q2092.25 344.646 2090.91 342.331 L2090.91 346.22 L2086.63 346.22 L2086.63 310.201 L2090.91 310.201 L2090.91 324.229 Z" fill="#000000" fill-rule="evenodd" fill-opacity="1" /><path clip-path="url(#clip670)" d="M2116.88 320.294 L2121.14 320.294 L2121.14 346.683 Q2121.14 351.636 2119.25 353.859 Q2117.37 356.081 2113.18 356.081 L2111.56 356.081 L2111.56 352.47 L2112.69 352.47 Q2115.12 352.47 2116 351.335 Q2116.88 350.224 2116.88 346.683 L2116.88 320.294 M2116.88 310.201 L2121.14 310.201 L2121.14 315.595 L2116.88 315.595 L2116.88 310.201 Z" fill="#000000" fill-rule="evenodd" fill-opacity="1" /><path clip-path="url(#clip670)" d="M2152.23 332.192 L2152.23 334.275 L2132.65 334.275 Q2132.93 338.673 2135.29 340.988 Q2137.67 343.28 2141.91 343.28 Q2144.36 343.28 2146.65 342.678 Q2148.97 342.076 2151.24 340.873 L2151.24 344.9 Q2148.94 345.872 2146.54 346.382 Q2144.13 346.891 2141.65 346.891 Q2135.45 346.891 2131.81 343.28 Q2128.2 339.669 2128.2 333.511 Q2128.2 327.146 2131.63 323.419 Q2135.08 319.669 2140.91 319.669 Q2146.14 319.669 2149.18 323.049 Q2152.23 326.405 2152.23 332.192 M2147.97 330.942 Q2147.93 327.447 2146 325.363 Q2144.11 323.28 2140.96 323.28 Q2137.39 323.28 2135.24 325.294 Q2133.11 327.308 2132.79 330.965 L2147.97 330.942 Z" fill="#000000" fill-rule="evenodd" fill-opacity="1" /><path clip-path="url(#clip670)" d="M2177.88 321.289 L2177.88 325.271 Q2176.07 324.275 2174.24 323.789 Q2172.44 323.28 2170.59 323.28 Q2166.44 323.28 2164.15 325.919 Q2161.86 328.535 2161.86 333.28 Q2161.86 338.025 2164.15 340.664 Q2166.44 343.28 2170.59 343.28 Q2172.44 343.28 2174.24 342.794 Q2176.07 342.285 2177.88 341.289 L2177.88 345.224 Q2176.1 346.058 2174.18 346.474 Q2172.28 346.891 2170.12 346.891 Q2164.27 346.891 2160.82 343.21 Q2157.37 339.53 2157.37 333.28 Q2157.37 326.937 2160.84 323.303 Q2164.34 319.669 2170.4 319.669 Q2172.37 319.669 2174.24 320.086 Q2176.12 320.479 2177.88 321.289 Z" fill="#000000" fill-rule="evenodd" fill-opacity="1" /><path clip-path="url(#clip670)" d="M2189.5 312.933 L2189.5 320.294 L2198.27 320.294 L2198.27 323.604 L2189.5 323.604 L2189.5 337.678 Q2189.5 340.849 2190.36 341.752 Q2191.24 342.655 2193.9 342.655 L2198.27 342.655 L2198.27 346.22 L2193.9 346.22 Q2188.97 346.22 2187.09 344.391 Q2185.22 342.539 2185.22 337.678 L2185.22 323.604 L2182.09 323.604 L2182.09 320.294 L2185.22 320.294 L2185.22 312.933 L2189.5 312.933 Z" fill="#000000" fill-rule="evenodd" fill-opacity="1" /><path clip-path="url(#clip670)" d="M2220.4 321.058 L2220.4 325.086 Q2218.6 324.16 2216.65 323.697 Q2214.71 323.234 2212.62 323.234 Q2209.45 323.234 2207.86 324.206 Q2206.28 325.178 2206.28 327.123 Q2206.28 328.604 2207.42 329.461 Q2208.55 330.294 2211.98 331.058 L2213.43 331.382 Q2217.97 332.354 2219.87 334.136 Q2221.79 335.896 2221.79 339.067 Q2221.79 342.678 2218.92 344.785 Q2216.07 346.891 2211.07 346.891 Q2208.99 346.891 2206.72 346.474 Q2204.48 346.081 2201.98 345.271 L2201.98 340.873 Q2204.34 342.099 2206.63 342.724 Q2208.92 343.326 2211.17 343.326 Q2214.18 343.326 2215.8 342.308 Q2217.42 341.266 2217.42 339.391 Q2217.42 337.655 2216.24 336.729 Q2215.08 335.803 2211.12 334.947 L2209.64 334.599 Q2205.68 333.766 2203.92 332.053 Q2202.16 330.317 2202.16 327.308 Q2202.16 323.65 2204.75 321.66 Q2207.35 319.669 2212.11 319.669 Q2214.48 319.669 2216.56 320.016 Q2218.64 320.363 2220.4 321.058 Z" fill="#000000" fill-rule="evenodd" fill-opacity="1" /></svg>
