<?xml version="1.0" encoding="utf-8"?>
<svg xmlns="http://www.w3.org/2000/svg" xmlns:xlink="http://www.w3.org/1999/xlink" width="600" height="400" viewBox="0 0 2400 1600">
<defs>
  <clipPath id="clip550">
    <rect x="0" y="0" width="2400" height="1600"/>
  </clipPath>
</defs>
<path clip-path="url(#clip550)" d="
M0 1600 L2400 1600 L2400 0 L0 0  Z
  " fill="#ffffff" fill-rule="evenodd" fill-opacity="1"/>
<defs>
  <clipPath id="clip551">
    <rect x="480" y="0" width="1681" height="1600"/>
  </clipPath>
</defs>
<defs>
  <clipPath id="clip552">
    <rect x="262" y="123" width="2091" height="1301"/>
  </clipPath>
</defs>
<path clip-path="url(#clip550)" d="
M262.551 1423.18 L2352.76 1423.18 L2352.76 123.472 L262.551 123.472  Z
  " fill="#ffffff" fill-rule="evenodd" fill-opacity="1"/>
<polyline clip-path="url(#clip552)" style="stroke:#000000; stroke-linecap:butt; stroke-linejoin:round; stroke-width:2; stroke-opacity:0.1; fill:none" points="
  281.465,1423.18 281.465,123.472 
  "/>
<polyline clip-path="url(#clip552)" style="stroke:#000000; stroke-linecap:butt; stroke-linejoin:round; stroke-width:2; stroke-opacity:0.1; fill:none" points="
  683.892,1423.18 683.892,123.472 
  "/>
<polyline clip-path="url(#clip552)" style="stroke:#000000; stroke-linecap:butt; stroke-linejoin:round; stroke-width:2; stroke-opacity:0.1; fill:none" points="
  1086.32,1423.18 1086.32,123.472 
  "/>
<polyline clip-path="url(#clip552)" style="stroke:#000000; stroke-linecap:butt; stroke-linejoin:round; stroke-width:2; stroke-opacity:0.1; fill:none" points="
  1488.75,1423.18 1488.75,123.472 
  "/>
<polyline clip-path="url(#clip552)" style="stroke:#000000; stroke-linecap:butt; stroke-linejoin:round; stroke-width:2; stroke-opacity:0.1; fill:none" points="
  1891.17,1423.18 1891.17,123.472 
  "/>
<polyline clip-path="url(#clip552)" style="stroke:#000000; stroke-linecap:butt; stroke-linejoin:round; stroke-width:2; stroke-opacity:0.1; fill:none" points="
  2293.6,1423.18 2293.6,123.472 
  "/>
<polyline clip-path="url(#clip550)" style="stroke:#000000; stroke-linecap:butt; stroke-linejoin:round; stroke-width:4; stroke-opacity:1; fill:none" points="
  262.551,1423.18 2352.76,1423.18 
  "/>
<polyline clip-path="url(#clip550)" style="stroke:#000000; stroke-linecap:butt; stroke-linejoin:round; stroke-width:4; stroke-opacity:1; fill:none" points="
  281.465,1423.18 281.465,1404.28 
  "/>
<polyline clip-path="url(#clip550)" style="stroke:#000000; stroke-linecap:butt; stroke-linejoin:round; stroke-width:4; stroke-opacity:1; fill:none" points="
  683.892,1423.18 683.892,1404.28 
  "/>
<polyline clip-path="url(#clip550)" style="stroke:#000000; stroke-linecap:butt; stroke-linejoin:round; stroke-width:4; stroke-opacity:1; fill:none" points="
  1086.32,1423.18 1086.32,1404.28 
  "/>
<polyline clip-path="url(#clip550)" style="stroke:#000000; stroke-linecap:butt; stroke-linejoin:round; stroke-width:4; stroke-opacity:1; fill:none" points="
  1488.75,1423.18 1488.75,1404.28 
  "/>
<polyline clip-path="url(#clip550)" style="stroke:#000000; stroke-linecap:butt; stroke-linejoin:round; stroke-width:4; stroke-opacity:1; fill:none" points="
  1891.17,1423.18 1891.17,1404.28 
  "/>
<polyline clip-path="url(#clip550)" style="stroke:#000000; stroke-linecap:butt; stroke-linejoin:round; stroke-width:4; stroke-opacity:1; fill:none" points="
  2293.6,1423.18 2293.6,1404.28 
  "/>
<path clip-path="url(#clip550)" d="M281.465 1454.1 Q277.854 1454.1 276.025 1457.66 Q274.22 1461.2 274.22 1468.33 Q274.22 1475.44 276.025 1479.01 Q277.854 1482.55 281.465 1482.55 Q285.1 1482.55 286.905 1479.01 Q288.734 1475.44 288.734 1468.33 Q288.734 1461.2 286.905 1457.66 Q285.1 1454.1 281.465 1454.1 M281.465 1450.39 Q287.275 1450.39 290.331 1455 Q293.41 1459.58 293.41 1468.33 Q293.41 1477.06 290.331 1481.67 Q287.275 1486.25 281.465 1486.25 Q275.655 1486.25 272.576 1481.67 Q269.521 1477.06 269.521 1468.33 Q269.521 1459.58 272.576 1455 Q275.655 1450.39 281.465 1450.39 Z" fill="#000000" fill-rule="evenodd" fill-opacity="1" /><path clip-path="url(#clip550)" d="M643.51 1451.02 L661.867 1451.02 L661.867 1454.96 L647.793 1454.96 L647.793 1463.43 Q648.811 1463.08 649.83 1462.92 Q650.848 1462.73 651.867 1462.73 Q657.654 1462.73 661.033 1465.9 Q664.413 1469.08 664.413 1474.49 Q664.413 1480.07 660.941 1483.17 Q657.469 1486.25 651.149 1486.25 Q648.973 1486.25 646.705 1485.88 Q644.459 1485.51 642.052 1484.77 L642.052 1480.07 Q644.135 1481.2 646.358 1481.76 Q648.58 1482.32 651.057 1482.32 Q655.061 1482.32 657.399 1480.21 Q659.737 1478.1 659.737 1474.49 Q659.737 1470.88 657.399 1468.77 Q655.061 1466.67 651.057 1466.67 Q649.182 1466.67 647.307 1467.08 Q645.455 1467.5 643.51 1468.38 L643.51 1451.02 Z" fill="#000000" fill-rule="evenodd" fill-opacity="1" /><path clip-path="url(#clip550)" d="M683.626 1454.1 Q680.015 1454.1 678.186 1457.66 Q676.381 1461.2 676.381 1468.33 Q676.381 1475.44 678.186 1479.01 Q680.015 1482.55 683.626 1482.55 Q687.26 1482.55 689.066 1479.01 Q690.894 1475.44 690.894 1468.33 Q690.894 1461.2 689.066 1457.66 Q687.26 1454.1 683.626 1454.1 M683.626 1450.39 Q689.436 1450.39 692.492 1455 Q695.57 1459.58 695.57 1468.33 Q695.57 1477.06 692.492 1481.67 Q689.436 1486.25 683.626 1486.25 Q677.816 1486.25 674.737 1481.67 Q671.681 1477.06 671.681 1468.33 Q671.681 1459.58 674.737 1455 Q677.816 1450.39 683.626 1450.39 Z" fill="#000000" fill-rule="evenodd" fill-opacity="1" /><path clip-path="url(#clip550)" d="M713.788 1454.1 Q710.177 1454.1 708.348 1457.66 Q706.542 1461.2 706.542 1468.33 Q706.542 1475.44 708.348 1479.01 Q710.177 1482.55 713.788 1482.55 Q717.422 1482.55 719.228 1479.01 Q721.056 1475.44 721.056 1468.33 Q721.056 1461.2 719.228 1457.66 Q717.422 1454.1 713.788 1454.1 M713.788 1450.39 Q719.598 1450.39 722.653 1455 Q725.732 1459.58 725.732 1468.33 Q725.732 1477.06 722.653 1481.67 Q719.598 1486.25 713.788 1486.25 Q707.978 1486.25 704.899 1481.67 Q701.843 1477.06 701.843 1468.33 Q701.843 1459.58 704.899 1455 Q707.978 1450.39 713.788 1450.39 Z" fill="#000000" fill-rule="evenodd" fill-opacity="1" /><path clip-path="url(#clip550)" d="M1030.84 1481.64 L1038.48 1481.64 L1038.48 1455.28 L1030.17 1456.95 L1030.17 1452.69 L1038.44 1451.02 L1043.11 1451.02 L1043.11 1481.64 L1050.75 1481.64 L1050.75 1485.58 L1030.84 1485.58 L1030.84 1481.64 Z" fill="#000000" fill-rule="evenodd" fill-opacity="1" /><path clip-path="url(#clip550)" d="M1070.2 1454.1 Q1066.59 1454.1 1064.76 1457.66 Q1062.95 1461.2 1062.95 1468.33 Q1062.95 1475.44 1064.76 1479.01 Q1066.59 1482.55 1070.2 1482.55 Q1073.83 1482.55 1075.64 1479.01 Q1077.46 1475.44 1077.46 1468.33 Q1077.46 1461.2 1075.64 1457.66 Q1073.83 1454.1 1070.2 1454.1 M1070.2 1450.39 Q1076.01 1450.39 1079.06 1455 Q1082.14 1459.58 1082.14 1468.33 Q1082.14 1477.06 1079.06 1481.67 Q1076.01 1486.25 1070.2 1486.25 Q1064.39 1486.25 1061.31 1481.67 Q1058.25 1477.06 1058.25 1468.33 Q1058.25 1459.58 1061.31 1455 Q1064.39 1450.39 1070.2 1450.39 Z" fill="#000000" fill-rule="evenodd" fill-opacity="1" /><path clip-path="url(#clip550)" d="M1100.36 1454.1 Q1096.75 1454.1 1094.92 1457.66 Q1093.11 1461.2 1093.11 1468.33 Q1093.11 1475.44 1094.92 1479.01 Q1096.75 1482.55 1100.36 1482.55 Q1103.99 1482.55 1105.8 1479.01 Q1107.63 1475.44 1107.63 1468.33 Q1107.63 1461.2 1105.8 1457.66 Q1103.99 1454.1 1100.36 1454.1 M1100.36 1450.39 Q1106.17 1450.39 1109.22 1455 Q1112.3 1459.58 1112.3 1468.33 Q1112.3 1477.06 1109.22 1481.67 Q1106.17 1486.25 1100.36 1486.25 Q1094.55 1486.25 1091.47 1481.67 Q1088.41 1477.06 1088.41 1468.33 Q1088.41 1459.58 1091.47 1455 Q1094.55 1450.39 1100.36 1450.39 Z" fill="#000000" fill-rule="evenodd" fill-opacity="1" /><path clip-path="url(#clip550)" d="M1130.52 1454.1 Q1126.91 1454.1 1125.08 1457.66 Q1123.27 1461.2 1123.27 1468.33 Q1123.27 1475.44 1125.08 1479.01 Q1126.91 1482.55 1130.52 1482.55 Q1134.15 1482.55 1135.96 1479.01 Q1137.79 1475.44 1137.79 1468.33 Q1137.79 1461.2 1135.96 1457.66 Q1134.15 1454.1 1130.52 1454.1 M1130.52 1450.39 Q1136.33 1450.39 1139.39 1455 Q1142.46 1459.58 1142.46 1468.33 Q1142.46 1477.06 1139.39 1481.67 Q1136.33 1486.25 1130.52 1486.25 Q1124.71 1486.25 1121.63 1481.67 Q1118.58 1477.06 1118.58 1468.33 Q1118.58 1459.58 1121.63 1455 Q1124.71 1450.39 1130.52 1450.39 Z" fill="#000000" fill-rule="evenodd" fill-opacity="1" /><path clip-path="url(#clip550)" d="M1433.27 1481.64 L1440.91 1481.64 L1440.91 1455.28 L1432.6 1456.95 L1432.6 1452.69 L1440.86 1451.02 L1445.54 1451.02 L1445.54 1481.64 L1453.18 1481.64 L1453.18 1485.58 L1433.27 1485.58 L1433.27 1481.64 Z" fill="#000000" fill-rule="evenodd" fill-opacity="1" /><path clip-path="url(#clip550)" d="M1462.67 1451.02 L1481.03 1451.02 L1481.03 1454.96 L1466.95 1454.96 L1466.95 1463.43 Q1467.97 1463.08 1468.99 1462.92 Q1470.01 1462.73 1471.03 1462.73 Q1476.81 1462.73 1480.19 1465.9 Q1483.57 1469.08 1483.57 1474.49 Q1483.57 1480.07 1480.1 1483.17 Q1476.63 1486.25 1470.31 1486.25 Q1468.13 1486.25 1465.86 1485.88 Q1463.62 1485.51 1461.21 1484.77 L1461.21 1480.07 Q1463.29 1481.2 1465.52 1481.76 Q1467.74 1482.32 1470.22 1482.32 Q1474.22 1482.32 1476.56 1480.21 Q1478.9 1478.1 1478.9 1474.49 Q1478.9 1470.88 1476.56 1468.77 Q1474.22 1466.67 1470.22 1466.67 Q1468.34 1466.67 1466.47 1467.08 Q1464.61 1467.5 1462.67 1468.38 L1462.67 1451.02 Z" fill="#000000" fill-rule="evenodd" fill-opacity="1" /><path clip-path="url(#clip550)" d="M1502.78 1454.1 Q1499.17 1454.1 1497.35 1457.66 Q1495.54 1461.2 1495.54 1468.33 Q1495.54 1475.44 1497.35 1479.01 Q1499.17 1482.55 1502.78 1482.55 Q1506.42 1482.55 1508.22 1479.01 Q1510.05 1475.44 1510.05 1468.33 Q1510.05 1461.2 1508.22 1457.66 Q1506.42 1454.1 1502.78 1454.1 M1502.78 1450.39 Q1508.6 1450.39 1511.65 1455 Q1514.73 1459.58 1514.73 1468.33 Q1514.73 1477.06 1511.65 1481.67 Q1508.6 1486.25 1502.78 1486.25 Q1496.97 1486.25 1493.9 1481.67 Q1490.84 1477.06 1490.84 1468.33 Q1490.84 1459.58 1493.9 1455 Q1496.97 1450.39 1502.78 1450.39 Z" fill="#000000" fill-rule="evenodd" fill-opacity="1" /><path clip-path="url(#clip550)" d="M1532.95 1454.1 Q1529.34 1454.1 1527.51 1457.66 Q1525.7 1461.2 1525.7 1468.33 Q1525.7 1475.44 1527.51 1479.01 Q1529.34 1482.55 1532.95 1482.55 Q1536.58 1482.55 1538.39 1479.01 Q1540.22 1475.44 1540.22 1468.33 Q1540.22 1461.2 1538.39 1457.66 Q1536.58 1454.1 1532.95 1454.1 M1532.95 1450.39 Q1538.76 1450.39 1541.81 1455 Q1544.89 1459.58 1544.89 1468.33 Q1544.89 1477.06 1541.81 1481.67 Q1538.76 1486.25 1532.95 1486.25 Q1527.14 1486.25 1524.06 1481.67 Q1521 1477.06 1521 1468.33 Q1521 1459.58 1524.06 1455 Q1527.14 1450.39 1532.95 1450.39 Z" fill="#000000" fill-rule="evenodd" fill-opacity="1" /><path clip-path="url(#clip550)" d="M1839.78 1481.64 L1856.1 1481.64 L1856.1 1485.58 L1834.16 1485.58 L1834.16 1481.64 Q1836.82 1478.89 1841.4 1474.26 Q1846.01 1469.61 1847.19 1468.27 Q1849.44 1465.74 1850.32 1464.01 Q1851.22 1462.25 1851.22 1460.56 Q1851.22 1457.8 1849.27 1456.07 Q1847.35 1454.33 1844.25 1454.33 Q1842.05 1454.33 1839.6 1455.09 Q1837.17 1455.86 1834.39 1457.41 L1834.39 1452.69 Q1837.21 1451.55 1839.67 1450.97 Q1842.12 1450.39 1844.16 1450.39 Q1849.53 1450.39 1852.72 1453.08 Q1855.92 1455.77 1855.92 1460.26 Q1855.92 1462.39 1855.11 1464.31 Q1854.32 1466.2 1852.21 1468.8 Q1851.64 1469.47 1848.53 1472.69 Q1845.43 1475.88 1839.78 1481.64 Z" fill="#000000" fill-rule="evenodd" fill-opacity="1" /><path clip-path="url(#clip550)" d="M1875.92 1454.1 Q1872.31 1454.1 1870.48 1457.66 Q1868.67 1461.2 1868.67 1468.33 Q1868.67 1475.44 1870.48 1479.01 Q1872.31 1482.55 1875.92 1482.55 Q1879.55 1482.55 1881.36 1479.01 Q1883.19 1475.44 1883.19 1468.33 Q1883.19 1461.2 1881.36 1457.66 Q1879.55 1454.1 1875.92 1454.1 M1875.92 1450.39 Q1881.73 1450.39 1884.78 1455 Q1887.86 1459.58 1887.86 1468.33 Q1887.86 1477.06 1884.78 1481.67 Q1881.73 1486.25 1875.92 1486.25 Q1870.11 1486.25 1867.03 1481.67 Q1863.97 1477.06 1863.97 1468.33 Q1863.97 1459.58 1867.03 1455 Q1870.11 1450.39 1875.92 1450.39 Z" fill="#000000" fill-rule="evenodd" fill-opacity="1" /><path clip-path="url(#clip550)" d="M1906.08 1454.1 Q1902.47 1454.1 1900.64 1457.66 Q1898.83 1461.2 1898.83 1468.33 Q1898.83 1475.44 1900.64 1479.01 Q1902.47 1482.55 1906.08 1482.55 Q1909.71 1482.55 1911.52 1479.01 Q1913.35 1475.44 1913.35 1468.33 Q1913.35 1461.2 1911.52 1457.66 Q1909.71 1454.1 1906.08 1454.1 M1906.08 1450.39 Q1911.89 1450.39 1914.95 1455 Q1918.02 1459.58 1918.02 1468.33 Q1918.02 1477.06 1914.95 1481.67 Q1911.89 1486.25 1906.08 1486.25 Q1900.27 1486.25 1897.19 1481.67 Q1894.14 1477.06 1894.14 1468.33 Q1894.14 1459.58 1897.19 1455 Q1900.27 1450.39 1906.08 1450.39 Z" fill="#000000" fill-rule="evenodd" fill-opacity="1" /><path clip-path="url(#clip550)" d="M1936.24 1454.1 Q1932.63 1454.1 1930.8 1457.66 Q1929 1461.2 1929 1468.33 Q1929 1475.44 1930.8 1479.01 Q1932.63 1482.55 1936.24 1482.55 Q1939.88 1482.55 1941.68 1479.01 Q1943.51 1475.44 1943.51 1468.33 Q1943.51 1461.2 1941.68 1457.66 Q1939.88 1454.1 1936.24 1454.1 M1936.24 1450.39 Q1942.05 1450.39 1945.11 1455 Q1948.19 1459.58 1948.19 1468.33 Q1948.19 1477.06 1945.11 1481.67 Q1942.05 1486.25 1936.24 1486.25 Q1930.43 1486.25 1927.35 1481.67 Q1924.3 1477.06 1924.3 1468.33 Q1924.3 1459.58 1927.35 1455 Q1930.43 1450.39 1936.24 1450.39 Z" fill="#000000" fill-rule="evenodd" fill-opacity="1" /><path clip-path="url(#clip550)" d="M2242.21 1481.64 L2258.53 1481.64 L2258.53 1485.58 L2236.59 1485.58 L2236.59 1481.64 Q2239.25 1478.89 2243.83 1474.26 Q2248.44 1469.61 2249.62 1468.27 Q2251.86 1465.74 2252.74 1464.01 Q2253.65 1462.25 2253.65 1460.56 Q2253.65 1457.8 2251.7 1456.07 Q2249.78 1454.33 2246.68 1454.33 Q2244.48 1454.33 2242.03 1455.09 Q2239.59 1455.86 2236.82 1457.41 L2236.82 1452.69 Q2239.64 1451.55 2242.09 1450.97 Q2244.55 1450.39 2246.59 1450.39 Q2251.96 1450.39 2255.15 1453.08 Q2258.34 1455.77 2258.34 1460.26 Q2258.34 1462.39 2257.53 1464.31 Q2256.75 1466.2 2254.64 1468.8 Q2254.06 1469.47 2250.96 1472.69 Q2247.86 1475.88 2242.21 1481.64 Z" fill="#000000" fill-rule="evenodd" fill-opacity="1" /><path clip-path="url(#clip550)" d="M2268.39 1451.02 L2286.75 1451.02 L2286.75 1454.96 L2272.67 1454.96 L2272.67 1463.43 Q2273.69 1463.08 2274.71 1462.92 Q2275.73 1462.73 2276.75 1462.73 Q2282.53 1462.73 2285.91 1465.9 Q2289.29 1469.08 2289.29 1474.49 Q2289.29 1480.07 2285.82 1483.17 Q2282.35 1486.25 2276.03 1486.25 Q2273.85 1486.25 2271.59 1485.88 Q2269.34 1485.51 2266.93 1484.77 L2266.93 1480.07 Q2269.02 1481.2 2271.24 1481.76 Q2273.46 1482.32 2275.94 1482.32 Q2279.94 1482.32 2282.28 1480.21 Q2284.62 1478.1 2284.62 1474.49 Q2284.62 1470.88 2282.28 1468.77 Q2279.94 1466.67 2275.94 1466.67 Q2274.06 1466.67 2272.19 1467.08 Q2270.34 1467.5 2268.39 1468.38 L2268.39 1451.02 Z" fill="#000000" fill-rule="evenodd" fill-opacity="1" /><path clip-path="url(#clip550)" d="M2308.51 1454.1 Q2304.9 1454.1 2303.07 1457.66 Q2301.26 1461.2 2301.26 1468.33 Q2301.26 1475.44 2303.07 1479.01 Q2304.9 1482.55 2308.51 1482.55 Q2312.14 1482.55 2313.95 1479.01 Q2315.77 1475.44 2315.77 1468.33 Q2315.77 1461.2 2313.95 1457.66 Q2312.14 1454.1 2308.51 1454.1 M2308.51 1450.39 Q2314.32 1450.39 2317.37 1455 Q2320.45 1459.58 2320.45 1468.33 Q2320.45 1477.06 2317.37 1481.67 Q2314.32 1486.25 2308.51 1486.25 Q2302.7 1486.25 2299.62 1481.67 Q2296.56 1477.06 2296.56 1468.33 Q2296.56 1459.58 2299.62 1455 Q2302.7 1450.39 2308.51 1450.39 Z" fill="#000000" fill-rule="evenodd" fill-opacity="1" /><path clip-path="url(#clip550)" d="M2338.67 1454.1 Q2335.06 1454.1 2333.23 1457.66 Q2331.42 1461.2 2331.42 1468.33 Q2331.42 1475.44 2333.23 1479.01 Q2335.06 1482.55 2338.67 1482.55 Q2342.3 1482.55 2344.11 1479.01 Q2345.94 1475.44 2345.94 1468.33 Q2345.94 1461.2 2344.11 1457.66 Q2342.3 1454.1 2338.67 1454.1 M2338.67 1450.39 Q2344.48 1450.39 2347.53 1455 Q2350.61 1459.58 2350.61 1468.33 Q2350.61 1477.06 2347.53 1481.67 Q2344.48 1486.25 2338.67 1486.25 Q2332.86 1486.25 2329.78 1481.67 Q2326.72 1477.06 2326.72 1468.33 Q2326.72 1459.58 2329.78 1455 Q2332.86 1450.39 2338.67 1450.39 Z" fill="#000000" fill-rule="evenodd" fill-opacity="1" /><path clip-path="url(#clip550)" d="M1128.06 1537.27 L1119.34 1560.92 L1136.81 1560.92 L1128.06 1537.27 M1124.43 1530.94 L1131.72 1530.94 L1149.83 1578.46 L1143.15 1578.46 L1138.82 1566.27 L1117.4 1566.27 L1113.07 1578.46 L1106.29 1578.46 L1124.43 1530.94 Z" fill="#000000" fill-rule="evenodd" fill-opacity="1" /><path clip-path="url(#clip550)" d="M1156.51 1528.94 L1162.37 1528.94 L1162.37 1578.46 L1156.51 1578.46 L1156.51 1528.94 Z" fill="#000000" fill-rule="evenodd" fill-opacity="1" /><path clip-path="url(#clip550)" d="M1180.42 1532.69 L1180.42 1542.81 L1192.48 1542.81 L1192.48 1547.36 L1180.42 1547.36 L1180.42 1566.72 Q1180.42 1571.08 1181.6 1572.32 Q1182.81 1573.56 1186.47 1573.56 L1192.48 1573.56 L1192.48 1578.46 L1186.47 1578.46 Q1179.69 1578.46 1177.11 1575.95 Q1174.53 1573.4 1174.53 1566.72 L1174.53 1547.36 L1170.23 1547.36 L1170.23 1542.81 L1174.53 1542.81 L1174.53 1532.69 L1180.42 1532.69 Z" fill="#000000" fill-rule="evenodd" fill-opacity="1" /><path clip-path="url(#clip550)" d="M1200.18 1542.81 L1206.04 1542.81 L1206.04 1578.46 L1200.18 1578.46 L1200.18 1542.81 M1200.18 1528.94 L1206.04 1528.94 L1206.04 1536.35 L1200.18 1536.35 L1200.18 1528.94 Z" fill="#000000" fill-rule="evenodd" fill-opacity="1" /><path clip-path="url(#clip550)" d="M1224.09 1532.69 L1224.09 1542.81 L1236.15 1542.81 L1236.15 1547.36 L1224.09 1547.36 L1224.09 1566.72 Q1224.09 1571.08 1225.26 1572.32 Q1226.47 1573.56 1230.13 1573.56 L1236.15 1573.56 L1236.15 1578.46 L1230.13 1578.46 Q1223.35 1578.46 1220.78 1575.95 Q1218.2 1573.4 1218.2 1566.72 L1218.2 1547.36 L1213.9 1547.36 L1213.9 1542.81 L1218.2 1542.81 L1218.2 1532.69 L1224.09 1532.69 Z" fill="#000000" fill-rule="evenodd" fill-opacity="1" /><path clip-path="url(#clip550)" d="M1243.25 1564.39 L1243.25 1542.81 L1249.1 1542.81 L1249.1 1564.17 Q1249.1 1569.23 1251.08 1571.78 Q1253.05 1574.29 1257 1574.29 Q1261.74 1574.29 1264.48 1571.27 Q1267.25 1568.24 1267.25 1563.02 L1267.25 1542.81 L1273.1 1542.81 L1273.1 1578.46 L1267.25 1578.46 L1267.25 1572.99 Q1265.11 1576.23 1262.28 1577.82 Q1259.48 1579.38 1255.76 1579.38 Q1249.61 1579.38 1246.43 1575.56 Q1243.25 1571.74 1243.25 1564.39 M1257.98 1541.95 L1257.98 1541.95 Z" fill="#000000" fill-rule="evenodd" fill-opacity="1" /><path clip-path="url(#clip550)" d="M1308.62 1548.22 L1308.62 1528.94 L1314.48 1528.94 L1314.48 1578.46 L1308.62 1578.46 L1308.62 1573.11 Q1306.78 1576.3 1303.94 1577.86 Q1301.14 1579.38 1297.2 1579.38 Q1290.74 1579.38 1286.66 1574.23 Q1282.62 1569.07 1282.62 1560.67 Q1282.62 1552.27 1286.66 1547.11 Q1290.74 1541.95 1297.2 1541.95 Q1301.14 1541.95 1303.94 1543.51 Q1306.78 1545.04 1308.62 1548.22 M1288.67 1560.67 Q1288.67 1567.13 1291.31 1570.82 Q1293.98 1574.48 1298.63 1574.48 Q1303.28 1574.48 1305.95 1570.82 Q1308.62 1567.13 1308.62 1560.67 Q1308.62 1554.21 1305.95 1550.55 Q1303.28 1546.85 1298.63 1546.85 Q1293.98 1546.85 1291.31 1550.55 Q1288.67 1554.21 1288.67 1560.67 Z" fill="#000000" fill-rule="evenodd" fill-opacity="1" /><path clip-path="url(#clip550)" d="M1357.03 1559.17 L1357.03 1562.04 L1330.11 1562.04 Q1330.49 1568.08 1333.74 1571.27 Q1337.01 1574.42 1342.84 1574.42 Q1346.21 1574.42 1349.36 1573.59 Q1352.55 1572.76 1355.67 1571.11 L1355.67 1576.65 Q1352.51 1577.98 1349.2 1578.68 Q1345.89 1579.38 1342.49 1579.38 Q1333.96 1579.38 1328.96 1574.42 Q1324 1569.45 1324 1560.99 Q1324 1552.23 1328.71 1547.11 Q1333.45 1541.95 1341.47 1541.95 Q1348.66 1541.95 1352.83 1546.6 Q1357.03 1551.22 1357.03 1559.17 M1351.18 1557.45 Q1351.11 1552.65 1348.47 1549.78 Q1345.86 1546.92 1341.53 1546.92 Q1336.63 1546.92 1333.67 1549.69 Q1330.74 1552.46 1330.3 1557.49 L1351.18 1557.45 Z" fill="#000000" fill-rule="evenodd" fill-opacity="1" /><path clip-path="url(#clip550)" d="M1401.44 1529 Q1397.17 1536.32 1395.1 1543.48 Q1393.03 1550.64 1393.03 1557.99 Q1393.03 1565.35 1395.1 1572.57 Q1397.2 1579.77 1401.44 1587.05 L1396.34 1587.05 Q1391.57 1579.57 1389.18 1572.35 Q1386.83 1565.12 1386.83 1557.99 Q1386.83 1550.9 1389.18 1543.7 Q1391.54 1536.51 1396.34 1529 L1401.44 1529 Z" fill="#000000" fill-rule="evenodd" fill-opacity="1" /><path clip-path="url(#clip550)" d="M1431.29 1553.47 Q1431.29 1555.3 1430.16 1556.4 Q1429.07 1557.49 1427.68 1557.49 Q1426.46 1557.49 1425.82 1556.79 Q1425.17 1556.08 1425.17 1555.18 Q1425.17 1554.79 1425.33 1554.31 Q1425.49 1553.79 1425.85 1553.18 Q1426.23 1552.57 1427.04 1552.12 Q1427.84 1551.67 1428.94 1551.6 Q1428.71 1551.38 1428.65 1551.34 Q1428.17 1550.96 1427.26 1550.83 Q1427.14 1550.76 1426.68 1550.76 Q1424.46 1550.76 1422.21 1552.41 Q1419.99 1554.02 1417.25 1557.08 Q1413.8 1560.65 1411.58 1561.97 Q1421.34 1563.26 1421.34 1568.9 Q1421.34 1569.83 1421.08 1570.96 Q1420.57 1573.08 1420.57 1574.63 Q1420.57 1577.72 1422.66 1577.72 Q1424.69 1577.72 1425.98 1575.66 Q1427.3 1573.6 1428.39 1569.57 Q1428.55 1568.83 1428.71 1568.61 Q1428.87 1568.38 1429.33 1568.38 Q1430.13 1568.38 1430.13 1569.02 Q1429.39 1572.79 1427.75 1575.69 Q1425.65 1579.2 1422.53 1579.2 Q1419.92 1579.2 1418.18 1577.4 Q1416.48 1575.56 1416.48 1572.66 Q1416.48 1571.96 1416.73 1570.34 Q1416.93 1569.7 1416.93 1568.96 Q1416.93 1567.45 1416.09 1566.32 Q1415.25 1565.16 1413.9 1564.58 Q1412.55 1564 1411.42 1563.74 Q1410.32 1563.45 1409.26 1563.36 Q1406.04 1576.98 1405.59 1577.82 Q1405.3 1578.4 1404.66 1578.78 Q1404.01 1579.2 1403.34 1579.2 Q1402.69 1579.2 1402.05 1578.75 Q1401.44 1578.33 1401.44 1577.33 Q1401.44 1576.82 1401.69 1575.88 L1411.26 1537.88 L1411.45 1536.59 Q1411.45 1536.21 1411.29 1536.01 Q1411.16 1535.79 1410.39 1535.63 Q1409.65 1535.47 1408.17 1535.47 Q1407.55 1535.47 1407.26 1535.43 Q1407.01 1535.4 1406.78 1535.24 Q1406.56 1535.05 1406.56 1534.66 Q1406.56 1534.11 1406.78 1533.82 Q1407.04 1533.5 1407.23 1533.44 Q1407.43 1533.37 1407.81 1533.34 Q1408.36 1533.31 1410.2 1533.15 Q1412.03 1532.95 1413.61 1532.83 Q1415.19 1532.7 1415.86 1532.7 Q1416.25 1532.7 1416.44 1532.89 Q1416.67 1533.05 1416.7 1533.24 L1416.73 1533.4 L1409.87 1561.23 Q1412.71 1560.1 1417.18 1555.11 Q1422.37 1549.31 1426.81 1549.31 Q1428.91 1549.31 1430.1 1550.6 Q1431.29 1551.86 1431.29 1553.47 Z" fill="#000000" fill-rule="evenodd" fill-opacity="1" /><path clip-path="url(#clip550)" d="M1491.1 1569.02 Q1491.1 1569.28 1490.81 1570.28 Q1490.52 1571.28 1489.81 1572.82 Q1489.13 1574.37 1488.17 1575.79 Q1487.23 1577.17 1485.69 1578.2 Q1484.17 1579.2 1482.43 1579.2 Q1480.11 1579.2 1478.57 1577.66 Q1477.02 1576.11 1477.02 1573.79 Q1477.02 1572.53 1477.89 1570.15 Q1481.98 1559.27 1481.98 1555.37 Q1481.98 1550.76 1478.41 1550.76 Q1476.38 1550.76 1474.54 1551.6 Q1472.71 1552.44 1471.52 1553.6 Q1470.32 1554.76 1469.39 1556.08 Q1468.46 1557.4 1468.04 1558.27 Q1467.65 1559.14 1467.55 1559.52 L1463.59 1575.43 Q1463.27 1576.79 1463.05 1577.43 Q1462.82 1578.07 1462.21 1578.62 Q1461.6 1579.2 1460.63 1579.2 Q1459.82 1579.2 1459.24 1578.72 Q1458.7 1578.24 1458.7 1577.4 Q1458.7 1577.27 1458.86 1576.59 Q1459.02 1575.92 1459.24 1574.98 Q1459.47 1574.05 1459.57 1573.5 Q1460.73 1569.12 1460.89 1568.51 L1462.72 1560.84 Q1463.72 1557.04 1463.72 1555.37 Q1463.72 1550.76 1460.15 1550.76 Q1458.38 1550.76 1456.7 1551.44 Q1455.06 1552.08 1453.93 1552.99 Q1452.8 1553.89 1451.77 1555.14 Q1450.77 1556.37 1450.26 1557.2 Q1449.78 1558.01 1449.39 1558.82 L1448.55 1562.1 Q1448.36 1563 1447.43 1566.51 L1445.98 1572.47 Q1444.95 1576.91 1444.72 1577.33 Q1444.4 1578.24 1443.69 1578.72 Q1442.98 1579.2 1442.27 1579.2 Q1441.47 1579.2 1440.92 1578.72 Q1440.37 1578.24 1440.37 1577.4 Q1440.37 1577.27 1440.47 1576.79 Q1440.57 1576.3 1440.73 1575.63 Q1440.89 1574.95 1440.95 1574.56 L1444.78 1559.33 Q1445.49 1556.56 1445.65 1555.69 Q1445.85 1554.79 1445.85 1553.79 Q1445.85 1550.76 1443.79 1550.76 Q1442.11 1550.76 1441.02 1552.76 Q1439.92 1554.76 1438.99 1558.62 Q1438.7 1559.68 1438.5 1559.91 Q1438.34 1560.14 1437.86 1560.14 Q1437.06 1560.1 1437.06 1559.46 Q1437.06 1559.3 1437.31 1558.27 Q1437.57 1557.24 1438.05 1555.69 Q1438.57 1554.11 1439.12 1553.08 Q1439.44 1552.41 1439.73 1551.96 Q1440.02 1551.5 1440.6 1550.8 Q1441.18 1550.09 1442.05 1549.7 Q1442.92 1549.31 1443.98 1549.31 Q1446.33 1549.31 1448.07 1550.83 Q1449.84 1552.34 1450.07 1555.05 Q1454.35 1549.31 1460.34 1549.31 Q1463.72 1549.31 1465.75 1551.02 Q1467.65 1552.66 1467.88 1555.69 Q1472.32 1549.31 1478.63 1549.31 Q1482.27 1549.31 1484.24 1551.21 Q1486.2 1553.08 1486.2 1556.37 Q1486.2 1558.07 1485.33 1561.33 Q1484.46 1564.55 1483.88 1566.16 Q1483.3 1567.77 1482.18 1570.86 Q1480.98 1573.82 1480.98 1575.56 Q1480.98 1576.69 1481.37 1577.2 Q1481.76 1577.72 1482.59 1577.72 Q1483.88 1577.72 1485.01 1576.98 Q1486.14 1576.21 1486.94 1574.95 Q1487.78 1573.66 1488.33 1572.37 Q1488.87 1571.05 1489.29 1569.57 Q1489.55 1568.77 1489.68 1568.57 Q1489.84 1568.38 1490.29 1568.38 Q1491.1 1568.38 1491.1 1569.02 Z" fill="#000000" fill-rule="evenodd" fill-opacity="1" /><path clip-path="url(#clip550)" d="M1494.41 1529 L1499.5 1529 Q1504.28 1536.51 1506.63 1543.7 Q1509.02 1550.9 1509.02 1557.99 Q1509.02 1565.12 1506.63 1572.35 Q1504.28 1579.57 1499.5 1587.05 L1494.41 1587.05 Q1498.64 1579.77 1500.71 1572.57 Q1502.81 1565.35 1502.81 1557.99 Q1502.81 1550.64 1500.71 1543.48 Q1498.64 1536.32 1494.41 1529 Z" fill="#000000" fill-rule="evenodd" fill-opacity="1" /><polyline clip-path="url(#clip552)" style="stroke:#000000; stroke-linecap:butt; stroke-linejoin:round; stroke-width:2; stroke-opacity:0.1; fill:none" points="
  262.551,1386.4 2352.76,1386.4 
  "/>
<polyline clip-path="url(#clip552)" style="stroke:#000000; stroke-linecap:butt; stroke-linejoin:round; stroke-width:2; stroke-opacity:0.1; fill:none" points="
  262.551,1132.71 2352.76,1132.71 
  "/>
<polyline clip-path="url(#clip552)" style="stroke:#000000; stroke-linecap:butt; stroke-linejoin:round; stroke-width:2; stroke-opacity:0.1; fill:none" points="
  262.551,879.028 2352.76,879.028 
  "/>
<polyline clip-path="url(#clip552)" style="stroke:#000000; stroke-linecap:butt; stroke-linejoin:round; stroke-width:2; stroke-opacity:0.1; fill:none" points="
  262.551,625.344 2352.76,625.344 
  "/>
<polyline clip-path="url(#clip552)" style="stroke:#000000; stroke-linecap:butt; stroke-linejoin:round; stroke-width:2; stroke-opacity:0.1; fill:none" points="
  262.551,371.66 2352.76,371.66 
  "/>
<polyline clip-path="url(#clip550)" style="stroke:#000000; stroke-linecap:butt; stroke-linejoin:round; stroke-width:4; stroke-opacity:1; fill:none" points="
  262.551,1423.18 262.551,123.472 
  "/>
<polyline clip-path="url(#clip550)" style="stroke:#000000; stroke-linecap:butt; stroke-linejoin:round; stroke-width:4; stroke-opacity:1; fill:none" points="
  262.551,1386.4 281.449,1386.4 
  "/>
<polyline clip-path="url(#clip550)" style="stroke:#000000; stroke-linecap:butt; stroke-linejoin:round; stroke-width:4; stroke-opacity:1; fill:none" points="
  262.551,1132.71 281.449,1132.71 
  "/>
<polyline clip-path="url(#clip550)" style="stroke:#000000; stroke-linecap:butt; stroke-linejoin:round; stroke-width:4; stroke-opacity:1; fill:none" points="
  262.551,879.028 281.449,879.028 
  "/>
<polyline clip-path="url(#clip550)" style="stroke:#000000; stroke-linecap:butt; stroke-linejoin:round; stroke-width:4; stroke-opacity:1; fill:none" points="
  262.551,625.344 281.449,625.344 
  "/>
<polyline clip-path="url(#clip550)" style="stroke:#000000; stroke-linecap:butt; stroke-linejoin:round; stroke-width:4; stroke-opacity:1; fill:none" points="
  262.551,371.66 281.449,371.66 
  "/>
<path clip-path="url(#clip550)" d="M214.607 1372.19 Q210.996 1372.19 209.167 1375.76 Q207.362 1379.3 207.362 1386.43 Q207.362 1393.54 209.167 1397.1 Q210.996 1400.64 214.607 1400.64 Q218.241 1400.64 220.047 1397.1 Q221.875 1393.54 221.875 1386.43 Q221.875 1379.3 220.047 1375.76 Q218.241 1372.19 214.607 1372.19 M214.607 1368.49 Q220.417 1368.49 223.473 1373.1 Q226.551 1377.68 226.551 1386.43 Q226.551 1395.16 223.473 1399.76 Q220.417 1404.35 214.607 1404.35 Q208.797 1404.35 205.718 1399.76 Q202.662 1395.16 202.662 1386.43 Q202.662 1377.68 205.718 1373.1 Q208.797 1368.49 214.607 1368.49 Z" fill="#000000" fill-rule="evenodd" fill-opacity="1" /><path clip-path="url(#clip550)" d="M158.45 1131.36 Q161.806 1132.08 163.681 1134.34 Q165.579 1136.61 165.579 1139.95 Q165.579 1145.06 162.061 1147.86 Q158.542 1150.66 152.061 1150.66 Q149.885 1150.66 147.57 1150.22 Q145.279 1149.81 142.825 1148.95 L142.825 1144.44 Q144.769 1145.57 147.084 1146.15 Q149.399 1146.73 151.922 1146.73 Q156.32 1146.73 158.612 1144.99 Q160.927 1143.26 160.927 1139.95 Q160.927 1136.89 158.774 1135.18 Q156.644 1133.44 152.825 1133.44 L148.797 1133.44 L148.797 1129.6 L153.01 1129.6 Q156.459 1129.6 158.288 1128.23 Q160.116 1126.84 160.116 1124.25 Q160.116 1121.59 158.218 1120.18 Q156.343 1118.74 152.825 1118.74 Q150.903 1118.74 148.704 1119.16 Q146.505 1119.58 143.866 1120.45 L143.866 1116.29 Q146.529 1115.55 148.843 1115.18 Q151.181 1114.81 153.241 1114.81 Q158.565 1114.81 161.667 1117.24 Q164.769 1119.64 164.769 1123.76 Q164.769 1126.64 163.126 1128.63 Q161.482 1130.59 158.45 1131.36 Z" fill="#000000" fill-rule="evenodd" fill-opacity="1" /><path clip-path="url(#clip550)" d="M184.445 1118.51 Q180.834 1118.51 179.005 1122.08 Q177.2 1125.62 177.2 1132.75 Q177.2 1139.85 179.005 1143.42 Q180.834 1146.96 184.445 1146.96 Q188.079 1146.96 189.885 1143.42 Q191.713 1139.85 191.713 1132.75 Q191.713 1125.62 189.885 1122.08 Q188.079 1118.51 184.445 1118.51 M184.445 1114.81 Q190.255 1114.81 193.311 1119.41 Q196.389 1124 196.389 1132.75 Q196.389 1141.47 193.311 1146.08 Q190.255 1150.66 184.445 1150.66 Q178.635 1150.66 175.556 1146.08 Q172.501 1141.47 172.501 1132.75 Q172.501 1124 175.556 1119.41 Q178.635 1114.81 184.445 1114.81 Z" fill="#000000" fill-rule="evenodd" fill-opacity="1" /><path clip-path="url(#clip550)" d="M214.607 1118.51 Q210.996 1118.51 209.167 1122.08 Q207.362 1125.62 207.362 1132.75 Q207.362 1139.85 209.167 1143.42 Q210.996 1146.96 214.607 1146.96 Q218.241 1146.96 220.047 1143.42 Q221.875 1139.85 221.875 1132.75 Q221.875 1125.62 220.047 1122.08 Q218.241 1118.51 214.607 1118.51 M214.607 1114.81 Q220.417 1114.81 223.473 1119.41 Q226.551 1124 226.551 1132.75 Q226.551 1141.47 223.473 1146.08 Q220.417 1150.66 214.607 1150.66 Q208.797 1150.66 205.718 1146.08 Q202.662 1141.47 202.662 1132.75 Q202.662 1124 205.718 1119.41 Q208.797 1114.81 214.607 1114.81 Z" fill="#000000" fill-rule="evenodd" fill-opacity="1" /><path clip-path="url(#clip550)" d="M154.862 877.164 Q151.714 877.164 149.862 879.317 Q148.033 881.47 148.033 885.22 Q148.033 888.947 149.862 891.122 Q151.714 893.275 154.862 893.275 Q158.01 893.275 159.839 891.122 Q161.69 888.947 161.69 885.22 Q161.69 881.47 159.839 879.317 Q158.01 877.164 154.862 877.164 M164.144 862.512 L164.144 866.771 Q162.385 865.937 160.579 865.498 Q158.797 865.058 157.038 865.058 Q152.408 865.058 149.954 868.183 Q147.524 871.308 147.177 877.627 Q148.542 875.613 150.603 874.549 Q152.663 873.461 155.14 873.461 Q160.348 873.461 163.357 876.632 Q166.39 879.78 166.39 885.22 Q166.39 890.544 163.241 893.761 Q160.093 896.979 154.862 896.979 Q148.866 896.979 145.695 892.396 Q142.524 887.789 142.524 879.062 Q142.524 870.868 146.413 866.007 Q150.302 861.123 156.853 861.123 Q158.612 861.123 160.394 861.47 Q162.2 861.817 164.144 862.512 Z" fill="#000000" fill-rule="evenodd" fill-opacity="1" /><path clip-path="url(#clip550)" d="M184.445 864.826 Q180.834 864.826 179.005 868.391 Q177.2 871.933 177.2 879.062 Q177.2 886.169 179.005 889.734 Q180.834 893.275 184.445 893.275 Q188.079 893.275 189.885 889.734 Q191.713 886.169 191.713 879.062 Q191.713 871.933 189.885 868.391 Q188.079 864.826 184.445 864.826 M184.445 861.123 Q190.255 861.123 193.311 865.729 Q196.389 870.312 196.389 879.062 Q196.389 887.789 193.311 892.396 Q190.255 896.979 184.445 896.979 Q178.635 896.979 175.556 892.396 Q172.501 887.789 172.501 879.062 Q172.501 870.312 175.556 865.729 Q178.635 861.123 184.445 861.123 Z" fill="#000000" fill-rule="evenodd" fill-opacity="1" /><path clip-path="url(#clip550)" d="M214.607 864.826 Q210.996 864.826 209.167 868.391 Q207.362 871.933 207.362 879.062 Q207.362 886.169 209.167 889.734 Q210.996 893.275 214.607 893.275 Q218.241 893.275 220.047 889.734 Q221.875 886.169 221.875 879.062 Q221.875 871.933 220.047 868.391 Q218.241 864.826 214.607 864.826 M214.607 861.123 Q220.417 861.123 223.473 865.729 Q226.551 870.312 226.551 879.062 Q226.551 887.789 223.473 892.396 Q220.417 896.979 214.607 896.979 Q208.797 896.979 205.718 892.396 Q202.662 887.789 202.662 879.062 Q202.662 870.312 205.718 865.729 Q208.797 861.123 214.607 861.123 Z" fill="#000000" fill-rule="evenodd" fill-opacity="1" /><path clip-path="url(#clip550)" d="M144.422 641.906 L144.422 637.647 Q146.181 638.48 147.987 638.92 Q149.792 639.36 151.528 639.36 Q156.158 639.36 158.589 636.258 Q161.042 633.133 161.39 626.79 Q160.047 628.781 157.987 629.846 Q155.927 630.911 153.427 630.911 Q148.241 630.911 145.209 627.786 Q142.2 624.638 142.2 619.198 Q142.2 613.874 145.348 610.656 Q148.496 607.439 153.728 607.439 Q159.723 607.439 162.871 612.045 Q166.042 616.628 166.042 625.378 Q166.042 633.55 162.153 638.434 Q158.288 643.295 151.737 643.295 Q149.978 643.295 148.172 642.948 Q146.366 642.601 144.422 641.906 M153.728 627.253 Q156.876 627.253 158.704 625.101 Q160.556 622.948 160.556 619.198 Q160.556 615.471 158.704 613.318 Q156.876 611.142 153.728 611.142 Q150.579 611.142 148.728 613.318 Q146.899 615.471 146.899 619.198 Q146.899 622.948 148.728 625.101 Q150.579 627.253 153.728 627.253 Z" fill="#000000" fill-rule="evenodd" fill-opacity="1" /><path clip-path="url(#clip550)" d="M184.445 611.142 Q180.834 611.142 179.005 614.707 Q177.2 618.249 177.2 625.378 Q177.2 632.485 179.005 636.05 Q180.834 639.591 184.445 639.591 Q188.079 639.591 189.885 636.05 Q191.713 632.485 191.713 625.378 Q191.713 618.249 189.885 614.707 Q188.079 611.142 184.445 611.142 M184.445 607.439 Q190.255 607.439 193.311 612.045 Q196.389 616.628 196.389 625.378 Q196.389 634.105 193.311 638.712 Q190.255 643.295 184.445 643.295 Q178.635 643.295 175.556 638.712 Q172.501 634.105 172.501 625.378 Q172.501 616.628 175.556 612.045 Q178.635 607.439 184.445 607.439 Z" fill="#000000" fill-rule="evenodd" fill-opacity="1" /><path clip-path="url(#clip550)" d="M214.607 611.142 Q210.996 611.142 209.167 614.707 Q207.362 618.249 207.362 625.378 Q207.362 632.485 209.167 636.05 Q210.996 639.591 214.607 639.591 Q218.241 639.591 220.047 636.05 Q221.875 632.485 221.875 625.378 Q221.875 618.249 220.047 614.707 Q218.241 611.142 214.607 611.142 M214.607 607.439 Q220.417 607.439 223.473 612.045 Q226.551 616.628 226.551 625.378 Q226.551 634.105 223.473 638.712 Q220.417 643.295 214.607 643.295 Q208.797 643.295 205.718 638.712 Q202.662 634.105 202.662 625.378 Q202.662 616.628 205.718 612.045 Q208.797 607.439 214.607 607.439 Z" fill="#000000" fill-rule="evenodd" fill-opacity="1" /><path clip-path="url(#clip550)" d="M114.931 385.004 L122.57 385.004 L122.57 358.639 L114.26 360.306 L114.26 356.046 L122.524 354.38 L127.2 354.38 L127.2 385.004 L134.839 385.004 L134.839 388.94 L114.931 388.94 L114.931 385.004 Z" fill="#000000" fill-rule="evenodd" fill-opacity="1" /><path clip-path="url(#clip550)" d="M148.311 385.004 L164.63 385.004 L164.63 388.94 L142.686 388.94 L142.686 385.004 Q145.348 382.25 149.931 377.62 Q154.538 372.968 155.718 371.625 Q157.964 369.102 158.843 367.366 Q159.746 365.606 159.746 363.917 Q159.746 361.162 157.802 359.426 Q155.88 357.69 152.778 357.69 Q150.579 357.69 148.126 358.454 Q145.695 359.218 142.917 360.768 L142.917 356.046 Q145.741 354.912 148.195 354.333 Q150.649 353.755 152.686 353.755 Q158.056 353.755 161.251 356.44 Q164.445 359.125 164.445 363.616 Q164.445 365.745 163.635 367.667 Q162.848 369.565 160.741 372.157 Q160.163 372.829 157.061 376.046 Q153.959 379.241 148.311 385.004 Z" fill="#000000" fill-rule="evenodd" fill-opacity="1" /><path clip-path="url(#clip550)" d="M184.445 357.458 Q180.834 357.458 179.005 361.023 Q177.2 364.565 177.2 371.694 Q177.2 378.801 179.005 382.366 Q180.834 385.907 184.445 385.907 Q188.079 385.907 189.885 382.366 Q191.713 378.801 191.713 371.694 Q191.713 364.565 189.885 361.023 Q188.079 357.458 184.445 357.458 M184.445 353.755 Q190.255 353.755 193.311 358.361 Q196.389 362.944 196.389 371.694 Q196.389 380.421 193.311 385.028 Q190.255 389.611 184.445 389.611 Q178.635 389.611 175.556 385.028 Q172.501 380.421 172.501 371.694 Q172.501 362.944 175.556 358.361 Q178.635 353.755 184.445 353.755 Z" fill="#000000" fill-rule="evenodd" fill-opacity="1" /><path clip-path="url(#clip550)" d="M214.607 357.458 Q210.996 357.458 209.167 361.023 Q207.362 364.565 207.362 371.694 Q207.362 378.801 209.167 382.366 Q210.996 385.907 214.607 385.907 Q218.241 385.907 220.047 382.366 Q221.875 378.801 221.875 371.694 Q221.875 364.565 220.047 361.023 Q218.241 357.458 214.607 357.458 M214.607 353.755 Q220.417 353.755 223.473 358.361 Q226.551 362.944 226.551 371.694 Q226.551 380.421 223.473 385.028 Q220.417 389.611 214.607 389.611 Q208.797 389.611 205.718 385.028 Q202.662 380.421 202.662 371.694 Q202.662 362.944 205.718 358.361 Q208.797 353.755 214.607 353.755 Z" fill="#000000" fill-rule="evenodd" fill-opacity="1" /><path clip-path="url(#clip550)" d="M20.1444 1003.64 L26.9239 1003.64 Q23.9002 1006.88 22.4043 1010.58 Q20.9083 1014.24 20.9083 1018.37 Q20.9083 1026.52 25.9054 1030.85 Q30.8707 1035.18 40.2919 1035.18 Q49.6813 1035.18 54.6784 1030.85 Q59.6436 1026.52 59.6436 1018.37 Q59.6436 1014.24 58.1477 1010.58 Q56.6518 1006.88 53.6281 1003.64 L60.3439 1003.64 Q62.6355 1007.01 63.7814 1010.8 Q64.9272 1014.55 64.9272 1018.76 Q64.9272 1029.55 58.3387 1035.75 Q51.7183 1041.96 40.2919 1041.96 Q28.8336 1041.96 22.2451 1035.75 Q15.6248 1029.55 15.6248 1018.76 Q15.6248 1014.49 16.7706 1010.74 Q17.8846 1006.95 20.1444 1003.64 Z" fill="#000000" fill-rule="evenodd" fill-opacity="1" /><path clip-path="url(#clip550)" d="M32.4621 980.148 Q32.4621 984.858 36.1542 987.596 Q39.8145 990.333 46.212 990.333 Q52.6095 990.333 56.3017 987.627 Q59.9619 984.89 59.9619 980.148 Q59.9619 975.469 56.2698 972.732 Q52.5777 969.994 46.212 969.994 Q39.8781 969.994 36.186 972.732 Q32.4621 975.469 32.4621 980.148 M27.4968 980.148 Q27.4968 972.509 32.4621 968.148 Q37.4273 963.788 46.212 963.788 Q54.9649 963.788 59.9619 968.148 Q64.9272 972.509 64.9272 980.148 Q64.9272 987.818 59.9619 992.179 Q54.9649 996.508 46.212 996.508 Q37.4273 996.508 32.4621 992.179 Q27.4968 987.818 27.4968 980.148 Z" fill="#000000" fill-rule="evenodd" fill-opacity="1" /><path clip-path="url(#clip550)" d="M49.9359 954.685 L28.3562 954.685 L28.3562 948.829 L49.7131 948.829 Q54.7739 948.829 57.3202 946.855 Q59.8346 944.882 59.8346 940.935 Q59.8346 936.193 56.8109 933.455 Q53.7872 930.686 48.5673 930.686 L28.3562 930.686 L28.3562 924.83 L64.0042 924.83 L64.0042 930.686 L58.5296 930.686 Q61.7762 932.819 63.3676 935.652 Q64.9272 938.452 64.9272 942.176 Q64.9272 948.319 61.1078 951.502 Q57.2883 954.685 49.9359 954.685 M27.4968 939.948 L27.4968 939.948 Z" fill="#000000" fill-rule="evenodd" fill-opacity="1" /><path clip-path="url(#clip550)" d="M42.4881 883.134 L64.0042 883.134 L64.0042 888.991 L42.679 888.991 Q37.6183 888.991 35.1038 890.964 Q32.5894 892.938 32.5894 896.884 Q32.5894 901.627 35.6131 904.364 Q38.6368 907.101 43.8567 907.101 L64.0042 907.101 L64.0042 912.99 L28.3562 912.99 L28.3562 907.101 L33.8944 907.101 Q30.6797 905.001 29.0883 902.168 Q27.4968 899.303 27.4968 895.579 Q27.4968 889.436 31.3163 886.285 Q35.1038 883.134 42.4881 883.134 Z" fill="#000000" fill-rule="evenodd" fill-opacity="1" /><path clip-path="url(#clip550)" d="M18.2347 865.661 L28.3562 865.661 L28.3562 853.598 L32.9077 853.598 L32.9077 865.661 L52.2594 865.661 Q56.6199 865.661 57.8613 864.483 Q59.1026 863.273 59.1026 859.613 L59.1026 853.598 L64.0042 853.598 L64.0042 859.613 Q64.0042 866.393 61.4897 868.971 Q58.9434 871.549 52.2594 871.549 L32.9077 871.549 L32.9077 875.846 L28.3562 875.846 L28.3562 871.549 L18.2347 871.549 L18.2347 865.661 Z" fill="#000000" fill-rule="evenodd" fill-opacity="1" /><path clip-path="url(#clip550)" d="M32.4621 811.361 Q32.4621 816.072 36.1542 818.809 Q39.8145 821.546 46.212 821.546 Q52.6095 821.546 56.3017 818.841 Q59.9619 816.104 59.9619 811.361 Q59.9619 806.682 56.2698 803.945 Q52.5777 801.208 46.212 801.208 Q39.8781 801.208 36.186 803.945 Q32.4621 806.682 32.4621 811.361 M27.4968 811.361 Q27.4968 803.722 32.4621 799.362 Q37.4273 795.001 46.212 795.001 Q54.9649 795.001 59.9619 799.362 Q64.9272 803.722 64.9272 811.361 Q64.9272 819.032 59.9619 823.392 Q54.9649 827.721 46.212 827.721 Q37.4273 827.721 32.4621 823.392 Q27.4968 819.032 27.4968 811.361 Z" fill="#000000" fill-rule="evenodd" fill-opacity="1" /><path clip-path="url(#clip550)" d="M14.479 767.247 L19.3487 767.247 L19.3487 772.849 Q19.3487 776 20.6219 777.241 Q21.895 778.45 25.2052 778.45 L28.3562 778.45 L28.3562 768.806 L32.9077 768.806 L32.9077 778.45 L64.0042 778.45 L64.0042 784.339 L32.9077 784.339 L32.9077 789.94 L28.3562 789.94 L28.3562 784.339 L25.8736 784.339 Q19.9216 784.339 17.2162 781.57 Q14.479 778.8 14.479 772.785 L14.479 767.247 Z" fill="#000000" fill-rule="evenodd" fill-opacity="1" /><path clip-path="url(#clip550)" d="M20.8447 722.082 Q20.8447 729.084 26.0645 733.222 Q31.2844 737.328 40.2919 737.328 Q49.2675 737.328 54.4874 733.222 Q59.7073 729.084 59.7073 722.082 Q59.7073 715.08 54.4874 711.006 Q49.2675 706.9 40.2919 706.9 Q31.2844 706.9 26.0645 711.006 Q20.8447 715.08 20.8447 722.082 M15.6248 722.082 Q15.6248 712.088 22.3406 706.104 Q29.0246 700.12 40.2919 700.12 Q51.5274 700.12 58.2432 706.104 Q64.9272 712.088 64.9272 722.082 Q64.9272 732.108 58.2432 738.124 Q51.5592 744.107 40.2919 744.107 Q29.0246 744.107 22.3406 738.124 Q15.6248 732.108 15.6248 722.082 Z" fill="#000000" fill-rule="evenodd" fill-opacity="1" /><path clip-path="url(#clip550)" d="M46.212 664.727 Q39.7508 664.727 36.0905 667.401 Q32.3984 670.042 32.3984 674.689 Q32.3984 679.336 36.0905 682.01 Q39.7508 684.652 46.212 684.652 Q52.6732 684.652 56.3653 682.01 Q60.0256 679.336 60.0256 674.689 Q60.0256 670.042 56.3653 667.401 Q52.6732 664.727 46.212 664.727 M33.7671 684.652 Q30.5842 682.806 29.0564 680.005 Q27.4968 677.172 27.4968 673.257 Q27.4968 666.764 32.6531 662.722 Q37.8093 658.648 46.212 658.648 Q54.6147 658.648 59.771 662.722 Q64.9272 666.764 64.9272 673.257 Q64.9272 677.172 63.3994 680.005 Q61.8398 682.806 58.657 684.652 L64.0042 684.652 L64.0042 690.54 L14.479 690.54 L14.479 684.652 L33.7671 684.652 Z" fill="#000000" fill-rule="evenodd" fill-opacity="1" /><path clip-path="url(#clip550)" d="M28.3562 648.94 L28.3562 643.084 L64.6407 643.084 Q71.452 643.084 74.5076 645.694 Q77.5631 648.272 77.5631 654.033 L77.5631 656.261 L72.5979 656.261 L72.5979 654.701 Q72.5979 651.359 71.0383 650.15 Q69.5105 648.94 64.6407 648.94 L28.3562 648.94 M14.479 648.94 L14.479 643.084 L21.895 643.084 L21.895 648.94 L14.479 648.94 Z" fill="#000000" fill-rule="evenodd" fill-opacity="1" /><path clip-path="url(#clip550)" d="M44.7161 600.338 L47.5806 600.338 L47.5806 627.265 Q53.6281 626.883 56.8109 623.636 Q59.9619 620.358 59.9619 614.533 Q59.9619 611.16 59.1344 608.009 Q58.3069 604.826 56.6518 601.707 L62.1899 601.707 Q63.5267 604.858 64.227 608.168 Q64.9272 611.478 64.9272 614.884 Q64.9272 623.414 59.9619 628.411 Q54.9967 633.376 46.5303 633.376 Q37.7774 633.376 32.6531 628.665 Q27.4968 623.923 27.4968 615.902 Q27.4968 608.709 32.1438 604.539 Q36.7589 600.338 44.7161 600.338 M42.9973 606.194 Q38.1912 606.258 35.3266 608.9 Q32.4621 611.51 32.4621 615.838 Q32.4621 620.74 35.2312 623.7 Q38.0002 626.628 43.0292 627.074 L42.9973 606.194 Z" fill="#000000" fill-rule="evenodd" fill-opacity="1" /><path clip-path="url(#clip550)" d="M29.7248 565.072 L35.1993 565.072 Q33.8307 567.555 33.1623 570.069 Q32.4621 572.552 32.4621 575.098 Q32.4621 580.795 36.0905 583.946 Q39.6872 587.097 46.212 587.097 Q52.7369 587.097 56.3653 583.946 Q59.9619 580.795 59.9619 575.098 Q59.9619 572.552 59.2935 570.069 Q58.5933 567.555 57.2247 565.072 L62.6355 565.072 Q63.7814 567.523 64.3543 570.164 Q64.9272 572.774 64.9272 575.734 Q64.9272 583.787 59.8664 588.53 Q54.8057 593.272 46.212 593.272 Q37.491 593.272 32.4939 588.498 Q27.4968 583.692 27.4968 575.353 Q27.4968 572.647 28.0697 570.069 Q28.6108 567.491 29.7248 565.072 Z" fill="#000000" fill-rule="evenodd" fill-opacity="1" /><path clip-path="url(#clip550)" d="M18.2347 549.094 L28.3562 549.094 L28.3562 537.031 L32.9077 537.031 L32.9077 549.094 L52.2594 549.094 Q56.6199 549.094 57.8613 547.916 Q59.1026 546.707 59.1026 543.047 L59.1026 537.031 L64.0042 537.031 L64.0042 543.047 Q64.0042 549.826 61.4897 552.404 Q58.9434 554.982 52.2594 554.982 L32.9077 554.982 L32.9077 559.279 L28.3562 559.279 L28.3562 554.982 L18.2347 554.982 L18.2347 549.094 Z" fill="#000000" fill-rule="evenodd" fill-opacity="1" /><path clip-path="url(#clip550)" d="M29.4065 506.603 L34.9447 506.603 Q33.6716 509.086 33.035 511.759 Q32.3984 514.433 32.3984 517.297 Q32.3984 521.658 33.7352 523.854 Q35.072 526.018 37.7456 526.018 Q39.7826 526.018 40.9603 524.459 Q42.1061 522.899 43.1565 518.188 L43.6021 516.183 Q44.9389 509.945 47.3897 507.335 Q49.8086 504.693 54.1691 504.693 Q59.1344 504.693 62.0308 508.64 Q64.9272 512.555 64.9272 519.43 Q64.9272 522.294 64.3543 525.414 Q63.8132 528.501 62.6992 531.938 L56.6518 531.938 Q58.3387 528.692 59.198 525.541 Q60.0256 522.39 60.0256 519.302 Q60.0256 515.165 58.6251 512.937 Q57.1929 510.709 54.6147 510.709 Q52.2276 510.709 50.9545 512.332 Q49.6813 513.923 48.5037 519.366 L48.0262 521.403 Q46.8804 526.846 44.5251 529.265 Q42.138 531.684 38.0002 531.684 Q32.9713 531.684 30.2341 528.119 Q27.4968 524.554 27.4968 517.997 Q27.4968 514.751 27.9743 511.886 Q28.4517 509.022 29.4065 506.603 Z" fill="#000000" fill-rule="evenodd" fill-opacity="1" /><path clip-path="url(#clip550)" d="M634.191 16.7545 L634.191 25.383 Q630.059 21.5346 625.36 19.6307 Q620.701 17.7268 615.435 17.7268 Q605.065 17.7268 599.556 24.0867 Q594.046 30.4061 594.046 42.3968 Q594.046 54.3469 599.556 60.7069 Q605.065 67.0263 615.435 67.0263 Q620.701 67.0263 625.36 65.1223 Q630.059 63.2184 634.191 59.3701 L634.191 67.9175 Q629.897 70.8341 625.076 72.2924 Q620.296 73.7508 614.949 73.7508 Q601.216 73.7508 593.317 65.3654 Q585.418 56.9395 585.418 42.3968 Q585.418 27.8135 593.317 19.4281 Q601.216 11.0023 614.949 11.0023 Q620.377 11.0023 625.157 12.4606 Q629.978 13.8784 634.191 16.7545 Z" fill="#000000" fill-rule="evenodd" fill-opacity="1" /><path clip-path="url(#clip550)" d="M664.086 32.4315 Q658.091 32.4315 654.607 37.1306 Q651.124 41.7891 651.124 49.9314 Q651.124 58.0738 654.567 62.7728 Q658.051 67.4314 664.086 67.4314 Q670.041 67.4314 673.525 62.7323 Q677.009 58.0333 677.009 49.9314 Q677.009 41.8701 673.525 37.1711 Q670.041 32.4315 664.086 32.4315 M664.086 26.1121 Q673.809 26.1121 679.358 32.4315 Q684.908 38.7509 684.908 49.9314 Q684.908 61.0714 679.358 67.4314 Q673.809 73.7508 664.086 73.7508 Q654.324 73.7508 648.774 67.4314 Q643.265 61.0714 643.265 49.9314 Q643.265 38.7509 648.774 32.4315 Q654.324 26.1121 664.086 26.1121 Z" fill="#000000" fill-rule="evenodd" fill-opacity="1" /><path clip-path="url(#clip550)" d="M696.494 54.671 L696.494 27.2059 L703.947 27.2059 L703.947 54.3874 Q703.947 60.8284 706.459 64.0691 Q708.97 67.2693 713.994 67.2693 Q720.029 67.2693 723.513 63.421 Q727.037 59.5726 727.037 52.9291 L727.037 27.2059 L734.491 27.2059 L734.491 72.576 L727.037 72.576 L727.037 65.6084 Q724.323 69.7404 720.718 71.7658 Q717.153 73.7508 712.414 73.7508 Q704.595 73.7508 700.545 68.8897 Q696.494 64.0286 696.494 54.671 M715.249 26.1121 L715.249 26.1121 Z" fill="#000000" fill-rule="evenodd" fill-opacity="1" /><path clip-path="url(#clip550)" d="M787.558 45.1919 L787.558 72.576 L780.104 72.576 L780.104 45.4349 Q780.104 38.994 777.593 35.7938 Q775.081 32.5936 770.058 32.5936 Q764.022 32.5936 760.538 36.4419 Q757.055 40.2903 757.055 46.9338 L757.055 72.576 L749.56 72.576 L749.56 27.2059 L757.055 27.2059 L757.055 34.2544 Q759.728 30.163 763.334 28.1376 Q766.979 26.1121 771.719 26.1121 Q779.537 26.1121 783.548 30.9732 Q787.558 35.7938 787.558 45.1919 Z" fill="#000000" fill-rule="evenodd" fill-opacity="1" /><path clip-path="url(#clip550)" d="M809.797 14.324 L809.797 27.2059 L825.15 27.2059 L825.15 32.9987 L809.797 32.9987 L809.797 57.6282 Q809.797 63.1779 811.296 64.7578 Q812.836 66.3376 817.494 66.3376 L825.15 66.3376 L825.15 72.576 L817.494 72.576 Q808.866 72.576 805.584 69.3758 Q802.303 66.1351 802.303 57.6282 L802.303 32.9987 L796.835 32.9987 L796.835 27.2059 L802.303 27.2059 L802.303 14.324 L809.797 14.324 Z" fill="#000000" fill-rule="evenodd" fill-opacity="1" /><path clip-path="url(#clip550)" d="M863.877 28.5427 L863.877 35.5912 Q860.717 33.9709 857.315 33.1607 Q853.912 32.3505 850.266 32.3505 Q844.716 32.3505 841.921 34.0519 Q839.166 35.7533 839.166 39.156 Q839.166 41.7486 841.151 43.2475 Q843.136 44.7058 849.132 46.0426 L851.684 46.6097 Q859.624 48.3111 862.945 51.4303 Q866.308 54.509 866.308 60.0587 Q866.308 66.3781 861.284 70.0644 Q856.302 73.7508 847.552 73.7508 Q843.906 73.7508 839.936 73.0216 Q836.007 72.3329 831.632 70.9151 L831.632 63.2184 Q835.764 65.3654 839.774 66.4591 Q843.785 67.5124 847.714 67.5124 Q852.98 67.5124 855.816 65.73 Q858.651 63.9071 858.651 60.6258 Q858.651 57.5877 856.585 55.9673 Q854.56 54.3469 847.633 52.8481 L845.04 52.2405 Q838.113 50.7821 835.035 47.7845 Q831.956 44.7463 831.956 39.4801 Q831.956 33.0797 836.493 29.5959 Q841.03 26.1121 849.375 26.1121 Q853.507 26.1121 857.153 26.7198 Q860.798 27.3274 863.877 28.5427 Z" fill="#000000" fill-rule="evenodd" fill-opacity="1" /><path clip-path="url(#clip550)" d="M922.129 32.4315 Q916.134 32.4315 912.65 37.1306 Q909.166 41.7891 909.166 49.9314 Q909.166 58.0738 912.609 62.7728 Q916.093 67.4314 922.129 67.4314 Q928.084 67.4314 931.568 62.7323 Q935.051 58.0333 935.051 49.9314 Q935.051 41.8701 931.568 37.1711 Q928.084 32.4315 922.129 32.4315 M922.129 26.1121 Q931.851 26.1121 937.401 32.4315 Q942.951 38.7509 942.951 49.9314 Q942.951 61.0714 937.401 67.4314 Q931.851 73.7508 922.129 73.7508 Q912.366 73.7508 906.817 67.4314 Q901.307 61.0714 901.307 49.9314 Q901.307 38.7509 906.817 32.4315 Q912.366 26.1121 922.129 26.1121 Z" fill="#000000" fill-rule="evenodd" fill-opacity="1" /><path clip-path="url(#clip550)" d="M978.275 9.54393 L978.275 15.7418 L971.145 15.7418 Q967.135 15.7418 965.555 17.3622 Q964.015 18.9825 964.015 23.1955 L964.015 27.2059 L976.29 27.2059 L976.29 32.9987 L964.015 32.9987 L964.015 72.576 L956.521 72.576 L956.521 32.9987 L949.392 32.9987 L949.392 27.2059 L956.521 27.2059 L956.521 24.0462 Q956.521 16.471 960.045 13.0277 Q963.57 9.54393 971.226 9.54393 L978.275 9.54393 Z" fill="#000000" fill-rule="evenodd" fill-opacity="1" /><path clip-path="url(#clip550)" d="M1035.76 17.6457 Q1026.84 17.6457 1021.58 24.2892 Q1016.35 30.9327 1016.35 42.3968 Q1016.35 53.8203 1021.58 60.4638 Q1026.84 67.1073 1035.76 67.1073 Q1044.67 67.1073 1049.85 60.4638 Q1055.08 53.8203 1055.08 42.3968 Q1055.08 30.9327 1049.85 24.2892 Q1044.67 17.6457 1035.76 17.6457 M1035.76 11.0023 Q1048.48 11.0023 1056.09 19.5497 Q1063.71 28.0566 1063.71 42.3968 Q1063.71 56.6965 1056.09 65.2439 Q1048.48 73.7508 1035.76 73.7508 Q1023 73.7508 1015.34 65.2439 Q1007.72 56.737 1007.72 42.3968 Q1007.72 28.0566 1015.34 19.5497 Q1023 11.0023 1035.76 11.0023 Z" fill="#000000" fill-rule="evenodd" fill-opacity="1" /><path clip-path="url(#clip550)" d="M1108.75 49.9314 Q1108.75 41.7081 1105.35 37.0496 Q1101.99 32.3505 1096.07 32.3505 Q1090.16 32.3505 1086.76 37.0496 Q1083.4 41.7081 1083.4 49.9314 Q1083.4 58.1548 1086.76 62.8538 Q1090.16 67.5124 1096.07 67.5124 Q1101.99 67.5124 1105.35 62.8538 Q1108.75 58.1548 1108.75 49.9314 M1083.4 34.0924 Q1085.75 30.0415 1089.31 28.0971 Q1092.92 26.1121 1097.9 26.1121 Q1106.16 26.1121 1111.31 32.6746 Q1116.49 39.2371 1116.49 49.9314 Q1116.49 60.6258 1111.31 67.1883 Q1106.16 73.7508 1097.9 73.7508 Q1092.92 73.7508 1089.31 71.8063 Q1085.75 69.8214 1083.4 65.7705 L1083.4 72.576 L1075.9 72.576 L1075.9 9.54393 L1083.4 9.54393 L1083.4 34.0924 Z" fill="#000000" fill-rule="evenodd" fill-opacity="1" /><path clip-path="url(#clip550)" d="M1128.85 27.2059 L1136.3 27.2059 L1136.3 73.3862 Q1136.3 82.0551 1132.98 85.944 Q1129.7 89.8329 1122.37 89.8329 L1119.53 89.8329 L1119.53 83.5134 L1121.51 83.5134 Q1125.77 83.5134 1127.31 81.5285 Q1128.85 79.5841 1128.85 73.3862 L1128.85 27.2059 M1128.85 9.54393 L1136.3 9.54393 L1136.3 18.9825 L1128.85 18.9825 L1128.85 9.54393 Z" fill="#000000" fill-rule="evenodd" fill-opacity="1" /><path clip-path="url(#clip550)" d="M1190.7 48.0275 L1190.7 51.6733 L1156.43 51.6733 Q1156.92 59.3701 1161.05 63.421 Q1165.22 67.4314 1172.64 67.4314 Q1176.93 67.4314 1180.94 66.3781 Q1184.99 65.3249 1188.96 63.2184 L1188.96 70.267 Q1184.95 71.9684 1180.74 72.8596 Q1176.53 73.7508 1172.19 73.7508 Q1161.33 73.7508 1154.97 67.4314 Q1148.66 61.1119 1148.66 50.3365 Q1148.66 39.1965 1154.65 32.6746 Q1160.69 26.1121 1170.9 26.1121 Q1180.05 26.1121 1185.36 32.0264 Q1190.7 37.9003 1190.7 48.0275 M1183.25 45.84 Q1183.17 39.7232 1179.81 36.0774 Q1176.49 32.4315 1170.98 32.4315 Q1164.74 32.4315 1160.97 35.9558 Q1157.24 39.4801 1156.68 45.8805 L1183.25 45.84 Z" fill="#000000" fill-rule="evenodd" fill-opacity="1" /><path clip-path="url(#clip550)" d="M1235.59 28.9478 L1235.59 35.9153 Q1232.43 34.1734 1229.23 33.3227 Q1226.07 32.4315 1222.83 32.4315 Q1215.58 32.4315 1211.57 37.0496 Q1207.56 41.6271 1207.56 49.9314 Q1207.56 58.2358 1211.57 62.8538 Q1215.58 67.4314 1222.83 67.4314 Q1226.07 67.4314 1229.23 66.5807 Q1232.43 65.6895 1235.59 63.9476 L1235.59 70.8341 Q1232.47 72.2924 1229.11 73.0216 Q1225.78 73.7508 1222.02 73.7508 Q1211.77 73.7508 1205.73 67.3098 Q1199.7 60.8689 1199.7 49.9314 Q1199.7 38.832 1205.77 32.472 Q1211.89 26.1121 1222.5 26.1121 Q1225.95 26.1121 1229.23 26.8413 Q1232.51 27.5299 1235.59 28.9478 Z" fill="#000000" fill-rule="evenodd" fill-opacity="1" /><path clip-path="url(#clip550)" d="M1255.92 14.324 L1255.92 27.2059 L1271.28 27.2059 L1271.28 32.9987 L1255.92 32.9987 L1255.92 57.6282 Q1255.92 63.1779 1257.42 64.7578 Q1258.96 66.3376 1263.62 66.3376 L1271.28 66.3376 L1271.28 72.576 L1263.62 72.576 Q1254.99 72.576 1251.71 69.3758 Q1248.43 66.1351 1248.43 57.6282 L1248.43 32.9987 L1242.96 32.9987 L1242.96 27.2059 L1248.43 27.2059 L1248.43 14.324 L1255.92 14.324 Z" fill="#000000" fill-rule="evenodd" fill-opacity="1" /><path clip-path="url(#clip550)" d="M1310 28.5427 L1310 35.5912 Q1306.84 33.9709 1303.44 33.1607 Q1300.04 32.3505 1296.39 32.3505 Q1290.84 32.3505 1288.05 34.0519 Q1285.29 35.7533 1285.29 39.156 Q1285.29 41.7486 1287.28 43.2475 Q1289.26 44.7058 1295.26 46.0426 L1297.81 46.6097 Q1305.75 48.3111 1309.07 51.4303 Q1312.43 54.509 1312.43 60.0587 Q1312.43 66.3781 1307.41 70.0644 Q1302.43 73.7508 1293.68 73.7508 Q1290.03 73.7508 1286.06 73.0216 Q1282.13 72.3329 1277.76 70.9151 L1277.76 63.2184 Q1281.89 65.3654 1285.9 66.4591 Q1289.91 67.5124 1293.84 67.5124 Q1299.11 67.5124 1301.94 65.73 Q1304.78 63.9071 1304.78 60.6258 Q1304.78 57.5877 1302.71 55.9673 Q1300.69 54.3469 1293.76 52.8481 L1291.17 52.2405 Q1284.24 50.7821 1281.16 47.7845 Q1278.08 44.7463 1278.08 39.4801 Q1278.08 33.0797 1282.62 29.5959 Q1287.16 26.1121 1295.5 26.1121 Q1299.63 26.1121 1303.28 26.7198 Q1306.92 27.3274 1310 28.5427 Z" fill="#000000" fill-rule="evenodd" fill-opacity="1" /><path clip-path="url(#clip550)" d="M1359.18 43.6931 L1359.18 65.8515 L1372.31 65.8515 Q1378.91 65.8515 1382.07 63.1374 Q1385.27 60.3828 1385.27 54.752 Q1385.27 49.0808 1382.07 46.4072 Q1378.91 43.6931 1372.31 43.6931 L1359.18 43.6931 M1359.18 18.8205 L1359.18 37.0496 L1371.29 37.0496 Q1377.29 37.0496 1380.21 34.8216 Q1383.16 32.5531 1383.16 27.935 Q1383.16 23.3575 1380.21 21.089 Q1377.29 18.8205 1371.29 18.8205 L1359.18 18.8205 M1351 12.096 L1371.9 12.096 Q1381.26 12.096 1386.32 15.9849 Q1391.39 19.8737 1391.39 27.0438 Q1391.39 32.5936 1388.79 35.8748 Q1386.2 39.156 1381.18 39.9662 Q1387.21 41.2625 1390.54 45.3944 Q1393.9 49.4858 1393.9 55.6432 Q1393.9 63.745 1388.39 68.1605 Q1382.88 72.576 1372.71 72.576 L1351 72.576 L1351 12.096 Z" fill="#000000" fill-rule="evenodd" fill-opacity="1" /><path clip-path="url(#clip550)" d="M1426.47 76.7889 Q1423.31 84.8907 1420.31 87.3618 Q1417.31 89.8329 1412.29 89.8329 L1406.33 89.8329 L1406.33 83.5945 L1410.71 83.5945 Q1413.79 83.5945 1415.49 82.1361 Q1417.19 80.6778 1419.26 75.2496 L1420.59 71.8468 L1402.24 27.2059 L1410.14 27.2059 L1424.32 62.6918 L1438.5 27.2059 L1446.4 27.2059 L1426.47 76.7889 Z" fill="#000000" fill-rule="evenodd" fill-opacity="1" /><path clip-path="url(#clip550)" d="M1491.56 18.8205 L1491.56 65.8515 L1501.45 65.8515 Q1513.97 65.8515 1519.76 60.1802 Q1525.59 54.509 1525.59 42.2752 Q1525.59 30.1225 1519.76 24.4918 Q1513.97 18.8205 1501.45 18.8205 L1491.56 18.8205 M1483.38 12.096 L1500.19 12.096 Q1517.77 12.096 1526 19.4281 Q1534.22 26.7198 1534.22 42.2752 Q1534.22 57.9117 1525.96 65.2439 Q1517.69 72.576 1500.19 72.576 L1483.38 72.576 L1483.38 12.096 Z" fill="#000000" fill-rule="evenodd" fill-opacity="1" /><path clip-path="url(#clip550)" d="M1585.75 48.0275 L1585.75 51.6733 L1551.48 51.6733 Q1551.96 59.3701 1556.1 63.421 Q1560.27 67.4314 1567.68 67.4314 Q1571.98 67.4314 1575.99 66.3781 Q1580.04 65.3249 1584.01 63.2184 L1584.01 70.267 Q1580 71.9684 1575.78 72.8596 Q1571.57 73.7508 1567.24 73.7508 Q1556.38 73.7508 1550.02 67.4314 Q1543.7 61.1119 1543.7 50.3365 Q1543.7 39.1965 1549.7 32.6746 Q1555.73 26.1121 1565.94 26.1121 Q1575.09 26.1121 1580.4 32.0264 Q1585.75 37.9003 1585.75 48.0275 M1578.29 45.84 Q1578.21 39.7232 1574.85 36.0774 Q1571.53 32.4315 1566.02 32.4315 Q1559.78 32.4315 1556.01 35.9558 Q1552.29 39.4801 1551.72 45.8805 L1578.29 45.84 Z" fill="#000000" fill-rule="evenodd" fill-opacity="1" /><path clip-path="url(#clip550)" d="M1630.55 49.9314 Q1630.55 41.7081 1627.15 37.0496 Q1623.79 32.3505 1617.87 32.3505 Q1611.96 32.3505 1608.55 37.0496 Q1605.19 41.7081 1605.19 49.9314 Q1605.19 58.1548 1608.55 62.8538 Q1611.96 67.5124 1617.87 67.5124 Q1623.79 67.5124 1627.15 62.8538 Q1630.55 58.1548 1630.55 49.9314 M1605.19 34.0924 Q1607.54 30.0415 1611.11 28.0971 Q1614.71 26.1121 1619.69 26.1121 Q1627.96 26.1121 1633.1 32.6746 Q1638.29 39.2371 1638.29 49.9314 Q1638.29 60.6258 1633.1 67.1883 Q1627.96 73.7508 1619.69 73.7508 Q1614.71 73.7508 1611.11 71.8063 Q1607.54 69.8214 1605.19 65.7705 L1605.19 72.576 L1597.7 72.576 L1597.7 9.54393 L1605.19 9.54393 L1605.19 34.0924 Z" fill="#000000" fill-rule="evenodd" fill-opacity="1" /><path clip-path="url(#clip550)" d="M1676.93 34.1734 Q1675.68 33.4443 1674.18 33.1202 Q1672.72 32.7556 1670.94 32.7556 Q1664.62 32.7556 1661.22 36.8875 Q1657.85 40.9789 1657.85 48.6757 L1657.85 72.576 L1650.36 72.576 L1650.36 27.2059 L1657.85 27.2059 L1657.85 34.2544 Q1660.2 30.1225 1663.97 28.1376 Q1667.74 26.1121 1673.13 26.1121 Q1673.9 26.1121 1674.83 26.2337 Q1675.76 26.3147 1676.89 26.5172 L1676.93 34.1734 Z" fill="#000000" fill-rule="evenodd" fill-opacity="1" /><path clip-path="url(#clip550)" d="M1684.75 27.2059 L1692.21 27.2059 L1692.21 72.576 L1684.75 72.576 L1684.75 27.2059 M1684.75 9.54393 L1692.21 9.54393 L1692.21 18.9825 L1684.75 18.9825 L1684.75 9.54393 Z" fill="#000000" fill-rule="evenodd" fill-opacity="1" /><path clip-path="url(#clip550)" d="M1736.73 28.5427 L1736.73 35.5912 Q1733.57 33.9709 1730.16 33.1607 Q1726.76 32.3505 1723.11 32.3505 Q1717.56 32.3505 1714.77 34.0519 Q1712.01 35.7533 1712.01 39.156 Q1712.01 41.7486 1714 43.2475 Q1715.98 44.7058 1721.98 46.0426 L1724.53 46.6097 Q1732.47 48.3111 1735.79 51.4303 Q1739.16 54.509 1739.16 60.0587 Q1739.16 66.3781 1734.13 70.0644 Q1729.15 73.7508 1720.4 73.7508 Q1716.75 73.7508 1712.78 73.0216 Q1708.86 72.3329 1704.48 70.9151 L1704.48 63.2184 Q1708.61 65.3654 1712.62 66.4591 Q1716.63 67.5124 1720.56 67.5124 Q1725.83 67.5124 1728.66 65.73 Q1731.5 63.9071 1731.5 60.6258 Q1731.5 57.5877 1729.43 55.9673 Q1727.41 54.3469 1720.48 52.8481 L1717.89 52.2405 Q1710.96 50.7821 1707.88 47.7845 Q1704.8 44.7463 1704.8 39.4801 Q1704.8 33.0797 1709.34 29.5959 Q1713.88 26.1121 1722.22 26.1121 Q1726.36 26.1121 1730 26.7198 Q1733.65 27.3274 1736.73 28.5427 Z" fill="#000000" fill-rule="evenodd" fill-opacity="1" /><path clip-path="url(#clip550)" d="M1813.98 14.0809 L1813.98 22.0612 Q1809.32 19.8332 1805.19 18.7395 Q1801.05 17.6457 1797.21 17.6457 Q1790.52 17.6457 1786.88 20.2383 Q1783.27 22.8309 1783.27 27.611 Q1783.27 31.6214 1785.66 33.6873 Q1788.09 35.7128 1794.82 36.9686 L1799.76 37.9813 Q1808.91 39.7232 1813.25 44.1387 Q1817.62 48.5136 1817.62 55.8863 Q1817.62 64.6767 1811.71 69.2137 Q1805.83 73.7508 1794.45 73.7508 Q1790.16 73.7508 1785.3 72.7785 Q1780.48 71.8063 1775.29 69.9024 L1775.29 61.4765 Q1780.27 64.2716 1785.05 65.6895 Q1789.83 67.1073 1794.45 67.1073 Q1801.46 67.1073 1805.27 64.3527 Q1809.07 61.598 1809.07 56.4939 Q1809.07 52.0379 1806.32 49.5264 Q1803.61 47.0148 1797.37 45.759 L1792.38 44.7868 Q1783.23 42.9639 1779.14 39.075 Q1775.05 35.1862 1775.05 28.2591 Q1775.05 20.2383 1780.68 15.6203 Q1786.35 11.0023 1796.27 11.0023 Q1800.53 11.0023 1804.94 11.7719 Q1809.36 12.5416 1813.98 14.0809 Z" fill="#000000" fill-rule="evenodd" fill-opacity="1" /><path clip-path="url(#clip550)" d="M1837.43 14.324 L1837.43 27.2059 L1852.78 27.2059 L1852.78 32.9987 L1837.43 32.9987 L1837.43 57.6282 Q1837.43 63.1779 1838.93 64.7578 Q1840.47 66.3376 1845.13 66.3376 L1852.78 66.3376 L1852.78 72.576 L1845.13 72.576 Q1836.5 72.576 1833.22 69.3758 Q1829.94 66.1351 1829.94 57.6282 L1829.94 32.9987 L1824.47 32.9987 L1824.47 27.2059 L1829.94 27.2059 L1829.94 14.324 L1837.43 14.324 Z" fill="#000000" fill-rule="evenodd" fill-opacity="1" /><path clip-path="url(#clip550)" d="M1883.21 49.7694 Q1874.17 49.7694 1870.69 51.8354 Q1867.2 53.9013 1867.2 58.8839 Q1867.2 62.8538 1869.8 65.2034 Q1872.43 67.5124 1876.93 67.5124 Q1883.13 67.5124 1886.85 63.1374 Q1890.62 58.7219 1890.62 51.4303 L1890.62 49.7694 L1883.21 49.7694 M1898.07 46.6907 L1898.07 72.576 L1890.62 72.576 L1890.62 65.6895 Q1888.07 69.8214 1884.26 71.8063 Q1880.45 73.7508 1874.94 73.7508 Q1867.97 73.7508 1863.84 69.8619 Q1859.75 65.9325 1859.75 59.3701 Q1859.75 51.7138 1864.86 47.825 Q1870 43.9361 1880.17 43.9361 L1890.62 43.9361 L1890.62 43.2069 Q1890.62 38.0623 1887.22 35.2672 Q1883.85 32.4315 1877.74 32.4315 Q1873.85 32.4315 1870.16 33.3632 Q1866.48 34.295 1863.07 36.1584 L1863.07 29.2718 Q1867.16 27.692 1871.01 26.9223 Q1874.86 26.1121 1878.51 26.1121 Q1888.35 26.1121 1893.21 31.2163 Q1898.07 36.3204 1898.07 46.6907 Z" fill="#000000" fill-rule="evenodd" fill-opacity="1" /><path clip-path="url(#clip550)" d="M1920.8 14.324 L1920.8 27.2059 L1936.15 27.2059 L1936.15 32.9987 L1920.8 32.9987 L1920.8 57.6282 Q1920.8 63.1779 1922.3 64.7578 Q1923.84 66.3376 1928.5 66.3376 L1936.15 66.3376 L1936.15 72.576 L1928.5 72.576 Q1919.87 72.576 1916.59 69.3758 Q1913.3 66.1351 1913.3 57.6282 L1913.3 32.9987 L1907.84 32.9987 L1907.84 27.2059 L1913.3 27.2059 L1913.3 14.324 L1920.8 14.324 Z" fill="#000000" fill-rule="evenodd" fill-opacity="1" /><path clip-path="url(#clip550)" d="M1945.18 54.671 L1945.18 27.2059 L1952.64 27.2059 L1952.64 54.3874 Q1952.64 60.8284 1955.15 64.0691 Q1957.66 67.2693 1962.68 67.2693 Q1968.72 67.2693 1972.2 63.421 Q1975.73 59.5726 1975.73 52.9291 L1975.73 27.2059 L1983.18 27.2059 L1983.18 72.576 L1975.73 72.576 L1975.73 65.6084 Q1973.01 69.7404 1969.41 71.7658 Q1965.84 73.7508 1961.1 73.7508 Q1953.29 73.7508 1949.24 68.8897 Q1945.18 64.0286 1945.18 54.671 M1963.94 26.1121 L1963.94 26.1121 Z" fill="#000000" fill-rule="evenodd" fill-opacity="1" /><path clip-path="url(#clip550)" d="M2027.46 28.5427 L2027.46 35.5912 Q2024.3 33.9709 2020.9 33.1607 Q2017.49 32.3505 2013.85 32.3505 Q2008.3 32.3505 2005.5 34.0519 Q2002.75 35.7533 2002.75 39.156 Q2002.75 41.7486 2004.73 43.2475 Q2006.72 44.7058 2012.71 46.0426 L2015.27 46.6097 Q2023.21 48.3111 2026.53 51.4303 Q2029.89 54.509 2029.89 60.0587 Q2029.89 66.3781 2024.87 70.0644 Q2019.88 73.7508 2011.13 73.7508 Q2007.49 73.7508 2003.52 73.0216 Q1999.59 72.3329 1995.21 70.9151 L1995.21 63.2184 Q1999.35 65.3654 2003.36 66.4591 Q2007.37 67.5124 2011.3 67.5124 Q2016.56 67.5124 2019.4 65.73 Q2022.23 63.9071 2022.23 60.6258 Q2022.23 57.5877 2020.17 55.9673 Q2018.14 54.3469 2011.21 52.8481 L2008.62 52.2405 Q2001.69 50.7821 1998.62 47.7845 Q1995.54 44.7463 1995.54 39.4801 Q1995.54 33.0797 2000.07 29.5959 Q2004.61 26.1121 2012.96 26.1121 Q2017.09 26.1121 2020.73 26.7198 Q2024.38 27.3274 2027.46 28.5427 Z" fill="#000000" fill-rule="evenodd" fill-opacity="1" /><polyline clip-path="url(#clip552)" style="stroke:#8b0000; stroke-linecap:butt; stroke-linejoin:round; stroke-width:4; stroke-opacity:1; fill:none" points="
  321.708,1386.4 361.951,1386.4 402.193,1383.86 442.436,1385.55 482.679,1385.55 522.921,1376.25 563.164,1352.57 603.407,1323.82 643.649,1220.66 683.892,1017.71 
  724.135,1125.95 764.377,1083.67 804.62,901.014 844.863,861.27 885.105,641.41 925.348,427.47 965.591,160.256 1005.83,342.909 1046.08,736.965 1086.32,925.536 
  1126.56,1054.92 1166.8,1122.56 1207.05,1181.76 1247.29,1217.27 1287.53,1257.02 1327.77,1201.21 1368.02,1261.24 1408.26,1295.07 1448.5,1275.62 1488.75,1237.57 
  1528.99,1213.89 1569.23,1299.3 1609.47,1317.06 1649.72,1333.12 1689.96,1345.81 1730.2,1360.18 1770.44,1366.1 1810.69,1363.56 1850.93,1364.41 1891.17,1366.95 
  1931.42,1368.64 1971.66,1368.64 2011.9,1371.17 2052.14,1376.25 2092.39,1383.01 2132.63,1383.01 2172.87,1379.63 2213.11,1381.32 2253.36,1380.48 2293.6,1380.48 
  
  "/>
<polyline clip-path="url(#clip552)" style="stroke:#008000; stroke-linecap:butt; stroke-linejoin:round; stroke-width:4; stroke-opacity:1; fill:none" points="
  321.708,1386.4 361.951,1386.4 402.193,1386.1 442.436,1386.4 482.679,1385.51 522.921,1382.25 563.164,1373.37 603.407,1326.61 643.649,1342.59 683.892,1227.17 
  724.135,1002.53 764.377,987.731 804.62,1264.16 844.863,1326.61 885.105,1337.86 925.348,1269.49 965.591,1315.36 1005.83,1345.85 1046.08,1345.85 1086.32,1303.82 
  1126.56,1338.15 1166.8,1367.45 1207.05,1371.6 1247.29,1371.6 1287.53,1299.38 1327.77,1379.59 1368.02,1380.48 1408.26,1375.44 1448.5,1307.97 1488.75,1300.57 
  1528.99,1343.48 1569.23,1376.63 1609.47,1381.07 1649.72,1380.18 1689.96,1382.25 1730.2,1384.62 1770.44,1385.51 1810.69,1383.73 1850.93,1384.62 1891.17,1384.62 
  1931.42,1383.73 1971.66,1384.62 2011.9,1383.73 2052.14,1386.1 2092.39,1384.92 2132.63,1385.51 2172.87,1386.1 2213.11,1386.1 2253.36,1385.8 2293.6,1385.51 
  
  "/>
<polyline clip-path="url(#clip552)" style="stroke:#add8e6; stroke-linecap:butt; stroke-linejoin:round; stroke-width:4; stroke-opacity:1; fill:none" points="
  321.708,1386.4 361.951,1386.4 402.193,1385.85 442.436,1386.4 482.679,1384.75 522.921,1378.7 563.164,1362.21 603.407,1275.37 643.649,1305.05 683.892,1090.68 
  724.135,673.501 764.377,646.019 804.62,1159.39 844.863,1275.37 885.105,1296.25 925.348,1169.28 965.591,1254.48 1005.83,1311.09 1046.08,1311.09 1086.32,1233.04 
  1126.56,1296.8 1166.8,1351.22 1207.05,1358.91 1247.29,1358.91 1287.53,1224.8 1327.77,1373.75 1368.02,1375.4 1408.26,1366.06 1448.5,1240.74 1488.75,1227 
  1528.99,1306.7 1569.23,1368.26 1609.47,1376.5 1649.72,1374.85 1689.96,1378.7 1730.2,1383.1 1770.44,1384.75 1810.69,1381.45 1850.93,1383.1 1891.17,1383.1 
  1931.42,1381.45 1971.66,1383.1 2011.9,1381.45 2052.14,1385.85 2092.39,1383.65 2132.63,1384.75 2172.87,1385.85 2213.11,1385.85 2253.36,1385.3 2293.6,1384.75 
  
  "/>
<path clip-path="url(#clip550)" d="
M1460.63 374.156 L2283.08 374.156 L2283.08 166.796 L1460.63 166.796  Z
  " fill="#ffffff" fill-rule="evenodd" fill-opacity="1"/>
<polyline clip-path="url(#clip550)" style="stroke:#000000; stroke-linecap:butt; stroke-linejoin:round; stroke-width:4; stroke-opacity:1; fill:none" points="
  1460.63,374.156 2283.08,374.156 2283.08,166.796 1460.63,166.796 1460.63,374.156 
  "/>
<polyline clip-path="url(#clip550)" style="stroke:#8b0000; stroke-linecap:butt; stroke-linejoin:round; stroke-width:4; stroke-opacity:1; fill:none" points="
  1484.63,218.636 1628.63,218.636 
  "/>
<path clip-path="url(#clip550)" d="M1657.31 205.198 L1657.31 232.073 L1662.96 232.073 Q1670.11 232.073 1673.42 228.832 Q1676.75 225.592 1676.75 218.601 Q1676.75 211.657 1673.42 208.439 Q1670.11 205.198 1662.96 205.198 L1657.31 205.198 M1652.63 201.356 L1662.24 201.356 Q1672.28 201.356 1676.98 205.546 Q1681.68 209.712 1681.68 218.601 Q1681.68 227.536 1676.96 231.726 Q1672.24 235.916 1662.24 235.916 L1652.63 235.916 L1652.63 201.356 Z" fill="#000000" fill-rule="evenodd" fill-opacity="1" /><path clip-path="url(#clip550)" d="M1711.13 221.888 L1711.13 223.971 L1691.54 223.971 Q1691.82 228.369 1694.18 230.684 Q1696.57 232.976 1700.8 232.976 Q1703.26 232.976 1705.55 232.374 Q1707.86 231.772 1710.13 230.569 L1710.13 234.596 Q1707.84 235.568 1705.43 236.078 Q1703.03 236.587 1700.55 236.587 Q1694.34 236.587 1690.71 232.976 Q1687.1 229.365 1687.1 223.207 Q1687.1 216.842 1690.53 213.115 Q1693.97 209.365 1699.81 209.365 Q1705.04 209.365 1708.07 212.745 Q1711.13 216.101 1711.13 221.888 M1706.87 220.638 Q1706.82 217.143 1704.9 215.059 Q1703 212.976 1699.85 212.976 Q1696.29 212.976 1694.14 214.99 Q1692.01 217.004 1691.68 220.661 L1706.87 220.638 Z" fill="#000000" fill-rule="evenodd" fill-opacity="1" /><path clip-path="url(#clip550)" d="M1736.73 222.976 Q1736.73 218.277 1734.78 215.615 Q1732.86 212.93 1729.48 212.93 Q1726.1 212.93 1724.16 215.615 Q1722.24 218.277 1722.24 222.976 Q1722.24 227.675 1724.16 230.36 Q1726.1 233.022 1729.48 233.022 Q1732.86 233.022 1734.78 230.36 Q1736.73 227.675 1736.73 222.976 M1722.24 213.925 Q1723.58 211.61 1725.62 210.499 Q1727.68 209.365 1730.52 209.365 Q1735.25 209.365 1738.19 213.115 Q1741.15 216.865 1741.15 222.976 Q1741.15 229.087 1738.19 232.837 Q1735.25 236.587 1730.52 236.587 Q1727.68 236.587 1725.62 235.476 Q1723.58 234.342 1722.24 232.027 L1722.24 235.916 L1717.96 235.916 L1717.96 199.897 L1722.24 199.897 L1722.24 213.925 Z" fill="#000000" fill-rule="evenodd" fill-opacity="1" /><path clip-path="url(#clip550)" d="M1763.23 213.971 Q1762.52 213.555 1761.66 213.37 Q1760.83 213.161 1759.81 213.161 Q1756.2 213.161 1754.25 215.522 Q1752.33 217.86 1752.33 222.258 L1752.33 235.916 L1748.05 235.916 L1748.05 209.99 L1752.33 209.99 L1752.33 214.018 Q1753.67 211.657 1755.83 210.522 Q1757.98 209.365 1761.06 209.365 Q1761.5 209.365 1762.03 209.434 Q1762.56 209.481 1763.21 209.596 L1763.23 213.971 Z" fill="#000000" fill-rule="evenodd" fill-opacity="1" /><path clip-path="url(#clip550)" d="M1767.7 209.99 L1771.96 209.99 L1771.96 235.916 L1767.7 235.916 L1767.7 209.99 M1767.7 199.897 L1771.96 199.897 L1771.96 205.291 L1767.7 205.291 L1767.7 199.897 Z" fill="#000000" fill-rule="evenodd" fill-opacity="1" /><path clip-path="url(#clip550)" d="M1797.4 210.754 L1797.4 214.782 Q1795.59 213.856 1793.65 213.393 Q1791.71 212.93 1789.62 212.93 Q1786.45 212.93 1784.85 213.902 Q1783.28 214.874 1783.28 216.819 Q1783.28 218.3 1784.41 219.157 Q1785.55 219.99 1788.97 220.754 L1790.43 221.078 Q1794.97 222.05 1796.87 223.832 Q1798.79 225.592 1798.79 228.763 Q1798.79 232.374 1795.92 234.481 Q1793.07 236.587 1788.07 236.587 Q1785.99 236.587 1783.72 236.17 Q1781.47 235.777 1778.97 234.967 L1778.97 230.569 Q1781.33 231.795 1783.63 232.42 Q1785.92 233.022 1788.16 233.022 Q1791.17 233.022 1792.79 232.004 Q1794.41 230.962 1794.41 229.087 Q1794.41 227.351 1793.23 226.425 Q1792.08 225.499 1788.12 224.643 L1786.64 224.295 Q1782.68 223.462 1780.92 221.749 Q1779.16 220.013 1779.16 217.004 Q1779.16 213.346 1781.75 211.356 Q1784.34 209.365 1789.11 209.365 Q1791.47 209.365 1793.56 209.712 Q1795.64 210.059 1797.4 210.754 Z" fill="#000000" fill-rule="evenodd" fill-opacity="1" /><polyline clip-path="url(#clip550)" style="stroke:#008000; stroke-linecap:butt; stroke-linejoin:round; stroke-width:4; stroke-opacity:1; fill:none" points="
  1484.63,270.476 1628.63,270.476 
  "/>
<path clip-path="url(#clip550)" d="M1652.63 253.196 L1658.93 253.196 L1674.25 282.108 L1674.25 253.196 L1678.79 253.196 L1678.79 287.756 L1672.49 287.756 L1657.17 258.844 L1657.17 287.756 L1652.63 287.756 L1652.63 253.196 Z" fill="#000000" fill-rule="evenodd" fill-opacity="1" /><path clip-path="url(#clip550)" d="M1697.96 264.816 Q1694.53 264.816 1692.54 267.501 Q1690.55 270.163 1690.55 274.816 Q1690.55 279.469 1692.52 282.154 Q1694.51 284.816 1697.96 284.816 Q1701.36 284.816 1703.35 282.131 Q1705.34 279.446 1705.34 274.816 Q1705.34 270.21 1703.35 267.524 Q1701.36 264.816 1697.96 264.816 M1697.96 261.205 Q1703.51 261.205 1706.68 264.816 Q1709.85 268.427 1709.85 274.816 Q1709.85 281.182 1706.68 284.816 Q1703.51 288.427 1697.96 288.427 Q1692.38 288.427 1689.21 284.816 Q1686.06 281.182 1686.06 274.816 Q1686.06 268.427 1689.21 264.816 Q1692.38 261.205 1697.96 261.205 Z" fill="#000000" fill-rule="evenodd" fill-opacity="1" /><path clip-path="url(#clip550)" d="M1738.46 272.108 L1738.46 287.756 L1734.21 287.756 L1734.21 272.247 Q1734.21 268.566 1732.77 266.737 Q1731.34 264.909 1728.46 264.909 Q1725.02 264.909 1723.02 267.108 Q1721.03 269.307 1721.03 273.103 L1721.03 287.756 L1716.75 287.756 L1716.75 261.83 L1721.03 261.83 L1721.03 265.858 Q1722.56 263.52 1724.62 262.362 Q1726.71 261.205 1729.41 261.205 Q1733.88 261.205 1736.17 263.983 Q1738.46 266.737 1738.46 272.108 Z" fill="#000000" fill-rule="evenodd" fill-opacity="1" /><path clip-path="url(#clip550)" d="M1744.81 272.872 L1757.28 272.872 L1757.28 276.668 L1744.81 276.668 L1744.81 272.872 Z" fill="#000000" fill-rule="evenodd" fill-opacity="1" /><path clip-path="url(#clip550)" d="M1764.25 253.196 L1784.11 253.196 L1784.11 257.131 L1768.93 257.131 L1768.93 267.316 L1782.63 267.316 L1782.63 271.251 L1768.93 271.251 L1768.93 287.756 L1764.25 287.756 L1764.25 253.196 Z" fill="#000000" fill-rule="evenodd" fill-opacity="1" /><path clip-path="url(#clip550)" d="M1788.3 277.524 L1788.3 261.83 L1792.56 261.83 L1792.56 277.362 Q1792.56 281.043 1794 282.895 Q1795.43 284.723 1798.3 284.723 Q1801.75 284.723 1803.74 282.524 Q1805.76 280.325 1805.76 276.529 L1805.76 261.83 L1810.02 261.83 L1810.02 287.756 L1805.76 287.756 L1805.76 283.774 Q1804.21 286.135 1802.14 287.293 Q1800.11 288.427 1797.4 288.427 Q1792.93 288.427 1790.62 285.649 Q1788.3 282.871 1788.3 277.524 M1799.02 261.205 L1799.02 261.205 Z" fill="#000000" fill-rule="evenodd" fill-opacity="1" /><path clip-path="url(#clip550)" d="M1840.34 272.108 L1840.34 287.756 L1836.08 287.756 L1836.08 272.247 Q1836.08 268.566 1834.64 266.737 Q1833.21 264.909 1830.34 264.909 Q1826.89 264.909 1824.9 267.108 Q1822.91 269.307 1822.91 273.103 L1822.91 287.756 L1818.63 287.756 L1818.63 261.83 L1822.91 261.83 L1822.91 265.858 Q1824.44 263.52 1826.5 262.362 Q1828.58 261.205 1831.29 261.205 Q1835.76 261.205 1838.05 263.983 Q1840.34 266.737 1840.34 272.108 Z" fill="#000000" fill-rule="evenodd" fill-opacity="1" /><path clip-path="url(#clip550)" d="M1867.49 262.825 L1867.49 266.807 Q1865.69 265.811 1863.86 265.325 Q1862.05 264.816 1860.2 264.816 Q1856.06 264.816 1853.77 267.455 Q1851.47 270.071 1851.47 274.816 Q1851.47 279.561 1853.77 282.2 Q1856.06 284.816 1860.2 284.816 Q1862.05 284.816 1863.86 284.33 Q1865.69 283.821 1867.49 282.825 L1867.49 286.76 Q1865.71 287.594 1863.79 288.01 Q1861.89 288.427 1859.74 288.427 Q1853.88 288.427 1850.43 284.746 Q1846.98 281.066 1846.98 274.816 Q1846.98 268.473 1850.45 264.839 Q1853.95 261.205 1860.01 261.205 Q1861.98 261.205 1863.86 261.622 Q1865.73 262.015 1867.49 262.825 Z" fill="#000000" fill-rule="evenodd" fill-opacity="1" /><path clip-path="url(#clip550)" d="M1879.11 254.469 L1879.11 261.83 L1887.89 261.83 L1887.89 265.14 L1879.11 265.14 L1879.11 279.214 Q1879.11 282.385 1879.97 283.288 Q1880.85 284.191 1883.51 284.191 L1887.89 284.191 L1887.89 287.756 L1883.51 287.756 Q1878.58 287.756 1876.7 285.927 Q1874.83 284.075 1874.83 279.214 L1874.83 265.14 L1871.7 265.14 L1871.7 261.83 L1874.83 261.83 L1874.83 254.469 L1879.11 254.469 Z" fill="#000000" fill-rule="evenodd" fill-opacity="1" /><path clip-path="url(#clip550)" d="M1893.49 261.83 L1897.75 261.83 L1897.75 287.756 L1893.49 287.756 L1893.49 261.83 M1893.49 251.737 L1897.75 251.737 L1897.75 257.131 L1893.49 257.131 L1893.49 251.737 Z" fill="#000000" fill-rule="evenodd" fill-opacity="1" /><path clip-path="url(#clip550)" d="M1916.7 264.816 Q1913.28 264.816 1911.29 267.501 Q1909.3 270.163 1909.3 274.816 Q1909.3 279.469 1911.26 282.154 Q1913.26 284.816 1916.7 284.816 Q1920.11 284.816 1922.1 282.131 Q1924.09 279.446 1924.09 274.816 Q1924.09 270.21 1922.1 267.524 Q1920.11 264.816 1916.7 264.816 M1916.7 261.205 Q1922.26 261.205 1925.43 264.816 Q1928.6 268.427 1928.6 274.816 Q1928.6 281.182 1925.43 284.816 Q1922.26 288.427 1916.7 288.427 Q1911.13 288.427 1907.95 284.816 Q1904.81 281.182 1904.81 274.816 Q1904.81 268.427 1907.95 264.816 Q1911.13 261.205 1916.7 261.205 Z" fill="#000000" fill-rule="evenodd" fill-opacity="1" /><path clip-path="url(#clip550)" d="M1957.21 272.108 L1957.21 287.756 L1952.95 287.756 L1952.95 272.247 Q1952.95 268.566 1951.52 266.737 Q1950.08 264.909 1947.21 264.909 Q1943.76 264.909 1941.77 267.108 Q1939.78 269.307 1939.78 273.103 L1939.78 287.756 L1935.5 287.756 L1935.5 261.83 L1939.78 261.83 L1939.78 265.858 Q1941.31 263.52 1943.37 262.362 Q1945.45 261.205 1948.16 261.205 Q1952.63 261.205 1954.92 263.983 Q1957.21 266.737 1957.21 272.108 Z" fill="#000000" fill-rule="evenodd" fill-opacity="1" /><path clip-path="url(#clip550)" d="M1977.49 274.723 Q1972.33 274.723 1970.34 275.904 Q1968.35 277.084 1968.35 279.932 Q1968.35 282.2 1969.83 283.543 Q1971.33 284.862 1973.9 284.862 Q1977.44 284.862 1979.57 282.362 Q1981.73 279.839 1981.73 275.672 L1981.73 274.723 L1977.49 274.723 M1985.99 272.964 L1985.99 287.756 L1981.73 287.756 L1981.73 283.821 Q1980.27 286.182 1978.09 287.316 Q1975.92 288.427 1972.77 288.427 Q1968.79 288.427 1966.43 286.205 Q1964.09 283.959 1964.09 280.209 Q1964.09 275.834 1967.01 273.612 Q1969.94 271.39 1975.76 271.39 L1981.73 271.39 L1981.73 270.973 Q1981.73 268.034 1979.78 266.436 Q1977.86 264.816 1974.37 264.816 Q1972.14 264.816 1970.04 265.348 Q1967.93 265.881 1965.99 266.946 L1965.99 263.01 Q1968.32 262.108 1970.52 261.668 Q1972.72 261.205 1974.81 261.205 Q1980.43 261.205 1983.21 264.122 Q1985.99 267.038 1985.99 272.964 Z" fill="#000000" fill-rule="evenodd" fill-opacity="1" /><path clip-path="url(#clip550)" d="M1994.76 251.737 L1999.02 251.737 L1999.02 287.756 L1994.76 287.756 L1994.76 251.737 Z" fill="#000000" fill-rule="evenodd" fill-opacity="1" /><path clip-path="url(#clip550)" d="M2043.9 254.33 L2043.9 258.89 Q2041.24 257.617 2038.88 256.992 Q2036.52 256.367 2034.32 256.367 Q2030.5 256.367 2028.42 257.848 Q2026.36 259.33 2026.36 262.061 Q2026.36 264.353 2027.72 265.534 Q2029.11 266.691 2032.95 267.409 L2035.78 267.987 Q2041.01 268.983 2043.49 271.506 Q2045.99 274.006 2045.99 278.219 Q2045.99 283.242 2042.61 285.834 Q2039.25 288.427 2032.75 288.427 Q2030.29 288.427 2027.51 287.871 Q2024.76 287.316 2021.8 286.228 L2021.8 281.413 Q2024.64 283.01 2027.38 283.821 Q2030.11 284.631 2032.75 284.631 Q2036.75 284.631 2038.93 283.057 Q2041.1 281.483 2041.1 278.566 Q2041.1 276.02 2039.53 274.584 Q2037.98 273.149 2034.41 272.432 L2031.56 271.876 Q2026.33 270.835 2024 268.612 Q2021.66 266.39 2021.66 262.432 Q2021.66 257.848 2024.88 255.21 Q2028.12 252.571 2033.79 252.571 Q2036.22 252.571 2038.74 253.011 Q2041.26 253.45 2043.9 254.33 Z" fill="#000000" fill-rule="evenodd" fill-opacity="1" /><path clip-path="url(#clip550)" d="M2064.87 274.723 Q2059.71 274.723 2057.72 275.904 Q2055.73 277.084 2055.73 279.932 Q2055.73 282.2 2057.21 283.543 Q2058.72 284.862 2061.29 284.862 Q2064.83 284.862 2066.96 282.362 Q2069.11 279.839 2069.11 275.672 L2069.11 274.723 L2064.87 274.723 M2073.37 272.964 L2073.37 287.756 L2069.11 287.756 L2069.11 283.821 Q2067.65 286.182 2065.48 287.316 Q2063.3 288.427 2060.15 288.427 Q2056.17 288.427 2053.81 286.205 Q2051.47 283.959 2051.47 280.209 Q2051.47 275.834 2054.39 273.612 Q2057.33 271.39 2063.14 271.39 L2069.11 271.39 L2069.11 270.973 Q2069.11 268.034 2067.17 266.436 Q2065.25 264.816 2061.75 264.816 Q2059.53 264.816 2057.42 265.348 Q2055.31 265.881 2053.37 266.946 L2053.37 263.01 Q2055.71 262.108 2057.91 261.668 Q2060.11 261.205 2062.19 261.205 Q2067.81 261.205 2070.59 264.122 Q2073.37 267.038 2073.37 272.964 Z" fill="#000000" fill-rule="evenodd" fill-opacity="1" /><path clip-path="url(#clip550)" d="M2086.36 254.469 L2086.36 261.83 L2095.13 261.83 L2095.13 265.14 L2086.36 265.14 L2086.36 279.214 Q2086.36 282.385 2087.21 283.288 Q2088.09 284.191 2090.75 284.191 L2095.13 284.191 L2095.13 287.756 L2090.75 287.756 Q2085.82 287.756 2083.95 285.927 Q2082.07 284.075 2082.07 279.214 L2082.07 265.14 L2078.95 265.14 L2078.95 261.83 L2082.07 261.83 L2082.07 254.469 L2086.36 254.469 Z" fill="#000000" fill-rule="evenodd" fill-opacity="1" /><path clip-path="url(#clip550)" d="M2122.91 273.728 L2122.91 275.811 L2103.32 275.811 Q2103.6 280.209 2105.96 282.524 Q2108.35 284.816 2112.58 284.816 Q2115.04 284.816 2117.33 284.214 Q2119.64 283.612 2121.91 282.409 L2121.91 286.436 Q2119.62 287.408 2117.21 287.918 Q2114.81 288.427 2112.33 288.427 Q2106.12 288.427 2102.49 284.816 Q2098.88 281.205 2098.88 275.047 Q2098.88 268.682 2102.31 264.955 Q2105.75 261.205 2111.59 261.205 Q2116.82 261.205 2119.85 264.585 Q2122.91 267.941 2122.91 273.728 M2118.65 272.478 Q2118.6 268.983 2116.68 266.899 Q2114.78 264.816 2111.63 264.816 Q2108.07 264.816 2105.92 266.83 Q2103.79 268.844 2103.46 272.501 L2118.65 272.478 Z" fill="#000000" fill-rule="evenodd" fill-opacity="1" /><path clip-path="url(#clip550)" d="M2129.9 251.737 L2134.16 251.737 L2134.16 287.756 L2129.9 287.756 L2129.9 251.737 Z" fill="#000000" fill-rule="evenodd" fill-opacity="1" /><path clip-path="url(#clip550)" d="M2143.07 251.737 L2147.33 251.737 L2147.33 287.756 L2143.07 287.756 L2143.07 251.737 Z" fill="#000000" fill-rule="evenodd" fill-opacity="1" /><path clip-path="url(#clip550)" d="M2156.24 261.83 L2160.5 261.83 L2160.5 287.756 L2156.24 287.756 L2156.24 261.83 M2156.24 251.737 L2160.5 251.737 L2160.5 257.131 L2156.24 257.131 L2156.24 251.737 Z" fill="#000000" fill-rule="evenodd" fill-opacity="1" /><path clip-path="url(#clip550)" d="M2173.62 254.469 L2173.62 261.83 L2182.4 261.83 L2182.4 265.14 L2173.62 265.14 L2173.62 279.214 Q2173.62 282.385 2174.48 283.288 Q2175.36 284.191 2178.02 284.191 L2182.4 284.191 L2182.4 287.756 L2178.02 287.756 Q2173.09 287.756 2171.22 285.927 Q2169.34 284.075 2169.34 279.214 L2169.34 265.14 L2166.22 265.14 L2166.22 261.83 L2169.34 261.83 L2169.34 254.469 L2173.62 254.469 Z" fill="#000000" fill-rule="evenodd" fill-opacity="1" /><path clip-path="url(#clip550)" d="M2210.18 273.728 L2210.18 275.811 L2190.59 275.811 Q2190.87 280.209 2193.23 282.524 Q2195.62 284.816 2199.85 284.816 Q2202.3 284.816 2204.6 284.214 Q2206.91 283.612 2209.18 282.409 L2209.18 286.436 Q2206.89 287.408 2204.48 287.918 Q2202.07 288.427 2199.6 288.427 Q2193.39 288.427 2189.76 284.816 Q2186.15 281.205 2186.15 275.047 Q2186.15 268.682 2189.57 264.955 Q2193.02 261.205 2198.86 261.205 Q2204.09 261.205 2207.12 264.585 Q2210.18 267.941 2210.18 273.728 M2205.92 272.478 Q2205.87 268.983 2203.95 266.899 Q2202.05 264.816 2198.9 264.816 Q2195.34 264.816 2193.18 266.83 Q2191.05 268.844 2190.73 272.501 L2205.92 272.478 Z" fill="#000000" fill-rule="evenodd" fill-opacity="1" /><path clip-path="url(#clip550)" d="M2233.69 262.594 L2233.69 266.622 Q2231.89 265.696 2229.94 265.233 Q2228 264.77 2225.92 264.77 Q2222.74 264.77 2221.15 265.742 Q2219.57 266.714 2219.57 268.659 Q2219.57 270.14 2220.71 270.997 Q2221.84 271.83 2225.27 272.594 L2226.73 272.918 Q2231.26 273.89 2233.16 275.672 Q2235.08 277.432 2235.08 280.603 Q2235.08 284.214 2232.21 286.321 Q2229.36 288.427 2224.36 288.427 Q2222.28 288.427 2220.01 288.01 Q2217.77 287.617 2215.27 286.807 L2215.27 282.409 Q2217.63 283.635 2219.92 284.26 Q2222.21 284.862 2224.46 284.862 Q2227.47 284.862 2229.09 283.844 Q2230.71 282.802 2230.71 280.927 Q2230.71 279.191 2229.53 278.265 Q2228.37 277.339 2224.41 276.483 L2222.93 276.135 Q2218.97 275.302 2217.21 273.589 Q2215.45 271.853 2215.45 268.844 Q2215.45 265.186 2218.05 263.196 Q2220.64 261.205 2225.41 261.205 Q2227.77 261.205 2229.85 261.552 Q2231.93 261.899 2233.69 262.594 Z" fill="#000000" fill-rule="evenodd" fill-opacity="1" /><polyline clip-path="url(#clip550)" style="stroke:#add8e6; stroke-linecap:butt; stroke-linejoin:round; stroke-width:4; stroke-opacity:1; fill:none" points="
  1484.63,322.316 1628.63,322.316 
  "/>
<path clip-path="url(#clip550)" d="M1652.63 305.036 L1672.49 305.036 L1672.49 308.971 L1657.31 308.971 L1657.31 319.156 L1671.01 319.156 L1671.01 323.091 L1657.31 323.091 L1657.31 339.596 L1652.63 339.596 L1652.63 305.036 Z" fill="#000000" fill-rule="evenodd" fill-opacity="1" /><path clip-path="url(#clip550)" d="M1676.68 329.364 L1676.68 313.67 L1680.94 313.67 L1680.94 329.202 Q1680.94 332.883 1682.38 334.735 Q1683.81 336.563 1686.68 336.563 Q1690.13 336.563 1692.12 334.364 Q1694.14 332.165 1694.14 328.369 L1694.14 313.67 L1698.4 313.67 L1698.4 339.596 L1694.14 339.596 L1694.14 335.614 Q1692.59 337.975 1690.53 339.133 Q1688.49 340.267 1685.78 340.267 Q1681.31 340.267 1679 337.489 Q1676.68 334.711 1676.68 329.364 M1687.4 313.045 L1687.4 313.045 Z" fill="#000000" fill-rule="evenodd" fill-opacity="1" /><path clip-path="url(#clip550)" d="M1728.72 323.948 L1728.72 339.596 L1724.46 339.596 L1724.46 324.087 Q1724.46 320.406 1723.02 318.577 Q1721.59 316.749 1718.72 316.749 Q1715.27 316.749 1713.28 318.948 Q1711.29 321.147 1711.29 324.943 L1711.29 339.596 L1707.01 339.596 L1707.01 313.67 L1711.29 313.67 L1711.29 317.698 Q1712.82 315.36 1714.88 314.202 Q1716.96 313.045 1719.67 313.045 Q1724.14 313.045 1726.43 315.823 Q1728.72 318.577 1728.72 323.948 Z" fill="#000000" fill-rule="evenodd" fill-opacity="1" /><path clip-path="url(#clip550)" d="M1755.87 314.665 L1755.87 318.647 Q1754.07 317.651 1752.24 317.165 Q1750.43 316.656 1748.58 316.656 Q1744.44 316.656 1742.15 319.295 Q1739.85 321.911 1739.85 326.656 Q1739.85 331.401 1742.15 334.04 Q1744.44 336.656 1748.58 336.656 Q1750.43 336.656 1752.24 336.17 Q1754.07 335.661 1755.87 334.665 L1755.87 338.6 Q1754.09 339.434 1752.17 339.85 Q1750.27 340.267 1748.12 340.267 Q1742.26 340.267 1738.81 336.586 Q1735.36 332.906 1735.36 326.656 Q1735.36 320.313 1738.84 316.679 Q1742.33 313.045 1748.4 313.045 Q1750.36 313.045 1752.24 313.462 Q1754.11 313.855 1755.87 314.665 Z" fill="#000000" fill-rule="evenodd" fill-opacity="1" /><path clip-path="url(#clip550)" d="M1767.49 306.309 L1767.49 313.67 L1776.27 313.67 L1776.27 316.98 L1767.49 316.98 L1767.49 331.054 Q1767.49 334.225 1768.35 335.128 Q1769.23 336.031 1771.89 336.031 L1776.27 336.031 L1776.27 339.596 L1771.89 339.596 Q1766.96 339.596 1765.08 337.767 Q1763.21 335.915 1763.21 331.054 L1763.21 316.98 L1760.08 316.98 L1760.08 313.67 L1763.21 313.67 L1763.21 306.309 L1767.49 306.309 Z" fill="#000000" fill-rule="evenodd" fill-opacity="1" /><path clip-path="url(#clip550)" d="M1781.87 313.67 L1786.13 313.67 L1786.13 339.596 L1781.87 339.596 L1781.87 313.67 M1781.87 303.577 L1786.13 303.577 L1786.13 308.971 L1781.87 308.971 L1781.87 303.577 Z" fill="#000000" fill-rule="evenodd" fill-opacity="1" /><path clip-path="url(#clip550)" d="M1805.08 316.656 Q1801.66 316.656 1799.67 319.341 Q1797.68 322.003 1797.68 326.656 Q1797.68 331.309 1799.64 333.994 Q1801.64 336.656 1805.08 336.656 Q1808.49 336.656 1810.48 333.971 Q1812.47 331.286 1812.47 326.656 Q1812.47 322.05 1810.48 319.364 Q1808.49 316.656 1805.08 316.656 M1805.08 313.045 Q1810.64 313.045 1813.81 316.656 Q1816.98 320.267 1816.98 326.656 Q1816.98 333.022 1813.81 336.656 Q1810.64 340.267 1805.08 340.267 Q1799.51 340.267 1796.33 336.656 Q1793.19 333.022 1793.19 326.656 Q1793.19 320.267 1796.33 316.656 Q1799.51 313.045 1805.08 313.045 Z" fill="#000000" fill-rule="evenodd" fill-opacity="1" /><path clip-path="url(#clip550)" d="M1845.59 323.948 L1845.59 339.596 L1841.33 339.596 L1841.33 324.087 Q1841.33 320.406 1839.9 318.577 Q1838.46 316.749 1835.59 316.749 Q1832.14 316.749 1830.15 318.948 Q1828.16 321.147 1828.16 324.943 L1828.16 339.596 L1823.88 339.596 L1823.88 313.67 L1828.16 313.67 L1828.16 317.698 Q1829.69 315.36 1831.75 314.202 Q1833.83 313.045 1836.54 313.045 Q1841.01 313.045 1843.3 315.823 Q1845.59 318.577 1845.59 323.948 Z" fill="#000000" fill-rule="evenodd" fill-opacity="1" /><path clip-path="url(#clip550)" d="M1865.87 326.563 Q1860.71 326.563 1858.72 327.744 Q1856.73 328.924 1856.73 331.772 Q1856.73 334.04 1858.21 335.383 Q1859.71 336.702 1862.28 336.702 Q1865.83 336.702 1867.95 334.202 Q1870.11 331.679 1870.11 327.512 L1870.11 326.563 L1865.87 326.563 M1874.37 324.804 L1874.37 339.596 L1870.11 339.596 L1870.11 335.661 Q1868.65 338.022 1866.47 339.156 Q1864.3 340.267 1861.15 340.267 Q1857.17 340.267 1854.81 338.045 Q1852.47 335.799 1852.47 332.049 Q1852.47 327.674 1855.39 325.452 Q1858.33 323.23 1864.14 323.23 L1870.11 323.23 L1870.11 322.813 Q1870.11 319.874 1868.16 318.276 Q1866.24 316.656 1862.75 316.656 Q1860.52 316.656 1858.42 317.188 Q1856.31 317.721 1854.37 318.786 L1854.37 314.85 Q1856.7 313.948 1858.9 313.508 Q1861.1 313.045 1863.19 313.045 Q1868.81 313.045 1871.59 315.962 Q1874.37 318.878 1874.37 324.804 Z" fill="#000000" fill-rule="evenodd" fill-opacity="1" /><path clip-path="url(#clip550)" d="M1883.14 303.577 L1887.4 303.577 L1887.4 339.596 L1883.14 339.596 L1883.14 303.577 Z" fill="#000000" fill-rule="evenodd" fill-opacity="1" /><path clip-path="url(#clip550)" d="M1932.28 306.17 L1932.28 310.73 Q1929.62 309.457 1927.26 308.832 Q1924.9 308.207 1922.7 308.207 Q1918.88 308.207 1916.8 309.688 Q1914.74 311.17 1914.74 313.901 Q1914.74 316.193 1916.1 317.374 Q1917.49 318.531 1921.33 319.249 L1924.16 319.827 Q1929.39 320.823 1931.87 323.346 Q1934.37 325.846 1934.37 330.059 Q1934.37 335.082 1930.99 337.674 Q1927.63 340.267 1921.13 340.267 Q1918.67 340.267 1915.89 339.711 Q1913.14 339.156 1910.18 338.068 L1910.18 333.253 Q1913.02 334.85 1915.76 335.661 Q1918.49 336.471 1921.13 336.471 Q1925.13 336.471 1927.31 334.897 Q1929.48 333.323 1929.48 330.406 Q1929.48 327.86 1927.91 326.424 Q1926.36 324.989 1922.79 324.272 L1919.95 323.716 Q1914.71 322.675 1912.38 320.452 Q1910.04 318.23 1910.04 314.272 Q1910.04 309.688 1913.26 307.05 Q1916.5 304.411 1922.17 304.411 Q1924.6 304.411 1927.12 304.851 Q1929.64 305.29 1932.28 306.17 Z" fill="#000000" fill-rule="evenodd" fill-opacity="1" /><path clip-path="url(#clip550)" d="M1953.26 326.563 Q1948.09 326.563 1946.1 327.744 Q1944.11 328.924 1944.11 331.772 Q1944.11 334.04 1945.59 335.383 Q1947.1 336.702 1949.67 336.702 Q1953.21 336.702 1955.34 334.202 Q1957.49 331.679 1957.49 327.512 L1957.49 326.563 L1953.26 326.563 M1961.75 324.804 L1961.75 339.596 L1957.49 339.596 L1957.49 335.661 Q1956.03 338.022 1953.86 339.156 Q1951.68 340.267 1948.53 340.267 Q1944.55 340.267 1942.19 338.045 Q1939.85 335.799 1939.85 332.049 Q1939.85 327.674 1942.77 325.452 Q1945.71 323.23 1951.52 323.23 L1957.49 323.23 L1957.49 322.813 Q1957.49 319.874 1955.55 318.276 Q1953.63 316.656 1950.13 316.656 Q1947.91 316.656 1945.8 317.188 Q1943.7 317.721 1941.75 318.786 L1941.75 314.85 Q1944.09 313.948 1946.29 313.508 Q1948.49 313.045 1950.57 313.045 Q1956.2 313.045 1958.97 315.962 Q1961.75 318.878 1961.75 324.804 Z" fill="#000000" fill-rule="evenodd" fill-opacity="1" /><path clip-path="url(#clip550)" d="M1974.74 306.309 L1974.74 313.67 L1983.51 313.67 L1983.51 316.98 L1974.74 316.98 L1974.74 331.054 Q1974.74 334.225 1975.59 335.128 Q1976.47 336.031 1979.13 336.031 L1983.51 336.031 L1983.51 339.596 L1979.13 339.596 Q1974.2 339.596 1972.33 337.767 Q1970.45 335.915 1970.45 331.054 L1970.45 316.98 L1967.33 316.98 L1967.33 313.67 L1970.45 313.67 L1970.45 306.309 L1974.74 306.309 Z" fill="#000000" fill-rule="evenodd" fill-opacity="1" /><path clip-path="url(#clip550)" d="M2011.29 325.568 L2011.29 327.651 L1991.7 327.651 Q1991.98 332.049 1994.34 334.364 Q1996.73 336.656 2000.96 336.656 Q2003.42 336.656 2005.71 336.054 Q2008.02 335.452 2010.29 334.249 L2010.29 338.276 Q2008 339.248 2005.59 339.758 Q2003.19 340.267 2000.71 340.267 Q1994.51 340.267 1990.87 336.656 Q1987.26 333.045 1987.26 326.887 Q1987.26 320.522 1990.69 316.795 Q1994.13 313.045 1999.97 313.045 Q2005.2 313.045 2008.23 316.425 Q2011.29 319.781 2011.29 325.568 M2007.03 324.318 Q2006.98 320.823 2005.06 318.739 Q2003.16 316.656 2000.01 316.656 Q1996.45 316.656 1994.3 318.67 Q1992.17 320.684 1991.84 324.341 L2007.03 324.318 Z" fill="#000000" fill-rule="evenodd" fill-opacity="1" /><path clip-path="url(#clip550)" d="M2018.28 303.577 L2022.54 303.577 L2022.54 339.596 L2018.28 339.596 L2018.28 303.577 Z" fill="#000000" fill-rule="evenodd" fill-opacity="1" /><path clip-path="url(#clip550)" d="M2031.45 303.577 L2035.71 303.577 L2035.71 339.596 L2031.45 339.596 L2031.45 303.577 Z" fill="#000000" fill-rule="evenodd" fill-opacity="1" /><path clip-path="url(#clip550)" d="M2044.62 313.67 L2048.88 313.67 L2048.88 339.596 L2044.62 339.596 L2044.62 313.67 M2044.62 303.577 L2048.88 303.577 L2048.88 308.971 L2044.62 308.971 L2044.62 303.577 Z" fill="#000000" fill-rule="evenodd" fill-opacity="1" /><path clip-path="url(#clip550)" d="M2062 306.309 L2062 313.67 L2070.78 313.67 L2070.78 316.98 L2062 316.98 L2062 331.054 Q2062 334.225 2062.86 335.128 Q2063.74 336.031 2066.4 336.031 L2070.78 336.031 L2070.78 339.596 L2066.4 339.596 Q2061.47 339.596 2059.6 337.767 Q2057.72 335.915 2057.72 331.054 L2057.72 316.98 L2054.6 316.98 L2054.6 313.67 L2057.72 313.67 L2057.72 306.309 L2062 306.309 Z" fill="#000000" fill-rule="evenodd" fill-opacity="1" /><path clip-path="url(#clip550)" d="M2098.56 325.568 L2098.56 327.651 L2078.97 327.651 Q2079.25 332.049 2081.61 334.364 Q2084 336.656 2088.23 336.656 Q2090.69 336.656 2092.98 336.054 Q2095.29 335.452 2097.56 334.249 L2097.56 338.276 Q2095.27 339.248 2092.86 339.758 Q2090.45 340.267 2087.98 340.267 Q2081.77 340.267 2078.14 336.656 Q2074.53 333.045 2074.53 326.887 Q2074.53 320.522 2077.95 316.795 Q2081.4 313.045 2087.24 313.045 Q2092.47 313.045 2095.5 316.425 Q2098.56 319.781 2098.56 325.568 M2094.3 324.318 Q2094.25 320.823 2092.33 318.739 Q2090.43 316.656 2087.28 316.656 Q2083.72 316.656 2081.56 318.67 Q2079.44 320.684 2079.11 324.341 L2094.3 324.318 Z" fill="#000000" fill-rule="evenodd" fill-opacity="1" /><path clip-path="url(#clip550)" d="M2122.07 314.434 L2122.07 318.462 Q2120.27 317.536 2118.32 317.073 Q2116.38 316.61 2114.3 316.61 Q2111.12 316.61 2109.53 317.582 Q2107.95 318.554 2107.95 320.499 Q2107.95 321.98 2109.09 322.837 Q2110.22 323.67 2113.65 324.434 L2115.11 324.758 Q2119.64 325.73 2121.54 327.512 Q2123.46 329.272 2123.46 332.443 Q2123.46 336.054 2120.59 338.161 Q2117.75 340.267 2112.75 340.267 Q2110.66 340.267 2108.39 339.85 Q2106.15 339.457 2103.65 338.647 L2103.65 334.249 Q2106.01 335.475 2108.3 336.1 Q2110.59 336.702 2112.84 336.702 Q2115.85 336.702 2117.47 335.684 Q2119.09 334.642 2119.09 332.767 Q2119.09 331.031 2117.91 330.105 Q2116.75 329.179 2112.79 328.323 L2111.31 327.975 Q2107.35 327.142 2105.59 325.429 Q2103.83 323.693 2103.83 320.684 Q2103.83 317.026 2106.43 315.036 Q2109.02 313.045 2113.79 313.045 Q2116.15 313.045 2118.23 313.392 Q2120.31 313.739 2122.07 314.434 Z" fill="#000000" fill-rule="evenodd" fill-opacity="1" /></svg>
