<?xml version="1.0" encoding="utf-8"?>
<svg xmlns="http://www.w3.org/2000/svg" xmlns:xlink="http://www.w3.org/1999/xlink" width="600" height="400" viewBox="0 0 2400 1600">
<defs>
  <clipPath id="clip320">
    <rect x="0" y="0" width="2400" height="1600"/>
  </clipPath>
</defs>
<path clip-path="url(#clip320)" d="
M0 1600 L2400 1600 L2400 0 L0 0  Z
  " fill="#ffffff" fill-rule="evenodd" fill-opacity="1"/>
<defs>
  <clipPath id="clip321">
    <rect x="480" y="0" width="1681" height="1600"/>
  </clipPath>
</defs>
<defs>
  <clipPath id="clip322">
    <rect x="252" y="123" width="2101" height="1301"/>
  </clipPath>
</defs>
<path clip-path="url(#clip320)" d="
M252.764 1423.18 L2352.76 1423.18 L2352.76 123.472 L252.764 123.472  Z
  " fill="#ffffff" fill-rule="evenodd" fill-opacity="1"/>
<polyline clip-path="url(#clip322)" style="stroke:#000000; stroke-linecap:butt; stroke-linejoin:round; stroke-width:2; stroke-opacity:0.1; fill:none" points="
  589.129,1423.18 589.129,123.472 
  "/>
<polyline clip-path="url(#clip322)" style="stroke:#000000; stroke-linecap:butt; stroke-linejoin:round; stroke-width:2; stroke-opacity:0.1; fill:none" points="
  1015.18,1423.18 1015.18,123.472 
  "/>
<polyline clip-path="url(#clip322)" style="stroke:#000000; stroke-linecap:butt; stroke-linejoin:round; stroke-width:2; stroke-opacity:0.1; fill:none" points="
  1441.23,1423.18 1441.23,123.472 
  "/>
<polyline clip-path="url(#clip322)" style="stroke:#000000; stroke-linecap:butt; stroke-linejoin:round; stroke-width:2; stroke-opacity:0.1; fill:none" points="
  1867.27,1423.18 1867.27,123.472 
  "/>
<polyline clip-path="url(#clip322)" style="stroke:#000000; stroke-linecap:butt; stroke-linejoin:round; stroke-width:2; stroke-opacity:0.1; fill:none" points="
  2293.32,1423.18 2293.32,123.472 
  "/>
<polyline clip-path="url(#clip320)" style="stroke:#000000; stroke-linecap:butt; stroke-linejoin:round; stroke-width:4; stroke-opacity:1; fill:none" points="
  252.764,1423.18 2352.76,1423.18 
  "/>
<polyline clip-path="url(#clip320)" style="stroke:#000000; stroke-linecap:butt; stroke-linejoin:round; stroke-width:4; stroke-opacity:1; fill:none" points="
  589.129,1423.18 589.129,1404.28 
  "/>
<polyline clip-path="url(#clip320)" style="stroke:#000000; stroke-linecap:butt; stroke-linejoin:round; stroke-width:4; stroke-opacity:1; fill:none" points="
  1015.18,1423.18 1015.18,1404.28 
  "/>
<polyline clip-path="url(#clip320)" style="stroke:#000000; stroke-linecap:butt; stroke-linejoin:round; stroke-width:4; stroke-opacity:1; fill:none" points="
  1441.23,1423.18 1441.23,1404.28 
  "/>
<polyline clip-path="url(#clip320)" style="stroke:#000000; stroke-linecap:butt; stroke-linejoin:round; stroke-width:4; stroke-opacity:1; fill:none" points="
  1867.27,1423.18 1867.27,1404.28 
  "/>
<polyline clip-path="url(#clip320)" style="stroke:#000000; stroke-linecap:butt; stroke-linejoin:round; stroke-width:4; stroke-opacity:1; fill:none" points="
  2293.32,1423.18 2293.32,1404.28 
  "/>
<path clip-path="url(#clip320)" d="M548.747 1451.02 L567.104 1451.02 L567.104 1454.96 L553.03 1454.96 L553.03 1463.43 Q554.048 1463.08 555.067 1462.92 Q556.085 1462.73 557.104 1462.73 Q562.891 1462.73 566.27 1465.9 Q569.65 1469.08 569.65 1474.49 Q569.65 1480.07 566.178 1483.17 Q562.706 1486.25 556.386 1486.25 Q554.21 1486.25 551.942 1485.88 Q549.696 1485.51 547.289 1484.77 L547.289 1480.07 Q549.372 1481.2 551.595 1481.76 Q553.817 1482.32 556.294 1482.32 Q560.298 1482.32 562.636 1480.21 Q564.974 1478.1 564.974 1474.49 Q564.974 1470.88 562.636 1468.77 Q560.298 1466.67 556.294 1466.67 Q554.419 1466.67 552.544 1467.08 Q550.692 1467.5 548.747 1468.38 L548.747 1451.02 Z" fill="#000000" fill-rule="evenodd" fill-opacity="1" /><path clip-path="url(#clip320)" d="M588.863 1454.1 Q585.252 1454.1 583.423 1457.66 Q581.618 1461.2 581.618 1468.33 Q581.618 1475.44 583.423 1479.01 Q585.252 1482.55 588.863 1482.55 Q592.497 1482.55 594.303 1479.01 Q596.131 1475.44 596.131 1468.33 Q596.131 1461.2 594.303 1457.66 Q592.497 1454.1 588.863 1454.1 M588.863 1450.39 Q594.673 1450.39 597.729 1455 Q600.807 1459.58 600.807 1468.33 Q600.807 1477.06 597.729 1481.67 Q594.673 1486.25 588.863 1486.25 Q583.053 1486.25 579.974 1481.67 Q576.918 1477.06 576.918 1468.33 Q576.918 1459.58 579.974 1455 Q583.053 1450.39 588.863 1450.39 Z" fill="#000000" fill-rule="evenodd" fill-opacity="1" /><path clip-path="url(#clip320)" d="M619.025 1454.1 Q615.414 1454.1 613.585 1457.66 Q611.779 1461.2 611.779 1468.33 Q611.779 1475.44 613.585 1479.01 Q615.414 1482.55 619.025 1482.55 Q622.659 1482.55 624.465 1479.01 Q626.293 1475.44 626.293 1468.33 Q626.293 1461.2 624.465 1457.66 Q622.659 1454.1 619.025 1454.1 M619.025 1450.39 Q624.835 1450.39 627.89 1455 Q630.969 1459.58 630.969 1468.33 Q630.969 1477.06 627.89 1481.67 Q624.835 1486.25 619.025 1486.25 Q613.215 1486.25 610.136 1481.67 Q607.08 1477.06 607.08 1468.33 Q607.08 1459.58 610.136 1455 Q613.215 1450.39 619.025 1450.39 Z" fill="#000000" fill-rule="evenodd" fill-opacity="1" /><path clip-path="url(#clip320)" d="M959.703 1481.64 L967.342 1481.64 L967.342 1455.28 L959.032 1456.95 L959.032 1452.69 L967.296 1451.02 L971.972 1451.02 L971.972 1481.64 L979.61 1481.64 L979.61 1485.58 L959.703 1485.58 L959.703 1481.64 Z" fill="#000000" fill-rule="evenodd" fill-opacity="1" /><path clip-path="url(#clip320)" d="M999.055 1454.1 Q995.444 1454.1 993.615 1457.66 Q991.809 1461.2 991.809 1468.33 Q991.809 1475.44 993.615 1479.01 Q995.444 1482.55 999.055 1482.55 Q1002.69 1482.55 1004.49 1479.01 Q1006.32 1475.44 1006.32 1468.33 Q1006.32 1461.2 1004.49 1457.66 Q1002.69 1454.1 999.055 1454.1 M999.055 1450.39 Q1004.86 1450.39 1007.92 1455 Q1011 1459.58 1011 1468.33 Q1011 1477.06 1007.92 1481.67 Q1004.86 1486.25 999.055 1486.25 Q993.245 1486.25 990.166 1481.67 Q987.11 1477.06 987.11 1468.33 Q987.11 1459.58 990.166 1455 Q993.245 1450.39 999.055 1450.39 Z" fill="#000000" fill-rule="evenodd" fill-opacity="1" /><path clip-path="url(#clip320)" d="M1029.22 1454.1 Q1025.61 1454.1 1023.78 1457.66 Q1021.97 1461.2 1021.97 1468.33 Q1021.97 1475.44 1023.78 1479.01 Q1025.61 1482.55 1029.22 1482.55 Q1032.85 1482.55 1034.66 1479.01 Q1036.49 1475.44 1036.49 1468.33 Q1036.49 1461.2 1034.66 1457.66 Q1032.85 1454.1 1029.22 1454.1 M1029.22 1450.39 Q1035.03 1450.39 1038.08 1455 Q1041.16 1459.58 1041.16 1468.33 Q1041.16 1477.06 1038.08 1481.67 Q1035.03 1486.25 1029.22 1486.25 Q1023.41 1486.25 1020.33 1481.67 Q1017.27 1477.06 1017.27 1468.33 Q1017.27 1459.58 1020.33 1455 Q1023.41 1450.39 1029.22 1450.39 Z" fill="#000000" fill-rule="evenodd" fill-opacity="1" /><path clip-path="url(#clip320)" d="M1059.38 1454.1 Q1055.77 1454.1 1053.94 1457.66 Q1052.13 1461.2 1052.13 1468.33 Q1052.13 1475.44 1053.94 1479.01 Q1055.77 1482.55 1059.38 1482.55 Q1063.01 1482.55 1064.82 1479.01 Q1066.65 1475.44 1066.65 1468.33 Q1066.65 1461.2 1064.82 1457.66 Q1063.01 1454.1 1059.38 1454.1 M1059.38 1450.39 Q1065.19 1450.39 1068.24 1455 Q1071.32 1459.58 1071.32 1468.33 Q1071.32 1477.06 1068.24 1481.67 Q1065.19 1486.25 1059.38 1486.25 Q1053.57 1486.25 1050.49 1481.67 Q1047.43 1477.06 1047.43 1468.33 Q1047.43 1459.58 1050.49 1455 Q1053.57 1450.39 1059.38 1450.39 Z" fill="#000000" fill-rule="evenodd" fill-opacity="1" /><path clip-path="url(#clip320)" d="M1385.75 1481.64 L1393.39 1481.64 L1393.39 1455.28 L1385.08 1456.95 L1385.08 1452.69 L1393.34 1451.02 L1398.02 1451.02 L1398.02 1481.64 L1405.66 1481.64 L1405.66 1485.58 L1385.75 1485.58 L1385.75 1481.64 Z" fill="#000000" fill-rule="evenodd" fill-opacity="1" /><path clip-path="url(#clip320)" d="M1415.15 1451.02 L1433.51 1451.02 L1433.51 1454.96 L1419.43 1454.96 L1419.43 1463.43 Q1420.45 1463.08 1421.47 1462.92 Q1422.49 1462.73 1423.51 1462.73 Q1429.29 1462.73 1432.67 1465.9 Q1436.05 1469.08 1436.05 1474.49 Q1436.05 1480.07 1432.58 1483.17 Q1429.11 1486.25 1422.79 1486.25 Q1420.61 1486.25 1418.34 1485.88 Q1416.1 1485.51 1413.69 1484.77 L1413.69 1480.07 Q1415.77 1481.2 1418 1481.76 Q1420.22 1482.32 1422.7 1482.32 Q1426.7 1482.32 1429.04 1480.21 Q1431.38 1478.1 1431.38 1474.49 Q1431.38 1470.88 1429.04 1468.77 Q1426.7 1466.67 1422.7 1466.67 Q1420.82 1466.67 1418.95 1467.08 Q1417.09 1467.5 1415.15 1468.38 L1415.15 1451.02 Z" fill="#000000" fill-rule="evenodd" fill-opacity="1" /><path clip-path="url(#clip320)" d="M1455.26 1454.1 Q1451.65 1454.1 1449.83 1457.66 Q1448.02 1461.2 1448.02 1468.33 Q1448.02 1475.44 1449.83 1479.01 Q1451.65 1482.55 1455.26 1482.55 Q1458.9 1482.55 1460.7 1479.01 Q1462.53 1475.44 1462.53 1468.33 Q1462.53 1461.2 1460.7 1457.66 Q1458.9 1454.1 1455.26 1454.1 M1455.26 1450.39 Q1461.08 1450.39 1464.13 1455 Q1467.21 1459.58 1467.21 1468.33 Q1467.21 1477.06 1464.13 1481.67 Q1461.08 1486.25 1455.26 1486.25 Q1449.45 1486.25 1446.38 1481.67 Q1443.32 1477.06 1443.32 1468.33 Q1443.32 1459.58 1446.38 1455 Q1449.45 1450.39 1455.26 1450.39 Z" fill="#000000" fill-rule="evenodd" fill-opacity="1" /><path clip-path="url(#clip320)" d="M1485.43 1454.1 Q1481.82 1454.1 1479.99 1457.66 Q1478.18 1461.2 1478.18 1468.33 Q1478.18 1475.44 1479.99 1479.01 Q1481.82 1482.55 1485.43 1482.55 Q1489.06 1482.55 1490.87 1479.01 Q1492.7 1475.44 1492.7 1468.33 Q1492.7 1461.2 1490.87 1457.66 Q1489.06 1454.1 1485.43 1454.1 M1485.43 1450.39 Q1491.24 1450.39 1494.29 1455 Q1497.37 1459.58 1497.37 1468.33 Q1497.37 1477.06 1494.29 1481.67 Q1491.24 1486.25 1485.43 1486.25 Q1479.62 1486.25 1476.54 1481.67 Q1473.48 1477.06 1473.48 1468.33 Q1473.48 1459.58 1476.54 1455 Q1479.62 1450.39 1485.43 1450.39 Z" fill="#000000" fill-rule="evenodd" fill-opacity="1" /><path clip-path="url(#clip320)" d="M1815.89 1481.64 L1832.2 1481.64 L1832.2 1485.58 L1810.26 1485.58 L1810.26 1481.64 Q1812.92 1478.89 1817.51 1474.26 Q1822.11 1469.61 1823.29 1468.27 Q1825.54 1465.74 1826.42 1464.01 Q1827.32 1462.25 1827.32 1460.56 Q1827.32 1457.8 1825.38 1456.07 Q1823.45 1454.33 1820.35 1454.33 Q1818.15 1454.33 1815.7 1455.09 Q1813.27 1455.86 1810.49 1457.41 L1810.49 1452.69 Q1813.32 1451.55 1815.77 1450.97 Q1818.22 1450.39 1820.26 1450.39 Q1825.63 1450.39 1828.83 1453.08 Q1832.02 1455.77 1832.02 1460.26 Q1832.02 1462.39 1831.21 1464.31 Q1830.42 1466.2 1828.32 1468.8 Q1827.74 1469.47 1824.64 1472.69 Q1821.53 1475.88 1815.89 1481.64 Z" fill="#000000" fill-rule="evenodd" fill-opacity="1" /><path clip-path="url(#clip320)" d="M1852.02 1454.1 Q1848.41 1454.1 1846.58 1457.66 Q1844.77 1461.2 1844.77 1468.33 Q1844.77 1475.44 1846.58 1479.01 Q1848.41 1482.55 1852.02 1482.55 Q1855.65 1482.55 1857.46 1479.01 Q1859.29 1475.44 1859.29 1468.33 Q1859.29 1461.2 1857.46 1457.66 Q1855.65 1454.1 1852.02 1454.1 M1852.02 1450.39 Q1857.83 1450.39 1860.89 1455 Q1863.96 1459.58 1863.96 1468.33 Q1863.96 1477.06 1860.89 1481.67 Q1857.83 1486.25 1852.02 1486.25 Q1846.21 1486.25 1843.13 1481.67 Q1840.07 1477.06 1840.07 1468.33 Q1840.07 1459.58 1843.13 1455 Q1846.21 1450.39 1852.02 1450.39 Z" fill="#000000" fill-rule="evenodd" fill-opacity="1" /><path clip-path="url(#clip320)" d="M1882.18 1454.1 Q1878.57 1454.1 1876.74 1457.66 Q1874.94 1461.2 1874.94 1468.33 Q1874.94 1475.44 1876.74 1479.01 Q1878.57 1482.55 1882.18 1482.55 Q1885.82 1482.55 1887.62 1479.01 Q1889.45 1475.44 1889.45 1468.33 Q1889.45 1461.2 1887.62 1457.66 Q1885.82 1454.1 1882.18 1454.1 M1882.18 1450.39 Q1887.99 1450.39 1891.05 1455 Q1894.13 1459.58 1894.13 1468.33 Q1894.13 1477.06 1891.05 1481.67 Q1887.99 1486.25 1882.18 1486.25 Q1876.37 1486.25 1873.29 1481.67 Q1870.24 1477.06 1870.24 1468.33 Q1870.24 1459.58 1873.29 1455 Q1876.37 1450.39 1882.18 1450.39 Z" fill="#000000" fill-rule="evenodd" fill-opacity="1" /><path clip-path="url(#clip320)" d="M1912.34 1454.1 Q1908.73 1454.1 1906.9 1457.66 Q1905.1 1461.2 1905.1 1468.33 Q1905.1 1475.44 1906.9 1479.01 Q1908.73 1482.55 1912.34 1482.55 Q1915.98 1482.55 1917.78 1479.01 Q1919.61 1475.44 1919.61 1468.33 Q1919.61 1461.2 1917.78 1457.66 Q1915.98 1454.1 1912.34 1454.1 M1912.34 1450.39 Q1918.15 1450.39 1921.21 1455 Q1924.29 1459.58 1924.29 1468.33 Q1924.29 1477.06 1921.21 1481.67 Q1918.15 1486.25 1912.34 1486.25 Q1906.53 1486.25 1903.45 1481.67 Q1900.4 1477.06 1900.4 1468.33 Q1900.4 1459.58 1903.45 1455 Q1906.53 1450.39 1912.34 1450.39 Z" fill="#000000" fill-rule="evenodd" fill-opacity="1" /><path clip-path="url(#clip320)" d="M2241.93 1481.64 L2258.25 1481.64 L2258.25 1485.58 L2236.31 1485.58 L2236.31 1481.64 Q2238.97 1478.89 2243.55 1474.26 Q2248.16 1469.61 2249.34 1468.27 Q2251.59 1465.74 2252.47 1464.01 Q2253.37 1462.25 2253.37 1460.56 Q2253.37 1457.8 2251.42 1456.07 Q2249.5 1454.33 2246.4 1454.33 Q2244.2 1454.33 2241.75 1455.09 Q2239.32 1455.86 2236.54 1457.41 L2236.54 1452.69 Q2239.36 1451.55 2241.82 1450.97 Q2244.27 1450.39 2246.31 1450.39 Q2251.68 1450.39 2254.87 1453.08 Q2258.07 1455.77 2258.07 1460.26 Q2258.07 1462.39 2257.26 1464.31 Q2256.47 1466.2 2254.36 1468.8 Q2253.79 1469.47 2250.68 1472.69 Q2247.58 1475.88 2241.93 1481.64 Z" fill="#000000" fill-rule="evenodd" fill-opacity="1" /><path clip-path="url(#clip320)" d="M2268.11 1451.02 L2286.47 1451.02 L2286.47 1454.96 L2272.4 1454.96 L2272.4 1463.43 Q2273.41 1463.08 2274.43 1462.92 Q2275.45 1462.73 2276.47 1462.73 Q2282.26 1462.73 2285.64 1465.9 Q2289.02 1469.08 2289.02 1474.49 Q2289.02 1480.07 2285.54 1483.17 Q2282.07 1486.25 2275.75 1486.25 Q2273.58 1486.25 2271.31 1485.88 Q2269.06 1485.51 2266.66 1484.77 L2266.66 1480.07 Q2268.74 1481.2 2270.96 1481.76 Q2273.18 1482.32 2275.66 1482.32 Q2279.66 1482.32 2282 1480.21 Q2284.34 1478.1 2284.34 1474.49 Q2284.34 1470.88 2282 1468.77 Q2279.66 1466.67 2275.66 1466.67 Q2273.79 1466.67 2271.91 1467.08 Q2270.06 1467.5 2268.11 1468.38 L2268.11 1451.02 Z" fill="#000000" fill-rule="evenodd" fill-opacity="1" /><path clip-path="url(#clip320)" d="M2308.23 1454.1 Q2304.62 1454.1 2302.79 1457.66 Q2300.98 1461.2 2300.98 1468.33 Q2300.98 1475.44 2302.79 1479.01 Q2304.62 1482.55 2308.23 1482.55 Q2311.86 1482.55 2313.67 1479.01 Q2315.5 1475.44 2315.5 1468.33 Q2315.5 1461.2 2313.67 1457.66 Q2311.86 1454.1 2308.23 1454.1 M2308.23 1450.39 Q2314.04 1450.39 2317.1 1455 Q2320.17 1459.58 2320.17 1468.33 Q2320.17 1477.06 2317.1 1481.67 Q2314.04 1486.25 2308.23 1486.25 Q2302.42 1486.25 2299.34 1481.67 Q2296.29 1477.06 2296.29 1468.33 Q2296.29 1459.58 2299.34 1455 Q2302.42 1450.39 2308.23 1450.39 Z" fill="#000000" fill-rule="evenodd" fill-opacity="1" /><path clip-path="url(#clip320)" d="M2338.39 1454.1 Q2334.78 1454.1 2332.95 1457.66 Q2331.15 1461.2 2331.15 1468.33 Q2331.15 1475.44 2332.95 1479.01 Q2334.78 1482.55 2338.39 1482.55 Q2342.03 1482.55 2343.83 1479.01 Q2345.66 1475.44 2345.66 1468.33 Q2345.66 1461.2 2343.83 1457.66 Q2342.03 1454.1 2338.39 1454.1 M2338.39 1450.39 Q2344.2 1450.39 2347.26 1455 Q2350.34 1459.58 2350.34 1468.33 Q2350.34 1477.06 2347.26 1481.67 Q2344.2 1486.25 2338.39 1486.25 Q2332.58 1486.25 2329.5 1481.67 Q2326.45 1477.06 2326.45 1468.33 Q2326.45 1459.58 2329.5 1455 Q2332.58 1450.39 2338.39 1450.39 Z" fill="#000000" fill-rule="evenodd" fill-opacity="1" /><path clip-path="url(#clip320)" d="M1123.17 1537.27 L1114.45 1560.92 L1131.92 1560.92 L1123.17 1537.27 M1119.54 1530.94 L1126.83 1530.94 L1144.94 1578.46 L1138.25 1578.46 L1133.92 1566.27 L1112.5 1566.27 L1108.18 1578.46 L1101.4 1578.46 L1119.54 1530.94 Z" fill="#000000" fill-rule="evenodd" fill-opacity="1" /><path clip-path="url(#clip320)" d="M1151.62 1528.94 L1157.48 1528.94 L1157.48 1578.46 L1151.62 1578.46 L1151.62 1528.94 Z" fill="#000000" fill-rule="evenodd" fill-opacity="1" /><path clip-path="url(#clip320)" d="M1175.52 1532.69 L1175.52 1542.81 L1187.59 1542.81 L1187.59 1547.36 L1175.52 1547.36 L1175.52 1566.72 Q1175.52 1571.08 1176.7 1572.32 Q1177.91 1573.56 1181.57 1573.56 L1187.59 1573.56 L1187.59 1578.46 L1181.57 1578.46 Q1174.79 1578.46 1172.21 1575.95 Q1169.64 1573.4 1169.64 1566.72 L1169.64 1547.36 L1165.34 1547.36 L1165.34 1542.81 L1169.64 1542.81 L1169.64 1532.69 L1175.52 1532.69 Z" fill="#000000" fill-rule="evenodd" fill-opacity="1" /><path clip-path="url(#clip320)" d="M1195.29 1542.81 L1201.15 1542.81 L1201.15 1578.46 L1195.29 1578.46 L1195.29 1542.81 M1195.29 1528.94 L1201.15 1528.94 L1201.15 1536.35 L1195.29 1536.35 L1195.29 1528.94 Z" fill="#000000" fill-rule="evenodd" fill-opacity="1" /><path clip-path="url(#clip320)" d="M1219.19 1532.69 L1219.19 1542.81 L1231.26 1542.81 L1231.26 1547.36 L1219.19 1547.36 L1219.19 1566.72 Q1219.19 1571.08 1220.37 1572.32 Q1221.58 1573.56 1225.24 1573.56 L1231.26 1573.56 L1231.26 1578.46 L1225.24 1578.46 Q1218.46 1578.46 1215.88 1575.95 Q1213.3 1573.4 1213.3 1566.72 L1213.3 1547.36 L1209.01 1547.36 L1209.01 1542.81 L1213.3 1542.81 L1213.3 1532.69 L1219.19 1532.69 Z" fill="#000000" fill-rule="evenodd" fill-opacity="1" /><path clip-path="url(#clip320)" d="M1238.35 1564.39 L1238.35 1542.81 L1244.21 1542.81 L1244.21 1564.17 Q1244.21 1569.23 1246.18 1571.78 Q1248.16 1574.29 1252.1 1574.29 Q1256.85 1574.29 1259.58 1571.27 Q1262.35 1568.24 1262.35 1563.02 L1262.35 1542.81 L1268.21 1542.81 L1268.21 1578.46 L1262.35 1578.46 L1262.35 1572.99 Q1260.22 1576.23 1257.39 1577.82 Q1254.59 1579.38 1250.86 1579.38 Q1244.72 1579.38 1241.54 1575.56 Q1238.35 1571.74 1238.35 1564.39 M1253.09 1541.95 L1253.09 1541.95 Z" fill="#000000" fill-rule="evenodd" fill-opacity="1" /><path clip-path="url(#clip320)" d="M1303.73 1548.22 L1303.73 1528.94 L1309.59 1528.94 L1309.59 1578.46 L1303.73 1578.46 L1303.73 1573.11 Q1301.88 1576.3 1299.05 1577.86 Q1296.25 1579.38 1292.3 1579.38 Q1285.84 1579.38 1281.77 1574.23 Q1277.73 1569.07 1277.73 1560.67 Q1277.73 1552.27 1281.77 1547.11 Q1285.84 1541.95 1292.3 1541.95 Q1296.25 1541.95 1299.05 1543.51 Q1301.88 1545.04 1303.73 1548.22 M1283.77 1560.67 Q1283.77 1567.13 1286.41 1570.82 Q1289.09 1574.48 1293.74 1574.48 Q1298.38 1574.48 1301.06 1570.82 Q1303.73 1567.13 1303.73 1560.67 Q1303.73 1554.21 1301.06 1550.55 Q1298.38 1546.85 1293.74 1546.85 Q1289.09 1546.85 1286.41 1550.55 Q1283.77 1554.21 1283.77 1560.67 Z" fill="#000000" fill-rule="evenodd" fill-opacity="1" /><path clip-path="url(#clip320)" d="M1352.14 1559.17 L1352.14 1562.04 L1325.21 1562.04 Q1325.6 1568.08 1328.84 1571.27 Q1332.12 1574.42 1337.95 1574.42 Q1341.32 1574.42 1344.47 1573.59 Q1347.65 1572.76 1350.77 1571.11 L1350.77 1576.65 Q1347.62 1577.98 1344.31 1578.68 Q1341 1579.38 1337.6 1579.38 Q1329.07 1579.38 1324.07 1574.42 Q1319.1 1569.45 1319.1 1560.99 Q1319.1 1552.23 1323.81 1547.11 Q1328.56 1541.95 1336.58 1541.95 Q1343.77 1541.95 1347.94 1546.6 Q1352.14 1551.22 1352.14 1559.17 M1346.28 1557.45 Q1346.22 1552.65 1343.58 1549.78 Q1340.97 1546.92 1336.64 1546.92 Q1331.74 1546.92 1328.78 1549.69 Q1325.85 1552.46 1325.4 1557.49 L1346.28 1557.45 Z" fill="#000000" fill-rule="evenodd" fill-opacity="1" /><path clip-path="url(#clip320)" d="M1396.54 1529 Q1392.28 1536.32 1390.21 1543.48 Q1388.14 1550.64 1388.14 1557.99 Q1388.14 1565.35 1390.21 1572.57 Q1392.31 1579.77 1396.54 1587.05 L1391.45 1587.05 Q1386.67 1579.57 1384.29 1572.35 Q1381.93 1565.12 1381.93 1557.99 Q1381.93 1550.9 1384.29 1543.7 Q1386.64 1536.51 1391.45 1529 L1396.54 1529 Z" fill="#000000" fill-rule="evenodd" fill-opacity="1" /><path clip-path="url(#clip320)" d="M1426.4 1553.47 Q1426.4 1555.3 1425.27 1556.4 Q1424.17 1557.49 1422.79 1557.49 Q1421.57 1557.49 1420.92 1556.79 Q1420.28 1556.08 1420.28 1555.18 Q1420.28 1554.79 1420.44 1554.31 Q1420.6 1553.79 1420.95 1553.18 Q1421.34 1552.57 1422.15 1552.12 Q1422.95 1551.67 1424.05 1551.6 Q1423.82 1551.38 1423.76 1551.34 Q1423.27 1550.96 1422.37 1550.83 Q1422.24 1550.76 1421.79 1550.76 Q1419.57 1550.76 1417.31 1552.41 Q1415.09 1554.02 1412.35 1557.08 Q1408.91 1560.65 1406.69 1561.97 Q1416.44 1563.26 1416.44 1568.9 Q1416.44 1569.83 1416.19 1570.96 Q1415.67 1573.08 1415.67 1574.63 Q1415.67 1577.72 1417.77 1577.72 Q1419.79 1577.72 1421.08 1575.66 Q1422.4 1573.6 1423.5 1569.57 Q1423.66 1568.83 1423.82 1568.61 Q1423.98 1568.38 1424.43 1568.38 Q1425.24 1568.38 1425.24 1569.02 Q1424.5 1572.79 1422.85 1575.69 Q1420.76 1579.2 1417.64 1579.2 Q1415.03 1579.2 1413.29 1577.4 Q1411.58 1575.56 1411.58 1572.66 Q1411.58 1571.96 1411.84 1570.34 Q1412.03 1569.7 1412.03 1568.96 Q1412.03 1567.45 1411.2 1566.32 Q1410.36 1565.16 1409.01 1564.58 Q1407.65 1564 1406.53 1563.74 Q1405.43 1563.45 1404.37 1563.36 Q1401.15 1576.98 1400.7 1577.82 Q1400.41 1578.4 1399.76 1578.78 Q1399.12 1579.2 1398.44 1579.2 Q1397.8 1579.2 1397.15 1578.75 Q1396.54 1578.33 1396.54 1577.33 Q1396.54 1576.82 1396.8 1575.88 L1406.36 1537.88 L1406.56 1536.59 Q1406.56 1536.21 1406.4 1536.01 Q1406.27 1535.79 1405.49 1535.63 Q1404.75 1535.47 1403.27 1535.47 Q1402.66 1535.47 1402.37 1535.43 Q1402.11 1535.4 1401.89 1535.24 Q1401.66 1535.05 1401.66 1534.66 Q1401.66 1534.11 1401.89 1533.82 Q1402.15 1533.5 1402.34 1533.44 Q1402.53 1533.37 1402.92 1533.34 Q1403.47 1533.31 1405.3 1533.15 Q1407.14 1532.95 1408.72 1532.83 Q1410.29 1532.7 1410.97 1532.7 Q1411.36 1532.7 1411.55 1532.89 Q1411.78 1533.05 1411.81 1533.24 L1411.84 1533.4 L1404.98 1561.23 Q1407.81 1560.1 1412.29 1555.11 Q1417.48 1549.31 1421.92 1549.31 Q1424.01 1549.31 1425.2 1550.6 Q1426.4 1551.86 1426.4 1553.47 Z" fill="#000000" fill-rule="evenodd" fill-opacity="1" /><path clip-path="url(#clip320)" d="M1486.2 1569.02 Q1486.2 1569.28 1485.91 1570.28 Q1485.62 1571.28 1484.91 1572.82 Q1484.24 1574.37 1483.27 1575.79 Q1482.34 1577.17 1480.79 1578.2 Q1479.28 1579.2 1477.54 1579.2 Q1475.22 1579.2 1473.67 1577.66 Q1472.13 1576.11 1472.13 1573.79 Q1472.13 1572.53 1473 1570.15 Q1477.09 1559.27 1477.09 1555.37 Q1477.09 1550.76 1473.51 1550.76 Q1471.48 1550.76 1469.65 1551.6 Q1467.81 1552.44 1466.62 1553.6 Q1465.43 1554.76 1464.5 1556.08 Q1463.56 1557.4 1463.14 1558.27 Q1462.76 1559.14 1462.66 1559.52 L1458.7 1575.43 Q1458.38 1576.79 1458.15 1577.43 Q1457.93 1578.07 1457.31 1578.62 Q1456.7 1579.2 1455.74 1579.2 Q1454.93 1579.2 1454.35 1578.72 Q1453.8 1578.24 1453.8 1577.4 Q1453.8 1577.27 1453.96 1576.59 Q1454.13 1575.92 1454.35 1574.98 Q1454.58 1574.05 1454.67 1573.5 Q1455.83 1569.12 1455.99 1568.51 L1457.83 1560.84 Q1458.83 1557.04 1458.83 1555.37 Q1458.83 1550.76 1455.25 1550.76 Q1453.48 1550.76 1451.81 1551.44 Q1450.16 1552.08 1449.04 1552.99 Q1447.91 1553.89 1446.88 1555.14 Q1445.88 1556.37 1445.37 1557.2 Q1444.88 1558.01 1444.5 1558.82 L1443.66 1562.1 Q1443.47 1563 1442.53 1566.51 L1441.08 1572.47 Q1440.05 1576.91 1439.83 1577.33 Q1439.5 1578.24 1438.8 1578.72 Q1438.09 1579.2 1437.38 1579.2 Q1436.57 1579.2 1436.03 1578.72 Q1435.48 1578.24 1435.48 1577.4 Q1435.48 1577.27 1435.58 1576.79 Q1435.67 1576.3 1435.83 1575.63 Q1435.99 1574.95 1436.06 1574.56 L1439.89 1559.33 Q1440.6 1556.56 1440.76 1555.69 Q1440.95 1554.79 1440.95 1553.79 Q1440.95 1550.76 1438.89 1550.76 Q1437.22 1550.76 1436.12 1552.76 Q1435.03 1554.76 1434.09 1558.62 Q1433.8 1559.68 1433.61 1559.91 Q1433.45 1560.14 1432.97 1560.14 Q1432.16 1560.1 1432.16 1559.46 Q1432.16 1559.3 1432.42 1558.27 Q1432.68 1557.24 1433.16 1555.69 Q1433.68 1554.11 1434.22 1553.08 Q1434.54 1552.41 1434.83 1551.96 Q1435.12 1551.5 1435.7 1550.8 Q1436.28 1550.09 1437.15 1549.7 Q1438.02 1549.31 1439.09 1549.31 Q1441.44 1549.31 1443.18 1550.83 Q1444.95 1552.34 1445.17 1555.05 Q1449.46 1549.31 1455.45 1549.31 Q1458.83 1549.31 1460.86 1551.02 Q1462.76 1552.66 1462.98 1555.69 Q1467.43 1549.31 1473.74 1549.31 Q1477.38 1549.31 1479.34 1551.21 Q1481.31 1553.08 1481.31 1556.37 Q1481.31 1558.07 1480.44 1561.33 Q1479.57 1564.55 1478.99 1566.16 Q1478.41 1567.77 1477.28 1570.86 Q1476.09 1573.82 1476.09 1575.56 Q1476.09 1576.69 1476.48 1577.2 Q1476.86 1577.72 1477.7 1577.72 Q1478.99 1577.72 1480.12 1576.98 Q1481.24 1576.21 1482.05 1574.95 Q1482.89 1573.66 1483.43 1572.37 Q1483.98 1571.05 1484.4 1569.57 Q1484.66 1568.77 1484.79 1568.57 Q1484.95 1568.38 1485.4 1568.38 Q1486.2 1568.38 1486.2 1569.02 Z" fill="#000000" fill-rule="evenodd" fill-opacity="1" /><path clip-path="url(#clip320)" d="M1489.51 1529 L1494.61 1529 Q1499.38 1536.51 1501.74 1543.7 Q1504.12 1550.9 1504.12 1557.99 Q1504.12 1565.12 1501.74 1572.35 Q1499.38 1579.57 1494.61 1587.05 L1489.51 1587.05 Q1493.75 1579.77 1495.82 1572.57 Q1497.92 1565.35 1497.92 1557.99 Q1497.92 1550.64 1495.82 1543.48 Q1493.75 1536.32 1489.51 1529 Z" fill="#000000" fill-rule="evenodd" fill-opacity="1" /><polyline clip-path="url(#clip322)" style="stroke:#000000; stroke-linecap:butt; stroke-linejoin:round; stroke-width:2; stroke-opacity:0.1; fill:none" points="
  252.764,1423.18 2352.76,1423.18 
  "/>
<polyline clip-path="url(#clip322)" style="stroke:#000000; stroke-linecap:butt; stroke-linejoin:round; stroke-width:2; stroke-opacity:0.1; fill:none" points="
  252.764,1206.56 2352.76,1206.56 
  "/>
<polyline clip-path="url(#clip322)" style="stroke:#000000; stroke-linecap:butt; stroke-linejoin:round; stroke-width:2; stroke-opacity:0.1; fill:none" points="
  252.764,989.944 2352.76,989.944 
  "/>
<polyline clip-path="url(#clip322)" style="stroke:#000000; stroke-linecap:butt; stroke-linejoin:round; stroke-width:2; stroke-opacity:0.1; fill:none" points="
  252.764,773.326 2352.76,773.326 
  "/>
<polyline clip-path="url(#clip322)" style="stroke:#000000; stroke-linecap:butt; stroke-linejoin:round; stroke-width:2; stroke-opacity:0.1; fill:none" points="
  252.764,556.708 2352.76,556.708 
  "/>
<polyline clip-path="url(#clip322)" style="stroke:#000000; stroke-linecap:butt; stroke-linejoin:round; stroke-width:2; stroke-opacity:0.1; fill:none" points="
  252.764,340.09 2352.76,340.09 
  "/>
<polyline clip-path="url(#clip322)" style="stroke:#000000; stroke-linecap:butt; stroke-linejoin:round; stroke-width:2; stroke-opacity:0.1; fill:none" points="
  252.764,123.472 2352.76,123.472 
  "/>
<polyline clip-path="url(#clip320)" style="stroke:#000000; stroke-linecap:butt; stroke-linejoin:round; stroke-width:4; stroke-opacity:1; fill:none" points="
  252.764,1423.18 252.764,123.472 
  "/>
<polyline clip-path="url(#clip320)" style="stroke:#000000; stroke-linecap:butt; stroke-linejoin:round; stroke-width:4; stroke-opacity:1; fill:none" points="
  252.764,1423.18 271.662,1423.18 
  "/>
<polyline clip-path="url(#clip320)" style="stroke:#000000; stroke-linecap:butt; stroke-linejoin:round; stroke-width:4; stroke-opacity:1; fill:none" points="
  252.764,1206.56 271.662,1206.56 
  "/>
<polyline clip-path="url(#clip320)" style="stroke:#000000; stroke-linecap:butt; stroke-linejoin:round; stroke-width:4; stroke-opacity:1; fill:none" points="
  252.764,989.944 271.662,989.944 
  "/>
<polyline clip-path="url(#clip320)" style="stroke:#000000; stroke-linecap:butt; stroke-linejoin:round; stroke-width:4; stroke-opacity:1; fill:none" points="
  252.764,773.326 271.662,773.326 
  "/>
<polyline clip-path="url(#clip320)" style="stroke:#000000; stroke-linecap:butt; stroke-linejoin:round; stroke-width:4; stroke-opacity:1; fill:none" points="
  252.764,556.708 271.662,556.708 
  "/>
<polyline clip-path="url(#clip320)" style="stroke:#000000; stroke-linecap:butt; stroke-linejoin:round; stroke-width:4; stroke-opacity:1; fill:none" points="
  252.764,340.09 271.662,340.09 
  "/>
<polyline clip-path="url(#clip320)" style="stroke:#000000; stroke-linecap:butt; stroke-linejoin:round; stroke-width:4; stroke-opacity:1; fill:none" points="
  252.764,123.472 271.662,123.472 
  "/>
<path clip-path="url(#clip320)" d="M115.477 1442.97 L123.116 1442.97 L123.116 1416.61 L114.806 1418.27 L114.806 1414.01 L123.069 1412.35 L127.745 1412.35 L127.745 1442.97 L135.384 1442.97 L135.384 1446.91 L115.477 1446.91 L115.477 1442.97 Z" fill="#000000" fill-rule="evenodd" fill-opacity="1" /><path clip-path="url(#clip320)" d="M154.829 1415.43 Q151.217 1415.43 149.389 1418.99 Q147.583 1422.53 147.583 1429.66 Q147.583 1436.77 149.389 1440.33 Q151.217 1443.88 154.829 1443.88 Q158.463 1443.88 160.268 1440.33 Q162.097 1436.77 162.097 1429.66 Q162.097 1422.53 160.268 1418.99 Q158.463 1415.43 154.829 1415.43 M154.829 1411.72 Q160.639 1411.72 163.694 1416.33 Q166.773 1420.91 166.773 1429.66 Q166.773 1438.39 163.694 1443 Q160.639 1447.58 154.829 1447.58 Q149.018 1447.58 145.94 1443 Q142.884 1438.39 142.884 1429.66 Q142.884 1420.91 145.94 1416.33 Q149.018 1411.72 154.829 1411.72 Z" fill="#000000" fill-rule="evenodd" fill-opacity="1" /><path clip-path="url(#clip320)" d="M166.773 1405.82 L190.884 1405.82 L190.884 1409.02 L166.773 1409.02 L166.773 1405.82 Z" fill="#000000" fill-rule="evenodd" fill-opacity="1" /><path clip-path="url(#clip320)" d="M199.197 1418.91 L199.197 1415.45 Q200.627 1416.13 202.094 1416.49 Q203.561 1416.85 204.971 1416.85 Q208.733 1416.85 210.708 1414.32 Q212.701 1411.79 212.984 1406.63 Q211.893 1408.25 210.219 1409.12 Q208.545 1409.98 206.514 1409.98 Q202.301 1409.98 199.837 1407.44 Q197.392 1404.88 197.392 1400.46 Q197.392 1396.14 199.95 1393.52 Q202.508 1390.91 206.758 1390.91 Q211.629 1390.91 214.187 1394.65 Q216.764 1398.38 216.764 1405.49 Q216.764 1412.12 213.604 1416.09 Q210.463 1420.04 205.141 1420.04 Q203.711 1420.04 202.244 1419.76 Q200.777 1419.48 199.197 1418.91 M206.758 1407.01 Q209.316 1407.01 210.802 1405.26 Q212.307 1403.51 212.307 1400.46 Q212.307 1397.44 210.802 1395.69 Q209.316 1393.92 206.758 1393.92 Q204.2 1393.92 202.696 1395.69 Q201.21 1397.44 201.21 1400.46 Q201.21 1403.51 202.696 1405.26 Q204.2 1407.01 206.758 1407.01 Z" fill="#000000" fill-rule="evenodd" fill-opacity="1" /><path clip-path="url(#clip320)" d="M115.402 1226.35 L123.04 1226.35 L123.04 1199.99 L114.73 1201.66 L114.73 1197.4 L122.994 1195.73 L127.67 1195.73 L127.67 1226.35 L135.309 1226.35 L135.309 1230.29 L115.402 1230.29 L115.402 1226.35 Z" fill="#000000" fill-rule="evenodd" fill-opacity="1" /><path clip-path="url(#clip320)" d="M154.753 1198.81 Q151.142 1198.81 149.313 1202.37 Q147.508 1205.91 147.508 1213.04 Q147.508 1220.15 149.313 1223.72 Q151.142 1227.26 154.753 1227.26 Q158.388 1227.26 160.193 1223.72 Q162.022 1220.15 162.022 1213.04 Q162.022 1205.91 160.193 1202.37 Q158.388 1198.81 154.753 1198.81 M154.753 1195.1 Q160.563 1195.1 163.619 1199.71 Q166.698 1204.29 166.698 1213.04 Q166.698 1221.77 163.619 1226.38 Q160.563 1230.96 154.753 1230.96 Q148.943 1230.96 145.864 1226.38 Q142.809 1221.77 142.809 1213.04 Q142.809 1204.29 145.864 1199.71 Q148.943 1195.1 154.753 1195.1 Z" fill="#000000" fill-rule="evenodd" fill-opacity="1" /><path clip-path="url(#clip320)" d="M166.698 1189.21 L190.809 1189.21 L190.809 1192.4 L166.698 1192.4 L166.698 1189.21 Z" fill="#000000" fill-rule="evenodd" fill-opacity="1" /><path clip-path="url(#clip320)" d="M207.134 1189.54 Q204.426 1189.54 202.865 1190.99 Q201.323 1192.44 201.323 1194.98 Q201.323 1197.52 202.865 1198.97 Q204.426 1200.42 207.134 1200.42 Q209.843 1200.42 211.404 1198.97 Q212.965 1197.5 212.965 1194.98 Q212.965 1192.44 211.404 1190.99 Q209.861 1189.54 207.134 1189.54 M203.335 1187.93 Q200.89 1187.33 199.517 1185.65 Q198.163 1183.98 198.163 1181.57 Q198.163 1178.2 200.552 1176.25 Q202.959 1174.29 207.134 1174.29 Q211.329 1174.29 213.717 1176.25 Q216.106 1178.2 216.106 1181.57 Q216.106 1183.98 214.733 1185.65 Q213.379 1187.33 210.952 1187.93 Q213.698 1188.57 215.222 1190.43 Q216.764 1192.29 216.764 1194.98 Q216.764 1199.06 214.263 1201.24 Q211.78 1203.42 207.134 1203.42 Q202.489 1203.42 199.987 1201.24 Q197.505 1199.06 197.505 1194.98 Q197.505 1192.29 199.047 1190.43 Q200.589 1188.57 203.335 1187.93 M201.943 1181.93 Q201.943 1184.11 203.298 1185.33 Q204.671 1186.55 207.134 1186.55 Q209.579 1186.55 210.952 1185.33 Q212.344 1184.11 212.344 1181.93 Q212.344 1179.75 210.952 1178.52 Q209.579 1177.3 207.134 1177.3 Q204.671 1177.3 203.298 1178.52 Q201.943 1179.75 201.943 1181.93 Z" fill="#000000" fill-rule="evenodd" fill-opacity="1" /><path clip-path="url(#clip320)" d="M116.06 1009.74 L123.699 1009.74 L123.699 983.371 L115.389 985.037 L115.389 980.778 L123.652 979.112 L128.328 979.112 L128.328 1009.74 L135.967 1009.74 L135.967 1013.67 L116.06 1013.67 L116.06 1009.74 Z" fill="#000000" fill-rule="evenodd" fill-opacity="1" /><path clip-path="url(#clip320)" d="M155.412 982.19 Q151.8 982.19 149.972 985.755 Q148.166 989.297 148.166 996.426 Q148.166 1003.53 149.972 1007.1 Q151.8 1010.64 155.412 1010.64 Q159.046 1010.64 160.851 1007.1 Q162.68 1003.53 162.68 996.426 Q162.68 989.297 160.851 985.755 Q159.046 982.19 155.412 982.19 M155.412 978.487 Q161.222 978.487 164.277 983.093 Q167.356 987.676 167.356 996.426 Q167.356 1005.15 164.277 1009.76 Q161.222 1014.34 155.412 1014.34 Q149.601 1014.34 146.523 1009.76 Q143.467 1005.15 143.467 996.426 Q143.467 987.676 146.523 983.093 Q149.601 978.487 155.412 978.487 Z" fill="#000000" fill-rule="evenodd" fill-opacity="1" /><path clip-path="url(#clip320)" d="M167.356 972.588 L191.467 972.588 L191.467 975.785 L167.356 975.785 L167.356 972.588 Z" fill="#000000" fill-rule="evenodd" fill-opacity="1" /><path clip-path="url(#clip320)" d="M198.708 958.181 L216.764 958.181 L216.764 959.799 L206.57 986.261 L202.602 986.261 L212.194 961.378 L198.708 961.378 L198.708 958.181 Z" fill="#000000" fill-rule="evenodd" fill-opacity="1" /><path clip-path="url(#clip320)" d="M115.195 793.118 L122.834 793.118 L122.834 766.753 L114.523 768.419 L114.523 764.16 L122.787 762.494 L127.463 762.494 L127.463 793.118 L135.102 793.118 L135.102 797.054 L115.195 797.054 L115.195 793.118 Z" fill="#000000" fill-rule="evenodd" fill-opacity="1" /><path clip-path="url(#clip320)" d="M154.546 765.572 Q150.935 765.572 149.107 769.137 Q147.301 772.679 147.301 779.808 Q147.301 786.915 149.107 790.48 Q150.935 794.021 154.546 794.021 Q158.181 794.021 159.986 790.48 Q161.815 786.915 161.815 779.808 Q161.815 772.679 159.986 769.137 Q158.181 765.572 154.546 765.572 M154.546 761.869 Q160.357 761.869 163.412 766.475 Q166.491 771.058 166.491 779.808 Q166.491 788.535 163.412 793.142 Q160.357 797.725 154.546 797.725 Q148.736 797.725 145.658 793.142 Q142.602 788.535 142.602 779.808 Q142.602 771.058 145.658 766.475 Q148.736 761.869 154.546 761.869 Z" fill="#000000" fill-rule="evenodd" fill-opacity="1" /><path clip-path="url(#clip320)" d="M166.491 755.97 L190.602 755.97 L190.602 759.167 L166.491 759.167 L166.491 755.97 Z" fill="#000000" fill-rule="evenodd" fill-opacity="1" /><path clip-path="url(#clip320)" d="M207.398 754.089 Q204.84 754.089 203.335 755.838 Q201.849 757.587 201.849 760.634 Q201.849 763.662 203.335 765.43 Q204.84 767.179 207.398 767.179 Q209.956 767.179 211.441 765.43 Q212.946 763.662 212.946 760.634 Q212.946 757.587 211.441 755.838 Q209.956 754.089 207.398 754.089 M214.94 742.184 L214.94 745.644 Q213.51 744.967 212.043 744.61 Q210.595 744.253 209.166 744.253 Q205.404 744.253 203.41 746.792 Q201.436 749.331 201.153 754.465 Q202.263 752.829 203.937 751.964 Q205.611 751.08 207.623 751.08 Q211.855 751.08 214.3 753.657 Q216.764 756.214 216.764 760.634 Q216.764 764.96 214.206 767.574 Q211.648 770.189 207.398 770.189 Q202.526 770.189 199.95 766.465 Q197.373 762.722 197.373 755.631 Q197.373 748.973 200.533 745.024 Q203.693 741.055 209.015 741.055 Q210.445 741.055 211.893 741.337 Q213.36 741.62 214.94 742.184 Z" fill="#000000" fill-rule="evenodd" fill-opacity="1" /><path clip-path="url(#clip320)" d="M116.135 576.5 L123.774 576.5 L123.774 550.135 L115.464 551.802 L115.464 547.542 L123.728 545.876 L128.404 545.876 L128.404 576.5 L136.042 576.5 L136.042 580.436 L116.135 580.436 L116.135 576.5 Z" fill="#000000" fill-rule="evenodd" fill-opacity="1" /><path clip-path="url(#clip320)" d="M155.487 548.954 Q151.876 548.954 150.047 552.519 Q148.241 556.061 148.241 563.19 Q148.241 570.297 150.047 573.862 Q151.876 577.403 155.487 577.403 Q159.121 577.403 160.927 573.862 Q162.755 570.297 162.755 563.19 Q162.755 556.061 160.927 552.519 Q159.121 548.954 155.487 548.954 M155.487 545.251 Q161.297 545.251 164.352 549.857 Q167.431 554.44 167.431 563.19 Q167.431 571.917 164.352 576.524 Q161.297 581.107 155.487 581.107 Q149.677 581.107 146.598 576.524 Q143.542 571.917 143.542 563.19 Q143.542 554.44 146.598 549.857 Q149.677 545.251 155.487 545.251 Z" fill="#000000" fill-rule="evenodd" fill-opacity="1" /><path clip-path="url(#clip320)" d="M167.431 539.352 L191.543 539.352 L191.543 542.549 L167.431 542.549 L167.431 539.352 Z" fill="#000000" fill-rule="evenodd" fill-opacity="1" /><path clip-path="url(#clip320)" d="M199.781 524.945 L214.695 524.945 L214.695 528.143 L203.26 528.143 L203.26 535.026 Q204.088 534.744 204.915 534.612 Q205.743 534.462 206.57 534.462 Q211.272 534.462 214.018 537.039 Q216.764 539.615 216.764 544.016 Q216.764 548.549 213.943 551.069 Q211.122 553.571 205.987 553.571 Q204.219 553.571 202.376 553.27 Q200.552 552.969 198.596 552.367 L198.596 548.549 Q200.288 549.471 202.094 549.922 Q203.899 550.373 205.912 550.373 Q209.166 550.373 211.065 548.662 Q212.965 546.95 212.965 544.016 Q212.965 541.082 211.065 539.371 Q209.166 537.659 205.912 537.659 Q204.388 537.659 202.865 537.998 Q201.36 538.336 199.781 539.051 L199.781 524.945 Z" fill="#000000" fill-rule="evenodd" fill-opacity="1" /><path clip-path="url(#clip320)" d="M114.931 359.883 L122.57 359.883 L122.57 333.517 L114.26 335.184 L114.26 330.924 L122.524 329.258 L127.2 329.258 L127.2 359.883 L134.839 359.883 L134.839 363.818 L114.931 363.818 L114.931 359.883 Z" fill="#000000" fill-rule="evenodd" fill-opacity="1" /><path clip-path="url(#clip320)" d="M154.283 332.336 Q150.672 332.336 148.843 335.901 Q147.038 339.443 147.038 346.572 Q147.038 353.679 148.843 357.244 Q150.672 360.785 154.283 360.785 Q157.917 360.785 159.723 357.244 Q161.552 353.679 161.552 346.572 Q161.552 339.443 159.723 335.901 Q157.917 332.336 154.283 332.336 M154.283 328.633 Q160.093 328.633 163.149 333.239 Q166.227 337.822 166.227 346.572 Q166.227 355.299 163.149 359.906 Q160.093 364.489 154.283 364.489 Q148.473 364.489 145.394 359.906 Q142.339 355.299 142.339 346.572 Q142.339 337.822 145.394 333.239 Q148.473 328.633 154.283 328.633 Z" fill="#000000" fill-rule="evenodd" fill-opacity="1" /><path clip-path="url(#clip320)" d="M166.227 322.734 L190.339 322.734 L190.339 325.931 L166.227 325.931 L166.227 322.734 Z" fill="#000000" fill-rule="evenodd" fill-opacity="1" /><path clip-path="url(#clip320)" d="M208.978 311.637 L199.386 326.627 L208.978 326.627 L208.978 311.637 M207.981 308.327 L212.758 308.327 L212.758 326.627 L216.764 326.627 L216.764 329.787 L212.758 329.787 L212.758 336.407 L208.978 336.407 L208.978 329.787 L196.301 329.787 L196.301 326.119 L207.981 308.327 Z" fill="#000000" fill-rule="evenodd" fill-opacity="1" /><path clip-path="url(#clip320)" d="M115.853 143.265 L123.492 143.265 L123.492 116.899 L115.182 118.566 L115.182 114.306 L123.446 112.64 L128.121 112.64 L128.121 143.265 L135.76 143.265 L135.76 147.2 L115.853 147.2 L115.853 143.265 Z" fill="#000000" fill-rule="evenodd" fill-opacity="1" /><path clip-path="url(#clip320)" d="M155.205 115.718 Q151.594 115.718 149.765 119.283 Q147.959 122.825 147.959 129.954 Q147.959 137.061 149.765 140.626 Q151.594 144.167 155.205 144.167 Q158.839 144.167 160.644 140.626 Q162.473 137.061 162.473 129.954 Q162.473 122.825 160.644 119.283 Q158.839 115.718 155.205 115.718 M155.205 112.015 Q161.015 112.015 164.07 116.621 Q167.149 121.204 167.149 129.954 Q167.149 138.681 164.07 143.288 Q161.015 147.871 155.205 147.871 Q149.395 147.871 146.316 143.288 Q143.26 138.681 143.26 129.954 Q143.26 121.204 146.316 116.621 Q149.395 112.015 155.205 112.015 Z" fill="#000000" fill-rule="evenodd" fill-opacity="1" /><path clip-path="url(#clip320)" d="M167.149 106.116 L191.261 106.116 L191.261 109.313 L167.149 109.313 L167.149 106.116 Z" fill="#000000" fill-rule="evenodd" fill-opacity="1" /><path clip-path="url(#clip320)" d="M210.971 104.649 Q213.698 105.232 215.222 107.075 Q216.764 108.918 216.764 111.627 Q216.764 115.783 213.905 118.059 Q211.046 120.335 205.78 120.335 Q204.012 120.335 202.132 119.977 Q200.27 119.639 198.276 118.943 L198.276 115.275 Q199.856 116.197 201.737 116.667 Q203.617 117.137 205.667 117.137 Q209.241 117.137 211.103 115.727 Q212.984 114.316 212.984 111.627 Q212.984 109.144 211.234 107.752 Q209.504 106.342 206.401 106.342 L203.128 106.342 L203.128 103.22 L206.551 103.22 Q209.354 103.22 210.84 102.11 Q212.325 100.982 212.325 98.8751 Q212.325 96.7122 210.783 95.5649 Q209.26 94.3988 206.401 94.3988 Q204.84 94.3988 203.053 94.7374 Q201.266 95.0759 199.122 95.7906 L199.122 92.4052 Q201.285 91.8034 203.166 91.5024 Q205.066 91.2015 206.739 91.2015 Q211.065 91.2015 213.585 93.1763 Q216.106 95.1323 216.106 98.4801 Q216.106 100.812 214.77 102.43 Q213.435 104.028 210.971 104.649 Z" fill="#000000" fill-rule="evenodd" fill-opacity="1" /><path clip-path="url(#clip320)" d="M23.6641 1161.86 L29.9344 1161.86 Q28.1838 1165.52 27.3244 1168.76 Q26.4651 1172.01 26.4651 1175.03 Q26.4651 1180.28 28.5021 1183.15 Q30.5391 1185.98 34.2949 1185.98 Q37.4459 1185.98 39.0692 1184.1 Q40.6606 1182.19 41.6473 1176.91 L42.443 1173.03 Q43.8116 1165.83 47.2809 1162.43 Q50.7184 1158.99 56.5112 1158.99 Q63.418 1158.99 66.9828 1163.64 Q70.5476 1168.25 70.5476 1177.2 Q70.5476 1180.57 69.7837 1184.39 Q69.0198 1188.18 67.5239 1192.25 L60.9035 1192.25 Q63.0997 1188.34 64.2137 1184.58 Q65.3277 1180.83 65.3277 1177.2 Q65.3277 1171.69 63.1634 1168.7 Q60.999 1165.71 56.9886 1165.71 Q53.4875 1165.71 51.5141 1167.87 Q49.5407 1170 48.5541 1174.91 L47.7902 1178.82 Q46.3579 1186.01 43.3024 1189.23 Q40.2468 1192.44 34.8041 1192.44 Q28.5021 1192.44 24.8736 1188.02 Q21.2452 1183.56 21.2452 1175.76 Q21.2452 1172.42 21.8499 1168.95 Q22.4547 1165.48 23.6641 1161.86 Z" fill="#000000" fill-rule="evenodd" fill-opacity="1" /><path clip-path="url(#clip320)" d="M64.2774 1143.55 L83.1835 1143.55 L83.1835 1149.44 L33.9766 1149.44 L33.9766 1143.55 L39.3874 1143.55 Q36.2046 1141.71 34.6768 1138.91 Q33.1172 1136.07 33.1172 1132.16 Q33.1172 1125.67 38.2734 1121.62 Q43.4297 1117.55 51.8324 1117.55 Q60.2351 1117.55 65.3914 1121.62 Q70.5476 1125.67 70.5476 1132.16 Q70.5476 1136.07 69.0198 1138.91 Q67.4602 1141.71 64.2774 1143.55 M51.8324 1123.63 Q45.3712 1123.63 41.7109 1126.3 Q38.0188 1128.94 38.0188 1133.59 Q38.0188 1138.24 41.7109 1140.91 Q45.3712 1143.55 51.8324 1143.55 Q58.2936 1143.55 61.9857 1140.91 Q65.646 1138.24 65.646 1133.59 Q65.646 1128.94 61.9857 1126.3 Q58.2936 1123.63 51.8324 1123.63 Z" fill="#000000" fill-rule="evenodd" fill-opacity="1" /><path clip-path="url(#clip320)" d="M51.7051 1091.64 Q51.7051 1098.74 53.3283 1101.48 Q54.9516 1104.21 58.8665 1104.21 Q61.9857 1104.21 63.8318 1102.18 Q65.646 1100.11 65.646 1096.58 Q65.646 1091.71 62.2085 1088.78 Q58.7392 1085.82 53.0101 1085.82 L51.7051 1085.82 L51.7051 1091.64 M49.2861 1079.96 L69.6245 1079.96 L69.6245 1085.82 L64.2137 1085.82 Q67.4602 1087.82 69.0198 1090.81 Q70.5476 1093.81 70.5476 1098.13 Q70.5476 1103.61 67.492 1106.86 Q64.4047 1110.07 59.2484 1110.07 Q53.2329 1110.07 50.1773 1106.06 Q47.1218 1102.02 47.1218 1094.03 L47.1218 1085.82 L46.5489 1085.82 Q42.5066 1085.82 40.3105 1088.49 Q38.0825 1091.13 38.0825 1095.94 Q38.0825 1098.99 38.8145 1101.89 Q39.5466 1104.79 41.0107 1107.46 L35.5998 1107.46 Q34.3585 1104.25 33.7538 1101.22 Q33.1172 1098.2 33.1172 1095.33 Q33.1172 1087.6 37.1276 1083.78 Q41.138 1079.96 49.2861 1079.96 Z" fill="#000000" fill-rule="evenodd" fill-opacity="1" /><path clip-path="url(#clip320)" d="M23.8551 1062.1 L33.9766 1062.1 L33.9766 1050.04 L38.5281 1050.04 L38.5281 1062.1 L57.8798 1062.1 Q62.2403 1062.1 63.4816 1060.93 Q64.723 1059.72 64.723 1056.06 L64.723 1050.04 L69.6245 1050.04 L69.6245 1056.06 Q69.6245 1062.84 67.1101 1065.41 Q64.5638 1067.99 57.8798 1067.99 L38.5281 1067.99 L38.5281 1072.29 L33.9766 1072.29 L33.9766 1067.99 L23.8551 1067.99 L23.8551 1062.1 Z" fill="#000000" fill-rule="evenodd" fill-opacity="1" /><path clip-path="url(#clip320)" d="M33.9766 1042.34 L33.9766 1036.48 L69.6245 1036.48 L69.6245 1042.34 L33.9766 1042.34 M20.0994 1042.34 L20.0994 1036.48 L27.5154 1036.48 L27.5154 1042.34 L20.0994 1042.34 Z" fill="#000000" fill-rule="evenodd" fill-opacity="1" /><path clip-path="url(#clip320)" d="M51.7051 1008.03 Q51.7051 1015.13 53.3283 1017.86 Q54.9516 1020.6 58.8665 1020.6 Q61.9857 1020.6 63.8318 1018.56 Q65.646 1016.49 65.646 1012.96 Q65.646 1008.09 62.2085 1005.16 Q58.7392 1002.2 53.0101 1002.2 L51.7051 1002.2 L51.7051 1008.03 M49.2861 996.347 L69.6245 996.347 L69.6245 1002.2 L64.2137 1002.2 Q67.4602 1004.21 69.0198 1007.2 Q70.5476 1010.19 70.5476 1014.52 Q70.5476 1020 67.492 1023.24 Q64.4047 1026.46 59.2484 1026.46 Q53.2329 1026.46 50.1773 1022.45 Q47.1218 1018.4 47.1218 1010.42 L47.1218 1002.2 L46.5489 1002.2 Q42.5066 1002.2 40.3105 1004.88 Q38.0825 1007.52 38.0825 1012.32 Q38.0825 1015.38 38.8145 1018.28 Q39.5466 1021.17 41.0107 1023.85 L35.5998 1023.85 Q34.3585 1020.63 33.7538 1017.61 Q33.1172 1014.58 33.1172 1011.72 Q33.1172 1003.99 37.1276 1000.17 Q41.138 996.347 49.2861 996.347 Z" fill="#000000" fill-rule="evenodd" fill-opacity="1" /><path clip-path="url(#clip320)" d="M20.0994 984.284 L20.0994 978.428 L69.6245 978.428 L69.6245 984.284 L20.0994 984.284 Z" fill="#000000" fill-rule="evenodd" fill-opacity="1" /><path clip-path="url(#clip320)" d="M27.3881 938.769 L64.341 938.769 L64.341 931.003 Q64.341 921.168 59.885 916.617 Q55.429 912.033 45.8168 912.033 Q36.2682 912.033 31.8441 916.617 Q27.3881 921.168 27.3881 931.003 L27.3881 938.769 M22.1045 945.199 L22.1045 931.99 Q22.1045 918.176 27.8655 911.715 Q33.5946 905.254 45.8168 905.254 Q58.1026 905.254 63.8636 911.747 Q69.6245 918.24 69.6245 931.99 L69.6245 945.199 L22.1045 945.199 Z" fill="#000000" fill-rule="evenodd" fill-opacity="1" /><path clip-path="url(#clip320)" d="M50.3365 864.768 L53.201 864.768 L53.201 891.695 Q59.2484 891.313 62.4313 888.066 Q65.5823 884.788 65.5823 878.963 Q65.5823 875.59 64.7548 872.439 Q63.9272 869.256 62.2722 866.137 L67.8103 866.137 Q69.1471 869.288 69.8473 872.598 Q70.5476 875.908 70.5476 879.314 Q70.5476 887.844 65.5823 892.841 Q60.6171 897.806 52.1507 897.806 Q43.3978 897.806 38.2734 893.095 Q33.1172 888.353 33.1172 880.332 Q33.1172 873.139 37.7642 868.969 Q42.3793 864.768 50.3365 864.768 M48.6177 870.624 Q43.8116 870.688 40.947 873.33 Q38.0825 875.94 38.0825 880.268 Q38.0825 885.17 40.8516 888.13 Q43.6206 891.058 48.6495 891.504 L48.6177 870.624 Z" fill="#000000" fill-rule="evenodd" fill-opacity="1" /><path clip-path="url(#clip320)" d="M48.1085 825.523 L69.6245 825.523 L69.6245 831.38 L48.2994 831.38 Q43.2387 831.38 40.7242 833.353 Q38.2098 835.326 38.2098 839.273 Q38.2098 844.016 41.2335 846.753 Q44.2572 849.49 49.4771 849.49 L69.6245 849.49 L69.6245 855.378 L33.9766 855.378 L33.9766 849.49 L39.5148 849.49 Q36.3001 847.39 34.7086 844.557 Q33.1172 841.692 33.1172 837.968 Q33.1172 831.825 36.9366 828.674 Q40.7242 825.523 48.1085 825.523 Z" fill="#000000" fill-rule="evenodd" fill-opacity="1" /><path clip-path="url(#clip320)" d="M35.0269 791.117 L40.5651 791.117 Q39.292 793.599 38.6554 796.273 Q38.0188 798.946 38.0188 801.811 Q38.0188 806.172 39.3556 808.368 Q40.6924 810.532 43.366 810.532 Q45.403 810.532 46.5807 808.972 Q47.7265 807.413 48.7769 802.702 L49.2225 800.697 Q50.5593 794.459 53.0101 791.849 Q55.429 789.207 59.7895 789.207 Q64.7548 789.207 67.6512 793.154 Q70.5476 797.069 70.5476 803.944 Q70.5476 806.808 69.9747 809.927 Q69.4336 813.015 68.3196 816.452 L62.2722 816.452 Q63.9591 813.206 64.8184 810.055 Q65.646 806.904 65.646 803.816 Q65.646 799.679 64.2455 797.451 Q62.8132 795.223 60.2351 795.223 Q57.848 795.223 56.5748 796.846 Q55.3017 798.437 54.1241 803.88 L53.6466 805.917 Q52.5008 811.36 50.1455 813.779 Q47.7583 816.198 43.6206 816.198 Q38.5917 816.198 35.8545 812.633 Q33.1172 809.068 33.1172 802.511 Q33.1172 799.265 33.5946 796.4 Q34.0721 793.536 35.0269 791.117 Z" fill="#000000" fill-rule="evenodd" fill-opacity="1" /><path clip-path="url(#clip320)" d="M33.9766 779.881 L33.9766 774.025 L69.6245 774.025 L69.6245 779.881 L33.9766 779.881 M20.0994 779.881 L20.0994 774.025 L27.5154 774.025 L27.5154 779.881 L20.0994 779.881 Z" fill="#000000" fill-rule="evenodd" fill-opacity="1" /><path clip-path="url(#clip320)" d="M23.8551 755.978 L33.9766 755.978 L33.9766 743.915 L38.5281 743.915 L38.5281 755.978 L57.8798 755.978 Q62.2403 755.978 63.4816 754.8 Q64.723 753.591 64.723 749.931 L64.723 743.915 L69.6245 743.915 L69.6245 749.931 Q69.6245 756.71 67.1101 759.288 Q64.5638 761.866 57.8798 761.866 L38.5281 761.866 L38.5281 766.163 L33.9766 766.163 L33.9766 761.866 L23.8551 761.866 L23.8551 755.978 Z" fill="#000000" fill-rule="evenodd" fill-opacity="1" /><path clip-path="url(#clip320)" d="M72.9347 721.38 Q79.3004 723.863 81.242 726.218 Q83.1835 728.574 83.1835 732.52 L83.1835 737.199 L78.2819 737.199 L78.2819 733.762 Q78.2819 731.343 77.1361 730.006 Q75.9903 728.669 71.7252 727.046 L69.0516 725.995 L33.9766 740.414 L33.9766 734.207 L61.8584 723.067 L33.9766 711.927 L33.9766 705.721 L72.9347 721.38 Z" fill="#000000" fill-rule="evenodd" fill-opacity="1" /><path clip-path="url(#clip320)" d="M20.163 662.848 Q27.4836 667.113 34.645 669.182 Q41.8064 671.25 49.1588 671.25 Q56.5112 671.25 63.7363 669.182 Q70.9295 667.081 78.2183 662.848 L78.2183 667.94 Q70.7385 672.715 63.5135 675.102 Q56.2884 677.457 49.1588 677.457 Q42.061 677.457 34.8678 675.102 Q27.6745 672.746 20.163 667.94 L20.163 662.848 Z" fill="#000000" fill-rule="evenodd" fill-opacity="1" /><path clip-path="url(#clip320)" d="M25.3093 607.325 Q26.6297 607.325 26.6297 608.452 Q26.7585 612.091 27.9824 613.573 Q29.174 615.022 31.4928 615.569 L68.2397 624.78 Q69.3991 625.102 69.5279 625.296 Q69.6245 625.489 69.6245 625.843 Q69.6245 626.294 69.3991 626.552 Q69.1737 626.777 68.3685 627.099 L29.5283 643.524 Q29.2706 643.653 28.9163 643.814 Q28.5621 643.975 28.3366 644.104 L63.1512 652.832 Q64.1496 653.089 64.6648 653.089 Q65.9209 653.089 66.726 652.22 Q67.499 651.318 67.5956 648.742 Q67.5956 647.421 68.3041 647.421 Q69.6245 647.421 69.6245 648.613 Q69.6245 649.708 69.5279 651.994 Q69.4313 654.281 69.4313 655.408 Q69.4313 656.503 69.5279 658.725 Q69.6245 660.948 69.6245 662.01 Q69.6245 662.848 68.8838 662.848 Q68.3041 662.848 68.0143 662.622 Q67.6922 662.397 67.66 662.204 Q67.5956 662.01 67.5956 661.72 Q67.5312 659.788 67.1447 658.468 Q66.7582 657.147 66.0175 656.407 Q65.2768 655.634 64.536 655.279 Q63.7631 654.893 62.6359 654.603 L27.2094 645.779 Q26.6297 645.779 26.6297 650.255 Q26.6297 651.028 26.5975 651.35 Q26.5653 651.64 26.4043 651.865 Q26.2433 652.091 25.889 652.091 Q24.9872 652.091 24.794 651.704 Q24.5685 651.318 24.5685 650.191 L24.5685 641.334 Q24.5685 640.207 24.7618 639.917 Q24.9228 639.627 25.8246 639.241 L60.2526 624.652 L30.9131 617.276 Q30.3334 617.083 29.5283 617.083 Q28.24 617.083 27.4671 618.049 Q26.6619 618.983 26.6297 621.56 Q26.6297 622.751 25.889 622.751 Q25.2771 622.751 24.9872 622.526 Q24.6652 622.268 24.633 622.075 Q24.5685 621.85 24.5685 621.56 Q24.5685 620.465 24.6652 618.21 Q24.7618 615.956 24.7618 614.829 Q24.7618 613.734 24.6652 611.512 Q24.5685 609.257 24.5685 608.162 Q24.5685 607.776 24.7618 607.582 Q24.9228 607.357 25.116 607.325 L25.3093 607.325 Z" fill="#000000" fill-rule="evenodd" fill-opacity="1" /><path clip-path="url(#clip320)" d="M51.6215 575.534 Q55.1319 575.534 58.6101 577.08 Q62.0562 578.626 64.6326 581.106 Q67.1769 583.553 68.7872 586.774 Q70.3653 589.994 70.3653 593.215 Q70.3653 597.82 67.2413 600.816 Q64.0851 603.779 59.1898 603.779 Q54.6166 603.779 50.2688 601.234 Q45.8888 598.658 43.1835 594.535 Q40.4782 590.413 40.4782 586.098 Q40.4782 581.556 43.5378 578.561 Q46.5974 575.534 51.6215 575.534 M49.045 580.365 Q45.921 580.365 43.9243 581.879 Q41.9275 583.392 41.9275 586.162 Q41.9275 586.967 42.1852 587.901 Q42.4106 588.835 43.0225 590.059 Q43.6344 591.25 44.9227 592.603 Q46.1787 593.924 47.9822 595.083 Q50.3654 596.597 54.7454 597.756 Q59.0932 598.883 61.7019 598.883 Q65.309 598.883 67.1125 597.209 Q68.8838 595.534 68.8838 593.151 Q68.8838 590.832 67.2735 588.384 Q65.631 585.904 62.8291 584.197 Q59.9306 582.49 55.6794 581.428 Q51.396 580.365 49.045 580.365 Z" fill="#000000" fill-rule="evenodd" fill-opacity="1" /><path clip-path="url(#clip320)" d="M68.5618 571.105 Q67.499 572.103 66.1141 572.103 Q64.7293 572.103 63.7309 571.105 Q62.7003 570.107 62.7003 568.593 Q62.7003 567.144 63.6665 566.177 Q64.6004 565.179 66.1463 565.179 Q67.66 565.179 68.6584 566.242 Q69.6245 567.272 69.6245 568.593 Q69.6245 570.107 68.5618 571.105 Z" fill="#000000" fill-rule="evenodd" fill-opacity="1" /><path clip-path="url(#clip320)" d="M85.18 543.494 Q84.8579 543.494 84.1494 543.237 L21.9277 519.952 Q21.8633 519.952 21.509 519.791 Q21.1547 519.63 20.9293 519.533 Q20.6716 519.437 20.4784 519.243 Q20.2852 519.018 20.2852 518.76 Q20.2852 518.116 21.0903 518.116 Q21.1547 518.116 21.9277 518.309 L84.2138 541.659 Q85.341 542.045 85.6631 542.303 Q85.9851 542.528 85.9851 542.915 Q85.9851 543.494 85.18 543.494 Z" fill="#000000" fill-rule="evenodd" fill-opacity="1" /><path clip-path="url(#clip320)" d="M25.3093 454.696 Q25.728 454.696 26.0178 454.792 Q26.2755 454.889 26.4043 455.114 Q26.5331 455.34 26.5653 455.469 Q26.5975 455.597 26.6297 455.887 Q26.7585 457.272 26.984 458.238 Q27.2094 459.172 28.3688 461.491 Q29.5283 463.778 31.6216 466.644 L40.5427 478.174 L42.0563 480.106 Q42.1529 480.106 42.3462 480.042 Q42.5072 479.977 42.7327 479.913 Q42.9259 479.816 42.9903 479.784 L64.6004 470.412 Q66.3396 469.671 66.9515 468.77 Q67.5634 467.868 67.5956 465.839 Q67.5956 465.517 67.6278 465.388 Q67.6278 465.227 67.6922 465.001 Q67.7244 464.744 67.8854 464.647 Q68.0465 464.518 68.3041 464.518 Q69.6245 464.518 69.6245 465.71 Q69.6245 466.451 69.5279 468.963 Q69.4313 471.475 69.4313 472.183 Q69.4313 473.504 69.5279 476.209 Q69.6245 478.914 69.6245 480.235 Q69.6245 481.169 68.8838 481.169 Q68.2719 481.169 67.982 480.943 Q67.66 480.686 67.6278 480.46 Q67.5956 480.235 67.5956 479.72 Q67.5956 479.333 67.5634 478.914 Q67.499 478.464 67.3379 477.819 Q67.1447 477.143 66.6938 476.724 Q66.2107 476.274 65.5344 476.274 Q64.9869 476.274 63.2156 477.079 L45.4702 484.711 L53.1351 494.534 L63.5054 497.175 Q63.8919 497.24 64.5682 497.401 Q65.2446 497.562 65.7276 497.69 Q66.2107 497.787 66.404 497.787 Q66.8226 497.787 67.0803 497.529 Q67.3379 497.24 67.4668 496.531 Q67.5634 495.822 67.5956 495.275 Q67.5956 494.695 67.5956 493.504 Q67.5956 492.022 67.8532 491.765 Q68.0143 491.636 68.3041 491.636 Q68.755 491.636 69.077 491.765 Q69.3669 491.893 69.4635 492.151 Q69.5601 492.376 69.5923 492.537 Q69.6245 492.699 69.6245 492.956 Q69.6245 493.632 69.5601 495.082 Q69.4957 496.499 69.4957 497.24 L69.4313 501.458 L69.6245 509.832 Q69.6245 510.83 68.8194 510.83 Q68.2075 510.83 67.9498 510.573 Q67.66 510.315 67.6278 510.025 Q67.5956 509.735 67.5956 508.995 Q67.5956 507.384 67.499 506.418 Q67.4023 505.452 67.2735 504.84 Q67.1125 504.196 66.6616 503.874 Q66.2107 503.52 65.8243 503.359 Q65.4056 503.198 64.4716 502.972 L29.0452 494.148 Q27.9824 493.89 27.8213 493.89 Q27.2738 493.89 27.0806 494.212 Q26.8552 494.502 26.7585 495.339 Q26.6297 496.95 26.6297 498.174 Q26.6297 498.979 26.5975 499.301 Q26.5653 499.591 26.4043 499.848 Q26.211 500.074 25.8246 500.074 Q24.5685 500.074 24.5685 498.753 L24.7618 490.251 L24.5685 481.813 Q24.5685 480.879 25.3093 480.879 Q26.2433 480.879 26.4365 481.33 Q26.6297 481.749 26.6297 483.133 Q26.6297 485.549 26.9518 486.644 Q27.2416 487.707 27.7569 488.029 Q28.24 488.319 29.6571 488.673 L50.8163 493.955 L31.0419 468.222 Q29.0452 465.839 28.0146 465.839 Q27.3383 465.839 27.0484 466.322 Q26.7263 466.773 26.6297 467.9 Q26.5009 468.705 25.889 468.705 Q25.2771 468.705 24.9872 468.48 Q24.6652 468.222 24.633 468.029 Q24.5685 467.803 24.5685 467.449 Q24.5685 466.257 24.6652 463.778 Q24.7618 461.298 24.7618 460.106 Q24.7618 459.301 24.6652 457.723 Q24.5685 456.145 24.5685 455.436 Q24.5685 455.082 24.8262 454.889 Q25.0516 454.696 25.3093 454.696 Z" fill="#000000" fill-rule="evenodd" fill-opacity="1" /><path clip-path="url(#clip320)" d="M60.1882 401.349 Q60.4459 401.349 61.4443 401.639 Q62.4426 401.929 63.9885 402.638 Q65.5344 403.314 66.9515 404.28 Q68.3363 405.214 69.3669 406.76 Q70.3653 408.274 70.3653 410.013 Q70.3653 412.332 68.8194 413.877 Q67.2735 415.423 64.9547 415.423 Q63.6987 415.423 61.3154 414.554 Q50.4299 410.464 46.5329 410.464 Q41.9275 410.464 41.9275 414.038 Q41.9275 416.067 42.7649 417.903 Q43.6022 419.739 44.7616 420.931 Q45.921 422.122 47.2415 423.056 Q48.5619 423.99 49.4315 424.409 Q50.301 424.795 50.6875 424.892 L66.5972 428.853 Q67.9498 429.175 68.594 429.401 Q69.2381 429.626 69.7856 430.238 Q70.3653 430.85 70.3653 431.816 Q70.3653 432.621 69.8822 433.201 Q69.3991 433.748 68.5618 433.748 Q68.4329 433.748 67.7566 433.587 Q67.0803 433.426 66.1463 433.201 Q65.2123 432.976 64.6648 432.879 Q60.2848 431.72 59.6729 431.558 L52.0079 429.723 Q48.2077 428.724 46.5329 428.724 Q41.9275 428.724 41.9275 432.299 Q41.9275 434.071 42.6038 435.745 Q43.2479 437.388 44.1497 438.515 Q45.0515 439.642 46.3075 440.673 Q47.5313 441.671 48.3687 442.186 Q49.1738 442.669 49.979 443.056 L53.264 443.893 Q54.1657 444.087 57.6762 445.021 L63.6343 446.47 Q68.0787 447.5 68.4973 447.726 Q69.3991 448.048 69.8822 448.756 Q70.3653 449.465 70.3653 450.173 Q70.3653 450.979 69.8822 451.526 Q69.3991 452.074 68.5618 452.074 Q68.4329 452.074 67.9498 451.977 Q67.4668 451.88 66.7904 451.719 Q66.1141 451.558 65.7276 451.494 L50.4943 447.661 Q47.7246 446.953 46.855 446.792 Q45.9532 446.599 44.9549 446.599 Q41.9275 446.599 41.9275 448.66 Q41.9275 450.334 43.9243 451.429 Q45.921 452.524 49.7857 453.458 Q50.8485 453.748 51.074 453.942 Q51.2994 454.103 51.2994 454.586 Q51.2672 455.391 50.6231 455.391 Q50.4621 455.391 49.4315 455.133 Q48.4009 454.876 46.855 454.392 Q45.2769 453.877 44.2463 453.33 Q43.57 453.008 43.1191 452.718 Q42.6682 452.428 41.9597 451.848 Q41.2512 451.268 40.8647 450.399 Q40.4782 449.529 40.4782 448.467 Q40.4782 446.116 41.9919 444.376 Q43.5056 442.605 46.2109 442.38 Q40.4782 438.096 40.4782 432.106 Q40.4782 428.724 42.1852 426.695 Q43.8277 424.795 46.855 424.57 Q40.4782 420.125 40.4782 413.813 Q40.4782 410.174 42.3784 408.209 Q44.2463 406.245 47.5313 406.245 Q49.2382 406.245 52.491 407.114 Q55.7116 407.984 57.3219 408.563 Q58.9322 409.143 62.024 410.27 Q64.9869 411.462 66.726 411.462 Q67.8532 411.462 68.3685 411.076 Q68.8838 410.689 68.8838 409.852 Q68.8838 408.563 68.1431 407.436 Q67.3701 406.309 66.1141 405.504 Q64.8259 404.667 63.5376 404.119 Q62.2172 403.572 60.7357 403.153 Q59.9306 402.895 59.7373 402.766 Q59.5441 402.605 59.5441 402.155 Q59.5441 401.349 60.1882 401.349 Z" fill="#000000" fill-rule="evenodd" fill-opacity="1" /><path clip-path="url(#clip320)" d="M42.6594 394.835 Q41.2842 394.835 40.6304 394.046 Q39.9767 393.257 39.9767 392.243 Q39.9767 391.183 40.6755 390.439 Q41.3518 389.673 42.5467 389.673 Q43.8317 389.673 44.5531 390.574 Q45.2745 391.454 45.0942 392.716 Q46.9428 391.611 47.7769 389.582 Q48.6111 387.531 48.6111 385.637 Q48.6111 383.653 46.8977 382.053 Q45.1843 380.43 40.9911 380.43 Q37.4292 380.43 35.3777 381.827 Q33.3261 383.202 33.3261 385.93 L33.3261 387.959 Q33.3261 388.658 33.2585 388.861 Q33.1909 389.064 32.8076 389.064 Q32.3568 389.064 32.2666 388.365 Q32.2666 387.666 32.1313 386.562 Q32.0411 383.879 29.7191 382.458 Q27.5549 381.173 24.4663 381.173 Q21.6483 381.173 20.476 382.526 Q19.2812 383.856 19.2812 385.592 Q19.2812 387.215 19.9575 388.996 Q20.6338 390.777 22.1443 391.747 Q22.1443 388.884 24.4663 388.884 Q25.4808 388.884 26.1571 389.537 Q26.8109 390.169 26.8109 391.228 Q26.8109 392.243 26.1797 392.919 Q25.5259 393.595 24.4212 393.595 Q21.7836 393.595 19.9575 391.251 Q18.1314 388.884 18.1314 385.412 Q18.1314 381.985 19.935 379.46 Q21.7385 376.913 24.5114 376.913 Q27.2392 376.913 29.4711 378.716 Q31.703 380.52 32.6273 383.383 Q33.3261 379.866 35.7158 377.769 Q38.083 375.673 40.9911 375.673 Q44.5982 375.673 47.2584 378.513 Q49.8961 381.354 49.8961 385.502 Q49.8961 389.334 47.822 392.085 Q45.7479 394.835 42.6594 394.835 Z" fill="#000000" fill-rule="evenodd" fill-opacity="1" /><path clip-path="url(#clip320)" d="M20.163 368.819 L20.163 363.726 Q27.6745 358.952 34.8678 356.596 Q42.061 354.209 49.1588 354.209 Q56.2884 354.209 63.5135 356.596 Q70.7385 358.952 78.2183 363.726 L78.2183 368.819 Q70.9295 364.585 63.7363 362.517 Q56.5112 360.416 49.1588 360.416 Q41.8064 360.416 34.645 362.517 Q27.4836 364.585 20.163 368.819 Z" fill="#000000" fill-rule="evenodd" fill-opacity="1" /><path clip-path="url(#clip320)" d="M593.244 14.0809 L593.244 22.0612 Q588.586 19.8332 584.454 18.7395 Q580.322 17.6457 576.473 17.6457 Q569.789 17.6457 566.144 20.2383 Q562.538 22.8309 562.538 27.611 Q562.538 31.6214 564.928 33.6873 Q567.359 35.7128 574.083 36.9686 L579.025 37.9813 Q588.18 39.7232 592.515 44.1387 Q596.89 48.5136 596.89 55.8863 Q596.89 64.6767 590.976 69.2137 Q585.102 73.7508 573.719 73.7508 Q569.425 73.7508 564.564 72.7785 Q559.743 71.8063 554.558 69.9024 L554.558 61.4765 Q559.541 64.2716 564.321 65.6895 Q569.101 67.1073 573.719 67.1073 Q580.727 67.1073 584.535 64.3527 Q588.342 61.598 588.342 56.4939 Q588.342 52.0379 585.588 49.5264 Q582.874 47.0148 576.635 45.759 L571.653 44.7868 Q562.498 42.9639 558.406 39.075 Q554.315 35.1862 554.315 28.2591 Q554.315 20.2383 559.946 15.6203 Q565.617 11.0023 575.542 11.0023 Q579.795 11.0023 584.211 11.7719 Q588.626 12.5416 593.244 14.0809 Z" fill="#000000" fill-rule="evenodd" fill-opacity="1" /><path clip-path="url(#clip320)" d="M616.537 65.7705 L616.537 89.8329 L609.043 89.8329 L609.043 27.2059 L616.537 27.2059 L616.537 34.0924 Q618.886 30.0415 622.451 28.0971 Q626.056 26.1121 631.039 26.1121 Q639.303 26.1121 644.447 32.6746 Q649.633 39.2371 649.633 49.9314 Q649.633 60.6258 644.447 67.1883 Q639.303 73.7508 631.039 73.7508 Q626.056 73.7508 622.451 71.8063 Q618.886 69.8214 616.537 65.7705 M641.895 49.9314 Q641.895 41.7081 638.493 37.0496 Q635.13 32.3505 629.216 32.3505 Q623.302 32.3505 619.899 37.0496 Q616.537 41.7081 616.537 49.9314 Q616.537 58.1548 619.899 62.8538 Q623.302 67.5124 629.216 67.5124 Q635.13 67.5124 638.493 62.8538 Q641.895 58.1548 641.895 49.9314 Z" fill="#000000" fill-rule="evenodd" fill-opacity="1" /><path clip-path="url(#clip320)" d="M682.607 49.7694 Q673.573 49.7694 670.09 51.8354 Q666.606 53.9013 666.606 58.8839 Q666.606 62.8538 669.199 65.2034 Q671.832 67.5124 676.328 67.5124 Q682.526 67.5124 686.253 63.1374 Q690.02 58.7219 690.02 51.4303 L690.02 49.7694 L682.607 49.7694 M697.474 46.6907 L697.474 72.576 L690.02 72.576 L690.02 65.6895 Q687.468 69.8214 683.66 71.8063 Q679.852 73.7508 674.343 73.7508 Q667.376 73.7508 663.244 69.8619 Q659.152 65.9325 659.152 59.3701 Q659.152 51.7138 664.256 47.825 Q669.401 43.9361 679.569 43.9361 L690.02 43.9361 L690.02 43.2069 Q690.02 38.0623 686.617 35.2672 Q683.255 32.4315 677.138 32.4315 Q673.249 32.4315 669.563 33.3632 Q665.877 34.295 662.474 36.1584 L662.474 29.2718 Q666.565 27.692 670.414 26.9223 Q674.262 26.1121 677.908 26.1121 Q687.752 26.1121 692.613 31.2163 Q697.474 36.3204 697.474 46.6907 Z" fill="#000000" fill-rule="evenodd" fill-opacity="1" /><path clip-path="url(#clip320)" d="M720.199 14.324 L720.199 27.2059 L735.552 27.2059 L735.552 32.9987 L720.199 32.9987 L720.199 57.6282 Q720.199 63.1779 721.698 64.7578 Q723.238 66.3376 727.896 66.3376 L735.552 66.3376 L735.552 72.576 L727.896 72.576 Q719.268 72.576 715.986 69.3758 Q712.705 66.1351 712.705 57.6282 L712.705 32.9987 L707.236 32.9987 L707.236 27.2059 L712.705 27.2059 L712.705 14.324 L720.199 14.324 Z" fill="#000000" fill-rule="evenodd" fill-opacity="1" /><path clip-path="url(#clip320)" d="M745.356 27.2059 L752.809 27.2059 L752.809 72.576 L745.356 72.576 L745.356 27.2059 M745.356 9.54393 L752.809 9.54393 L752.809 18.9825 L745.356 18.9825 L745.356 9.54393 Z" fill="#000000" fill-rule="evenodd" fill-opacity="1" /><path clip-path="url(#clip320)" d="M789.024 49.7694 Q779.991 49.7694 776.507 51.8354 Q773.023 53.9013 773.023 58.8839 Q773.023 62.8538 775.616 65.2034 Q778.249 67.5124 782.745 67.5124 Q788.943 67.5124 792.67 63.1374 Q796.437 58.7219 796.437 51.4303 L796.437 49.7694 L789.024 49.7694 M803.891 46.6907 L803.891 72.576 L796.437 72.576 L796.437 65.6895 Q793.885 69.8214 790.077 71.8063 Q786.27 73.7508 780.76 73.7508 Q773.793 73.7508 769.661 69.8619 Q765.57 65.9325 765.57 59.3701 Q765.57 51.7138 770.674 47.825 Q775.818 43.9361 785.986 43.9361 L796.437 43.9361 L796.437 43.2069 Q796.437 38.0623 793.035 35.2672 Q789.672 32.4315 783.556 32.4315 Q779.667 32.4315 775.98 33.3632 Q772.294 34.295 768.891 36.1584 L768.891 29.2718 Q772.983 27.692 776.831 26.9223 Q780.679 26.1121 784.325 26.1121 Q794.169 26.1121 799.03 31.2163 Q803.891 36.3204 803.891 46.6907 Z" fill="#000000" fill-rule="evenodd" fill-opacity="1" /><path clip-path="url(#clip320)" d="M819.244 9.54393 L826.698 9.54393 L826.698 72.576 L819.244 72.576 L819.244 9.54393 Z" fill="#000000" fill-rule="evenodd" fill-opacity="1" /><path clip-path="url(#clip320)" d="M877.172 18.8205 L877.172 65.8515 L887.056 65.8515 Q899.573 65.8515 905.366 60.1802 Q911.2 54.509 911.2 42.2752 Q911.2 30.1225 905.366 24.4918 Q899.573 18.8205 887.056 18.8205 L877.172 18.8205 M868.989 12.096 L885.8 12.096 Q903.381 12.096 911.605 19.4281 Q919.828 26.7198 919.828 42.2752 Q919.828 57.9117 911.564 65.2439 Q903.3 72.576 885.8 72.576 L868.989 72.576 L868.989 12.096 Z" fill="#000000" fill-rule="evenodd" fill-opacity="1" /><path clip-path="url(#clip320)" d="M971.355 48.0275 L971.355 51.6733 L937.085 51.6733 Q937.571 59.3701 941.703 63.421 Q945.875 67.4314 953.288 67.4314 Q957.582 67.4314 961.593 66.3781 Q965.644 65.3249 969.614 63.2184 L969.614 70.267 Q965.603 71.9684 961.39 72.8596 Q957.177 73.7508 952.843 73.7508 Q941.986 73.7508 935.626 67.4314 Q929.307 61.1119 929.307 50.3365 Q929.307 39.1965 935.302 32.6746 Q941.338 26.1121 951.547 26.1121 Q960.702 26.1121 966.008 32.0264 Q971.355 37.9003 971.355 48.0275 M963.902 45.84 Q963.821 39.7232 960.459 36.0774 Q957.137 32.4315 951.628 32.4315 Q945.389 32.4315 941.622 35.9558 Q937.895 39.4801 937.328 45.8805 L963.902 45.84 Z" fill="#000000" fill-rule="evenodd" fill-opacity="1" /><path clip-path="url(#clip320)" d="M1021.3 45.1919 L1021.3 72.576 L1013.85 72.576 L1013.85 45.4349 Q1013.85 38.994 1011.34 35.7938 Q1008.83 32.5936 1003.8 32.5936 Q997.767 32.5936 994.284 36.4419 Q990.8 40.2903 990.8 46.9338 L990.8 72.576 L983.306 72.576 L983.306 27.2059 L990.8 27.2059 L990.8 34.2544 Q993.473 30.163 997.079 28.1376 Q1000.72 26.1121 1005.46 26.1121 Q1013.28 26.1121 1017.29 30.9732 Q1021.3 35.7938 1021.3 45.1919 Z" fill="#000000" fill-rule="evenodd" fill-opacity="1" /><path clip-path="url(#clip320)" d="M1065.09 28.5427 L1065.09 35.5912 Q1061.93 33.9709 1058.53 33.1607 Q1055.13 32.3505 1051.48 32.3505 Q1045.93 32.3505 1043.14 34.0519 Q1040.38 35.7533 1040.38 39.156 Q1040.38 41.7486 1042.37 43.2475 Q1044.35 44.7058 1050.35 46.0426 L1052.9 46.6097 Q1060.84 48.3111 1064.16 51.4303 Q1067.52 54.509 1067.52 60.0587 Q1067.52 66.3781 1062.5 70.0644 Q1057.52 73.7508 1048.77 73.7508 Q1045.12 73.7508 1041.15 73.0216 Q1037.22 72.3329 1032.85 70.9151 L1032.85 63.2184 Q1036.98 65.3654 1040.99 66.4591 Q1045 67.5124 1048.93 67.5124 Q1054.2 67.5124 1057.03 65.73 Q1059.87 63.9071 1059.87 60.6258 Q1059.87 57.5877 1057.8 55.9673 Q1055.78 54.3469 1048.85 52.8481 L1046.26 52.2405 Q1039.33 50.7821 1036.25 47.7845 Q1033.17 44.7463 1033.17 39.4801 Q1033.17 33.0797 1037.71 29.5959 Q1042.25 26.1121 1050.59 26.1121 Q1054.72 26.1121 1058.37 26.7198 Q1062.01 27.3274 1065.09 28.5427 Z" fill="#000000" fill-rule="evenodd" fill-opacity="1" /><path clip-path="url(#clip320)" d="M1079.39 27.2059 L1086.85 27.2059 L1086.85 72.576 L1079.39 72.576 L1079.39 27.2059 M1079.39 9.54393 L1086.85 9.54393 L1086.85 18.9825 L1079.39 18.9825 L1079.39 9.54393 Z" fill="#000000" fill-rule="evenodd" fill-opacity="1" /><path clip-path="url(#clip320)" d="M1109.82 14.324 L1109.82 27.2059 L1125.17 27.2059 L1125.17 32.9987 L1109.82 32.9987 L1109.82 57.6282 Q1109.82 63.1779 1111.31 64.7578 Q1112.85 66.3376 1117.51 66.3376 L1125.17 66.3376 L1125.17 72.576 L1117.51 72.576 Q1108.88 72.576 1105.6 69.3758 Q1102.32 66.1351 1102.32 57.6282 L1102.32 32.9987 L1096.85 32.9987 L1096.85 27.2059 L1102.32 27.2059 L1102.32 14.324 L1109.82 14.324 Z" fill="#000000" fill-rule="evenodd" fill-opacity="1" /><path clip-path="url(#clip320)" d="M1153.85 76.7889 Q1150.69 84.8907 1147.69 87.3618 Q1144.69 89.8329 1139.67 89.8329 L1133.72 89.8329 L1133.72 83.5945 L1138.09 83.5945 Q1141.17 83.5945 1142.87 82.1361 Q1144.57 80.6778 1146.64 75.2496 L1147.97 71.8468 L1129.62 27.2059 L1137.52 27.2059 L1151.7 62.6918 L1165.88 27.2059 L1173.78 27.2059 L1153.85 76.7889 Z" fill="#000000" fill-rule="evenodd" fill-opacity="1" /><path clip-path="url(#clip320)" d="M1228.02 32.4315 Q1222.03 32.4315 1218.54 37.1306 Q1215.06 41.7891 1215.06 49.9314 Q1215.06 58.0738 1218.5 62.7728 Q1221.98 67.4314 1228.02 67.4314 Q1233.98 67.4314 1237.46 62.7323 Q1240.94 58.0333 1240.94 49.9314 Q1240.94 41.8701 1237.46 37.1711 Q1233.98 32.4315 1228.02 32.4315 M1228.02 26.1121 Q1237.74 26.1121 1243.29 32.4315 Q1248.84 38.7509 1248.84 49.9314 Q1248.84 61.0714 1243.29 67.4314 Q1237.74 73.7508 1228.02 73.7508 Q1218.26 73.7508 1212.71 67.4314 Q1207.2 61.0714 1207.2 49.9314 Q1207.2 38.7509 1212.71 32.4315 Q1218.26 26.1121 1228.02 26.1121 Z" fill="#000000" fill-rule="evenodd" fill-opacity="1" /><path clip-path="url(#clip320)" d="M1284.17 9.54393 L1284.17 15.7418 L1277.04 15.7418 Q1273.03 15.7418 1271.45 17.3622 Q1269.91 18.9825 1269.91 23.1955 L1269.91 27.2059 L1282.18 27.2059 L1282.18 32.9987 L1269.91 32.9987 L1269.91 72.576 L1262.41 72.576 L1262.41 32.9987 L1255.28 32.9987 L1255.28 27.2059 L1262.41 27.2059 L1262.41 24.0462 Q1262.41 16.471 1265.94 13.0277 Q1269.46 9.54393 1277.12 9.54393 L1284.17 9.54393 Z" fill="#000000" fill-rule="evenodd" fill-opacity="1" /><path clip-path="url(#clip320)" d="M1325.28 18.8205 L1325.28 65.8515 L1335.17 65.8515 Q1347.68 65.8515 1353.48 60.1802 Q1359.31 54.509 1359.31 42.2752 Q1359.31 30.1225 1353.48 24.4918 Q1347.68 18.8205 1335.17 18.8205 L1325.28 18.8205 M1317.1 12.096 L1333.91 12.096 Q1351.49 12.096 1359.72 19.4281 Q1367.94 26.7198 1367.94 42.2752 Q1367.94 57.9117 1359.68 65.2439 Q1351.41 72.576 1333.91 72.576 L1317.1 72.576 L1317.1 12.096 Z" fill="#000000" fill-rule="evenodd" fill-opacity="1" /><path clip-path="url(#clip320)" d="M1419.47 48.0275 L1419.47 51.6733 L1385.2 51.6733 Q1385.68 59.3701 1389.81 63.421 Q1393.99 67.4314 1401.4 67.4314 Q1405.69 67.4314 1409.7 66.3781 Q1413.75 65.3249 1417.72 63.2184 L1417.72 70.267 Q1413.71 71.9684 1409.5 72.8596 Q1405.29 73.7508 1400.95 73.7508 Q1390.1 73.7508 1383.74 67.4314 Q1377.42 61.1119 1377.42 50.3365 Q1377.42 39.1965 1383.41 32.6746 Q1389.45 26.1121 1399.66 26.1121 Q1408.81 26.1121 1414.12 32.0264 Q1419.47 37.9003 1419.47 48.0275 M1412.01 45.84 Q1411.93 39.7232 1408.57 36.0774 Q1405.25 32.4315 1399.74 32.4315 Q1393.5 32.4315 1389.73 35.9558 Q1386.01 39.4801 1385.44 45.8805 L1412.01 45.84 Z" fill="#000000" fill-rule="evenodd" fill-opacity="1" /><path clip-path="url(#clip320)" d="M1464.27 49.9314 Q1464.27 41.7081 1460.87 37.0496 Q1457.5 32.3505 1451.59 32.3505 Q1445.68 32.3505 1442.27 37.0496 Q1438.91 41.7081 1438.91 49.9314 Q1438.91 58.1548 1442.27 62.8538 Q1445.68 67.5124 1451.59 67.5124 Q1457.5 67.5124 1460.87 62.8538 Q1464.27 58.1548 1464.27 49.9314 M1438.91 34.0924 Q1441.26 30.0415 1444.83 28.0971 Q1448.43 26.1121 1453.41 26.1121 Q1461.68 26.1121 1466.82 32.6746 Q1472.01 39.2371 1472.01 49.9314 Q1472.01 60.6258 1466.82 67.1883 Q1461.68 73.7508 1453.41 73.7508 Q1448.43 73.7508 1444.83 71.8063 Q1441.26 69.8214 1438.91 65.7705 L1438.91 72.576 L1431.42 72.576 L1431.42 9.54393 L1438.91 9.54393 L1438.91 34.0924 Z" fill="#000000" fill-rule="evenodd" fill-opacity="1" /><path clip-path="url(#clip320)" d="M1510.65 34.1734 Q1509.4 33.4443 1507.9 33.1202 Q1506.44 32.7556 1504.66 32.7556 Q1498.34 32.7556 1494.93 36.8875 Q1491.57 40.9789 1491.57 48.6757 L1491.57 72.576 L1484.08 72.576 L1484.08 27.2059 L1491.57 27.2059 L1491.57 34.2544 Q1493.92 30.1225 1497.69 28.1376 Q1501.46 26.1121 1506.84 26.1121 Q1507.61 26.1121 1508.55 26.2337 Q1509.48 26.3147 1510.61 26.5172 L1510.65 34.1734 Z" fill="#000000" fill-rule="evenodd" fill-opacity="1" /><path clip-path="url(#clip320)" d="M1518.47 27.2059 L1525.92 27.2059 L1525.92 72.576 L1518.47 72.576 L1518.47 27.2059 M1518.47 9.54393 L1525.92 9.54393 L1525.92 18.9825 L1518.47 18.9825 L1518.47 9.54393 Z" fill="#000000" fill-rule="evenodd" fill-opacity="1" /><path clip-path="url(#clip320)" d="M1570.44 28.5427 L1570.44 35.5912 Q1567.28 33.9709 1563.88 33.1607 Q1560.48 32.3505 1556.83 32.3505 Q1551.28 32.3505 1548.49 34.0519 Q1545.73 35.7533 1545.73 39.156 Q1545.73 41.7486 1547.72 43.2475 Q1549.7 44.7058 1555.7 46.0426 L1558.25 46.6097 Q1566.19 48.3111 1569.51 51.4303 Q1572.87 54.509 1572.87 60.0587 Q1572.87 66.3781 1567.85 70.0644 Q1562.87 73.7508 1554.12 73.7508 Q1550.47 73.7508 1546.5 73.0216 Q1542.57 72.3329 1538.2 70.9151 L1538.2 63.2184 Q1542.33 65.3654 1546.34 66.4591 Q1550.35 67.5124 1554.28 67.5124 Q1559.55 67.5124 1562.38 65.73 Q1565.22 63.9071 1565.22 60.6258 Q1565.22 57.5877 1563.15 55.9673 Q1561.13 54.3469 1554.2 52.8481 L1551.61 52.2405 Q1544.68 50.7821 1541.6 47.7845 Q1538.52 44.7463 1538.52 39.4801 Q1538.52 33.0797 1543.06 29.5959 Q1547.6 26.1121 1555.94 26.1121 Q1560.07 26.1121 1563.72 26.7198 Q1567.36 27.3274 1570.44 28.5427 Z" fill="#000000" fill-rule="evenodd" fill-opacity="1" /><path clip-path="url(#clip320)" d="M1643.68 49.9314 Q1643.68 41.7081 1640.28 37.0496 Q1636.92 32.3505 1631 32.3505 Q1625.09 32.3505 1621.69 37.0496 Q1618.33 41.7081 1618.33 49.9314 Q1618.33 58.1548 1621.69 62.8538 Q1625.09 67.5124 1631 67.5124 Q1636.92 67.5124 1640.28 62.8538 Q1643.68 58.1548 1643.68 49.9314 M1618.33 34.0924 Q1620.67 30.0415 1624.24 28.0971 Q1627.84 26.1121 1632.83 26.1121 Q1641.09 26.1121 1646.24 32.6746 Q1651.42 39.2371 1651.42 49.9314 Q1651.42 60.6258 1646.24 67.1883 Q1641.09 73.7508 1632.83 73.7508 Q1627.84 73.7508 1624.24 71.8063 Q1620.67 69.8214 1618.33 65.7705 L1618.33 72.576 L1610.83 72.576 L1610.83 9.54393 L1618.33 9.54393 L1618.33 34.0924 Z" fill="#000000" fill-rule="evenodd" fill-opacity="1" /><path clip-path="url(#clip320)" d="M1682.65 76.7889 Q1679.49 84.8907 1676.5 87.3618 Q1673.5 89.8329 1668.48 89.8329 L1662.52 89.8329 L1662.52 83.5945 L1666.9 83.5945 Q1669.97 83.5945 1671.68 82.1361 Q1673.38 80.6778 1675.44 75.2496 L1676.78 71.8468 L1658.43 27.2059 L1666.33 27.2059 L1680.51 62.6918 L1694.68 27.2059 L1702.58 27.2059 L1682.65 76.7889 Z" fill="#000000" fill-rule="evenodd" fill-opacity="1" /><path clip-path="url(#clip320)" d="M1759.78 20.1573 L1748.68 50.2555 L1770.92 50.2555 L1759.78 20.1573 M1755.16 12.096 L1764.44 12.096 L1787.49 72.576 L1778.98 72.576 L1773.47 57.061 L1746.21 57.061 L1740.7 72.576 L1732.07 72.576 L1755.16 12.096 Z" fill="#000000" fill-rule="evenodd" fill-opacity="1" /><path clip-path="url(#clip320)" d="M1796 9.54393 L1803.45 9.54393 L1803.45 72.576 L1796 72.576 L1796 9.54393 Z" fill="#000000" fill-rule="evenodd" fill-opacity="1" /><path clip-path="url(#clip320)" d="M1826.42 14.324 L1826.42 27.2059 L1841.77 27.2059 L1841.77 32.9987 L1826.42 32.9987 L1826.42 57.6282 Q1826.42 63.1779 1827.92 64.7578 Q1829.46 66.3376 1834.12 66.3376 L1841.77 66.3376 L1841.77 72.576 L1834.12 72.576 Q1825.49 72.576 1822.21 69.3758 Q1818.93 66.1351 1818.93 57.6282 L1818.93 32.9987 L1813.46 32.9987 L1813.46 27.2059 L1818.93 27.2059 L1818.93 14.324 L1826.42 14.324 Z" fill="#000000" fill-rule="evenodd" fill-opacity="1" /><path clip-path="url(#clip320)" d="M1851.58 27.2059 L1859.03 27.2059 L1859.03 72.576 L1851.58 72.576 L1851.58 27.2059 M1851.58 9.54393 L1859.03 9.54393 L1859.03 18.9825 L1851.58 18.9825 L1851.58 9.54393 Z" fill="#000000" fill-rule="evenodd" fill-opacity="1" /><path clip-path="url(#clip320)" d="M1882 14.324 L1882 27.2059 L1897.35 27.2059 L1897.35 32.9987 L1882 32.9987 L1882 57.6282 Q1882 63.1779 1883.5 64.7578 Q1885.04 66.3376 1889.7 66.3376 L1897.35 66.3376 L1897.35 72.576 L1889.7 72.576 Q1881.07 72.576 1877.79 69.3758 Q1874.5 66.1351 1874.5 57.6282 L1874.5 32.9987 L1869.04 32.9987 L1869.04 27.2059 L1874.5 27.2059 L1874.5 14.324 L1882 14.324 Z" fill="#000000" fill-rule="evenodd" fill-opacity="1" /><path clip-path="url(#clip320)" d="M1906.39 54.671 L1906.39 27.2059 L1913.84 27.2059 L1913.84 54.3874 Q1913.84 60.8284 1916.35 64.0691 Q1918.86 67.2693 1923.89 67.2693 Q1929.92 67.2693 1933.4 63.421 Q1936.93 59.5726 1936.93 52.9291 L1936.93 27.2059 L1944.38 27.2059 L1944.38 72.576 L1936.93 72.576 L1936.93 65.6084 Q1934.21 69.7404 1930.61 71.7658 Q1927.04 73.7508 1922.31 73.7508 Q1914.49 73.7508 1910.44 68.8897 Q1906.39 64.0286 1906.39 54.671 M1925.14 26.1121 L1925.14 26.1121 Z" fill="#000000" fill-rule="evenodd" fill-opacity="1" /><path clip-path="url(#clip320)" d="M1989.59 34.0924 L1989.59 9.54393 L1997.04 9.54393 L1997.04 72.576 L1989.59 72.576 L1989.59 65.7705 Q1987.24 69.8214 1983.64 71.8063 Q1980.07 73.7508 1975.05 73.7508 Q1966.82 73.7508 1961.64 67.1883 Q1956.49 60.6258 1956.49 49.9314 Q1956.49 39.2371 1961.64 32.6746 Q1966.82 26.1121 1975.05 26.1121 Q1980.07 26.1121 1983.64 28.0971 Q1987.24 30.0415 1989.59 34.0924 M1964.19 49.9314 Q1964.19 58.1548 1967.55 62.8538 Q1970.96 67.5124 1976.87 67.5124 Q1982.79 67.5124 1986.19 62.8538 Q1989.59 58.1548 1989.59 49.9314 Q1989.59 41.7081 1986.19 37.0496 Q1982.79 32.3505 1976.87 32.3505 Q1970.96 32.3505 1967.55 37.0496 Q1964.19 41.7081 1964.19 49.9314 Z" fill="#000000" fill-rule="evenodd" fill-opacity="1" /><path clip-path="url(#clip320)" d="M2051.2 48.0275 L2051.2 51.6733 L2016.93 51.6733 Q2017.42 59.3701 2021.55 63.421 Q2025.72 67.4314 2033.14 67.4314 Q2037.43 67.4314 2041.44 66.3781 Q2045.49 65.3249 2049.46 63.2184 L2049.46 70.267 Q2045.45 71.9684 2041.24 72.8596 Q2037.03 73.7508 2032.69 73.7508 Q2021.84 73.7508 2015.48 67.4314 Q2009.16 61.1119 2009.16 50.3365 Q2009.16 39.1965 2015.15 32.6746 Q2021.19 26.1121 2031.4 26.1121 Q2040.55 26.1121 2045.86 32.0264 Q2051.2 37.9003 2051.2 48.0275 M2043.75 45.84 Q2043.67 39.7232 2040.31 36.0774 Q2036.99 32.4315 2031.48 32.4315 Q2025.24 32.4315 2021.47 35.9558 Q2017.74 39.4801 2017.18 45.8805 L2043.75 45.84 Z" fill="#000000" fill-rule="evenodd" fill-opacity="1" /><polyline clip-path="url(#clip322)" style="stroke:#000000; stroke-linecap:butt; stroke-linejoin:round; stroke-width:4; stroke-opacity:1; fill:none" points="
  376.105,252.154 397.407,118.678 418.71,103.395 440.012,29.6045 461.315,24.6699 482.617,29.4654 503.919,-27.4403 525.222,-59.0663 546.524,-85.2579 567.827,-129.213 
  589.129,-128.199 610.431,-91.403 631.734,-63.0311 653.036,-72.6115 674.339,-77.2362 695.641,-100.006 716.944,-107.737 738.246,-91.396 759.548,-102.483 780.851,-109.509 
  802.153,-123.498 823.456,-131.941 844.758,-124.972 866.06,-132.243 887.363,-146.685 908.665,-130.953 929.968,-94.2603 951.27,-69.0216 972.573,-48.2881 993.875,-30.8387 
  1015.18,-1.42343 1036.48,20.6131 1057.78,26.1071 1079.08,43.4417 1100.39,64.6982 1121.69,70.9354 1142.99,103.27 1164.29,101.13 1185.6,123.97 1206.9,133.227 
  1228.2,158.02 1249.5,130.29 1270.81,108.881 1292.11,152.526 1313.41,173.895 1334.71,208.72 1356.02,191.118 1377.32,192.893 1398.62,183.219 1419.92,167.07 
  1441.23,165.955 1462.53,139.678 1483.83,182.036 1505.13,230.431 1526.44,227.913 1547.74,252.714 1569.04,260.177 1590.34,275.568 1611.64,299.348 1632.95,298.794 
  1654.25,341.282 1675.55,372.68 1696.85,357.046 1718.16,384.878 1739.46,403.154 1760.76,364.727 1782.06,417.138 1803.37,394.915 1824.67,397.343 1845.97,380.206 
  1867.27,460.344 1888.58,411.974 1909.88,441.347 1931.18,409.033 1952.48,456.961 1973.79,438.196 1995.09,461.389 2016.39,555.836 2037.69,454.634 2059,598.257 
  2080.3,600.36 2101.6,667.647 2122.9,566.35 2144.21,520.328 2165.51,570.397 2186.81,572.388 2208.11,574.358 2229.41,576.308 2250.72,551.174 2272.02,514.939 
  2293.32,685.392 
  "/>
<path clip-path="url(#clip320)" d="
M1688.78 270.476 L2282.76 270.476 L2282.76 166.796 L1688.78 166.796  Z
  " fill="#ffffff" fill-rule="evenodd" fill-opacity="1"/>
<polyline clip-path="url(#clip320)" style="stroke:#000000; stroke-linecap:butt; stroke-linejoin:round; stroke-width:4; stroke-opacity:1; fill:none" points="
  1688.78,270.476 2282.76,270.476 2282.76,166.796 1688.78,166.796 1688.78,270.476 
  "/>
<polyline clip-path="url(#clip320)" style="stroke:#000000; stroke-linecap:butt; stroke-linejoin:round; stroke-width:4; stroke-opacity:1; fill:none" points="
  1712.78,218.636 1856.78,218.636 
  "/>
<path clip-path="url(#clip320)" d="M1903.02 202.49 L1903.02 207.05 Q1900.36 205.777 1898 205.152 Q1895.64 204.527 1893.44 204.527 Q1889.62 204.527 1887.54 206.008 Q1885.48 207.49 1885.48 210.221 Q1885.48 212.513 1886.84 213.694 Q1888.23 214.851 1892.07 215.569 L1894.9 216.147 Q1900.13 217.143 1902.61 219.666 Q1905.11 222.166 1905.11 226.379 Q1905.11 231.402 1901.73 233.994 Q1898.37 236.587 1891.86 236.587 Q1889.41 236.587 1886.63 236.031 Q1883.88 235.476 1880.92 234.388 L1880.92 229.573 Q1883.76 231.17 1886.49 231.981 Q1889.23 232.791 1891.86 232.791 Q1895.87 232.791 1898.05 231.217 Q1900.22 229.643 1900.22 226.726 Q1900.22 224.18 1898.65 222.744 Q1897.1 221.309 1893.53 220.592 L1890.68 220.036 Q1885.45 218.995 1883.11 216.772 Q1880.78 214.55 1880.78 210.592 Q1880.78 206.008 1883.99 203.37 Q1887.23 200.731 1892.91 200.731 Q1895.34 200.731 1897.86 201.171 Q1900.38 201.61 1903.02 202.49 Z" fill="#000000" fill-rule="evenodd" fill-opacity="1" /><path clip-path="url(#clip320)" d="M1916.33 232.027 L1916.33 245.777 L1912.05 245.777 L1912.05 209.99 L1916.33 209.99 L1916.33 213.925 Q1917.67 211.61 1919.71 210.499 Q1921.77 209.365 1924.62 209.365 Q1929.34 209.365 1932.28 213.115 Q1935.24 216.865 1935.24 222.976 Q1935.24 229.087 1932.28 232.837 Q1929.34 236.587 1924.62 236.587 Q1921.77 236.587 1919.71 235.476 Q1917.67 234.342 1916.33 232.027 M1930.82 222.976 Q1930.82 218.277 1928.88 215.615 Q1926.96 212.93 1923.58 212.93 Q1920.2 212.93 1918.25 215.615 Q1916.33 218.277 1916.33 222.976 Q1916.33 227.675 1918.25 230.36 Q1920.2 233.022 1923.58 233.022 Q1926.96 233.022 1928.88 230.36 Q1930.82 227.675 1930.82 222.976 Z" fill="#000000" fill-rule="evenodd" fill-opacity="1" /><path clip-path="url(#clip320)" d="M1954.09 222.883 Q1948.92 222.883 1946.93 224.064 Q1944.94 225.244 1944.94 228.092 Q1944.94 230.36 1946.42 231.703 Q1947.93 233.022 1950.5 233.022 Q1954.04 233.022 1956.17 230.522 Q1958.32 227.999 1958.32 223.832 L1958.32 222.883 L1954.09 222.883 M1962.58 221.124 L1962.58 235.916 L1958.32 235.916 L1958.32 231.981 Q1956.86 234.342 1954.69 235.476 Q1952.51 236.587 1949.36 236.587 Q1945.38 236.587 1943.02 234.365 Q1940.68 232.119 1940.68 228.369 Q1940.68 223.994 1943.6 221.772 Q1946.54 219.55 1952.35 219.55 L1958.32 219.55 L1958.32 219.133 Q1958.32 216.194 1956.38 214.596 Q1954.46 212.976 1950.96 212.976 Q1948.74 212.976 1946.63 213.508 Q1944.53 214.041 1942.58 215.106 L1942.58 211.17 Q1944.92 210.268 1947.12 209.828 Q1949.32 209.365 1951.4 209.365 Q1957.03 209.365 1959.8 212.282 Q1962.58 215.198 1962.58 221.124 Z" fill="#000000" fill-rule="evenodd" fill-opacity="1" /><path clip-path="url(#clip320)" d="M1975.57 202.629 L1975.57 209.99 L1984.34 209.99 L1984.34 213.3 L1975.57 213.3 L1975.57 227.374 Q1975.57 230.545 1976.42 231.448 Q1977.3 232.351 1979.97 232.351 L1984.34 232.351 L1984.34 235.916 L1979.97 235.916 Q1975.04 235.916 1973.16 234.087 Q1971.29 232.235 1971.29 227.374 L1971.29 213.3 L1968.16 213.3 L1968.16 209.99 L1971.29 209.99 L1971.29 202.629 L1975.57 202.629 Z" fill="#000000" fill-rule="evenodd" fill-opacity="1" /><path clip-path="url(#clip320)" d="M1989.94 209.99 L1994.2 209.99 L1994.2 235.916 L1989.94 235.916 L1989.94 209.99 M1989.94 199.897 L1994.2 199.897 L1994.2 205.291 L1989.94 205.291 L1989.94 199.897 Z" fill="#000000" fill-rule="evenodd" fill-opacity="1" /><path clip-path="url(#clip320)" d="M2014.9 222.883 Q2009.73 222.883 2007.74 224.064 Q2005.75 225.244 2005.75 228.092 Q2005.75 230.36 2007.23 231.703 Q2008.74 233.022 2011.31 233.022 Q2014.85 233.022 2016.98 230.522 Q2019.13 227.999 2019.13 223.832 L2019.13 222.883 L2014.9 222.883 M2023.39 221.124 L2023.39 235.916 L2019.13 235.916 L2019.13 231.981 Q2017.67 234.342 2015.5 235.476 Q2013.32 236.587 2010.17 236.587 Q2006.19 236.587 2003.83 234.365 Q2001.49 232.119 2001.49 228.369 Q2001.49 223.994 2004.41 221.772 Q2007.35 219.55 2013.16 219.55 L2019.13 219.55 L2019.13 219.133 Q2019.13 216.194 2017.19 214.596 Q2015.27 212.976 2011.77 212.976 Q2009.55 212.976 2007.44 213.508 Q2005.34 214.041 2003.39 215.106 L2003.39 211.17 Q2005.73 210.268 2007.93 209.828 Q2010.13 209.365 2012.21 209.365 Q2017.84 209.365 2020.61 212.282 Q2023.39 215.198 2023.39 221.124 Z" fill="#000000" fill-rule="evenodd" fill-opacity="1" /><path clip-path="url(#clip320)" d="M2032.16 199.897 L2036.42 199.897 L2036.42 235.916 L2032.16 235.916 L2032.16 199.897 Z" fill="#000000" fill-rule="evenodd" fill-opacity="1" /><path clip-path="url(#clip320)" d="M2065.27 205.198 L2065.27 232.073 L2070.91 232.073 Q2078.07 232.073 2081.38 228.832 Q2084.71 225.592 2084.71 218.601 Q2084.71 211.657 2081.38 208.439 Q2078.07 205.198 2070.91 205.198 L2065.27 205.198 M2060.59 201.356 L2070.2 201.356 Q2080.24 201.356 2084.94 205.546 Q2089.64 209.712 2089.64 218.601 Q2089.64 227.536 2084.92 231.726 Q2080.2 235.916 2070.2 235.916 L2060.59 235.916 L2060.59 201.356 Z" fill="#000000" fill-rule="evenodd" fill-opacity="1" /><path clip-path="url(#clip320)" d="M2119.09 221.888 L2119.09 223.971 L2099.5 223.971 Q2099.78 228.369 2102.14 230.684 Q2104.53 232.976 2108.76 232.976 Q2111.22 232.976 2113.51 232.374 Q2115.82 231.772 2118.09 230.569 L2118.09 234.596 Q2115.8 235.568 2113.39 236.078 Q2110.98 236.587 2108.51 236.587 Q2102.3 236.587 2098.67 232.976 Q2095.06 229.365 2095.06 223.207 Q2095.06 216.842 2098.48 213.115 Q2101.93 209.365 2107.77 209.365 Q2113 209.365 2116.03 212.745 Q2119.09 216.101 2119.09 221.888 M2114.83 220.638 Q2114.78 217.143 2112.86 215.059 Q2110.96 212.976 2107.81 212.976 Q2104.25 212.976 2102.09 214.99 Q2099.97 217.004 2099.64 220.661 L2114.83 220.638 Z" fill="#000000" fill-rule="evenodd" fill-opacity="1" /><path clip-path="url(#clip320)" d="M2147.63 220.268 L2147.63 235.916 L2143.37 235.916 L2143.37 220.407 Q2143.37 216.726 2141.93 214.897 Q2140.5 213.069 2137.63 213.069 Q2134.18 213.069 2132.19 215.268 Q2130.2 217.467 2130.2 221.263 L2130.2 235.916 L2125.91 235.916 L2125.91 209.99 L2130.2 209.99 L2130.2 214.018 Q2131.72 211.68 2133.78 210.522 Q2135.87 209.365 2138.58 209.365 Q2143.04 209.365 2145.34 212.143 Q2147.63 214.897 2147.63 220.268 Z" fill="#000000" fill-rule="evenodd" fill-opacity="1" /><path clip-path="url(#clip320)" d="M2172.65 210.754 L2172.65 214.782 Q2170.84 213.856 2168.9 213.393 Q2166.96 212.93 2164.87 212.93 Q2161.7 212.93 2160.1 213.902 Q2158.53 214.874 2158.53 216.819 Q2158.53 218.3 2159.66 219.157 Q2160.8 219.99 2164.22 220.754 L2165.68 221.078 Q2170.22 222.05 2172.12 223.832 Q2174.04 225.592 2174.04 228.763 Q2174.04 232.374 2171.17 234.481 Q2168.32 236.587 2163.32 236.587 Q2161.24 236.587 2158.97 236.17 Q2156.72 235.777 2154.22 234.967 L2154.22 230.569 Q2156.59 231.795 2158.88 232.42 Q2161.17 233.022 2163.41 233.022 Q2166.42 233.022 2168.04 232.004 Q2169.66 230.962 2169.66 229.087 Q2169.66 227.351 2168.48 226.425 Q2167.33 225.499 2163.37 224.643 L2161.89 224.295 Q2157.93 223.462 2156.17 221.749 Q2154.41 220.013 2154.41 217.004 Q2154.41 213.346 2157 211.356 Q2159.59 209.365 2164.36 209.365 Q2166.72 209.365 2168.81 209.712 Q2170.89 210.059 2172.65 210.754 Z" fill="#000000" fill-rule="evenodd" fill-opacity="1" /><path clip-path="url(#clip320)" d="M2180.82 209.99 L2185.08 209.99 L2185.08 235.916 L2180.82 235.916 L2180.82 209.99 M2180.82 199.897 L2185.08 199.897 L2185.08 205.291 L2180.82 205.291 L2180.82 199.897 Z" fill="#000000" fill-rule="evenodd" fill-opacity="1" /><path clip-path="url(#clip320)" d="M2198.21 202.629 L2198.21 209.99 L2206.98 209.99 L2206.98 213.3 L2198.21 213.3 L2198.21 227.374 Q2198.21 230.545 2199.06 231.448 Q2199.94 232.351 2202.6 232.351 L2206.98 232.351 L2206.98 235.916 L2202.6 235.916 Q2197.67 235.916 2195.8 234.087 Q2193.92 232.235 2193.92 227.374 L2193.92 213.3 L2190.8 213.3 L2190.8 209.99 L2193.92 209.99 L2193.92 202.629 L2198.21 202.629 Z" fill="#000000" fill-rule="evenodd" fill-opacity="1" /><path clip-path="url(#clip320)" d="M2223.37 238.323 Q2221.56 242.953 2219.85 244.365 Q2218.14 245.777 2215.27 245.777 L2211.86 245.777 L2211.86 242.212 L2214.36 242.212 Q2216.12 242.212 2217.09 241.379 Q2218.07 240.545 2219.25 237.443 L2220.01 235.499 L2209.52 209.99 L2214.04 209.99 L2222.14 230.268 L2230.24 209.99 L2234.76 209.99 L2223.37 238.323 Z" fill="#000000" fill-rule="evenodd" fill-opacity="1" /></svg>
