<?xml version="1.0" encoding="utf-8"?>
<svg xmlns="http://www.w3.org/2000/svg" xmlns:xlink="http://www.w3.org/1999/xlink" width="600" height="400" viewBox="0 0 2400 1600">
<defs>
  <clipPath id="clip280">
    <rect x="0" y="0" width="2400" height="1600"/>
  </clipPath>
</defs>
<path clip-path="url(#clip280)" d="
M0 1600 L2400 1600 L2400 0 L0 0  Z
  " fill="#ffffff" fill-rule="evenodd" fill-opacity="1"/>
<defs>
  <clipPath id="clip281">
    <rect x="480" y="0" width="1681" height="1600"/>
  </clipPath>
</defs>
<defs>
  <clipPath id="clip282">
    <rect x="252" y="183" width="2101" height="1240"/>
  </clipPath>
</defs>
<path clip-path="url(#clip280)" d="
M252.764 1423.18 L2352.76 1423.18 L2352.76 183.952 L252.764 183.952  Z
  " fill="#ffffff" fill-rule="evenodd" fill-opacity="1"/>
<polyline clip-path="url(#clip282)" style="stroke:#000000; stroke-linecap:butt; stroke-linejoin:round; stroke-width:2; stroke-opacity:0.1; fill:none" points="
  309.817,1423.18 309.817,183.952 
  "/>
<polyline clip-path="url(#clip282)" style="stroke:#000000; stroke-linecap:butt; stroke-linejoin:round; stroke-width:2; stroke-opacity:0.1; fill:none" points="
  706.676,1423.18 706.676,183.952 
  "/>
<polyline clip-path="url(#clip282)" style="stroke:#000000; stroke-linecap:butt; stroke-linejoin:round; stroke-width:2; stroke-opacity:0.1; fill:none" points="
  1103.54,1423.18 1103.54,183.952 
  "/>
<polyline clip-path="url(#clip282)" style="stroke:#000000; stroke-linecap:butt; stroke-linejoin:round; stroke-width:2; stroke-opacity:0.1; fill:none" points="
  1500.4,1423.18 1500.4,183.952 
  "/>
<polyline clip-path="url(#clip282)" style="stroke:#000000; stroke-linecap:butt; stroke-linejoin:round; stroke-width:2; stroke-opacity:0.1; fill:none" points="
  1897.26,1423.18 1897.26,183.952 
  "/>
<polyline clip-path="url(#clip282)" style="stroke:#000000; stroke-linecap:butt; stroke-linejoin:round; stroke-width:2; stroke-opacity:0.1; fill:none" points="
  2294.12,1423.18 2294.12,183.952 
  "/>
<polyline clip-path="url(#clip280)" style="stroke:#000000; stroke-linecap:butt; stroke-linejoin:round; stroke-width:4; stroke-opacity:1; fill:none" points="
  252.764,1423.18 2352.76,1423.18 
  "/>
<polyline clip-path="url(#clip280)" style="stroke:#000000; stroke-linecap:butt; stroke-linejoin:round; stroke-width:4; stroke-opacity:1; fill:none" points="
  309.817,1423.18 309.817,1404.28 
  "/>
<polyline clip-path="url(#clip280)" style="stroke:#000000; stroke-linecap:butt; stroke-linejoin:round; stroke-width:4; stroke-opacity:1; fill:none" points="
  706.676,1423.18 706.676,1404.28 
  "/>
<polyline clip-path="url(#clip280)" style="stroke:#000000; stroke-linecap:butt; stroke-linejoin:round; stroke-width:4; stroke-opacity:1; fill:none" points="
  1103.54,1423.18 1103.54,1404.28 
  "/>
<polyline clip-path="url(#clip280)" style="stroke:#000000; stroke-linecap:butt; stroke-linejoin:round; stroke-width:4; stroke-opacity:1; fill:none" points="
  1500.4,1423.18 1500.4,1404.28 
  "/>
<polyline clip-path="url(#clip280)" style="stroke:#000000; stroke-linecap:butt; stroke-linejoin:round; stroke-width:4; stroke-opacity:1; fill:none" points="
  1897.26,1423.18 1897.26,1404.28 
  "/>
<polyline clip-path="url(#clip280)" style="stroke:#000000; stroke-linecap:butt; stroke-linejoin:round; stroke-width:4; stroke-opacity:1; fill:none" points="
  2294.12,1423.18 2294.12,1404.28 
  "/>
<path clip-path="url(#clip280)" d="M309.817 1454.1 Q306.205 1454.1 304.377 1457.66 Q302.571 1461.2 302.571 1468.33 Q302.571 1475.44 304.377 1479.01 Q306.205 1482.55 309.817 1482.55 Q313.451 1482.55 315.256 1479.01 Q317.085 1475.44 317.085 1468.33 Q317.085 1461.2 315.256 1457.66 Q313.451 1454.1 309.817 1454.1 M309.817 1450.39 Q315.627 1450.39 318.682 1455 Q321.761 1459.58 321.761 1468.33 Q321.761 1477.06 318.682 1481.67 Q315.627 1486.25 309.817 1486.25 Q304.006 1486.25 300.928 1481.67 Q297.872 1477.06 297.872 1468.33 Q297.872 1459.58 300.928 1455 Q304.006 1450.39 309.817 1450.39 Z" fill="#000000" fill-rule="evenodd" fill-opacity="1" /><path clip-path="url(#clip280)" d="M666.295 1451.02 L684.651 1451.02 L684.651 1454.96 L670.577 1454.96 L670.577 1463.43 Q671.596 1463.08 672.614 1462.92 Q673.633 1462.73 674.651 1462.73 Q680.438 1462.73 683.818 1465.9 Q687.197 1469.08 687.197 1474.49 Q687.197 1480.07 683.725 1483.17 Q680.253 1486.25 673.934 1486.25 Q671.758 1486.25 669.489 1485.88 Q667.244 1485.51 664.836 1484.77 L664.836 1480.07 Q666.92 1481.2 669.142 1481.76 Q671.364 1482.32 673.841 1482.32 Q677.846 1482.32 680.183 1480.21 Q682.521 1478.1 682.521 1474.49 Q682.521 1470.88 680.183 1468.77 Q677.846 1466.67 673.841 1466.67 Q671.966 1466.67 670.091 1467.08 Q668.239 1467.5 666.295 1468.38 L666.295 1451.02 Z" fill="#000000" fill-rule="evenodd" fill-opacity="1" /><path clip-path="url(#clip280)" d="M706.41 1454.1 Q702.799 1454.1 700.97 1457.66 Q699.165 1461.2 699.165 1468.33 Q699.165 1475.44 700.97 1479.01 Q702.799 1482.55 706.41 1482.55 Q710.044 1482.55 711.85 1479.01 Q713.679 1475.44 713.679 1468.33 Q713.679 1461.2 711.85 1457.66 Q710.044 1454.1 706.41 1454.1 M706.41 1450.39 Q712.22 1450.39 715.276 1455 Q718.355 1459.58 718.355 1468.33 Q718.355 1477.06 715.276 1481.67 Q712.22 1486.25 706.41 1486.25 Q700.6 1486.25 697.521 1481.67 Q694.466 1477.06 694.466 1468.33 Q694.466 1459.58 697.521 1455 Q700.6 1450.39 706.41 1450.39 Z" fill="#000000" fill-rule="evenodd" fill-opacity="1" /><path clip-path="url(#clip280)" d="M736.572 1454.1 Q732.961 1454.1 731.132 1457.66 Q729.327 1461.2 729.327 1468.33 Q729.327 1475.44 731.132 1479.01 Q732.961 1482.55 736.572 1482.55 Q740.206 1482.55 742.012 1479.01 Q743.841 1475.44 743.841 1468.33 Q743.841 1461.2 742.012 1457.66 Q740.206 1454.1 736.572 1454.1 M736.572 1450.39 Q742.382 1450.39 745.438 1455 Q748.516 1459.58 748.516 1468.33 Q748.516 1477.06 745.438 1481.67 Q742.382 1486.25 736.572 1486.25 Q730.762 1486.25 727.683 1481.67 Q724.628 1477.06 724.628 1468.33 Q724.628 1459.58 727.683 1455 Q730.762 1450.39 736.572 1450.39 Z" fill="#000000" fill-rule="evenodd" fill-opacity="1" /><path clip-path="url(#clip280)" d="M1048.06 1481.64 L1055.7 1481.64 L1055.7 1455.28 L1047.39 1456.95 L1047.39 1452.69 L1055.65 1451.02 L1060.33 1451.02 L1060.33 1481.64 L1067.97 1481.64 L1067.97 1485.58 L1048.06 1485.58 L1048.06 1481.64 Z" fill="#000000" fill-rule="evenodd" fill-opacity="1" /><path clip-path="url(#clip280)" d="M1087.41 1454.1 Q1083.8 1454.1 1081.97 1457.66 Q1080.17 1461.2 1080.17 1468.33 Q1080.17 1475.44 1081.97 1479.01 Q1083.8 1482.55 1087.41 1482.55 Q1091.05 1482.55 1092.85 1479.01 Q1094.68 1475.44 1094.68 1468.33 Q1094.68 1461.2 1092.85 1457.66 Q1091.05 1454.1 1087.41 1454.1 M1087.41 1450.39 Q1093.22 1450.39 1096.28 1455 Q1099.36 1459.58 1099.36 1468.33 Q1099.36 1477.06 1096.28 1481.67 Q1093.22 1486.25 1087.41 1486.25 Q1081.6 1486.25 1078.52 1481.67 Q1075.47 1477.06 1075.47 1468.33 Q1075.47 1459.58 1078.52 1455 Q1081.6 1450.39 1087.41 1450.39 Z" fill="#000000" fill-rule="evenodd" fill-opacity="1" /><path clip-path="url(#clip280)" d="M1117.58 1454.1 Q1113.96 1454.1 1112.14 1457.66 Q1110.33 1461.2 1110.33 1468.33 Q1110.33 1475.44 1112.14 1479.01 Q1113.96 1482.55 1117.58 1482.55 Q1121.21 1482.55 1123.02 1479.01 Q1124.84 1475.44 1124.84 1468.33 Q1124.84 1461.2 1123.02 1457.66 Q1121.21 1454.1 1117.58 1454.1 M1117.58 1450.39 Q1123.39 1450.39 1126.44 1455 Q1129.52 1459.58 1129.52 1468.33 Q1129.52 1477.06 1126.44 1481.67 Q1123.39 1486.25 1117.58 1486.25 Q1111.77 1486.25 1108.69 1481.67 Q1105.63 1477.06 1105.63 1468.33 Q1105.63 1459.58 1108.69 1455 Q1111.77 1450.39 1117.58 1450.39 Z" fill="#000000" fill-rule="evenodd" fill-opacity="1" /><path clip-path="url(#clip280)" d="M1147.74 1454.1 Q1144.13 1454.1 1142.3 1457.66 Q1140.49 1461.2 1140.49 1468.33 Q1140.49 1475.44 1142.3 1479.01 Q1144.13 1482.55 1147.74 1482.55 Q1151.37 1482.55 1153.18 1479.01 Q1155.01 1475.44 1155.01 1468.33 Q1155.01 1461.2 1153.18 1457.66 Q1151.37 1454.1 1147.74 1454.1 M1147.74 1450.39 Q1153.55 1450.39 1156.6 1455 Q1159.68 1459.58 1159.68 1468.33 Q1159.68 1477.06 1156.6 1481.67 Q1153.55 1486.25 1147.74 1486.25 Q1141.93 1486.25 1138.85 1481.67 Q1135.79 1477.06 1135.79 1468.33 Q1135.79 1459.58 1138.85 1455 Q1141.93 1450.39 1147.74 1450.39 Z" fill="#000000" fill-rule="evenodd" fill-opacity="1" /><path clip-path="url(#clip280)" d="M1444.92 1481.64 L1452.56 1481.64 L1452.56 1455.28 L1444.25 1456.95 L1444.25 1452.69 L1452.51 1451.02 L1457.19 1451.02 L1457.19 1481.64 L1464.83 1481.64 L1464.83 1485.58 L1444.92 1485.58 L1444.92 1481.64 Z" fill="#000000" fill-rule="evenodd" fill-opacity="1" /><path clip-path="url(#clip280)" d="M1474.32 1451.02 L1492.68 1451.02 L1492.68 1454.96 L1478.6 1454.96 L1478.6 1463.43 Q1479.62 1463.08 1480.64 1462.92 Q1481.66 1462.73 1482.68 1462.73 Q1488.46 1462.73 1491.84 1465.9 Q1495.22 1469.08 1495.22 1474.49 Q1495.22 1480.07 1491.75 1483.17 Q1488.28 1486.25 1481.96 1486.25 Q1479.78 1486.25 1477.51 1485.88 Q1475.27 1485.51 1472.86 1484.77 L1472.86 1480.07 Q1474.94 1481.2 1477.17 1481.76 Q1479.39 1482.32 1481.87 1482.32 Q1485.87 1482.32 1488.21 1480.21 Q1490.55 1478.1 1490.55 1474.49 Q1490.55 1470.88 1488.21 1468.77 Q1485.87 1466.67 1481.87 1466.67 Q1479.99 1466.67 1478.12 1467.08 Q1476.26 1467.5 1474.32 1468.38 L1474.32 1451.02 Z" fill="#000000" fill-rule="evenodd" fill-opacity="1" /><path clip-path="url(#clip280)" d="M1514.44 1454.1 Q1510.82 1454.1 1509 1457.66 Q1507.19 1461.2 1507.19 1468.33 Q1507.19 1475.44 1509 1479.01 Q1510.82 1482.55 1514.44 1482.55 Q1518.07 1482.55 1519.88 1479.01 Q1521.7 1475.44 1521.7 1468.33 Q1521.7 1461.2 1519.88 1457.66 Q1518.07 1454.1 1514.44 1454.1 M1514.44 1450.39 Q1520.25 1450.39 1523.3 1455 Q1526.38 1459.58 1526.38 1468.33 Q1526.38 1477.06 1523.3 1481.67 Q1520.25 1486.25 1514.44 1486.25 Q1508.63 1486.25 1505.55 1481.67 Q1502.49 1477.06 1502.49 1468.33 Q1502.49 1459.58 1505.55 1455 Q1508.63 1450.39 1514.44 1450.39 Z" fill="#000000" fill-rule="evenodd" fill-opacity="1" /><path clip-path="url(#clip280)" d="M1544.6 1454.1 Q1540.99 1454.1 1539.16 1457.66 Q1537.35 1461.2 1537.35 1468.33 Q1537.35 1475.44 1539.16 1479.01 Q1540.99 1482.55 1544.6 1482.55 Q1548.23 1482.55 1550.04 1479.01 Q1551.87 1475.44 1551.87 1468.33 Q1551.87 1461.2 1550.04 1457.66 Q1548.23 1454.1 1544.6 1454.1 M1544.6 1450.39 Q1550.41 1450.39 1553.46 1455 Q1556.54 1459.58 1556.54 1468.33 Q1556.54 1477.06 1553.46 1481.67 Q1550.41 1486.25 1544.6 1486.25 Q1538.79 1486.25 1535.71 1481.67 Q1532.65 1477.06 1532.65 1468.33 Q1532.65 1459.58 1535.71 1455 Q1538.79 1450.39 1544.6 1450.39 Z" fill="#000000" fill-rule="evenodd" fill-opacity="1" /><path clip-path="url(#clip280)" d="M1845.87 1481.64 L1862.19 1481.64 L1862.19 1485.58 L1840.24 1485.58 L1840.24 1481.64 Q1842.9 1478.89 1847.49 1474.26 Q1852.09 1469.61 1853.27 1468.27 Q1855.52 1465.74 1856.4 1464.01 Q1857.3 1462.25 1857.3 1460.56 Q1857.3 1457.8 1855.36 1456.07 Q1853.44 1454.33 1850.33 1454.33 Q1848.14 1454.33 1845.68 1455.09 Q1843.25 1455.86 1840.47 1457.41 L1840.47 1452.69 Q1843.3 1451.55 1845.75 1450.97 Q1848.21 1450.39 1850.24 1450.39 Q1855.61 1450.39 1858.81 1453.08 Q1862 1455.77 1862 1460.26 Q1862 1462.39 1861.19 1464.31 Q1860.4 1466.2 1858.3 1468.8 Q1857.72 1469.47 1854.62 1472.69 Q1851.52 1475.88 1845.87 1481.64 Z" fill="#000000" fill-rule="evenodd" fill-opacity="1" /><path clip-path="url(#clip280)" d="M1882 1454.1 Q1878.39 1454.1 1876.56 1457.66 Q1874.76 1461.2 1874.76 1468.33 Q1874.76 1475.44 1876.56 1479.01 Q1878.39 1482.55 1882 1482.55 Q1885.64 1482.55 1887.44 1479.01 Q1889.27 1475.44 1889.27 1468.33 Q1889.27 1461.2 1887.44 1457.66 Q1885.64 1454.1 1882 1454.1 M1882 1450.39 Q1887.81 1450.39 1890.87 1455 Q1893.95 1459.58 1893.95 1468.33 Q1893.95 1477.06 1890.87 1481.67 Q1887.81 1486.25 1882 1486.25 Q1876.19 1486.25 1873.11 1481.67 Q1870.06 1477.06 1870.06 1468.33 Q1870.06 1459.58 1873.11 1455 Q1876.19 1450.39 1882 1450.39 Z" fill="#000000" fill-rule="evenodd" fill-opacity="1" /><path clip-path="url(#clip280)" d="M1912.16 1454.1 Q1908.55 1454.1 1906.72 1457.66 Q1904.92 1461.2 1904.92 1468.33 Q1904.92 1475.44 1906.72 1479.01 Q1908.55 1482.55 1912.16 1482.55 Q1915.8 1482.55 1917.6 1479.01 Q1919.43 1475.44 1919.43 1468.33 Q1919.43 1461.2 1917.6 1457.66 Q1915.8 1454.1 1912.16 1454.1 M1912.16 1450.39 Q1917.97 1450.39 1921.03 1455 Q1924.11 1459.58 1924.11 1468.33 Q1924.11 1477.06 1921.03 1481.67 Q1917.97 1486.25 1912.16 1486.25 Q1906.35 1486.25 1903.27 1481.67 Q1900.22 1477.06 1900.22 1468.33 Q1900.22 1459.58 1903.27 1455 Q1906.35 1450.39 1912.16 1450.39 Z" fill="#000000" fill-rule="evenodd" fill-opacity="1" /><path clip-path="url(#clip280)" d="M1942.33 1454.1 Q1938.71 1454.1 1936.89 1457.66 Q1935.08 1461.2 1935.08 1468.33 Q1935.08 1475.44 1936.89 1479.01 Q1938.71 1482.55 1942.33 1482.55 Q1945.96 1482.55 1947.77 1479.01 Q1949.59 1475.44 1949.59 1468.33 Q1949.59 1461.2 1947.77 1457.66 Q1945.96 1454.1 1942.33 1454.1 M1942.33 1450.39 Q1948.14 1450.39 1951.19 1455 Q1954.27 1459.58 1954.27 1468.33 Q1954.27 1477.06 1951.19 1481.67 Q1948.14 1486.25 1942.33 1486.25 Q1936.52 1486.25 1933.44 1481.67 Q1930.38 1477.06 1930.38 1468.33 Q1930.38 1459.58 1933.44 1455 Q1936.52 1450.39 1942.33 1450.39 Z" fill="#000000" fill-rule="evenodd" fill-opacity="1" /><path clip-path="url(#clip280)" d="M2242.73 1481.64 L2259.05 1481.64 L2259.05 1485.58 L2237.1 1485.58 L2237.1 1481.64 Q2239.76 1478.89 2244.35 1474.26 Q2248.95 1469.61 2250.13 1468.27 Q2252.38 1465.74 2253.26 1464.01 Q2254.16 1462.25 2254.16 1460.56 Q2254.16 1457.8 2252.22 1456.07 Q2250.3 1454.33 2247.19 1454.33 Q2245 1454.33 2242.54 1455.09 Q2240.11 1455.86 2237.33 1457.41 L2237.33 1452.69 Q2240.16 1451.55 2242.61 1450.97 Q2245.07 1450.39 2247.1 1450.39 Q2252.47 1450.39 2255.67 1453.08 Q2258.86 1455.77 2258.86 1460.26 Q2258.86 1462.39 2258.05 1464.31 Q2257.26 1466.2 2255.16 1468.8 Q2254.58 1469.47 2251.48 1472.69 Q2248.38 1475.88 2242.73 1481.64 Z" fill="#000000" fill-rule="evenodd" fill-opacity="1" /><path clip-path="url(#clip280)" d="M2268.91 1451.02 L2287.26 1451.02 L2287.26 1454.96 L2273.19 1454.96 L2273.19 1463.43 Q2274.21 1463.08 2275.23 1462.92 Q2276.25 1462.73 2277.26 1462.73 Q2283.05 1462.73 2286.43 1465.9 Q2289.81 1469.08 2289.81 1474.49 Q2289.81 1480.07 2286.34 1483.17 Q2282.87 1486.25 2276.55 1486.25 Q2274.37 1486.25 2272.1 1485.88 Q2269.86 1485.51 2267.45 1484.77 L2267.45 1480.07 Q2269.53 1481.2 2271.75 1481.76 Q2273.98 1482.32 2276.45 1482.32 Q2280.46 1482.32 2282.8 1480.21 Q2285.13 1478.1 2285.13 1474.49 Q2285.13 1470.88 2282.8 1468.77 Q2280.46 1466.67 2276.45 1466.67 Q2274.58 1466.67 2272.7 1467.08 Q2270.85 1467.5 2268.91 1468.38 L2268.91 1451.02 Z" fill="#000000" fill-rule="evenodd" fill-opacity="1" /><path clip-path="url(#clip280)" d="M2309.02 1454.1 Q2305.41 1454.1 2303.58 1457.66 Q2301.78 1461.2 2301.78 1468.33 Q2301.78 1475.44 2303.58 1479.01 Q2305.41 1482.55 2309.02 1482.55 Q2312.66 1482.55 2314.46 1479.01 Q2316.29 1475.44 2316.29 1468.33 Q2316.29 1461.2 2314.46 1457.66 Q2312.66 1454.1 2309.02 1454.1 M2309.02 1450.39 Q2314.83 1450.39 2317.89 1455 Q2320.97 1459.58 2320.97 1468.33 Q2320.97 1477.06 2317.89 1481.67 Q2314.83 1486.25 2309.02 1486.25 Q2303.21 1486.25 2300.13 1481.67 Q2297.08 1477.06 2297.08 1468.33 Q2297.08 1459.58 2300.13 1455 Q2303.21 1450.39 2309.02 1450.39 Z" fill="#000000" fill-rule="evenodd" fill-opacity="1" /><path clip-path="url(#clip280)" d="M2339.19 1454.1 Q2335.57 1454.1 2333.75 1457.66 Q2331.94 1461.2 2331.94 1468.33 Q2331.94 1475.44 2333.75 1479.01 Q2335.57 1482.55 2339.19 1482.55 Q2342.82 1482.55 2344.62 1479.01 Q2346.45 1475.44 2346.45 1468.33 Q2346.45 1461.2 2344.62 1457.66 Q2342.82 1454.1 2339.19 1454.1 M2339.19 1450.39 Q2345 1450.39 2348.05 1455 Q2351.13 1459.58 2351.13 1468.33 Q2351.13 1477.06 2348.05 1481.67 Q2345 1486.25 2339.19 1486.25 Q2333.37 1486.25 2330.3 1481.67 Q2327.24 1477.06 2327.24 1468.33 Q2327.24 1459.58 2330.3 1455 Q2333.37 1450.39 2339.19 1450.39 Z" fill="#000000" fill-rule="evenodd" fill-opacity="1" /><path clip-path="url(#clip280)" d="M1123.17 1537.27 L1114.45 1560.92 L1131.92 1560.92 L1123.17 1537.27 M1119.54 1530.94 L1126.83 1530.94 L1144.94 1578.46 L1138.25 1578.46 L1133.92 1566.27 L1112.5 1566.27 L1108.18 1578.46 L1101.4 1578.46 L1119.54 1530.94 Z" fill="#000000" fill-rule="evenodd" fill-opacity="1" /><path clip-path="url(#clip280)" d="M1151.62 1528.94 L1157.48 1528.94 L1157.48 1578.46 L1151.62 1578.46 L1151.62 1528.94 Z" fill="#000000" fill-rule="evenodd" fill-opacity="1" /><path clip-path="url(#clip280)" d="M1175.52 1532.69 L1175.52 1542.81 L1187.59 1542.81 L1187.59 1547.36 L1175.52 1547.36 L1175.52 1566.72 Q1175.52 1571.08 1176.7 1572.32 Q1177.91 1573.56 1181.57 1573.56 L1187.59 1573.56 L1187.59 1578.46 L1181.57 1578.46 Q1174.79 1578.46 1172.21 1575.95 Q1169.64 1573.4 1169.64 1566.72 L1169.64 1547.36 L1165.34 1547.36 L1165.34 1542.81 L1169.64 1542.81 L1169.64 1532.69 L1175.52 1532.69 Z" fill="#000000" fill-rule="evenodd" fill-opacity="1" /><path clip-path="url(#clip280)" d="M1195.29 1542.81 L1201.15 1542.81 L1201.15 1578.46 L1195.29 1578.46 L1195.29 1542.81 M1195.29 1528.94 L1201.15 1528.94 L1201.15 1536.35 L1195.29 1536.35 L1195.29 1528.94 Z" fill="#000000" fill-rule="evenodd" fill-opacity="1" /><path clip-path="url(#clip280)" d="M1219.19 1532.69 L1219.19 1542.81 L1231.26 1542.81 L1231.26 1547.36 L1219.19 1547.36 L1219.19 1566.72 Q1219.19 1571.08 1220.37 1572.32 Q1221.58 1573.56 1225.24 1573.56 L1231.26 1573.56 L1231.26 1578.46 L1225.24 1578.46 Q1218.46 1578.46 1215.88 1575.95 Q1213.3 1573.4 1213.3 1566.72 L1213.3 1547.36 L1209.01 1547.36 L1209.01 1542.81 L1213.3 1542.81 L1213.3 1532.69 L1219.19 1532.69 Z" fill="#000000" fill-rule="evenodd" fill-opacity="1" /><path clip-path="url(#clip280)" d="M1238.35 1564.39 L1238.35 1542.81 L1244.21 1542.81 L1244.21 1564.17 Q1244.21 1569.23 1246.18 1571.78 Q1248.16 1574.29 1252.1 1574.29 Q1256.85 1574.29 1259.58 1571.27 Q1262.35 1568.24 1262.35 1563.02 L1262.35 1542.81 L1268.21 1542.81 L1268.21 1578.46 L1262.35 1578.46 L1262.35 1572.99 Q1260.22 1576.23 1257.39 1577.82 Q1254.59 1579.38 1250.86 1579.38 Q1244.72 1579.38 1241.54 1575.56 Q1238.35 1571.74 1238.35 1564.39 M1253.09 1541.95 L1253.09 1541.95 Z" fill="#000000" fill-rule="evenodd" fill-opacity="1" /><path clip-path="url(#clip280)" d="M1303.73 1548.22 L1303.73 1528.94 L1309.59 1528.94 L1309.59 1578.46 L1303.73 1578.46 L1303.73 1573.11 Q1301.88 1576.3 1299.05 1577.86 Q1296.25 1579.38 1292.3 1579.38 Q1285.84 1579.38 1281.77 1574.23 Q1277.73 1569.07 1277.73 1560.67 Q1277.73 1552.27 1281.77 1547.11 Q1285.84 1541.95 1292.3 1541.95 Q1296.25 1541.95 1299.05 1543.51 Q1301.88 1545.04 1303.73 1548.22 M1283.77 1560.67 Q1283.77 1567.13 1286.41 1570.82 Q1289.09 1574.48 1293.74 1574.48 Q1298.38 1574.48 1301.06 1570.82 Q1303.73 1567.13 1303.73 1560.67 Q1303.73 1554.21 1301.06 1550.55 Q1298.38 1546.85 1293.74 1546.85 Q1289.09 1546.85 1286.41 1550.55 Q1283.77 1554.21 1283.77 1560.67 Z" fill="#000000" fill-rule="evenodd" fill-opacity="1" /><path clip-path="url(#clip280)" d="M1352.14 1559.17 L1352.14 1562.04 L1325.21 1562.04 Q1325.6 1568.08 1328.84 1571.27 Q1332.12 1574.42 1337.95 1574.42 Q1341.32 1574.42 1344.47 1573.59 Q1347.65 1572.76 1350.77 1571.11 L1350.77 1576.65 Q1347.62 1577.98 1344.31 1578.68 Q1341 1579.38 1337.6 1579.38 Q1329.07 1579.38 1324.07 1574.42 Q1319.1 1569.45 1319.1 1560.99 Q1319.1 1552.23 1323.81 1547.11 Q1328.56 1541.95 1336.58 1541.95 Q1343.77 1541.95 1347.94 1546.6 Q1352.14 1551.22 1352.14 1559.17 M1346.28 1557.45 Q1346.22 1552.65 1343.58 1549.78 Q1340.97 1546.92 1336.64 1546.92 Q1331.74 1546.92 1328.78 1549.69 Q1325.85 1552.46 1325.4 1557.49 L1346.28 1557.45 Z" fill="#000000" fill-rule="evenodd" fill-opacity="1" /><path clip-path="url(#clip280)" d="M1396.54 1529 Q1392.28 1536.32 1390.21 1543.48 Q1388.14 1550.64 1388.14 1557.99 Q1388.14 1565.35 1390.21 1572.57 Q1392.31 1579.77 1396.54 1587.05 L1391.45 1587.05 Q1386.67 1579.57 1384.29 1572.35 Q1381.93 1565.12 1381.93 1557.99 Q1381.93 1550.9 1384.29 1543.7 Q1386.64 1536.51 1391.45 1529 L1396.54 1529 Z" fill="#000000" fill-rule="evenodd" fill-opacity="1" /><path clip-path="url(#clip280)" d="M1426.4 1553.47 Q1426.4 1555.3 1425.27 1556.4 Q1424.17 1557.49 1422.79 1557.49 Q1421.57 1557.49 1420.92 1556.79 Q1420.28 1556.08 1420.28 1555.18 Q1420.28 1554.79 1420.44 1554.31 Q1420.6 1553.79 1420.95 1553.18 Q1421.34 1552.57 1422.15 1552.12 Q1422.95 1551.67 1424.05 1551.6 Q1423.82 1551.38 1423.76 1551.34 Q1423.27 1550.96 1422.37 1550.83 Q1422.24 1550.76 1421.79 1550.76 Q1419.57 1550.76 1417.31 1552.41 Q1415.09 1554.02 1412.35 1557.08 Q1408.91 1560.65 1406.69 1561.97 Q1416.44 1563.26 1416.44 1568.9 Q1416.44 1569.83 1416.19 1570.96 Q1415.67 1573.08 1415.67 1574.63 Q1415.67 1577.72 1417.77 1577.72 Q1419.79 1577.72 1421.08 1575.66 Q1422.4 1573.6 1423.5 1569.57 Q1423.66 1568.83 1423.82 1568.61 Q1423.98 1568.38 1424.43 1568.38 Q1425.24 1568.38 1425.24 1569.02 Q1424.5 1572.79 1422.85 1575.69 Q1420.76 1579.2 1417.64 1579.2 Q1415.03 1579.2 1413.29 1577.4 Q1411.58 1575.56 1411.58 1572.66 Q1411.58 1571.96 1411.84 1570.34 Q1412.03 1569.7 1412.03 1568.96 Q1412.03 1567.45 1411.2 1566.32 Q1410.36 1565.16 1409.01 1564.58 Q1407.65 1564 1406.53 1563.74 Q1405.43 1563.45 1404.37 1563.36 Q1401.15 1576.98 1400.7 1577.82 Q1400.41 1578.4 1399.76 1578.78 Q1399.12 1579.2 1398.44 1579.2 Q1397.8 1579.2 1397.15 1578.75 Q1396.54 1578.33 1396.54 1577.33 Q1396.54 1576.82 1396.8 1575.88 L1406.36 1537.88 L1406.56 1536.59 Q1406.56 1536.21 1406.4 1536.01 Q1406.27 1535.79 1405.49 1535.63 Q1404.75 1535.47 1403.27 1535.47 Q1402.66 1535.47 1402.37 1535.43 Q1402.11 1535.4 1401.89 1535.24 Q1401.66 1535.05 1401.66 1534.66 Q1401.66 1534.11 1401.89 1533.82 Q1402.15 1533.5 1402.34 1533.44 Q1402.53 1533.37 1402.92 1533.34 Q1403.47 1533.31 1405.3 1533.15 Q1407.14 1532.95 1408.72 1532.83 Q1410.29 1532.7 1410.97 1532.7 Q1411.36 1532.7 1411.55 1532.89 Q1411.78 1533.05 1411.81 1533.24 L1411.84 1533.4 L1404.98 1561.23 Q1407.81 1560.1 1412.29 1555.11 Q1417.48 1549.31 1421.92 1549.31 Q1424.01 1549.31 1425.2 1550.6 Q1426.4 1551.86 1426.4 1553.47 Z" fill="#000000" fill-rule="evenodd" fill-opacity="1" /><path clip-path="url(#clip280)" d="M1486.2 1569.02 Q1486.2 1569.28 1485.91 1570.28 Q1485.62 1571.28 1484.91 1572.82 Q1484.24 1574.37 1483.27 1575.79 Q1482.34 1577.17 1480.79 1578.2 Q1479.28 1579.2 1477.54 1579.2 Q1475.22 1579.2 1473.67 1577.66 Q1472.13 1576.11 1472.13 1573.79 Q1472.13 1572.53 1473 1570.15 Q1477.09 1559.27 1477.09 1555.37 Q1477.09 1550.76 1473.51 1550.76 Q1471.48 1550.76 1469.65 1551.6 Q1467.81 1552.44 1466.62 1553.6 Q1465.43 1554.76 1464.5 1556.08 Q1463.56 1557.4 1463.14 1558.27 Q1462.76 1559.14 1462.66 1559.52 L1458.7 1575.43 Q1458.38 1576.79 1458.15 1577.43 Q1457.93 1578.07 1457.31 1578.62 Q1456.7 1579.2 1455.74 1579.2 Q1454.93 1579.2 1454.35 1578.72 Q1453.8 1578.24 1453.8 1577.4 Q1453.8 1577.27 1453.96 1576.59 Q1454.13 1575.92 1454.35 1574.98 Q1454.58 1574.05 1454.67 1573.5 Q1455.83 1569.12 1455.99 1568.51 L1457.83 1560.84 Q1458.83 1557.04 1458.83 1555.37 Q1458.83 1550.76 1455.25 1550.76 Q1453.48 1550.76 1451.81 1551.44 Q1450.16 1552.08 1449.04 1552.99 Q1447.91 1553.89 1446.88 1555.14 Q1445.88 1556.37 1445.37 1557.2 Q1444.88 1558.01 1444.5 1558.82 L1443.66 1562.1 Q1443.47 1563 1442.53 1566.51 L1441.08 1572.47 Q1440.05 1576.91 1439.83 1577.33 Q1439.5 1578.24 1438.8 1578.72 Q1438.09 1579.2 1437.38 1579.2 Q1436.57 1579.2 1436.03 1578.72 Q1435.48 1578.24 1435.48 1577.4 Q1435.48 1577.27 1435.58 1576.79 Q1435.67 1576.3 1435.83 1575.63 Q1435.99 1574.95 1436.06 1574.56 L1439.89 1559.33 Q1440.6 1556.56 1440.76 1555.69 Q1440.95 1554.79 1440.95 1553.79 Q1440.95 1550.76 1438.89 1550.76 Q1437.22 1550.76 1436.12 1552.76 Q1435.03 1554.76 1434.09 1558.62 Q1433.8 1559.68 1433.61 1559.91 Q1433.45 1560.14 1432.97 1560.14 Q1432.16 1560.1 1432.16 1559.46 Q1432.16 1559.3 1432.42 1558.27 Q1432.68 1557.24 1433.16 1555.69 Q1433.68 1554.11 1434.22 1553.08 Q1434.54 1552.41 1434.83 1551.96 Q1435.12 1551.5 1435.7 1550.8 Q1436.28 1550.09 1437.15 1549.7 Q1438.02 1549.31 1439.09 1549.31 Q1441.44 1549.31 1443.18 1550.83 Q1444.95 1552.34 1445.17 1555.05 Q1449.46 1549.31 1455.45 1549.31 Q1458.83 1549.31 1460.86 1551.02 Q1462.76 1552.66 1462.98 1555.69 Q1467.43 1549.31 1473.74 1549.31 Q1477.38 1549.31 1479.34 1551.21 Q1481.31 1553.08 1481.31 1556.37 Q1481.31 1558.07 1480.44 1561.33 Q1479.57 1564.55 1478.99 1566.16 Q1478.41 1567.77 1477.28 1570.86 Q1476.09 1573.82 1476.09 1575.56 Q1476.09 1576.69 1476.48 1577.2 Q1476.86 1577.72 1477.7 1577.72 Q1478.99 1577.72 1480.12 1576.98 Q1481.24 1576.21 1482.05 1574.95 Q1482.89 1573.66 1483.43 1572.37 Q1483.98 1571.05 1484.4 1569.57 Q1484.66 1568.77 1484.79 1568.57 Q1484.95 1568.38 1485.4 1568.38 Q1486.2 1568.38 1486.2 1569.02 Z" fill="#000000" fill-rule="evenodd" fill-opacity="1" /><path clip-path="url(#clip280)" d="M1489.51 1529 L1494.61 1529 Q1499.38 1536.51 1501.74 1543.7 Q1504.12 1550.9 1504.12 1557.99 Q1504.12 1565.12 1501.74 1572.35 Q1499.38 1579.57 1494.61 1587.05 L1489.51 1587.05 Q1493.75 1579.77 1495.82 1572.57 Q1497.92 1565.35 1497.92 1557.99 Q1497.92 1550.64 1495.82 1543.48 Q1493.75 1536.32 1489.51 1529 Z" fill="#000000" fill-rule="evenodd" fill-opacity="1" /><polyline clip-path="url(#clip282)" style="stroke:#000000; stroke-linecap:butt; stroke-linejoin:round; stroke-width:2; stroke-opacity:0.1; fill:none" points="
  252.764,1423.18 2352.76,1423.18 
  "/>
<polyline clip-path="url(#clip282)" style="stroke:#000000; stroke-linecap:butt; stroke-linejoin:round; stroke-width:2; stroke-opacity:0.1; fill:none" points="
  252.764,1113.37 2352.76,1113.37 
  "/>
<polyline clip-path="url(#clip282)" style="stroke:#000000; stroke-linecap:butt; stroke-linejoin:round; stroke-width:2; stroke-opacity:0.1; fill:none" points="
  252.764,803.566 2352.76,803.566 
  "/>
<polyline clip-path="url(#clip282)" style="stroke:#000000; stroke-linecap:butt; stroke-linejoin:round; stroke-width:2; stroke-opacity:0.1; fill:none" points="
  252.764,493.759 2352.76,493.759 
  "/>
<polyline clip-path="url(#clip282)" style="stroke:#000000; stroke-linecap:butt; stroke-linejoin:round; stroke-width:2; stroke-opacity:0.1; fill:none" points="
  252.764,183.952 2352.76,183.952 
  "/>
<polyline clip-path="url(#clip280)" style="stroke:#000000; stroke-linecap:butt; stroke-linejoin:round; stroke-width:4; stroke-opacity:1; fill:none" points="
  252.764,1423.18 252.764,183.952 
  "/>
<polyline clip-path="url(#clip280)" style="stroke:#000000; stroke-linecap:butt; stroke-linejoin:round; stroke-width:4; stroke-opacity:1; fill:none" points="
  252.764,1423.18 271.662,1423.18 
  "/>
<polyline clip-path="url(#clip280)" style="stroke:#000000; stroke-linecap:butt; stroke-linejoin:round; stroke-width:4; stroke-opacity:1; fill:none" points="
  252.764,1113.37 271.662,1113.37 
  "/>
<polyline clip-path="url(#clip280)" style="stroke:#000000; stroke-linecap:butt; stroke-linejoin:round; stroke-width:4; stroke-opacity:1; fill:none" points="
  252.764,803.566 271.662,803.566 
  "/>
<polyline clip-path="url(#clip280)" style="stroke:#000000; stroke-linecap:butt; stroke-linejoin:round; stroke-width:4; stroke-opacity:1; fill:none" points="
  252.764,493.759 271.662,493.759 
  "/>
<polyline clip-path="url(#clip280)" style="stroke:#000000; stroke-linecap:butt; stroke-linejoin:round; stroke-width:4; stroke-opacity:1; fill:none" points="
  252.764,183.952 271.662,183.952 
  "/>
<path clip-path="url(#clip280)" d="M115.402 1442.97 L123.04 1442.97 L123.04 1416.61 L114.73 1418.27 L114.73 1414.01 L122.994 1412.35 L127.67 1412.35 L127.67 1442.97 L135.309 1442.97 L135.309 1446.91 L115.402 1446.91 L115.402 1442.97 Z" fill="#000000" fill-rule="evenodd" fill-opacity="1" /><path clip-path="url(#clip280)" d="M154.753 1415.43 Q151.142 1415.43 149.313 1418.99 Q147.508 1422.53 147.508 1429.66 Q147.508 1436.77 149.313 1440.33 Q151.142 1443.88 154.753 1443.88 Q158.388 1443.88 160.193 1440.33 Q162.022 1436.77 162.022 1429.66 Q162.022 1422.53 160.193 1418.99 Q158.388 1415.43 154.753 1415.43 M154.753 1411.72 Q160.563 1411.72 163.619 1416.33 Q166.698 1420.91 166.698 1429.66 Q166.698 1438.39 163.619 1443 Q160.563 1447.58 154.753 1447.58 Q148.943 1447.58 145.864 1443 Q142.809 1438.39 142.809 1429.66 Q142.809 1420.91 145.864 1416.33 Q148.943 1411.72 154.753 1411.72 Z" fill="#000000" fill-rule="evenodd" fill-opacity="1" /><path clip-path="url(#clip280)" d="M166.698 1405.82 L190.809 1405.82 L190.809 1409.02 L166.698 1409.02 L166.698 1405.82 Z" fill="#000000" fill-rule="evenodd" fill-opacity="1" /><path clip-path="url(#clip280)" d="M207.134 1406.16 Q204.426 1406.16 202.865 1407.61 Q201.323 1409.06 201.323 1411.6 Q201.323 1414.14 202.865 1415.59 Q204.426 1417.03 207.134 1417.03 Q209.843 1417.03 211.404 1415.59 Q212.965 1414.12 212.965 1411.6 Q212.965 1409.06 211.404 1407.61 Q209.861 1406.16 207.134 1406.16 M203.335 1404.54 Q200.89 1403.94 199.517 1402.27 Q198.163 1400.6 198.163 1398.19 Q198.163 1394.82 200.552 1392.87 Q202.959 1390.91 207.134 1390.91 Q211.329 1390.91 213.717 1392.87 Q216.106 1394.82 216.106 1398.19 Q216.106 1400.6 214.733 1402.27 Q213.379 1403.94 210.952 1404.54 Q213.698 1405.18 215.222 1407.05 Q216.764 1408.91 216.764 1411.6 Q216.764 1415.68 214.263 1417.86 Q211.78 1420.04 207.134 1420.04 Q202.489 1420.04 199.987 1417.86 Q197.505 1415.68 197.505 1411.6 Q197.505 1408.91 199.047 1407.05 Q200.589 1405.18 203.335 1404.54 M201.943 1398.55 Q201.943 1400.73 203.298 1401.95 Q204.671 1403.17 207.134 1403.17 Q209.579 1403.17 210.952 1401.95 Q212.344 1400.73 212.344 1398.55 Q212.344 1396.36 210.952 1395.14 Q209.579 1393.92 207.134 1393.92 Q204.671 1393.92 203.298 1395.14 Q201.943 1396.36 201.943 1398.55 Z" fill="#000000" fill-rule="evenodd" fill-opacity="1" /><path clip-path="url(#clip280)" d="M115.195 1133.17 L122.834 1133.17 L122.834 1106.8 L114.523 1108.47 L114.523 1104.21 L122.787 1102.54 L127.463 1102.54 L127.463 1133.17 L135.102 1133.17 L135.102 1137.1 L115.195 1137.1 L115.195 1133.17 Z" fill="#000000" fill-rule="evenodd" fill-opacity="1" /><path clip-path="url(#clip280)" d="M154.546 1105.62 Q150.935 1105.62 149.107 1109.18 Q147.301 1112.73 147.301 1119.86 Q147.301 1126.96 149.107 1130.53 Q150.935 1134.07 154.546 1134.07 Q158.181 1134.07 159.986 1130.53 Q161.815 1126.96 161.815 1119.86 Q161.815 1112.73 159.986 1109.18 Q158.181 1105.62 154.546 1105.62 M154.546 1101.92 Q160.357 1101.92 163.412 1106.52 Q166.491 1111.11 166.491 1119.86 Q166.491 1128.58 163.412 1133.19 Q160.357 1137.77 154.546 1137.77 Q148.736 1137.77 145.658 1133.19 Q142.602 1128.58 142.602 1119.86 Q142.602 1111.11 145.658 1106.52 Q148.736 1101.92 154.546 1101.92 Z" fill="#000000" fill-rule="evenodd" fill-opacity="1" /><path clip-path="url(#clip280)" d="M166.491 1096.02 L190.602 1096.02 L190.602 1099.21 L166.491 1099.21 L166.491 1096.02 Z" fill="#000000" fill-rule="evenodd" fill-opacity="1" /><path clip-path="url(#clip280)" d="M207.398 1094.14 Q204.84 1094.14 203.335 1095.89 Q201.849 1097.63 201.849 1100.68 Q201.849 1103.71 203.335 1105.48 Q204.84 1107.23 207.398 1107.23 Q209.956 1107.23 211.441 1105.48 Q212.946 1103.71 212.946 1100.68 Q212.946 1097.63 211.441 1095.89 Q209.956 1094.14 207.398 1094.14 M214.94 1082.23 L214.94 1085.69 Q213.51 1085.01 212.043 1084.66 Q210.595 1084.3 209.166 1084.3 Q205.404 1084.3 203.41 1086.84 Q201.436 1089.38 201.153 1094.51 Q202.263 1092.88 203.937 1092.01 Q205.611 1091.13 207.623 1091.13 Q211.855 1091.13 214.3 1093.7 Q216.764 1096.26 216.764 1100.68 Q216.764 1105.01 214.206 1107.62 Q211.648 1110.24 207.398 1110.24 Q202.526 1110.24 199.95 1106.51 Q197.373 1102.77 197.373 1095.68 Q197.373 1089.02 200.533 1085.07 Q203.693 1081.1 209.015 1081.1 Q210.445 1081.1 211.893 1081.38 Q213.36 1081.67 214.94 1082.23 Z" fill="#000000" fill-rule="evenodd" fill-opacity="1" /><path clip-path="url(#clip280)" d="M114.931 823.358 L122.57 823.358 L122.57 796.993 L114.26 798.659 L114.26 794.4 L122.524 792.734 L127.2 792.734 L127.2 823.358 L134.839 823.358 L134.839 827.294 L114.931 827.294 L114.931 823.358 Z" fill="#000000" fill-rule="evenodd" fill-opacity="1" /><path clip-path="url(#clip280)" d="M154.283 795.812 Q150.672 795.812 148.843 799.377 Q147.038 802.919 147.038 810.048 Q147.038 817.155 148.843 820.72 Q150.672 824.261 154.283 824.261 Q157.917 824.261 159.723 820.72 Q161.552 817.155 161.552 810.048 Q161.552 802.919 159.723 799.377 Q157.917 795.812 154.283 795.812 M154.283 792.109 Q160.093 792.109 163.149 796.715 Q166.227 801.298 166.227 810.048 Q166.227 818.775 163.149 823.382 Q160.093 827.965 154.283 827.965 Q148.473 827.965 145.394 823.382 Q142.339 818.775 142.339 810.048 Q142.339 801.298 145.394 796.715 Q148.473 792.109 154.283 792.109 Z" fill="#000000" fill-rule="evenodd" fill-opacity="1" /><path clip-path="url(#clip280)" d="M166.227 786.21 L190.339 786.21 L190.339 789.407 L166.227 789.407 L166.227 786.21 Z" fill="#000000" fill-rule="evenodd" fill-opacity="1" /><path clip-path="url(#clip280)" d="M208.978 775.113 L199.386 790.103 L208.978 790.103 L208.978 775.113 M207.981 771.803 L212.758 771.803 L212.758 790.103 L216.764 790.103 L216.764 793.263 L212.758 793.263 L212.758 799.883 L208.978 799.883 L208.978 793.263 L196.301 793.263 L196.301 789.595 L207.981 771.803 Z" fill="#000000" fill-rule="evenodd" fill-opacity="1" /><path clip-path="url(#clip280)" d="M116.624 513.551 L124.263 513.551 L124.263 487.186 L115.953 488.853 L115.953 484.593 L124.217 482.927 L128.893 482.927 L128.893 513.551 L136.531 513.551 L136.531 517.487 L116.624 517.487 L116.624 513.551 Z" fill="#000000" fill-rule="evenodd" fill-opacity="1" /><path clip-path="url(#clip280)" d="M155.976 486.005 Q152.365 486.005 150.536 489.57 Q148.73 493.112 148.73 500.241 Q148.73 507.348 150.536 510.913 Q152.365 514.454 155.976 514.454 Q159.61 514.454 161.416 510.913 Q163.244 507.348 163.244 500.241 Q163.244 493.112 161.416 489.57 Q159.61 486.005 155.976 486.005 M155.976 482.302 Q161.786 482.302 164.841 486.908 Q167.92 491.491 167.92 500.241 Q167.92 508.968 164.841 513.575 Q161.786 518.158 155.976 518.158 Q150.166 518.158 147.087 513.575 Q144.031 508.968 144.031 500.241 Q144.031 491.491 147.087 486.908 Q150.166 482.302 155.976 482.302 Z" fill="#000000" fill-rule="evenodd" fill-opacity="1" /><path clip-path="url(#clip280)" d="M167.92 476.403 L192.032 476.403 L192.032 479.6 L167.92 479.6 L167.92 476.403 Z" fill="#000000" fill-rule="evenodd" fill-opacity="1" /><path clip-path="url(#clip280)" d="M203.504 486.879 L216.764 486.879 L216.764 490.076 L198.934 490.076 L198.934 486.879 Q201.097 484.641 204.821 480.879 Q208.564 477.099 209.523 476.008 Q211.347 473.958 212.062 472.547 Q212.796 471.118 212.796 469.745 Q212.796 467.507 211.216 466.096 Q209.655 464.686 207.134 464.686 Q205.348 464.686 203.354 465.306 Q201.379 465.927 199.122 467.187 L199.122 463.35 Q201.417 462.429 203.41 461.959 Q205.404 461.488 207.059 461.488 Q211.423 461.488 214.018 463.67 Q216.613 465.852 216.613 469.501 Q216.613 471.231 215.955 472.792 Q215.316 474.334 213.604 476.441 Q213.134 476.986 210.614 479.6 Q208.094 482.196 203.504 486.879 Z" fill="#000000" fill-rule="evenodd" fill-opacity="1" /><path clip-path="url(#clip280)" d="M146.058 203.745 L153.697 203.745 L153.697 177.379 L145.387 179.046 L145.387 174.786 L153.651 173.12 L158.327 173.12 L158.327 203.745 L165.966 203.745 L165.966 207.68 L146.058 207.68 L146.058 203.745 Z" fill="#000000" fill-rule="evenodd" fill-opacity="1" /><path clip-path="url(#clip280)" d="M185.41 176.198 Q181.799 176.198 179.97 179.763 Q178.165 183.305 178.165 190.434 Q178.165 197.541 179.97 201.106 Q181.799 204.647 185.41 204.647 Q189.044 204.647 190.85 201.106 Q192.678 197.541 192.678 190.434 Q192.678 183.305 190.85 179.763 Q189.044 176.198 185.41 176.198 M185.41 172.495 Q191.22 172.495 194.276 177.101 Q197.354 181.684 197.354 190.434 Q197.354 199.161 194.276 203.768 Q191.22 208.351 185.41 208.351 Q179.6 208.351 176.521 203.768 Q173.466 199.161 173.466 190.434 Q173.466 181.684 176.521 177.101 Q179.6 172.495 185.41 172.495 Z" fill="#000000" fill-rule="evenodd" fill-opacity="1" /><path clip-path="url(#clip280)" d="M207.059 154.691 Q204.125 154.691 202.639 157.587 Q201.172 160.465 201.172 166.258 Q201.172 172.032 202.639 174.928 Q204.125 177.806 207.059 177.806 Q210.012 177.806 211.479 174.928 Q212.965 172.032 212.965 166.258 Q212.965 160.465 211.479 157.587 Q210.012 154.691 207.059 154.691 M207.059 151.682 Q211.78 151.682 214.263 155.424 Q216.764 159.148 216.764 166.258 Q216.764 173.348 214.263 177.091 Q211.78 180.815 207.059 180.815 Q202.338 180.815 199.837 177.091 Q197.354 173.348 197.354 166.258 Q197.354 159.148 199.837 155.424 Q202.338 151.682 207.059 151.682 Z" fill="#000000" fill-rule="evenodd" fill-opacity="1" /><path clip-path="url(#clip280)" d="M41.7242 1056.59 Q42.4244 1054.52 44.7161 1052.58 Q47.0077 1050.6 51.0181 1048.63 L64.0042 1042.1 L64.0042 1049.01 L51.8138 1055.09 Q47.0395 1057.45 45.48 1059.67 Q43.9204 1061.87 43.9204 1065.69 L43.9204 1072.69 L64.0042 1072.69 L64.0042 1079.12 L16.4842 1079.12 L16.4842 1064.61 Q16.4842 1056.46 19.8898 1052.45 Q23.2955 1048.44 30.1704 1048.44 Q34.6582 1048.44 37.6183 1050.54 Q40.5784 1052.61 41.7242 1056.59 M21.7677 1072.69 L38.6368 1072.69 L38.6368 1064.61 Q38.6368 1059.96 36.5043 1057.61 Q34.34 1055.22 30.1704 1055.22 Q26.0009 1055.22 23.9002 1057.61 Q21.7677 1059.96 21.7677 1064.61 L21.7677 1072.69 Z" fill="#000000" fill-rule="evenodd" fill-opacity="1" /><path clip-path="url(#clip280)" d="M46.0847 1019.32 Q46.0847 1026.41 47.7079 1029.15 Q49.3312 1031.89 53.2461 1031.89 Q56.3653 1031.89 58.2114 1029.85 Q60.0256 1027.78 60.0256 1024.25 Q60.0256 1019.38 56.5881 1016.45 Q53.1188 1013.49 47.3897 1013.49 L46.0847 1013.49 L46.0847 1019.32 M43.6657 1007.63 L64.0042 1007.63 L64.0042 1013.49 L58.5933 1013.49 Q61.8398 1015.5 63.3994 1018.49 Q64.9272 1021.48 64.9272 1025.81 Q64.9272 1031.28 61.8716 1034.53 Q58.7843 1037.74 53.6281 1037.74 Q47.6125 1037.74 44.5569 1033.73 Q41.5014 1029.69 41.5014 1021.7 L41.5014 1013.49 L40.9285 1013.49 Q36.8862 1013.49 34.6901 1016.16 Q32.4621 1018.81 32.4621 1023.61 Q32.4621 1026.67 33.1941 1029.56 Q33.9262 1032.46 35.3903 1035.13 L29.9795 1035.13 Q28.7381 1031.92 28.1334 1028.9 Q27.4968 1025.87 27.4968 1023.01 Q27.4968 1015.27 31.5072 1011.45 Q35.5176 1007.63 43.6657 1007.63 Z" fill="#000000" fill-rule="evenodd" fill-opacity="1" /><path clip-path="url(#clip280)" d="M18.2347 989.779 L28.3562 989.779 L28.3562 977.716 L32.9077 977.716 L32.9077 989.779 L52.2594 989.779 Q56.6199 989.779 57.8613 988.601 Q59.1026 987.392 59.1026 983.731 L59.1026 977.716 L64.0042 977.716 L64.0042 983.731 Q64.0042 990.511 61.4897 993.089 Q58.9434 995.667 52.2594 995.667 L32.9077 995.667 L32.9077 999.964 L28.3562 999.964 L28.3562 995.667 L18.2347 995.667 L18.2347 989.779 Z" fill="#000000" fill-rule="evenodd" fill-opacity="1" /><path clip-path="url(#clip280)" d="M44.7161 939.522 L47.5806 939.522 L47.5806 966.449 Q53.6281 966.067 56.8109 962.82 Q59.9619 959.542 59.9619 953.717 Q59.9619 950.343 59.1344 947.192 Q58.3069 944.009 56.6518 940.89 L62.1899 940.89 Q63.5267 944.041 64.227 947.351 Q64.9272 950.662 64.9272 954.067 Q64.9272 962.597 59.9619 967.594 Q54.9967 972.56 46.5303 972.56 Q37.7774 972.56 32.6531 967.849 Q27.4968 963.107 27.4968 955.086 Q27.4968 947.892 32.1438 943.723 Q36.7589 939.522 44.7161 939.522 M42.9973 945.378 Q38.1912 945.442 35.3266 948.083 Q32.4621 950.693 32.4621 955.022 Q32.4621 959.924 35.2312 962.884 Q38.0002 965.812 43.0292 966.258 L42.9973 945.378 Z" fill="#000000" fill-rule="evenodd" fill-opacity="1" /><path clip-path="url(#clip280)" d="M32.4621 895.375 Q32.4621 900.086 36.1542 902.823 Q39.8145 905.561 46.212 905.561 Q52.6095 905.561 56.3017 902.855 Q59.9619 900.118 59.9619 895.375 Q59.9619 890.697 56.2698 887.959 Q52.5777 885.222 46.212 885.222 Q39.8781 885.222 36.186 887.959 Q32.4621 890.697 32.4621 895.375 M27.4968 895.375 Q27.4968 887.737 32.4621 883.376 Q37.4273 879.016 46.212 879.016 Q54.9649 879.016 59.9619 883.376 Q64.9272 887.737 64.9272 895.375 Q64.9272 903.046 59.9619 907.407 Q54.9649 911.735 46.212 911.735 Q37.4273 911.735 32.4621 907.407 Q27.4968 903.046 27.4968 895.375 Z" fill="#000000" fill-rule="evenodd" fill-opacity="1" /><path clip-path="url(#clip280)" d="M14.479 851.261 L19.3487 851.261 L19.3487 856.863 Q19.3487 860.014 20.6219 861.255 Q21.895 862.465 25.2052 862.465 L28.3562 862.465 L28.3562 852.821 L32.9077 852.821 L32.9077 862.465 L64.0042 862.465 L64.0042 868.353 L32.9077 868.353 L32.9077 873.955 L28.3562 873.955 L28.3562 868.353 L25.8736 868.353 Q19.9216 868.353 17.2162 865.584 Q14.479 862.815 14.479 856.799 L14.479 851.261 Z" fill="#000000" fill-rule="evenodd" fill-opacity="1" /><path clip-path="url(#clip280)" d="M20.1444 789.8 L26.9239 789.8 Q23.9002 793.047 22.4043 796.739 Q20.9083 800.399 20.9083 804.537 Q20.9083 812.685 25.9054 817.014 Q30.8707 821.342 40.2919 821.342 Q49.6813 821.342 54.6784 817.014 Q59.6436 812.685 59.6436 804.537 Q59.6436 800.399 58.1477 796.739 Q56.6518 793.047 53.6281 789.8 L60.3439 789.8 Q62.6355 793.174 63.7814 796.962 Q64.9272 800.717 64.9272 804.919 Q64.9272 815.709 58.3387 821.915 Q51.7183 828.122 40.2919 828.122 Q28.8336 828.122 22.2451 821.915 Q15.6248 815.709 15.6248 804.919 Q15.6248 800.654 16.7706 796.898 Q17.8846 793.11 20.1444 789.8 Z" fill="#000000" fill-rule="evenodd" fill-opacity="1" /><path clip-path="url(#clip280)" d="M32.4621 766.311 Q32.4621 771.021 36.1542 773.759 Q39.8145 776.496 46.212 776.496 Q52.6095 776.496 56.3017 773.79 Q59.9619 771.053 59.9619 766.311 Q59.9619 761.632 56.2698 758.895 Q52.5777 756.157 46.212 756.157 Q39.8781 756.157 36.186 758.895 Q32.4621 761.632 32.4621 766.311 M27.4968 766.311 Q27.4968 758.672 32.4621 754.311 Q37.4273 749.951 46.212 749.951 Q54.9649 749.951 59.9619 754.311 Q64.9272 758.672 64.9272 766.311 Q64.9272 773.981 59.9619 778.342 Q54.9649 782.671 46.212 782.671 Q37.4273 782.671 32.4621 778.342 Q27.4968 773.981 27.4968 766.311 Z" fill="#000000" fill-rule="evenodd" fill-opacity="1" /><path clip-path="url(#clip280)" d="M14.479 740.243 L14.479 734.387 L64.0042 734.387 L64.0042 740.243 L14.479 740.243 Z" fill="#000000" fill-rule="evenodd" fill-opacity="1" /><path clip-path="url(#clip280)" d="M14.479 722.133 L14.479 716.276 L64.0042 716.276 L64.0042 722.133 L14.479 722.133 Z" fill="#000000" fill-rule="evenodd" fill-opacity="1" /><path clip-path="url(#clip280)" d="M28.3562 704.022 L28.3562 698.166 L64.0042 698.166 L64.0042 704.022 L28.3562 704.022 M14.479 704.022 L14.479 698.166 L21.895 698.166 L21.895 704.022 L14.479 704.022 Z" fill="#000000" fill-rule="evenodd" fill-opacity="1" /><path clip-path="url(#clip280)" d="M29.4065 663.186 L34.9447 663.186 Q33.6716 665.669 33.035 668.342 Q32.3984 671.016 32.3984 673.881 Q32.3984 678.241 33.7352 680.437 Q35.072 682.602 37.7456 682.602 Q39.7826 682.602 40.9603 681.042 Q42.1061 679.482 43.1565 674.772 L43.6021 672.767 Q44.9389 666.528 47.3897 663.918 Q49.8086 661.277 54.1691 661.277 Q59.1344 661.277 62.0308 665.223 Q64.9272 669.138 64.9272 676.013 Q64.9272 678.878 64.3543 681.997 Q63.8132 685.084 62.6992 688.522 L56.6518 688.522 Q58.3387 685.275 59.198 682.124 Q60.0256 678.973 60.0256 675.886 Q60.0256 671.748 58.6251 669.52 Q57.1929 667.292 54.6147 667.292 Q52.2276 667.292 50.9545 668.915 Q49.6813 670.507 48.5037 675.949 L48.0262 677.987 Q46.8804 683.429 44.5251 685.848 Q42.138 688.267 38.0002 688.267 Q32.9713 688.267 30.2341 684.702 Q27.4968 681.138 27.4968 674.581 Q27.4968 671.334 27.9743 668.47 Q28.4517 665.605 29.4065 663.186 Z" fill="#000000" fill-rule="evenodd" fill-opacity="1" /><path clip-path="url(#clip280)" d="M28.3562 651.951 L28.3562 646.094 L64.0042 646.094 L64.0042 651.951 L28.3562 651.951 M14.479 651.951 L14.479 646.094 L21.895 646.094 L21.895 651.951 L14.479 651.951 Z" fill="#000000" fill-rule="evenodd" fill-opacity="1" /><path clip-path="url(#clip280)" d="M32.4621 620.027 Q32.4621 624.737 36.1542 627.475 Q39.8145 630.212 46.212 630.212 Q52.6095 630.212 56.3017 627.506 Q59.9619 624.769 59.9619 620.027 Q59.9619 615.348 56.2698 612.611 Q52.5777 609.873 46.212 609.873 Q39.8781 609.873 36.186 612.611 Q32.4621 615.348 32.4621 620.027 M27.4968 620.027 Q27.4968 612.388 32.4621 608.027 Q37.4273 603.667 46.212 603.667 Q54.9649 603.667 59.9619 608.027 Q64.9272 612.388 64.9272 620.027 Q64.9272 627.697 59.9619 632.058 Q54.9649 636.387 46.212 636.387 Q37.4273 636.387 32.4621 632.058 Q27.4968 627.697 27.4968 620.027 Z" fill="#000000" fill-rule="evenodd" fill-opacity="1" /><path clip-path="url(#clip280)" d="M42.4881 564.327 L64.0042 564.327 L64.0042 570.183 L42.679 570.183 Q37.6183 570.183 35.1038 572.157 Q32.5894 574.13 32.5894 578.077 Q32.5894 582.819 35.6131 585.556 Q38.6368 588.294 43.8567 588.294 L64.0042 588.294 L64.0042 594.182 L28.3562 594.182 L28.3562 588.294 L33.8944 588.294 Q30.6797 586.193 29.0883 583.36 Q27.4968 580.496 27.4968 576.772 Q27.4968 570.629 31.3163 567.478 Q35.1038 564.327 42.4881 564.327 Z" fill="#000000" fill-rule="evenodd" fill-opacity="1" /><path clip-path="url(#clip280)" d="M29.4065 529.92 L34.9447 529.92 Q33.6716 532.403 33.035 535.076 Q32.3984 537.75 32.3984 540.615 Q32.3984 544.975 33.7352 547.171 Q35.072 549.336 37.7456 549.336 Q39.7826 549.336 40.9603 547.776 Q42.1061 546.216 43.1565 541.506 L43.6021 539.501 Q44.9389 533.262 47.3897 530.652 Q49.8086 528.01 54.1691 528.01 Q59.1344 528.01 62.0308 531.957 Q64.9272 535.872 64.9272 542.747 Q64.9272 545.612 64.3543 548.731 Q63.8132 551.818 62.6992 555.256 L56.6518 555.256 Q58.3387 552.009 59.198 548.858 Q60.0256 545.707 60.0256 542.62 Q60.0256 538.482 58.6251 536.254 Q57.1929 534.026 54.6147 534.026 Q52.2276 534.026 50.9545 535.649 Q49.6813 537.241 48.5037 542.683 L48.0262 544.72 Q46.8804 550.163 44.5251 552.582 Q42.138 555.001 38.0002 555.001 Q32.9713 555.001 30.2341 551.436 Q27.4968 547.871 27.4968 541.315 Q27.4968 538.068 27.9743 535.204 Q28.4517 532.339 29.4065 529.92 Z" fill="#000000" fill-rule="evenodd" fill-opacity="1" /><path clip-path="url(#clip280)" d="M532.683 59.3397 Q535.316 60.2309 537.787 63.1475 Q540.299 66.0642 542.81 71.1683 L551.115 87.696 L542.324 87.696 L534.587 72.181 Q531.589 66.1047 528.754 64.1197 Q525.959 62.1348 521.097 62.1348 L512.185 62.1348 L512.185 87.696 L504.003 87.696 L504.003 27.216 L522.475 27.216 Q532.845 27.216 537.949 31.5505 Q543.053 35.8849 543.053 44.6349 Q543.053 50.3467 540.38 54.114 Q537.747 57.8813 532.683 59.3397 M512.185 33.9405 L512.185 55.4103 L522.475 55.4103 Q528.389 55.4103 531.387 52.6962 Q534.425 49.9416 534.425 44.6349 Q534.425 39.3282 531.387 36.6546 Q528.389 33.9405 522.475 33.9405 L512.185 33.9405 Z" fill="#000000" fill-rule="evenodd" fill-opacity="1" /><path clip-path="url(#clip280)" d="M580.119 64.8894 Q571.086 64.8894 567.602 66.9554 Q564.118 69.0213 564.118 74.0039 Q564.118 77.9738 566.711 80.3234 Q569.344 82.6324 573.84 82.6324 Q580.038 82.6324 583.765 78.2574 Q587.532 73.8419 587.532 66.5503 L587.532 64.8894 L580.119 64.8894 M594.986 61.8107 L594.986 87.696 L587.532 87.696 L587.532 80.8095 Q584.98 84.9414 581.172 86.9263 Q577.365 88.8708 571.855 88.8708 Q564.888 88.8708 560.756 84.9819 Q556.664 81.0525 556.664 74.4901 Q556.664 66.8338 561.769 62.945 Q566.913 59.0561 577.081 59.0561 L587.532 59.0561 L587.532 58.3269 Q587.532 53.1823 584.13 50.3872 Q580.767 47.5515 574.65 47.5515 Q570.762 47.5515 567.075 48.4832 Q563.389 49.415 559.986 51.2784 L559.986 44.3918 Q564.078 42.812 567.926 42.0423 Q571.774 41.2321 575.42 41.2321 Q585.264 41.2321 590.125 46.3363 Q594.986 51.4404 594.986 61.8107 Z" fill="#000000" fill-rule="evenodd" fill-opacity="1" /><path clip-path="url(#clip280)" d="M617.712 29.444 L617.712 42.3259 L633.064 42.3259 L633.064 48.1187 L617.712 48.1187 L617.712 72.7482 Q617.712 78.2979 619.21 79.8778 Q620.75 81.4576 625.408 81.4576 L633.064 81.4576 L633.064 87.696 L625.408 87.696 Q616.78 87.696 613.499 84.4958 Q610.217 81.2551 610.217 72.7482 L610.217 48.1187 L604.749 48.1187 L604.749 42.3259 L610.217 42.3259 L610.217 29.444 L617.712 29.444 Z" fill="#000000" fill-rule="evenodd" fill-opacity="1" /><path clip-path="url(#clip280)" d="M681.675 63.1475 L681.675 66.7933 L647.405 66.7933 Q647.891 74.4901 652.023 78.541 Q656.195 82.5514 663.608 82.5514 Q667.902 82.5514 671.913 81.4981 Q675.964 80.4449 679.933 78.3384 L679.933 85.387 Q675.923 87.0884 671.71 87.9796 Q667.497 88.8708 663.163 88.8708 Q652.306 88.8708 645.946 82.5514 Q639.627 76.2319 639.627 65.4565 Q639.627 54.3165 645.622 47.7946 Q651.658 41.2321 661.866 41.2321 Q671.021 41.2321 676.328 47.1464 Q681.675 53.0203 681.675 63.1475 M674.222 60.96 Q674.141 54.8432 670.778 51.1974 Q667.457 47.5515 661.947 47.5515 Q655.709 47.5515 651.942 51.0758 Q648.215 54.6001 647.648 61.0005 L674.222 60.96 Z" fill="#000000" fill-rule="evenodd" fill-opacity="1" /><path clip-path="url(#clip280)" d="M737.861 47.5515 Q731.866 47.5515 728.382 52.2506 Q724.898 56.9091 724.898 65.0514 Q724.898 73.1938 728.342 77.8928 Q731.825 82.5514 737.861 82.5514 Q743.816 82.5514 747.3 77.8523 Q750.784 73.1533 750.784 65.0514 Q750.784 56.9901 747.3 52.2911 Q743.816 47.5515 737.861 47.5515 M737.861 41.2321 Q747.584 41.2321 753.133 47.5515 Q758.683 53.8709 758.683 65.0514 Q758.683 76.1914 753.133 82.5514 Q747.584 88.8708 737.861 88.8708 Q728.099 88.8708 722.549 82.5514 Q717.04 76.1914 717.04 65.0514 Q717.04 53.8709 722.549 47.5515 Q728.099 41.2321 737.861 41.2321 Z" fill="#000000" fill-rule="evenodd" fill-opacity="1" /><path clip-path="url(#clip280)" d="M794.007 24.6639 L794.007 30.8618 L786.877 30.8618 Q782.867 30.8618 781.287 32.4822 Q779.748 34.1025 779.748 38.3155 L779.748 42.3259 L792.022 42.3259 L792.022 48.1187 L779.748 48.1187 L779.748 87.696 L772.254 87.696 L772.254 48.1187 L765.124 48.1187 L765.124 42.3259 L772.254 42.3259 L772.254 39.1662 Q772.254 31.591 775.778 28.1477 Q779.302 24.6639 786.958 24.6639 L794.007 24.6639 Z" fill="#000000" fill-rule="evenodd" fill-opacity="1" /><path clip-path="url(#clip280)" d="M872.23 31.8745 L872.23 40.503 Q868.098 36.6546 863.399 34.7507 Q858.74 32.8468 853.474 32.8468 Q843.104 32.8468 837.595 39.2067 Q832.085 45.5261 832.085 57.5168 Q832.085 69.4669 837.595 75.8269 Q843.104 82.1463 853.474 82.1463 Q858.74 82.1463 863.399 80.2423 Q868.098 78.3384 872.23 74.4901 L872.23 83.0375 Q867.936 85.9541 863.115 87.4124 Q858.335 88.8708 852.988 88.8708 Q839.255 88.8708 831.356 80.4854 Q823.457 72.0595 823.457 57.5168 Q823.457 42.9335 831.356 34.5481 Q839.255 26.1223 852.988 26.1223 Q858.416 26.1223 863.196 27.5806 Q868.017 28.9984 872.23 31.8745 Z" fill="#000000" fill-rule="evenodd" fill-opacity="1" /><path clip-path="url(#clip280)" d="M902.125 47.5515 Q896.13 47.5515 892.646 52.2506 Q889.163 56.9091 889.163 65.0514 Q889.163 73.1938 892.606 77.8928 Q896.09 82.5514 902.125 82.5514 Q908.08 82.5514 911.564 77.8523 Q915.048 73.1533 915.048 65.0514 Q915.048 56.9901 911.564 52.2911 Q908.08 47.5515 902.125 47.5515 M902.125 41.2321 Q911.848 41.2321 917.397 47.5515 Q922.947 53.8709 922.947 65.0514 Q922.947 76.1914 917.397 82.5514 Q911.848 88.8708 902.125 88.8708 Q892.363 88.8708 886.813 82.5514 Q881.304 76.1914 881.304 65.0514 Q881.304 53.8709 886.813 47.5515 Q892.363 41.2321 902.125 41.2321 Z" fill="#000000" fill-rule="evenodd" fill-opacity="1" /><path clip-path="url(#clip280)" d="M935.302 24.6639 L942.756 24.6639 L942.756 87.696 L935.302 87.696 L935.302 24.6639 Z" fill="#000000" fill-rule="evenodd" fill-opacity="1" /><path clip-path="url(#clip280)" d="M958.352 24.6639 L965.806 24.6639 L965.806 87.696 L958.352 87.696 L958.352 24.6639 Z" fill="#000000" fill-rule="evenodd" fill-opacity="1" /><path clip-path="url(#clip280)" d="M981.402 42.3259 L988.855 42.3259 L988.855 87.696 L981.402 87.696 L981.402 42.3259 M981.402 24.6639 L988.855 24.6639 L988.855 34.1025 L981.402 34.1025 L981.402 24.6639 Z" fill="#000000" fill-rule="evenodd" fill-opacity="1" /><path clip-path="url(#clip280)" d="M1033.37 43.6627 L1033.37 50.7112 Q1030.22 49.0909 1026.81 48.2807 Q1023.41 47.4705 1019.76 47.4705 Q1014.21 47.4705 1011.42 49.1719 Q1008.66 50.8733 1008.66 54.276 Q1008.66 56.8686 1010.65 58.3675 Q1012.63 59.8258 1018.63 61.1626 L1021.18 61.7297 Q1029.12 63.4311 1032.44 66.5503 Q1035.81 69.629 1035.81 75.1787 Q1035.81 81.4981 1030.78 85.1844 Q1025.8 88.8708 1017.05 88.8708 Q1013.4 88.8708 1009.43 88.1416 Q1005.5 87.4529 1001.13 86.0351 L1001.13 78.3384 Q1005.26 80.4854 1009.27 81.5791 Q1013.28 82.6324 1017.21 82.6324 Q1022.48 82.6324 1025.31 80.85 Q1028.15 79.0271 1028.15 75.7458 Q1028.15 72.7077 1026.08 71.0873 Q1024.06 69.4669 1017.13 67.9681 L1014.54 67.3605 Q1007.61 65.9021 1004.53 62.9045 Q1001.45 59.8663 1001.45 54.6001 Q1001.45 48.1997 1005.99 44.7159 Q1010.53 41.2321 1018.87 41.2321 Q1023 41.2321 1026.65 41.8398 Q1030.3 42.4474 1033.37 43.6627 Z" fill="#000000" fill-rule="evenodd" fill-opacity="1" /><path clip-path="url(#clip280)" d="M1047.67 42.3259 L1055.13 42.3259 L1055.13 87.696 L1047.67 87.696 L1047.67 42.3259 M1047.67 24.6639 L1055.13 24.6639 L1055.13 34.1025 L1047.67 34.1025 L1047.67 24.6639 Z" fill="#000000" fill-rule="evenodd" fill-opacity="1" /><path clip-path="url(#clip280)" d="M1088.31 47.5515 Q1082.31 47.5515 1078.83 52.2506 Q1075.34 56.9091 1075.34 65.0514 Q1075.34 73.1938 1078.79 77.8928 Q1082.27 82.5514 1088.31 82.5514 Q1094.26 82.5514 1097.74 77.8523 Q1101.23 73.1533 1101.23 65.0514 Q1101.23 56.9901 1097.74 52.2911 Q1094.26 47.5515 1088.31 47.5515 M1088.31 41.2321 Q1098.03 41.2321 1103.58 47.5515 Q1109.13 53.8709 1109.13 65.0514 Q1109.13 76.1914 1103.58 82.5514 Q1098.03 88.8708 1088.31 88.8708 Q1078.54 88.8708 1072.99 82.5514 Q1067.48 76.1914 1067.48 65.0514 Q1067.48 53.8709 1072.99 47.5515 Q1078.54 41.2321 1088.31 41.2321 Z" fill="#000000" fill-rule="evenodd" fill-opacity="1" /><path clip-path="url(#clip280)" d="M1159.2 60.3119 L1159.2 87.696 L1151.74 87.696 L1151.74 60.5549 Q1151.74 54.114 1149.23 50.9138 Q1146.72 47.7136 1141.7 47.7136 Q1135.66 47.7136 1132.18 51.5619 Q1128.69 55.4103 1128.69 62.0538 L1128.69 87.696 L1121.2 87.696 L1121.2 42.3259 L1128.69 42.3259 L1128.69 49.3744 Q1131.37 45.283 1134.97 43.2576 Q1138.62 41.2321 1143.36 41.2321 Q1151.18 41.2321 1155.19 46.0932 Q1159.2 50.9138 1159.2 60.3119 Z" fill="#000000" fill-rule="evenodd" fill-opacity="1" /><path clip-path="url(#clip280)" d="M1202.99 43.6627 L1202.99 50.7112 Q1199.83 49.0909 1196.42 48.2807 Q1193.02 47.4705 1189.38 47.4705 Q1183.83 47.4705 1181.03 49.1719 Q1178.28 50.8733 1178.28 54.276 Q1178.28 56.8686 1180.26 58.3675 Q1182.25 59.8258 1188.24 61.1626 L1190.79 61.7297 Q1198.73 63.4311 1202.05 66.5503 Q1205.42 69.629 1205.42 75.1787 Q1205.42 81.4981 1200.39 85.1844 Q1195.41 88.8708 1186.66 88.8708 Q1183.02 88.8708 1179.05 88.1416 Q1175.12 87.4529 1170.74 86.0351 L1170.74 78.3384 Q1174.87 80.4854 1178.88 81.5791 Q1182.89 82.6324 1186.82 82.6324 Q1192.09 82.6324 1194.92 80.85 Q1197.76 79.0271 1197.76 75.7458 Q1197.76 72.7077 1195.69 71.0873 Q1193.67 69.4669 1186.74 67.9681 L1184.15 67.3605 Q1177.22 65.9021 1174.14 62.9045 Q1171.07 59.8663 1171.07 54.6001 Q1171.07 48.1997 1175.6 44.7159 Q1180.14 41.2321 1188.48 41.2321 Q1192.62 41.2321 1196.26 41.8398 Q1199.91 42.4474 1202.99 43.6627 Z" fill="#000000" fill-rule="evenodd" fill-opacity="1" /><path clip-path="url(#clip280)" d="M1252.16 33.9405 L1252.16 56.6661 L1262.45 56.6661 Q1268.17 56.6661 1271.28 53.7089 Q1274.4 50.7518 1274.4 45.283 Q1274.4 39.8548 1271.28 36.8977 Q1268.17 33.9405 1262.45 33.9405 L1252.16 33.9405 M1243.98 27.216 L1262.45 27.216 Q1272.62 27.216 1277.81 31.834 Q1283.03 36.4116 1283.03 45.283 Q1283.03 54.2355 1277.81 58.8131 Q1272.62 63.3906 1262.45 63.3906 L1252.16 63.3906 L1252.16 87.696 L1243.98 87.696 L1243.98 27.216 Z" fill="#000000" fill-rule="evenodd" fill-opacity="1" /><path clip-path="url(#clip280)" d="M1329.54 63.1475 L1329.54 66.7933 L1295.27 66.7933 Q1295.75 74.4901 1299.88 78.541 Q1304.06 82.5514 1311.47 82.5514 Q1315.76 82.5514 1319.77 81.4981 Q1323.82 80.4449 1327.79 78.3384 L1327.79 85.387 Q1323.78 87.0884 1319.57 87.9796 Q1315.36 88.8708 1311.02 88.8708 Q1300.17 88.8708 1293.81 82.5514 Q1287.49 76.2319 1287.49 65.4565 Q1287.49 54.3165 1293.48 47.7946 Q1299.52 41.2321 1309.73 41.2321 Q1318.88 41.2321 1324.19 47.1464 Q1329.54 53.0203 1329.54 63.1475 M1322.08 60.96 Q1322 54.8432 1318.64 51.1974 Q1315.32 47.5515 1309.81 47.5515 Q1303.57 47.5515 1299.8 51.0758 Q1296.08 54.6001 1295.51 61.0005 L1322.08 60.96 Z" fill="#000000" fill-rule="evenodd" fill-opacity="1" /><path clip-path="url(#clip280)" d="M1368.06 49.2934 Q1366.8 48.5643 1365.31 48.2402 Q1363.85 47.8756 1362.07 47.8756 Q1355.75 47.8756 1352.34 52.0075 Q1348.98 56.0989 1348.98 63.7957 L1348.98 87.696 L1341.49 87.696 L1341.49 42.3259 L1348.98 42.3259 L1348.98 49.3744 Q1351.33 45.2425 1355.1 43.2576 Q1358.86 41.2321 1364.25 41.2321 Q1365.02 41.2321 1365.95 41.3537 Q1366.89 41.4347 1368.02 41.6372 L1368.06 49.2934 Z" fill="#000000" fill-rule="evenodd" fill-opacity="1" /><path clip-path="url(#clip280)" d="M1394.27 27.216 L1403.06 27.216 L1419.83 52.0886 L1436.48 27.216 L1445.27 27.216 L1423.88 58.8941 L1423.88 87.696 L1415.66 87.696 L1415.66 58.8941 L1394.27 27.216 Z" fill="#000000" fill-rule="evenodd" fill-opacity="1" /><path clip-path="url(#clip280)" d="M1480.72 63.1475 L1480.72 66.7933 L1446.45 66.7933 Q1446.93 74.4901 1451.06 78.541 Q1455.24 82.5514 1462.65 82.5514 Q1466.94 82.5514 1470.95 81.4981 Q1475 80.4449 1478.97 78.3384 L1478.97 85.387 Q1474.96 87.0884 1470.75 87.9796 Q1466.54 88.8708 1462.2 88.8708 Q1451.35 88.8708 1444.99 82.5514 Q1438.67 76.2319 1438.67 65.4565 Q1438.67 54.3165 1444.66 47.7946 Q1450.7 41.2321 1460.91 41.2321 Q1470.06 41.2321 1475.37 47.1464 Q1480.72 53.0203 1480.72 63.1475 M1473.26 60.96 Q1473.18 54.8432 1469.82 51.1974 Q1466.5 47.5515 1460.99 47.5515 Q1454.75 47.5515 1450.98 51.0758 Q1447.26 54.6001 1446.69 61.0005 L1473.26 60.96 Z" fill="#000000" fill-rule="evenodd" fill-opacity="1" /><path clip-path="url(#clip280)" d="M1513.57 64.8894 Q1504.54 64.8894 1501.05 66.9554 Q1497.57 69.0213 1497.57 74.0039 Q1497.57 77.9738 1500.16 80.3234 Q1502.79 82.6324 1507.29 82.6324 Q1513.49 82.6324 1517.21 78.2574 Q1520.98 73.8419 1520.98 66.5503 L1520.98 64.8894 L1513.57 64.8894 M1528.44 61.8107 L1528.44 87.696 L1520.98 87.696 L1520.98 80.8095 Q1518.43 84.9414 1514.62 86.9263 Q1510.81 88.8708 1505.31 88.8708 Q1498.34 88.8708 1494.21 84.9819 Q1490.11 81.0525 1490.11 74.4901 Q1490.11 66.8338 1495.22 62.945 Q1500.36 59.0561 1510.53 59.0561 L1520.98 59.0561 L1520.98 58.3269 Q1520.98 53.1823 1517.58 50.3872 Q1514.22 47.5515 1508.1 47.5515 Q1504.21 47.5515 1500.53 48.4832 Q1496.84 49.415 1493.44 51.2784 L1493.44 44.3918 Q1497.53 42.812 1501.38 42.0423 Q1505.22 41.2321 1508.87 41.2321 Q1518.71 41.2321 1523.57 46.3363 Q1528.44 51.4404 1528.44 61.8107 Z" fill="#000000" fill-rule="evenodd" fill-opacity="1" /><path clip-path="url(#clip280)" d="M1570.08 49.2934 Q1568.82 48.5643 1567.32 48.2402 Q1565.87 47.8756 1564.08 47.8756 Q1557.76 47.8756 1554.36 52.0075 Q1551 56.0989 1551 63.7957 L1551 87.696 L1543.51 87.696 L1543.51 42.3259 L1551 42.3259 L1551 49.3744 Q1553.35 45.2425 1557.12 43.2576 Q1560.88 41.2321 1566.27 41.2321 Q1567.04 41.2321 1567.97 41.3537 Q1568.9 41.4347 1570.04 41.6372 L1570.08 49.2934 Z" fill="#000000" fill-rule="evenodd" fill-opacity="1" /><path clip-path="url(#clip280)" d="M1636.84 65.0514 Q1636.84 56.8281 1633.44 52.1696 Q1630.07 47.4705 1624.16 47.4705 Q1618.24 47.4705 1614.84 52.1696 Q1611.48 56.8281 1611.48 65.0514 Q1611.48 73.2748 1614.84 77.9738 Q1618.24 82.6324 1624.16 82.6324 Q1630.07 82.6324 1633.44 77.9738 Q1636.84 73.2748 1636.84 65.0514 M1611.48 49.2124 Q1613.83 45.1615 1617.39 43.2171 Q1621 41.2321 1625.98 41.2321 Q1634.25 41.2321 1639.39 47.7946 Q1644.58 54.3571 1644.58 65.0514 Q1644.58 75.7458 1639.39 82.3083 Q1634.25 88.8708 1625.98 88.8708 Q1621 88.8708 1617.39 86.9263 Q1613.83 84.9414 1611.48 80.8905 L1611.48 87.696 L1603.99 87.696 L1603.99 24.6639 L1611.48 24.6639 L1611.48 49.2124 Z" fill="#000000" fill-rule="evenodd" fill-opacity="1" /><path clip-path="url(#clip280)" d="M1675.81 91.9089 Q1672.65 100.011 1669.65 102.482 Q1666.65 104.953 1661.63 104.953 L1655.67 104.953 L1655.67 98.7145 L1660.05 98.7145 Q1663.13 98.7145 1664.83 97.2561 Q1666.53 95.7978 1668.6 90.3696 L1669.93 86.9668 L1651.58 42.3259 L1659.48 42.3259 L1673.66 77.8118 L1687.84 42.3259 L1695.74 42.3259 L1675.81 91.9089 Z" fill="#000000" fill-rule="evenodd" fill-opacity="1" /><path clip-path="url(#clip280)" d="M1752.94 35.2773 L1741.84 65.3755 L1764.08 65.3755 L1752.94 35.2773 M1748.32 27.216 L1757.6 27.216 L1780.65 87.696 L1772.14 87.696 L1766.63 72.181 L1739.37 72.181 L1733.86 87.696 L1725.23 87.696 L1748.32 27.216 Z" fill="#000000" fill-rule="evenodd" fill-opacity="1" /><path clip-path="url(#clip280)" d="M1789.15 24.6639 L1796.61 24.6639 L1796.61 87.696 L1789.15 87.696 L1789.15 24.6639 Z" fill="#000000" fill-rule="evenodd" fill-opacity="1" /><path clip-path="url(#clip280)" d="M1819.57 29.444 L1819.57 42.3259 L1834.93 42.3259 L1834.93 48.1187 L1819.57 48.1187 L1819.57 72.7482 Q1819.57 78.2979 1821.07 79.8778 Q1822.61 81.4576 1827.27 81.4576 L1834.93 81.4576 L1834.93 87.696 L1827.27 87.696 Q1818.64 87.696 1815.36 84.4958 Q1812.08 81.2551 1812.08 72.7482 L1812.08 48.1187 L1806.61 48.1187 L1806.61 42.3259 L1812.08 42.3259 L1812.08 29.444 L1819.57 29.444 Z" fill="#000000" fill-rule="evenodd" fill-opacity="1" /><path clip-path="url(#clip280)" d="M1844.73 42.3259 L1852.18 42.3259 L1852.18 87.696 L1844.73 87.696 L1844.73 42.3259 M1844.73 24.6639 L1852.18 24.6639 L1852.18 34.1025 L1844.73 34.1025 L1844.73 24.6639 Z" fill="#000000" fill-rule="evenodd" fill-opacity="1" /><path clip-path="url(#clip280)" d="M1875.15 29.444 L1875.15 42.3259 L1890.51 42.3259 L1890.51 48.1187 L1875.15 48.1187 L1875.15 72.7482 Q1875.15 78.2979 1876.65 79.8778 Q1878.19 81.4576 1882.85 81.4576 L1890.51 81.4576 L1890.51 87.696 L1882.85 87.696 Q1874.22 87.696 1870.94 84.4958 Q1867.66 81.2551 1867.66 72.7482 L1867.66 48.1187 L1862.19 48.1187 L1862.19 42.3259 L1867.66 42.3259 L1867.66 29.444 L1875.15 29.444 Z" fill="#000000" fill-rule="evenodd" fill-opacity="1" /><path clip-path="url(#clip280)" d="M1899.54 69.791 L1899.54 42.3259 L1906.99 42.3259 L1906.99 69.5074 Q1906.99 75.9484 1909.5 79.1891 Q1912.02 82.3893 1917.04 82.3893 Q1923.07 82.3893 1926.56 78.541 Q1930.08 74.6926 1930.08 68.0491 L1930.08 42.3259 L1937.54 42.3259 L1937.54 87.696 L1930.08 87.696 L1930.08 80.7284 Q1927.37 84.8604 1923.76 86.8858 Q1920.2 88.8708 1915.46 88.8708 Q1907.64 88.8708 1903.59 84.0097 Q1899.54 79.1486 1899.54 69.791 M1918.29 41.2321 L1918.29 41.2321 Z" fill="#000000" fill-rule="evenodd" fill-opacity="1" /><path clip-path="url(#clip280)" d="M1982.74 49.2124 L1982.74 24.6639 L1990.2 24.6639 L1990.2 87.696 L1982.74 87.696 L1982.74 80.8905 Q1980.4 84.9414 1976.79 86.9263 Q1973.23 88.8708 1968.2 88.8708 Q1959.98 88.8708 1954.79 82.3083 Q1949.65 75.7458 1949.65 65.0514 Q1949.65 54.3571 1954.79 47.7946 Q1959.98 41.2321 1968.2 41.2321 Q1973.23 41.2321 1976.79 43.2171 Q1980.4 45.1615 1982.74 49.2124 M1957.35 65.0514 Q1957.35 73.2748 1960.71 77.9738 Q1964.11 82.6324 1970.02 82.6324 Q1975.94 82.6324 1979.34 77.9738 Q1982.74 73.2748 1982.74 65.0514 Q1982.74 56.8281 1979.34 52.1696 Q1975.94 47.4705 1970.02 47.4705 Q1964.11 47.4705 1960.71 52.1696 Q1957.35 56.8281 1957.35 65.0514 Z" fill="#000000" fill-rule="evenodd" fill-opacity="1" /><path clip-path="url(#clip280)" d="M2044.36 63.1475 L2044.36 66.7933 L2010.09 66.7933 Q2010.57 74.4901 2014.71 78.541 Q2018.88 82.5514 2026.29 82.5514 Q2030.59 82.5514 2034.6 81.4981 Q2038.65 80.4449 2042.62 78.3384 L2042.62 85.387 Q2038.61 87.0884 2034.39 87.9796 Q2030.18 88.8708 2025.85 88.8708 Q2014.99 88.8708 2008.63 82.5514 Q2002.31 76.2319 2002.31 65.4565 Q2002.31 54.3165 2008.31 47.7946 Q2014.34 41.2321 2024.55 41.2321 Q2033.71 41.2321 2039.01 47.1464 Q2044.36 53.0203 2044.36 63.1475 M2036.91 60.96 Q2036.82 54.8432 2033.46 51.1974 Q2030.14 47.5515 2024.63 47.5515 Q2018.39 47.5515 2014.63 51.0758 Q2010.9 54.6001 2010.33 61.0005 L2036.91 60.96 Z" fill="#000000" fill-rule="evenodd" fill-opacity="1" /><path clip-path="url(#clip280)" d="M2058.5 77.4067 L2067.04 77.4067 L2067.04 84.3743 L2060.4 97.3372 L2055.17 97.3372 L2058.5 84.3743 L2058.5 77.4067 Z" fill="#000000" fill-rule="evenodd" fill-opacity="1" /><path clip-path="url(#clip280)" d="M638.513 124.661 L638.513 171.691 L648.397 171.691 Q660.914 171.691 666.707 166.02 Q672.541 160.349 672.541 148.115 Q672.541 135.963 666.707 130.332 Q660.914 124.661 648.397 124.661 L638.513 124.661 M630.33 117.936 L647.141 117.936 Q664.722 117.936 672.946 125.268 Q681.169 132.56 681.169 148.115 Q681.169 163.752 672.905 171.084 Q664.641 178.416 647.141 178.416 L630.33 178.416 L630.33 117.936 Z" fill="#000000" fill-rule="evenodd" fill-opacity="1" /><path clip-path="url(#clip280)" d="M732.696 153.868 L732.696 157.513 L698.426 157.513 Q698.912 165.21 703.044 169.261 Q707.216 173.271 714.629 173.271 Q718.923 173.271 722.934 172.218 Q726.985 171.165 730.955 169.058 L730.955 176.107 Q726.944 177.808 722.731 178.7 Q718.518 179.591 714.184 179.591 Q703.327 179.591 696.967 173.271 Q690.648 166.952 690.648 156.177 Q690.648 145.037 696.643 138.515 Q702.679 131.952 712.888 131.952 Q722.043 131.952 727.349 137.866 Q732.696 143.74 732.696 153.868 M725.243 151.68 Q725.162 145.563 721.799 141.917 Q718.478 138.272 712.969 138.272 Q706.73 138.272 702.963 141.796 Q699.236 145.32 698.669 151.721 L725.243 151.68 Z" fill="#000000" fill-rule="evenodd" fill-opacity="1" /><path clip-path="url(#clip280)" d="M777.499 155.771 Q777.499 147.548 774.097 142.89 Q770.734 138.191 764.82 138.191 Q758.906 138.191 755.503 142.89 Q752.141 147.548 752.141 155.771 Q752.141 163.995 755.503 168.694 Q758.906 173.352 764.82 173.352 Q770.734 173.352 774.097 168.694 Q777.499 163.995 777.499 155.771 M752.141 139.932 Q754.49 135.882 758.055 133.937 Q761.66 131.952 766.643 131.952 Q774.907 131.952 780.052 138.515 Q785.237 145.077 785.237 155.771 Q785.237 166.466 780.052 173.028 Q774.907 179.591 766.643 179.591 Q761.66 179.591 758.055 177.646 Q754.49 175.661 752.141 171.61 L752.141 178.416 L744.647 178.416 L744.647 115.384 L752.141 115.384 L752.141 139.932 Z" fill="#000000" fill-rule="evenodd" fill-opacity="1" /><path clip-path="url(#clip280)" d="M823.882 140.013 Q822.627 139.284 821.128 138.96 Q819.669 138.596 817.887 138.596 Q811.568 138.596 808.165 142.728 Q804.803 146.819 804.803 154.516 L804.803 178.416 L797.308 178.416 L797.308 133.046 L804.803 133.046 L804.803 140.094 Q807.152 135.963 810.919 133.978 Q814.687 131.952 820.074 131.952 Q820.844 131.952 821.776 132.074 Q822.708 132.155 823.842 132.357 L823.882 140.013 Z" fill="#000000" fill-rule="evenodd" fill-opacity="1" /><path clip-path="url(#clip280)" d="M831.701 133.046 L839.154 133.046 L839.154 178.416 L831.701 178.416 L831.701 133.046 M831.701 115.384 L839.154 115.384 L839.154 124.823 L831.701 124.823 L831.701 115.384 Z" fill="#000000" fill-rule="evenodd" fill-opacity="1" /><path clip-path="url(#clip280)" d="M883.674 134.383 L883.674 141.431 Q880.514 139.811 877.111 139.001 Q873.708 138.191 870.063 138.191 Q864.513 138.191 861.718 139.892 Q858.963 141.593 858.963 144.996 Q858.963 147.589 860.948 149.087 Q862.933 150.546 868.928 151.883 L871.48 152.45 Q879.42 154.151 882.742 157.27 Q886.104 160.349 886.104 165.899 Q886.104 172.218 881.081 175.904 Q876.098 179.591 867.348 179.591 Q863.703 179.591 859.733 178.862 Q855.803 178.173 851.428 176.755 L851.428 169.058 Q855.56 171.205 859.571 172.299 Q863.581 173.352 867.511 173.352 Q872.777 173.352 875.612 171.57 Q878.448 169.747 878.448 166.466 Q878.448 163.428 876.382 161.807 Q874.357 160.187 867.43 158.688 L864.837 158.08 Q857.91 156.622 854.831 153.624 Q851.753 150.586 851.753 145.32 Q851.753 138.92 856.29 135.436 Q860.827 131.952 869.171 131.952 Q873.303 131.952 876.949 132.56 Q880.595 133.167 883.674 134.383 Z" fill="#000000" fill-rule="evenodd" fill-opacity="1" /><path clip-path="url(#clip280)" d="M931.717 120.164 L931.717 133.046 L947.07 133.046 L947.07 138.839 L931.717 138.839 L931.717 163.468 Q931.717 169.018 933.216 170.598 Q934.756 172.178 939.414 172.178 L947.07 172.178 L947.07 178.416 L939.414 178.416 Q930.786 178.416 927.504 175.216 Q924.223 171.975 924.223 163.468 L924.223 138.839 L918.754 138.839 L918.754 133.046 L924.223 133.046 L924.223 120.164 L931.717 120.164 Z" fill="#000000" fill-rule="evenodd" fill-opacity="1" /><path clip-path="url(#clip280)" d="M974.454 138.272 Q968.459 138.272 964.975 142.971 Q961.492 147.629 961.492 155.771 Q961.492 163.914 964.935 168.613 Q968.419 173.271 974.454 173.271 Q980.409 173.271 983.893 168.572 Q987.377 163.873 987.377 155.771 Q987.377 147.71 983.893 143.011 Q980.409 138.272 974.454 138.272 M974.454 131.952 Q984.177 131.952 989.726 138.272 Q995.276 144.591 995.276 155.771 Q995.276 166.911 989.726 173.271 Q984.177 179.591 974.454 179.591 Q964.692 179.591 959.142 173.271 Q953.633 166.911 953.633 155.771 Q953.633 144.591 959.142 138.272 Q964.692 131.952 974.454 131.952 Z" fill="#000000" fill-rule="evenodd" fill-opacity="1" /><path clip-path="url(#clip280)" d="M1034.33 117.936 L1045.35 117.936 L1072.16 168.532 L1072.16 117.936 L1080.1 117.936 L1080.1 178.416 L1069.08 178.416 L1042.27 127.82 L1042.27 178.416 L1034.33 178.416 L1034.33 117.936 Z" fill="#000000" fill-rule="evenodd" fill-opacity="1" /><path clip-path="url(#clip280)" d="M1113.64 138.272 Q1107.65 138.272 1104.16 142.971 Q1100.68 147.629 1100.68 155.771 Q1100.68 163.914 1104.12 168.613 Q1107.61 173.271 1113.64 173.271 Q1119.6 173.271 1123.08 168.572 Q1126.57 163.873 1126.57 155.771 Q1126.57 147.71 1123.08 143.011 Q1119.6 138.272 1113.64 138.272 M1113.64 131.952 Q1123.37 131.952 1128.92 138.272 Q1134.47 144.591 1134.47 155.771 Q1134.47 166.911 1128.92 173.271 Q1123.37 179.591 1113.64 179.591 Q1103.88 179.591 1098.33 173.271 Q1092.82 166.911 1092.82 155.771 Q1092.82 144.591 1098.33 138.272 Q1103.88 131.952 1113.64 131.952 Z" fill="#000000" fill-rule="evenodd" fill-opacity="1" /><path clip-path="url(#clip280)" d="M1184.53 151.032 L1184.53 178.416 L1177.08 178.416 L1177.08 151.275 Q1177.08 144.834 1174.57 141.634 Q1172.06 138.434 1167.03 138.434 Q1161 138.434 1157.51 142.282 Q1154.03 146.13 1154.03 152.774 L1154.03 178.416 L1146.54 178.416 L1146.54 133.046 L1154.03 133.046 L1154.03 140.094 Q1156.7 136.003 1160.31 133.978 Q1163.96 131.952 1168.7 131.952 Q1176.51 131.952 1180.52 136.813 Q1184.53 141.634 1184.53 151.032 Z" fill="#000000" fill-rule="evenodd" fill-opacity="1" /><path clip-path="url(#clip280)" d="M1222.37 115.384 L1222.37 121.582 L1215.24 121.582 Q1211.23 121.582 1209.65 123.202 Q1208.11 124.823 1208.11 129.035 L1208.11 133.046 L1220.38 133.046 L1220.38 138.839 L1208.11 138.839 L1208.11 178.416 L1200.62 178.416 L1200.62 138.839 L1193.49 138.839 L1193.49 133.046 L1200.62 133.046 L1200.62 129.886 Q1200.62 122.311 1204.14 118.868 Q1207.66 115.384 1215.32 115.384 L1222.37 115.384 Z" fill="#000000" fill-rule="evenodd" fill-opacity="1" /><path clip-path="url(#clip280)" d="M1227.84 160.511 L1227.84 133.046 L1235.29 133.046 L1235.29 160.227 Q1235.29 166.668 1237.8 169.909 Q1240.32 173.109 1245.34 173.109 Q1251.37 173.109 1254.86 169.261 Q1258.38 165.413 1258.38 158.769 L1258.38 133.046 L1265.84 133.046 L1265.84 178.416 L1258.38 178.416 L1258.38 171.448 Q1255.67 175.58 1252.06 177.606 Q1248.5 179.591 1243.76 179.591 Q1235.94 179.591 1231.89 174.73 Q1227.84 169.869 1227.84 160.511 M1246.59 131.952 L1246.59 131.952 Z" fill="#000000" fill-rule="evenodd" fill-opacity="1" /><path clip-path="url(#clip280)" d="M1318.9 151.032 L1318.9 178.416 L1311.45 178.416 L1311.45 151.275 Q1311.45 144.834 1308.94 141.634 Q1306.43 138.434 1301.4 138.434 Q1295.37 138.434 1291.88 142.282 Q1288.4 146.13 1288.4 152.774 L1288.4 178.416 L1280.91 178.416 L1280.91 133.046 L1288.4 133.046 L1288.4 140.094 Q1291.07 136.003 1294.68 133.978 Q1298.32 131.952 1303.06 131.952 Q1310.88 131.952 1314.89 136.813 Q1318.9 141.634 1318.9 151.032 Z" fill="#000000" fill-rule="evenodd" fill-opacity="1" /><path clip-path="url(#clip280)" d="M1366.42 134.788 L1366.42 141.755 Q1363.26 140.013 1360.06 139.163 Q1356.9 138.272 1353.66 138.272 Q1346.41 138.272 1342.4 142.89 Q1338.39 147.467 1338.39 155.771 Q1338.39 164.076 1342.4 168.694 Q1346.41 173.271 1353.66 173.271 Q1356.9 173.271 1360.06 172.421 Q1363.26 171.529 1366.42 169.788 L1366.42 176.674 Q1363.3 178.132 1359.94 178.862 Q1356.62 179.591 1352.85 179.591 Q1342.6 179.591 1336.56 173.15 Q1330.53 166.709 1330.53 155.771 Q1330.53 144.672 1336.61 138.312 Q1342.72 131.952 1353.34 131.952 Q1356.78 131.952 1360.06 132.681 Q1363.34 133.37 1366.42 134.788 Z" fill="#000000" fill-rule="evenodd" fill-opacity="1" /><path clip-path="url(#clip280)" d="M1386.76 120.164 L1386.76 133.046 L1402.11 133.046 L1402.11 138.839 L1386.76 138.839 L1386.76 163.468 Q1386.76 169.018 1388.25 170.598 Q1389.79 172.178 1394.45 172.178 L1402.11 172.178 L1402.11 178.416 L1394.45 178.416 Q1385.82 178.416 1382.54 175.216 Q1379.26 171.975 1379.26 163.468 L1379.26 138.839 L1373.79 138.839 L1373.79 133.046 L1379.26 133.046 L1379.26 120.164 L1386.76 120.164 Z" fill="#000000" fill-rule="evenodd" fill-opacity="1" /><path clip-path="url(#clip280)" d="M1411.91 133.046 L1419.37 133.046 L1419.37 178.416 L1411.91 178.416 L1411.91 133.046 M1411.91 115.384 L1419.37 115.384 L1419.37 124.823 L1411.91 124.823 L1411.91 115.384 Z" fill="#000000" fill-rule="evenodd" fill-opacity="1" /><path clip-path="url(#clip280)" d="M1452.54 138.272 Q1446.55 138.272 1443.06 142.971 Q1439.58 147.629 1439.58 155.771 Q1439.58 163.914 1443.02 168.613 Q1446.51 173.271 1452.54 173.271 Q1458.5 173.271 1461.98 168.572 Q1465.46 163.873 1465.46 155.771 Q1465.46 147.71 1461.98 143.011 Q1458.5 138.272 1452.54 138.272 M1452.54 131.952 Q1462.26 131.952 1467.81 138.272 Q1473.36 144.591 1473.36 155.771 Q1473.36 166.911 1467.81 173.271 Q1462.26 179.591 1452.54 179.591 Q1442.78 179.591 1437.23 173.271 Q1431.72 166.911 1431.72 155.771 Q1431.72 144.591 1437.23 138.272 Q1442.78 131.952 1452.54 131.952 Z" fill="#000000" fill-rule="evenodd" fill-opacity="1" /><path clip-path="url(#clip280)" d="M1523.43 151.032 L1523.43 178.416 L1515.98 178.416 L1515.98 151.275 Q1515.98 144.834 1513.47 141.634 Q1510.96 138.434 1505.93 138.434 Q1499.9 138.434 1496.41 142.282 Q1492.93 146.13 1492.93 152.774 L1492.93 178.416 L1485.44 178.416 L1485.44 133.046 L1492.93 133.046 L1492.93 140.094 Q1495.6 136.003 1499.21 133.978 Q1502.85 131.952 1507.59 131.952 Q1515.41 131.952 1519.42 136.813 Q1523.43 141.634 1523.43 151.032 Z" fill="#000000" fill-rule="evenodd" fill-opacity="1" /><path clip-path="url(#clip280)" d="M1558.92 155.609 Q1549.89 155.609 1546.4 157.675 Q1542.92 159.741 1542.92 164.724 Q1542.92 168.694 1545.51 171.043 Q1548.14 173.352 1552.64 173.352 Q1558.84 173.352 1562.56 168.977 Q1566.33 164.562 1566.33 157.27 L1566.33 155.609 L1558.92 155.609 M1573.79 152.531 L1573.79 178.416 L1566.33 178.416 L1566.33 171.529 Q1563.78 175.661 1559.97 177.646 Q1556.16 179.591 1550.66 179.591 Q1543.69 179.591 1539.56 175.702 Q1535.46 171.773 1535.46 165.21 Q1535.46 157.554 1540.57 153.665 Q1545.71 149.776 1555.88 149.776 L1566.33 149.776 L1566.33 149.047 Q1566.33 143.902 1562.93 141.107 Q1559.57 138.272 1553.45 138.272 Q1549.56 138.272 1545.87 139.203 Q1542.19 140.135 1538.79 141.998 L1538.79 135.112 Q1542.88 133.532 1546.73 132.762 Q1550.57 131.952 1554.22 131.952 Q1564.06 131.952 1568.92 137.056 Q1573.79 142.16 1573.79 152.531 Z" fill="#000000" fill-rule="evenodd" fill-opacity="1" /><path clip-path="url(#clip280)" d="M1589.14 115.384 L1596.59 115.384 L1596.59 178.416 L1589.14 178.416 L1589.14 115.384 Z" fill="#000000" fill-rule="evenodd" fill-opacity="1" /><path clip-path="url(#clip280)" d="M1675.14 119.921 L1675.14 127.901 Q1670.48 125.673 1666.35 124.579 Q1662.22 123.486 1658.37 123.486 Q1651.68 123.486 1648.04 126.078 Q1644.43 128.671 1644.43 133.451 Q1644.43 137.461 1646.82 139.527 Q1649.25 141.553 1655.98 142.809 L1660.92 143.821 Q1670.08 145.563 1674.41 149.979 Q1678.79 154.354 1678.79 161.726 Q1678.79 170.517 1672.87 175.054 Q1667 179.591 1655.61 179.591 Q1651.32 179.591 1646.46 178.619 Q1641.64 177.646 1636.45 175.742 L1636.45 167.317 Q1641.44 170.112 1646.22 171.529 Q1651 172.947 1655.61 172.947 Q1662.62 172.947 1666.43 170.193 Q1670.24 167.438 1670.24 162.334 Q1670.24 157.878 1667.48 155.366 Q1664.77 152.855 1658.53 151.599 L1653.55 150.627 Q1644.39 148.804 1640.3 144.915 Q1636.21 141.026 1636.21 134.099 Q1636.21 126.078 1641.84 121.46 Q1647.51 116.842 1657.44 116.842 Q1661.69 116.842 1666.11 117.612 Q1670.52 118.382 1675.14 119.921 Z" fill="#000000" fill-rule="evenodd" fill-opacity="1" /><path clip-path="url(#clip280)" d="M1711.84 155.609 Q1702.81 155.609 1699.32 157.675 Q1695.84 159.741 1695.84 164.724 Q1695.84 168.694 1698.43 171.043 Q1701.07 173.352 1705.56 173.352 Q1711.76 173.352 1715.49 168.977 Q1719.25 164.562 1719.25 157.27 L1719.25 155.609 L1711.84 155.609 M1726.71 152.531 L1726.71 178.416 L1719.25 178.416 L1719.25 171.529 Q1716.7 175.661 1712.89 177.646 Q1709.09 179.591 1703.58 179.591 Q1696.61 179.591 1692.48 175.702 Q1688.39 171.773 1688.39 165.21 Q1688.39 157.554 1693.49 153.665 Q1698.63 149.776 1708.8 149.776 L1719.25 149.776 L1719.25 149.047 Q1719.25 143.902 1715.85 141.107 Q1712.49 138.272 1706.37 138.272 Q1702.48 138.272 1698.8 139.203 Q1695.11 140.135 1691.71 141.998 L1691.71 135.112 Q1695.8 133.532 1699.65 132.762 Q1703.5 131.952 1707.14 131.952 Q1716.99 131.952 1721.85 137.056 Q1726.71 142.16 1726.71 152.531 Z" fill="#000000" fill-rule="evenodd" fill-opacity="1" /><path clip-path="url(#clip280)" d="M1749.43 120.164 L1749.43 133.046 L1764.79 133.046 L1764.79 138.839 L1749.43 138.839 L1749.43 163.468 Q1749.43 169.018 1750.93 170.598 Q1752.47 172.178 1757.13 172.178 L1764.79 172.178 L1764.79 178.416 L1757.13 178.416 Q1748.5 178.416 1745.22 175.216 Q1741.94 171.975 1741.94 163.468 L1741.94 138.839 L1736.47 138.839 L1736.47 133.046 L1741.94 133.046 L1741.94 120.164 L1749.43 120.164 Z" fill="#000000" fill-rule="evenodd" fill-opacity="1" /><path clip-path="url(#clip280)" d="M1813.4 153.868 L1813.4 157.513 L1779.13 157.513 Q1779.61 165.21 1783.74 169.261 Q1787.92 173.271 1795.33 173.271 Q1799.62 173.271 1803.63 172.218 Q1807.68 171.165 1811.65 169.058 L1811.65 176.107 Q1807.64 177.808 1803.43 178.7 Q1799.22 179.591 1794.88 179.591 Q1784.03 179.591 1777.67 173.271 Q1771.35 166.952 1771.35 156.177 Q1771.35 145.037 1777.34 138.515 Q1783.38 131.952 1793.59 131.952 Q1802.74 131.952 1808.05 137.866 Q1813.4 143.74 1813.4 153.868 M1805.94 151.68 Q1805.86 145.563 1802.5 141.917 Q1799.18 138.272 1793.67 138.272 Q1787.43 138.272 1783.66 141.796 Q1779.94 145.32 1779.37 151.721 L1805.94 151.68 Z" fill="#000000" fill-rule="evenodd" fill-opacity="1" /><path clip-path="url(#clip280)" d="M1825.63 115.384 L1833.08 115.384 L1833.08 178.416 L1825.63 178.416 L1825.63 115.384 Z" fill="#000000" fill-rule="evenodd" fill-opacity="1" /><path clip-path="url(#clip280)" d="M1848.68 115.384 L1856.13 115.384 L1856.13 178.416 L1848.68 178.416 L1848.68 115.384 Z" fill="#000000" fill-rule="evenodd" fill-opacity="1" /><path clip-path="url(#clip280)" d="M1871.73 133.046 L1879.18 133.046 L1879.18 178.416 L1871.73 178.416 L1871.73 133.046 M1871.73 115.384 L1879.18 115.384 L1879.18 124.823 L1871.73 124.823 L1871.73 115.384 Z" fill="#000000" fill-rule="evenodd" fill-opacity="1" /><path clip-path="url(#clip280)" d="M1902.15 120.164 L1902.15 133.046 L1917.5 133.046 L1917.5 138.839 L1902.15 138.839 L1902.15 163.468 Q1902.15 169.018 1903.65 170.598 Q1905.19 172.178 1909.85 172.178 L1917.5 172.178 L1917.5 178.416 L1909.85 178.416 Q1901.22 178.416 1897.94 175.216 Q1894.66 171.975 1894.66 163.468 L1894.66 138.839 L1889.19 138.839 L1889.19 133.046 L1894.66 133.046 L1894.66 120.164 L1902.15 120.164 Z" fill="#000000" fill-rule="evenodd" fill-opacity="1" /><path clip-path="url(#clip280)" d="M1966.12 153.868 L1966.12 157.513 L1931.85 157.513 Q1932.33 165.21 1936.46 169.261 Q1940.64 173.271 1948.05 173.271 Q1952.34 173.271 1956.35 172.218 Q1960.4 171.165 1964.37 169.058 L1964.37 176.107 Q1960.36 177.808 1956.15 178.7 Q1951.94 179.591 1947.6 179.591 Q1936.75 179.591 1930.39 173.271 Q1924.07 166.952 1924.07 156.177 Q1924.07 145.037 1930.06 138.515 Q1936.1 131.952 1946.31 131.952 Q1955.46 131.952 1960.77 137.866 Q1966.12 143.74 1966.12 153.868 M1958.66 151.68 Q1958.58 145.563 1955.22 141.917 Q1951.9 138.272 1946.39 138.272 Q1940.15 138.272 1936.38 141.796 Q1932.66 145.32 1932.09 151.721 L1958.66 151.68 Z" fill="#000000" fill-rule="evenodd" fill-opacity="1" /><path clip-path="url(#clip280)" d="M2007.27 134.383 L2007.27 141.431 Q2004.11 139.811 2000.71 139.001 Q1997.31 138.191 1993.66 138.191 Q1988.11 138.191 1985.32 139.892 Q1982.56 141.593 1982.56 144.996 Q1982.56 147.589 1984.55 149.087 Q1986.53 150.546 1992.53 151.883 L1995.08 152.45 Q2003.02 154.151 2006.34 157.27 Q2009.7 160.349 2009.7 165.899 Q2009.7 172.218 2004.68 175.904 Q1999.7 179.591 1990.95 179.591 Q1987.3 179.591 1983.33 178.862 Q1979.4 178.173 1975.03 176.755 L1975.03 169.058 Q1979.16 171.205 1983.17 172.299 Q1987.18 173.352 1991.11 173.352 Q1996.38 173.352 1999.21 171.57 Q2002.05 169.747 2002.05 166.466 Q2002.05 163.428 1999.98 161.807 Q1997.96 160.187 1991.03 158.688 L1988.44 158.08 Q1981.51 156.622 1978.43 153.624 Q1975.35 150.586 1975.35 145.32 Q1975.35 138.92 1979.89 135.436 Q1984.43 131.952 1992.77 131.952 Q1996.9 131.952 2000.55 132.56 Q2004.19 133.167 2007.27 134.383 Z" fill="#000000" fill-rule="evenodd" fill-opacity="1" /><polyline clip-path="url(#clip282)" style="stroke:#8b0000; stroke-linecap:butt; stroke-linejoin:round; stroke-width:4; stroke-opacity:1; fill:none" points="
  536.027,1078.19 538.408,986.357 
  "/>
<polyline clip-path="url(#clip282)" style="stroke:#8b0000; stroke-linecap:butt; stroke-linejoin:round; stroke-width:4; stroke-opacity:1; fill:none" points="
  543.17,1082.43 545.551,1083.81 547.932,991.916 550.314,1086.53 552.695,940.057 555.076,902.678 557.457,1090.51 
  "/>
<polyline clip-path="url(#clip282)" style="stroke:#8b0000; stroke-linecap:butt; stroke-linejoin:round; stroke-width:4; stroke-opacity:1; fill:none" points="
  562.219,945.291 564.601,946.568 566.982,947.833 569.363,1003.64 571.744,1098.14 574.125,1006.11 576.506,838.777 
  "/>
<polyline clip-path="url(#clip282)" style="stroke:#8b0000; stroke-linecap:butt; stroke-linejoin:round; stroke-width:4; stroke-opacity:1; fill:none" points="
  581.269,955.185 583.65,887.642 586.031,1012.1 588.412,1106.53 590.793,1107.69 593.174,1015.57 595.556,923.449 597.937,924.576 600.318,964.401 
  "/>
<polyline clip-path="url(#clip282)" style="stroke:#8b0000; stroke-linecap:butt; stroke-linejoin:round; stroke-width:4; stroke-opacity:1; fill:none" points="
  605.08,852.608 607.461,1022.25 609.843,900.052 612.224,876.595 614.605,970.921 616.986,797.163 619.367,1120.84 621.748,905.336 624.13,861.097 626.511,844.155 
  628.892,845.172 631.273,864.147 633.654,817.159 636.035,848.177 638.416,867.13 640.798,756.882 643.179,785.792 645.56,836.234 647.941,837.193 650.322,799.438 
  652.703,812.09 655.085,825.853 657.466,813.961 659.847,782.439 662.228,742.27 664.609,784.272 666.99,724.365 669.372,768.113 671.753,753.161 674.134,721.07 
  676.515,677.52 678.896,706.334 681.277,687.952 683.659,757.549 686.04,657.874 688.421,732.265 690.802,727.134 693.183,675.388 695.564,712.321 697.945,703.184 
  700.327,677.89 702.708,731.304 705.089,720.904 707.47,701.748 709.851,739.726 712.232,775.22 714.614,699.599 716.995,754.948 719.376,749.173 721.757,743.699 
  724.138,796.01 726.519,806.069 728.901,780.718 731.282,773.795 733.663,799.089 736.044,768.042 738.425,842.333 740.806,762.645 743.188,785.258 745.569,786 
  747.95,734.848 750.331,823.566 752.712,747.531 755.093,788.928 757.474,774.685 759.856,749.697 762.237,817.205 764.618,757.103 766.999,751.829 769.38,703.958 
  771.761,753.231 774.143,811.439 776.524,706.046 778.905,755.309 781.286,739.498 783.667,823.47 786.048,806.182 788.43,764.01 790.811,770.941 793.192,706.779 
  795.573,760.034 797.954,754.969 800.335,690.304 802.716,677.822 805.098,675.381 807.479,685.531 809.86,689.5 812.241,716.025 814.622,697.683 817.003,721.442 
  819.385,695.459 821.766,699.584 824.147,703.8 826.528,711.902 828.909,724.581 831.29,717.043 833.672,699.199 836.053,803.843 838.434,707.506 840.815,711.801 
  843.196,746.22 845.577,674.301 847.959,713.608 850.34,717.995 852.721,704.03 855.102,679.517 857.483,666.504 859.864,709.293 862.245,720.942 864.627,714.047 
  867.008,682.438 869.389,708.119 871.77,683.589 874.151,727.725 876.532,699.864 878.914,674.307 881.295,667.181 883.676,655.829 886.057,654.127 888.438,643.915 
  890.819,664.523 893.201,672.484 895.582,651.932 897.963,636.151 900.344,666.721 902.725,679.849 905.106,667.807 907.487,678.317 909.869,629.578 912.25,643.296 
  914.631,638.021 917.012,617.541 919.393,675.906 921.774,651.487 924.156,620.752 926.537,670.206 928.918,670.727 931.299,636.127 933.68,636.644 936.061,640.845 
  938.443,632.324 940.824,657.716 943.205,660.344 945.586,669.677 947.967,625.892 950.348,645.775 952.73,635.361 955.111,630.718 957.492,636.358 959.873,631.712 
  962.254,625.641 964.635,626.133 967.016,615.854 969.398,603.654 971.779,604.141 974.16,632.978 976.541,605.109 978.922,615.355 981.303,629.53 983.685,585.425 
  986.066,594.202 988.447,595.906 990.828,614.875 993.209,638.469 995.59,621.604 997.972,639.407 1000.35,654.049 1002.73,650.828 1005.12,670.825 1007.5,679.971 
  1009.88,682.692 1012.26,656.359 1014.64,666.5 1017.02,651.779 1019.4,693.963 1021.78,701.963 1024.16,694.867 1026.55,719.359 1028.93,705.924 1031.31,723.211 
  1033.69,687.21 1036.07,689.954 1038.45,727.565 1040.83,719.131 1043.21,700.89 1045.59,767.59 1047.98,723.338 1050.36,729.754 1052.74,777.306 1055.12,700.596 
  1057.5,716.569 1059.88,744.304 1062.26,755.221 1064.64,741.836 1067.03,735.853 1069.41,733.184 1071.79,789.699 1074.17,743.529 1076.55,750.678 1078.93,761.866 
  1081.31,778.131 1083.69,778.547 1086.07,783.234 1088.46,802.235 1090.84,788.472 1093.22,808.136 1095.6,784.881 1097.98,794.262 1100.36,769.368 1102.74,851.97 
  1105.12,805.095 1107.5,815.854 1109.89,853.181 1112.27,816.657 1114.65,811.78 1117.03,802.208 1119.41,829.073 1121.79,878.297 1124.17,829.865 1126.55,830.259 
  1128.94,824.925 1131.32,843.284 1133.7,857.14 1136.08,831.824 1138.46,851.017 1140.84,811.026 1143.22,788.553 1145.6,806.904 1147.98,852.56 1150.37,891.65 
  1152.75,798.77 1155.13,911.666 1157.51,847.521 1159.89,876.33 1162.27,842.018 1164.65,869.394 1167.03,913.554 1169.42,936.405 1171.8,831.81 1174.18,863.615 
  1176.56,887.108 1178.94,812.184 1181.32,951.086 1183.7,896.9 1186.08,851.996 1188.46,906.916 1190.85,897.999 1193.23,866.557 1195.61,860.019 1197.99,882.248 
  1200.37,918.704 1202.75,929.834 1205.13,930.193 1207.51,930.552 1209.89,942.616 1212.28,910.525 1214.66,943.329 1217.04,970.683 1219.42,921.56 1221.8,902.659 
  1224.18,912.294 1226.56,886.522 1228.94,912.995 1231.33,923.315 1233.71,988.987 1236.09,946.488 1238.47,905.104 1240.85,914.732 1243.23,888.953 1245.61,990.715 
  1247.99,925.734 1250.37,991.4 1252.76,926.418 1255.14,949.235 1257.52,949.574 1259.9,976.913 1262.28,963.074 1264.66,950.588 1267.04,928.447 1269.42,1012.07 
  1271.8,1012.41 1274.19,951.927 1276.57,940.552 1278.95,965.415 1281.33,941.216 1283.71,1059.34 1286.09,980.582 1288.47,966.735 1290.85,1129.05 1293.24,1015.38 
  1295.62,1015.71 1298,1016.03 1300.38,943.836 1302.76,923.419 1305.14,983.19 1307.52,944.805 1309.9,945.127 1312.28,934.678 1314.67,984.475 1317.05,946.087 
  1319.43,970.937 1321.81,925.983 1324.19,947.041 1326.57,892.803 1328.95,893.118 1331.33,947.987 1333.71,918.278 1336.1,909.908 1338.48,948.927 1340.86,902.376 
  1343.24,919.527 1345.62,1022.38 1348,988.878 1350.38,989.187 1352.76,912.081 1355.15,1023.62 1357.53,1023.92 1359.91,1044.97 1362.29,913.308 1364.67,976.851 
  1367.05,1007.18 1369.43,1025.45 1371.81,1071.02 1374.19,992.239 1376.58,1008.39 1378.96,978.665 1381.34,1140.96 1383.72,1102.55 1386.1,1102.85 1388.48,1048.59 
  1390.86,1028.15 1393.24,994.632 1395.63,1142.74 1398.01,1143.04 1400.39,981.342 1402.77,1029.63 1405.15,1029.92 1407.53,1105.51 1409.91,1075.78 1412.29,1030.8 
  1414.67,1013.12 1417.06,958.858 1419.44,983.678 1421.82,1200.51 1424.2,1052.99 1426.58,971.72 1428.96,1078.09 1431.34,1053.85 1433.72,1147.4 1436.1,961.158 
  1438.49,1000.15 1440.87,1000.43 1443.25,1079.8 1445.63,1016.85 1448.01,1017.13 1450.39,962.859 1452.77,1056.4 1455.15,1002.13 1457.54,1056.96 1459.92,943.24 
  1462.3,1018.81 1464.68,1019.09 1467.06,1003.52 1469.44,1037.61 1471.82,944.629 1474.2,926.938 1476.58,1020.48 1478.97,1020.75 1481.35,955.701 1483.73,955.974 
  1486.11,978.724 1488.49,928.583 1490.87,1006.27 1493.25,992.365 1495.63,992.636 1498.01,1086.17 1500.4,957.876 1502.78,930.208 1505.16,948.443 1507.54,958.683 
  1509.92,994.251 1512.3,959.218 1514.68,931.547 1517.06,923.657 1519.45,916.232 1521.83,960.282 1524.21,983.023 1526.59,960.811 1528.97,961.074 1531.35,1026.66 
  1533.73,984.077 1536.11,997.163 1538.49,1090.69 1540.88,1120.97 1543.26,1091.21 1545.64,1091.47 1548.02,1091.73 1550.4,1046.71 1552.78,1215.53 1555.16,1029.26 
  1557.54,1029.52 1559.93,1013.93 1562.31,1093.27 1564.69,1030.29 1567.07,1048.51 1569.45,1048.77 1571.83,1094.3 1574.21,1070.02 1576.59,1070.27 1578.97,1095.06 
  1581.36,1032.07 
  "/>
<polyline clip-path="url(#clip282)" style="stroke:#8b0000; stroke-linecap:butt; stroke-linejoin:round; stroke-width:4; stroke-opacity:1; fill:none" points="
  1586.12,1016.73 1588.5,1126.09 1590.88,1033.08 1593.26,1072.03 1595.64,1096.82 1598.02,1127.09 1600.4,1127.34 1602.79,1052.29 1605.17,1097.81 1607.55,1052.79 
  1609.93,1314.85 1612.31,1128.58 1614.69,1222.08 1617.07,1019.96 1619.45,1168.02 1621.84,1168.27 1624.22,1316.33 1626.6,1223.31 1628.98,1075.74 1631.36,1100.51 
  1633.74,1224.04 1636.12,1037.76 1638.5,1038 1640.88,1170.21 1643.27,1101.72 1645.65,1225.24 1648.03,1077.67 1650.41,1132.46 
  "/>
<polyline clip-path="url(#clip282)" style="stroke:#8b0000; stroke-linecap:butt; stroke-linejoin:round; stroke-width:4; stroke-opacity:1; fill:none" points="
  1655.17,1319.46 1657.55,1078.63 1659.93,1133.42 1662.31,1133.66 1664.7,1058.6 1667.08,1227.39 1669.46,1173.07 1671.84,1227.86 1674.22,1321.36 1676.6,1173.78 
  1678.98,1135.31 1681.36,1322.06 1683.75,1135.77 1686.13,1174.72 1688.51,1060.95 1690.89,1323 1693.27,1323.23 
  "/>
<polyline clip-path="url(#clip282)" style="stroke:#8b0000; stroke-linecap:butt; stroke-linejoin:round; stroke-width:4; stroke-opacity:1; fill:none" points="
  1698.03,1230.43 1700.41,1323.92 1702.79,1137.63 1705.18,1324.38 1707.56,1324.61 1709.94,1177.03 
  "/>
<polyline clip-path="url(#clip282)" style="stroke:#8b0000; stroke-linecap:butt; stroke-linejoin:round; stroke-width:4; stroke-opacity:1; fill:none" points="
  1714.7,1232.04 1717.08,1325.53 1719.46,1325.76 1721.84,1178.17 1724.23,1232.95 1726.61,1233.18 1728.99,1326.66 1731.37,1233.63 1733.75,1233.86 1736.13,1140.82 
  1738.51,1327.57 
  "/>
<polyline clip-path="url(#clip282)" style="stroke:#8b0000; stroke-linecap:butt; stroke-linejoin:round; stroke-width:4; stroke-opacity:1; fill:none" points="
  1743.27,1234.75 1745.66,1234.98 1748.04,1235.2 1750.42,1328.69 1752.8,1181.09 1755.18,1235.87 1757.56,1329.35 1759.94,1236.31 1762.32,1329.79 1764.7,1236.75 
  1767.09,1330.24 1769.47,1330.46 1771.85,1330.68 1774.23,1330.9 
  "/>
<polyline clip-path="url(#clip282)" style="stroke:#8b0000; stroke-linecap:butt; stroke-linejoin:round; stroke-width:4; stroke-opacity:1; fill:none" points="
  1778.99,1183.52 1781.37,1145.03 
  "/>
<polyline clip-path="url(#clip282)" style="stroke:#8b0000; stroke-linecap:butt; stroke-linejoin:round; stroke-width:4; stroke-opacity:1; fill:none" points="
  1788.52,1238.94 1790.9,1332.42 1793.28,1146.12 1795.66,1239.59 1798.04,1185.25 1800.42,1185.47 
  "/>
<polyline clip-path="url(#clip282)" style="stroke:#8b0000; stroke-linecap:butt; stroke-linejoin:round; stroke-width:4; stroke-opacity:1; fill:none" points="
  1807.57,1333.93 1809.95,1334.14 1812.33,1334.36 1814.71,1334.57 1817.09,1186.97 1819.47,1335 1821.85,1241.95 1824.23,1187.61 
  "/>
<polyline clip-path="url(#clip282)" style="stroke:#8b0000; stroke-linecap:butt; stroke-linejoin:round; stroke-width:4; stroke-opacity:1; fill:none" points="
  1831.38,1242.79 1833.76,1188.45 1836.14,1336.48 1838.52,1336.69 1840.9,1336.9 1843.28,1243.85 
  "/>
<polyline clip-path="url(#clip282)" style="stroke:#8b0000; stroke-linecap:butt; stroke-linejoin:round; stroke-width:4; stroke-opacity:1; fill:none" points="
  1848.05,1337.52 1850.43,1337.73 1852.81,1121.4 1855.19,1244.89 1857.57,1338.36 1859.95,1245.3 1862.33,1245.51 1864.71,1338.98 1867.09,1191.37 1869.48,1246.13 
  1871.86,1339.59 1874.24,1153.28 
  "/>
<polyline clip-path="url(#clip282)" style="stroke:#8b0000; stroke-linecap:butt; stroke-linejoin:round; stroke-width:4; stroke-opacity:1; fill:none" points="
  1879,1340.21 1881.38,1340.41 
  "/>
<polyline clip-path="url(#clip282)" style="stroke:#8b0000; stroke-linecap:butt; stroke-linejoin:round; stroke-width:4; stroke-opacity:1; fill:none" points="
  1886.14,1247.56 1888.53,1341.03 1890.91,1247.97 
  "/>
<polyline clip-path="url(#clip282)" style="stroke:#8b0000; stroke-linecap:butt; stroke-linejoin:round; stroke-width:4; stroke-opacity:1; fill:none" points="
  1900.43,1194.22 1902.81,1342.24 1905.19,1249.18 
  "/>
<polyline clip-path="url(#clip282)" style="stroke:#8b0000; stroke-linecap:butt; stroke-linejoin:round; stroke-width:4; stroke-opacity:1; fill:none" points="
  1909.96,1249.58 1912.34,1195.23 
  "/>
<polyline clip-path="url(#clip282)" style="stroke:#8b0000; stroke-linecap:butt; stroke-linejoin:round; stroke-width:4; stroke-opacity:1; fill:none" points="
  1917.1,1343.44 1919.48,1343.64 
  "/>
<polyline clip-path="url(#clip282)" style="stroke:#8b0000; stroke-linecap:butt; stroke-linejoin:round; stroke-width:4; stroke-opacity:1; fill:none" points="
  1926.62,1250.98 1929,1344.44 1931.39,1251.37 1933.77,1344.83 1936.15,1251.77 
  "/>
<polyline clip-path="url(#clip282)" style="stroke:#8b0000; stroke-linecap:butt; stroke-linejoin:round; stroke-width:4; stroke-opacity:1; fill:none" points="
  1943.29,1197.81 1945.67,1252.56 1948.05,1198.2 1950.44,1252.95 1952.82,1253.14 1955.2,1346.6 
  "/>
<polyline clip-path="url(#clip282)" style="stroke:#8b0000; stroke-linecap:butt; stroke-linejoin:round; stroke-width:4; stroke-opacity:1; fill:none" points="
  1962.34,1199.37 1964.72,1347.38 
  "/>
<polyline clip-path="url(#clip282)" style="stroke:#8b0000; stroke-linecap:butt; stroke-linejoin:round; stroke-width:4; stroke-opacity:1; fill:none" points="
  1983.77,1255.66 1986.15,1349.11 1988.53,1162.78 
  "/>
<polyline clip-path="url(#clip282)" style="stroke:#8b0000; stroke-linecap:butt; stroke-linejoin:round; stroke-width:4; stroke-opacity:1; fill:none" points="
  1993.3,1256.42 1995.68,1349.88 1998.06,1350.07 
  "/>
<polyline clip-path="url(#clip282)" style="stroke:#8b0000; stroke-linecap:butt; stroke-linejoin:round; stroke-width:4; stroke-opacity:1; fill:none" points="
  2002.82,1350.45 2005.2,1257.37 
  "/>
<polyline clip-path="url(#clip282)" style="stroke:#8b0000; stroke-linecap:butt; stroke-linejoin:round; stroke-width:4; stroke-opacity:1; fill:none" points="
  2036.16,1353.07 2038.54,1205.44 2040.92,1353.44 2043.3,1205.81 
  "/>
<polyline clip-path="url(#clip282)" style="stroke:#8b0000; stroke-linecap:butt; stroke-linejoin:round; stroke-width:4; stroke-opacity:1; fill:none" points="
  2055.21,1354.55 2057.59,1354.74 
  "/>
<polyline clip-path="url(#clip282)" style="stroke:#8b0000; stroke-linecap:butt; stroke-linejoin:round; stroke-width:4; stroke-opacity:1; fill:none" points="
  2133.78,1360.49 2136.17,1360.66 
  "/>
<polyline clip-path="url(#clip282)" style="stroke:#8b0000; stroke-linecap:butt; stroke-linejoin:round; stroke-width:4; stroke-opacity:1; fill:none" points="
  2155.21,1268.8 2157.6,1362.23 
  "/>
<polyline clip-path="url(#clip282)" style="stroke:#8b0000; stroke-linecap:butt; stroke-linejoin:round; stroke-width:4; stroke-opacity:1; fill:none" points="
  2179.03,1363.79 2181.41,1363.96 
  "/>
<polyline clip-path="url(#clip282)" style="stroke:#8b0000; stroke-linecap:butt; stroke-linejoin:round; stroke-width:4; stroke-opacity:1; fill:none" points="
  2236.17,1367.85 2238.56,1274.75 
  "/>
<polyline clip-path="url(#clip282)" style="stroke:#8b0000; stroke-linecap:butt; stroke-linejoin:round; stroke-width:4; stroke-opacity:1; fill:none" points="
  2264.75,1369.83 2267.13,1276.73 
  "/>
<polyline clip-path="url(#clip282)" style="stroke:#8b0000; stroke-linecap:butt; stroke-linejoin:round; stroke-width:4; stroke-opacity:1; fill:none" points="
  2274.27,1370.49 2276.65,1370.65 
  "/>
</svg>
