<?xml version="1.0" encoding="utf-8"?>
<svg xmlns="http://www.w3.org/2000/svg" xmlns:xlink="http://www.w3.org/1999/xlink" width="600" height="400" viewBox="0 0 2400 1600">
<defs>
  <clipPath id="clip870">
    <rect x="0" y="0" width="2400" height="1600"/>
  </clipPath>
</defs>
<path clip-path="url(#clip870)" d="
M0 1600 L2400 1600 L2400 0 L0 0  Z
  " fill="#ffffff" fill-rule="evenodd" fill-opacity="1"/>
<defs>
  <clipPath id="clip871">
    <rect x="480" y="0" width="1681" height="1600"/>
  </clipPath>
</defs>
<defs>
  <clipPath id="clip872">
    <rect x="251" y="183" width="2102" height="1240"/>
  </clipPath>
</defs>
<path clip-path="url(#clip870)" d="
M251.372 1423.18 L2352.76 1423.18 L2352.76 183.952 L251.372 183.952  Z
  " fill="#ffffff" fill-rule="evenodd" fill-opacity="1"/>
<polyline clip-path="url(#clip872)" style="stroke:#000000; stroke-linecap:butt; stroke-linejoin:round; stroke-width:2; stroke-opacity:0.1; fill:none" points="
  308.463,1423.18 308.463,183.952 
  "/>
<polyline clip-path="url(#clip872)" style="stroke:#000000; stroke-linecap:butt; stroke-linejoin:round; stroke-width:2; stroke-opacity:0.1; fill:none" points="
  705.585,1423.18 705.585,183.952 
  "/>
<polyline clip-path="url(#clip872)" style="stroke:#000000; stroke-linecap:butt; stroke-linejoin:round; stroke-width:2; stroke-opacity:0.1; fill:none" points="
  1102.71,1423.18 1102.71,183.952 
  "/>
<polyline clip-path="url(#clip872)" style="stroke:#000000; stroke-linecap:butt; stroke-linejoin:round; stroke-width:2; stroke-opacity:0.1; fill:none" points="
  1499.83,1423.18 1499.83,183.952 
  "/>
<polyline clip-path="url(#clip872)" style="stroke:#000000; stroke-linecap:butt; stroke-linejoin:round; stroke-width:2; stroke-opacity:0.1; fill:none" points="
  1896.95,1423.18 1896.95,183.952 
  "/>
<polyline clip-path="url(#clip872)" style="stroke:#000000; stroke-linecap:butt; stroke-linejoin:round; stroke-width:2; stroke-opacity:0.1; fill:none" points="
  2294.08,1423.18 2294.08,183.952 
  "/>
<polyline clip-path="url(#clip870)" style="stroke:#000000; stroke-linecap:butt; stroke-linejoin:round; stroke-width:4; stroke-opacity:1; fill:none" points="
  251.372,1423.18 2352.76,1423.18 
  "/>
<polyline clip-path="url(#clip870)" style="stroke:#000000; stroke-linecap:butt; stroke-linejoin:round; stroke-width:4; stroke-opacity:1; fill:none" points="
  308.463,1423.18 308.463,1404.28 
  "/>
<polyline clip-path="url(#clip870)" style="stroke:#000000; stroke-linecap:butt; stroke-linejoin:round; stroke-width:4; stroke-opacity:1; fill:none" points="
  705.585,1423.18 705.585,1404.28 
  "/>
<polyline clip-path="url(#clip870)" style="stroke:#000000; stroke-linecap:butt; stroke-linejoin:round; stroke-width:4; stroke-opacity:1; fill:none" points="
  1102.71,1423.18 1102.71,1404.28 
  "/>
<polyline clip-path="url(#clip870)" style="stroke:#000000; stroke-linecap:butt; stroke-linejoin:round; stroke-width:4; stroke-opacity:1; fill:none" points="
  1499.83,1423.18 1499.83,1404.28 
  "/>
<polyline clip-path="url(#clip870)" style="stroke:#000000; stroke-linecap:butt; stroke-linejoin:round; stroke-width:4; stroke-opacity:1; fill:none" points="
  1896.95,1423.18 1896.95,1404.28 
  "/>
<polyline clip-path="url(#clip870)" style="stroke:#000000; stroke-linecap:butt; stroke-linejoin:round; stroke-width:4; stroke-opacity:1; fill:none" points="
  2294.08,1423.18 2294.08,1404.28 
  "/>
<path clip-path="url(#clip870)" d="M308.463 1454.1 Q304.851 1454.1 303.023 1457.66 Q301.217 1461.2 301.217 1468.33 Q301.217 1475.44 303.023 1479.01 Q304.851 1482.55 308.463 1482.55 Q312.097 1482.55 313.902 1479.01 Q315.731 1475.44 315.731 1468.33 Q315.731 1461.2 313.902 1457.66 Q312.097 1454.1 308.463 1454.1 M308.463 1450.39 Q314.273 1450.39 317.328 1455 Q320.407 1459.58 320.407 1468.33 Q320.407 1477.06 317.328 1481.67 Q314.273 1486.25 308.463 1486.25 Q302.652 1486.25 299.574 1481.67 Q296.518 1477.06 296.518 1468.33 Q296.518 1459.58 299.574 1455 Q302.652 1450.39 308.463 1450.39 Z" fill="#000000" fill-rule="evenodd" fill-opacity="1" /><path clip-path="url(#clip870)" d="M665.204 1451.02 L683.56 1451.02 L683.56 1454.96 L669.486 1454.96 L669.486 1463.43 Q670.505 1463.08 671.523 1462.92 Q672.542 1462.73 673.56 1462.73 Q679.347 1462.73 682.727 1465.9 Q686.106 1469.08 686.106 1474.49 Q686.106 1480.07 682.634 1483.17 Q679.162 1486.25 672.843 1486.25 Q670.667 1486.25 668.398 1485.88 Q666.153 1485.51 663.745 1484.77 L663.745 1480.07 Q665.829 1481.2 668.051 1481.76 Q670.273 1482.32 672.75 1482.32 Q676.755 1482.32 679.093 1480.21 Q681.43 1478.1 681.43 1474.49 Q681.43 1470.88 679.093 1468.77 Q676.755 1466.67 672.75 1466.67 Q670.875 1466.67 669 1467.08 Q667.148 1467.5 665.204 1468.38 L665.204 1451.02 Z" fill="#000000" fill-rule="evenodd" fill-opacity="1" /><path clip-path="url(#clip870)" d="M705.319 1454.1 Q701.708 1454.1 699.879 1457.66 Q698.074 1461.2 698.074 1468.33 Q698.074 1475.44 699.879 1479.01 Q701.708 1482.55 705.319 1482.55 Q708.953 1482.55 710.759 1479.01 Q712.588 1475.44 712.588 1468.33 Q712.588 1461.2 710.759 1457.66 Q708.953 1454.1 705.319 1454.1 M705.319 1450.39 Q711.129 1450.39 714.185 1455 Q717.264 1459.58 717.264 1468.33 Q717.264 1477.06 714.185 1481.67 Q711.129 1486.25 705.319 1486.25 Q699.509 1486.25 696.43 1481.67 Q693.375 1477.06 693.375 1468.33 Q693.375 1459.58 696.43 1455 Q699.509 1450.39 705.319 1450.39 Z" fill="#000000" fill-rule="evenodd" fill-opacity="1" /><path clip-path="url(#clip870)" d="M735.481 1454.1 Q731.87 1454.1 730.041 1457.66 Q728.236 1461.2 728.236 1468.33 Q728.236 1475.44 730.041 1479.01 Q731.87 1482.55 735.481 1482.55 Q739.115 1482.55 740.921 1479.01 Q742.75 1475.44 742.75 1468.33 Q742.75 1461.2 740.921 1457.66 Q739.115 1454.1 735.481 1454.1 M735.481 1450.39 Q741.291 1450.39 744.347 1455 Q747.426 1459.58 747.426 1468.33 Q747.426 1477.06 744.347 1481.67 Q741.291 1486.25 735.481 1486.25 Q729.671 1486.25 726.592 1481.67 Q723.537 1477.06 723.537 1468.33 Q723.537 1459.58 726.592 1455 Q729.671 1450.39 735.481 1450.39 Z" fill="#000000" fill-rule="evenodd" fill-opacity="1" /><path clip-path="url(#clip870)" d="M1047.23 1481.64 L1054.87 1481.64 L1054.87 1455.28 L1046.56 1456.95 L1046.56 1452.69 L1054.83 1451.02 L1059.5 1451.02 L1059.5 1481.64 L1067.14 1481.64 L1067.14 1485.58 L1047.23 1485.58 L1047.23 1481.64 Z" fill="#000000" fill-rule="evenodd" fill-opacity="1" /><path clip-path="url(#clip870)" d="M1086.59 1454.1 Q1082.97 1454.1 1081.15 1457.66 Q1079.34 1461.2 1079.34 1468.33 Q1079.34 1475.44 1081.15 1479.01 Q1082.97 1482.55 1086.59 1482.55 Q1090.22 1482.55 1092.03 1479.01 Q1093.85 1475.44 1093.85 1468.33 Q1093.85 1461.2 1092.03 1457.66 Q1090.22 1454.1 1086.59 1454.1 M1086.59 1450.39 Q1092.4 1450.39 1095.45 1455 Q1098.53 1459.58 1098.53 1468.33 Q1098.53 1477.06 1095.45 1481.67 Q1092.4 1486.25 1086.59 1486.25 Q1080.78 1486.25 1077.7 1481.67 Q1074.64 1477.06 1074.64 1468.33 Q1074.64 1459.58 1077.7 1455 Q1080.78 1450.39 1086.59 1450.39 Z" fill="#000000" fill-rule="evenodd" fill-opacity="1" /><path clip-path="url(#clip870)" d="M1116.75 1454.1 Q1113.14 1454.1 1111.31 1457.66 Q1109.5 1461.2 1109.5 1468.33 Q1109.5 1475.44 1111.31 1479.01 Q1113.14 1482.55 1116.75 1482.55 Q1120.38 1482.55 1122.19 1479.01 Q1124.02 1475.44 1124.02 1468.33 Q1124.02 1461.2 1122.19 1457.66 Q1120.38 1454.1 1116.75 1454.1 M1116.75 1450.39 Q1122.56 1450.39 1125.61 1455 Q1128.69 1459.58 1128.69 1468.33 Q1128.69 1477.06 1125.61 1481.67 Q1122.56 1486.25 1116.75 1486.25 Q1110.94 1486.25 1107.86 1481.67 Q1104.8 1477.06 1104.8 1468.33 Q1104.8 1459.58 1107.86 1455 Q1110.94 1450.39 1116.75 1450.39 Z" fill="#000000" fill-rule="evenodd" fill-opacity="1" /><path clip-path="url(#clip870)" d="M1146.91 1454.1 Q1143.3 1454.1 1141.47 1457.66 Q1139.66 1461.2 1139.66 1468.33 Q1139.66 1475.44 1141.47 1479.01 Q1143.3 1482.55 1146.91 1482.55 Q1150.54 1482.55 1152.35 1479.01 Q1154.18 1475.44 1154.18 1468.33 Q1154.18 1461.2 1152.35 1457.66 Q1150.54 1454.1 1146.91 1454.1 M1146.91 1450.39 Q1152.72 1450.39 1155.78 1455 Q1158.85 1459.58 1158.85 1468.33 Q1158.85 1477.06 1155.78 1481.67 Q1152.72 1486.25 1146.91 1486.25 Q1141.1 1486.25 1138.02 1481.67 Q1134.97 1477.06 1134.97 1468.33 Q1134.97 1459.58 1138.02 1455 Q1141.1 1450.39 1146.91 1450.39 Z" fill="#000000" fill-rule="evenodd" fill-opacity="1" /><path clip-path="url(#clip870)" d="M1444.36 1481.64 L1452 1481.64 L1452 1455.28 L1443.69 1456.95 L1443.69 1452.69 L1451.95 1451.02 L1456.63 1451.02 L1456.63 1481.64 L1464.26 1481.64 L1464.26 1485.58 L1444.36 1485.58 L1444.36 1481.64 Z" fill="#000000" fill-rule="evenodd" fill-opacity="1" /><path clip-path="url(#clip870)" d="M1473.75 1451.02 L1492.11 1451.02 L1492.11 1454.96 L1478.04 1454.96 L1478.04 1463.43 Q1479.06 1463.08 1480.07 1462.92 Q1481.09 1462.73 1482.11 1462.73 Q1487.9 1462.73 1491.28 1465.9 Q1494.66 1469.08 1494.66 1474.49 Q1494.66 1480.07 1491.19 1483.17 Q1487.71 1486.25 1481.39 1486.25 Q1479.22 1486.25 1476.95 1485.88 Q1474.7 1485.51 1472.3 1484.77 L1472.3 1480.07 Q1474.38 1481.2 1476.6 1481.76 Q1478.82 1482.32 1481.3 1482.32 Q1485.31 1482.32 1487.64 1480.21 Q1489.98 1478.1 1489.98 1474.49 Q1489.98 1470.88 1487.64 1468.77 Q1485.31 1466.67 1481.3 1466.67 Q1479.43 1466.67 1477.55 1467.08 Q1475.7 1467.5 1473.75 1468.38 L1473.75 1451.02 Z" fill="#000000" fill-rule="evenodd" fill-opacity="1" /><path clip-path="url(#clip870)" d="M1513.87 1454.1 Q1510.26 1454.1 1508.43 1457.66 Q1506.63 1461.2 1506.63 1468.33 Q1506.63 1475.44 1508.43 1479.01 Q1510.26 1482.55 1513.87 1482.55 Q1517.5 1482.55 1519.31 1479.01 Q1521.14 1475.44 1521.14 1468.33 Q1521.14 1461.2 1519.31 1457.66 Q1517.5 1454.1 1513.87 1454.1 M1513.87 1450.39 Q1519.68 1450.39 1522.74 1455 Q1525.81 1459.58 1525.81 1468.33 Q1525.81 1477.06 1522.74 1481.67 Q1519.68 1486.25 1513.87 1486.25 Q1508.06 1486.25 1504.98 1481.67 Q1501.93 1477.06 1501.93 1468.33 Q1501.93 1459.58 1504.98 1455 Q1508.06 1450.39 1513.87 1450.39 Z" fill="#000000" fill-rule="evenodd" fill-opacity="1" /><path clip-path="url(#clip870)" d="M1544.03 1454.1 Q1540.42 1454.1 1538.59 1457.66 Q1536.79 1461.2 1536.79 1468.33 Q1536.79 1475.44 1538.59 1479.01 Q1540.42 1482.55 1544.03 1482.55 Q1547.67 1482.55 1549.47 1479.01 Q1551.3 1475.44 1551.3 1468.33 Q1551.3 1461.2 1549.47 1457.66 Q1547.67 1454.1 1544.03 1454.1 M1544.03 1450.39 Q1549.84 1450.39 1552.9 1455 Q1555.98 1459.58 1555.98 1468.33 Q1555.98 1477.06 1552.9 1481.67 Q1549.84 1486.25 1544.03 1486.25 Q1538.22 1486.25 1535.14 1481.67 Q1532.09 1477.06 1532.09 1468.33 Q1532.09 1459.58 1535.14 1455 Q1538.22 1450.39 1544.03 1450.39 Z" fill="#000000" fill-rule="evenodd" fill-opacity="1" /><path clip-path="url(#clip870)" d="M1845.57 1481.64 L1861.88 1481.64 L1861.88 1485.58 L1839.94 1485.58 L1839.94 1481.64 Q1842.6 1478.89 1847.19 1474.26 Q1851.79 1469.61 1852.97 1468.27 Q1855.22 1465.74 1856.1 1464.01 Q1857 1462.25 1857 1460.56 Q1857 1457.8 1855.06 1456.07 Q1853.13 1454.33 1850.03 1454.33 Q1847.83 1454.33 1845.38 1455.09 Q1842.95 1455.86 1840.17 1457.41 L1840.17 1452.69 Q1843 1451.55 1845.45 1450.97 Q1847.9 1450.39 1849.94 1450.39 Q1855.31 1450.39 1858.51 1453.08 Q1861.7 1455.77 1861.7 1460.26 Q1861.7 1462.39 1860.89 1464.31 Q1860.1 1466.2 1858 1468.8 Q1857.42 1469.47 1854.32 1472.69 Q1851.21 1475.88 1845.57 1481.64 Z" fill="#000000" fill-rule="evenodd" fill-opacity="1" /><path clip-path="url(#clip870)" d="M1881.7 1454.1 Q1878.09 1454.1 1876.26 1457.66 Q1874.45 1461.2 1874.45 1468.33 Q1874.45 1475.44 1876.26 1479.01 Q1878.09 1482.55 1881.7 1482.55 Q1885.33 1482.55 1887.14 1479.01 Q1888.97 1475.44 1888.97 1468.33 Q1888.97 1461.2 1887.14 1457.66 Q1885.33 1454.1 1881.7 1454.1 M1881.7 1450.39 Q1887.51 1450.39 1890.57 1455 Q1893.64 1459.58 1893.64 1468.33 Q1893.64 1477.06 1890.57 1481.67 Q1887.51 1486.25 1881.7 1486.25 Q1875.89 1486.25 1872.81 1481.67 Q1869.76 1477.06 1869.76 1468.33 Q1869.76 1459.58 1872.81 1455 Q1875.89 1450.39 1881.7 1450.39 Z" fill="#000000" fill-rule="evenodd" fill-opacity="1" /><path clip-path="url(#clip870)" d="M1911.86 1454.1 Q1908.25 1454.1 1906.42 1457.66 Q1904.62 1461.2 1904.62 1468.33 Q1904.62 1475.44 1906.42 1479.01 Q1908.25 1482.55 1911.86 1482.55 Q1915.5 1482.55 1917.3 1479.01 Q1919.13 1475.44 1919.13 1468.33 Q1919.13 1461.2 1917.3 1457.66 Q1915.5 1454.1 1911.86 1454.1 M1911.86 1450.39 Q1917.67 1450.39 1920.73 1455 Q1923.81 1459.58 1923.81 1468.33 Q1923.81 1477.06 1920.73 1481.67 Q1917.67 1486.25 1911.86 1486.25 Q1906.05 1486.25 1902.97 1481.67 Q1899.92 1477.06 1899.92 1468.33 Q1899.92 1459.58 1902.97 1455 Q1906.05 1450.39 1911.86 1450.39 Z" fill="#000000" fill-rule="evenodd" fill-opacity="1" /><path clip-path="url(#clip870)" d="M1942.02 1454.1 Q1938.41 1454.1 1936.58 1457.66 Q1934.78 1461.2 1934.78 1468.33 Q1934.78 1475.44 1936.58 1479.01 Q1938.41 1482.55 1942.02 1482.55 Q1945.66 1482.55 1947.46 1479.01 Q1949.29 1475.44 1949.29 1468.33 Q1949.29 1461.2 1947.46 1457.66 Q1945.66 1454.1 1942.02 1454.1 M1942.02 1450.39 Q1947.83 1450.39 1950.89 1455 Q1953.97 1459.58 1953.97 1468.33 Q1953.97 1477.06 1950.89 1481.67 Q1947.83 1486.25 1942.02 1486.25 Q1936.21 1486.25 1933.13 1481.67 Q1930.08 1477.06 1930.08 1468.33 Q1930.08 1459.58 1933.13 1455 Q1936.21 1450.39 1942.02 1450.39 Z" fill="#000000" fill-rule="evenodd" fill-opacity="1" /><path clip-path="url(#clip870)" d="M2242.69 1481.64 L2259.01 1481.64 L2259.01 1485.58 L2237.06 1485.58 L2237.06 1481.64 Q2239.73 1478.89 2244.31 1474.26 Q2248.92 1469.61 2250.1 1468.27 Q2252.34 1465.74 2253.22 1464.01 Q2254.12 1462.25 2254.12 1460.56 Q2254.12 1457.8 2252.18 1456.07 Q2250.26 1454.33 2247.16 1454.33 Q2244.96 1454.33 2242.5 1455.09 Q2240.07 1455.86 2237.29 1457.41 L2237.29 1452.69 Q2240.12 1451.55 2242.57 1450.97 Q2245.03 1450.39 2247.06 1450.39 Q2252.43 1450.39 2255.63 1453.08 Q2258.82 1455.77 2258.82 1460.26 Q2258.82 1462.39 2258.01 1464.31 Q2257.23 1466.2 2255.12 1468.8 Q2254.54 1469.47 2251.44 1472.69 Q2248.34 1475.88 2242.69 1481.64 Z" fill="#000000" fill-rule="evenodd" fill-opacity="1" /><path clip-path="url(#clip870)" d="M2268.87 1451.02 L2287.23 1451.02 L2287.23 1454.96 L2273.15 1454.96 L2273.15 1463.43 Q2274.17 1463.08 2275.19 1462.92 Q2276.21 1462.73 2277.23 1462.73 Q2283.01 1462.73 2286.39 1465.9 Q2289.77 1469.08 2289.77 1474.49 Q2289.77 1480.07 2286.3 1483.17 Q2282.83 1486.25 2276.51 1486.25 Q2274.33 1486.25 2272.06 1485.88 Q2269.82 1485.51 2267.41 1484.77 L2267.41 1480.07 Q2269.49 1481.2 2271.72 1481.76 Q2273.94 1482.32 2276.42 1482.32 Q2280.42 1482.32 2282.76 1480.21 Q2285.1 1478.1 2285.1 1474.49 Q2285.1 1470.88 2282.76 1468.77 Q2280.42 1466.67 2276.42 1466.67 Q2274.54 1466.67 2272.67 1467.08 Q2270.81 1467.5 2268.87 1468.38 L2268.87 1451.02 Z" fill="#000000" fill-rule="evenodd" fill-opacity="1" /><path clip-path="url(#clip870)" d="M2308.98 1454.1 Q2305.37 1454.1 2303.54 1457.66 Q2301.74 1461.2 2301.74 1468.33 Q2301.74 1475.44 2303.54 1479.01 Q2305.37 1482.55 2308.98 1482.55 Q2312.62 1482.55 2314.42 1479.01 Q2316.25 1475.44 2316.25 1468.33 Q2316.25 1461.2 2314.42 1457.66 Q2312.62 1454.1 2308.98 1454.1 M2308.98 1450.39 Q2314.79 1450.39 2317.85 1455 Q2320.93 1459.58 2320.93 1468.33 Q2320.93 1477.06 2317.85 1481.67 Q2314.79 1486.25 2308.98 1486.25 Q2303.17 1486.25 2300.1 1481.67 Q2297.04 1477.06 2297.04 1468.33 Q2297.04 1459.58 2300.1 1455 Q2303.17 1450.39 2308.98 1450.39 Z" fill="#000000" fill-rule="evenodd" fill-opacity="1" /><path clip-path="url(#clip870)" d="M2339.15 1454.1 Q2335.54 1454.1 2333.71 1457.66 Q2331.9 1461.2 2331.9 1468.33 Q2331.9 1475.44 2333.71 1479.01 Q2335.54 1482.55 2339.15 1482.55 Q2342.78 1482.55 2344.59 1479.01 Q2346.41 1475.44 2346.41 1468.33 Q2346.41 1461.2 2344.59 1457.66 Q2342.78 1454.1 2339.15 1454.1 M2339.15 1450.39 Q2344.96 1450.39 2348.01 1455 Q2351.09 1459.58 2351.09 1468.33 Q2351.09 1477.06 2348.01 1481.67 Q2344.96 1486.25 2339.15 1486.25 Q2333.34 1486.25 2330.26 1481.67 Q2327.2 1477.06 2327.2 1468.33 Q2327.2 1459.58 2330.26 1455 Q2333.34 1450.39 2339.15 1450.39 Z" fill="#000000" fill-rule="evenodd" fill-opacity="1" /><path clip-path="url(#clip870)" d="M1122.47 1537.27 L1113.75 1560.92 L1131.22 1560.92 L1122.47 1537.27 M1118.84 1530.94 L1126.13 1530.94 L1144.24 1578.46 L1137.56 1578.46 L1133.23 1566.27 L1111.81 1566.27 L1107.48 1578.46 L1100.7 1578.46 L1118.84 1530.94 Z" fill="#000000" fill-rule="evenodd" fill-opacity="1" /><path clip-path="url(#clip870)" d="M1150.93 1528.94 L1156.78 1528.94 L1156.78 1578.46 L1150.93 1578.46 L1150.93 1528.94 Z" fill="#000000" fill-rule="evenodd" fill-opacity="1" /><path clip-path="url(#clip870)" d="M1174.83 1532.69 L1174.83 1542.81 L1186.89 1542.81 L1186.89 1547.36 L1174.83 1547.36 L1174.83 1566.72 Q1174.83 1571.08 1176.01 1572.32 Q1177.22 1573.56 1180.88 1573.56 L1186.89 1573.56 L1186.89 1578.46 L1180.88 1578.46 Q1174.1 1578.46 1171.52 1575.95 Q1168.94 1573.4 1168.94 1566.72 L1168.94 1547.36 L1164.64 1547.36 L1164.64 1542.81 L1168.94 1542.81 L1168.94 1532.69 L1174.83 1532.69 Z" fill="#000000" fill-rule="evenodd" fill-opacity="1" /><path clip-path="url(#clip870)" d="M1194.59 1542.81 L1200.45 1542.81 L1200.45 1578.46 L1194.59 1578.46 L1194.59 1542.81 M1194.59 1528.94 L1200.45 1528.94 L1200.45 1536.35 L1194.59 1536.35 L1194.59 1528.94 Z" fill="#000000" fill-rule="evenodd" fill-opacity="1" /><path clip-path="url(#clip870)" d="M1218.5 1532.69 L1218.5 1542.81 L1230.56 1542.81 L1230.56 1547.36 L1218.5 1547.36 L1218.5 1566.72 Q1218.5 1571.08 1219.67 1572.32 Q1220.88 1573.56 1224.54 1573.56 L1230.56 1573.56 L1230.56 1578.46 L1224.54 1578.46 Q1217.77 1578.46 1215.19 1575.95 Q1212.61 1573.4 1212.61 1566.72 L1212.61 1547.36 L1208.31 1547.36 L1208.31 1542.81 L1212.61 1542.81 L1212.61 1532.69 L1218.5 1532.69 Z" fill="#000000" fill-rule="evenodd" fill-opacity="1" /><path clip-path="url(#clip870)" d="M1237.66 1564.39 L1237.66 1542.81 L1243.51 1542.81 L1243.51 1564.17 Q1243.51 1569.23 1245.49 1571.78 Q1247.46 1574.29 1251.41 1574.29 Q1256.15 1574.29 1258.89 1571.27 Q1261.66 1568.24 1261.66 1563.02 L1261.66 1542.81 L1267.51 1542.81 L1267.51 1578.46 L1261.66 1578.46 L1261.66 1572.99 Q1259.52 1576.23 1256.69 1577.82 Q1253.89 1579.38 1250.17 1579.38 Q1244.02 1579.38 1240.84 1575.56 Q1237.66 1571.74 1237.66 1564.39 M1252.39 1541.95 L1252.39 1541.95 Z" fill="#000000" fill-rule="evenodd" fill-opacity="1" /><path clip-path="url(#clip870)" d="M1303.03 1548.22 L1303.03 1528.94 L1308.89 1528.94 L1308.89 1578.46 L1303.03 1578.46 L1303.03 1573.11 Q1301.19 1576.3 1298.35 1577.86 Q1295.55 1579.38 1291.61 1579.38 Q1285.15 1579.38 1281.07 1574.23 Q1277.03 1569.07 1277.03 1560.67 Q1277.03 1552.27 1281.07 1547.11 Q1285.15 1541.95 1291.61 1541.95 Q1295.55 1541.95 1298.35 1543.51 Q1301.19 1545.04 1303.03 1548.22 M1283.08 1560.67 Q1283.08 1567.13 1285.72 1570.82 Q1288.39 1574.48 1293.04 1574.48 Q1297.69 1574.48 1300.36 1570.82 Q1303.03 1567.13 1303.03 1560.67 Q1303.03 1554.21 1300.36 1550.55 Q1297.69 1546.85 1293.04 1546.85 Q1288.39 1546.85 1285.72 1550.55 Q1283.08 1554.21 1283.08 1560.67 Z" fill="#000000" fill-rule="evenodd" fill-opacity="1" /><path clip-path="url(#clip870)" d="M1351.44 1559.17 L1351.44 1562.04 L1324.52 1562.04 Q1324.9 1568.08 1328.15 1571.27 Q1331.42 1574.42 1337.25 1574.42 Q1340.62 1574.42 1343.77 1573.59 Q1346.96 1572.76 1350.08 1571.11 L1350.08 1576.65 Q1346.93 1577.98 1343.62 1578.68 Q1340.3 1579.38 1336.9 1579.38 Q1328.37 1579.38 1323.37 1574.42 Q1318.41 1569.45 1318.41 1560.99 Q1318.41 1552.23 1323.12 1547.11 Q1327.86 1541.95 1335.88 1541.95 Q1343.07 1541.95 1347.24 1546.6 Q1351.44 1551.22 1351.44 1559.17 M1345.59 1557.45 Q1345.52 1552.65 1342.88 1549.78 Q1340.27 1546.92 1335.94 1546.92 Q1331.04 1546.92 1328.08 1549.69 Q1325.15 1552.46 1324.71 1557.49 L1345.59 1557.45 Z" fill="#000000" fill-rule="evenodd" fill-opacity="1" /><path clip-path="url(#clip870)" d="M1395.85 1529 Q1391.58 1536.32 1389.51 1543.48 Q1387.44 1550.64 1387.44 1557.99 Q1387.44 1565.35 1389.51 1572.57 Q1391.61 1579.77 1395.85 1587.05 L1390.75 1587.05 Q1385.98 1579.57 1383.59 1572.35 Q1381.24 1565.12 1381.24 1557.99 Q1381.24 1550.9 1383.59 1543.7 Q1385.95 1536.51 1390.75 1529 L1395.85 1529 Z" fill="#000000" fill-rule="evenodd" fill-opacity="1" /><path clip-path="url(#clip870)" d="M1425.7 1553.47 Q1425.7 1555.3 1424.57 1556.4 Q1423.48 1557.49 1422.09 1557.49 Q1420.87 1557.49 1420.23 1556.79 Q1419.58 1556.08 1419.58 1555.18 Q1419.58 1554.79 1419.74 1554.31 Q1419.9 1553.79 1420.26 1553.18 Q1420.64 1552.57 1421.45 1552.12 Q1422.25 1551.67 1423.35 1551.6 Q1423.12 1551.38 1423.06 1551.34 Q1422.58 1550.96 1421.67 1550.83 Q1421.55 1550.76 1421.1 1550.76 Q1418.87 1550.76 1416.62 1552.41 Q1414.4 1554.02 1411.66 1557.08 Q1408.21 1560.65 1405.99 1561.97 Q1415.75 1563.26 1415.75 1568.9 Q1415.75 1569.83 1415.49 1570.96 Q1414.98 1573.08 1414.98 1574.63 Q1414.98 1577.72 1417.07 1577.72 Q1419.1 1577.72 1420.39 1575.66 Q1421.71 1573.6 1422.8 1569.57 Q1422.96 1568.83 1423.12 1568.61 Q1423.29 1568.38 1423.74 1568.38 Q1424.54 1568.38 1424.54 1569.02 Q1423.8 1572.79 1422.16 1575.69 Q1420.06 1579.2 1416.94 1579.2 Q1414.33 1579.2 1412.59 1577.4 Q1410.89 1575.56 1410.89 1572.66 Q1410.89 1571.96 1411.14 1570.34 Q1411.34 1569.7 1411.34 1568.96 Q1411.34 1567.45 1410.5 1566.32 Q1409.66 1565.16 1408.31 1564.58 Q1406.96 1564 1405.83 1563.74 Q1404.73 1563.45 1403.67 1563.36 Q1400.45 1576.98 1400 1577.82 Q1399.71 1578.4 1399.07 1578.78 Q1398.42 1579.2 1397.75 1579.2 Q1397.1 1579.2 1396.46 1578.75 Q1395.85 1578.33 1395.85 1577.33 Q1395.85 1576.82 1396.1 1575.88 L1405.67 1537.88 L1405.86 1536.59 Q1405.86 1536.21 1405.7 1536.01 Q1405.57 1535.79 1404.8 1535.63 Q1404.06 1535.47 1402.58 1535.47 Q1401.96 1535.47 1401.68 1535.43 Q1401.42 1535.4 1401.19 1535.24 Q1400.97 1535.05 1400.97 1534.66 Q1400.97 1534.11 1401.19 1533.82 Q1401.45 1533.5 1401.64 1533.44 Q1401.84 1533.37 1402.22 1533.34 Q1402.77 1533.31 1404.61 1533.15 Q1406.44 1532.95 1408.02 1532.83 Q1409.6 1532.7 1410.27 1532.7 Q1410.66 1532.7 1410.85 1532.89 Q1411.08 1533.05 1411.11 1533.24 L1411.14 1533.4 L1404.28 1561.23 Q1407.12 1560.1 1411.59 1555.11 Q1416.78 1549.31 1421.22 1549.31 Q1423.32 1549.31 1424.51 1550.6 Q1425.7 1551.86 1425.7 1553.47 Z" fill="#000000" fill-rule="evenodd" fill-opacity="1" /><path clip-path="url(#clip870)" d="M1485.51 1569.02 Q1485.51 1569.28 1485.22 1570.28 Q1484.93 1571.28 1484.22 1572.82 Q1483.54 1574.37 1482.58 1575.79 Q1481.64 1577.17 1480.1 1578.2 Q1478.58 1579.2 1476.84 1579.2 Q1474.52 1579.2 1472.98 1577.66 Q1471.43 1576.11 1471.43 1573.79 Q1471.43 1572.53 1472.3 1570.15 Q1476.39 1559.27 1476.39 1555.37 Q1476.39 1550.76 1472.82 1550.76 Q1470.79 1550.76 1468.95 1551.6 Q1467.12 1552.44 1465.93 1553.6 Q1464.73 1554.76 1463.8 1556.08 Q1462.87 1557.4 1462.45 1558.27 Q1462.06 1559.14 1461.96 1559.52 L1458 1575.43 Q1457.68 1576.79 1457.46 1577.43 Q1457.23 1578.07 1456.62 1578.62 Q1456.01 1579.2 1455.04 1579.2 Q1454.24 1579.2 1453.66 1578.72 Q1453.11 1578.24 1453.11 1577.4 Q1453.11 1577.27 1453.27 1576.59 Q1453.43 1575.92 1453.66 1574.98 Q1453.88 1574.05 1453.98 1573.5 Q1455.14 1569.12 1455.3 1568.51 L1457.13 1560.84 Q1458.13 1557.04 1458.13 1555.37 Q1458.13 1550.76 1454.56 1550.76 Q1452.79 1550.76 1451.11 1551.44 Q1449.47 1552.08 1448.34 1552.99 Q1447.21 1553.89 1446.18 1555.14 Q1445.19 1556.37 1444.67 1557.2 Q1444.19 1558.01 1443.8 1558.82 L1442.96 1562.1 Q1442.77 1563 1441.84 1566.51 L1440.39 1572.47 Q1439.36 1576.91 1439.13 1577.33 Q1438.81 1578.24 1438.1 1578.72 Q1437.39 1579.2 1436.68 1579.2 Q1435.88 1579.2 1435.33 1578.72 Q1434.78 1578.24 1434.78 1577.4 Q1434.78 1577.27 1434.88 1576.79 Q1434.98 1576.3 1435.14 1575.63 Q1435.3 1574.95 1435.36 1574.56 L1439.19 1559.33 Q1439.9 1556.56 1440.06 1555.69 Q1440.26 1554.79 1440.26 1553.79 Q1440.26 1550.76 1438.2 1550.76 Q1436.52 1550.76 1435.43 1552.76 Q1434.33 1554.76 1433.4 1558.62 Q1433.11 1559.68 1432.91 1559.91 Q1432.75 1560.14 1432.27 1560.14 Q1431.47 1560.1 1431.47 1559.46 Q1431.47 1559.3 1431.72 1558.27 Q1431.98 1557.24 1432.46 1555.69 Q1432.98 1554.11 1433.53 1553.08 Q1433.85 1552.41 1434.14 1551.96 Q1434.43 1551.5 1435.01 1550.8 Q1435.59 1550.09 1436.46 1549.7 Q1437.33 1549.31 1438.39 1549.31 Q1440.74 1549.31 1442.48 1550.83 Q1444.25 1552.34 1444.48 1555.05 Q1448.76 1549.31 1454.75 1549.31 Q1458.13 1549.31 1460.16 1551.02 Q1462.06 1552.66 1462.29 1555.69 Q1466.73 1549.31 1473.04 1549.31 Q1476.68 1549.31 1478.65 1551.21 Q1480.61 1553.08 1480.61 1556.37 Q1480.61 1558.07 1479.74 1561.33 Q1478.87 1564.55 1478.29 1566.16 Q1477.71 1567.77 1476.59 1570.86 Q1475.39 1573.82 1475.39 1575.56 Q1475.39 1576.69 1475.78 1577.2 Q1476.17 1577.72 1477 1577.72 Q1478.29 1577.72 1479.42 1576.98 Q1480.55 1576.21 1481.35 1574.95 Q1482.19 1573.66 1482.74 1572.37 Q1483.28 1571.05 1483.7 1569.57 Q1483.96 1568.77 1484.09 1568.57 Q1484.25 1568.38 1484.7 1568.38 Q1485.51 1568.38 1485.51 1569.02 Z" fill="#000000" fill-rule="evenodd" fill-opacity="1" /><path clip-path="url(#clip870)" d="M1488.82 1529 L1493.91 1529 Q1498.69 1536.51 1501.04 1543.7 Q1503.43 1550.9 1503.43 1557.99 Q1503.43 1565.12 1501.04 1572.35 Q1498.69 1579.57 1493.91 1587.05 L1488.82 1587.05 Q1493.05 1579.77 1495.12 1572.57 Q1497.22 1565.35 1497.22 1557.99 Q1497.22 1550.64 1495.12 1543.48 Q1493.05 1536.32 1488.82 1529 Z" fill="#000000" fill-rule="evenodd" fill-opacity="1" /><polyline clip-path="url(#clip872)" style="stroke:#000000; stroke-linecap:butt; stroke-linejoin:round; stroke-width:2; stroke-opacity:0.1; fill:none" points="
  251.372,1423.18 2352.76,1423.18 
  "/>
<polyline clip-path="url(#clip872)" style="stroke:#000000; stroke-linecap:butt; stroke-linejoin:round; stroke-width:2; stroke-opacity:0.1; fill:none" points="
  251.372,1175.33 2352.76,1175.33 
  "/>
<polyline clip-path="url(#clip872)" style="stroke:#000000; stroke-linecap:butt; stroke-linejoin:round; stroke-width:2; stroke-opacity:0.1; fill:none" points="
  251.372,927.489 2352.76,927.489 
  "/>
<polyline clip-path="url(#clip872)" style="stroke:#000000; stroke-linecap:butt; stroke-linejoin:round; stroke-width:2; stroke-opacity:0.1; fill:none" points="
  251.372,679.643 2352.76,679.643 
  "/>
<polyline clip-path="url(#clip872)" style="stroke:#000000; stroke-linecap:butt; stroke-linejoin:round; stroke-width:2; stroke-opacity:0.1; fill:none" points="
  251.372,431.798 2352.76,431.798 
  "/>
<polyline clip-path="url(#clip872)" style="stroke:#000000; stroke-linecap:butt; stroke-linejoin:round; stroke-width:2; stroke-opacity:0.1; fill:none" points="
  251.372,183.952 2352.76,183.952 
  "/>
<polyline clip-path="url(#clip870)" style="stroke:#000000; stroke-linecap:butt; stroke-linejoin:round; stroke-width:4; stroke-opacity:1; fill:none" points="
  251.372,1423.18 251.372,183.952 
  "/>
<polyline clip-path="url(#clip870)" style="stroke:#000000; stroke-linecap:butt; stroke-linejoin:round; stroke-width:4; stroke-opacity:1; fill:none" points="
  251.372,1423.18 270.27,1423.18 
  "/>
<polyline clip-path="url(#clip870)" style="stroke:#000000; stroke-linecap:butt; stroke-linejoin:round; stroke-width:4; stroke-opacity:1; fill:none" points="
  251.372,1175.33 270.27,1175.33 
  "/>
<polyline clip-path="url(#clip870)" style="stroke:#000000; stroke-linecap:butt; stroke-linejoin:round; stroke-width:4; stroke-opacity:1; fill:none" points="
  251.372,927.489 270.27,927.489 
  "/>
<polyline clip-path="url(#clip870)" style="stroke:#000000; stroke-linecap:butt; stroke-linejoin:round; stroke-width:4; stroke-opacity:1; fill:none" points="
  251.372,679.643 270.27,679.643 
  "/>
<polyline clip-path="url(#clip870)" style="stroke:#000000; stroke-linecap:butt; stroke-linejoin:round; stroke-width:4; stroke-opacity:1; fill:none" points="
  251.372,431.798 270.27,431.798 
  "/>
<polyline clip-path="url(#clip870)" style="stroke:#000000; stroke-linecap:butt; stroke-linejoin:round; stroke-width:4; stroke-opacity:1; fill:none" points="
  251.372,183.952 270.27,183.952 
  "/>
<path clip-path="url(#clip870)" d="M115.232 1442.97 L122.871 1442.97 L122.871 1416.61 L114.561 1418.27 L114.561 1414.01 L122.825 1412.35 L127.501 1412.35 L127.501 1442.97 L135.14 1442.97 L135.14 1446.91 L115.232 1446.91 L115.232 1442.97 Z" fill="#000000" fill-rule="evenodd" fill-opacity="1" /><path clip-path="url(#clip870)" d="M154.584 1415.43 Q150.973 1415.43 149.144 1418.99 Q147.339 1422.53 147.339 1429.66 Q147.339 1436.77 149.144 1440.33 Q150.973 1443.88 154.584 1443.88 Q158.218 1443.88 160.024 1440.33 Q161.852 1436.77 161.852 1429.66 Q161.852 1422.53 160.024 1418.99 Q158.218 1415.43 154.584 1415.43 M154.584 1411.72 Q160.394 1411.72 163.45 1416.33 Q166.528 1420.91 166.528 1429.66 Q166.528 1438.39 163.45 1443 Q160.394 1447.58 154.584 1447.58 Q148.774 1447.58 145.695 1443 Q142.64 1438.39 142.64 1429.66 Q142.64 1420.91 145.695 1416.33 Q148.774 1411.72 154.584 1411.72 Z" fill="#000000" fill-rule="evenodd" fill-opacity="1" /><path clip-path="url(#clip870)" d="M166.528 1405.82 L190.64 1405.82 L190.64 1409.02 L166.528 1409.02 L166.528 1405.82 Z" fill="#000000" fill-rule="evenodd" fill-opacity="1" /><path clip-path="url(#clip870)" d="M202.113 1416.3 L215.372 1416.3 L215.372 1419.5 L197.542 1419.5 L197.542 1416.3 Q199.705 1414.06 203.429 1410.3 Q207.172 1406.52 208.131 1405.43 Q209.956 1403.38 210.67 1401.97 Q211.404 1400.54 211.404 1399.17 Q211.404 1396.93 209.824 1395.52 Q208.263 1394.11 205.743 1394.11 Q203.956 1394.11 201.962 1394.73 Q199.987 1395.35 197.73 1396.61 L197.73 1392.77 Q200.025 1391.85 202.019 1391.38 Q204.012 1390.91 205.667 1390.91 Q210.031 1390.91 212.626 1393.09 Q215.222 1395.27 215.222 1398.92 Q215.222 1400.65 214.563 1402.21 Q213.924 1403.75 212.212 1405.86 Q211.742 1406.41 209.222 1409.02 Q206.702 1411.62 202.113 1416.3 Z" fill="#000000" fill-rule="evenodd" fill-opacity="1" /><path clip-path="url(#clip870)" d="M114.931 1195.13 L122.57 1195.13 L122.57 1168.76 L114.26 1170.43 L114.26 1166.17 L122.524 1164.5 L127.2 1164.5 L127.2 1195.13 L134.839 1195.13 L134.839 1199.06 L114.931 1199.06 L114.931 1195.13 Z" fill="#000000" fill-rule="evenodd" fill-opacity="1" /><path clip-path="url(#clip870)" d="M154.283 1167.58 Q150.672 1167.58 148.843 1171.15 Q147.038 1174.69 147.038 1181.82 Q147.038 1188.92 148.843 1192.49 Q150.672 1196.03 154.283 1196.03 Q157.917 1196.03 159.723 1192.49 Q161.552 1188.92 161.552 1181.82 Q161.552 1174.69 159.723 1171.15 Q157.917 1167.58 154.283 1167.58 M154.283 1163.88 Q160.093 1163.88 163.149 1168.48 Q166.227 1173.07 166.227 1181.82 Q166.227 1190.54 163.149 1195.15 Q160.093 1199.73 154.283 1199.73 Q148.473 1199.73 145.394 1195.15 Q142.339 1190.54 142.339 1181.82 Q142.339 1173.07 145.394 1168.48 Q148.473 1163.88 154.283 1163.88 Z" fill="#000000" fill-rule="evenodd" fill-opacity="1" /><path clip-path="url(#clip870)" d="M166.227 1157.98 L190.339 1157.98 L190.339 1161.18 L166.227 1161.18 L166.227 1157.98 Z" fill="#000000" fill-rule="evenodd" fill-opacity="1" /><path clip-path="url(#clip870)" d="M199.197 1168.45 L205.404 1168.45 L205.404 1147.03 L198.652 1148.39 L198.652 1144.93 L205.366 1143.57 L209.166 1143.57 L209.166 1168.45 L215.372 1168.45 L215.372 1171.65 L199.197 1171.65 L199.197 1168.45 Z" fill="#000000" fill-rule="evenodd" fill-opacity="1" /><path clip-path="url(#clip870)" d="M144.667 947.281 L152.305 947.281 L152.305 920.916 L143.995 922.582 L143.995 918.323 L152.259 916.656 L156.935 916.656 L156.935 947.281 L164.574 947.281 L164.574 951.216 L144.667 951.216 L144.667 947.281 Z" fill="#000000" fill-rule="evenodd" fill-opacity="1" /><path clip-path="url(#clip870)" d="M184.018 919.735 Q180.407 919.735 178.578 923.3 Q176.773 926.841 176.773 933.971 Q176.773 941.078 178.578 944.642 Q180.407 948.184 184.018 948.184 Q187.652 948.184 189.458 944.642 Q191.287 941.078 191.287 933.971 Q191.287 926.841 189.458 923.3 Q187.652 919.735 184.018 919.735 M184.018 916.031 Q189.828 916.031 192.884 920.638 Q195.963 925.221 195.963 933.971 Q195.963 942.698 192.884 947.304 Q189.828 951.888 184.018 951.888 Q178.208 951.888 175.129 947.304 Q172.074 942.698 172.074 933.971 Q172.074 925.221 175.129 920.638 Q178.208 916.031 184.018 916.031 Z" fill="#000000" fill-rule="evenodd" fill-opacity="1" /><path clip-path="url(#clip870)" d="M205.667 898.227 Q202.733 898.227 201.248 901.124 Q199.781 904.001 199.781 909.794 Q199.781 915.568 201.248 918.465 Q202.733 921.342 205.667 921.342 Q208.62 921.342 210.087 918.465 Q211.573 915.568 211.573 909.794 Q211.573 904.001 210.087 901.124 Q208.62 898.227 205.667 898.227 M205.667 895.218 Q210.388 895.218 212.871 898.961 Q215.372 902.685 215.372 909.794 Q215.372 916.885 212.871 920.627 Q210.388 924.351 205.667 924.351 Q200.947 924.351 198.445 920.627 Q195.963 916.885 195.963 909.794 Q195.963 902.685 198.445 898.961 Q200.947 895.218 205.667 895.218 Z" fill="#000000" fill-rule="evenodd" fill-opacity="1" /><path clip-path="url(#clip870)" d="M147.356 699.436 L154.995 699.436 L154.995 673.07 L146.685 674.737 L146.685 670.477 L154.949 668.811 L159.624 668.811 L159.624 699.436 L167.263 699.436 L167.263 703.371 L147.356 703.371 L147.356 699.436 Z" fill="#000000" fill-rule="evenodd" fill-opacity="1" /><path clip-path="url(#clip870)" d="M186.708 671.889 Q183.097 671.889 181.268 675.454 Q179.462 678.996 179.462 686.126 Q179.462 693.232 181.268 696.797 Q183.097 700.338 186.708 700.338 Q190.342 700.338 192.147 696.797 Q193.976 693.232 193.976 686.126 Q193.976 678.996 192.147 675.454 Q190.342 671.889 186.708 671.889 M186.708 668.186 Q192.518 668.186 195.573 672.792 Q198.652 677.376 198.652 686.126 Q198.652 694.852 195.573 699.459 Q192.518 704.042 186.708 704.042 Q180.898 704.042 177.819 699.459 Q174.763 694.852 174.763 686.126 Q174.763 677.376 177.819 672.792 Q180.898 668.186 186.708 668.186 Z" fill="#000000" fill-rule="evenodd" fill-opacity="1" /><path clip-path="url(#clip870)" d="M199.197 672.763 L205.404 672.763 L205.404 651.341 L198.652 652.695 L198.652 649.235 L205.366 647.88 L209.166 647.88 L209.166 672.763 L215.372 672.763 L215.372 675.96 L199.197 675.96 L199.197 672.763 Z" fill="#000000" fill-rule="evenodd" fill-opacity="1" /><path clip-path="url(#clip870)" d="M146.246 451.59 L153.885 451.59 L153.885 425.225 L145.575 426.891 L145.575 422.632 L153.839 420.965 L158.515 420.965 L158.515 451.59 L166.154 451.59 L166.154 455.525 L146.246 455.525 L146.246 451.59 Z" fill="#000000" fill-rule="evenodd" fill-opacity="1" /><path clip-path="url(#clip870)" d="M185.598 424.044 Q181.987 424.044 180.158 427.609 Q178.353 431.15 178.353 438.28 Q178.353 445.386 180.158 448.951 Q181.987 452.493 185.598 452.493 Q189.232 452.493 191.038 448.951 Q192.867 445.386 192.867 438.28 Q192.867 431.15 191.038 427.609 Q189.232 424.044 185.598 424.044 M185.598 420.34 Q191.408 420.34 194.464 424.947 Q197.542 429.53 197.542 438.28 Q197.542 447.007 194.464 451.613 Q191.408 456.197 185.598 456.197 Q179.788 456.197 176.709 451.613 Q173.654 447.007 173.654 438.28 Q173.654 429.53 176.709 424.947 Q179.788 420.34 185.598 420.34 Z" fill="#000000" fill-rule="evenodd" fill-opacity="1" /><path clip-path="url(#clip870)" d="M202.113 424.918 L215.372 424.918 L215.372 428.115 L197.542 428.115 L197.542 424.918 Q199.705 422.679 203.429 418.918 Q207.172 415.138 208.131 414.047 Q209.956 411.997 210.67 410.586 Q211.404 409.157 211.404 407.784 Q211.404 405.546 209.824 404.135 Q208.263 402.724 205.743 402.724 Q203.956 402.724 201.962 403.345 Q199.987 403.966 197.73 405.226 L197.73 401.389 Q200.025 400.467 202.019 399.997 Q204.012 399.527 205.667 399.527 Q210.031 399.527 212.626 401.709 Q215.222 403.89 215.222 407.539 Q215.222 409.269 214.563 410.831 Q213.924 412.373 212.212 414.479 Q211.742 415.025 209.222 417.639 Q206.702 420.234 202.113 424.918 Z" fill="#000000" fill-rule="evenodd" fill-opacity="1" /><path clip-path="url(#clip870)" d="M145.588 203.745 L153.227 203.745 L153.227 177.379 L144.917 179.046 L144.917 174.786 L153.181 173.12 L157.857 173.12 L157.857 203.745 L165.495 203.745 L165.495 207.68 L145.588 207.68 L145.588 203.745 Z" fill="#000000" fill-rule="evenodd" fill-opacity="1" /><path clip-path="url(#clip870)" d="M184.94 176.198 Q181.329 176.198 179.5 179.763 Q177.694 183.305 177.694 190.434 Q177.694 197.541 179.5 201.106 Q181.329 204.647 184.94 204.647 Q188.574 204.647 190.38 201.106 Q192.208 197.541 192.208 190.434 Q192.208 183.305 190.38 179.763 Q188.574 176.198 184.94 176.198 M184.94 172.495 Q190.75 172.495 193.805 177.101 Q196.884 181.684 196.884 190.434 Q196.884 199.161 193.805 203.768 Q190.75 208.351 184.94 208.351 Q179.13 208.351 176.051 203.768 Q172.995 199.161 172.995 190.434 Q172.995 181.684 176.051 177.101 Q179.13 172.495 184.94 172.495 Z" fill="#000000" fill-rule="evenodd" fill-opacity="1" /><path clip-path="url(#clip870)" d="M209.579 165.129 Q212.307 165.712 213.83 167.555 Q215.372 169.398 215.372 172.107 Q215.372 176.263 212.513 178.539 Q209.655 180.815 204.388 180.815 Q202.621 180.815 200.74 180.457 Q198.878 180.119 196.884 179.423 L196.884 175.755 Q198.464 176.677 200.345 177.147 Q202.226 177.617 204.276 177.617 Q207.849 177.617 209.711 176.207 Q211.592 174.796 211.592 172.107 Q211.592 169.624 209.843 168.232 Q208.112 166.822 205.009 166.822 L201.737 166.822 L201.737 163.7 L205.16 163.7 Q207.962 163.7 209.448 162.59 Q210.934 161.462 210.934 159.355 Q210.934 157.192 209.391 156.045 Q207.868 154.879 205.009 154.879 Q203.448 154.879 201.661 155.217 Q199.875 155.556 197.73 156.271 L197.73 152.885 Q199.893 152.283 201.774 151.982 Q203.674 151.682 205.348 151.682 Q209.673 151.682 212.194 153.656 Q214.714 155.612 214.714 158.96 Q214.714 161.292 213.379 162.91 Q212.043 164.508 209.579 165.129 Z" fill="#000000" fill-rule="evenodd" fill-opacity="1" /><path clip-path="url(#clip870)" d="M41.7242 1056.59 Q42.4244 1054.52 44.7161 1052.58 Q47.0077 1050.6 51.0181 1048.63 L64.0042 1042.1 L64.0042 1049.01 L51.8138 1055.09 Q47.0395 1057.45 45.48 1059.67 Q43.9204 1061.87 43.9204 1065.69 L43.9204 1072.69 L64.0042 1072.69 L64.0042 1079.12 L16.4842 1079.12 L16.4842 1064.61 Q16.4842 1056.46 19.8898 1052.45 Q23.2955 1048.44 30.1704 1048.44 Q34.6582 1048.44 37.6183 1050.54 Q40.5784 1052.61 41.7242 1056.59 M21.7677 1072.69 L38.6368 1072.69 L38.6368 1064.61 Q38.6368 1059.96 36.5043 1057.61 Q34.34 1055.22 30.1704 1055.22 Q26.0009 1055.22 23.9002 1057.61 Q21.7677 1059.96 21.7677 1064.61 L21.7677 1072.69 Z" fill="#000000" fill-rule="evenodd" fill-opacity="1" /><path clip-path="url(#clip870)" d="M46.0847 1019.32 Q46.0847 1026.41 47.7079 1029.15 Q49.3312 1031.89 53.2461 1031.89 Q56.3653 1031.89 58.2114 1029.85 Q60.0256 1027.78 60.0256 1024.25 Q60.0256 1019.38 56.5881 1016.45 Q53.1188 1013.49 47.3897 1013.49 L46.0847 1013.49 L46.0847 1019.32 M43.6657 1007.63 L64.0042 1007.63 L64.0042 1013.49 L58.5933 1013.49 Q61.8398 1015.5 63.3994 1018.49 Q64.9272 1021.48 64.9272 1025.81 Q64.9272 1031.28 61.8716 1034.53 Q58.7843 1037.74 53.6281 1037.74 Q47.6125 1037.74 44.5569 1033.73 Q41.5014 1029.69 41.5014 1021.7 L41.5014 1013.49 L40.9285 1013.49 Q36.8862 1013.49 34.6901 1016.16 Q32.4621 1018.81 32.4621 1023.61 Q32.4621 1026.67 33.1941 1029.56 Q33.9262 1032.46 35.3903 1035.13 L29.9795 1035.13 Q28.7381 1031.92 28.1334 1028.9 Q27.4968 1025.87 27.4968 1023.01 Q27.4968 1015.27 31.5072 1011.45 Q35.5176 1007.63 43.6657 1007.63 Z" fill="#000000" fill-rule="evenodd" fill-opacity="1" /><path clip-path="url(#clip870)" d="M18.2347 989.779 L28.3562 989.779 L28.3562 977.716 L32.9077 977.716 L32.9077 989.779 L52.2594 989.779 Q56.6199 989.779 57.8613 988.601 Q59.1026 987.392 59.1026 983.731 L59.1026 977.716 L64.0042 977.716 L64.0042 983.731 Q64.0042 990.511 61.4897 993.089 Q58.9434 995.667 52.2594 995.667 L32.9077 995.667 L32.9077 999.964 L28.3562 999.964 L28.3562 995.667 L18.2347 995.667 L18.2347 989.779 Z" fill="#000000" fill-rule="evenodd" fill-opacity="1" /><path clip-path="url(#clip870)" d="M44.7161 939.522 L47.5806 939.522 L47.5806 966.449 Q53.6281 966.067 56.8109 962.82 Q59.9619 959.542 59.9619 953.717 Q59.9619 950.343 59.1344 947.192 Q58.3069 944.009 56.6518 940.89 L62.1899 940.89 Q63.5267 944.041 64.227 947.351 Q64.9272 950.662 64.9272 954.067 Q64.9272 962.597 59.9619 967.594 Q54.9967 972.56 46.5303 972.56 Q37.7774 972.56 32.6531 967.849 Q27.4968 963.107 27.4968 955.086 Q27.4968 947.892 32.1438 943.723 Q36.7589 939.522 44.7161 939.522 M42.9973 945.378 Q38.1912 945.442 35.3266 948.083 Q32.4621 950.693 32.4621 955.022 Q32.4621 959.924 35.2312 962.884 Q38.0002 965.812 43.0292 966.258 L42.9973 945.378 Z" fill="#000000" fill-rule="evenodd" fill-opacity="1" /><path clip-path="url(#clip870)" d="M32.4621 895.375 Q32.4621 900.086 36.1542 902.823 Q39.8145 905.561 46.212 905.561 Q52.6095 905.561 56.3017 902.855 Q59.9619 900.118 59.9619 895.375 Q59.9619 890.697 56.2698 887.959 Q52.5777 885.222 46.212 885.222 Q39.8781 885.222 36.186 887.959 Q32.4621 890.697 32.4621 895.375 M27.4968 895.375 Q27.4968 887.737 32.4621 883.376 Q37.4273 879.016 46.212 879.016 Q54.9649 879.016 59.9619 883.376 Q64.9272 887.737 64.9272 895.375 Q64.9272 903.046 59.9619 907.407 Q54.9649 911.735 46.212 911.735 Q37.4273 911.735 32.4621 907.407 Q27.4968 903.046 27.4968 895.375 Z" fill="#000000" fill-rule="evenodd" fill-opacity="1" /><path clip-path="url(#clip870)" d="M14.479 851.261 L19.3487 851.261 L19.3487 856.863 Q19.3487 860.014 20.6219 861.255 Q21.895 862.465 25.2052 862.465 L28.3562 862.465 L28.3562 852.821 L32.9077 852.821 L32.9077 862.465 L64.0042 862.465 L64.0042 868.353 L32.9077 868.353 L32.9077 873.955 L28.3562 873.955 L28.3562 868.353 L25.8736 868.353 Q19.9216 868.353 17.2162 865.584 Q14.479 862.815 14.479 856.799 L14.479 851.261 Z" fill="#000000" fill-rule="evenodd" fill-opacity="1" /><path clip-path="url(#clip870)" d="M20.1444 789.8 L26.9239 789.8 Q23.9002 793.047 22.4043 796.739 Q20.9083 800.399 20.9083 804.537 Q20.9083 812.685 25.9054 817.014 Q30.8707 821.342 40.2919 821.342 Q49.6813 821.342 54.6784 817.014 Q59.6436 812.685 59.6436 804.537 Q59.6436 800.399 58.1477 796.739 Q56.6518 793.047 53.6281 789.8 L60.3439 789.8 Q62.6355 793.174 63.7814 796.962 Q64.9272 800.717 64.9272 804.919 Q64.9272 815.709 58.3387 821.915 Q51.7183 828.122 40.2919 828.122 Q28.8336 828.122 22.2451 821.915 Q15.6248 815.709 15.6248 804.919 Q15.6248 800.654 16.7706 796.898 Q17.8846 793.11 20.1444 789.8 Z" fill="#000000" fill-rule="evenodd" fill-opacity="1" /><path clip-path="url(#clip870)" d="M32.4621 766.311 Q32.4621 771.021 36.1542 773.759 Q39.8145 776.496 46.212 776.496 Q52.6095 776.496 56.3017 773.79 Q59.9619 771.053 59.9619 766.311 Q59.9619 761.632 56.2698 758.895 Q52.5777 756.157 46.212 756.157 Q39.8781 756.157 36.186 758.895 Q32.4621 761.632 32.4621 766.311 M27.4968 766.311 Q27.4968 758.672 32.4621 754.311 Q37.4273 749.951 46.212 749.951 Q54.9649 749.951 59.9619 754.311 Q64.9272 758.672 64.9272 766.311 Q64.9272 773.981 59.9619 778.342 Q54.9649 782.671 46.212 782.671 Q37.4273 782.671 32.4621 778.342 Q27.4968 773.981 27.4968 766.311 Z" fill="#000000" fill-rule="evenodd" fill-opacity="1" /><path clip-path="url(#clip870)" d="M14.479 740.243 L14.479 734.387 L64.0042 734.387 L64.0042 740.243 L14.479 740.243 Z" fill="#000000" fill-rule="evenodd" fill-opacity="1" /><path clip-path="url(#clip870)" d="M14.479 722.133 L14.479 716.276 L64.0042 716.276 L64.0042 722.133 L14.479 722.133 Z" fill="#000000" fill-rule="evenodd" fill-opacity="1" /><path clip-path="url(#clip870)" d="M28.3562 704.022 L28.3562 698.166 L64.0042 698.166 L64.0042 704.022 L28.3562 704.022 M14.479 704.022 L14.479 698.166 L21.895 698.166 L21.895 704.022 L14.479 704.022 Z" fill="#000000" fill-rule="evenodd" fill-opacity="1" /><path clip-path="url(#clip870)" d="M29.4065 663.186 L34.9447 663.186 Q33.6716 665.669 33.035 668.342 Q32.3984 671.016 32.3984 673.881 Q32.3984 678.241 33.7352 680.437 Q35.072 682.602 37.7456 682.602 Q39.7826 682.602 40.9603 681.042 Q42.1061 679.482 43.1565 674.772 L43.6021 672.767 Q44.9389 666.528 47.3897 663.918 Q49.8086 661.277 54.1691 661.277 Q59.1344 661.277 62.0308 665.223 Q64.9272 669.138 64.9272 676.013 Q64.9272 678.878 64.3543 681.997 Q63.8132 685.084 62.6992 688.522 L56.6518 688.522 Q58.3387 685.275 59.198 682.124 Q60.0256 678.973 60.0256 675.886 Q60.0256 671.748 58.6251 669.52 Q57.1929 667.292 54.6147 667.292 Q52.2276 667.292 50.9545 668.915 Q49.6813 670.507 48.5037 675.949 L48.0262 677.987 Q46.8804 683.429 44.5251 685.848 Q42.138 688.267 38.0002 688.267 Q32.9713 688.267 30.2341 684.702 Q27.4968 681.138 27.4968 674.581 Q27.4968 671.334 27.9743 668.47 Q28.4517 665.605 29.4065 663.186 Z" fill="#000000" fill-rule="evenodd" fill-opacity="1" /><path clip-path="url(#clip870)" d="M28.3562 651.951 L28.3562 646.094 L64.0042 646.094 L64.0042 651.951 L28.3562 651.951 M14.479 651.951 L14.479 646.094 L21.895 646.094 L21.895 651.951 L14.479 651.951 Z" fill="#000000" fill-rule="evenodd" fill-opacity="1" /><path clip-path="url(#clip870)" d="M32.4621 620.027 Q32.4621 624.737 36.1542 627.475 Q39.8145 630.212 46.212 630.212 Q52.6095 630.212 56.3017 627.506 Q59.9619 624.769 59.9619 620.027 Q59.9619 615.348 56.2698 612.611 Q52.5777 609.873 46.212 609.873 Q39.8781 609.873 36.186 612.611 Q32.4621 615.348 32.4621 620.027 M27.4968 620.027 Q27.4968 612.388 32.4621 608.027 Q37.4273 603.667 46.212 603.667 Q54.9649 603.667 59.9619 608.027 Q64.9272 612.388 64.9272 620.027 Q64.9272 627.697 59.9619 632.058 Q54.9649 636.387 46.212 636.387 Q37.4273 636.387 32.4621 632.058 Q27.4968 627.697 27.4968 620.027 Z" fill="#000000" fill-rule="evenodd" fill-opacity="1" /><path clip-path="url(#clip870)" d="M42.4881 564.327 L64.0042 564.327 L64.0042 570.183 L42.679 570.183 Q37.6183 570.183 35.1038 572.157 Q32.5894 574.13 32.5894 578.077 Q32.5894 582.819 35.6131 585.556 Q38.6368 588.294 43.8567 588.294 L64.0042 588.294 L64.0042 594.182 L28.3562 594.182 L28.3562 588.294 L33.8944 588.294 Q30.6797 586.193 29.0883 583.36 Q27.4968 580.496 27.4968 576.772 Q27.4968 570.629 31.3163 567.478 Q35.1038 564.327 42.4881 564.327 Z" fill="#000000" fill-rule="evenodd" fill-opacity="1" /><path clip-path="url(#clip870)" d="M29.4065 529.92 L34.9447 529.92 Q33.6716 532.403 33.035 535.076 Q32.3984 537.75 32.3984 540.615 Q32.3984 544.975 33.7352 547.171 Q35.072 549.336 37.7456 549.336 Q39.7826 549.336 40.9603 547.776 Q42.1061 546.216 43.1565 541.506 L43.6021 539.501 Q44.9389 533.262 47.3897 530.652 Q49.8086 528.01 54.1691 528.01 Q59.1344 528.01 62.0308 531.957 Q64.9272 535.872 64.9272 542.747 Q64.9272 545.612 64.3543 548.731 Q63.8132 551.818 62.6992 555.256 L56.6518 555.256 Q58.3387 552.009 59.198 548.858 Q60.0256 545.707 60.0256 542.62 Q60.0256 538.482 58.6251 536.254 Q57.1929 534.026 54.6147 534.026 Q52.2276 534.026 50.9545 535.649 Q49.6813 537.241 48.5037 542.683 L48.0262 544.72 Q46.8804 550.163 44.5251 552.582 Q42.138 555.001 38.0002 555.001 Q32.9713 555.001 30.2341 551.436 Q27.4968 547.871 27.4968 541.315 Q27.4968 538.068 27.9743 535.204 Q28.4517 532.339 29.4065 529.92 Z" fill="#000000" fill-rule="evenodd" fill-opacity="1" /><path clip-path="url(#clip870)" d="M531.987 59.3397 Q534.62 60.2309 537.091 63.1475 Q539.603 66.0642 542.114 71.1683 L550.419 87.696 L541.628 87.696 L533.891 72.181 Q530.893 66.1047 528.058 64.1197 Q525.263 62.1348 520.402 62.1348 L511.49 62.1348 L511.49 87.696 L503.307 87.696 L503.307 27.216 L521.779 27.216 Q532.149 27.216 537.253 31.5505 Q542.357 35.8849 542.357 44.6349 Q542.357 50.3467 539.684 54.114 Q537.051 57.8813 531.987 59.3397 M511.49 33.9405 L511.49 55.4103 L521.779 55.4103 Q527.693 55.4103 530.691 52.6962 Q533.729 49.9416 533.729 44.6349 Q533.729 39.3282 530.691 36.6546 Q527.693 33.9405 521.779 33.9405 L511.49 33.9405 Z" fill="#000000" fill-rule="evenodd" fill-opacity="1" /><path clip-path="url(#clip870)" d="M579.423 64.8894 Q570.39 64.8894 566.906 66.9554 Q563.422 69.0213 563.422 74.0039 Q563.422 77.9738 566.015 80.3234 Q568.648 82.6324 573.144 82.6324 Q579.342 82.6324 583.069 78.2574 Q586.836 73.8419 586.836 66.5503 L586.836 64.8894 L579.423 64.8894 M594.29 61.8107 L594.29 87.696 L586.836 87.696 L586.836 80.8095 Q584.284 84.9414 580.476 86.9263 Q576.669 88.8708 571.159 88.8708 Q564.192 88.8708 560.06 84.9819 Q555.969 81.0525 555.969 74.4901 Q555.969 66.8338 561.073 62.945 Q566.217 59.0561 576.385 59.0561 L586.836 59.0561 L586.836 58.3269 Q586.836 53.1823 583.434 50.3872 Q580.071 47.5515 573.955 47.5515 Q570.066 47.5515 566.379 48.4832 Q562.693 49.415 559.29 51.2784 L559.29 44.3918 Q563.382 42.812 567.23 42.0423 Q571.078 41.2321 574.724 41.2321 Q584.568 41.2321 589.429 46.3363 Q594.29 51.4404 594.29 61.8107 Z" fill="#000000" fill-rule="evenodd" fill-opacity="1" /><path clip-path="url(#clip870)" d="M617.016 29.444 L617.016 42.3259 L632.369 42.3259 L632.369 48.1187 L617.016 48.1187 L617.016 72.7482 Q617.016 78.2979 618.514 79.8778 Q620.054 81.4576 624.712 81.4576 L632.369 81.4576 L632.369 87.696 L624.712 87.696 Q616.084 87.696 612.803 84.4958 Q609.521 81.2551 609.521 72.7482 L609.521 48.1187 L604.053 48.1187 L604.053 42.3259 L609.521 42.3259 L609.521 29.444 L617.016 29.444 Z" fill="#000000" fill-rule="evenodd" fill-opacity="1" /><path clip-path="url(#clip870)" d="M680.979 63.1475 L680.979 66.7933 L646.709 66.7933 Q647.195 74.4901 651.327 78.541 Q655.499 82.5514 662.912 82.5514 Q667.206 82.5514 671.217 81.4981 Q675.268 80.4449 679.238 78.3384 L679.238 85.387 Q675.227 87.0884 671.014 87.9796 Q666.801 88.8708 662.467 88.8708 Q651.61 88.8708 645.25 82.5514 Q638.931 76.2319 638.931 65.4565 Q638.931 54.3165 644.926 47.7946 Q650.962 41.2321 661.17 41.2321 Q670.326 41.2321 675.632 47.1464 Q680.979 53.0203 680.979 63.1475 M673.526 60.96 Q673.445 54.8432 670.082 51.1974 Q666.761 47.5515 661.252 47.5515 Q655.013 47.5515 651.246 51.0758 Q647.519 54.6001 646.952 61.0005 L673.526 60.96 Z" fill="#000000" fill-rule="evenodd" fill-opacity="1" /><path clip-path="url(#clip870)" d="M737.165 47.5515 Q731.17 47.5515 727.686 52.2506 Q724.203 56.9091 724.203 65.0514 Q724.203 73.1938 727.646 77.8928 Q731.13 82.5514 737.165 82.5514 Q743.12 82.5514 746.604 77.8523 Q750.088 73.1533 750.088 65.0514 Q750.088 56.9901 746.604 52.2911 Q743.12 47.5515 737.165 47.5515 M737.165 41.2321 Q746.888 41.2321 752.437 47.5515 Q757.987 53.8709 757.987 65.0514 Q757.987 76.1914 752.437 82.5514 Q746.888 88.8708 737.165 88.8708 Q727.403 88.8708 721.853 82.5514 Q716.344 76.1914 716.344 65.0514 Q716.344 53.8709 721.853 47.5515 Q727.403 41.2321 737.165 41.2321 Z" fill="#000000" fill-rule="evenodd" fill-opacity="1" /><path clip-path="url(#clip870)" d="M793.311 24.6639 L793.311 30.8618 L786.181 30.8618 Q782.171 30.8618 780.591 32.4822 Q779.052 34.1025 779.052 38.3155 L779.052 42.3259 L791.326 42.3259 L791.326 48.1187 L779.052 48.1187 L779.052 87.696 L771.558 87.696 L771.558 48.1187 L764.428 48.1187 L764.428 42.3259 L771.558 42.3259 L771.558 39.1662 Q771.558 31.591 775.082 28.1477 Q778.606 24.6639 786.262 24.6639 L793.311 24.6639 Z" fill="#000000" fill-rule="evenodd" fill-opacity="1" /><path clip-path="url(#clip870)" d="M871.534 31.8745 L871.534 40.503 Q867.402 36.6546 862.703 34.7507 Q858.044 32.8468 852.778 32.8468 Q842.408 32.8468 836.899 39.2067 Q831.389 45.5261 831.389 57.5168 Q831.389 69.4669 836.899 75.8269 Q842.408 82.1463 852.778 82.1463 Q858.044 82.1463 862.703 80.2423 Q867.402 78.3384 871.534 74.4901 L871.534 83.0375 Q867.24 85.9541 862.419 87.4124 Q857.639 88.8708 852.292 88.8708 Q838.56 88.8708 830.66 80.4854 Q822.761 72.0595 822.761 57.5168 Q822.761 42.9335 830.66 34.5481 Q838.56 26.1223 852.292 26.1223 Q857.72 26.1223 862.5 27.5806 Q867.321 28.9984 871.534 31.8745 Z" fill="#000000" fill-rule="evenodd" fill-opacity="1" /><path clip-path="url(#clip870)" d="M901.43 47.5515 Q895.434 47.5515 891.95 52.2506 Q888.467 56.9091 888.467 65.0514 Q888.467 73.1938 891.91 77.8928 Q895.394 82.5514 901.43 82.5514 Q907.384 82.5514 910.868 77.8523 Q914.352 73.1533 914.352 65.0514 Q914.352 56.9901 910.868 52.2911 Q907.384 47.5515 901.43 47.5515 M901.43 41.2321 Q911.152 41.2321 916.702 47.5515 Q922.251 53.8709 922.251 65.0514 Q922.251 76.1914 916.702 82.5514 Q911.152 88.8708 901.43 88.8708 Q891.667 88.8708 886.117 82.5514 Q880.608 76.1914 880.608 65.0514 Q880.608 53.8709 886.117 47.5515 Q891.667 41.2321 901.43 41.2321 Z" fill="#000000" fill-rule="evenodd" fill-opacity="1" /><path clip-path="url(#clip870)" d="M934.607 24.6639 L942.06 24.6639 L942.06 87.696 L934.607 87.696 L934.607 24.6639 Z" fill="#000000" fill-rule="evenodd" fill-opacity="1" /><path clip-path="url(#clip870)" d="M957.656 24.6639 L965.11 24.6639 L965.11 87.696 L957.656 87.696 L957.656 24.6639 Z" fill="#000000" fill-rule="evenodd" fill-opacity="1" /><path clip-path="url(#clip870)" d="M980.706 42.3259 L988.159 42.3259 L988.159 87.696 L980.706 87.696 L980.706 42.3259 M980.706 24.6639 L988.159 24.6639 L988.159 34.1025 L980.706 34.1025 L980.706 24.6639 Z" fill="#000000" fill-rule="evenodd" fill-opacity="1" /><path clip-path="url(#clip870)" d="M1032.68 43.6627 L1032.68 50.7112 Q1029.52 49.0909 1026.12 48.2807 Q1022.71 47.4705 1019.07 47.4705 Q1013.52 47.4705 1010.72 49.1719 Q1007.97 50.8733 1007.97 54.276 Q1007.97 56.8686 1009.95 58.3675 Q1011.94 59.8258 1017.93 61.1626 L1020.49 61.7297 Q1028.43 63.4311 1031.75 66.5503 Q1035.11 69.629 1035.11 75.1787 Q1035.11 81.4981 1030.09 85.1844 Q1025.1 88.8708 1016.35 88.8708 Q1012.71 88.8708 1008.74 88.1416 Q1004.81 87.4529 1000.43 86.0351 L1000.43 78.3384 Q1004.57 80.4854 1008.58 81.5791 Q1012.59 82.6324 1016.52 82.6324 Q1021.78 82.6324 1024.62 80.85 Q1027.45 79.0271 1027.45 75.7458 Q1027.45 72.7077 1025.39 71.0873 Q1023.36 69.4669 1016.43 67.9681 L1013.84 67.3605 Q1006.92 65.9021 1003.84 62.9045 Q1000.76 59.8663 1000.76 54.6001 Q1000.76 48.1997 1005.29 44.7159 Q1009.83 41.2321 1018.18 41.2321 Q1022.31 41.2321 1025.95 41.8398 Q1029.6 42.4474 1032.68 43.6627 Z" fill="#000000" fill-rule="evenodd" fill-opacity="1" /><path clip-path="url(#clip870)" d="M1046.98 42.3259 L1054.43 42.3259 L1054.43 87.696 L1046.98 87.696 L1046.98 42.3259 M1046.98 24.6639 L1054.43 24.6639 L1054.43 34.1025 L1046.98 34.1025 L1046.98 24.6639 Z" fill="#000000" fill-rule="evenodd" fill-opacity="1" /><path clip-path="url(#clip870)" d="M1087.61 47.5515 Q1081.61 47.5515 1078.13 52.2506 Q1074.65 56.9091 1074.65 65.0514 Q1074.65 73.1938 1078.09 77.8928 Q1081.57 82.5514 1087.61 82.5514 Q1093.56 82.5514 1097.05 77.8523 Q1100.53 73.1533 1100.53 65.0514 Q1100.53 56.9901 1097.05 52.2911 Q1093.56 47.5515 1087.61 47.5515 M1087.61 41.2321 Q1097.33 41.2321 1102.88 47.5515 Q1108.43 53.8709 1108.43 65.0514 Q1108.43 76.1914 1102.88 82.5514 Q1097.33 88.8708 1087.61 88.8708 Q1077.85 88.8708 1072.3 82.5514 Q1066.79 76.1914 1066.79 65.0514 Q1066.79 53.8709 1072.3 47.5515 Q1077.85 41.2321 1087.61 41.2321 Z" fill="#000000" fill-rule="evenodd" fill-opacity="1" /><path clip-path="url(#clip870)" d="M1158.5 60.3119 L1158.5 87.696 L1151.05 87.696 L1151.05 60.5549 Q1151.05 54.114 1148.53 50.9138 Q1146.02 47.7136 1141 47.7136 Q1134.96 47.7136 1131.48 51.5619 Q1128 55.4103 1128 62.0538 L1128 87.696 L1120.5 87.696 L1120.5 42.3259 L1128 42.3259 L1128 49.3744 Q1130.67 45.283 1134.28 43.2576 Q1137.92 41.2321 1142.66 41.2321 Q1150.48 41.2321 1154.49 46.0932 Q1158.5 50.9138 1158.5 60.3119 Z" fill="#000000" fill-rule="evenodd" fill-opacity="1" /><path clip-path="url(#clip870)" d="M1202.29 43.6627 L1202.29 50.7112 Q1199.13 49.0909 1195.73 48.2807 Q1192.33 47.4705 1188.68 47.4705 Q1183.13 47.4705 1180.33 49.1719 Q1177.58 50.8733 1177.58 54.276 Q1177.58 56.8686 1179.56 58.3675 Q1181.55 59.8258 1187.54 61.1626 L1190.1 61.7297 Q1198.04 63.4311 1201.36 66.5503 Q1204.72 69.629 1204.72 75.1787 Q1204.72 81.4981 1199.7 85.1844 Q1194.72 88.8708 1185.97 88.8708 Q1182.32 88.8708 1178.35 88.1416 Q1174.42 87.4529 1170.05 86.0351 L1170.05 78.3384 Q1174.18 80.4854 1178.19 81.5791 Q1182.2 82.6324 1186.13 82.6324 Q1191.39 82.6324 1194.23 80.85 Q1197.06 79.0271 1197.06 75.7458 Q1197.06 72.7077 1195 71.0873 Q1192.97 69.4669 1186.05 67.9681 L1183.45 67.3605 Q1176.53 65.9021 1173.45 62.9045 Q1170.37 59.8663 1170.37 54.6001 Q1170.37 48.1997 1174.91 44.7159 Q1179.44 41.2321 1187.79 41.2321 Q1191.92 41.2321 1195.57 41.8398 Q1199.21 42.4474 1202.29 43.6627 Z" fill="#000000" fill-rule="evenodd" fill-opacity="1" /><path clip-path="url(#clip870)" d="M1251.47 33.9405 L1251.47 56.6661 L1261.76 56.6661 Q1267.47 56.6661 1270.59 53.7089 Q1273.71 50.7518 1273.71 45.283 Q1273.71 39.8548 1270.59 36.8977 Q1267.47 33.9405 1261.76 33.9405 L1251.47 33.9405 M1243.29 27.216 L1261.76 27.216 Q1271.93 27.216 1277.11 31.834 Q1282.34 36.4116 1282.34 45.283 Q1282.34 54.2355 1277.11 58.8131 Q1271.93 63.3906 1261.76 63.3906 L1251.47 63.3906 L1251.47 87.696 L1243.29 87.696 L1243.29 27.216 Z" fill="#000000" fill-rule="evenodd" fill-opacity="1" /><path clip-path="url(#clip870)" d="M1328.84 63.1475 L1328.84 66.7933 L1294.57 66.7933 Q1295.06 74.4901 1299.19 78.541 Q1303.36 82.5514 1310.77 82.5514 Q1315.07 82.5514 1319.08 81.4981 Q1323.13 80.4449 1327.1 78.3384 L1327.1 85.387 Q1323.09 87.0884 1318.88 87.9796 Q1314.66 88.8708 1310.33 88.8708 Q1299.47 88.8708 1293.11 82.5514 Q1286.79 76.2319 1286.79 65.4565 Q1286.79 54.3165 1292.79 47.7946 Q1298.82 41.2321 1309.03 41.2321 Q1318.19 41.2321 1323.49 47.1464 Q1328.84 53.0203 1328.84 63.1475 M1321.39 60.96 Q1321.31 54.8432 1317.94 51.1974 Q1314.62 47.5515 1309.11 47.5515 Q1302.87 47.5515 1299.11 51.0758 Q1295.38 54.6001 1294.81 61.0005 L1321.39 60.96 Z" fill="#000000" fill-rule="evenodd" fill-opacity="1" /><path clip-path="url(#clip870)" d="M1367.36 49.2934 Q1366.11 48.5643 1364.61 48.2402 Q1363.15 47.8756 1361.37 47.8756 Q1355.05 47.8756 1351.65 52.0075 Q1348.28 56.0989 1348.28 63.7957 L1348.28 87.696 L1340.79 87.696 L1340.79 42.3259 L1348.28 42.3259 L1348.28 49.3744 Q1350.63 45.2425 1354.4 43.2576 Q1358.17 41.2321 1363.56 41.2321 Q1364.33 41.2321 1365.26 41.3537 Q1366.19 41.4347 1367.32 41.6372 L1367.36 49.2934 Z" fill="#000000" fill-rule="evenodd" fill-opacity="1" /><path clip-path="url(#clip870)" d="M1393.57 27.216 L1402.36 27.216 L1419.14 52.0886 L1435.78 27.216 L1444.57 27.216 L1423.19 58.8941 L1423.19 87.696 L1414.96 87.696 L1414.96 58.8941 L1393.57 27.216 Z" fill="#000000" fill-rule="evenodd" fill-opacity="1" /><path clip-path="url(#clip870)" d="M1480.02 63.1475 L1480.02 66.7933 L1445.75 66.7933 Q1446.24 74.4901 1450.37 78.541 Q1454.54 82.5514 1461.95 82.5514 Q1466.25 82.5514 1470.26 81.4981 Q1474.31 80.4449 1478.28 78.3384 L1478.28 85.387 Q1474.27 87.0884 1470.06 87.9796 Q1465.84 88.8708 1461.51 88.8708 Q1450.65 88.8708 1444.29 82.5514 Q1437.97 76.2319 1437.97 65.4565 Q1437.97 54.3165 1443.97 47.7946 Q1450 41.2321 1460.21 41.2321 Q1469.37 41.2321 1474.67 47.1464 Q1480.02 53.0203 1480.02 63.1475 M1472.57 60.96 Q1472.49 54.8432 1469.12 51.1974 Q1465.8 47.5515 1460.29 47.5515 Q1454.05 47.5515 1450.29 51.0758 Q1446.56 54.6001 1445.99 61.0005 L1472.57 60.96 Z" fill="#000000" fill-rule="evenodd" fill-opacity="1" /><path clip-path="url(#clip870)" d="M1512.87 64.8894 Q1503.84 64.8894 1500.36 66.9554 Q1496.87 69.0213 1496.87 74.0039 Q1496.87 77.9738 1499.46 80.3234 Q1502.1 82.6324 1506.59 82.6324 Q1512.79 82.6324 1516.52 78.2574 Q1520.29 73.8419 1520.29 66.5503 L1520.29 64.8894 L1512.87 64.8894 M1527.74 61.8107 L1527.74 87.696 L1520.29 87.696 L1520.29 80.8095 Q1517.73 84.9414 1513.93 86.9263 Q1510.12 88.8708 1504.61 88.8708 Q1497.64 88.8708 1493.51 84.9819 Q1489.42 81.0525 1489.42 74.4901 Q1489.42 66.8338 1494.52 62.945 Q1499.67 59.0561 1509.83 59.0561 L1520.29 59.0561 L1520.29 58.3269 Q1520.29 53.1823 1516.88 50.3872 Q1513.52 47.5515 1507.4 47.5515 Q1503.52 47.5515 1499.83 48.4832 Q1496.14 49.415 1492.74 51.2784 L1492.74 44.3918 Q1496.83 42.812 1500.68 42.0423 Q1504.53 41.2321 1508.17 41.2321 Q1518.02 41.2321 1522.88 46.3363 Q1527.74 51.4404 1527.74 61.8107 Z" fill="#000000" fill-rule="evenodd" fill-opacity="1" /><path clip-path="url(#clip870)" d="M1569.38 49.2934 Q1568.13 48.5643 1566.63 48.2402 Q1565.17 47.8756 1563.39 47.8756 Q1557.07 47.8756 1553.67 52.0075 Q1550.3 56.0989 1550.3 63.7957 L1550.3 87.696 L1542.81 87.696 L1542.81 42.3259 L1550.3 42.3259 L1550.3 49.3744 Q1552.65 45.2425 1556.42 43.2576 Q1560.19 41.2321 1565.58 41.2321 Q1566.35 41.2321 1567.28 41.3537 Q1568.21 41.4347 1569.34 41.6372 L1569.38 49.2934 Z" fill="#000000" fill-rule="evenodd" fill-opacity="1" /><path clip-path="url(#clip870)" d="M1636.14 65.0514 Q1636.14 56.8281 1632.74 52.1696 Q1629.38 47.4705 1623.46 47.4705 Q1617.55 47.4705 1614.15 52.1696 Q1610.78 56.8281 1610.78 65.0514 Q1610.78 73.2748 1614.15 77.9738 Q1617.55 82.6324 1623.46 82.6324 Q1629.38 82.6324 1632.74 77.9738 Q1636.14 73.2748 1636.14 65.0514 M1610.78 49.2124 Q1613.13 45.1615 1616.7 43.2171 Q1620.3 41.2321 1625.29 41.2321 Q1633.55 41.2321 1638.69 47.7946 Q1643.88 54.3571 1643.88 65.0514 Q1643.88 75.7458 1638.69 82.3083 Q1633.55 88.8708 1625.29 88.8708 Q1620.3 88.8708 1616.7 86.9263 Q1613.13 84.9414 1610.78 80.8905 L1610.78 87.696 L1603.29 87.696 L1603.29 24.6639 L1610.78 24.6639 L1610.78 49.2124 Z" fill="#000000" fill-rule="evenodd" fill-opacity="1" /><path clip-path="url(#clip870)" d="M1675.11 91.9089 Q1671.95 100.011 1668.95 102.482 Q1665.96 104.953 1660.93 104.953 L1654.98 104.953 L1654.98 98.7145 L1659.35 98.7145 Q1662.43 98.7145 1664.13 97.2561 Q1665.84 95.7978 1667.9 90.3696 L1669.24 86.9668 L1650.89 42.3259 L1658.79 42.3259 L1672.96 77.8118 L1687.14 42.3259 L1695.04 42.3259 L1675.11 91.9089 Z" fill="#000000" fill-rule="evenodd" fill-opacity="1" /><path clip-path="url(#clip870)" d="M1752.24 35.2773 L1741.14 65.3755 L1763.38 65.3755 L1752.24 35.2773 M1747.62 27.216 L1756.9 27.216 L1779.95 87.696 L1771.44 87.696 L1765.93 72.181 L1738.67 72.181 L1733.16 87.696 L1724.53 87.696 L1747.62 27.216 Z" fill="#000000" fill-rule="evenodd" fill-opacity="1" /><path clip-path="url(#clip870)" d="M1788.46 24.6639 L1795.91 24.6639 L1795.91 87.696 L1788.46 87.696 L1788.46 24.6639 Z" fill="#000000" fill-rule="evenodd" fill-opacity="1" /><path clip-path="url(#clip870)" d="M1818.88 29.444 L1818.88 42.3259 L1834.23 42.3259 L1834.23 48.1187 L1818.88 48.1187 L1818.88 72.7482 Q1818.88 78.2979 1820.38 79.8778 Q1821.92 81.4576 1826.58 81.4576 L1834.23 81.4576 L1834.23 87.696 L1826.58 87.696 Q1817.95 87.696 1814.67 84.4958 Q1811.38 81.2551 1811.38 72.7482 L1811.38 48.1187 L1805.92 48.1187 L1805.92 42.3259 L1811.38 42.3259 L1811.38 29.444 L1818.88 29.444 Z" fill="#000000" fill-rule="evenodd" fill-opacity="1" /><path clip-path="url(#clip870)" d="M1844.03 42.3259 L1851.49 42.3259 L1851.49 87.696 L1844.03 87.696 L1844.03 42.3259 M1844.03 24.6639 L1851.49 24.6639 L1851.49 34.1025 L1844.03 34.1025 L1844.03 24.6639 Z" fill="#000000" fill-rule="evenodd" fill-opacity="1" /><path clip-path="url(#clip870)" d="M1874.46 29.444 L1874.46 42.3259 L1889.81 42.3259 L1889.81 48.1187 L1874.46 48.1187 L1874.46 72.7482 Q1874.46 78.2979 1875.96 79.8778 Q1877.49 81.4576 1882.15 81.4576 L1889.81 81.4576 L1889.81 87.696 L1882.15 87.696 Q1873.53 87.696 1870.24 84.4958 Q1866.96 81.2551 1866.96 72.7482 L1866.96 48.1187 L1861.49 48.1187 L1861.49 42.3259 L1866.96 42.3259 L1866.96 29.444 L1874.46 29.444 Z" fill="#000000" fill-rule="evenodd" fill-opacity="1" /><path clip-path="url(#clip870)" d="M1898.84 69.791 L1898.84 42.3259 L1906.3 42.3259 L1906.3 69.5074 Q1906.3 75.9484 1908.81 79.1891 Q1911.32 82.3893 1916.34 82.3893 Q1922.38 82.3893 1925.86 78.541 Q1929.39 74.6926 1929.39 68.0491 L1929.39 42.3259 L1936.84 42.3259 L1936.84 87.696 L1929.39 87.696 L1929.39 80.7284 Q1926.67 84.8604 1923.07 86.8858 Q1919.5 88.8708 1914.76 88.8708 Q1906.95 88.8708 1902.89 84.0097 Q1898.84 79.1486 1898.84 69.791 M1917.6 41.2321 L1917.6 41.2321 Z" fill="#000000" fill-rule="evenodd" fill-opacity="1" /><path clip-path="url(#clip870)" d="M1982.05 49.2124 L1982.05 24.6639 L1989.5 24.6639 L1989.5 87.696 L1982.05 87.696 L1982.05 80.8905 Q1979.7 84.9414 1976.09 86.9263 Q1972.53 88.8708 1967.51 88.8708 Q1959.28 88.8708 1954.1 82.3083 Q1948.95 75.7458 1948.95 65.0514 Q1948.95 54.3571 1954.1 47.7946 Q1959.28 41.2321 1967.51 41.2321 Q1972.53 41.2321 1976.09 43.2171 Q1979.7 45.1615 1982.05 49.2124 M1956.65 65.0514 Q1956.65 73.2748 1960.01 77.9738 Q1963.41 82.6324 1969.33 82.6324 Q1975.24 82.6324 1978.65 77.9738 Q1982.05 73.2748 1982.05 65.0514 Q1982.05 56.8281 1978.65 52.1696 Q1975.24 47.4705 1969.33 47.4705 Q1963.41 47.4705 1960.01 52.1696 Q1956.65 56.8281 1956.65 65.0514 Z" fill="#000000" fill-rule="evenodd" fill-opacity="1" /><path clip-path="url(#clip870)" d="M2043.66 63.1475 L2043.66 66.7933 L2009.39 66.7933 Q2009.88 74.4901 2014.01 78.541 Q2018.18 82.5514 2025.6 82.5514 Q2029.89 82.5514 2033.9 81.4981 Q2037.95 80.4449 2041.92 78.3384 L2041.92 85.387 Q2037.91 87.0884 2033.7 87.9796 Q2029.48 88.8708 2025.15 88.8708 Q2014.29 88.8708 2007.93 82.5514 Q2001.61 76.2319 2001.61 65.4565 Q2001.61 54.3165 2007.61 47.7946 Q2013.65 41.2321 2023.85 41.2321 Q2033.01 41.2321 2038.32 47.1464 Q2043.66 53.0203 2043.66 63.1475 M2036.21 60.96 Q2036.13 54.8432 2032.77 51.1974 Q2029.44 47.5515 2023.94 47.5515 Q2017.7 47.5515 2013.93 51.0758 Q2010.2 54.6001 2009.64 61.0005 L2036.21 60.96 Z" fill="#000000" fill-rule="evenodd" fill-opacity="1" /><path clip-path="url(#clip870)" d="M2057.8 77.4067 L2066.35 77.4067 L2066.35 84.3743 L2059.7 97.3372 L2054.48 97.3372 L2057.8 84.3743 L2057.8 77.4067 Z" fill="#000000" fill-rule="evenodd" fill-opacity="1" /><path clip-path="url(#clip870)" d="M811.459 117.936 L822.477 117.936 L849.294 168.532 L849.294 117.936 L857.234 117.936 L857.234 178.416 L846.216 178.416 L819.399 127.82 L819.399 178.416 L811.459 178.416 L811.459 117.936 Z" fill="#000000" fill-rule="evenodd" fill-opacity="1" /><path clip-path="url(#clip870)" d="M890.776 138.272 Q884.78 138.272 881.297 142.971 Q877.813 147.629 877.813 155.771 Q877.813 163.914 881.256 168.613 Q884.74 173.271 890.776 173.271 Q896.731 173.271 900.214 168.572 Q903.698 163.873 903.698 155.771 Q903.698 147.71 900.214 143.011 Q896.731 138.272 890.776 138.272 M890.776 131.952 Q900.498 131.952 906.048 138.272 Q911.597 144.591 911.597 155.771 Q911.597 166.911 906.048 173.271 Q900.498 179.591 890.776 179.591 Q881.013 179.591 875.463 173.271 Q869.954 166.911 869.954 155.771 Q869.954 144.591 875.463 138.272 Q881.013 131.952 890.776 131.952 Z" fill="#000000" fill-rule="evenodd" fill-opacity="1" /><path clip-path="url(#clip870)" d="M961.667 151.032 L961.667 178.416 L954.213 178.416 L954.213 151.275 Q954.213 144.834 951.701 141.634 Q949.19 138.434 944.167 138.434 Q938.131 138.434 934.647 142.282 Q931.163 146.13 931.163 152.774 L931.163 178.416 L923.669 178.416 L923.669 133.046 L931.163 133.046 L931.163 140.094 Q933.837 136.003 937.442 133.978 Q941.088 131.952 945.828 131.952 Q953.646 131.952 957.656 136.813 Q961.667 141.634 961.667 151.032 Z" fill="#000000" fill-rule="evenodd" fill-opacity="1" /><path clip-path="url(#clip870)" d="M1003.23 117.936 L1037.99 117.936 L1037.99 124.823 L1011.41 124.823 L1011.41 142.647 L1035.39 142.647 L1035.39 149.533 L1011.41 149.533 L1011.41 178.416 L1003.23 178.416 L1003.23 117.936 Z" fill="#000000" fill-rule="evenodd" fill-opacity="1" /><path clip-path="url(#clip870)" d="M1045.32 160.511 L1045.32 133.046 L1052.77 133.046 L1052.77 160.227 Q1052.77 166.668 1055.28 169.909 Q1057.79 173.109 1062.82 173.109 Q1068.85 173.109 1072.34 169.261 Q1075.86 165.413 1075.86 158.769 L1075.86 133.046 L1083.32 133.046 L1083.32 178.416 L1075.86 178.416 L1075.86 171.448 Q1073.15 175.58 1069.54 177.606 Q1065.98 179.591 1061.24 179.591 Q1053.42 179.591 1049.37 174.73 Q1045.32 169.869 1045.32 160.511 M1064.07 131.952 L1064.07 131.952 Z" fill="#000000" fill-rule="evenodd" fill-opacity="1" /><path clip-path="url(#clip870)" d="M1136.38 151.032 L1136.38 178.416 L1128.93 178.416 L1128.93 151.275 Q1128.93 144.834 1126.42 141.634 Q1123.91 138.434 1118.88 138.434 Q1112.85 138.434 1109.36 142.282 Q1105.88 146.13 1105.88 152.774 L1105.88 178.416 L1098.38 178.416 L1098.38 133.046 L1105.88 133.046 L1105.88 140.094 Q1108.55 136.003 1112.16 133.978 Q1115.8 131.952 1120.54 131.952 Q1128.36 131.952 1132.37 136.813 Q1136.38 141.634 1136.38 151.032 Z" fill="#000000" fill-rule="evenodd" fill-opacity="1" /><path clip-path="url(#clip870)" d="M1183.9 134.788 L1183.9 141.755 Q1180.74 140.013 1177.54 139.163 Q1174.38 138.272 1171.14 138.272 Q1163.89 138.272 1159.88 142.89 Q1155.87 147.467 1155.87 155.771 Q1155.87 164.076 1159.88 168.694 Q1163.89 173.271 1171.14 173.271 Q1174.38 173.271 1177.54 172.421 Q1180.74 171.529 1183.9 169.788 L1183.9 176.674 Q1180.78 178.132 1177.42 178.862 Q1174.1 179.591 1170.33 179.591 Q1160.08 179.591 1154.04 173.15 Q1148.01 166.709 1148.01 155.771 Q1148.01 144.672 1154.08 138.312 Q1160.2 131.952 1170.81 131.952 Q1174.26 131.952 1177.54 132.681 Q1180.82 133.37 1183.9 134.788 Z" fill="#000000" fill-rule="evenodd" fill-opacity="1" /><path clip-path="url(#clip870)" d="M1204.23 120.164 L1204.23 133.046 L1219.59 133.046 L1219.59 138.839 L1204.23 138.839 L1204.23 163.468 Q1204.23 169.018 1205.73 170.598 Q1207.27 172.178 1211.93 172.178 L1219.59 172.178 L1219.59 178.416 L1211.93 178.416 Q1203.3 178.416 1200.02 175.216 Q1196.74 171.975 1196.74 163.468 L1196.74 138.839 L1191.27 138.839 L1191.27 133.046 L1196.74 133.046 L1196.74 120.164 L1204.23 120.164 Z" fill="#000000" fill-rule="evenodd" fill-opacity="1" /><path clip-path="url(#clip870)" d="M1229.39 133.046 L1236.84 133.046 L1236.84 178.416 L1229.39 178.416 L1229.39 133.046 M1229.39 115.384 L1236.84 115.384 L1236.84 124.823 L1229.39 124.823 L1229.39 115.384 Z" fill="#000000" fill-rule="evenodd" fill-opacity="1" /><path clip-path="url(#clip870)" d="M1270.02 138.272 Q1264.03 138.272 1260.54 142.971 Q1257.06 147.629 1257.06 155.771 Q1257.06 163.914 1260.5 168.613 Q1263.99 173.271 1270.02 173.271 Q1275.98 173.271 1279.46 168.572 Q1282.94 163.873 1282.94 155.771 Q1282.94 147.71 1279.46 143.011 Q1275.98 138.272 1270.02 138.272 M1270.02 131.952 Q1279.74 131.952 1285.29 138.272 Q1290.84 144.591 1290.84 155.771 Q1290.84 166.911 1285.29 173.271 Q1279.74 179.591 1270.02 179.591 Q1260.26 179.591 1254.71 173.271 Q1249.2 166.911 1249.2 155.771 Q1249.2 144.591 1254.71 138.272 Q1260.26 131.952 1270.02 131.952 Z" fill="#000000" fill-rule="evenodd" fill-opacity="1" /><path clip-path="url(#clip870)" d="M1340.91 151.032 L1340.91 178.416 L1333.46 178.416 L1333.46 151.275 Q1333.46 144.834 1330.95 141.634 Q1328.44 138.434 1323.41 138.434 Q1317.38 138.434 1313.89 142.282 Q1310.41 146.13 1310.41 152.774 L1310.41 178.416 L1302.91 178.416 L1302.91 133.046 L1310.41 133.046 L1310.41 140.094 Q1313.08 136.003 1316.69 133.978 Q1320.33 131.952 1325.07 131.952 Q1332.89 131.952 1336.9 136.813 Q1340.91 141.634 1340.91 151.032 Z" fill="#000000" fill-rule="evenodd" fill-opacity="1" /><path clip-path="url(#clip870)" d="M1376.4 155.609 Q1367.36 155.609 1363.88 157.675 Q1360.4 159.741 1360.4 164.724 Q1360.4 168.694 1362.99 171.043 Q1365.62 173.352 1370.12 173.352 Q1376.32 173.352 1380.04 168.977 Q1383.81 164.562 1383.81 157.27 L1383.81 155.609 L1376.4 155.609 M1391.26 152.531 L1391.26 178.416 L1383.81 178.416 L1383.81 171.529 Q1381.26 175.661 1377.45 177.646 Q1373.64 179.591 1368.13 179.591 Q1361.17 179.591 1357.03 175.702 Q1352.94 171.773 1352.94 165.21 Q1352.94 157.554 1358.05 153.665 Q1363.19 149.776 1373.36 149.776 L1383.81 149.776 L1383.81 149.047 Q1383.81 143.902 1380.41 141.107 Q1377.05 138.272 1370.93 138.272 Q1367.04 138.272 1363.35 139.203 Q1359.67 140.135 1356.27 141.998 L1356.27 135.112 Q1360.36 133.532 1364.2 132.762 Q1368.05 131.952 1371.7 131.952 Q1381.54 131.952 1386.4 137.056 Q1391.26 142.16 1391.26 152.531 Z" fill="#000000" fill-rule="evenodd" fill-opacity="1" /><path clip-path="url(#clip870)" d="M1406.62 115.384 L1414.07 115.384 L1414.07 178.416 L1406.62 178.416 L1406.62 115.384 Z" fill="#000000" fill-rule="evenodd" fill-opacity="1" /><path clip-path="url(#clip870)" d="M1492.62 119.921 L1492.62 127.901 Q1487.96 125.673 1483.83 124.579 Q1479.7 123.486 1475.85 123.486 Q1469.16 123.486 1465.52 126.078 Q1461.91 128.671 1461.91 133.451 Q1461.91 137.461 1464.3 139.527 Q1466.73 141.553 1473.46 142.809 L1478.4 143.821 Q1487.55 145.563 1491.89 149.979 Q1496.26 154.354 1496.26 161.726 Q1496.26 170.517 1490.35 175.054 Q1484.48 179.591 1473.09 179.591 Q1468.8 179.591 1463.94 178.619 Q1459.12 177.646 1453.93 175.742 L1453.93 167.317 Q1458.92 170.112 1463.7 171.529 Q1468.48 172.947 1473.09 172.947 Q1480.1 172.947 1483.91 170.193 Q1487.72 167.438 1487.72 162.334 Q1487.72 157.878 1484.96 155.366 Q1482.25 152.855 1476.01 151.599 L1471.03 150.627 Q1461.87 148.804 1457.78 144.915 Q1453.69 141.026 1453.69 134.099 Q1453.69 126.078 1459.32 121.46 Q1464.99 116.842 1474.92 116.842 Q1479.17 116.842 1483.59 117.612 Q1488 118.382 1492.62 119.921 Z" fill="#000000" fill-rule="evenodd" fill-opacity="1" /><path clip-path="url(#clip870)" d="M1529.32 155.609 Q1520.29 155.609 1516.8 157.675 Q1513.32 159.741 1513.32 164.724 Q1513.32 168.694 1515.91 171.043 Q1518.54 173.352 1523.04 173.352 Q1529.24 173.352 1532.97 168.977 Q1536.73 164.562 1536.73 157.27 L1536.73 155.609 L1529.32 155.609 M1544.19 152.531 L1544.19 178.416 L1536.73 178.416 L1536.73 171.529 Q1534.18 175.661 1530.37 177.646 Q1526.57 179.591 1521.06 179.591 Q1514.09 179.591 1509.96 175.702 Q1505.87 171.773 1505.87 165.21 Q1505.87 157.554 1510.97 153.665 Q1516.11 149.776 1526.28 149.776 L1536.73 149.776 L1536.73 149.047 Q1536.73 143.902 1533.33 141.107 Q1529.97 138.272 1523.85 138.272 Q1519.96 138.272 1516.28 139.203 Q1512.59 140.135 1509.19 141.998 L1509.19 135.112 Q1513.28 133.532 1517.13 132.762 Q1520.97 131.952 1524.62 131.952 Q1534.46 131.952 1539.33 137.056 Q1544.19 142.16 1544.19 152.531 Z" fill="#000000" fill-rule="evenodd" fill-opacity="1" /><path clip-path="url(#clip870)" d="M1566.91 120.164 L1566.91 133.046 L1582.27 133.046 L1582.27 138.839 L1566.91 138.839 L1566.91 163.468 Q1566.91 169.018 1568.41 170.598 Q1569.95 172.178 1574.61 172.178 L1582.27 172.178 L1582.27 178.416 L1574.61 178.416 Q1565.98 178.416 1562.7 175.216 Q1559.42 171.975 1559.42 163.468 L1559.42 138.839 L1553.95 138.839 L1553.95 133.046 L1559.42 133.046 L1559.42 120.164 L1566.91 120.164 Z" fill="#000000" fill-rule="evenodd" fill-opacity="1" /><path clip-path="url(#clip870)" d="M1630.88 153.868 L1630.88 157.513 L1596.61 157.513 Q1597.09 165.21 1601.22 169.261 Q1605.4 173.271 1612.81 173.271 Q1617.1 173.271 1621.11 172.218 Q1625.16 171.165 1629.13 169.058 L1629.13 176.107 Q1625.12 177.808 1620.91 178.7 Q1616.7 179.591 1612.36 179.591 Q1601.51 179.591 1595.15 173.271 Q1588.83 166.952 1588.83 156.177 Q1588.83 145.037 1594.82 138.515 Q1600.86 131.952 1611.07 131.952 Q1620.22 131.952 1625.53 137.866 Q1630.88 143.74 1630.88 153.868 M1623.42 151.68 Q1623.34 145.563 1619.98 141.917 Q1616.66 138.272 1611.15 138.272 Q1604.91 138.272 1601.14 141.796 Q1597.42 145.32 1596.85 151.721 L1623.42 151.68 Z" fill="#000000" fill-rule="evenodd" fill-opacity="1" /><path clip-path="url(#clip870)" d="M1643.11 115.384 L1650.56 115.384 L1650.56 178.416 L1643.11 178.416 L1643.11 115.384 Z" fill="#000000" fill-rule="evenodd" fill-opacity="1" /><path clip-path="url(#clip870)" d="M1666.16 115.384 L1673.61 115.384 L1673.61 178.416 L1666.16 178.416 L1666.16 115.384 Z" fill="#000000" fill-rule="evenodd" fill-opacity="1" /><path clip-path="url(#clip870)" d="M1689.21 133.046 L1696.66 133.046 L1696.66 178.416 L1689.21 178.416 L1689.21 133.046 M1689.21 115.384 L1696.66 115.384 L1696.66 124.823 L1689.21 124.823 L1689.21 115.384 Z" fill="#000000" fill-rule="evenodd" fill-opacity="1" /><path clip-path="url(#clip870)" d="M1719.63 120.164 L1719.63 133.046 L1734.98 133.046 L1734.98 138.839 L1719.63 138.839 L1719.63 163.468 Q1719.63 169.018 1721.13 170.598 Q1722.67 172.178 1727.33 172.178 L1734.98 172.178 L1734.98 178.416 L1727.33 178.416 Q1718.7 178.416 1715.42 175.216 Q1712.14 171.975 1712.14 163.468 L1712.14 138.839 L1706.67 138.839 L1706.67 133.046 L1712.14 133.046 L1712.14 120.164 L1719.63 120.164 Z" fill="#000000" fill-rule="evenodd" fill-opacity="1" /><path clip-path="url(#clip870)" d="M1783.6 153.868 L1783.6 157.513 L1749.32 157.513 Q1749.81 165.21 1753.94 169.261 Q1758.11 173.271 1765.53 173.271 Q1769.82 173.271 1773.83 172.218 Q1777.88 171.165 1781.85 169.058 L1781.85 176.107 Q1777.84 177.808 1773.63 178.7 Q1769.42 179.591 1765.08 179.591 Q1754.23 179.591 1747.87 173.271 Q1741.55 166.952 1741.55 156.177 Q1741.55 145.037 1747.54 138.515 Q1753.58 131.952 1763.79 131.952 Q1772.94 131.952 1778.25 137.866 Q1783.6 143.74 1783.6 153.868 M1776.14 151.68 Q1776.06 145.563 1772.7 141.917 Q1769.38 138.272 1763.87 138.272 Q1757.63 138.272 1753.86 141.796 Q1750.13 145.32 1749.57 151.721 L1776.14 151.68 Z" fill="#000000" fill-rule="evenodd" fill-opacity="1" /><path clip-path="url(#clip870)" d="M1824.75 134.383 L1824.75 141.431 Q1821.59 139.811 1818.19 139.001 Q1814.79 138.191 1811.14 138.191 Q1805.59 138.191 1802.8 139.892 Q1800.04 141.593 1800.04 144.996 Q1800.04 147.589 1802.03 149.087 Q1804.01 150.546 1810.01 151.883 L1812.56 152.45 Q1820.5 154.151 1823.82 157.27 Q1827.18 160.349 1827.18 165.899 Q1827.18 172.218 1822.16 175.904 Q1817.18 179.591 1808.43 179.591 Q1804.78 179.591 1800.81 178.862 Q1796.88 178.173 1792.51 176.755 L1792.51 169.058 Q1796.64 171.205 1800.65 172.299 Q1804.66 173.352 1808.59 173.352 Q1813.86 173.352 1816.69 171.57 Q1819.53 169.747 1819.53 166.466 Q1819.53 163.428 1817.46 161.807 Q1815.44 160.187 1808.51 158.688 L1805.92 158.08 Q1798.99 156.622 1795.91 153.624 Q1792.83 150.586 1792.83 145.32 Q1792.83 138.92 1797.37 135.436 Q1801.91 131.952 1810.25 131.952 Q1814.38 131.952 1818.03 132.56 Q1821.67 133.167 1824.75 134.383 Z" fill="#000000" fill-rule="evenodd" fill-opacity="1" /><polyline clip-path="url(#clip872)" style="stroke:#8b0000; stroke-linecap:butt; stroke-linejoin:round; stroke-width:4; stroke-opacity:1; fill:none" points="
  506.23,1072.08 508.612,1074.64 
  "/>
<polyline clip-path="url(#clip872)" style="stroke:#8b0000; stroke-linecap:butt; stroke-linejoin:round; stroke-width:4; stroke-opacity:1; fill:none" points="
  515.761,1082.15 518.143,1084.6 
  "/>
<polyline clip-path="url(#clip872)" style="stroke:#8b0000; stroke-linecap:butt; stroke-linejoin:round; stroke-width:4; stroke-opacity:1; fill:none" points="
  532.44,1098.72 534.823,1100.99 537.205,1103.23 539.588,956.229 541.971,1107.64 544.354,873.313 546.736,1111.97 549.119,964.884 551.502,879.708 553.885,771.83 
  556.267,1120.37 558.65,1122.42 561.033,1124.45 
  "/>
<polyline clip-path="url(#clip872)" style="stroke:#8b0000; stroke-linecap:butt; stroke-linejoin:round; stroke-width:4; stroke-opacity:1; fill:none" points="
  570.564,833.955 572.946,787.857 575.329,837.817 577.712,1138.16 580.095,903.541 582.477,1141.92 584.86,845.338 587.243,649.922 589.626,699.784 592.008,676.237 
  594.391,852.605 596.774,854.384 599.157,638.375 601.539,309.907 603.922,535.843 606.305,562.921 608.687,863.066 611.07,744.289 613.453,691.869 615.836,820.074 
  618.218,695.194 620.601,601.721 622.984,675.786 625.367,677.405 627.749,727.049 630.132,790.574 632.515,758.972 634.898,663.242 637.28,733.358 639.663,763.653 
  642.046,711.088 644.429,669.415 646.811,691.449 649.194,692.955 651.577,843.668 653.959,675.417 656.342,720.091 658.725,721.555 661.108,777.112 663.49,724.454 
  665.873,576.672 668.256,385.68 670.639,633.616 673.021,650.976 675.404,594.623 677.787,540.508 680.17,475.119 682.552,476.49 684.935,438.603 687.318,434.059 
  689.701,366.321 692.083,425.408 694.466,462.7 696.849,532.576 699.231,458.907 701.614,390.508 703.997,437.564 706.38,422.495 708.762,381.055 711.145,409.848 
  713.528,448.416 715.911,461.637 718.293,450.926 720.676,414.869 723.059,478.038 725.442,460.536 727.824,337.897 730.207,313.758 732.59,327.272 734.973,382.125 
  737.355,409.185 739.738,429.523 742.121,381.669 744.503,-68.2685 746.886,-39.9577 749.269,53.5584 751.652,251.544 754.034,208.529 756.417,202.84 758.8,102.588 
  761.183,439.941 763.565,667.786 765.948,512.631 768.331,568.842 770.714,529.213 773.096,580.218 775.479,634.085 777.862,635.178 780.245,593.066 782.627,534.677 
  785.01,551.137 787.393,515.633 789.776,523.533 792.158,492.403 794.541,563.514 796.924,548.61 799.306,495.553 801.689,602.612 804.072,536.878 806.455,604.677 
  808.837,561.614 811.22,662.226 813.603,628.255 815.986,599.179 818.368,707.056 820.751,653.955 823.134,667.256 825.517,644.304 827.899,726.987 830.282,807.132 
  832.665,698.142 835.048,765.885 837.43,686.192 839.813,628.617 842.196,732.819 844.578,769.738 846.961,839.246 849.344,840.194 851.727,705.814 854.109,754.792 
  856.492,722.543 858.875,756.66 861.258,873.621 863.64,845.798 866.023,778.163 868.406,743.116 870.789,728.075 873.171,728.983 875.554,763.073 877.937,763.973 
  880.32,914.088 882.702,881.797 885.085,766.653 887.468,829.47 889.85,807.671 892.233,856.587 894.616,857.462 896.999,959.514 899.381,859.202 901.764,888.812 
  904.147,773.64 906.53,813.748 908.912,1011.86 911.295,838.134 913.678,743.866 916.061,796.626 918.443,894.769 920.826,717.643 923.209,747.223 925.592,693.952 
  927.974,557.867 930.357,488.988 932.74,476.49 935.122,525.346 937.505,491.444 939.888,588.905 942.271,620.52 944.653,605.373 947.036,630.573 949.419,649.323 
  951.802,680.208 954.184,715.989 956.567,791.762 958.95,831.8 961.333,731.405 963.715,812.851 966.098,813.631 968.481,795.676 970.864,858.382 973.246,859.153 
  975.629,859.922 978.012,723.775 980.394,838.77 982.777,738.35 985.16,862.971 987.543,726.813 989.925,991.015 992.308,1039.8 994.691,742.114 997.074,920.823 
  999.456,788.301 1001.84,955.49 1004.22,1105.45 1006.6,895.031 1008.99,827.208 1011.37,871.137 1013.75,998.401 1016.14,1047.16 1018.52,873.312 1020.9,1000.57 
  1023.28,874.749 1025.67,852.783 1028.05,876.177 1030.43,781.772 1032.81,964.883 1035.2,965.589 1037.58,879.005 1039.96,817.775 1042.35,967.692 1044.73,1055.68 
  1047.11,935.898 1049.49,1057.06 1051.88,908.535 1054.26,821.936 1056.64,1059.13 1059.02,910.591 1061.41,911.273 1063.79,749.683 1066.17,792.157 1068.56,844.748 
  1070.94,1015.16 1073.32,765.429 1075.7,740.742 1078.09,718.727 1080.47,742.073 1082.85,768.091 1085.23,768.751 1087.62,721.372 1090,798.812 1092.38,722.683 
  1094.77,723.335 1097.15,693.898 1099.53,759.62 1101.91,747.962 1104.3,715.422 1106.68,749.249 1109.06,803.992 1111.45,789.778 1113.83,763.47 1116.21,764.106 
  1118.59,955.754 1120.98,879.601 1123.36,765.999 1125.74,903.54 1128.12,991.453 1130.51,1031.33 1132.89,1031.95 1135.27,1142.54 1137.66,1379.66 1140.04,1380.28 
  1142.42,1144.39 1144.8,1381.51 1147.19,1232.9 1149.57,1382.73 1151.95,1234.12 1154.33,1147.44 1156.72,1038.07 1159.1,1086.71 1161.48,1087.32 1163.87,1000.63 
  1166.25,968.041 1168.63,1041.07 1171.01,1238.92 1173.4,1090.3 1175.78,1090.89 1178.16,1004.19 1180.54,1044.03 1182.93,1092.65 1185.31,972.766 1187.69,1093.82 
  1190.08,1392.84 1192.46,1046.95 1194.84,1047.52 1197.22,1245.36 1199.61,1048.68 1201.99,1010 1204.37,1159.79 
  "/>
<polyline clip-path="url(#clip872)" style="stroke:#8b0000; stroke-linecap:butt; stroke-linejoin:round; stroke-width:4; stroke-opacity:1; fill:none" points="
  1209.14,1397.44 1211.52,1248.79 1213.9,1162.07 1216.29,1399.14 1218.67,1250.48 1221.05,1251.04 1223.43,1400.82 1225.82,1401.38 
  "/>
<polyline clip-path="url(#clip872)" style="stroke:#8b0000; stroke-linecap:butt; stroke-linejoin:round; stroke-width:4; stroke-opacity:1; fill:none" points="
  1237.73,1167.65 1240.11,1255.49 1242.5,1106.82 1244.88,1256.59 1247.26,1257.13 1249.64,1257.68 1252.03,1170.93 1254.41,1258.76 1256.79,1062.05 1259.17,913.371 
  1261.56,893.391 1263.94,787.91 1266.32,726.514 1268.71,727.048 1271.09,746.313 1273.47,746.844 1275.85,703.287 1278.24,667.241 1280.62,720.912 1283,758.972 
  1285.38,781.043 1287.77,760.021 1290.15,881.015 1292.53,943.467 1294.92,998.089 1297.3,1031.79 1299.68,1119.6 1302.06,1269.33 1304.45,1269.85 1306.83,1270.36 
  1309.21,1420.09 1311.59,1420.6 1313.98,1421.11 1316.36,1123.19 1318.74,1272.91 1321.13,1422.64 1323.51,1273.92 
  "/>
<polyline clip-path="url(#clip872)" style="stroke:#8b0000; stroke-linecap:butt; stroke-linejoin:round; stroke-width:4; stroke-opacity:1; fill:none" points="
  1333.04,1275.93 1335.42,1276.43 
  "/>
<polyline clip-path="url(#clip872)" style="stroke:#8b0000; stroke-linecap:butt; stroke-linejoin:round; stroke-width:4; stroke-opacity:1; fill:none" points="
  1340.19,1426.65 1342.57,1277.92 
  "/>
<polyline clip-path="url(#clip872)" style="stroke:#8b0000; stroke-linecap:butt; stroke-linejoin:round; stroke-width:4; stroke-opacity:1; fill:none" points="
  1352.1,1429.11 1354.48,1193.1 1356.87,1280.88 1359.25,1430.58 1361.63,1194.56 
  "/>
<polyline clip-path="url(#clip872)" style="stroke:#8b0000; stroke-linecap:butt; stroke-linejoin:round; stroke-width:4; stroke-opacity:1; fill:none" points="
  1373.55,1433.49 1375.93,1433.97 1378.31,1285.23 1380.69,1434.93 1383.08,1136.97 1385.46,1435.88 
  "/>
<polyline clip-path="url(#clip872)" style="stroke:#8b0000; stroke-linecap:butt; stroke-linejoin:round; stroke-width:4; stroke-opacity:1; fill:none" points="
  1390.23,1287.61 1392.61,1437.3 1394.99,1437.77 
  "/>
<polyline clip-path="url(#clip872)" style="stroke:#8b0000; stroke-linecap:butt; stroke-linejoin:round; stroke-width:4; stroke-opacity:1; fill:none" points="
  1399.76,1289.5 1402.14,1439.18 
  "/>
<polyline clip-path="url(#clip872)" style="stroke:#8b0000; stroke-linecap:butt; stroke-linejoin:round; stroke-width:4; stroke-opacity:1; fill:none" points="
  1406.9,1440.12 1409.29,1440.59 
  "/>
<polyline clip-path="url(#clip872)" style="stroke:#8b0000; stroke-linecap:butt; stroke-linejoin:round; stroke-width:4; stroke-opacity:1; fill:none" points="
  1414.05,945.823 1416.44,1205.47 1418.82,994.786 1421.2,1293.68 1423.58,927.151 1425.97,970.81 1428.35,928.068 1430.73,789.322 1433.11,743.801 1435.5,728.302 
  1437.88,812.233 1440.26,863.575 1442.65,878.88 1445.03,825.229 1447.41,879.782 1449.79,880.231 1452.18,880.68 1454.56,953.561 1456.94,756.753 1459.32,897.973 
  1461.71,954.899 1464.09,898.862 1466.47,916.536 1468.86,978.909 1471.24,842.437 1473.62,936.591 1476,707.15 1478.39,831.45 1480.77,831.888 1483.15,789.125 
  1485.53,832.76 1487.92,771.264 1490.3,800.444 1492.68,800.877 1495.07,904.55 1497.45,812.244 1499.83,889.459 1502.21,824.147 1504.6,848.52 1506.98,836.643 
  1509.36,986.288 1511.74,862.852 1514.13,987.14 1516.51,964.883 1518.89,1114.52 1521.28,988.411 1523.66,1115.37 1526.04,1043.36 1528.42,1164.25 1530.81,1164.67 
  1533.19,1165.09 1535.57,1117.47 1537.96,1165.92 
  "/>
<polyline clip-path="url(#clip872)" style="stroke:#8b0000; stroke-linecap:butt; stroke-linejoin:round; stroke-width:4; stroke-opacity:1; fill:none" points="
  1542.72,1465.19 1545.1,1229.1 1547.49,1167.58 1549.87,1229.93 1552.25,1230.34 
  "/>
<polyline clip-path="url(#clip872)" style="stroke:#8b0000; stroke-linecap:butt; stroke-linejoin:round; stroke-width:4; stroke-opacity:1; fill:none" points="
  1557.02,1169.23 1559.4,1318.86 1561.78,1468.49 
  "/>
<polyline clip-path="url(#clip872)" style="stroke:#8b0000; stroke-linecap:butt; stroke-linejoin:round; stroke-width:4; stroke-opacity:1; fill:none" points="
  1566.55,1469.3 1568.93,1320.49 1571.31,1470.12 1573.7,1234.02 
  "/>
<polyline clip-path="url(#clip872)" style="stroke:#8b0000; stroke-linecap:butt; stroke-linejoin:round; stroke-width:4; stroke-opacity:1; fill:none" points="
  1578.46,1172.89 1580.84,1322.51 1583.23,1235.63 
  "/>
<polyline clip-path="url(#clip872)" style="stroke:#8b0000; stroke-linecap:butt; stroke-linejoin:round; stroke-width:4; stroke-opacity:1; fill:none" points="
  1587.99,1472.94 1590.38,1473.34 1592.76,1324.52 
  "/>
<polyline clip-path="url(#clip872)" style="stroke:#8b0000; stroke-linecap:butt; stroke-linejoin:round; stroke-width:4; stroke-opacity:1; fill:none" points="
  1599.91,1238.43 1602.29,1326.11 1604.67,1326.51 1607.05,1476.12 
  "/>
<polyline clip-path="url(#clip872)" style="stroke:#8b0000; stroke-linecap:butt; stroke-linejoin:round; stroke-width:4; stroke-opacity:1; fill:none" points="
  1616.59,1477.69 1618.97,1478.08 1621.35,1478.47 1623.73,1329.65 1626.12,1479.25 1628.5,1330.42 1630.88,1330.81 1633.26,1331.2 1635.65,1480.8 1638.03,1481.19 
  1640.41,1481.57 
  "/>
<polyline clip-path="url(#clip872)" style="stroke:#8b0000; stroke-linecap:butt; stroke-linejoin:round; stroke-width:4; stroke-opacity:1; fill:none" points="
  1645.18,1482.34 1647.56,1482.72 1649.94,1483.11 
  "/>
<polyline clip-path="url(#clip872)" style="stroke:#8b0000; stroke-linecap:butt; stroke-linejoin:round; stroke-width:4; stroke-opacity:1; fill:none" points="
  1654.71,1483.87 1657.09,1247.75 1659.47,1335.41 1661.86,1485.01 1664.24,1336.17 1666.62,1336.55 1669.01,1336.92 1671.39,1486.52 1673.77,1486.89 
  "/>
<polyline clip-path="url(#clip872)" style="stroke:#8b0000; stroke-linecap:butt; stroke-linejoin:round; stroke-width:4; stroke-opacity:1; fill:none" points="
  1730.96,1346.5 1733.34,1496.08 
  "/>
<polyline clip-path="url(#clip872)" style="stroke:#8b0000; stroke-linecap:butt; stroke-linejoin:round; stroke-width:4; stroke-opacity:1; fill:none" points="
  1780.99,1503.16 1783.38,1503.5 1785.76,1354.63 
  "/>
<polyline clip-path="url(#clip872)" style="stroke:#8b0000; stroke-linecap:butt; stroke-linejoin:round; stroke-width:4; stroke-opacity:1; fill:none" points="
  1845.33,1512.35 1847.71,1512.69 
  "/>
<polyline clip-path="url(#clip872)" style="stroke:#8b0000; stroke-linecap:butt; stroke-linejoin:round; stroke-width:4; stroke-opacity:1; fill:none" points="
  1857.24,1364.8 1859.62,1514.35 
  "/>
<polyline clip-path="url(#clip872)" style="stroke:#8b0000; stroke-linecap:butt; stroke-linejoin:round; stroke-width:4; stroke-opacity:1; fill:none" points="
  1890.6,1369.38 1892.98,1518.92 
  "/>
<polyline clip-path="url(#clip872)" style="stroke:#8b0000; stroke-linecap:butt; stroke-linejoin:round; stroke-width:4; stroke-opacity:1; fill:none" points="
  1900.13,1519.89 1902.51,1520.21 
  "/>
<polyline clip-path="url(#clip872)" style="stroke:#8b0000; stroke-linecap:butt; stroke-linejoin:round; stroke-width:4; stroke-opacity:1; fill:none" points="
  1916.81,1522.13 1919.19,1522.45 
  "/>
<polyline clip-path="url(#clip872)" style="stroke:#8b0000; stroke-linecap:butt; stroke-linejoin:round; stroke-width:4; stroke-opacity:1; fill:none" points="
  1923.96,1523.09 1926.34,1523.4 
  "/>
<polyline clip-path="url(#clip872)" style="stroke:#8b0000; stroke-linecap:butt; stroke-linejoin:round; stroke-width:4; stroke-opacity:1; fill:none" points="
  1940.64,1525.3 1943.02,1525.61 1945.4,1525.92 
  "/>
<polyline clip-path="url(#clip872)" style="stroke:#8b0000; stroke-linecap:butt; stroke-linejoin:round; stroke-width:4; stroke-opacity:1; fill:none" points="
  1985.91,1531.18 1988.29,1531.49 
  "/>
<polyline clip-path="url(#clip872)" style="stroke:#8b0000; stroke-linecap:butt; stroke-linejoin:round; stroke-width:4; stroke-opacity:1; fill:none" points="
  1995.44,1532.4 1997.82,1532.71 2000.21,1533.01 2002.59,1384.09 2004.97,1533.61 2007.35,1533.92 
  "/>
<polyline clip-path="url(#clip872)" style="stroke:#8b0000; stroke-linecap:butt; stroke-linejoin:round; stroke-width:4; stroke-opacity:1; fill:none" points="
  2238.48,1561.36 2240.86,1561.62 
  "/>
<polyline clip-path="url(#clip872)" style="stroke:#8b0000; stroke-linecap:butt; stroke-linejoin:round; stroke-width:4; stroke-opacity:1; fill:none" points="
  2267.07,1564.52 2269.46,1564.78 
  "/>
</svg>
