<?xml version="1.0" encoding="utf-8"?>
<svg xmlns="http://www.w3.org/2000/svg" xmlns:xlink="http://www.w3.org/1999/xlink" width="600" height="400" viewBox="0 0 2400 1600">
<defs>
  <clipPath id="clip620">
    <rect x="0" y="0" width="2400" height="1600"/>
  </clipPath>
</defs>
<path clip-path="url(#clip620)" d="
M0 1600 L2400 1600 L2400 0 L0 0  Z
  " fill="#ffffff" fill-rule="evenodd" fill-opacity="1"/>
<defs>
  <clipPath id="clip621">
    <rect x="480" y="0" width="1681" height="1600"/>
  </clipPath>
</defs>
<defs>
  <clipPath id="clip622">
    <rect x="367" y="183" width="1986" height="1240"/>
  </clipPath>
</defs>
<path clip-path="url(#clip620)" d="
M367.967 1423.18 L2352.76 1423.18 L2352.76 183.952 L367.967 183.952  Z
  " fill="#ffffff" fill-rule="evenodd" fill-opacity="1"/>
<polyline clip-path="url(#clip622)" style="stroke:#000000; stroke-linecap:butt; stroke-linejoin:round; stroke-width:2; stroke-opacity:0.1; fill:none" points="
  385.927,1423.18 385.927,183.952 
  "/>
<polyline clip-path="url(#clip622)" style="stroke:#000000; stroke-linecap:butt; stroke-linejoin:round; stroke-width:2; stroke-opacity:0.1; fill:none" points="
  768.059,1423.18 768.059,183.952 
  "/>
<polyline clip-path="url(#clip622)" style="stroke:#000000; stroke-linecap:butt; stroke-linejoin:round; stroke-width:2; stroke-opacity:0.1; fill:none" points="
  1150.19,1423.18 1150.19,183.952 
  "/>
<polyline clip-path="url(#clip622)" style="stroke:#000000; stroke-linecap:butt; stroke-linejoin:round; stroke-width:2; stroke-opacity:0.1; fill:none" points="
  1532.32,1423.18 1532.32,183.952 
  "/>
<polyline clip-path="url(#clip622)" style="stroke:#000000; stroke-linecap:butt; stroke-linejoin:round; stroke-width:2; stroke-opacity:0.1; fill:none" points="
  1914.45,1423.18 1914.45,183.952 
  "/>
<polyline clip-path="url(#clip622)" style="stroke:#000000; stroke-linecap:butt; stroke-linejoin:round; stroke-width:2; stroke-opacity:0.1; fill:none" points="
  2296.58,1423.18 2296.58,183.952 
  "/>
<polyline clip-path="url(#clip620)" style="stroke:#000000; stroke-linecap:butt; stroke-linejoin:round; stroke-width:4; stroke-opacity:1; fill:none" points="
  367.967,1423.18 2352.76,1423.18 
  "/>
<polyline clip-path="url(#clip620)" style="stroke:#000000; stroke-linecap:butt; stroke-linejoin:round; stroke-width:4; stroke-opacity:1; fill:none" points="
  385.927,1423.18 385.927,1404.28 
  "/>
<polyline clip-path="url(#clip620)" style="stroke:#000000; stroke-linecap:butt; stroke-linejoin:round; stroke-width:4; stroke-opacity:1; fill:none" points="
  768.059,1423.18 768.059,1404.28 
  "/>
<polyline clip-path="url(#clip620)" style="stroke:#000000; stroke-linecap:butt; stroke-linejoin:round; stroke-width:4; stroke-opacity:1; fill:none" points="
  1150.19,1423.18 1150.19,1404.28 
  "/>
<polyline clip-path="url(#clip620)" style="stroke:#000000; stroke-linecap:butt; stroke-linejoin:round; stroke-width:4; stroke-opacity:1; fill:none" points="
  1532.32,1423.18 1532.32,1404.28 
  "/>
<polyline clip-path="url(#clip620)" style="stroke:#000000; stroke-linecap:butt; stroke-linejoin:round; stroke-width:4; stroke-opacity:1; fill:none" points="
  1914.45,1423.18 1914.45,1404.28 
  "/>
<polyline clip-path="url(#clip620)" style="stroke:#000000; stroke-linecap:butt; stroke-linejoin:round; stroke-width:4; stroke-opacity:1; fill:none" points="
  2296.58,1423.18 2296.58,1404.28 
  "/>
<path clip-path="url(#clip620)" d="M385.927 1454.1 Q382.316 1454.1 380.488 1457.66 Q378.682 1461.2 378.682 1468.33 Q378.682 1475.44 380.488 1479.01 Q382.316 1482.55 385.927 1482.55 Q389.562 1482.55 391.367 1479.01 Q393.196 1475.44 393.196 1468.33 Q393.196 1461.2 391.367 1457.66 Q389.562 1454.1 385.927 1454.1 M385.927 1450.39 Q391.738 1450.39 394.793 1455 Q397.872 1459.58 397.872 1468.33 Q397.872 1477.06 394.793 1481.67 Q391.738 1486.25 385.927 1486.25 Q380.117 1486.25 377.039 1481.67 Q373.983 1477.06 373.983 1468.33 Q373.983 1459.58 377.039 1455 Q380.117 1450.39 385.927 1450.39 Z" fill="#000000" fill-rule="evenodd" fill-opacity="1" /><path clip-path="url(#clip620)" d="M727.677 1451.02 L746.033 1451.02 L746.033 1454.96 L731.959 1454.96 L731.959 1463.43 Q732.978 1463.08 733.996 1462.92 Q735.015 1462.73 736.033 1462.73 Q741.82 1462.73 745.2 1465.9 Q748.579 1469.08 748.579 1474.49 Q748.579 1480.07 745.107 1483.17 Q741.635 1486.25 735.316 1486.25 Q733.14 1486.25 730.871 1485.88 Q728.626 1485.51 726.218 1484.77 L726.218 1480.07 Q728.302 1481.2 730.524 1481.76 Q732.746 1482.32 735.223 1482.32 Q739.228 1482.32 741.566 1480.21 Q743.904 1478.1 743.904 1474.49 Q743.904 1470.88 741.566 1468.77 Q739.228 1466.67 735.223 1466.67 Q733.348 1466.67 731.473 1467.08 Q729.621 1467.5 727.677 1468.38 L727.677 1451.02 Z" fill="#000000" fill-rule="evenodd" fill-opacity="1" /><path clip-path="url(#clip620)" d="M767.792 1454.1 Q764.181 1454.1 762.353 1457.66 Q760.547 1461.2 760.547 1468.33 Q760.547 1475.44 762.353 1479.01 Q764.181 1482.55 767.792 1482.55 Q771.427 1482.55 773.232 1479.01 Q775.061 1475.44 775.061 1468.33 Q775.061 1461.2 773.232 1457.66 Q771.427 1454.1 767.792 1454.1 M767.792 1450.39 Q773.602 1450.39 776.658 1455 Q779.737 1459.58 779.737 1468.33 Q779.737 1477.06 776.658 1481.67 Q773.602 1486.25 767.792 1486.25 Q761.982 1486.25 758.903 1481.67 Q755.848 1477.06 755.848 1468.33 Q755.848 1459.58 758.903 1455 Q761.982 1450.39 767.792 1450.39 Z" fill="#000000" fill-rule="evenodd" fill-opacity="1" /><path clip-path="url(#clip620)" d="M797.954 1454.1 Q794.343 1454.1 792.514 1457.66 Q790.709 1461.2 790.709 1468.33 Q790.709 1475.44 792.514 1479.01 Q794.343 1482.55 797.954 1482.55 Q801.588 1482.55 803.394 1479.01 Q805.223 1475.44 805.223 1468.33 Q805.223 1461.2 803.394 1457.66 Q801.588 1454.1 797.954 1454.1 M797.954 1450.39 Q803.764 1450.39 806.82 1455 Q809.899 1459.58 809.899 1468.33 Q809.899 1477.06 806.82 1481.67 Q803.764 1486.25 797.954 1486.25 Q792.144 1486.25 789.065 1481.67 Q786.01 1477.06 786.01 1468.33 Q786.01 1459.58 789.065 1455 Q792.144 1450.39 797.954 1450.39 Z" fill="#000000" fill-rule="evenodd" fill-opacity="1" /><path clip-path="url(#clip620)" d="M1094.72 1481.64 L1102.35 1481.64 L1102.35 1455.28 L1094.04 1456.95 L1094.04 1452.69 L1102.31 1451.02 L1106.98 1451.02 L1106.98 1481.64 L1114.62 1481.64 L1114.62 1485.58 L1094.72 1485.58 L1094.72 1481.64 Z" fill="#000000" fill-rule="evenodd" fill-opacity="1" /><path clip-path="url(#clip620)" d="M1134.07 1454.1 Q1130.46 1454.1 1128.63 1457.66 Q1126.82 1461.2 1126.82 1468.33 Q1126.82 1475.44 1128.63 1479.01 Q1130.46 1482.55 1134.07 1482.55 Q1137.7 1482.55 1139.51 1479.01 Q1141.34 1475.44 1141.34 1468.33 Q1141.34 1461.2 1139.51 1457.66 Q1137.7 1454.1 1134.07 1454.1 M1134.07 1450.39 Q1139.88 1450.39 1142.93 1455 Q1146.01 1459.58 1146.01 1468.33 Q1146.01 1477.06 1142.93 1481.67 Q1139.88 1486.25 1134.07 1486.25 Q1128.26 1486.25 1125.18 1481.67 Q1122.12 1477.06 1122.12 1468.33 Q1122.12 1459.58 1125.18 1455 Q1128.26 1450.39 1134.07 1450.39 Z" fill="#000000" fill-rule="evenodd" fill-opacity="1" /><path clip-path="url(#clip620)" d="M1164.23 1454.1 Q1160.62 1454.1 1158.79 1457.66 Q1156.98 1461.2 1156.98 1468.33 Q1156.98 1475.44 1158.79 1479.01 Q1160.62 1482.55 1164.23 1482.55 Q1167.86 1482.55 1169.67 1479.01 Q1171.5 1475.44 1171.5 1468.33 Q1171.5 1461.2 1169.67 1457.66 Q1167.86 1454.1 1164.23 1454.1 M1164.23 1450.39 Q1170.04 1450.39 1173.09 1455 Q1176.17 1459.58 1176.17 1468.33 Q1176.17 1477.06 1173.09 1481.67 Q1170.04 1486.25 1164.23 1486.25 Q1158.42 1486.25 1155.34 1481.67 Q1152.28 1477.06 1152.28 1468.33 Q1152.28 1459.58 1155.34 1455 Q1158.42 1450.39 1164.23 1450.39 Z" fill="#000000" fill-rule="evenodd" fill-opacity="1" /><path clip-path="url(#clip620)" d="M1194.39 1454.1 Q1190.78 1454.1 1188.95 1457.66 Q1187.15 1461.2 1187.15 1468.33 Q1187.15 1475.44 1188.95 1479.01 Q1190.78 1482.55 1194.39 1482.55 Q1198.02 1482.55 1199.83 1479.01 Q1201.66 1475.44 1201.66 1468.33 Q1201.66 1461.2 1199.83 1457.66 Q1198.02 1454.1 1194.39 1454.1 M1194.39 1450.39 Q1200.2 1450.39 1203.26 1455 Q1206.34 1459.58 1206.34 1468.33 Q1206.34 1477.06 1203.26 1481.67 Q1200.2 1486.25 1194.39 1486.25 Q1188.58 1486.25 1185.5 1481.67 Q1182.45 1477.06 1182.45 1468.33 Q1182.45 1459.58 1185.5 1455 Q1188.58 1450.39 1194.39 1450.39 Z" fill="#000000" fill-rule="evenodd" fill-opacity="1" /><path clip-path="url(#clip620)" d="M1476.85 1481.64 L1484.49 1481.64 L1484.49 1455.28 L1476.18 1456.95 L1476.18 1452.69 L1484.44 1451.02 L1489.11 1451.02 L1489.11 1481.64 L1496.75 1481.64 L1496.75 1485.58 L1476.85 1485.58 L1476.85 1481.64 Z" fill="#000000" fill-rule="evenodd" fill-opacity="1" /><path clip-path="url(#clip620)" d="M1506.24 1451.02 L1524.6 1451.02 L1524.6 1454.96 L1510.53 1454.96 L1510.53 1463.43 Q1511.55 1463.08 1512.56 1462.92 Q1513.58 1462.73 1514.6 1462.73 Q1520.39 1462.73 1523.77 1465.9 Q1527.15 1469.08 1527.15 1474.49 Q1527.15 1480.07 1523.67 1483.17 Q1520.2 1486.25 1513.88 1486.25 Q1511.71 1486.25 1509.44 1485.88 Q1507.19 1485.51 1504.79 1484.77 L1504.79 1480.07 Q1506.87 1481.2 1509.09 1481.76 Q1511.31 1482.32 1513.79 1482.32 Q1517.8 1482.32 1520.13 1480.21 Q1522.47 1478.1 1522.47 1474.49 Q1522.47 1470.88 1520.13 1468.77 Q1517.8 1466.67 1513.79 1466.67 Q1511.92 1466.67 1510.04 1467.08 Q1508.19 1467.5 1506.24 1468.38 L1506.24 1451.02 Z" fill="#000000" fill-rule="evenodd" fill-opacity="1" /><path clip-path="url(#clip620)" d="M1546.36 1454.1 Q1542.75 1454.1 1540.92 1457.66 Q1539.11 1461.2 1539.11 1468.33 Q1539.11 1475.44 1540.92 1479.01 Q1542.75 1482.55 1546.36 1482.55 Q1549.99 1482.55 1551.8 1479.01 Q1553.63 1475.44 1553.63 1468.33 Q1553.63 1461.2 1551.8 1457.66 Q1549.99 1454.1 1546.36 1454.1 M1546.36 1450.39 Q1552.17 1450.39 1555.23 1455 Q1558.3 1459.58 1558.3 1468.33 Q1558.3 1477.06 1555.23 1481.67 Q1552.17 1486.25 1546.36 1486.25 Q1540.55 1486.25 1537.47 1481.67 Q1534.42 1477.06 1534.42 1468.33 Q1534.42 1459.58 1537.47 1455 Q1540.55 1450.39 1546.36 1450.39 Z" fill="#000000" fill-rule="evenodd" fill-opacity="1" /><path clip-path="url(#clip620)" d="M1576.52 1454.1 Q1572.91 1454.1 1571.08 1457.66 Q1569.28 1461.2 1569.28 1468.33 Q1569.28 1475.44 1571.08 1479.01 Q1572.91 1482.55 1576.52 1482.55 Q1580.16 1482.55 1581.96 1479.01 Q1583.79 1475.44 1583.79 1468.33 Q1583.79 1461.2 1581.96 1457.66 Q1580.16 1454.1 1576.52 1454.1 M1576.52 1450.39 Q1582.33 1450.39 1585.39 1455 Q1588.47 1459.58 1588.47 1468.33 Q1588.47 1477.06 1585.39 1481.67 Q1582.33 1486.25 1576.52 1486.25 Q1570.71 1486.25 1567.63 1481.67 Q1564.58 1477.06 1564.58 1468.33 Q1564.58 1459.58 1567.63 1455 Q1570.71 1450.39 1576.52 1450.39 Z" fill="#000000" fill-rule="evenodd" fill-opacity="1" /><path clip-path="url(#clip620)" d="M1863.06 1481.64 L1879.38 1481.64 L1879.38 1485.58 L1857.44 1485.58 L1857.44 1481.64 Q1860.1 1478.89 1864.68 1474.26 Q1869.29 1469.61 1870.47 1468.27 Q1872.72 1465.74 1873.6 1464.01 Q1874.5 1462.25 1874.5 1460.56 Q1874.5 1457.8 1872.55 1456.07 Q1870.63 1454.33 1867.53 1454.33 Q1865.33 1454.33 1862.88 1455.09 Q1860.45 1455.86 1857.67 1457.41 L1857.67 1452.69 Q1860.49 1451.55 1862.95 1450.97 Q1865.4 1450.39 1867.44 1450.39 Q1872.81 1450.39 1876 1453.08 Q1879.2 1455.77 1879.2 1460.26 Q1879.2 1462.39 1878.39 1464.31 Q1877.6 1466.2 1875.49 1468.8 Q1874.91 1469.47 1871.81 1472.69 Q1868.71 1475.88 1863.06 1481.64 Z" fill="#000000" fill-rule="evenodd" fill-opacity="1" /><path clip-path="url(#clip620)" d="M1899.2 1454.1 Q1895.59 1454.1 1893.76 1457.66 Q1891.95 1461.2 1891.95 1468.33 Q1891.95 1475.44 1893.76 1479.01 Q1895.59 1482.55 1899.2 1482.55 Q1902.83 1482.55 1904.64 1479.01 Q1906.47 1475.44 1906.47 1468.33 Q1906.47 1461.2 1904.64 1457.66 Q1902.83 1454.1 1899.2 1454.1 M1899.2 1450.39 Q1905.01 1450.39 1908.06 1455 Q1911.14 1459.58 1911.14 1468.33 Q1911.14 1477.06 1908.06 1481.67 Q1905.01 1486.25 1899.2 1486.25 Q1893.39 1486.25 1890.31 1481.67 Q1887.25 1477.06 1887.25 1468.33 Q1887.25 1459.58 1890.31 1455 Q1893.39 1450.39 1899.2 1450.39 Z" fill="#000000" fill-rule="evenodd" fill-opacity="1" /><path clip-path="url(#clip620)" d="M1929.36 1454.1 Q1925.75 1454.1 1923.92 1457.66 Q1922.11 1461.2 1922.11 1468.33 Q1922.11 1475.44 1923.92 1479.01 Q1925.75 1482.55 1929.36 1482.55 Q1932.99 1482.55 1934.8 1479.01 Q1936.63 1475.44 1936.63 1468.33 Q1936.63 1461.2 1934.8 1457.66 Q1932.99 1454.1 1929.36 1454.1 M1929.36 1450.39 Q1935.17 1450.39 1938.22 1455 Q1941.3 1459.58 1941.3 1468.33 Q1941.3 1477.06 1938.22 1481.67 Q1935.17 1486.25 1929.36 1486.25 Q1923.55 1486.25 1920.47 1481.67 Q1917.41 1477.06 1917.41 1468.33 Q1917.41 1459.58 1920.47 1455 Q1923.55 1450.39 1929.36 1450.39 Z" fill="#000000" fill-rule="evenodd" fill-opacity="1" /><path clip-path="url(#clip620)" d="M1959.52 1454.1 Q1955.91 1454.1 1954.08 1457.66 Q1952.28 1461.2 1952.28 1468.33 Q1952.28 1475.44 1954.08 1479.01 Q1955.91 1482.55 1959.52 1482.55 Q1963.16 1482.55 1964.96 1479.01 Q1966.79 1475.44 1966.79 1468.33 Q1966.79 1461.2 1964.96 1457.66 Q1963.16 1454.1 1959.52 1454.1 M1959.52 1450.39 Q1965.33 1450.39 1968.39 1455 Q1971.47 1459.58 1971.47 1468.33 Q1971.47 1477.06 1968.39 1481.67 Q1965.33 1486.25 1959.52 1486.25 Q1953.71 1486.25 1950.63 1481.67 Q1947.58 1477.06 1947.58 1468.33 Q1947.58 1459.58 1950.63 1455 Q1953.71 1450.39 1959.52 1450.39 Z" fill="#000000" fill-rule="evenodd" fill-opacity="1" /><path clip-path="url(#clip620)" d="M2245.19 1481.64 L2261.51 1481.64 L2261.51 1485.58 L2239.57 1485.58 L2239.57 1481.64 Q2242.23 1478.89 2246.81 1474.26 Q2251.42 1469.61 2252.6 1468.27 Q2254.85 1465.74 2255.73 1464.01 Q2256.63 1462.25 2256.63 1460.56 Q2256.63 1457.8 2254.68 1456.07 Q2252.76 1454.33 2249.66 1454.33 Q2247.46 1454.33 2245.01 1455.09 Q2242.58 1455.86 2239.8 1457.41 L2239.8 1452.69 Q2242.62 1451.55 2245.08 1450.97 Q2247.53 1450.39 2249.57 1450.39 Q2254.94 1450.39 2258.13 1453.08 Q2261.33 1455.77 2261.33 1460.26 Q2261.33 1462.39 2260.52 1464.31 Q2259.73 1466.2 2257.62 1468.8 Q2257.05 1469.47 2253.94 1472.69 Q2250.84 1475.88 2245.19 1481.64 Z" fill="#000000" fill-rule="evenodd" fill-opacity="1" /><path clip-path="url(#clip620)" d="M2271.37 1451.02 L2289.73 1451.02 L2289.73 1454.96 L2275.66 1454.96 L2275.66 1463.43 Q2276.68 1463.08 2277.69 1462.92 Q2278.71 1462.73 2279.73 1462.73 Q2285.52 1462.73 2288.9 1465.9 Q2292.28 1469.08 2292.28 1474.49 Q2292.28 1480.07 2288.8 1483.17 Q2285.33 1486.25 2279.01 1486.25 Q2276.84 1486.25 2274.57 1485.88 Q2272.32 1485.51 2269.92 1484.77 L2269.92 1480.07 Q2272 1481.2 2274.22 1481.76 Q2276.44 1482.32 2278.92 1482.32 Q2282.93 1482.32 2285.26 1480.21 Q2287.6 1478.1 2287.6 1474.49 Q2287.6 1470.88 2285.26 1468.77 Q2282.93 1466.67 2278.92 1466.67 Q2277.05 1466.67 2275.17 1467.08 Q2273.32 1467.5 2271.37 1468.38 L2271.37 1451.02 Z" fill="#000000" fill-rule="evenodd" fill-opacity="1" /><path clip-path="url(#clip620)" d="M2311.49 1454.1 Q2307.88 1454.1 2306.05 1457.66 Q2304.24 1461.2 2304.24 1468.33 Q2304.24 1475.44 2306.05 1479.01 Q2307.88 1482.55 2311.49 1482.55 Q2315.12 1482.55 2316.93 1479.01 Q2318.76 1475.44 2318.76 1468.33 Q2318.76 1461.2 2316.93 1457.66 Q2315.12 1454.1 2311.49 1454.1 M2311.49 1450.39 Q2317.3 1450.39 2320.36 1455 Q2323.43 1459.58 2323.43 1468.33 Q2323.43 1477.06 2320.36 1481.67 Q2317.3 1486.25 2311.49 1486.25 Q2305.68 1486.25 2302.6 1481.67 Q2299.55 1477.06 2299.55 1468.33 Q2299.55 1459.58 2302.6 1455 Q2305.68 1450.39 2311.49 1450.39 Z" fill="#000000" fill-rule="evenodd" fill-opacity="1" /><path clip-path="url(#clip620)" d="M2341.65 1454.1 Q2338.04 1454.1 2336.21 1457.66 Q2334.41 1461.2 2334.41 1468.33 Q2334.41 1475.44 2336.21 1479.01 Q2338.04 1482.55 2341.65 1482.55 Q2345.29 1482.55 2347.09 1479.01 Q2348.92 1475.44 2348.92 1468.33 Q2348.92 1461.2 2347.09 1457.66 Q2345.29 1454.1 2341.65 1454.1 M2341.65 1450.39 Q2347.46 1450.39 2350.52 1455 Q2353.6 1459.58 2353.6 1468.33 Q2353.6 1477.06 2350.52 1481.67 Q2347.46 1486.25 2341.65 1486.25 Q2335.84 1486.25 2332.76 1481.67 Q2329.71 1477.06 2329.71 1468.33 Q2329.71 1459.58 2332.76 1455 Q2335.84 1450.39 2341.65 1450.39 Z" fill="#000000" fill-rule="evenodd" fill-opacity="1" /><path clip-path="url(#clip620)" d="M1180.77 1537.27 L1172.05 1560.92 L1189.52 1560.92 L1180.77 1537.27 M1177.14 1530.94 L1184.43 1530.94 L1202.54 1578.46 L1195.85 1578.46 L1191.53 1566.27 L1170.11 1566.27 L1165.78 1578.46 L1159 1578.46 L1177.14 1530.94 Z" fill="#000000" fill-rule="evenodd" fill-opacity="1" /><path clip-path="url(#clip620)" d="M1209.22 1528.94 L1215.08 1528.94 L1215.08 1578.46 L1209.22 1578.46 L1209.22 1528.94 Z" fill="#000000" fill-rule="evenodd" fill-opacity="1" /><path clip-path="url(#clip620)" d="M1233.13 1532.69 L1233.13 1542.81 L1245.19 1542.81 L1245.19 1547.36 L1233.13 1547.36 L1233.13 1566.72 Q1233.13 1571.08 1234.3 1572.32 Q1235.51 1573.56 1239.17 1573.56 L1245.19 1573.56 L1245.19 1578.46 L1239.17 1578.46 Q1232.39 1578.46 1229.82 1575.95 Q1227.24 1573.4 1227.24 1566.72 L1227.24 1547.36 L1222.94 1547.36 L1222.94 1542.81 L1227.24 1542.81 L1227.24 1532.69 L1233.13 1532.69 Z" fill="#000000" fill-rule="evenodd" fill-opacity="1" /><path clip-path="url(#clip620)" d="M1252.89 1542.81 L1258.75 1542.81 L1258.75 1578.46 L1252.89 1578.46 L1252.89 1542.81 M1252.89 1528.94 L1258.75 1528.94 L1258.75 1536.35 L1252.89 1536.35 L1252.89 1528.94 Z" fill="#000000" fill-rule="evenodd" fill-opacity="1" /><path clip-path="url(#clip620)" d="M1276.79 1532.69 L1276.79 1542.81 L1288.86 1542.81 L1288.86 1547.36 L1276.79 1547.36 L1276.79 1566.72 Q1276.79 1571.08 1277.97 1572.32 Q1279.18 1573.56 1282.84 1573.56 L1288.86 1573.56 L1288.86 1578.46 L1282.84 1578.46 Q1276.06 1578.46 1273.48 1575.95 Q1270.91 1573.4 1270.91 1566.72 L1270.91 1547.36 L1266.61 1547.36 L1266.61 1542.81 L1270.91 1542.81 L1270.91 1532.69 L1276.79 1532.69 Z" fill="#000000" fill-rule="evenodd" fill-opacity="1" /><path clip-path="url(#clip620)" d="M1295.96 1564.39 L1295.96 1542.81 L1301.81 1542.81 L1301.81 1564.17 Q1301.81 1569.23 1303.79 1571.78 Q1305.76 1574.29 1309.71 1574.29 Q1314.45 1574.29 1317.19 1571.27 Q1319.95 1568.24 1319.95 1563.02 L1319.95 1542.81 L1325.81 1542.81 L1325.81 1578.46 L1319.95 1578.46 L1319.95 1572.99 Q1317.82 1576.23 1314.99 1577.82 Q1312.19 1579.38 1308.46 1579.38 Q1302.32 1579.38 1299.14 1575.56 Q1295.96 1571.74 1295.96 1564.39 M1310.69 1541.95 L1310.69 1541.95 Z" fill="#000000" fill-rule="evenodd" fill-opacity="1" /><path clip-path="url(#clip620)" d="M1361.33 1548.22 L1361.33 1528.94 L1367.19 1528.94 L1367.19 1578.46 L1361.33 1578.46 L1361.33 1573.11 Q1359.49 1576.3 1356.65 1577.86 Q1353.85 1579.38 1349.9 1579.38 Q1343.44 1579.38 1339.37 1574.23 Q1335.33 1569.07 1335.33 1560.67 Q1335.33 1552.27 1339.37 1547.11 Q1343.44 1541.95 1349.9 1541.95 Q1353.85 1541.95 1356.65 1543.51 Q1359.49 1545.04 1361.33 1548.22 M1341.37 1560.67 Q1341.37 1567.13 1344.02 1570.82 Q1346.69 1574.48 1351.34 1574.48 Q1355.98 1574.48 1358.66 1570.82 Q1361.33 1567.13 1361.33 1560.67 Q1361.33 1554.21 1358.66 1550.55 Q1355.98 1546.85 1351.34 1546.85 Q1346.69 1546.85 1344.02 1550.55 Q1341.37 1554.21 1341.37 1560.67 Z" fill="#000000" fill-rule="evenodd" fill-opacity="1" /><path clip-path="url(#clip620)" d="M1409.74 1559.17 L1409.74 1562.04 L1382.82 1562.04 Q1383.2 1568.08 1386.44 1571.27 Q1389.72 1574.42 1395.55 1574.42 Q1398.92 1574.42 1402.07 1573.59 Q1405.25 1572.76 1408.37 1571.11 L1408.37 1576.65 Q1405.22 1577.98 1401.91 1578.68 Q1398.6 1579.38 1395.2 1579.38 Q1386.67 1579.38 1381.67 1574.42 Q1376.7 1569.45 1376.7 1560.99 Q1376.7 1552.23 1381.42 1547.11 Q1386.16 1541.95 1394.18 1541.95 Q1401.37 1541.95 1405.54 1546.6 Q1409.74 1551.22 1409.74 1559.17 M1403.89 1557.45 Q1403.82 1552.65 1401.18 1549.78 Q1398.57 1546.92 1394.24 1546.92 Q1389.34 1546.92 1386.38 1549.69 Q1383.45 1552.46 1383.01 1557.49 L1403.89 1557.45 Z" fill="#000000" fill-rule="evenodd" fill-opacity="1" /><path clip-path="url(#clip620)" d="M1454.14 1529 Q1449.88 1536.32 1447.81 1543.48 Q1445.74 1550.64 1445.74 1557.99 Q1445.74 1565.35 1447.81 1572.57 Q1449.91 1579.77 1454.14 1587.05 L1449.05 1587.05 Q1444.28 1579.57 1441.89 1572.35 Q1439.53 1565.12 1439.53 1557.99 Q1439.53 1550.9 1441.89 1543.7 Q1444.24 1536.51 1449.05 1529 L1454.14 1529 Z" fill="#000000" fill-rule="evenodd" fill-opacity="1" /><path clip-path="url(#clip620)" d="M1484 1553.47 Q1484 1555.3 1482.87 1556.4 Q1481.78 1557.49 1480.39 1557.49 Q1479.17 1557.49 1478.52 1556.79 Q1477.88 1556.08 1477.88 1555.18 Q1477.88 1554.79 1478.04 1554.31 Q1478.2 1553.79 1478.56 1553.18 Q1478.94 1552.57 1479.75 1552.12 Q1480.55 1551.67 1481.65 1551.6 Q1481.42 1551.38 1481.36 1551.34 Q1480.87 1550.96 1479.97 1550.83 Q1479.84 1550.76 1479.39 1550.76 Q1477.17 1550.76 1474.92 1552.41 Q1472.69 1554.02 1469.96 1557.08 Q1466.51 1560.65 1464.29 1561.97 Q1474.05 1563.26 1474.05 1568.9 Q1474.05 1569.83 1473.79 1570.96 Q1473.27 1573.08 1473.27 1574.63 Q1473.27 1577.72 1475.37 1577.72 Q1477.4 1577.72 1478.68 1575.66 Q1480 1573.6 1481.1 1569.57 Q1481.26 1568.83 1481.42 1568.61 Q1481.58 1568.38 1482.03 1568.38 Q1482.84 1568.38 1482.84 1569.02 Q1482.1 1572.79 1480.46 1575.69 Q1478.36 1579.2 1475.24 1579.2 Q1472.63 1579.2 1470.89 1577.4 Q1469.18 1575.56 1469.18 1572.66 Q1469.18 1571.96 1469.44 1570.34 Q1469.63 1569.7 1469.63 1568.96 Q1469.63 1567.45 1468.8 1566.32 Q1467.96 1565.16 1466.61 1564.58 Q1465.25 1564 1464.13 1563.74 Q1463.03 1563.45 1461.97 1563.36 Q1458.75 1576.98 1458.3 1577.82 Q1458.01 1578.4 1457.36 1578.78 Q1456.72 1579.2 1456.04 1579.2 Q1455.4 1579.2 1454.76 1578.75 Q1454.14 1578.33 1454.14 1577.33 Q1454.14 1576.82 1454.4 1575.88 L1463.97 1537.88 L1464.16 1536.59 Q1464.16 1536.21 1464 1536.01 Q1463.87 1535.79 1463.1 1535.63 Q1462.36 1535.47 1460.87 1535.47 Q1460.26 1535.47 1459.97 1535.43 Q1459.71 1535.4 1459.49 1535.24 Q1459.26 1535.05 1459.26 1534.66 Q1459.26 1534.11 1459.49 1533.82 Q1459.75 1533.5 1459.94 1533.44 Q1460.13 1533.37 1460.52 1533.34 Q1461.07 1533.31 1462.9 1533.15 Q1464.74 1532.95 1466.32 1532.83 Q1467.9 1532.7 1468.57 1532.7 Q1468.96 1532.7 1469.15 1532.89 Q1469.38 1533.05 1469.41 1533.24 L1469.44 1533.4 L1462.58 1561.23 Q1465.42 1560.1 1469.89 1555.11 Q1475.08 1549.31 1479.52 1549.31 Q1481.61 1549.31 1482.81 1550.6 Q1484 1551.86 1484 1553.47 Z" fill="#000000" fill-rule="evenodd" fill-opacity="1" /><path clip-path="url(#clip620)" d="M1543.8 1569.02 Q1543.8 1569.28 1543.51 1570.28 Q1543.22 1571.28 1542.52 1572.82 Q1541.84 1574.37 1540.87 1575.79 Q1539.94 1577.17 1538.39 1578.2 Q1536.88 1579.2 1535.14 1579.2 Q1532.82 1579.2 1531.28 1577.66 Q1529.73 1576.11 1529.73 1573.79 Q1529.73 1572.53 1530.6 1570.15 Q1534.69 1559.27 1534.69 1555.37 Q1534.69 1550.76 1531.12 1550.76 Q1529.09 1550.76 1527.25 1551.6 Q1525.41 1552.44 1524.22 1553.6 Q1523.03 1554.76 1522.1 1556.08 Q1521.16 1557.4 1520.75 1558.27 Q1520.36 1559.14 1520.26 1559.52 L1516.3 1575.43 Q1515.98 1576.79 1515.75 1577.43 Q1515.53 1578.07 1514.92 1578.62 Q1514.3 1579.2 1513.34 1579.2 Q1512.53 1579.2 1511.95 1578.72 Q1511.41 1578.24 1511.41 1577.4 Q1511.41 1577.27 1511.57 1576.59 Q1511.73 1575.92 1511.95 1574.98 Q1512.18 1574.05 1512.27 1573.5 Q1513.43 1569.12 1513.6 1568.51 L1515.43 1560.84 Q1516.43 1557.04 1516.43 1555.37 Q1516.43 1550.76 1512.85 1550.76 Q1511.08 1550.76 1509.41 1551.44 Q1507.77 1552.08 1506.64 1552.99 Q1505.51 1553.89 1504.48 1555.14 Q1503.48 1556.37 1502.97 1557.2 Q1502.48 1558.01 1502.1 1558.82 L1501.26 1562.1 Q1501.07 1563 1500.13 1566.51 L1498.68 1572.47 Q1497.65 1576.91 1497.43 1577.33 Q1497.11 1578.24 1496.4 1578.72 Q1495.69 1579.2 1494.98 1579.2 Q1494.18 1579.2 1493.63 1578.72 Q1493.08 1578.24 1493.08 1577.4 Q1493.08 1577.27 1493.18 1576.79 Q1493.27 1576.3 1493.43 1575.63 Q1493.6 1574.95 1493.66 1574.56 L1497.49 1559.33 Q1498.2 1556.56 1498.36 1555.69 Q1498.56 1554.79 1498.56 1553.79 Q1498.56 1550.76 1496.49 1550.76 Q1494.82 1550.76 1493.72 1552.76 Q1492.63 1554.76 1491.7 1558.62 Q1491.41 1559.68 1491.21 1559.91 Q1491.05 1560.14 1490.57 1560.14 Q1489.76 1560.1 1489.76 1559.46 Q1489.76 1559.3 1490.02 1558.27 Q1490.28 1557.24 1490.76 1555.69 Q1491.28 1554.11 1491.82 1553.08 Q1492.15 1552.41 1492.44 1551.96 Q1492.73 1551.5 1493.31 1550.8 Q1493.89 1550.09 1494.75 1549.7 Q1495.62 1549.31 1496.69 1549.31 Q1499.04 1549.31 1500.78 1550.83 Q1502.55 1552.34 1502.77 1555.05 Q1507.06 1549.31 1513.05 1549.31 Q1516.43 1549.31 1518.46 1551.02 Q1520.36 1552.66 1520.58 1555.69 Q1525.03 1549.31 1531.34 1549.31 Q1534.98 1549.31 1536.94 1551.21 Q1538.91 1553.08 1538.91 1556.37 Q1538.91 1558.07 1538.04 1561.33 Q1537.17 1564.55 1536.59 1566.16 Q1536.01 1567.77 1534.88 1570.86 Q1533.69 1573.82 1533.69 1575.56 Q1533.69 1576.69 1534.08 1577.2 Q1534.46 1577.72 1535.3 1577.72 Q1536.59 1577.72 1537.72 1576.98 Q1538.84 1576.21 1539.65 1574.95 Q1540.49 1573.66 1541.03 1572.37 Q1541.58 1571.05 1542 1569.57 Q1542.26 1568.77 1542.39 1568.57 Q1542.55 1568.38 1543 1568.38 Q1543.8 1568.38 1543.8 1569.02 Z" fill="#000000" fill-rule="evenodd" fill-opacity="1" /><path clip-path="url(#clip620)" d="M1547.12 1529 L1552.21 1529 Q1556.98 1536.51 1559.34 1543.7 Q1561.73 1550.9 1561.73 1557.99 Q1561.73 1565.12 1559.34 1572.35 Q1556.98 1579.57 1552.21 1587.05 L1547.12 1587.05 Q1551.35 1579.77 1553.42 1572.57 Q1555.52 1565.35 1555.52 1557.99 Q1555.52 1550.64 1553.42 1543.48 Q1551.35 1536.32 1547.12 1529 Z" fill="#000000" fill-rule="evenodd" fill-opacity="1" /><polyline clip-path="url(#clip622)" style="stroke:#000000; stroke-linecap:butt; stroke-linejoin:round; stroke-width:2; stroke-opacity:0.1; fill:none" points="
  367.967,1388.11 2352.76,1388.11 
  "/>
<polyline clip-path="url(#clip622)" style="stroke:#000000; stroke-linecap:butt; stroke-linejoin:round; stroke-width:2; stroke-opacity:0.1; fill:none" points="
  367.967,1023.87 2352.76,1023.87 
  "/>
<polyline clip-path="url(#clip622)" style="stroke:#000000; stroke-linecap:butt; stroke-linejoin:round; stroke-width:2; stroke-opacity:0.1; fill:none" points="
  367.967,659.634 2352.76,659.634 
  "/>
<polyline clip-path="url(#clip622)" style="stroke:#000000; stroke-linecap:butt; stroke-linejoin:round; stroke-width:2; stroke-opacity:0.1; fill:none" points="
  367.967,295.398 2352.76,295.398 
  "/>
<polyline clip-path="url(#clip620)" style="stroke:#000000; stroke-linecap:butt; stroke-linejoin:round; stroke-width:4; stroke-opacity:1; fill:none" points="
  367.967,1423.18 367.967,183.952 
  "/>
<polyline clip-path="url(#clip620)" style="stroke:#000000; stroke-linecap:butt; stroke-linejoin:round; stroke-width:4; stroke-opacity:1; fill:none" points="
  367.967,1388.11 386.865,1388.11 
  "/>
<polyline clip-path="url(#clip620)" style="stroke:#000000; stroke-linecap:butt; stroke-linejoin:round; stroke-width:4; stroke-opacity:1; fill:none" points="
  367.967,1023.87 386.865,1023.87 
  "/>
<polyline clip-path="url(#clip620)" style="stroke:#000000; stroke-linecap:butt; stroke-linejoin:round; stroke-width:4; stroke-opacity:1; fill:none" points="
  367.967,659.634 386.865,659.634 
  "/>
<polyline clip-path="url(#clip620)" style="stroke:#000000; stroke-linecap:butt; stroke-linejoin:round; stroke-width:4; stroke-opacity:1; fill:none" points="
  367.967,295.398 386.865,295.398 
  "/>
<path clip-path="url(#clip620)" d="M320.023 1373.91 Q316.412 1373.91 314.583 1377.47 Q312.778 1381.01 312.778 1388.14 Q312.778 1395.25 314.583 1398.81 Q316.412 1402.35 320.023 1402.35 Q323.657 1402.35 325.463 1398.81 Q327.291 1395.25 327.291 1388.14 Q327.291 1381.01 325.463 1377.47 Q323.657 1373.91 320.023 1373.91 M320.023 1370.2 Q325.833 1370.2 328.889 1374.81 Q331.967 1379.39 331.967 1388.14 Q331.967 1396.87 328.889 1401.48 Q325.833 1406.06 320.023 1406.06 Q314.213 1406.06 311.134 1401.48 Q308.079 1396.87 308.079 1388.14 Q308.079 1379.39 311.134 1374.81 Q314.213 1370.2 320.023 1370.2 Z" fill="#000000" fill-rule="evenodd" fill-opacity="1" /><path clip-path="url(#clip620)" d="M116.142 1013.04 L134.499 1013.04 L134.499 1016.97 L120.425 1016.97 L120.425 1025.45 Q121.443 1025.1 122.462 1024.94 Q123.48 1024.75 124.499 1024.75 Q130.286 1024.75 133.665 1027.92 Q137.045 1031.09 137.045 1036.51 Q137.045 1042.09 133.573 1045.19 Q130.101 1048.27 123.781 1048.27 Q121.605 1048.27 119.337 1047.9 Q117.091 1047.53 114.684 1046.79 L114.684 1042.09 Q116.767 1043.22 118.99 1043.78 Q121.212 1044.33 123.689 1044.33 Q127.693 1044.33 130.031 1042.23 Q132.369 1040.12 132.369 1036.51 Q132.369 1032.9 130.031 1030.79 Q127.693 1028.69 123.689 1028.69 Q121.814 1028.69 119.939 1029.1 Q118.087 1029.52 116.142 1030.4 L116.142 1013.04 Z" fill="#000000" fill-rule="evenodd" fill-opacity="1" /><path clip-path="url(#clip620)" d="M146.258 1041.72 L151.142 1041.72 L151.142 1047.6 L146.258 1047.6 L146.258 1041.72 Z" fill="#000000" fill-rule="evenodd" fill-opacity="1" /><path clip-path="url(#clip620)" d="M171.327 1016.12 Q167.716 1016.12 165.887 1019.68 Q164.082 1023.22 164.082 1030.35 Q164.082 1037.46 165.887 1041.02 Q167.716 1044.57 171.327 1044.57 Q174.962 1044.57 176.767 1041.02 Q178.596 1037.46 178.596 1030.35 Q178.596 1023.22 176.767 1019.68 Q174.962 1016.12 171.327 1016.12 M171.327 1012.41 Q177.137 1012.41 180.193 1017.02 Q183.272 1021.6 183.272 1030.35 Q183.272 1039.08 180.193 1043.69 Q177.137 1048.27 171.327 1048.27 Q165.517 1048.27 162.438 1043.69 Q159.383 1039.08 159.383 1030.35 Q159.383 1021.6 162.438 1017.02 Q165.517 1012.41 171.327 1012.41 Z" fill="#000000" fill-rule="evenodd" fill-opacity="1" /><path clip-path="url(#clip620)" d="M201.489 1016.12 Q197.878 1016.12 196.049 1019.68 Q194.244 1023.22 194.244 1030.35 Q194.244 1037.46 196.049 1041.02 Q197.878 1044.57 201.489 1044.57 Q205.123 1044.57 206.929 1041.02 Q208.758 1037.46 208.758 1030.35 Q208.758 1023.22 206.929 1019.68 Q205.123 1016.12 201.489 1016.12 M201.489 1012.41 Q207.299 1012.41 210.355 1017.02 Q213.434 1021.6 213.434 1030.35 Q213.434 1039.08 210.355 1043.69 Q207.299 1048.27 201.489 1048.27 Q195.679 1048.27 192.6 1043.69 Q189.545 1039.08 189.545 1030.35 Q189.545 1021.6 192.6 1017.02 Q195.679 1012.41 201.489 1012.41 Z" fill="#000000" fill-rule="evenodd" fill-opacity="1" /><path clip-path="url(#clip620)" d="M249.822 1022.14 L239.244 1032.76 L249.822 1043.34 L247.068 1046.14 L236.443 1035.52 L225.818 1046.14 L223.086 1043.34 L233.642 1032.76 L223.086 1022.14 L225.818 1019.33 L236.443 1029.96 L247.068 1019.33 L249.822 1022.14 Z" fill="#000000" fill-rule="evenodd" fill-opacity="1" /><path clip-path="url(#clip620)" d="M262.183 1043.66 L269.822 1043.66 L269.822 1017.3 L261.512 1018.96 L261.512 1014.71 L269.776 1013.04 L274.452 1013.04 L274.452 1043.66 L282.091 1043.66 L282.091 1047.6 L262.183 1047.6 L262.183 1043.66 Z" fill="#000000" fill-rule="evenodd" fill-opacity="1" /><path clip-path="url(#clip620)" d="M301.535 1016.12 Q297.924 1016.12 296.095 1019.68 Q294.29 1023.22 294.29 1030.35 Q294.29 1037.46 296.095 1041.02 Q297.924 1044.57 301.535 1044.57 Q305.169 1044.57 306.975 1041.02 Q308.803 1037.46 308.803 1030.35 Q308.803 1023.22 306.975 1019.68 Q305.169 1016.12 301.535 1016.12 M301.535 1012.41 Q307.345 1012.41 310.401 1017.02 Q313.479 1021.6 313.479 1030.35 Q313.479 1039.08 310.401 1043.69 Q307.345 1048.27 301.535 1048.27 Q295.725 1048.27 292.646 1043.69 Q289.591 1039.08 289.591 1030.35 Q289.591 1021.6 292.646 1017.02 Q295.725 1012.41 301.535 1012.41 Z" fill="#000000" fill-rule="evenodd" fill-opacity="1" /><path clip-path="url(#clip620)" d="M326.175 1005.05 Q328.902 1005.63 330.425 1007.47 Q331.967 1009.32 331.967 1012.03 Q331.967 1016.18 329.109 1018.46 Q326.25 1020.73 320.984 1020.73 Q319.216 1020.73 317.335 1020.38 Q315.473 1020.04 313.479 1019.34 L313.479 1015.67 Q315.059 1016.6 316.94 1017.07 Q318.821 1017.54 320.871 1017.54 Q324.444 1017.54 326.306 1016.13 Q328.187 1014.72 328.187 1012.03 Q328.187 1009.54 326.438 1008.15 Q324.708 1006.74 321.604 1006.74 L318.332 1006.74 L318.332 1003.62 L321.755 1003.62 Q324.557 1003.62 326.043 1002.51 Q327.529 1001.38 327.529 999.274 Q327.529 997.111 325.986 995.964 Q324.463 994.798 321.604 994.798 Q320.043 994.798 318.256 995.136 Q316.47 995.475 314.326 996.189 L314.326 992.804 Q316.489 992.202 318.369 991.901 Q320.269 991.6 321.943 991.6 Q326.269 991.6 328.789 993.575 Q331.309 995.531 331.309 998.879 Q331.309 1001.21 329.974 1002.83 Q328.638 1004.43 326.175 1005.05 Z" fill="#000000" fill-rule="evenodd" fill-opacity="1" /><path clip-path="url(#clip620)" d="M114.931 679.427 L122.57 679.427 L122.57 653.061 L114.26 654.728 L114.26 650.469 L122.524 648.802 L127.2 648.802 L127.2 679.427 L134.839 679.427 L134.839 683.362 L114.931 683.362 L114.931 679.427 Z" fill="#000000" fill-rule="evenodd" fill-opacity="1" /><path clip-path="url(#clip620)" d="M144.283 677.482 L149.167 677.482 L149.167 683.362 L144.283 683.362 L144.283 677.482 Z" fill="#000000" fill-rule="evenodd" fill-opacity="1" /><path clip-path="url(#clip620)" d="M169.352 651.881 Q165.741 651.881 163.913 655.446 Q162.107 658.987 162.107 666.117 Q162.107 673.223 163.913 676.788 Q165.741 680.33 169.352 680.33 Q172.987 680.33 174.792 676.788 Q176.621 673.223 176.621 666.117 Q176.621 658.987 174.792 655.446 Q172.987 651.881 169.352 651.881 M169.352 648.177 Q175.163 648.177 178.218 652.784 Q181.297 657.367 181.297 666.117 Q181.297 674.844 178.218 679.45 Q175.163 684.033 169.352 684.033 Q163.542 684.033 160.464 679.45 Q157.408 674.844 157.408 666.117 Q157.408 657.367 160.464 652.784 Q163.542 648.177 169.352 648.177 Z" fill="#000000" fill-rule="evenodd" fill-opacity="1" /><path clip-path="url(#clip620)" d="M199.514 651.881 Q195.903 651.881 194.075 655.446 Q192.269 658.987 192.269 666.117 Q192.269 673.223 194.075 676.788 Q195.903 680.33 199.514 680.33 Q203.149 680.33 204.954 676.788 Q206.783 673.223 206.783 666.117 Q206.783 658.987 204.954 655.446 Q203.149 651.881 199.514 651.881 M199.514 648.177 Q205.324 648.177 208.38 652.784 Q211.459 657.367 211.459 666.117 Q211.459 674.844 208.38 679.45 Q205.324 684.033 199.514 684.033 Q193.704 684.033 190.625 679.45 Q187.57 674.844 187.57 666.117 Q187.57 657.367 190.625 652.784 Q193.704 648.177 199.514 648.177 Z" fill="#000000" fill-rule="evenodd" fill-opacity="1" /><path clip-path="url(#clip620)" d="M247.847 657.899 L237.269 668.524 L247.847 679.103 L245.093 681.904 L234.468 671.279 L223.843 681.904 L221.111 679.103 L231.667 668.524 L221.111 657.899 L223.843 655.098 L234.468 665.723 L245.093 655.098 L247.847 657.899 Z" fill="#000000" fill-rule="evenodd" fill-opacity="1" /><path clip-path="url(#clip620)" d="M260.208 679.427 L267.847 679.427 L267.847 653.061 L259.537 654.728 L259.537 650.469 L267.801 648.802 L272.477 648.802 L272.477 679.427 L280.116 679.427 L280.116 683.362 L260.208 683.362 L260.208 679.427 Z" fill="#000000" fill-rule="evenodd" fill-opacity="1" /><path clip-path="url(#clip620)" d="M299.56 651.881 Q295.949 651.881 294.12 655.446 Q292.315 658.987 292.315 666.117 Q292.315 673.223 294.12 676.788 Q295.949 680.33 299.56 680.33 Q303.194 680.33 305 676.788 Q306.829 673.223 306.829 666.117 Q306.829 658.987 305 655.446 Q303.194 651.881 299.56 651.881 M299.56 648.177 Q305.37 648.177 308.426 652.784 Q311.504 657.367 311.504 666.117 Q311.504 674.844 308.426 679.45 Q305.37 684.033 299.56 684.033 Q293.75 684.033 290.671 679.45 Q287.616 674.844 287.616 666.117 Q287.616 657.367 290.671 652.784 Q293.75 648.177 299.56 648.177 Z" fill="#000000" fill-rule="evenodd" fill-opacity="1" /><path clip-path="url(#clip620)" d="M324.181 631.182 L314.589 646.172 L324.181 646.172 L324.181 631.182 M323.184 627.872 L327.961 627.872 L327.961 646.172 L331.967 646.172 L331.967 649.331 L327.961 649.331 L327.961 655.952 L324.181 655.952 L324.181 649.331 L311.504 649.331 L311.504 645.664 L323.184 627.872 Z" fill="#000000" fill-rule="evenodd" fill-opacity="1" /><path clip-path="url(#clip620)" d="M114.931 315.19 L122.57 315.19 L122.57 288.825 L114.26 290.492 L114.26 286.232 L122.524 284.566 L127.2 284.566 L127.2 315.19 L134.839 315.19 L134.839 319.126 L114.931 319.126 L114.931 315.19 Z" fill="#000000" fill-rule="evenodd" fill-opacity="1" /><path clip-path="url(#clip620)" d="M144.283 313.246 L149.167 313.246 L149.167 319.126 L144.283 319.126 L144.283 313.246 Z" fill="#000000" fill-rule="evenodd" fill-opacity="1" /><path clip-path="url(#clip620)" d="M159.399 284.566 L177.755 284.566 L177.755 288.501 L163.681 288.501 L163.681 296.973 Q164.7 296.626 165.718 296.464 Q166.737 296.279 167.755 296.279 Q173.542 296.279 176.922 299.45 Q180.301 302.621 180.301 308.038 Q180.301 313.616 176.829 316.718 Q173.357 319.797 167.038 319.797 Q164.862 319.797 162.593 319.427 Q160.348 319.056 157.94 318.315 L157.94 313.616 Q160.024 314.751 162.246 315.306 Q164.468 315.862 166.945 315.862 Q170.95 315.862 173.288 313.755 Q175.626 311.649 175.626 308.038 Q175.626 304.427 173.288 302.32 Q170.95 300.214 166.945 300.214 Q165.07 300.214 163.195 300.63 Q161.343 301.047 159.399 301.927 L159.399 284.566 Z" fill="#000000" fill-rule="evenodd" fill-opacity="1" /><path clip-path="url(#clip620)" d="M199.514 287.644 Q195.903 287.644 194.075 291.209 Q192.269 294.751 192.269 301.88 Q192.269 308.987 194.075 312.552 Q195.903 316.093 199.514 316.093 Q203.149 316.093 204.954 312.552 Q206.783 308.987 206.783 301.88 Q206.783 294.751 204.954 291.209 Q203.149 287.644 199.514 287.644 M199.514 283.941 Q205.324 283.941 208.38 288.547 Q211.459 293.13 211.459 301.88 Q211.459 310.607 208.38 315.214 Q205.324 319.797 199.514 319.797 Q193.704 319.797 190.625 315.214 Q187.57 310.607 187.57 301.88 Q187.57 293.13 190.625 288.547 Q193.704 283.941 199.514 283.941 Z" fill="#000000" fill-rule="evenodd" fill-opacity="1" /><path clip-path="url(#clip620)" d="M247.847 293.663 L237.269 304.288 L247.847 314.866 L245.093 317.667 L234.468 307.042 L223.843 317.667 L221.111 314.866 L231.667 304.288 L221.111 293.663 L223.843 290.862 L234.468 301.487 L245.093 290.862 L247.847 293.663 Z" fill="#000000" fill-rule="evenodd" fill-opacity="1" /><path clip-path="url(#clip620)" d="M260.208 315.19 L267.847 315.19 L267.847 288.825 L259.537 290.492 L259.537 286.232 L267.801 284.566 L272.477 284.566 L272.477 315.19 L280.116 315.19 L280.116 319.126 L260.208 319.126 L260.208 315.19 Z" fill="#000000" fill-rule="evenodd" fill-opacity="1" /><path clip-path="url(#clip620)" d="M299.56 287.644 Q295.949 287.644 294.12 291.209 Q292.315 294.751 292.315 301.88 Q292.315 308.987 294.12 312.552 Q295.949 316.093 299.56 316.093 Q303.194 316.093 305 312.552 Q306.829 308.987 306.829 301.88 Q306.829 294.751 305 291.209 Q303.194 287.644 299.56 287.644 M299.56 283.941 Q305.37 283.941 308.426 288.547 Q311.504 293.13 311.504 301.88 Q311.504 310.607 308.426 315.214 Q305.37 319.797 299.56 319.797 Q293.75 319.797 290.671 315.214 Q287.616 310.607 287.616 301.88 Q287.616 293.13 290.671 288.547 Q293.75 283.941 299.56 283.941 Z" fill="#000000" fill-rule="evenodd" fill-opacity="1" /><path clip-path="url(#clip620)" d="M324.181 266.945 L314.589 281.935 L324.181 281.935 L324.181 266.945 M323.184 263.635 L327.961 263.635 L327.961 281.935 L331.967 281.935 L331.967 285.095 L327.961 285.095 L327.961 291.715 L324.181 291.715 L324.181 285.095 L311.504 285.095 L311.504 281.427 L323.184 263.635 Z" fill="#000000" fill-rule="evenodd" fill-opacity="1" /><path clip-path="url(#clip620)" d="M41.7242 1056.59 Q42.4244 1054.52 44.7161 1052.58 Q47.0077 1050.6 51.0181 1048.63 L64.0042 1042.1 L64.0042 1049.01 L51.8138 1055.09 Q47.0395 1057.45 45.48 1059.67 Q43.9204 1061.87 43.9204 1065.69 L43.9204 1072.69 L64.0042 1072.69 L64.0042 1079.12 L16.4842 1079.12 L16.4842 1064.61 Q16.4842 1056.46 19.8898 1052.45 Q23.2955 1048.44 30.1704 1048.44 Q34.6582 1048.44 37.6183 1050.54 Q40.5784 1052.61 41.7242 1056.59 M21.7677 1072.69 L38.6368 1072.69 L38.6368 1064.61 Q38.6368 1059.96 36.5043 1057.61 Q34.34 1055.22 30.1704 1055.22 Q26.0009 1055.22 23.9002 1057.61 Q21.7677 1059.96 21.7677 1064.61 L21.7677 1072.69 Z" fill="#000000" fill-rule="evenodd" fill-opacity="1" /><path clip-path="url(#clip620)" d="M46.0847 1019.32 Q46.0847 1026.41 47.7079 1029.15 Q49.3312 1031.89 53.2461 1031.89 Q56.3653 1031.89 58.2114 1029.85 Q60.0256 1027.78 60.0256 1024.25 Q60.0256 1019.38 56.5881 1016.45 Q53.1188 1013.49 47.3897 1013.49 L46.0847 1013.49 L46.0847 1019.32 M43.6657 1007.63 L64.0042 1007.63 L64.0042 1013.49 L58.5933 1013.49 Q61.8398 1015.5 63.3994 1018.49 Q64.9272 1021.48 64.9272 1025.81 Q64.9272 1031.28 61.8716 1034.53 Q58.7843 1037.74 53.6281 1037.74 Q47.6125 1037.74 44.5569 1033.73 Q41.5014 1029.69 41.5014 1021.7 L41.5014 1013.49 L40.9285 1013.49 Q36.8862 1013.49 34.6901 1016.16 Q32.4621 1018.81 32.4621 1023.61 Q32.4621 1026.67 33.1941 1029.56 Q33.9262 1032.46 35.3903 1035.13 L29.9795 1035.13 Q28.7381 1031.92 28.1334 1028.9 Q27.4968 1025.87 27.4968 1023.01 Q27.4968 1015.27 31.5072 1011.45 Q35.5176 1007.63 43.6657 1007.63 Z" fill="#000000" fill-rule="evenodd" fill-opacity="1" /><path clip-path="url(#clip620)" d="M18.2347 989.779 L28.3562 989.779 L28.3562 977.716 L32.9077 977.716 L32.9077 989.779 L52.2594 989.779 Q56.6199 989.779 57.8613 988.601 Q59.1026 987.392 59.1026 983.731 L59.1026 977.716 L64.0042 977.716 L64.0042 983.731 Q64.0042 990.511 61.4897 993.089 Q58.9434 995.667 52.2594 995.667 L32.9077 995.667 L32.9077 999.964 L28.3562 999.964 L28.3562 995.667 L18.2347 995.667 L18.2347 989.779 Z" fill="#000000" fill-rule="evenodd" fill-opacity="1" /><path clip-path="url(#clip620)" d="M44.7161 939.522 L47.5806 939.522 L47.5806 966.449 Q53.6281 966.067 56.8109 962.82 Q59.9619 959.542 59.9619 953.717 Q59.9619 950.343 59.1344 947.192 Q58.3069 944.009 56.6518 940.89 L62.1899 940.89 Q63.5267 944.041 64.227 947.351 Q64.9272 950.662 64.9272 954.067 Q64.9272 962.597 59.9619 967.594 Q54.9967 972.56 46.5303 972.56 Q37.7774 972.56 32.6531 967.849 Q27.4968 963.107 27.4968 955.086 Q27.4968 947.892 32.1438 943.723 Q36.7589 939.522 44.7161 939.522 M42.9973 945.378 Q38.1912 945.442 35.3266 948.083 Q32.4621 950.693 32.4621 955.022 Q32.4621 959.924 35.2312 962.884 Q38.0002 965.812 43.0292 966.258 L42.9973 945.378 Z" fill="#000000" fill-rule="evenodd" fill-opacity="1" /><path clip-path="url(#clip620)" d="M32.4621 895.375 Q32.4621 900.086 36.1542 902.823 Q39.8145 905.561 46.212 905.561 Q52.6095 905.561 56.3017 902.855 Q59.9619 900.118 59.9619 895.375 Q59.9619 890.697 56.2698 887.959 Q52.5777 885.222 46.212 885.222 Q39.8781 885.222 36.186 887.959 Q32.4621 890.697 32.4621 895.375 M27.4968 895.375 Q27.4968 887.737 32.4621 883.376 Q37.4273 879.016 46.212 879.016 Q54.9649 879.016 59.9619 883.376 Q64.9272 887.737 64.9272 895.375 Q64.9272 903.046 59.9619 907.407 Q54.9649 911.735 46.212 911.735 Q37.4273 911.735 32.4621 907.407 Q27.4968 903.046 27.4968 895.375 Z" fill="#000000" fill-rule="evenodd" fill-opacity="1" /><path clip-path="url(#clip620)" d="M14.479 851.261 L19.3487 851.261 L19.3487 856.863 Q19.3487 860.014 20.6219 861.255 Q21.895 862.465 25.2052 862.465 L28.3562 862.465 L28.3562 852.821 L32.9077 852.821 L32.9077 862.465 L64.0042 862.465 L64.0042 868.353 L32.9077 868.353 L32.9077 873.955 L28.3562 873.955 L28.3562 868.353 L25.8736 868.353 Q19.9216 868.353 17.2162 865.584 Q14.479 862.815 14.479 856.799 L14.479 851.261 Z" fill="#000000" fill-rule="evenodd" fill-opacity="1" /><path clip-path="url(#clip620)" d="M20.1444 789.8 L26.9239 789.8 Q23.9002 793.047 22.4043 796.739 Q20.9083 800.399 20.9083 804.537 Q20.9083 812.685 25.9054 817.014 Q30.8707 821.342 40.2919 821.342 Q49.6813 821.342 54.6784 817.014 Q59.6436 812.685 59.6436 804.537 Q59.6436 800.399 58.1477 796.739 Q56.6518 793.047 53.6281 789.8 L60.3439 789.8 Q62.6355 793.174 63.7814 796.962 Q64.9272 800.717 64.9272 804.919 Q64.9272 815.709 58.3387 821.915 Q51.7183 828.122 40.2919 828.122 Q28.8336 828.122 22.2451 821.915 Q15.6248 815.709 15.6248 804.919 Q15.6248 800.654 16.7706 796.898 Q17.8846 793.11 20.1444 789.8 Z" fill="#000000" fill-rule="evenodd" fill-opacity="1" /><path clip-path="url(#clip620)" d="M32.4621 766.311 Q32.4621 771.021 36.1542 773.759 Q39.8145 776.496 46.212 776.496 Q52.6095 776.496 56.3017 773.79 Q59.9619 771.053 59.9619 766.311 Q59.9619 761.632 56.2698 758.895 Q52.5777 756.157 46.212 756.157 Q39.8781 756.157 36.186 758.895 Q32.4621 761.632 32.4621 766.311 M27.4968 766.311 Q27.4968 758.672 32.4621 754.311 Q37.4273 749.951 46.212 749.951 Q54.9649 749.951 59.9619 754.311 Q64.9272 758.672 64.9272 766.311 Q64.9272 773.981 59.9619 778.342 Q54.9649 782.671 46.212 782.671 Q37.4273 782.671 32.4621 778.342 Q27.4968 773.981 27.4968 766.311 Z" fill="#000000" fill-rule="evenodd" fill-opacity="1" /><path clip-path="url(#clip620)" d="M14.479 740.243 L14.479 734.387 L64.0042 734.387 L64.0042 740.243 L14.479 740.243 Z" fill="#000000" fill-rule="evenodd" fill-opacity="1" /><path clip-path="url(#clip620)" d="M14.479 722.133 L14.479 716.276 L64.0042 716.276 L64.0042 722.133 L14.479 722.133 Z" fill="#000000" fill-rule="evenodd" fill-opacity="1" /><path clip-path="url(#clip620)" d="M28.3562 704.022 L28.3562 698.166 L64.0042 698.166 L64.0042 704.022 L28.3562 704.022 M14.479 704.022 L14.479 698.166 L21.895 698.166 L21.895 704.022 L14.479 704.022 Z" fill="#000000" fill-rule="evenodd" fill-opacity="1" /><path clip-path="url(#clip620)" d="M29.4065 663.186 L34.9447 663.186 Q33.6716 665.669 33.035 668.342 Q32.3984 671.016 32.3984 673.881 Q32.3984 678.241 33.7352 680.437 Q35.072 682.602 37.7456 682.602 Q39.7826 682.602 40.9603 681.042 Q42.1061 679.482 43.1565 674.772 L43.6021 672.767 Q44.9389 666.528 47.3897 663.918 Q49.8086 661.277 54.1691 661.277 Q59.1344 661.277 62.0308 665.223 Q64.9272 669.138 64.9272 676.013 Q64.9272 678.878 64.3543 681.997 Q63.8132 685.084 62.6992 688.522 L56.6518 688.522 Q58.3387 685.275 59.198 682.124 Q60.0256 678.973 60.0256 675.886 Q60.0256 671.748 58.6251 669.52 Q57.1929 667.292 54.6147 667.292 Q52.2276 667.292 50.9545 668.915 Q49.6813 670.507 48.5037 675.949 L48.0262 677.987 Q46.8804 683.429 44.5251 685.848 Q42.138 688.267 38.0002 688.267 Q32.9713 688.267 30.2341 684.702 Q27.4968 681.138 27.4968 674.581 Q27.4968 671.334 27.9743 668.47 Q28.4517 665.605 29.4065 663.186 Z" fill="#000000" fill-rule="evenodd" fill-opacity="1" /><path clip-path="url(#clip620)" d="M28.3562 651.951 L28.3562 646.094 L64.0042 646.094 L64.0042 651.951 L28.3562 651.951 M14.479 651.951 L14.479 646.094 L21.895 646.094 L21.895 651.951 L14.479 651.951 Z" fill="#000000" fill-rule="evenodd" fill-opacity="1" /><path clip-path="url(#clip620)" d="M32.4621 620.027 Q32.4621 624.737 36.1542 627.475 Q39.8145 630.212 46.212 630.212 Q52.6095 630.212 56.3017 627.506 Q59.9619 624.769 59.9619 620.027 Q59.9619 615.348 56.2698 612.611 Q52.5777 609.873 46.212 609.873 Q39.8781 609.873 36.186 612.611 Q32.4621 615.348 32.4621 620.027 M27.4968 620.027 Q27.4968 612.388 32.4621 608.027 Q37.4273 603.667 46.212 603.667 Q54.9649 603.667 59.9619 608.027 Q64.9272 612.388 64.9272 620.027 Q64.9272 627.697 59.9619 632.058 Q54.9649 636.387 46.212 636.387 Q37.4273 636.387 32.4621 632.058 Q27.4968 627.697 27.4968 620.027 Z" fill="#000000" fill-rule="evenodd" fill-opacity="1" /><path clip-path="url(#clip620)" d="M42.4881 564.327 L64.0042 564.327 L64.0042 570.183 L42.679 570.183 Q37.6183 570.183 35.1038 572.157 Q32.5894 574.13 32.5894 578.077 Q32.5894 582.819 35.6131 585.556 Q38.6368 588.294 43.8567 588.294 L64.0042 588.294 L64.0042 594.182 L28.3562 594.182 L28.3562 588.294 L33.8944 588.294 Q30.6797 586.193 29.0883 583.36 Q27.4968 580.496 27.4968 576.772 Q27.4968 570.629 31.3163 567.478 Q35.1038 564.327 42.4881 564.327 Z" fill="#000000" fill-rule="evenodd" fill-opacity="1" /><path clip-path="url(#clip620)" d="M29.4065 529.92 L34.9447 529.92 Q33.6716 532.403 33.035 535.076 Q32.3984 537.75 32.3984 540.615 Q32.3984 544.975 33.7352 547.171 Q35.072 549.336 37.7456 549.336 Q39.7826 549.336 40.9603 547.776 Q42.1061 546.216 43.1565 541.506 L43.6021 539.501 Q44.9389 533.262 47.3897 530.652 Q49.8086 528.01 54.1691 528.01 Q59.1344 528.01 62.0308 531.957 Q64.9272 535.872 64.9272 542.747 Q64.9272 545.612 64.3543 548.731 Q63.8132 551.818 62.6992 555.256 L56.6518 555.256 Q58.3387 552.009 59.198 548.858 Q60.0256 545.707 60.0256 542.62 Q60.0256 538.482 58.6251 536.254 Q57.1929 534.026 54.6147 534.026 Q52.2276 534.026 50.9545 535.649 Q49.6813 537.241 48.5037 542.683 L48.0262 544.72 Q46.8804 550.163 44.5251 552.582 Q42.138 555.001 38.0002 555.001 Q32.9713 555.001 30.2341 551.436 Q27.4968 547.871 27.4968 541.315 Q27.4968 538.068 27.9743 535.204 Q28.4517 532.339 29.4065 529.92 Z" fill="#000000" fill-rule="evenodd" fill-opacity="1" /><path clip-path="url(#clip620)" d="M590.285 59.3397 Q592.918 60.2309 595.389 63.1475 Q597.9 66.0642 600.412 71.1683 L608.716 87.696 L599.926 87.696 L592.189 72.181 Q589.191 66.1047 586.355 64.1197 Q583.56 62.1348 578.699 62.1348 L569.787 62.1348 L569.787 87.696 L561.604 87.696 L561.604 27.216 L580.076 27.216 Q590.447 27.216 595.551 31.5505 Q600.655 35.8849 600.655 44.6349 Q600.655 50.3467 597.981 54.114 Q595.348 57.8813 590.285 59.3397 M569.787 33.9405 L569.787 55.4103 L580.076 55.4103 Q585.991 55.4103 588.988 52.6962 Q592.027 49.9416 592.027 44.6349 Q592.027 39.3282 588.988 36.6546 Q585.991 33.9405 580.076 33.9405 L569.787 33.9405 Z" fill="#000000" fill-rule="evenodd" fill-opacity="1" /><path clip-path="url(#clip620)" d="M637.721 64.8894 Q628.687 64.8894 625.204 66.9554 Q621.72 69.0213 621.72 74.0039 Q621.72 77.9738 624.312 80.3234 Q626.945 82.6324 631.442 82.6324 Q637.64 82.6324 641.367 78.2574 Q645.134 73.8419 645.134 66.5503 L645.134 64.8894 L637.721 64.8894 M652.588 61.8107 L652.588 87.696 L645.134 87.696 L645.134 80.8095 Q642.582 84.9414 638.774 86.9263 Q634.966 88.8708 629.457 88.8708 Q622.489 88.8708 618.357 84.9819 Q614.266 81.0525 614.266 74.4901 Q614.266 66.8338 619.37 62.945 Q624.515 59.0561 634.683 59.0561 L645.134 59.0561 L645.134 58.3269 Q645.134 53.1823 641.731 50.3872 Q638.369 47.5515 632.252 47.5515 Q628.363 47.5515 624.677 48.4832 Q620.991 49.415 617.588 51.2784 L617.588 44.3918 Q621.679 42.812 625.528 42.0423 Q629.376 41.2321 633.022 41.2321 Q642.865 41.2321 647.727 46.3363 Q652.588 51.4404 652.588 61.8107 Z" fill="#000000" fill-rule="evenodd" fill-opacity="1" /><path clip-path="url(#clip620)" d="M675.313 29.444 L675.313 42.3259 L690.666 42.3259 L690.666 48.1187 L675.313 48.1187 L675.313 72.7482 Q675.313 78.2979 676.812 79.8778 Q678.351 81.4576 683.01 81.4576 L690.666 81.4576 L690.666 87.696 L683.01 87.696 Q674.381 87.696 671.1 84.4958 Q667.819 81.2551 667.819 72.7482 L667.819 48.1187 L662.35 48.1187 L662.35 42.3259 L667.819 42.3259 L667.819 29.444 L675.313 29.444 Z" fill="#000000" fill-rule="evenodd" fill-opacity="1" /><path clip-path="url(#clip620)" d="M739.277 63.1475 L739.277 66.7933 L705.006 66.7933 Q705.492 74.4901 709.624 78.541 Q713.797 82.5514 721.21 82.5514 Q725.504 82.5514 729.514 81.4981 Q733.565 80.4449 737.535 78.3384 L737.535 85.387 Q733.525 87.0884 729.312 87.9796 Q725.099 88.8708 720.764 88.8708 Q709.908 88.8708 703.548 82.5514 Q697.229 76.2319 697.229 65.4565 Q697.229 54.3165 703.224 47.7946 Q709.26 41.2321 719.468 41.2321 Q728.623 41.2321 733.93 47.1464 Q739.277 53.0203 739.277 63.1475 M731.823 60.96 Q731.742 54.8432 728.38 51.1974 Q725.058 47.5515 719.549 47.5515 Q713.311 47.5515 709.543 51.0758 Q705.817 54.6001 705.249 61.0005 L731.823 60.96 Z" fill="#000000" fill-rule="evenodd" fill-opacity="1" /><path clip-path="url(#clip620)" d="M795.463 47.5515 Q789.468 47.5515 785.984 52.2506 Q782.5 56.9091 782.5 65.0514 Q782.5 73.1938 785.943 77.8928 Q789.427 82.5514 795.463 82.5514 Q801.418 82.5514 804.902 77.8523 Q808.385 73.1533 808.385 65.0514 Q808.385 56.9901 804.902 52.2911 Q801.418 47.5515 795.463 47.5515 M795.463 41.2321 Q805.185 41.2321 810.735 47.5515 Q816.285 53.8709 816.285 65.0514 Q816.285 76.1914 810.735 82.5514 Q805.185 88.8708 795.463 88.8708 Q785.7 88.8708 780.151 82.5514 Q774.641 76.1914 774.641 65.0514 Q774.641 53.8709 780.151 47.5515 Q785.7 41.2321 795.463 41.2321 Z" fill="#000000" fill-rule="evenodd" fill-opacity="1" /><path clip-path="url(#clip620)" d="M851.609 24.6639 L851.609 30.8618 L844.479 30.8618 Q840.469 30.8618 838.889 32.4822 Q837.349 34.1025 837.349 38.3155 L837.349 42.3259 L849.624 42.3259 L849.624 48.1187 L837.349 48.1187 L837.349 87.696 L829.855 87.696 L829.855 48.1187 L822.726 48.1187 L822.726 42.3259 L829.855 42.3259 L829.855 39.1662 Q829.855 31.591 833.379 28.1477 Q836.904 24.6639 844.56 24.6639 L851.609 24.6639 Z" fill="#000000" fill-rule="evenodd" fill-opacity="1" /><path clip-path="url(#clip620)" d="M929.832 31.8745 L929.832 40.503 Q925.7 36.6546 921.001 34.7507 Q916.342 32.8468 911.076 32.8468 Q900.706 32.8468 895.196 39.2067 Q889.687 45.5261 889.687 57.5168 Q889.687 69.4669 895.196 75.8269 Q900.706 82.1463 911.076 82.1463 Q916.342 82.1463 921.001 80.2423 Q925.7 78.3384 929.832 74.4901 L929.832 83.0375 Q925.538 85.9541 920.717 87.4124 Q915.937 88.8708 910.59 88.8708 Q896.857 88.8708 888.958 80.4854 Q881.059 72.0595 881.059 57.5168 Q881.059 42.9335 888.958 34.5481 Q896.857 26.1223 910.59 26.1223 Q916.018 26.1223 920.798 27.5806 Q925.619 28.9984 929.832 31.8745 Z" fill="#000000" fill-rule="evenodd" fill-opacity="1" /><path clip-path="url(#clip620)" d="M959.727 47.5515 Q953.732 47.5515 950.248 52.2506 Q946.764 56.9091 946.764 65.0514 Q946.764 73.1938 950.208 77.8928 Q953.691 82.5514 959.727 82.5514 Q965.682 82.5514 969.166 77.8523 Q972.65 73.1533 972.65 65.0514 Q972.65 56.9901 969.166 52.2911 Q965.682 47.5515 959.727 47.5515 M959.727 41.2321 Q969.449 41.2321 974.999 47.5515 Q980.549 53.8709 980.549 65.0514 Q980.549 76.1914 974.999 82.5514 Q969.449 88.8708 959.727 88.8708 Q949.965 88.8708 944.415 82.5514 Q938.906 76.1914 938.906 65.0514 Q938.906 53.8709 944.415 47.5515 Q949.965 41.2321 959.727 41.2321 Z" fill="#000000" fill-rule="evenodd" fill-opacity="1" /><path clip-path="url(#clip620)" d="M992.904 24.6639 L1000.36 24.6639 L1000.36 87.696 L992.904 87.696 L992.904 24.6639 Z" fill="#000000" fill-rule="evenodd" fill-opacity="1" /><path clip-path="url(#clip620)" d="M1015.95 24.6639 L1023.41 24.6639 L1023.41 87.696 L1015.95 87.696 L1015.95 24.6639 Z" fill="#000000" fill-rule="evenodd" fill-opacity="1" /><path clip-path="url(#clip620)" d="M1039 42.3259 L1046.46 42.3259 L1046.46 87.696 L1039 87.696 L1039 42.3259 M1039 24.6639 L1046.46 24.6639 L1046.46 34.1025 L1039 34.1025 L1039 24.6639 Z" fill="#000000" fill-rule="evenodd" fill-opacity="1" /><path clip-path="url(#clip620)" d="M1090.98 43.6627 L1090.98 50.7112 Q1087.82 49.0909 1084.41 48.2807 Q1081.01 47.4705 1077.37 47.4705 Q1071.82 47.4705 1069.02 49.1719 Q1066.27 50.8733 1066.27 54.276 Q1066.27 56.8686 1068.25 58.3675 Q1070.24 59.8258 1076.23 61.1626 L1078.78 61.7297 Q1086.72 63.4311 1090.04 66.5503 Q1093.41 69.629 1093.41 75.1787 Q1093.41 81.4981 1088.38 85.1844 Q1083.4 88.8708 1074.65 88.8708 Q1071.01 88.8708 1067.04 88.1416 Q1063.11 87.4529 1058.73 86.0351 L1058.73 78.3384 Q1062.86 80.4854 1066.87 81.5791 Q1070.88 82.6324 1074.81 82.6324 Q1080.08 82.6324 1082.92 80.85 Q1085.75 79.0271 1085.75 75.7458 Q1085.75 72.7077 1083.68 71.0873 Q1081.66 69.4669 1074.73 67.9681 L1072.14 67.3605 Q1065.21 65.9021 1062.13 62.9045 Q1059.06 59.8663 1059.06 54.6001 Q1059.06 48.1997 1063.59 44.7159 Q1068.13 41.2321 1076.47 41.2321 Q1080.61 41.2321 1084.25 41.8398 Q1087.9 42.4474 1090.98 43.6627 Z" fill="#000000" fill-rule="evenodd" fill-opacity="1" /><path clip-path="url(#clip620)" d="M1105.28 42.3259 L1112.73 42.3259 L1112.73 87.696 L1105.28 87.696 L1105.28 42.3259 M1105.28 24.6639 L1112.73 24.6639 L1112.73 34.1025 L1105.28 34.1025 L1105.28 24.6639 Z" fill="#000000" fill-rule="evenodd" fill-opacity="1" /><path clip-path="url(#clip620)" d="M1145.91 47.5515 Q1139.91 47.5515 1136.43 52.2506 Q1132.94 56.9091 1132.94 65.0514 Q1132.94 73.1938 1136.39 77.8928 Q1139.87 82.5514 1145.91 82.5514 Q1151.86 82.5514 1155.35 77.8523 Q1158.83 73.1533 1158.83 65.0514 Q1158.83 56.9901 1155.35 52.2911 Q1151.86 47.5515 1145.91 47.5515 M1145.91 41.2321 Q1155.63 41.2321 1161.18 47.5515 Q1166.73 53.8709 1166.73 65.0514 Q1166.73 76.1914 1161.18 82.5514 Q1155.63 88.8708 1145.91 88.8708 Q1136.14 88.8708 1130.59 82.5514 Q1125.09 76.1914 1125.09 65.0514 Q1125.09 53.8709 1130.59 47.5515 Q1136.14 41.2321 1145.91 41.2321 Z" fill="#000000" fill-rule="evenodd" fill-opacity="1" /><path clip-path="url(#clip620)" d="M1216.8 60.3119 L1216.8 87.696 L1209.34 87.696 L1209.34 60.5549 Q1209.34 54.114 1206.83 50.9138 Q1204.32 47.7136 1199.3 47.7136 Q1193.26 47.7136 1189.78 51.5619 Q1186.29 55.4103 1186.29 62.0538 L1186.29 87.696 L1178.8 87.696 L1178.8 42.3259 L1186.29 42.3259 L1186.29 49.3744 Q1188.97 45.283 1192.57 43.2576 Q1196.22 41.2321 1200.96 41.2321 Q1208.78 41.2321 1212.79 46.0932 Q1216.8 50.9138 1216.8 60.3119 Z" fill="#000000" fill-rule="evenodd" fill-opacity="1" /><path clip-path="url(#clip620)" d="M1260.59 43.6627 L1260.59 50.7112 Q1257.43 49.0909 1254.03 48.2807 Q1250.62 47.4705 1246.98 47.4705 Q1241.43 47.4705 1238.63 49.1719 Q1235.88 50.8733 1235.88 54.276 Q1235.88 56.8686 1237.86 58.3675 Q1239.85 59.8258 1245.84 61.1626 L1248.39 61.7297 Q1256.33 63.4311 1259.66 66.5503 Q1263.02 69.629 1263.02 75.1787 Q1263.02 81.4981 1258 85.1844 Q1253.01 88.8708 1244.26 88.8708 Q1240.62 88.8708 1236.65 88.1416 Q1232.72 87.4529 1228.34 86.0351 L1228.34 78.3384 Q1232.47 80.4854 1236.48 81.5791 Q1240.5 82.6324 1244.42 82.6324 Q1249.69 82.6324 1252.53 80.85 Q1255.36 79.0271 1255.36 75.7458 Q1255.36 72.7077 1253.3 71.0873 Q1251.27 69.4669 1244.34 67.9681 L1241.75 67.3605 Q1234.82 65.9021 1231.75 62.9045 Q1228.67 59.8663 1228.67 54.6001 Q1228.67 48.1997 1233.2 44.7159 Q1237.74 41.2321 1246.09 41.2321 Q1250.22 41.2321 1253.86 41.8398 Q1257.51 42.4474 1260.59 43.6627 Z" fill="#000000" fill-rule="evenodd" fill-opacity="1" /><path clip-path="url(#clip620)" d="M1309.77 33.9405 L1309.77 56.6661 L1320.06 56.6661 Q1325.77 56.6661 1328.89 53.7089 Q1332.01 50.7518 1332.01 45.283 Q1332.01 39.8548 1328.89 36.8977 Q1325.77 33.9405 1320.06 33.9405 L1309.77 33.9405 M1301.58 27.216 L1320.06 27.216 Q1330.22 27.216 1335.41 31.834 Q1340.63 36.4116 1340.63 45.283 Q1340.63 54.2355 1335.41 58.8131 Q1330.22 63.3906 1320.06 63.3906 L1309.77 63.3906 L1309.77 87.696 L1301.58 87.696 L1301.58 27.216 Z" fill="#000000" fill-rule="evenodd" fill-opacity="1" /><path clip-path="url(#clip620)" d="M1387.14 63.1475 L1387.14 66.7933 L1352.87 66.7933 Q1353.35 74.4901 1357.49 78.541 Q1361.66 82.5514 1369.07 82.5514 Q1373.37 82.5514 1377.38 81.4981 Q1381.43 80.4449 1385.4 78.3384 L1385.4 85.387 Q1381.39 87.0884 1377.17 87.9796 Q1372.96 88.8708 1368.63 88.8708 Q1357.77 88.8708 1351.41 82.5514 Q1345.09 76.2319 1345.09 65.4565 Q1345.09 54.3165 1351.09 47.7946 Q1357.12 41.2321 1367.33 41.2321 Q1376.48 41.2321 1381.79 47.1464 Q1387.14 53.0203 1387.14 63.1475 M1379.68 60.96 Q1379.6 54.8432 1376.24 51.1974 Q1372.92 47.5515 1367.41 47.5515 Q1361.17 47.5515 1357.4 51.0758 Q1353.68 54.6001 1353.11 61.0005 L1379.68 60.96 Z" fill="#000000" fill-rule="evenodd" fill-opacity="1" /><path clip-path="url(#clip620)" d="M1425.66 49.2934 Q1424.41 48.5643 1422.91 48.2402 Q1421.45 47.8756 1419.67 47.8756 Q1413.35 47.8756 1409.94 52.0075 Q1406.58 56.0989 1406.58 63.7957 L1406.58 87.696 L1399.09 87.696 L1399.09 42.3259 L1406.58 42.3259 L1406.58 49.3744 Q1408.93 45.2425 1412.7 43.2576 Q1416.47 41.2321 1421.85 41.2321 Q1422.62 41.2321 1423.56 41.3537 Q1424.49 41.4347 1425.62 41.6372 L1425.66 49.2934 Z" fill="#000000" fill-rule="evenodd" fill-opacity="1" /><path clip-path="url(#clip620)" d="M1451.87 27.216 L1460.66 27.216 L1477.43 52.0886 L1494.08 27.216 L1502.87 27.216 L1481.48 58.8941 L1481.48 87.696 L1473.26 87.696 L1473.26 58.8941 L1451.87 27.216 Z" fill="#000000" fill-rule="evenodd" fill-opacity="1" /><path clip-path="url(#clip620)" d="M1538.32 63.1475 L1538.32 66.7933 L1504.05 66.7933 Q1504.53 74.4901 1508.67 78.541 Q1512.84 82.5514 1520.25 82.5514 Q1524.54 82.5514 1528.56 81.4981 Q1532.61 80.4449 1536.58 78.3384 L1536.58 85.387 Q1532.57 87.0884 1528.35 87.9796 Q1524.14 88.8708 1519.81 88.8708 Q1508.95 88.8708 1502.59 82.5514 Q1496.27 76.2319 1496.27 65.4565 Q1496.27 54.3165 1502.26 47.7946 Q1508.3 41.2321 1518.51 41.2321 Q1527.66 41.2321 1532.97 47.1464 Q1538.32 53.0203 1538.32 63.1475 M1530.86 60.96 Q1530.78 54.8432 1527.42 51.1974 Q1524.1 47.5515 1518.59 47.5515 Q1512.35 47.5515 1508.58 51.0758 Q1504.86 54.6001 1504.29 61.0005 L1530.86 60.96 Z" fill="#000000" fill-rule="evenodd" fill-opacity="1" /><path clip-path="url(#clip620)" d="M1571.17 64.8894 Q1562.14 64.8894 1558.65 66.9554 Q1555.17 69.0213 1555.17 74.0039 Q1555.17 77.9738 1557.76 80.3234 Q1560.4 82.6324 1564.89 82.6324 Q1571.09 82.6324 1574.82 78.2574 Q1578.58 73.8419 1578.58 66.5503 L1578.58 64.8894 L1571.17 64.8894 M1586.04 61.8107 L1586.04 87.696 L1578.58 87.696 L1578.58 80.8095 Q1576.03 84.9414 1572.22 86.9263 Q1568.42 88.8708 1562.91 88.8708 Q1555.94 88.8708 1551.81 84.9819 Q1547.72 81.0525 1547.72 74.4901 Q1547.72 66.8338 1552.82 62.945 Q1557.96 59.0561 1568.13 59.0561 L1578.58 59.0561 L1578.58 58.3269 Q1578.58 53.1823 1575.18 50.3872 Q1571.82 47.5515 1565.7 47.5515 Q1561.81 47.5515 1558.13 48.4832 Q1554.44 49.415 1551.04 51.2784 L1551.04 44.3918 Q1555.13 42.812 1558.98 42.0423 Q1562.83 41.2321 1566.47 41.2321 Q1576.32 41.2321 1581.18 46.3363 Q1586.04 51.4404 1586.04 61.8107 Z" fill="#000000" fill-rule="evenodd" fill-opacity="1" /><path clip-path="url(#clip620)" d="M1627.68 49.2934 Q1626.43 48.5643 1624.93 48.2402 Q1623.47 47.8756 1621.69 47.8756 Q1615.37 47.8756 1611.96 52.0075 Q1608.6 56.0989 1608.6 63.7957 L1608.6 87.696 L1601.11 87.696 L1601.11 42.3259 L1608.6 42.3259 L1608.6 49.3744 Q1610.95 45.2425 1614.72 43.2576 Q1618.49 41.2321 1623.87 41.2321 Q1624.64 41.2321 1625.57 41.3537 Q1626.51 41.4347 1627.64 41.6372 L1627.68 49.2934 Z" fill="#000000" fill-rule="evenodd" fill-opacity="1" /><path clip-path="url(#clip620)" d="M1694.44 65.0514 Q1694.44 56.8281 1691.04 52.1696 Q1687.67 47.4705 1681.76 47.4705 Q1675.85 47.4705 1672.44 52.1696 Q1669.08 56.8281 1669.08 65.0514 Q1669.08 73.2748 1672.44 77.9738 Q1675.85 82.6324 1681.76 82.6324 Q1687.67 82.6324 1691.04 77.9738 Q1694.44 73.2748 1694.44 65.0514 M1669.08 49.2124 Q1671.43 45.1615 1675 43.2171 Q1678.6 41.2321 1683.58 41.2321 Q1691.85 41.2321 1696.99 47.7946 Q1702.18 54.3571 1702.18 65.0514 Q1702.18 75.7458 1696.99 82.3083 Q1691.85 88.8708 1683.58 88.8708 Q1678.6 88.8708 1675 86.9263 Q1671.43 84.9414 1669.08 80.8905 L1669.08 87.696 L1661.59 87.696 L1661.59 24.6639 L1669.08 24.6639 L1669.08 49.2124 Z" fill="#000000" fill-rule="evenodd" fill-opacity="1" /><path clip-path="url(#clip620)" d="M1733.41 91.9089 Q1730.25 100.011 1727.25 102.482 Q1724.25 104.953 1719.23 104.953 L1713.28 104.953 L1713.28 98.7145 L1717.65 98.7145 Q1720.73 98.7145 1722.43 97.2561 Q1724.13 95.7978 1726.2 90.3696 L1727.54 86.9668 L1709.18 42.3259 L1717.08 42.3259 L1731.26 77.8118 L1745.44 42.3259 L1753.34 42.3259 L1733.41 91.9089 Z" fill="#000000" fill-rule="evenodd" fill-opacity="1" /><path clip-path="url(#clip620)" d="M1810.54 35.2773 L1799.44 65.3755 L1821.68 65.3755 L1810.54 35.2773 M1805.92 27.216 L1815.2 27.216 L1838.25 87.696 L1829.74 87.696 L1824.23 72.181 L1796.97 72.181 L1791.46 87.696 L1782.83 87.696 L1805.92 27.216 Z" fill="#000000" fill-rule="evenodd" fill-opacity="1" /><path clip-path="url(#clip620)" d="M1846.75 24.6639 L1854.21 24.6639 L1854.21 87.696 L1846.75 87.696 L1846.75 24.6639 Z" fill="#000000" fill-rule="evenodd" fill-opacity="1" /><path clip-path="url(#clip620)" d="M1877.18 29.444 L1877.18 42.3259 L1892.53 42.3259 L1892.53 48.1187 L1877.18 48.1187 L1877.18 72.7482 Q1877.18 78.2979 1878.67 79.8778 Q1880.21 81.4576 1884.87 81.4576 L1892.53 81.4576 L1892.53 87.696 L1884.87 87.696 Q1876.24 87.696 1872.96 84.4958 Q1869.68 81.2551 1869.68 72.7482 L1869.68 48.1187 L1864.21 48.1187 L1864.21 42.3259 L1869.68 42.3259 L1869.68 29.444 L1877.18 29.444 Z" fill="#000000" fill-rule="evenodd" fill-opacity="1" /><path clip-path="url(#clip620)" d="M1902.33 42.3259 L1909.79 42.3259 L1909.79 87.696 L1902.33 87.696 L1902.33 42.3259 M1902.33 24.6639 L1909.79 24.6639 L1909.79 34.1025 L1902.33 34.1025 L1902.33 24.6639 Z" fill="#000000" fill-rule="evenodd" fill-opacity="1" /><path clip-path="url(#clip620)" d="M1932.75 29.444 L1932.75 42.3259 L1948.11 42.3259 L1948.11 48.1187 L1932.75 48.1187 L1932.75 72.7482 Q1932.75 78.2979 1934.25 79.8778 Q1935.79 81.4576 1940.45 81.4576 L1948.11 81.4576 L1948.11 87.696 L1940.45 87.696 Q1931.82 87.696 1928.54 84.4958 Q1925.26 81.2551 1925.26 72.7482 L1925.26 48.1187 L1919.79 48.1187 L1919.79 42.3259 L1925.26 42.3259 L1925.26 29.444 L1932.75 29.444 Z" fill="#000000" fill-rule="evenodd" fill-opacity="1" /><path clip-path="url(#clip620)" d="M1957.14 69.791 L1957.14 42.3259 L1964.59 42.3259 L1964.59 69.5074 Q1964.59 75.9484 1967.11 79.1891 Q1969.62 82.3893 1974.64 82.3893 Q1980.68 82.3893 1984.16 78.541 Q1987.68 74.6926 1987.68 68.0491 L1987.68 42.3259 L1995.14 42.3259 L1995.14 87.696 L1987.68 87.696 L1987.68 80.7284 Q1984.97 84.8604 1981.37 86.8858 Q1977.8 88.8708 1973.06 88.8708 Q1965.24 88.8708 1961.19 84.0097 Q1957.14 79.1486 1957.14 69.791 M1975.9 41.2321 L1975.9 41.2321 Z" fill="#000000" fill-rule="evenodd" fill-opacity="1" /><path clip-path="url(#clip620)" d="M2040.35 49.2124 L2040.35 24.6639 L2047.8 24.6639 L2047.8 87.696 L2040.35 87.696 L2040.35 80.8905 Q2038 84.9414 2034.39 86.9263 Q2030.83 88.8708 2025.8 88.8708 Q2017.58 88.8708 2012.4 82.3083 Q2007.25 75.7458 2007.25 65.0514 Q2007.25 54.3571 2012.4 47.7946 Q2017.58 41.2321 2025.8 41.2321 Q2030.83 41.2321 2034.39 43.2171 Q2038 45.1615 2040.35 49.2124 M2014.95 65.0514 Q2014.95 73.2748 2018.31 77.9738 Q2021.71 82.6324 2027.63 82.6324 Q2033.54 82.6324 2036.94 77.9738 Q2040.35 73.2748 2040.35 65.0514 Q2040.35 56.8281 2036.94 52.1696 Q2033.54 47.4705 2027.63 47.4705 Q2021.71 47.4705 2018.31 52.1696 Q2014.95 56.8281 2014.95 65.0514 Z" fill="#000000" fill-rule="evenodd" fill-opacity="1" /><path clip-path="url(#clip620)" d="M2101.96 63.1475 L2101.96 66.7933 L2067.69 66.7933 Q2068.18 74.4901 2072.31 78.541 Q2076.48 82.5514 2083.89 82.5514 Q2088.19 82.5514 2092.2 81.4981 Q2096.25 80.4449 2100.22 78.3384 L2100.22 85.387 Q2096.21 87.0884 2092 87.9796 Q2087.78 88.8708 2083.45 88.8708 Q2072.59 88.8708 2066.23 82.5514 Q2059.91 76.2319 2059.91 65.4565 Q2059.91 54.3165 2065.91 47.7946 Q2071.94 41.2321 2082.15 41.2321 Q2091.31 41.2321 2096.61 47.1464 Q2101.96 53.0203 2101.96 63.1475 M2094.51 60.96 Q2094.43 54.8432 2091.06 51.1974 Q2087.74 47.5515 2082.23 47.5515 Q2075.99 47.5515 2072.23 51.0758 Q2068.5 54.6001 2067.93 61.0005 L2094.51 60.96 Z" fill="#000000" fill-rule="evenodd" fill-opacity="1" /><path clip-path="url(#clip620)" d="M2116.1 77.4067 L2124.65 77.4067 L2124.65 84.3743 L2118 97.3372 L2112.78 97.3372 L2116.1 84.3743 L2116.1 77.4067 Z" fill="#000000" fill-rule="evenodd" fill-opacity="1" /><path clip-path="url(#clip620)" d="M869.757 117.936 L880.775 117.936 L907.592 168.532 L907.592 117.936 L915.532 117.936 L915.532 178.416 L904.513 178.416 L877.696 127.82 L877.696 178.416 L869.757 178.416 L869.757 117.936 Z" fill="#000000" fill-rule="evenodd" fill-opacity="1" /><path clip-path="url(#clip620)" d="M949.073 138.272 Q943.078 138.272 939.594 142.971 Q936.11 147.629 936.11 155.771 Q936.11 163.914 939.554 168.613 Q943.037 173.271 949.073 173.271 Q955.028 173.271 958.512 168.572 Q961.996 163.873 961.996 155.771 Q961.996 147.71 958.512 143.011 Q955.028 138.272 949.073 138.272 M949.073 131.952 Q958.795 131.952 964.345 138.272 Q969.895 144.591 969.895 155.771 Q969.895 166.911 964.345 173.271 Q958.795 179.591 949.073 179.591 Q939.311 179.591 933.761 173.271 Q928.252 166.911 928.252 155.771 Q928.252 144.591 933.761 138.272 Q939.311 131.952 949.073 131.952 Z" fill="#000000" fill-rule="evenodd" fill-opacity="1" /><path clip-path="url(#clip620)" d="M1019.96 151.032 L1019.96 178.416 L1012.51 178.416 L1012.51 151.275 Q1012.51 144.834 1010 141.634 Q1007.49 138.434 1002.46 138.434 Q996.428 138.434 992.945 142.282 Q989.461 146.13 989.461 152.774 L989.461 178.416 L981.967 178.416 L981.967 133.046 L989.461 133.046 L989.461 140.094 Q992.134 136.003 995.74 133.978 Q999.386 131.952 1004.13 131.952 Q1011.94 131.952 1015.95 136.813 Q1019.96 141.634 1019.96 151.032 Z" fill="#000000" fill-rule="evenodd" fill-opacity="1" /><path clip-path="url(#clip620)" d="M1061.53 117.936 L1096.28 117.936 L1096.28 124.823 L1069.71 124.823 L1069.71 142.647 L1093.69 142.647 L1093.69 149.533 L1069.71 149.533 L1069.71 178.416 L1061.53 178.416 L1061.53 117.936 Z" fill="#000000" fill-rule="evenodd" fill-opacity="1" /><path clip-path="url(#clip620)" d="M1103.62 160.511 L1103.62 133.046 L1111.07 133.046 L1111.07 160.227 Q1111.07 166.668 1113.58 169.909 Q1116.09 173.109 1121.12 173.109 Q1127.15 173.109 1130.63 169.261 Q1134.16 165.413 1134.16 158.769 L1134.16 133.046 L1141.61 133.046 L1141.61 178.416 L1134.16 178.416 L1134.16 171.448 Q1131.45 175.58 1127.84 177.606 Q1124.27 179.591 1119.54 179.591 Q1111.72 179.591 1107.67 174.73 Q1103.62 169.869 1103.62 160.511 M1122.37 131.952 L1122.37 131.952 Z" fill="#000000" fill-rule="evenodd" fill-opacity="1" /><path clip-path="url(#clip620)" d="M1194.68 151.032 L1194.68 178.416 L1187.23 178.416 L1187.23 151.275 Q1187.23 144.834 1184.71 141.634 Q1182.2 138.434 1177.18 138.434 Q1171.14 138.434 1167.66 142.282 Q1164.18 146.13 1164.18 152.774 L1164.18 178.416 L1156.68 178.416 L1156.68 133.046 L1164.18 133.046 L1164.18 140.094 Q1166.85 136.003 1170.46 133.978 Q1174.1 131.952 1178.84 131.952 Q1186.66 131.952 1190.67 136.813 Q1194.68 141.634 1194.68 151.032 Z" fill="#000000" fill-rule="evenodd" fill-opacity="1" /><path clip-path="url(#clip620)" d="M1242.2 134.788 L1242.2 141.755 Q1239.04 140.013 1235.84 139.163 Q1232.68 138.272 1229.44 138.272 Q1222.19 138.272 1218.17 142.89 Q1214.16 147.467 1214.16 155.771 Q1214.16 164.076 1218.17 168.694 Q1222.19 173.271 1229.44 173.271 Q1232.68 173.271 1235.84 172.421 Q1239.04 171.529 1242.2 169.788 L1242.2 176.674 Q1239.08 178.132 1235.72 178.862 Q1232.39 179.591 1228.63 179.591 Q1218.38 179.591 1212.34 173.15 Q1206.31 166.709 1206.31 155.771 Q1206.31 144.672 1212.38 138.312 Q1218.5 131.952 1229.11 131.952 Q1232.56 131.952 1235.84 132.681 Q1239.12 133.37 1242.2 134.788 Z" fill="#000000" fill-rule="evenodd" fill-opacity="1" /><path clip-path="url(#clip620)" d="M1262.53 120.164 L1262.53 133.046 L1277.89 133.046 L1277.89 138.839 L1262.53 138.839 L1262.53 163.468 Q1262.53 169.018 1264.03 170.598 Q1265.57 172.178 1270.23 172.178 L1277.89 172.178 L1277.89 178.416 L1270.23 178.416 Q1261.6 178.416 1258.32 175.216 Q1255.04 171.975 1255.04 163.468 L1255.04 138.839 L1249.57 138.839 L1249.57 133.046 L1255.04 133.046 L1255.04 120.164 L1262.53 120.164 Z" fill="#000000" fill-rule="evenodd" fill-opacity="1" /><path clip-path="url(#clip620)" d="M1287.69 133.046 L1295.14 133.046 L1295.14 178.416 L1287.69 178.416 L1287.69 133.046 M1287.69 115.384 L1295.14 115.384 L1295.14 124.823 L1287.69 124.823 L1287.69 115.384 Z" fill="#000000" fill-rule="evenodd" fill-opacity="1" /><path clip-path="url(#clip620)" d="M1328.32 138.272 Q1322.32 138.272 1318.84 142.971 Q1315.36 147.629 1315.36 155.771 Q1315.36 163.914 1318.8 168.613 Q1322.28 173.271 1328.32 173.271 Q1334.27 173.271 1337.76 168.572 Q1341.24 163.873 1341.24 155.771 Q1341.24 147.71 1337.76 143.011 Q1334.27 138.272 1328.32 138.272 M1328.32 131.952 Q1338.04 131.952 1343.59 138.272 Q1349.14 144.591 1349.14 155.771 Q1349.14 166.911 1343.59 173.271 Q1338.04 179.591 1328.32 179.591 Q1318.56 179.591 1313.01 173.271 Q1307.5 166.911 1307.5 155.771 Q1307.5 144.591 1313.01 138.272 Q1318.56 131.952 1328.32 131.952 Z" fill="#000000" fill-rule="evenodd" fill-opacity="1" /><path clip-path="url(#clip620)" d="M1399.21 151.032 L1399.21 178.416 L1391.76 178.416 L1391.76 151.275 Q1391.76 144.834 1389.24 141.634 Q1386.73 138.434 1381.71 138.434 Q1375.67 138.434 1372.19 142.282 Q1368.71 146.13 1368.71 152.774 L1368.71 178.416 L1361.21 178.416 L1361.21 133.046 L1368.71 133.046 L1368.71 140.094 Q1371.38 136.003 1374.99 133.978 Q1378.63 131.952 1383.37 131.952 Q1391.19 131.952 1395.2 136.813 Q1399.21 141.634 1399.21 151.032 Z" fill="#000000" fill-rule="evenodd" fill-opacity="1" /><path clip-path="url(#clip620)" d="M1434.7 155.609 Q1425.66 155.609 1422.18 157.675 Q1418.69 159.741 1418.69 164.724 Q1418.69 168.694 1421.29 171.043 Q1423.92 173.352 1428.42 173.352 Q1434.61 173.352 1438.34 168.977 Q1442.11 164.562 1442.11 157.27 L1442.11 155.609 L1434.7 155.609 M1449.56 152.531 L1449.56 178.416 L1442.11 178.416 L1442.11 171.529 Q1439.56 175.661 1435.75 177.646 Q1431.94 179.591 1426.43 179.591 Q1419.46 179.591 1415.33 175.702 Q1411.24 171.773 1411.24 165.21 Q1411.24 157.554 1416.35 153.665 Q1421.49 149.776 1431.66 149.776 L1442.11 149.776 L1442.11 149.047 Q1442.11 143.902 1438.71 141.107 Q1435.34 138.272 1429.23 138.272 Q1425.34 138.272 1421.65 139.203 Q1417.97 140.135 1414.56 141.998 L1414.56 135.112 Q1418.65 133.532 1422.5 132.762 Q1426.35 131.952 1430 131.952 Q1439.84 131.952 1444.7 137.056 Q1449.56 142.16 1449.56 152.531 Z" fill="#000000" fill-rule="evenodd" fill-opacity="1" /><path clip-path="url(#clip620)" d="M1464.92 115.384 L1472.37 115.384 L1472.37 178.416 L1464.92 178.416 L1464.92 115.384 Z" fill="#000000" fill-rule="evenodd" fill-opacity="1" /><path clip-path="url(#clip620)" d="M1550.92 119.921 L1550.92 127.901 Q1546.26 125.673 1542.13 124.579 Q1537.99 123.486 1534.15 123.486 Q1527.46 123.486 1523.82 126.078 Q1520.21 128.671 1520.21 133.451 Q1520.21 137.461 1522.6 139.527 Q1525.03 141.553 1531.76 142.809 L1536.7 143.821 Q1545.85 145.563 1550.19 149.979 Q1554.56 154.354 1554.56 161.726 Q1554.56 170.517 1548.65 175.054 Q1542.77 179.591 1531.39 179.591 Q1527.1 179.591 1522.24 178.619 Q1517.42 177.646 1512.23 175.742 L1512.23 167.317 Q1517.21 170.112 1521.99 171.529 Q1526.77 172.947 1531.39 172.947 Q1538.4 172.947 1542.21 170.193 Q1546.01 167.438 1546.01 162.334 Q1546.01 157.878 1543.26 155.366 Q1540.55 152.855 1534.31 151.599 L1529.32 150.627 Q1520.17 148.804 1516.08 144.915 Q1511.99 141.026 1511.99 134.099 Q1511.99 126.078 1517.62 121.46 Q1523.29 116.842 1533.21 116.842 Q1537.47 116.842 1541.88 117.612 Q1546.3 118.382 1550.92 119.921 Z" fill="#000000" fill-rule="evenodd" fill-opacity="1" /><path clip-path="url(#clip620)" d="M1587.62 155.609 Q1578.58 155.609 1575.1 157.675 Q1571.62 159.741 1571.62 164.724 Q1571.62 168.694 1574.21 171.043 Q1576.84 173.352 1581.34 173.352 Q1587.54 173.352 1591.26 168.977 Q1595.03 164.562 1595.03 157.27 L1595.03 155.609 L1587.62 155.609 M1602.48 152.531 L1602.48 178.416 L1595.03 178.416 L1595.03 171.529 Q1592.48 175.661 1588.67 177.646 Q1584.86 179.591 1579.35 179.591 Q1572.39 179.591 1568.25 175.702 Q1564.16 171.773 1564.16 165.21 Q1564.16 157.554 1569.27 153.665 Q1574.41 149.776 1584.58 149.776 L1595.03 149.776 L1595.03 149.047 Q1595.03 143.902 1591.63 141.107 Q1588.27 138.272 1582.15 138.272 Q1578.26 138.272 1574.57 139.203 Q1570.89 140.135 1567.48 141.998 L1567.48 135.112 Q1571.58 133.532 1575.42 132.762 Q1579.27 131.952 1582.92 131.952 Q1592.76 131.952 1597.62 137.056 Q1602.48 142.16 1602.48 152.531 Z" fill="#000000" fill-rule="evenodd" fill-opacity="1" /><path clip-path="url(#clip620)" d="M1625.21 120.164 L1625.21 133.046 L1640.56 133.046 L1640.56 138.839 L1625.21 138.839 L1625.21 163.468 Q1625.21 169.018 1626.71 170.598 Q1628.25 172.178 1632.91 172.178 L1640.56 172.178 L1640.56 178.416 L1632.91 178.416 Q1624.28 178.416 1621 175.216 Q1617.72 171.975 1617.72 163.468 L1617.72 138.839 L1612.25 138.839 L1612.25 133.046 L1617.72 133.046 L1617.72 120.164 L1625.21 120.164 Z" fill="#000000" fill-rule="evenodd" fill-opacity="1" /><path clip-path="url(#clip620)" d="M1689.17 153.868 L1689.17 157.513 L1654.9 157.513 Q1655.39 165.21 1659.52 169.261 Q1663.69 173.271 1671.11 173.271 Q1675.4 173.271 1679.41 172.218 Q1683.46 171.165 1687.43 169.058 L1687.43 176.107 Q1683.42 177.808 1679.21 178.7 Q1675 179.591 1670.66 179.591 Q1659.8 179.591 1653.44 173.271 Q1647.13 166.952 1647.13 156.177 Q1647.13 145.037 1653.12 138.515 Q1659.16 131.952 1669.36 131.952 Q1678.52 131.952 1683.83 137.866 Q1689.17 143.74 1689.17 153.868 M1681.72 151.68 Q1681.64 145.563 1678.28 141.917 Q1674.95 138.272 1669.45 138.272 Q1663.21 138.272 1659.44 141.796 Q1655.71 145.32 1655.15 151.721 L1681.72 151.68 Z" fill="#000000" fill-rule="evenodd" fill-opacity="1" /><path clip-path="url(#clip620)" d="M1701.41 115.384 L1708.86 115.384 L1708.86 178.416 L1701.41 178.416 L1701.41 115.384 Z" fill="#000000" fill-rule="evenodd" fill-opacity="1" /><path clip-path="url(#clip620)" d="M1724.46 115.384 L1731.91 115.384 L1731.91 178.416 L1724.46 178.416 L1724.46 115.384 Z" fill="#000000" fill-rule="evenodd" fill-opacity="1" /><path clip-path="url(#clip620)" d="M1747.51 133.046 L1754.96 133.046 L1754.96 178.416 L1747.51 178.416 L1747.51 133.046 M1747.51 115.384 L1754.96 115.384 L1754.96 124.823 L1747.51 124.823 L1747.51 115.384 Z" fill="#000000" fill-rule="evenodd" fill-opacity="1" /><path clip-path="url(#clip620)" d="M1777.93 120.164 L1777.93 133.046 L1793.28 133.046 L1793.28 138.839 L1777.93 138.839 L1777.93 163.468 Q1777.93 169.018 1779.43 170.598 Q1780.97 172.178 1785.63 172.178 L1793.28 172.178 L1793.28 178.416 L1785.63 178.416 Q1777 178.416 1773.72 175.216 Q1770.43 171.975 1770.43 163.468 L1770.43 138.839 L1764.97 138.839 L1764.97 133.046 L1770.43 133.046 L1770.43 120.164 L1777.93 120.164 Z" fill="#000000" fill-rule="evenodd" fill-opacity="1" /><path clip-path="url(#clip620)" d="M1841.89 153.868 L1841.89 157.513 L1807.62 157.513 Q1808.11 165.21 1812.24 169.261 Q1816.41 173.271 1823.83 173.271 Q1828.12 173.271 1832.13 172.218 Q1836.18 171.165 1840.15 169.058 L1840.15 176.107 Q1836.14 177.808 1831.93 178.7 Q1827.71 179.591 1823.38 179.591 Q1812.52 179.591 1806.16 173.271 Q1799.84 166.952 1799.84 156.177 Q1799.84 145.037 1805.84 138.515 Q1811.88 131.952 1822.08 131.952 Q1831.24 131.952 1836.55 137.866 Q1841.89 143.74 1841.89 153.868 M1834.44 151.68 Q1834.36 145.563 1831 141.917 Q1827.67 138.272 1822.16 138.272 Q1815.93 138.272 1812.16 141.796 Q1808.43 145.32 1807.87 151.721 L1834.44 151.68 Z" fill="#000000" fill-rule="evenodd" fill-opacity="1" /><path clip-path="url(#clip620)" d="M1883.05 134.383 L1883.05 141.431 Q1879.89 139.811 1876.49 139.001 Q1873.08 138.191 1869.44 138.191 Q1863.89 138.191 1861.09 139.892 Q1858.34 141.593 1858.34 144.996 Q1858.34 147.589 1860.32 149.087 Q1862.31 150.546 1868.3 151.883 L1870.86 152.45 Q1878.8 154.151 1882.12 157.27 Q1885.48 160.349 1885.48 165.899 Q1885.48 172.218 1880.46 175.904 Q1875.47 179.591 1866.72 179.591 Q1863.08 179.591 1859.11 178.862 Q1855.18 178.173 1850.8 176.755 L1850.8 169.058 Q1854.94 171.205 1858.95 172.299 Q1862.96 173.352 1866.89 173.352 Q1872.15 173.352 1874.99 171.57 Q1877.82 169.747 1877.82 166.466 Q1877.82 163.428 1875.76 161.807 Q1873.73 160.187 1866.81 158.688 L1864.21 158.08 Q1857.29 156.622 1854.21 153.624 Q1851.13 150.586 1851.13 145.32 Q1851.13 138.92 1855.67 135.436 Q1860.2 131.952 1868.55 131.952 Q1872.68 131.952 1876.33 132.56 Q1879.97 133.167 1883.05 134.383 Z" fill="#000000" fill-rule="evenodd" fill-opacity="1" /><polyline clip-path="url(#clip622)" style="stroke:#009af9; stroke-linecap:butt; stroke-linejoin:round; stroke-width:4; stroke-opacity:1; fill:none" points="
  424.141,219.025 462.354,760.752 500.567,920.748 538.78,1034.23 576.993,1087.57 615.206,1135.91 653.419,1183.35 691.632,1241.41 729.845,1272.87 768.059,1294.54 
  806.272,1308.44 844.485,1319.41 882.698,1328.45 920.911,1333.41 959.124,1339.1 997.337,1346.57 1035.55,1353.65 1073.76,1359.36 1111.98,1364.62 1150.19,1372.24 
  1188.4,1376.96 1226.62,1379.13 1264.83,1379.63 1303.04,1380.14 1341.26,1380.8 1379.47,1381.83 1417.68,1382.23 1455.89,1382.64 1494.11,1383.1 1532.32,1383.66 
  1570.53,1384.31 1608.75,1384.82 1646.96,1385.38 1685.17,1385.85 1723.39,1386.14 1761.6,1386.29 1799.81,1386.38 1838.03,1386.48 1876.24,1386.64 1914.45,1386.76 
  1952.66,1386.82 1990.88,1386.82 2029.09,1386.82 2067.3,1386.81 2105.52,1386.79 2143.73,1386.77 2181.94,1386.75 2220.16,1386.73 2258.37,1386.72 2296.58,1386.7 
  
  "/>
<polyline clip-path="url(#clip622)" style="stroke:#e26f46; stroke-linecap:butt; stroke-linejoin:round; stroke-width:4; stroke-opacity:1; fill:none" points="
  424.141,1388.11 462.354,1388.11 500.567,1387.82 538.78,1388.03 576.993,1387.82 615.206,1386.21 653.419,1381.99 691.632,1368 729.845,1363.05 768.059,1317.15 
  806.272,1271.19 844.485,1263.9 882.698,1316.21 920.911,1328.15 959.124,1311.98 997.337,1276.72 1035.55,1265 1073.76,1288.23 1111.98,1322.18 1150.19,1328.08 
  1188.4,1347.68 1226.62,1360.72 1264.83,1366.84 1303.04,1369.9 1341.26,1355.54 1379.47,1370.48 1417.68,1375.87 1455.89,1377.54 1494.11,1359.26 1532.32,1354.16 
  1570.53,1362.68 1608.75,1378.2 1646.96,1380.82 1685.17,1381.99 1723.39,1383.59 1761.6,1385.41 1799.81,1386.14 1838.03,1385.48 1876.24,1385.78 1914.45,1385.99 
  1952.66,1385.92 1990.88,1386.14 2029.09,1386.14 2067.3,1387.16 2105.52,1387.45 2143.73,1387.6 2181.94,1387.45 2220.16,1387.6 2258.37,1387.45 2296.58,1387.38 
  
  "/>
<path clip-path="url(#clip620)" d="
M1994.17 380.78 L2286.6 380.78 L2286.6 225.26 L1994.17 225.26  Z
  " fill="#ffffff" fill-rule="evenodd" fill-opacity="1"/>
<polyline clip-path="url(#clip620)" style="stroke:#000000; stroke-linecap:butt; stroke-linejoin:round; stroke-width:4; stroke-opacity:1; fill:none" points="
  1994.17,380.78 2286.6,380.78 2286.6,225.26 1994.17,225.26 1994.17,380.78 
  "/>
<polyline clip-path="url(#clip620)" style="stroke:#009af9; stroke-linecap:butt; stroke-linejoin:round; stroke-width:4; stroke-opacity:1; fill:none" points="
  2018.17,277.1 2162.17,277.1 
  "/>
<path clip-path="url(#clip620)" d="M2200.01 296.787 Q2198.2 301.417 2196.49 302.829 Q2194.78 304.241 2191.91 304.241 L2188.5 304.241 L2188.5 300.676 L2191 300.676 Q2192.76 300.676 2193.74 299.843 Q2194.71 299.009 2195.89 295.907 L2196.65 293.963 L2186.17 268.454 L2190.68 268.454 L2198.78 288.732 L2206.88 268.454 L2211.4 268.454 L2200.01 296.787 Z" fill="#000000" fill-rule="evenodd" fill-opacity="1" /><path clip-path="url(#clip620)" d="M2218.69 290.445 L2226.33 290.445 L2226.33 264.079 L2218.02 265.746 L2218.02 261.486 L2226.28 259.82 L2230.96 259.82 L2230.96 290.445 L2238.6 290.445 L2238.6 294.38 L2218.69 294.38 L2218.69 290.445 Z" fill="#000000" fill-rule="evenodd" fill-opacity="1" /><polyline clip-path="url(#clip620)" style="stroke:#e26f46; stroke-linecap:butt; stroke-linejoin:round; stroke-width:4; stroke-opacity:1; fill:none" points="
  2018.17,328.94 2162.17,328.94 
  "/>
<path clip-path="url(#clip620)" d="M2200.01 348.627 Q2198.2 353.257 2196.49 354.669 Q2194.78 356.081 2191.91 356.081 L2188.5 356.081 L2188.5 352.516 L2191 352.516 Q2192.76 352.516 2193.74 351.683 Q2194.71 350.849 2195.89 347.747 L2196.65 345.803 L2186.17 320.294 L2190.68 320.294 L2198.78 340.572 L2206.88 320.294 L2211.4 320.294 L2200.01 348.627 Z" fill="#000000" fill-rule="evenodd" fill-opacity="1" /><path clip-path="url(#clip620)" d="M2221.91 342.285 L2238.23 342.285 L2238.23 346.22 L2216.28 346.22 L2216.28 342.285 Q2218.94 339.53 2223.53 334.9 Q2228.13 330.248 2229.31 328.905 Q2231.56 326.382 2232.44 324.646 Q2233.34 322.887 2233.34 321.197 Q2233.34 318.442 2231.4 316.706 Q2229.48 314.97 2226.37 314.97 Q2224.18 314.97 2221.72 315.734 Q2219.29 316.498 2216.51 318.049 L2216.51 313.326 Q2219.34 312.192 2221.79 311.613 Q2224.24 311.035 2226.28 311.035 Q2231.65 311.035 2234.85 313.72 Q2238.04 316.405 2238.04 320.896 Q2238.04 323.025 2237.23 324.947 Q2236.44 326.845 2234.34 329.437 Q2233.76 330.109 2230.66 333.326 Q2227.55 336.521 2221.91 342.285 Z" fill="#000000" fill-rule="evenodd" fill-opacity="1" /></svg>
